<?xml version="1.0" encoding="utf-8"?>
<!-- Generator: Adobe Illustrator 25.1.0, SVG Export Plug-In . SVG Version: 6.00 Build 0)  -->
<svg version="1.1" id="Layer_4" xmlns="http://www.w3.org/2000/svg" xmlns:xlink="http://www.w3.org/1999/xlink" x="0px" y="0px"
	 viewBox="0 0 495.8 665.8" style="enable-background:new 0 0 495.8 665.8;" xml:space="preserve">
<style type="text/css">
	.st0{fill:#FFFFFF;}
</style>
<path class="st0" d="M246.2,400.4c0,0,4.6,19.4,4,26.9c-1.6,18.6-27.2,145.3-28.4,145.8c-2,0.8-5.2,53.8-5.2,61.1s-2.8,23.8-11,22.9
	s4.6,8.6,4.6,8.6l11.6-14.2c0,0,1.1-11.2,0.5-15s3.5-61.5,7.2-69c0,0,15-67.8,15.6-72.1c2.3-13.3,12.2-73.4,10.5-76.4
	c-1.4-17.2-5.5-29.3,6.2-17.2c2,1.4,26.4,12.8,57.7,18.2c19.5,2.2,36.2-4,33.8-8.6c0.2-7.6-13.8-26.7-12.8-33
	c0,0,9.6-14.5,11.2-14.6s71.7-14.4,74-17.1s42.6-19,45.8-18.3c14.8-7.5,18.7-8.1-8.6-19.6c-7.5-0.3-34.4-22.5-34.4-22.5
	s-3.2-12.9,24.7-40.1c5.3-0.5,42.3-31.6,43.6-42.9c-1.1-2.1-42.5-14.6-38.3-20.5s4.7-47,4.7-47s-2.9-20.3,4.6-33.5
	c2.1-0.8,0.6-8.5-13.6,1.7c-4.5,2.6-24.4,19.1-37,12c-5.7-2.3-22.5,27.7-41.6,24.1c-3.8-2.2-17-20.6-29.8,10.6c-2.8,5.8-18,53-18,53
	s-23.9,30.6-18.3,0.8c0,0,33.9-111.4,28.1-118.9c-4.7-7.2-31.5,11-43.1,2.3c-3.1-2.8-16.2-46.9-16.4-54.4
	c1.1-3.4-31.8,14.1-48.8-32.7c-14.8-7.2,1.8,33.6-35.8,45.6c-6.3-0.6-15.9-4.7-14.5,53.8c-2.1,4.9-1.9,26-29.6,18.6
	c-4.9-2.1-26.8-8.9-18.2,14c5.2,7,9.7,26.6,13,30.3s41.6,56.7,40.2,91.9c-2.9,2.6-24.9-30.4-24.9-30.4s-11.2-43.4-30.2-51.8
	c-4.6,1.5-12.1,42-60.6-10.7c-4.9-4.6-11.8,26.3-67.4-2.3c-2.9-1.7,16.2,36.6,11,42.8c-2.1,2.9,17.4,35.5,15.6,39.3
	c1.5,5.5-16.9,16.6-20.1,18.2s-4.1,9.3,53.2,43.6c6.6,1.8,30.2,17.9,5.3,36.5c-20.9,20.4-52,27.6,1.1,31.5c17.3,5,68.5,4,89.4,5.4
	c3.2,3.6,18.8,8.3,13.8,21.2c-3.6,5-15.7,26.8-14.2,28.9s28,17.9,74.8-13C236.5,408.5,246.2,400.4,246.2,400.4z"/>
</svg>
