<svg id="parallax_layer_3" data-name="parallax layer 3" xmlns="http://www.w3.org/2000/svg" viewBox="0 0 2047.89 307.51"><defs><style>.cls-1{fill:#76256e;}</style></defs><path class="cls-1" d="M115.39,278.07c45-13,52.39-19.93,68.79-35.81,10.75-10.4,17.32-19.53,34.17-32.9,18.66-14.81,43.11-33.55,58.93-33.71,79,39.29,41,97.35,87.9,89.89,31.95-5.09,38.52-59.62,69.09-65,49,17,128.64,73.74,168.16,62.75s63.09-96.4,96.61-103.5c39.2-8.29,42.72,104.31,91,99.83,47.25-4.4,48.11-118,103.19-129.79,53.39-11.43,78.57,89.78,166,99.06,76.13,8.08,147.24-59.06,177.94-88,44.08-41.63,42.25-83,66-83.92,38.45-1.51,41.84,95.63,119.69,135.51,38,19.48,92.54,24.63,132.76,2.07C1622.15,157.13,1614,64,1647.8,61c39-3.42,47.52,120.55,119.7,144.46,84.18,27.89,176.71-106.28,218.75-81.17,20.17,12,27.6,60.1-17.89,207.74l-846.11,14.45H397.89L10.61,364.37-45.8,317.59s54.34-137.24,75-135.75S115.39,278.07,115.39,278.07Z" transform="translate(45.8 -56.86)"/></svg>