<svg xmlns="http://www.w3.org/2000/svg" viewBox="0 0 2014.941 413.62"><defs><style>.cls-1{fill:#1e1033;}</style></defs><g id="wall_layer" data-name="wall layer"><path class="cls-1" d="M1998.24-3.6l-472.63-.88a10.147,10.147,0,0,0-9.8,12.83l3.87,14.13a9.85,9.85,0,0,1,.36,2.96l-1.28,46.64a10.291,10.291,0,0,1-.75,3.54l-15.49,38.1a9.933,9.933,0,0,1-2.26,3.39l-41.22,40.8a10.17,10.17,0,0,0-2.83,5.33l-11.78,62.7a10.143,10.143,0,0,1-2.09,4.52l-16.39,20.19a10.017,10.017,0,0,1-4.26,3.09l-15.1,5.75a10.015,10.015,0,0,1-3.33.66c-6.92.19-32.47.88-34.06.88-1.17,0-4.99,4.53-7.58,7.78a10.1,10.1,0,0,1-6.69,3.74c-8.12,1-25.36,3.04-27.46,2.69-2.33-.39-15.87-19.23-19.94-24.96a10.085,10.085,0,0,1-1.6-3.57l-6.69-28.72a10.121,10.121,0,0,0-2.71-4.87l-74.61-74.62a10.135,10.135,0,0,1-1.47-1.85l-19.68-31.99a10.141,10.141,0,0,0-4.7-4.03l-19.45-8.19a10.18,10.18,0,0,1-5.33-5.22L1161,64.06a10.147,10.147,0,0,0-9.53-6.02l-4.25.12a10.128,10.128,0,0,0-9,6.02l-8.04,18.09a10.07,10.07,0,0,1-.87,1.57l-6.11,9.01a10.133,10.133,0,0,1-17.34-.91l-5.82-10.91a10.115,10.115,0,0,0-7.2-5.21l-8.28-1.45a10.14,10.14,0,0,0-8.92,2.82l-15.73,15.73c-.17.17-.34.35-.5.53l-17.36,20.07a10.147,10.147,0,0,1-7.67,3.51h-2.28a10.164,10.164,0,0,0-7.04,2.84l-76.19,73.59a10.178,10.178,0,0,0-2.38,3.56L930.34,237.8a10.154,10.154,0,0,1-4.74,5.26c-7.28,3.8-24.01,12.46-25.08,12.46-.99,0-9.28-6.6-13.9-10.33a10.15,10.15,0,0,0-7.06-2.24l-5.1.34a10.115,10.115,0,0,0-7.46,4.06l-26.09,35.06a10.488,10.488,0,0,1-1.03,1.18L820.09,303a10.138,10.138,0,0,1-9.36,2.65l-17.34-3.95a10.129,10.129,0,0,1-5.6-3.47l-6.5-7.95a10.141,10.141,0,0,0-9.42-3.59l-6.73,1.05a10.257,10.257,0,0,0-4.06,1.58l-13.55,9.04a10.275,10.275,0,0,1-5.45,1.7l-20.16.35a10.109,10.109,0,0,1-5.56-1.54l-8.95-5.59a10.136,10.136,0,0,0-12.55,1.43l-17.38,17.37a10.085,10.085,0,0,1-7.38,2.97l-15.48-.31a10.181,10.181,0,0,1-4.96-1.42l-16.47-9.76a10.164,10.164,0,0,0-11.47.77l-13.67,10.83a10.182,10.182,0,0,1-6.53,2.19l-12.1-.27a10.158,10.158,0,0,1-7.36-3.42l-9.39-10.59a10.136,10.136,0,0,0-16.31,1.55l-7.07,11.91a10.142,10.142,0,0,1-5.4,4.41c-16.35,5.64-84.25,29.05-85.46,29.05-1.07,0-23.29-11.26-33.28-16.35a10.122,10.122,0,0,0-9.49.15c-9.22,5.07-28.97,15.85-31.07,16.2-2.27.38-38.91,3.26-51.63,4.25a10.111,10.111,0,0,1-7.55-2.55l-12.72-11.36a10.125,10.125,0,0,0-12.02-1.11l-14.58,8.87a10.288,10.288,0,0,1-5.18,1.47L133.76,350.9a10.143,10.143,0,0,0-2.74.4L90.9,362.95a9.967,9.967,0,0,0-2.25.96L75.02,371.8a10.08,10.08,0,0,1-5.88,1.33l-7.66-.6a10.157,10.157,0,0,1-8.79-6.8l-9.77-28.25a10.176,10.176,0,0,1-.35-5.33l5.44-26.82a10.173,10.173,0,0,0-.04-4.22l-4.42-19.9a10.138,10.138,0,0,0-2.57-4.8l-29.7-31.1A10.148,10.148,0,0,0-6.2,252.29l-.37,143.96A10.157,10.157,0,0,0,3.56,406.42l1989.85,2.72a10.145,10.145,0,0,0,10.16-10.02l4.8-392.46A10.145,10.145,0,0,0,1998.24-3.6ZM1859.96,258.31l-109.53.87a3.972,3.972,0,0,1-1.97-.49l-21.98-11.83a4.061,4.061,0,0,1-1.52-1.42l-6.93-10.94a4.1,4.1,0,0,0-3.47-1.91h-5.93a4.136,4.136,0,0,1-3.13-1.44l-6.02-7.09a4.074,4.074,0,0,0-1.29-1.01l-19.43-9.72a4.079,4.079,0,0,0-1.94-.43l-52.37,1.31a4.049,4.049,0,0,0-2.8,1.2l-9.5,9.5a4.137,4.137,0,0,1-3.05,1.2l-9.63-.36a4.17,4.17,0,0,1-1.82-.5l-21.35-11.73a4.115,4.115,0,0,1-1.75-1.87l-7.69-16.66-12.99-28.09a53.23,53.23,0,0,0-10.68-15.3l-1.16-1.16a4.111,4.111,0,0,1-1.11-2.03l-4.21-19.39a3.844,3.844,0,0,1-.09-1.07l1.29-25.71a4.025,4.025,0,0,1,.82-2.27l15.56-20.62a4.1,4.1,0,0,1,5.05-1.23l6.56,3.13a4.16,4.16,0,0,0,2.02.4l3.43-.22a4.09,4.09,0,0,0,3.67-2.91l6.15-20.38a4.134,4.134,0,0,1,1.33-1.98l20.72-16.99a4.059,4.059,0,0,1,2.86-.92l10.66.66a4.112,4.112,0,0,1,3.44,2.32l4.18,8.65a4.1,4.1,0,0,0,3.95,2.31l1.45-.09a4.117,4.117,0,0,0,3.77-3.27l3.28-16.04a3.945,3.945,0,0,1,.94-1.88l21.39-24.33a4.145,4.145,0,0,1,3.21-1.4c4.67.15,16.23.59,17.33,1.32,1.37.92,10.54,16.51,10.54,18.35,0,1.41.55,16.48.8,23.29a4.106,4.106,0,0,0,3.38,3.89l8.31,1.48a4.089,4.089,0,0,0,2.44-.31l9.75-4.5a4.042,4.042,0,0,1,2.11-.36c3.57.34,14.56,1.5,14.95,2.65.42,1.28,4.45,16.96,4.98,19.03a3.89,3.89,0,0,1,.09.47l1.9,14.01a4.1,4.1,0,0,0,3.01,3.42l.71.19a4.1,4.1,0,0,0,4.87-2.44l.12-.28a4.084,4.084,0,0,1,4.67-2.48l11.86,2.56a4.134,4.134,0,0,1,2.64,1.88l11.2,18.41a4.073,4.073,0,0,1,.58,2.55l-1.29,12.61a4.089,4.089,0,0,0,3.47,4.48l2.91.44a4.106,4.106,0,0,0,3.86-1.56l1.11-1.43a4.088,4.088,0,0,1,4.99-1.21l9.8,4.59a4.094,4.094,0,0,1,2.29,2.94l6.38,33.1a4.088,4.088,0,0,0,3.5,3.29l4.2.55a4.115,4.115,0,0,1,3.57,3.88l.66,14.31a4.078,4.078,0,0,0,1.7,3.13l3.24,2.35a4.119,4.119,0,0,0,5.79-1.01,4.1,4.1,0,0,1,6.14-.71l6.1,5.54a4.026,4.026,0,0,1,.84,1.08c1.75,3.21,9.76,18.18,9.76,21.86,0,2.95-.7,10.1-1.1,13.95a4.118,4.118,0,0,0,1.93,3.92l2.04,1.25a4.111,4.111,0,0,1,1.93,3.06l1.6,15.05A4.1,4.1,0,0,1,1859.96,258.31Z" transform="translate(6.57 4.48)"/></g></svg>