<svg xmlns="http://www.w3.org/2000/svg" viewBox="0 0 2001.611 405.578"><defs><style>.cls-1{fill:#d25e5e;}</style></defs><g id="ground_layer" data-name="ground layer"><path class="cls-1" d="M6.809,237.28,34.533,265a3.248,3.248,0,0,1,.951,2.3v43.971a3.248,3.248,0,0,1-.951,2.3l-17.3,17.3a3.246,3.246,0,0,0-.952,2.3V347.5a3.248,3.248,0,0,0,.952,2.3L29,361.568a3.248,3.248,0,0,1,.951,2.3v2.6a3.249,3.249,0,0,0,3.249,3.248h79.175a3.248,3.248,0,0,0,3.248-3.248v-3.2a3.244,3.244,0,0,1,.952-2.3l12.657-12.658a3.249,3.249,0,0,1,2.3-.951h17.534a3.249,3.249,0,0,0,3.248-3.249V330.541a3.248,3.248,0,0,1,3.249-3.248h8.866a3.248,3.248,0,0,1,3.248,3.248v13.682a3.249,3.249,0,0,0,3.249,3.248H228.4a3.249,3.249,0,0,0,3.249-3.248V331a3.248,3.248,0,0,1,3.248-3.248h8.866A3.249,3.249,0,0,1,247.013,331v13.911a3.248,3.248,0,0,0,3.248,3.248h45.554a3.249,3.249,0,0,0,3.249-3.248V317.242a3.248,3.248,0,0,1,3.248-3.248h8.637a3.248,3.248,0,0,1,3.248,3.248v28.127a3.249,3.249,0,0,0,3.249,3.249h90.267a3.249,3.249,0,0,0,3.249-3.249V317.013a3.249,3.249,0,0,1,3.248-3.249h8.637a3.249,3.249,0,0,1,3.249,3.249v27.669a3.248,3.248,0,0,0,3.248,3.248h93.248a3.249,3.249,0,0,0,3.249-3.248V328.639a3.248,3.248,0,0,1,.951-2.3l11.282-11.282a3.249,3.249,0,0,1,2.3-.952h12.718a3.249,3.249,0,0,0,3.249-3.248V259.917a3.248,3.248,0,0,1,3.248-3.248h10.242a3.248,3.248,0,0,1,3.248,3.248v50.828a3.249,3.249,0,0,0,3.249,3.249h38.9a3.249,3.249,0,0,0,3.249-3.249v-18.5A3.248,3.248,0,0,1,621.726,289h10.013a3.248,3.248,0,0,1,3.248,3.248v18.5a3.249,3.249,0,0,0,3.249,3.249h53.121a3.249,3.249,0,0,0,3.248-3.249V259.688a3.249,3.249,0,0,1,3.249-3.249h8.178a3.249,3.249,0,0,1,3.248,3.249v51.057a3.249,3.249,0,0,0,3.249,3.249h47.388a3.249,3.249,0,0,0,3.249-3.249v-18.5A3.248,3.248,0,0,1,766.414,289h8.178a3.249,3.249,0,0,1,3.249,3.248V311.2a3.248,3.248,0,0,0,3.248,3.248h81.784a3.248,3.248,0,0,0,3.248-3.248V219.1a3.248,3.248,0,0,1,3.248-3.248h18.268a3.248,3.248,0,0,1,3.248,3.248v92.1a3.249,3.249,0,0,0,3.249,3.248H1003.96a3.244,3.244,0,0,1,2.3.952l10.823,10.823a3.244,3.244,0,0,1,.952,2.3v16.158a3.248,3.248,0,0,0,3.248,3.248H1259.4a3.248,3.248,0,0,0,2.3-.952l13.231-13.23a3.251,3.251,0,0,0,.951-2.3V309.217a3.249,3.249,0,0,1,3.248-3.249h18.727a3.249,3.249,0,0,1,3.248,3.249v35.694a3.248,3.248,0,0,0,3.248,3.248h17.809a3.249,3.249,0,0,0,3.249-3.248V324.58a3.249,3.249,0,0,1,3.248-3.249h19.414a3.249,3.249,0,0,1,3.248,3.249v20.331a3.249,3.249,0,0,0,3.249,3.248h8.017a3.248,3.248,0,0,0,2.3-.951l16.785-16.785a3.246,3.246,0,0,0,.952-2.3v-64.54a3.248,3.248,0,0,1,3.248-3.248h17.695a3.248,3.248,0,0,1,3.248,3.248v80.637a3.248,3.248,0,0,0,3.248,3.248h164.629a3.248,3.248,0,0,0,2.3-.951l44.76-44.76a3.248,3.248,0,0,0,.951-2.3V216.121a3.249,3.249,0,0,1,3.249-3.248h52.089a3.248,3.248,0,0,1,3.248,3.248v37.07a3.249,3.249,0,0,0,3.249,3.248H1907.79a3.248,3.248,0,0,0,3.248-3.248V214.447a3.248,3.248,0,0,1,.952-2.3l25.039-25.039a3.248,3.248,0,0,0,.952-2.3V56.46a3.249,3.249,0,0,1,.951-2.3l56.274-56.274a3.249,3.249,0,0,1,5.546,2.3V398.8a3.249,3.249,0,0,1-3.249,3.249H2.389A3.249,3.249,0,0,1-.86,398.8V241.885a3.249,3.249,0,0,1,.858-2.2l2.123-2.307A3.248,3.248,0,0,1,6.809,237.28Z" transform="translate(0.86 3.534)"/><path class="cls-1" d="M947.921,194.97l57.3-57.3a4.723,4.723,0,0,1,3.339-1.382h210.713a4.721,4.721,0,0,1,3.338,1.382l56.731,56.732a4.72,4.72,0,0,1,0,6.676L1222.918,257.5a4.722,4.722,0,0,1-3.338,1.382h-49.273a4.721,4.721,0,0,0-4.721,4.721v45.285a4.721,4.721,0,0,1-4.721,4.72h-14.4a4.72,4.72,0,0,1-4.721-4.72V263.606a4.721,4.721,0,0,0-4.721-4.721h-27.246a4.721,4.721,0,0,0-4.721,4.721v12.265a4.721,4.721,0,0,1-4.721,4.721h-15.017a4.721,4.721,0,0,1-4.721-4.721V263.606a4.721,4.721,0,0,0-4.721-4.721h-67.345a4.72,4.72,0,0,1-3.3-1.341l-57.267-55.856A4.722,4.722,0,0,1,947.921,194.97Z" transform="translate(0.86 3.534)"/><rect class="cls-1" x="1468.746" y="125.153" width="70.711" height="70.711" rx="4.608" transform="translate(554.898 -1013.015) rotate(45)"/><path class="cls-1" d="M1767.879,2.166V53.582a4.8,4.8,0,0,0,1.408,3.4l41.21,41.21a4.807,4.807,0,0,1,1.407,3.4v62.3a4.807,4.807,0,0,0,4.807,4.806h46.948a4.806,4.806,0,0,0,4.806-4.806V58.176a4.8,4.8,0,0,0-1.408-3.4l-56.9-56.9a4.808,4.808,0,0,0-3.524-1.406l-34.071.893A4.807,4.807,0,0,0,1767.879,2.166Z" transform="translate(0.86 3.534)"/></g></svg>