<svg xmlns="http://www.w3.org/2000/svg" viewBox="0 0 2001.612 405.581"><defs><style>.cls-1{fill:none;}.cls-2{fill:#d15656;}.cls-3{fill:#d25e5e;}</style></defs><g id="Layer_2" data-name="Layer 2"><path class="cls-1" d="M764.026,314.279h0v-.35l-1.812,3.25A3.238,3.238,0,0,0,764.026,314.279Z" transform="translate(0 -0.002)"/><path class="cls-1" d="M863.733,317.982a3.248,3.248,0,0,0,3.248-3.248v-7.8l-6.157,11.044Z" transform="translate(0 -0.002)"/><path class="cls-1" d="M1908.65,259.973a3.248,3.248,0,0,0,3.248-3.248h0V242.369l-9.815,17.6Z" transform="translate(0 -0.002)"/><polygon class="cls-1" points="866.981 247.713 827.805 317.98 846.181 317.98 866.981 280.674 866.981 247.713"/><path class="cls-1" d="M528.733,328.792l10.2-10.2a3.247,3.247,0,0,1,2.3-.952h12.094l3.873-6.946V277.732Z" transform="translate(0 -0.002)"/><path class="cls-1" d="M523.452,351.464a3.249,3.249,0,0,0,3.249-3.248V332.437l-10.608,19.027Z" transform="translate(0 -0.002)"/><path class="cls-1" d="M1623.564,233.921,1558.286,351h17.266a3.253,3.253,0,0,0,1.25-.249l46.762-83.871Z" transform="translate(0 -0.002)"/><path class="cls-1" d="M1275.791,337.281a3.248,3.248,0,0,0,.951-2.3v-7.073l-10.612,19.033Z" transform="translate(0 -0.002)"/><path class="cls-1" d="M1622.613,305.291a3.25,3.25,0,0,0,.951-2.3v-9.847l-14.108,25.3Z" transform="translate(0 -0.002)"/><path class="cls-1" d="M296.675,351.693a3.249,3.249,0,0,0,3.249-3.248V329.558l-12.341,22.135Z" transform="translate(0 -0.002)"/><path class="cls-1" d="M18.093,334.405a3.247,3.247,0,0,0-.952,2.3v7.408l11.033-19.789Z" transform="translate(0 -0.002)"/><path class="cls-1" d="M1363.447,351.693a3.246,3.246,0,0,0,2.3-.951l16.785-16.785a3.243,3.243,0,0,0,.952-2.3V314.124l-20.946,37.569Z" transform="translate(0 -0.002)"/><path class="cls-2" d="M1301.965,312.751a3.249,3.249,0,0,0-3.248-3.249H1287l-10.262,18.406v7.073a3.248,3.248,0,0,1-.951,2.3l-9.661,9.66-32.7,58.642h18.377l50.153-89.955Z" transform="translate(0 -0.002)"/><path class="cls-2" d="M1407.675,270.735l-24.191,43.389v17.533a3.243,3.243,0,0,1-.952,2.3l-16.785,16.785a3.246,3.246,0,0,1-2.3.951h-.909l-30.046,53.89h15.625l59.558-106.823Z" transform="translate(0 -0.002)"/><polygon class="cls-2" points="1231.966 351.461 1201.792 405.581 1218.793 405.581 1248.967 351.461 1231.966 351.461"/><polygon class="cls-2" points="1198.947 351.461 1168.772 405.581 1187.149 405.581 1217.323 351.461 1198.947 351.461"/><polygon class="cls-2" points="1165.927 351.461 1135.753 405.581 1154.13 405.581 1184.304 351.461 1165.927 351.461"/><path class="cls-2" d="M1410.923,351a3.248,3.248,0,0,1-3.248-3.248V325.023l-44.915,80.56h18.377L1411.568,351Z" transform="translate(0 -0.002)"/><polygon class="cls-2" points="1459.229 351 1428.798 405.581 1447.175 405.581 1477.606 351 1459.229 351"/><path class="cls-2" d="M1305.213,351.693a3.248,3.248,0,0,1-3.248-3.248V341.89l-35.511,63.693h18.377l30.046-53.89Z" transform="translate(0 -0.002)"/><polygon class="cls-2" points="1036.603 351.461 1006.429 405.581 1024.805 405.581 1054.979 351.461 1036.603 351.461"/><polygon class="cls-2" points="1426.21 351 1395.779 405.581 1414.156 405.581 1444.587 351 1426.21 351"/><polygon class="cls-2" points="1132.908 351.461 1102.734 405.581 1121.111 405.581 1151.285 351.461 1132.908 351.461"/><polygon class="cls-2" points="924.11 317.98 875.269 405.581 893.646 405.581 942.487 317.98 924.11 317.98"/><path class="cls-2" d="M1352.181,328.114a3.249,3.249,0,0,0-3.248-3.249h-4.456l-45,80.718h18.377l34.331-61.577Z" transform="translate(0 -0.002)"/><polygon class="cls-2" points="957.129 317.98 908.288 405.581 926.665 405.581 975.506 317.98 957.129 317.98"/><path class="cls-2" d="M1004.82,317.982H990.149l-48.841,87.6h17.459l48.324-86.673A3.242,3.242,0,0,0,1004.82,317.982Z" transform="translate(0 -0.002)"/><polygon class="cls-2" points="1102.641 351.461 1072.467 405.581 1088.092 405.581 1118.266 351.461 1102.641 351.461"/><path class="cls-2" d="M1018.9,348.215V332.057a3.243,3.243,0,0,0-.952-2.3l-1.449-1.449-43.085,77.275h18.377l30.184-54.138A3.238,3.238,0,0,1,1018.9,348.215Z" transform="translate(0 -0.002)"/><polygon class="cls-2" points="1069.622 351.461 1039.448 405.581 1057.824 405.581 1087.999 351.461 1069.622 351.461"/><path class="cls-2" d="M1386.732,263.869a3.248,3.248,0,0,0-3.248,3.248v20.744l13.377-23.992Z" transform="translate(0 -0.002)"/><path class="cls-2" d="M894.994,317.982a3.237,3.237,0,0,1-2.9-1.805L842.25,405.583h18.377l48.841-87.6Z" transform="translate(0 -0.002)"/><path class="cls-2" d="M1329.519,324.865a3.249,3.249,0,0,0-3.248,3.249v3.142l3.563-6.391Z" transform="translate(0 -0.002)"/><polygon class="cls-2" points="350.613 352.15 320.823 405.581 339.2 405.581 368.99 352.15 350.613 352.15"/><polygon class="cls-2" points="254.564 351.691 224.518 405.581 242.895 405.581 272.94 351.691 254.564 351.691"/><path class="cls-2" d="M315.057,320.776a3.248,3.248,0,0,0-3.248-3.248h-5.178l-6.707,12.03v18.887a3.249,3.249,0,0,1-3.249,3.248h-9.092l-30.046,53.89h18.377l39.143-70.207Z" transform="translate(0 -0.002)"/><path class="cls-2" d="M247.873,334.534a3.249,3.249,0,0,0-3.25-3.248h-8.866a3.248,3.248,0,0,0-3.248,3.248v13.223a3.249,3.249,0,0,1-3.249,3.248h-7.332L191.5,405.583h18.376l38-68.152Z" transform="translate(0 -0.002)"/><polygon class="cls-2" points="320.346 352.15 290.556 405.581 306.181 405.581 335.971 352.15 320.346 352.15"/><polygon class="cls-2" points="1492.248 351 1461.817 405.581 1480.194 405.581 1510.625 351 1492.248 351"/><path class="cls-2" d="M415.07,317.3a3.249,3.249,0,0,0-3.248,3.249v14l9.62-17.254Z" transform="translate(0 -0.002)"/><path class="cls-2" d="M891.745,262.522l-24.764,44.416v7.8a3.248,3.248,0,0,1-3.248,3.248h-2.909l-48.841,87.6h15.625l64.137-115.036Z" transform="translate(0 -0.002)"/><polygon class="cls-2" points="190.285 351.003 159.855 405.581 176.856 405.581 207.286 351.003 190.285 351.003"/><polygon class="cls-2" points="48.557 373.248 30.531 405.581 46.156 405.581 64.183 373.248 48.557 373.248"/><polygon class="cls-2" points="17.73 250.871 0 282.671 0 315.632 29.529 262.669 17.73 250.871"/><path class="cls-2" d="M17.141,336.705a3.247,3.247,0,0,1,.952-2.3l10.081-10.081,8.17-14.653V276.71L0,341.9v32.96l17.141-30.744Z" transform="translate(0 -0.002)"/><path class="cls-2" d="M7.669,240.814c-.032-.032-.065-.064-.1-.095a3.247,3.247,0,0,0-4.589.193L.858,243.219a3.249,3.249,0,0,0-.858,2.2v10.992l8.328-14.938Z" transform="translate(0 -0.002)"/><path class="cls-2" d="M30.811,370v-2.6a3.246,3.246,0,0,0-.951-2.3l-6.278-6.279L0,401.119v1.215a3.249,3.249,0,0,0,3.249,3.249H15.888l18.035-32.347A3.242,3.242,0,0,1,30.811,370Z" transform="translate(0 -0.002)"/><polygon class="cls-2" points="78.825 373.248 60.798 405.581 79.175 405.581 97.202 373.248 78.825 373.248"/><path class="cls-2" d="M132.392,350.893a3.246,3.246,0,0,0-2.3.951L117.435,364.5a3.243,3.243,0,0,0-.952,2.3V370a3.248,3.248,0,0,1-3.248,3.248h-1.391L93.817,405.583h18.377l30.492-54.69Z" transform="translate(0 -0.002)"/><path class="cls-2" d="M430.2,351.464a3.248,3.248,0,0,1-3.248-3.248V333.67l-40.094,71.913h18.376l30.174-54.119Z" transform="translate(0 -0.002)"/><path class="cls-2" d="M171.786,351.005a3.249,3.249,0,0,1-3.249-3.248V334.075a3.215,3.215,0,0,0-.713-2.008l-40.988,73.516h18.377l30.429-54.578Z" transform="translate(0 -0.002)"/><polygon class="cls-2" points="383.632 352.15 353.843 405.581 372.219 405.581 402.009 352.15 383.632 352.15"/><polygon class="cls-2" points="730.376 317.526 681.282 405.581 698.283 405.581 747.377 317.526 730.376 317.526"/><path class="cls-2" d="M778.7,314.734V295.782a3.24,3.24,0,0,0-2.773-3.2l-11.9,21.347v.35h0a3.238,3.238,0,0,1-1.812,2.9l-49.289,88.4H731.3l49.076-88.023A3.233,3.233,0,0,1,778.7,314.734Z" transform="translate(0 -0.002)"/><path class="cls-2" d="M713.389,317.528a3.249,3.249,0,0,1-3.249-3.249V294.6L648.263,405.583H666.64l49.094-88.055Z" transform="translate(0 -0.002)"/><path class="cls-2" d="M710.14,263.222a3.249,3.249,0,0,0-3.248-3.249h-8.178a3.249,3.249,0,0,0-3.249,3.249v31.437l14.675-26.321Z" transform="translate(0 -0.002)"/><polygon class="cls-2" points="827.805 317.98 778.964 405.581 797.34 405.581 846.181 317.98 827.805 317.98"/><polygon class="cls-2" points="664.336 317.529 615.244 405.581 633.621 405.581 682.713 317.529 664.336 317.529"/><polygon class="cls-2" points="794.786 317.98 745.945 405.581 764.321 405.581 813.162 317.98 794.786 317.98"/><polygon class="cls-2" points="450.054 351.462 419.881 405.581 438.258 405.581 468.431 351.462 450.054 351.462"/><path class="cls-2" d="M866.981,280.676l24.764-44.417V222.634a3.248,3.248,0,0,0-3.248-3.248h-5.721l-15.795,28.329Z" transform="translate(0 -0.002)"/><path class="cls-2" d="M557.2,310.693l16.738-30.022v-17.22a3.248,3.248,0,0,0-3.248-3.248h-3.717L557.2,277.732Z" transform="translate(0 -0.002)"/><polygon class="cls-2" points="483.073 351.462 452.9 405.581 471.277 405.581 501.45 351.462 483.073 351.462"/><path class="cls-2" d="M541.234,317.639a3.247,3.247,0,0,0-2.3.952l-10.2,10.2-2.032,3.645v15.779a3.249,3.249,0,0,1-3.249,3.248h-7.359l-30.174,54.119H504.3l49.032-87.944Z" transform="translate(0 -0.002)"/><path class="cls-2" d="M639.1,317.531a3.249,3.249,0,0,1-3.249-3.249v-4.876l-53.622,96.177H600.6l49.092-88.052Z" transform="translate(0 -0.002)"/><path class="cls-2" d="M577.188,317.528a3.249,3.249,0,0,1-3.249-3.249v-7.345l-55,98.649h18.377l49.094-88.055Z" transform="translate(0 -0.002)"/><path class="cls-2" d="M622.586,292.534a3.248,3.248,0,0,0-3.249,3.245v16.977l11.275-20.222Z" transform="translate(0 -0.002)"/><path class="cls-2" d="M616.088,317.528H601.051l-49.094,88.055h15.625l49.13-88.118A3.213,3.213,0,0,1,616.088,317.528Z" transform="translate(0 -0.002)"/><polygon class="cls-2" points="1623.564 266.879 1651.705 216.405 1633.328 216.405 1623.564 233.919 1623.564 266.879"/><polygon class="cls-2" points="1738.364 259.971 1657.18 405.581 1675.557 405.581 1756.74 259.971 1738.364 259.971"/><polygon class="cls-2" points="2001.612 254.189 1917.206 405.581 1935.582 405.581 2001.612 287.15 2001.612 254.189"/><polygon class="cls-2" points="1938.841 167.779 2001.612 55.193 2001.612 22.233 1938.841 134.819 1938.841 167.779"/><polygon class="cls-2" points="1804.402 259.971 1723.218 405.581 1740.219 405.581 1821.403 259.971 1804.402 259.971"/><polygon class="cls-2" points="1771.383 259.971 1690.199 405.581 1708.576 405.581 1789.759 259.971 1771.383 259.971"/><polygon class="cls-2" points="1705.344 259.971 1624.161 405.581 1642.538 405.581 1723.721 259.971 1705.344 259.971"/><path class="cls-2" d="M1575.552,351h-17.266l-30.431,54.581h18.377l30.57-54.83A3.253,3.253,0,0,1,1575.552,351Z" transform="translate(0 -0.002)"/><polygon class="cls-2" points="2001.612 313.412 1950.225 405.581 1968.602 405.581 2001.612 346.373 2001.612 313.412"/><path class="cls-2" d="M1682.15,219.655h0a3.248,3.248,0,0,0-3.248-3.248h-12.555l-42.783,76.737v9.847a3.25,3.25,0,0,1-.951,2.3l-13.157,13.157-48.581,87.135h18.376l102.9-184.558Z" transform="translate(0 -0.002)"/><path class="cls-2" d="M1685.4,259.973a3.249,3.249,0,0,1-3.249-3.248v-9.438l-88.256,158.3h15.625l81.183-145.61Z" transform="translate(0 -0.002)"/><polygon class="cls-2" points="1869.064 259.971 1787.881 405.581 1806.258 405.581 1887.441 259.971 1869.064 259.971"/><path class="cls-2" d="M1983.244,405.583h15.119a3.249,3.249,0,0,0,3.249-3.249v-29.7Z" transform="translate(0 -0.002)"/><polygon class="cls-2" points="2001.612 140.679 1853.919 405.581 1869.544 405.581 2001.612 168.704 2001.612 140.679"/><polygon class="cls-2" points="1836.045 259.971 1754.862 405.581 1773.239 405.581 1854.422 259.971 1836.045 259.971"/><path class="cls-2" d="M2001.612,81.458,1911.9,242.369v14.356h0a3.248,3.248,0,0,1-3.248,3.248h-6.567L1820.9,405.583h18.377l162.335-291.164Z" transform="translate(0 -0.002)"/><polygon class="cls-2" points="2001.612 194.967 1884.187 405.581 1902.563 405.581 2001.612 227.927 2001.612 194.967"/><polygon class="cls-2" points="1525.267 351 1494.836 405.581 1513.213 405.581 1543.644 351 1525.267 351"/><path class="cls-2" d="M1938.841,108.559,1999.06.551a3.239,3.239,0,0,0-2.994.869L1960.2,37.282,1938.841,75.6Z" transform="translate(0 -0.002)"/><path class="cls-2" d="M1081.457,279.4a4.721,4.721,0,0,0,4.721,4.721h6.344l80.456-144.3H1154.6l-73.144,131.19Z" transform="translate(0 -0.002)"/><polygon class="cls-2" points="1137.644 262.417 1205.997 139.82 1187.62 139.82 1119.267 262.417 1137.644 262.417"/><polygon class="cls-2" points="1200.932 262.414 1252.389 170.121 1240.591 158.322 1182.555 262.414 1200.932 262.414"/><polygon class="cls-2" points="1071.606 262.417 1139.958 139.82 1121.582 139.82 1053.229 262.417 1071.606 262.417"/><path class="cls-2" d="M1142.6,307.81l88.586-158.887-7.719-7.719a4.709,4.709,0,0,0-2.858-1.335L1142.6,279.785Z" transform="translate(0 -0.002)"/><path class="cls-2" d="M1006.091,261.078a4.722,4.722,0,0,0,.8.616l67.948-121.872h-18.376L994.927,250.189Z" transform="translate(0 -0.002)"/><polygon class="cls-2" points="985.442 240.935 1041.818 139.82 1023.442 139.82 973.539 229.325 985.442 240.935"/><path class="cls-2" d="M964.054,220.076l44.709-80.189a4.707,4.707,0,0,0-2.682,1.317L968.95,178.335l-16.8,30.131Z" transform="translate(0 -0.002)"/><polygon class="cls-2" points="1038.587 262.417 1106.939 139.82 1089.48 139.82 1021.127 262.417 1038.587 262.417"/><path class="cls-2" d="M1220.44,262.416a4.722,4.722,0,0,0,3.338-1.382l24.733-24.732,25.078-44.979-11.8-11.8-46.215,82.892Z" transform="translate(0 -0.002)"/><path class="cls-2" d="M1166.446,312.422V291.31l-14.4,25.832h9.681A4.721,4.721,0,0,0,1166.446,312.422Z" transform="translate(0 -0.002)"/><path class="cls-2" d="M1472.826,181.906l35.8-64.2-.4-.4a4.609,4.609,0,0,0-6.517,0l-19.17,19.17-19.739,35.4Z" transform="translate(0 -0.002)"/><polygon class="cls-2" points="1494.025 203.104 1529.822 138.899 1518.023 127.101 1482.227 191.305 1494.025 203.104"/><path class="cls-2" d="M1508.22,210.784l32.87-32.87,9.931-17.813-11.8-11.8-35.485,63.644A4.588,4.588,0,0,0,1508.22,210.784Z" transform="translate(0 -0.002)"/><path class="cls-2" d="M1768.739,57.116a4.8,4.8,0,0,0,1.408,3.4l.958.958L1805.346.06,1786.7.549l-17.958,32.209Z" transform="translate(0 -0.002)"/><polygon class="cls-2" points="1838.678 172.23 1869.325 117.262 1869.325 84.302 1820.302 172.23 1838.678 172.23"/><polygon class="cls-2" points="1790.538 80.905 1826.326 16.716 1816.294 6.684 1780.506 70.873 1790.538 80.905"/><path class="cls-2" d="M1768.739,5.7v.8l2.9-5.2A4.8,4.8,0,0,0,1768.739,5.7Z" transform="translate(0 -0.002)"/><path class="cls-2" d="M1812.764,159.489,1868.64,59.27a4.767,4.767,0,0,0-.723-.96l-10.991-10.991-44.162,79.21Z" transform="translate(0 -0.002)"/><path class="cls-2" d="M1811.357,101.726a4.672,4.672,0,0,1,.353.431l35.815-64.239-11.8-11.8-35.788,64.188Z" transform="translate(0 -0.002)"/><path class="cls-2" d="M1864.519,172.232a4.806,4.806,0,0,0,4.806-4.806v-23.9l-16,28.705Z" transform="translate(0 -0.002)"/><polygon class="cls-3" points="8.328 241.471 0 256.409 0 282.671 17.73 250.871 8.328 241.471"/><path class="cls-3" d="M36.344,270.834a3.246,3.246,0,0,0-.951-2.3l-5.864-5.863L0,315.634V341.9L36.344,276.71Z" transform="translate(0 -0.002)"/><path class="cls-3" d="M35.393,317.105a3.246,3.246,0,0,0,.951-2.3v-5.134l-8.17,14.653Z" transform="translate(0 -0.002)"/><path class="cls-3" d="M18.093,353.334a3.247,3.247,0,0,1-.952-2.3v-6.921L0,374.857v26.262l23.582-42.3Z" transform="translate(0 -0.002)"/><path class="cls-3" d="M34.06,373.25c-.047,0-.091-.012-.137-.014L15.888,405.583H30.531L48.557,373.25Z" transform="translate(0 -0.002)"/><polygon class="cls-3" points="64.183 373.248 46.156 405.581 60.798 405.581 78.825 373.248 64.183 373.248"/><polygon class="cls-3" points="97.202 373.248 79.175 405.581 93.817 405.581 111.844 373.248 97.202 373.248"/><path class="cls-3" d="M165.289,330.827h-8.867a3.248,3.248,0,0,0-3.248,3.248v13.569a3.249,3.249,0,0,1-3.248,3.249h-7.24l-30.492,54.69h14.642l40.988-73.516A3.228,3.228,0,0,0,165.289,330.827Z" transform="translate(0 -0.002)"/><polygon class="cls-3" points="175.642 351.003 145.213 405.581 159.855 405.581 190.285 351.003 175.642 351.003"/><polygon class="cls-3" points="207.286 351.003 176.856 405.581 191.499 405.581 221.928 351.003 207.286 351.003"/><path class="cls-3" d="M251.121,351.693a3.248,3.248,0,0,1-3.248-3.248V337.431l-38,68.152h14.643l30.046-53.89Z" transform="translate(0 -0.002)"/><polygon class="cls-3" points="272.94 351.691 242.895 405.581 257.537 405.581 287.583 351.691 272.94 351.691"/><path class="cls-3" d="M299.924,320.776v8.782l6.707-12.03h-3.459A3.248,3.248,0,0,0,299.924,320.776Z" transform="translate(0 -0.002)"/><path class="cls-3" d="M318.306,352.152a3.249,3.249,0,0,1-3.249-3.249V335.376l-39.143,70.207h14.642l29.79-53.431Z" transform="translate(0 -0.002)"/><polygon class="cls-3" points="335.971 352.15 306.181 405.581 320.823 405.581 350.613 352.15 335.971 352.15"/><polygon class="cls-3" points="368.99 352.15 339.2 405.581 353.843 405.581 383.632 352.15 368.99 352.15"/><path class="cls-3" d="M426.956,320.547a3.249,3.249,0,0,0-3.249-3.249h-2.265l-9.62,17.254V348.9a3.249,3.249,0,0,1-3.249,3.249h-6.564l-29.79,53.431h14.643l40.094-71.913Z" transform="translate(0 -0.002)"/><polygon class="cls-3" points="435.412 351.462 405.238 405.581 419.881 405.581 450.054 351.462 435.412 351.462"/><polygon class="cls-3" points="468.431 351.462 438.258 405.581 452.9 405.581 483.073 351.462 468.431 351.462"/><polygon class="cls-3" points="501.45 351.462 471.277 405.581 485.919 405.581 516.093 351.462 501.45 351.462"/><path class="cls-3" d="M526.7,332.173v.264l2.032-3.645-1.081,1.081A3.246,3.246,0,0,0,526.7,332.173Z" transform="translate(0 -0.002)"/><path class="cls-3" d="M557.2,263.451v14.281l9.773-17.529h-6.525A3.248,3.248,0,0,0,557.2,263.451Z" transform="translate(0 -0.002)"/><path class="cls-3" d="M573.939,280.671,557.2,310.693v3.7a3.249,3.249,0,0,1-3.249,3.248h-.624L504.3,405.583h14.642l55-98.649Z" transform="translate(0 -0.002)"/><polygon class="cls-3" points="586.409 317.526 537.315 405.581 551.957 405.581 601.051 317.526 586.409 317.526"/><path class="cls-3" d="M635.847,295.782a3.248,3.248,0,0,0-3.248-3.248h-1.987l-11.275,20.222v1.523h0a3.247,3.247,0,0,1-2.625,3.186l-49.13,88.118h14.643l53.622-96.177Z" transform="translate(0 -0.002)"/><polygon class="cls-3" points="649.694 317.529 600.602 405.581 615.244 405.581 664.336 317.529 649.694 317.529"/><path class="cls-3" d="M710.14,268.338l-14.675,26.321v19.623a3.249,3.249,0,0,1-3.248,3.249h-9.5l-49.092,88.052h14.642L710.14,294.6Z" transform="translate(0 -0.002)"/><polygon class="cls-3" points="715.734 317.526 666.64 405.581 681.282 405.581 730.376 317.526 715.734 317.526"/><path class="cls-3" d="M767.274,292.534a3.248,3.248,0,0,0-3.248,3.245v18.15l11.9-21.347a3.253,3.253,0,0,0-.476-.048Z" transform="translate(0 -0.002)"/><path class="cls-3" d="M760.777,317.528h-13.4l-49.094,88.055h14.642l49.289-88.4A3.215,3.215,0,0,1,760.777,317.528Z" transform="translate(0 -0.002)"/><path class="cls-3" d="M781.949,317.982a3.21,3.21,0,0,1-1.571-.422L731.3,405.583h14.643l48.841-87.6Z" transform="translate(0 -0.002)"/><path class="cls-3" d="M866.981,222.634v25.081l15.795-28.329H870.229A3.248,3.248,0,0,0,866.981,222.634Z" transform="translate(0 -0.002)"/><polygon class="cls-3" points="813.162 317.98 764.321 405.581 778.964 405.581 827.805 317.98 813.162 317.98"/><polygon class="cls-3" points="866.981 306.936 891.745 262.519 891.745 236.257 866.981 280.674 866.981 306.936"/><polygon class="cls-3" points="846.181 317.98 797.34 405.581 811.983 405.581 860.824 317.98 846.181 317.98"/><path class="cls-3" d="M891.745,314.734V290.547L827.608,405.583H842.25L892.1,316.177A3.2,3.2,0,0,1,891.745,314.734Z" transform="translate(0 -0.002)"/><path class="cls-3" d="M948.741,198.545a4.722,4.722,0,0,0,.083,6.677l3.327,3.244,16.8-30.131L948.781,198.5Z" transform="translate(0 -0.002)"/><polygon class="cls-3" points="909.468 317.98 860.627 405.581 875.269 405.581 924.11 317.98 909.468 317.98"/><path class="cls-3" d="M973.539,229.327l49.9-89.5H1009.42a4.656,4.656,0,0,0-.657.065l-44.709,80.189Z" transform="translate(0 -0.002)"/><polygon class="cls-3" points="942.487 317.98 893.646 405.581 908.288 405.581 957.129 317.98 942.487 317.98"/><polygon class="cls-3" points="994.927 250.186 1056.461 139.82 1041.818 139.82 985.442 240.935 994.927 250.186"/><polygon class="cls-3" points="975.506 317.98 926.665 405.581 941.308 405.581 990.149 317.98 975.506 317.98"/><path class="cls-3" d="M1009.391,262.419h11.736l68.353-122.6h-14.643l-67.948,121.872A4.715,4.715,0,0,0,1009.391,262.419Z" transform="translate(0 -0.002)"/><path class="cls-3" d="M1007.12,318.934c-.009-.009-.02-.015-.029-.024l-48.324,86.673h14.642l43.085-77.275Z" transform="translate(0 -0.002)"/><polygon class="cls-3" points="1053.229 262.417 1121.582 139.82 1106.939 139.82 1038.587 262.417 1053.229 262.417"/><path class="cls-3" d="M1022.143,351.463c-.059,0-.114-.014-.173-.018l-30.184,54.138h14.643l30.174-54.12Z" transform="translate(0 -0.002)"/><path class="cls-3" d="M1076.736,262.419a4.721,4.721,0,0,1,4.721,4.721v3.872l73.144-131.19h-14.643l-68.352,122.6Z" transform="translate(0 -0.002)"/><polygon class="cls-3" points="1054.979 351.461 1024.805 405.581 1039.448 405.581 1069.622 351.461 1054.979 351.461"/><path class="cls-3" d="M1101.2,284.126a4.721,4.721,0,0,0,4.721-4.721V267.14a4.721,4.721,0,0,1,4.721-4.721h8.63l68.353-122.6h-14.642l-80.456,144.3Z" transform="translate(0 -0.002)"/><polygon class="cls-3" points="1087.999 351.461 1057.824 405.581 1072.467 405.581 1102.641 351.461 1087.999 351.461"/><path class="cls-3" d="M1137.883,262.419a4.721,4.721,0,0,1,4.721,4.721v12.645l78.009-139.916a4.813,4.813,0,0,0-.48-.047H1206l-68.353,122.6Z" transform="translate(0 -0.002)"/><polygon class="cls-3" points="1118.266 351.461 1088.092 405.581 1102.734 405.581 1132.908 351.461 1118.266 351.461"/><path class="cls-3" d="M1142.6,312.422h0a4.72,4.72,0,0,0,4.721,4.719h4.719l14.4-25.832V267.137a4.721,4.721,0,0,1,4.721-4.721h11.388l58.036-104.092-9.4-9.4L1142.6,307.81Z" transform="translate(0 -0.002)"/><polygon class="cls-3" points="1151.285 351.461 1121.111 405.581 1135.753 405.581 1165.927 351.461 1151.285 351.461"/><polygon class="cls-3" points="1215.575 262.414 1261.79 179.522 1252.389 170.121 1200.932 262.414 1215.575 262.414"/><polygon class="cls-3" points="1184.304 351.461 1154.13 405.581 1168.772 405.581 1198.947 351.461 1184.304 351.461"/><path class="cls-3" d="M1280.2,204.612h0a4.72,4.72,0,0,0,0-6.675l-6.613-6.613L1248.511,236.3Z" transform="translate(0 -0.002)"/><polygon class="cls-3" points="1217.323 351.461 1187.149 405.581 1201.792 405.581 1231.966 351.461 1217.323 351.461"/><path class="cls-3" d="M1262.56,350.511a3.247,3.247,0,0,1-2.3.952h-11.293l-30.174,54.12h14.642l32.7-58.642Z" transform="translate(0 -0.002)"/><path class="cls-3" d="M1276.742,312.751v15.157L1287,309.5h-7.014A3.249,3.249,0,0,0,1276.742,312.751Z" transform="translate(0 -0.002)"/><polygon class="cls-3" points="1301.965 315.626 1251.812 405.581 1266.454 405.581 1301.965 341.888 1301.965 315.626"/><path class="cls-3" d="M1329.834,324.865l-3.563,6.391v17.189a3.249,3.249,0,0,1-3.249,3.248h-8.145l-30.046,53.89h14.642l45-80.718Z" transform="translate(0 -0.002)"/><path class="cls-3" d="M1355.43,351.693a3.249,3.249,0,0,1-3.249-3.248v-4.439l-34.331,61.577h14.642l30.046-53.89Z" transform="translate(0 -0.002)"/><path class="cls-3" d="M1407.675,270.735v-3.618h0a3.248,3.248,0,0,0-3.248-3.248h-7.566l-13.377,23.992v26.263Z" transform="translate(0 -0.002)"/><path class="cls-3" d="M1458.22,167.3l4.574,4.574,19.739-35.4-24.313,24.314A4.606,4.606,0,0,0,1458.22,167.3Z" transform="translate(0 -0.002)"/><polygon class="cls-3" points="1407.675 298.758 1348.117 405.581 1362.76 405.581 1407.675 325.02 1407.675 298.758"/><polygon class="cls-3" points="1482.227 191.305 1518.023 127.101 1508.622 117.7 1472.826 181.904 1482.227 191.305"/><polygon class="cls-3" points="1411.568 351 1381.137 405.581 1395.779 405.581 1426.21 351 1411.568 351"/><path class="cls-3" d="M1501.7,210.784a4.56,4.56,0,0,0,2.035,1.163l35.485-63.644-9.4-9.4-35.8,64.2Z" transform="translate(0 -0.002)"/><polygon class="cls-3" points="1444.587 351 1414.156 405.581 1428.798 405.581 1459.229 351 1444.587 351"/><path class="cls-3" d="M1551.7,167.3a4.608,4.608,0,0,0,0-6.516l-.683-.683-9.931,17.813Z" transform="translate(0 -0.002)"/><polygon class="cls-3" points="1477.606 351 1447.175 405.581 1461.817 405.581 1492.248 351 1477.606 351"/><polygon class="cls-3" points="1510.625 351 1480.194 405.581 1494.836 405.581 1525.267 351 1510.625 351"/><path class="cls-3" d="M1623.564,219.655v14.266l9.764-17.514h-6.515A3.249,3.249,0,0,0,1623.564,219.655Z" transform="translate(0 -0.002)"/><polygon class="cls-3" points="1543.644 351 1513.213 405.581 1527.855 405.581 1558.286 351 1543.644 351"/><polygon class="cls-3" points="1623.564 293.142 1666.347 216.405 1651.705 216.405 1623.564 266.879 1623.564 293.142"/><path class="cls-3" d="M1577.853,350.051a3.252,3.252,0,0,1-1.051.7l-30.57,54.83h14.643l48.581-87.135Z" transform="translate(0 -0.002)"/><path class="cls-3" d="M1786.7.549,1773.422.9a4.773,4.773,0,0,0-1.783.4l-2.9,5.2V32.758Z" transform="translate(0 -0.002)"/><polygon class="cls-3" points="1682.15 221.022 1579.251 405.581 1593.894 405.581 1682.15 247.285 1682.15 221.022"/><path class="cls-3" d="M1780.506,70.875l35.788-64.188-5.277-5.277A4.808,4.808,0,0,0,1807.493,0l-2.147.056-34.241,61.414Z" transform="translate(0 -0.002)"/><polygon class="cls-3" points="1690.702 259.971 1609.519 405.581 1624.161 405.581 1705.344 259.971 1690.702 259.971"/><polygon class="cls-3" points="1799.939 90.306 1835.727 26.117 1826.326 16.716 1790.538 80.905 1799.939 90.306"/><polygon class="cls-3" points="1723.721 259.971 1642.538 405.581 1657.18 405.581 1738.364 259.971 1723.721 259.971"/><path class="cls-3" d="M1812.764,105.126v21.4l44.162-79.21-9.4-9.4-35.815,64.239A4.788,4.788,0,0,1,1812.764,105.126Z" transform="translate(0 -0.002)"/><polygon class="cls-3" points="1756.74 259.971 1675.557 405.581 1690.199 405.581 1771.383 259.971 1756.74 259.971"/><path class="cls-3" d="M1812.764,167.426a4.808,4.808,0,0,0,4.807,4.806h2.731L1869.325,84.3V61.71a4.781,4.781,0,0,0-.685-2.44l-55.876,100.219Z" transform="translate(0 -0.002)"/><polygon class="cls-3" points="1789.759 259.971 1708.576 405.581 1723.218 405.581 1804.402 259.971 1789.759 259.971"/><polygon class="cls-3" points="1853.321 172.23 1869.325 143.525 1869.325 117.262 1838.678 172.23 1853.321 172.23"/><polygon class="cls-3" points="1821.403 259.971 1740.219 405.581 1754.862 405.581 1836.045 259.971 1821.403 259.971"/><path class="cls-3" d="M1938.841,59.994V75.6L1960.2,37.282l-20.412,20.412A3.246,3.246,0,0,0,1938.841,59.994Z" transform="translate(0 -0.002)"/><polygon class="cls-3" points="1854.422 259.971 1773.239 405.581 1787.881 405.581 1869.064 259.971 1854.422 259.971"/><path class="cls-3" d="M1938.841,134.821l62.771-112.586V3.72A3.232,3.232,0,0,0,1999.06.551l-60.219,108.008Z" transform="translate(0 -0.002)"/><polygon class="cls-3" points="1887.441 259.971 1806.258 405.581 1820.9 405.581 1902.083 259.971 1887.441 259.971"/><path class="cls-3" d="M1938.841,188.342a3.247,3.247,0,0,1-.952,2.3l-25.039,25.039a3.247,3.247,0,0,0-.952,2.3v24.388l89.714-160.911V55.2l-62.771,112.586Z" transform="translate(0 -0.002)"/><polygon class="cls-3" points="2001.612 114.416 1839.277 405.581 1853.919 405.581 2001.612 140.679 2001.612 114.416"/><polygon class="cls-3" points="2001.612 168.704 1869.544 405.581 1884.187 405.581 2001.612 194.967 2001.612 168.704"/><polygon class="cls-3" points="2001.612 227.927 1902.563 405.581 1917.206 405.581 2001.612 254.189 2001.612 227.927"/><polygon class="cls-3" points="2001.612 287.15 1935.582 405.581 1950.225 405.581 2001.612 313.412 2001.612 287.15"/><polygon class="cls-3" points="2001.612 346.373 1968.602 405.581 1983.244 405.581 2001.612 372.635 2001.612 346.373"/></g></svg>