<svg xmlns="http://www.w3.org/2000/svg" viewBox="0 0 1006.38 877.65"><defs><style>.cls-1{fill:#cf4a4a;}.cls-2{fill:#f47171;}.cls-3{fill:#ed5858;}.cls-4{fill:#e05353;}.cls-5{fill:#f25f5f;}.cls-6{fill:#a02a2a;}.cls-7{fill:#8e2525;}.cls-8{fill:#842020;}.cls-9{fill:#9b2d2d;}.cls-10{fill:#bf5c5c;}.cls-11{fill:#c1272d;}.cls-12{fill:#a88585;}.cls-13{fill:#b79292;}.cls-14{fill:#1a0040;}.cls-15{fill:#c13838;}</style></defs><g id="Layer_1" data-name="Layer 1"><rect class="cls-1" x="132.19" y="245.65" width="743" height="632"/><rect class="cls-2" x="875.12" y="698.51" width="8" height="179"/><rect class="cls-2" x="124.12" y="698.51" width="8" height="179"/><path class="cls-3" d="M911.93,699.18s15-2.33,14.5,15.59,32.23,53.08,32.23,53.08H911.93V714.77" transform="translate(-36.81 -69.35)"/><path class="cls-3" d="M169.25,715.47v53.08H122.52s32.73-35.15,32.23-53.08,14.5-15.59,14.5-15.59" transform="translate(-36.81 -69.35)"/><polygon class="cls-4" points="875.13 682.5 908.43 682.5 921.86 698.5 875.13 698.5 875.13 682.5"/><path class="cls-5" d="M911.93,712.85h14.49s1.51-13.09-14.49-15Z" transform="translate(-36.81 -69.35)"/><polygon class="cls-4" points="132.13 683.5 98.82 683.5 85.39 699.5 132.13 699.5 132.13 683.5"/><path class="cls-5" d="M168.93,713.85H154.44s-1.51-13.09,14.49-15Z" transform="translate(-36.81 -69.35)"/><rect class="cls-6" x="132.19" y="833.65" width="743" height="44"/><rect class="cls-7" x="132.19" y="864.65" width="743" height="13"/></g><g id="Layer_2" data-name="Layer 2"><path class="cls-8" d="M357.28,417H729.43s27.32,49.63,52.09,58.27V531.9H569.4l.48-33.92H782v56.64c-24.77,8.63-52.08,58.26-52.08,58.26H357.76l371.53.12H357.13s-27.31-49.63-52.08-58.27V498.1H517.17L516.69,532H304.57V475.38c24.77-8.63,52.08-58.26,52.08-58.26H728.81" transform="translate(-36.81 -69.35)"/><path class="cls-9" d="M363,425H723.54S750,471,774,479v52.49H568.5l.47-31.44h205.5v52.49c-24,8-50.46,54-50.46,54H363.47l359.93.11H362.86s-26.46-46-50.46-54V500.16H517.9l-.47,31.43H311.93V479.11c24-8,50.46-54,50.46-54H722.93" transform="translate(-36.81 -69.35)"/><path class="cls-10" d="M372.22,433H713s25,41.28,47.69,48.46v47.09H566.44l.44-28.2H761.1v47.1c-22.68,7.18-47.69,48.45-47.69,48.45H372.66l340.18.1H372.09s-25-41.28-47.69-48.46V500.45H518.62l-.44,28.2H324v-47.1c22.68-7.18,47.69-48.45,47.69-48.45H712.4" transform="translate(-36.81 -69.35)"/><path class="cls-11" d="M427.08,471.78c0,15.33-10.5,24.51-21.35,24.51s-21.42-8.55-21.42-24.51c0-15.33,10.64-24.5,21.42-24.5S427.08,455.82,427.08,471.78Zm-21.35,21c9.87,0,14-10.51,14-21s-4.13-21-14-21-14.07,10.5-14.07,21S395.86,492.79,405.73,492.79Z" transform="translate(-36.81 -69.35)"/><path class="cls-11" d="M431.84,451.13v-2.8h9.8v3.85h-.7Zm9.8,40.25v3.86h-9.8v-2.8l9.1-1.06ZM438.49,470c0-7.21,0-14.49-.21-21.7H445c-.21,7.07-.21,14.35-.21,21.7v2.45c0,8.26,0,15.54.21,22.76h-6.72c.21-7.08.21-14.36.21-21.71Zm3.15-.63h6.93c8.61,0,12.32-2.73,12.32-9.17s-3.71-8.68-10.92-8.68h-8.33v-3.22H452c9.59,0,15.19,4.76,15.19,11.48,0,5.46-3.78,10.29-13.09,11.41v-.63c10.92.91,15.4,5.81,15.4,11.83,0,6.37-5.25,12.82-18.48,12.82h-9.38V492h7.7c9.1,0,13.51-3.44,13.51-9.6,0-6.51-4.27-9.8-14.07-9.8h-7.14Z" transform="translate(-36.81 -69.35)"/><path class="cls-11" d="M474.05,451.13v-2.8h9.8v3.85h-.7Zm9.8,40.25v3.86h-9.8v-2.8l9.1-1.06ZM480.7,470c0-7.21,0-14.49-.21-21.7h6.72C487,455.4,487,462.68,487,470v2.66c0,8.05,0,15.33.21,22.55h-6.72c.21-7.08.21-14.36.21-21.71Zm22.54-21.7,3.15,3.5H483.85v-3.5h25l.49,12.46h-3.92Zm-3.57,24.57H483.85v-3.22h15.82Zm11.06,9.87-.49,12.47H483.85v-3.51h23.94l-3.15,3.51,2.17-12.47Zm-13.3-12.39,1.05-7.42h3.15v16.59h-3.15l-1.05-7.77Z" transform="translate(-36.81 -69.35)"/><path class="cls-11" d="M516.33,451.13v-2.8h9.8v3.85h-.7Zm10.5,40.25,9.1,1.06v2.8h-19.6v-2.8l9.1-1.06ZM523,470c0-7.21,0-14.49-.21-21.7h6.72c-.21,7.28-.21,14.14-.21,22.4v2.1c0,7.91,0,15.19.21,22.41h-6.72c.21-7.08.21-14.36.21-21.71Zm3.15.35h8.75c7.56,0,11.2-4.06,11.2-9.73,0-5.88-3.15-9.1-10.43-9.1h-9.52v-3.22h9.59c10.71,0,17,4.55,17,12.32,0,6-4.69,11.34-13.86,12.11l.21-.56c5,.49,8.12,2.8,10,9.1l3.43,11.63-2.17-1.34,7.21.85v2.8a16.13,16.13,0,0,1-5,.7c-4.34,0-6.23-1.12-7.07-4.35l-2.87-11.41c-1.4-5.67-4-6.65-9.8-6.65h-6.65Z" transform="translate(-36.81 -69.35)"/><path class="cls-11" d="M559.65,492.44l7-1.06h1.4l7.71,1.06v2.8H559.65ZM580.52,448h4.2l16.1,47.26h-6.51L580.24,453.3h1.61l-14.29,41.94h-3.29Zm-8.19,28.7h18.9l1.12,3.22H571.21Zm13.79,15.76,8.82-1.06h1.4l8.68,1.06v2.8h-18.9Z" transform="translate(-36.81 -69.35)"/><path class="cls-11" d="M607.81,492.44l7.36-1.06h1.39l8.06,1.06v2.8H607.81Zm4.41-41.94,4.34,1.68-8.4-1.05v-2.8h10.51l29.05,40v7.43h-2.24Zm1.54-2.17,3.5,2.8v44.11h-3.5Zm23.11,0h16.8v2.8l-7,1.05h-1.4l-8.4-1.05Zm7.35,0h3.5v47.4l-3.5-3.5Z" transform="translate(-36.81 -69.35)"/><path class="cls-11" d="M658.91,451.13v-2.8h9.8v3.85H668Zm9.8,40.25v3.86h-9.8v-2.8l9.1-1.06ZM665.56,470c0-7.21,0-14.49-.21-21.7h6.72c-.21,7.07-.21,14.35-.21,21.7v2.66c0,8.05,0,15.33.21,22.55h-6.72c.21-7.08.21-14.36.21-22.55Zm3.15,22h9c11,0,17-7.43,17-20.17,0-13.23-6-20.3-16.38-20.3h-9.67v-3.22h10.86c13.3,0,22.54,8.26,22.54,23.52s-10.36,23.39-23.94,23.39h-9.46Z" transform="translate(-36.81 -69.35)"/><path class="cls-11" d="M457.74,532.33H467v3.85h-.84l-8.4-1Zm0,44.11,7.35-1.06h1.4l6.86,1.06v2.8H457.74Zm6.3-44.11H467l.63,20.86v26H464Zm.07,0h6.23l17.15,42h-2.38l16.24-42h3.71l-18.27,46.91h-3.43ZM496,576.44l8.4-1.06h1.4l9.1,1.06v2.8H496Zm6.09-18.91v-25.2h6.37c-.21,7.07-.21,14.35-.21,21.7v3.5c0,7.21,0,14.49.21,21.71h-6.58C502.12,572.17,502.12,564.88,502.12,557.53Zm3-25.2h9.8v2.8l-9.1,1h-.7Z" transform="translate(-36.81 -69.35)"/><path class="cls-11" d="M518.43,576.44l7-1.06h1.4l7.7,1.06v2.8h-16.1ZM539.29,532h4.2l16.1,47.26h-6.51L539,537.3h1.61l-14.28,41.94h-3.29Zm-8.19,28.7H550l1.12,3.22H530Zm13.79,15.76,8.82-1.06h1.4l8.68,1.06v2.8h-18.9Z" transform="translate(-36.81 -69.35)"/><path class="cls-11" d="M566.94,535.13v-2.8h19.6v2.8l-9.1,1H576Zm10.5,40.25,9.1,1.06v2.8h-19.6v-2.8l9.1-1.06ZM573.59,554c0-7.21,0-14.49-.21-21.7h6.72c-.21,7.07-.21,14.35-.21,21.7v3.5c0,7.21,0,14.49.21,21.71h-6.72c.21-7.07.21-14.36.21-21.71Z" transform="translate(-36.81 -69.35)"/><path class="cls-11" d="M592.84,535.13v-2.8h19.6v2.8l-9.1,1h-1.4Zm9.8,40.25v3.86h-9.8v-2.8l9.1-1.06Zm-3.36-43H606c-.21,7.21-.21,14.49-.21,21.7v4.9c0,6,0,13.24.21,20.31h-6.72c.21-7.22.21-14.5.21-21.71V554C599.49,546.68,599.49,539.4,599.28,532.33Zm29.05,33.74-.7,13.17h-25v-3.5h22.54l-3.85,3.5,2.8-13.17Z" transform="translate(-36.81 -69.35)"/><rect class="cls-12" x="261.19" y="759.65" width="159" height="11"/><rect class="cls-12" x="261.19" y="659.65" width="159" height="11"/><rect class="cls-13" x="261.19" y="670.65" width="13" height="89"/><rect class="cls-13" x="405.19" y="670.65" width="15" height="89"/><rect class="cls-3" x="261.19" y="628.65" width="159" height="31"/><rect class="cls-4" x="260.19" y="649.65" width="160" height="10"/><rect class="cls-5" x="260.19" y="628.65" width="159" height="6"/><rect class="cls-14" x="274.19" y="670.65" width="131" height="89"/><rect class="cls-12" x="574.19" y="759.65" width="159" height="11"/><rect class="cls-12" x="574.19" y="659.65" width="159" height="11"/><rect class="cls-13" x="574.19" y="670.65" width="13" height="89"/><rect class="cls-13" x="718.19" y="670.65" width="15" height="89"/><rect class="cls-3" x="574.19" y="628.65" width="159" height="31"/><rect class="cls-4" x="573.19" y="649.65" width="160" height="10"/><rect class="cls-5" x="573.19" y="628.65" width="159" height="6"/><rect class="cls-14" x="587.19" y="670.65" width="131" height="89"/><path class="cls-6" d="M540.19,307.65V69.35s-59.38,68.3-237.38,93.3-203,100.29-203,100.29-27,75.71-63,93.71h138l365.38-4Z" transform="translate(-36.81 -69.35)"/><path class="cls-6" d="M539.81,307.65V69.35s59.38,68.3,237.38,93.3,203,100.29,203,100.29,27,75.71,63,93.71h-138l-365.38-4Z" transform="translate(-36.81 -69.35)"/><path class="cls-15" d="M65.65,329.37s-12.84,18.28-28.84,27.28H1043.19s-21.29-15.57-28.84-27.28Z" transform="translate(-36.81 -69.35)"/><path class="cls-15" d="M398.52,142.58S475.81,126,539.81,69.35c0,0,47.35,47.16,141.67,73.23C681.48,142.58,537.22,196.51,398.52,142.58Z" transform="translate(-36.81 -69.35)"/><path class="cls-7" d="M398.52,142.58s135.64,53.93,283,0l29.22,7.68s-146,71.85-341.93.12" transform="translate(-36.81 -69.35)"/><polygon class="cls-7" points="28.84 260.02 36.82 248.02 970.62 249.72 977.55 260.02 28.84 260.02"/><path class="cls-7" d="M513.2,90.29s28.15,16.65,51.88,0L539.81,69.35Z" transform="translate(-36.81 -69.35)"/></g></svg>