<svg id="Layer_13" data-name="Layer 13" xmlns="http://www.w3.org/2000/svg" viewBox="0 0 1659.1667 269.6181"><defs><style>.cls-1{fill:#4a1d41;}.cls-2{fill:#391236;}.cls-3{fill:#352032;}.cls-4{fill:#603b5a;}.cls-5,.cls-8{fill:none;stroke-miterlimit:10;}.cls-5{stroke:#352032;stroke-width:3px;}.cls-6{fill:#231e22;}.cls-7{fill:#352934;}.cls-8{stroke:#4c3449;stroke-width:7px;}.cls-9{fill:#4c3449;}</style></defs><path class="cls-1" d="M1956.0259,247.9583h-168.09V147.0666h168.09s13.57,24.7973,13.57,50.4458S1956.0259,247.9583,1956.0259,247.9583Z" transform="translate(-333.4858 -62.8361)"/><path class="cls-2" d="M1956.1331,247.7586s35.4269-30.0678,36.4969-50.2462-36.6041-50.4458-36.6041-50.4458,10.8849,35.7678,10.2735,49.5258S1956.1331,247.7586,1956.1331,247.7586Z" transform="translate(-333.4858 -62.8361)"/><rect class="cls-2" x="1443.5323" y="84.2305" width="16.051" height="101.8634"/><polygon class="cls-3" points="1454.451 212.563 1632.469 212.17 1632.469 184.431 1454.451 184.824 1454.451 212.563"/><rect class="cls-2" x="1497.4333" y="84.2305" width="16.051" height="101.5194"/><rect class="cls-2" x="1467.1658" y="84.2305" width="16.051" height="101.8634"/><rect class="cls-2" x="1590.8513" y="61.6445" width="18.4586" height="22.586"/><polyline class="cls-1" points="1591.043 61.947 1579.243 50.695 1581.393 50.657 1620.221 50.657 1609.101 61.777"/><rect class="cls-1" x="1338.4251" y="11.3121" width="116.0255" height="201.2508"/><rect class="cls-2" x="1331.3655" width="127.7962" height="11.3121"/><rect class="cls-4" x="1349.8623" y="24.7643" width="90.8025" height="67.8726"/><rect class="cls-5" x="1349.8623" y="103.0318" width="90.8025" height="98.9296"/><rect class="cls-6" x="1290.6703" y="196.4582" width="47.7548" height="11.0064"/><rect class="cls-7" x="1701.6878" y="281.0925" width="11.0738" height="17.6469" transform="translate(1663.6549 -1480.1449) rotate(90)"/><rect class="cls-7" x="1651.853" y="280.051" width="11.0738" height="18.4304" transform="translate(1034.6379 1883.82) rotate(-90)"/><rect class="cls-7" x="1691.7783" y="261.399" width="11.0738" height="22.5198" transform="translate(356.4453 -1183.1593) rotate(45)"/><rect class="cls-7" x="1657.9081" y="297.3043" width="11.0738" height="18.4497" transform="translate(370.4748 -1149.289) rotate(45)"/><rect class="cls-7" x="1695.1368" y="299.0937" width="11.0738" height="17.4525" transform="translate(-53.0315 1229.8802) rotate(-45)"/><rect class="cls-7" x="1659.939" y="262.0007" width="11.0738" height="18.411" transform="translate(-37.4509 1194.2677) rotate(-45)"/><circle class="cls-8" cx="1348.6553" cy="227.0798" r="37.1772"/><circle class="cls-9" cx="1348.6553" cy="227.0798" r="20.1592"/><rect class="cls-7" x="1784.5649" y="281.0925" width="11.0738" height="17.6469" transform="translate(1746.5319 -1563.0219) rotate(90)"/><rect class="cls-7" x="1734.73" y="280.051" width="11.0738" height="18.4304" transform="translate(1117.515 1966.6971) rotate(-90)"/><rect class="cls-7" x="1774.6554" y="261.399" width="11.0738" height="22.5198" transform="translate(380.7194 -1241.7622) rotate(45)"/><rect class="cls-7" x="1740.7851" y="297.3043" width="11.0738" height="18.4497" transform="translate(394.749 -1207.8919) rotate(45)"/><rect class="cls-7" x="1778.0138" y="299.0937" width="11.0738" height="17.4525" transform="translate(-28.7574 1288.4831) rotate(-45)"/><rect class="cls-7" x="1742.816" y="262.0007" width="11.0738" height="18.411" transform="translate(-13.1768 1252.8706) rotate(-45)"/><circle class="cls-8" cx="1431.5323" cy="227.0798" r="37.1772"/><circle class="cls-9" cx="1431.5323" cy="227.0798" r="20.1592"/><rect class="cls-7" x="1862.3205" y="293.9999" width="8.3349" height="13.2822" transform="translate(1833.6432 -1628.6831) rotate(90)"/><rect class="cls-7" x="1824.8115" y="293.216" width="8.3349" height="13.872" transform="translate(1195.3412 2066.2948) rotate(-90)"/><rect class="cls-7" x="1854.862" y="279.1772" width="8.3349" height="16.9499" transform="translate(414.4122 -1293.117) rotate(45)"/><rect class="cls-7" x="1829.369" y="306.202" width="8.3349" height="13.8865" transform="translate(424.9717 -1267.624) rotate(45)"/><rect class="cls-7" x="1857.3898" y="307.5488" width="8.3349" height="13.1359" transform="translate(-10.3624 1345.4863) rotate(-45)"/><rect class="cls-7" x="1830.8975" y="279.6301" width="8.3349" height="13.8574" transform="translate(1.3647 1318.6819) rotate(-45)"/><circle class="cls-8" cx="1514.1225" cy="237.8049" r="27.9821"/><circle class="cls-9" cx="1514.1225" cy="237.8049" r="15.1732"/><rect class="cls-7" x="1930.26" y="293.9999" width="8.3349" height="13.2822" transform="translate(1901.5827 -1696.6226) rotate(90)"/><rect class="cls-7" x="1892.751" y="293.216" width="8.3349" height="13.872" transform="translate(1263.2807 2134.2343) rotate(-90)"/><rect class="cls-7" x="1922.8015" y="279.1772" width="8.3349" height="16.9499" transform="translate(434.3112 -1341.1575) rotate(45)"/><rect class="cls-7" x="1897.3084" y="306.202" width="8.3349" height="13.8865" transform="translate(444.8707 -1315.6645) rotate(45)"/><rect class="cls-7" x="1925.3293" y="307.5488" width="8.3349" height="13.1359" transform="translate(9.5366 1393.5268) rotate(-45)"/><rect class="cls-7" x="1898.837" y="279.6301" width="8.3349" height="13.8574" transform="translate(21.2637 1366.7224) rotate(-45)"/><circle class="cls-8" cx="1582.062" cy="237.8049" r="27.9821"/><circle class="cls-9" cx="1582.062" cy="237.8049" r="15.1732"/><rect class="cls-4" x="1341.8663" y="216.006" width="87.9028" height="4.8872"/><rect class="cls-1" x="1005.1476" y="58.1509" width="287.0828" height="150.7697"/><rect class="cls-4" x="1509.7299" y="241.2494" width="79.637" height="4.8872"/><rect class="cls-7" x="1413.818" y="280.4428" width="11.0738" height="17.6469" transform="translate(1375.1354 -1192.9248) rotate(90)"/><rect class="cls-7" x="1363.9832" y="279.4014" width="11.0738" height="18.4304" transform="translate(747.4178 1595.3006) rotate(-90)"/><rect class="cls-7" x="1403.9085" y="260.7493" width="11.0738" height="22.5198" transform="translate(271.6708 -979.7948) rotate(45)"/><rect class="cls-7" x="1370.0383" y="296.6546" width="11.0738" height="18.4497" transform="translate(285.7003 -945.9246) rotate(45)"/><rect class="cls-7" x="1407.267" y="298.444" width="11.0738" height="17.4525" transform="translate(-136.8873 1026.1352) rotate(-45)"/><rect class="cls-7" x="1372.0692" y="261.351" width="11.0738" height="18.411" transform="translate(-121.3066 990.5227) rotate(-45)"/><circle class="cls-8" cx="1060.7854" cy="226.4301" r="37.1772"/><circle class="cls-9" cx="1060.7854" cy="226.4301" r="20.1592"/><rect class="cls-7" x="1584.501" y="281.0925" width="11.0738" height="17.6469" transform="translate(1546.468 -1362.958) rotate(90)"/><rect class="cls-7" x="1534.6662" y="280.051" width="11.0738" height="18.4304" transform="translate(917.4511 1766.6332) rotate(-90)"/><rect class="cls-7" x="1574.5915" y="261.399" width="11.0738" height="22.5198" transform="translate(322.1221 -1100.2956) rotate(45)"/><rect class="cls-7" x="1540.7212" y="297.3043" width="11.0738" height="18.4497" transform="translate(336.1516 -1066.4254) rotate(45)"/><rect class="cls-7" x="1577.9499" y="299.0937" width="11.0738" height="17.4525" transform="translate(-87.3548 1147.0166) rotate(-45)"/><rect class="cls-7" x="1542.7521" y="262.0007" width="11.0738" height="18.411" transform="translate(-71.7741 1111.4041) rotate(-45)"/><circle class="cls-8" cx="1231.4684" cy="227.0798" r="37.1772"/><circle class="cls-9" cx="1231.4684" cy="227.0798" r="20.1592"/><rect class="cls-4" x="1033.9168" y="72.9919" width="55.9159" height="49.5287"/><rect class="cls-4" x="1121.1487" y="72.9919" width="55.9159" height="49.5287"/><rect class="cls-4" x="1209.4597" y="72.9919" width="55.9159" height="49.5287"/><rect class="cls-2" x="999.9474" y="45.7181" width="298.3185" height="12.4328"/><rect class="cls-6" x="957.3545" y="196.6276" width="47.7548" height="11.0064"/><rect class="cls-1" x="671.8318" y="58.3203" width="287.0828" height="150.7697"/><rect class="cls-7" x="1080.5022" y="280.6122" width="11.0738" height="17.6469" transform="translate(1041.989 -859.4396) rotate(90)"/><rect class="cls-7" x="1030.6674" y="279.5708" width="11.0738" height="18.4304" transform="translate(413.9326 1262.1542) rotate(-90)"/><rect class="cls-7" x="1070.5927" y="260.9187" width="11.0738" height="22.5198" transform="translate(174.1647 -744.0554) rotate(45)"/><rect class="cls-7" x="1036.7225" y="296.824" width="11.0738" height="18.4497" transform="translate(188.1942 -710.1851) rotate(45)"/><rect class="cls-7" x="1073.9512" y="298.6134" width="11.0738" height="17.4525" transform="translate(-234.633 790.495) rotate(-45)"/><rect class="cls-7" x="1038.7534" y="261.5204" width="11.0738" height="18.411" transform="translate(-219.0523 754.8825) rotate(-45)"/><circle class="cls-8" cx="727.4697" cy="226.5995" r="37.1772"/><circle class="cls-9" cx="727.4697" cy="226.5995" r="20.1592"/><rect class="cls-7" x="1251.1852" y="281.2619" width="11.0738" height="17.6469" transform="translate(1213.3216 -1029.4728) rotate(90)"/><rect class="cls-7" x="1201.3504" y="280.2204" width="11.0738" height="18.4304" transform="translate(583.9659 1433.4868) rotate(-90)"/><rect class="cls-7" x="1241.2757" y="261.5684" width="11.0738" height="22.5198" transform="translate(224.6159 -864.5562) rotate(45)"/><rect class="cls-7" x="1207.4055" y="297.4737" width="11.0738" height="18.4497" transform="translate(238.6454 -830.6859) rotate(45)"/><rect class="cls-7" x="1244.6341" y="299.2631" width="11.0738" height="17.4525" transform="translate(-185.1005 911.3763) rotate(-45)"/><rect class="cls-7" x="1209.4364" y="262.1701" width="11.0738" height="18.411" transform="translate(-169.5199 875.7638) rotate(-45)"/><circle class="cls-8" cx="898.1526" cy="227.2492" r="37.1772"/><circle class="cls-9" cx="898.1526" cy="227.2492" r="20.1592"/><rect class="cls-4" x="700.601" y="73.1613" width="55.9159" height="49.5287"/><rect class="cls-4" x="787.8329" y="73.1613" width="55.9159" height="49.5287"/><rect class="cls-4" x="876.1439" y="73.1613" width="55.9159" height="49.5287"/><rect class="cls-2" x="666.6316" y="45.8875" width="298.3185" height="12.4328"/><rect class="cls-6" x="624.0387" y="197.1346" width="47.7548" height="11.0064"/><rect class="cls-1" x="338.516" y="58.8272" width="287.0828" height="150.7697"/><rect class="cls-7" x="747.1864" y="281.1191" width="11.0738" height="17.6469" transform="translate(709.1801 -525.6168) rotate(90)"/><rect class="cls-7" x="697.3516" y="280.0777" width="11.0738" height="18.4304" transform="translate(80.1099 929.3453) rotate(-90)"/><rect class="cls-7" x="737.2769" y="261.4257" width="11.0738" height="22.5198" transform="translate(76.8972 -508.217) rotate(45)"/><rect class="cls-7" x="703.4067" y="297.3309" width="11.0738" height="18.4497" transform="translate(90.9267 -474.3468) rotate(45)"/><rect class="cls-7" x="740.6354" y="299.1204" width="11.0738" height="17.4525" transform="translate(-332.6174 554.9536) rotate(-45)"/><rect class="cls-7" x="705.4376" y="262.0274" width="11.0738" height="18.411" transform="translate(-317.0368 519.3411) rotate(-45)"/><circle class="cls-8" cx="394.1539" cy="227.1065" r="37.1772"/><circle class="cls-9" cx="394.1539" cy="227.1065" r="20.1592"/><rect class="cls-7" x="917.8694" y="281.7688" width="11.0738" height="17.6469" transform="translate(880.5128 -695.6501) rotate(90)"/><rect class="cls-7" x="868.0346" y="280.7274" width="11.0738" height="18.4304" transform="translate(250.1432 1100.678) rotate(-90)"/><rect class="cls-7" x="907.9599" y="262.0754" width="11.0738" height="22.5198" transform="translate(127.3485 -628.7178) rotate(45)"/><rect class="cls-7" x="874.0897" y="297.9806" width="11.0738" height="18.4497" transform="translate(141.378 -594.8476) rotate(45)"/><rect class="cls-7" x="911.3183" y="299.7701" width="11.0738" height="17.4525" transform="translate(-283.0849 675.835) rotate(-45)"/><rect class="cls-7" x="876.1206" y="262.6771" width="11.0738" height="18.411" transform="translate(-267.5043 640.2225) rotate(-45)"/><circle class="cls-8" cx="564.8368" cy="227.7562" r="37.1772"/><circle class="cls-9" cx="564.8368" cy="227.7562" r="20.1592"/><rect class="cls-4" x="367.2853" y="73.6683" width="55.9159" height="49.5287"/><rect class="cls-4" x="454.5171" y="73.6683" width="55.9159" height="49.5287"/><rect class="cls-4" x="542.8281" y="73.6683" width="55.9159" height="49.5287"/><rect class="cls-2" x="333.3158" y="46.3944" width="298.3185" height="12.4328"/><polyline class="cls-6" points="338.478 198.319 290.723 198.319 290.723 209.326 338.478 209.326"/><rect class="cls-1" x="5.2002" y="60.0119" width="287.0828" height="150.7697"/><rect class="cls-7" x="413.8706" y="282.3039" width="11.0738" height="17.6469" transform="translate(377.0491 -191.1163) rotate(90)"/><rect class="cls-7" x="364.0358" y="281.2624" width="11.0738" height="18.4304" transform="translate(-254.3906 597.2143) rotate(-90)"/><rect class="cls-7" x="403.9611" y="262.6104" width="11.0738" height="22.5198" transform="translate(-19.891 -272.1802) rotate(45)"/><rect class="cls-7" x="370.0909" y="298.5157" width="11.0738" height="18.4497" transform="translate(-5.8615 -238.3099) rotate(45)"/><rect class="cls-7" x="407.3196" y="300.3051" width="11.0738" height="17.4525" transform="translate(-431.081 319.6107) rotate(-45)"/><rect class="cls-7" x="372.1218" y="263.2121" width="11.0738" height="18.411" transform="translate(-415.5004 283.9982) rotate(-45)"/><circle class="cls-8" cx="60.8381" cy="228.2912" r="37.1772"/><circle class="cls-9" cx="60.8381" cy="228.2912" r="20.1592"/><rect class="cls-7" x="584.5536" y="282.9535" width="11.0738" height="17.6469" transform="translate(548.3817 -361.1496) rotate(90)"/><rect class="cls-7" x="534.7188" y="281.9121" width="11.0738" height="18.4304" transform="translate(-84.3574 768.5469) rotate(-90)"/><rect class="cls-7" x="574.6441" y="263.2601" width="11.0738" height="22.5198" transform="translate(30.5603 -392.681) rotate(45)"/><rect class="cls-7" x="540.7739" y="299.1653" width="11.0738" height="18.4497" transform="translate(44.5898 -358.8107) rotate(45)"/><rect class="cls-7" x="578.0026" y="300.9548" width="11.0738" height="17.4525" transform="translate(-381.5485 440.4921) rotate(-45)"/><rect class="cls-7" x="542.8048" y="263.8618" width="11.0738" height="18.411" transform="translate(-365.9679 404.8796) rotate(-45)"/><circle class="cls-8" cx="231.521" cy="228.9409" r="37.1772"/><circle class="cls-9" cx="231.521" cy="228.9409" r="20.1592"/><rect class="cls-4" x="33.9695" y="74.853" width="55.9159" height="49.5287"/><rect class="cls-4" x="121.2013" y="74.853" width="55.9159" height="49.5287"/><rect class="cls-4" x="209.5123" y="74.853" width="55.9159" height="49.5287"/><rect class="cls-2" y="47.5791" width="298.3185" height="12.4328"/></svg>