<svg id="train" xmlns="http://www.w3.org/2000/svg" viewBox="0 0 2316.5914 172.9197"><defs><style>.cls-1{fill:#4a1d41;}.cls-2{fill:#391236;}.cls-3{fill:#352032;}.cls-4{fill:#603b5a;}.cls-5,.cls-8{fill:none;stroke-miterlimit:10;}.cls-5{stroke:#352032;stroke-width:3px;}.cls-6{fill:#231e22;}.cls-7{fill:#352934;}.cls-8{stroke:#4c3449;stroke-width:7px;}.cls-9{fill:#4c3449;}</style></defs><path class="cls-1" d="M1969.4637,278.4615H1863.0445V214.5859h106.4192s8.5914,15.7,8.5914,31.9378S1969.4637,278.4615,1969.4637,278.4615Z" transform="translate(323.939 -161.2586)"/><path class="cls-2" d="M1969.5316,278.3351s22.4292-19.0363,23.1067-31.8114-23.1746-31.9378-23.1746-31.9378,6.8914,22.645,6.5043,31.3553S1969.5316,278.3351,1969.5316,278.3351Z" transform="translate(323.939 -161.2586)"/><rect class="cls-2" x="2180.071" y="53.3272" width="10.162" height="64.4908"/><polygon class="cls-3" points="2186.983 134.576 2299.689 134.327 2299.689 116.766 2186.983 117.014 2186.983 134.576"/><rect class="cls-2" x="2214.1963" y="53.3272" width="10.162" height="64.273"/><rect class="cls-2" x="2195.0336" y="53.3272" width="10.162" height="64.4908"/><rect class="cls-2" x="2273.3402" y="39.0278" width="11.6863" height="14.2994"/><polyline class="cls-1" points="2273.462 39.22 2265.991 32.096 2267.352 32.072 2291.934 32.072 2284.895 39.111"/><rect class="cls-1" x="2113.5265" y="7.1618" width="73.457" height="127.4141"/><rect class="cls-2" x="2109.0569" width="80.9091" height="7.1618"/><rect class="cls-4" x="2120.7675" y="15.6786" width="57.4881" height="42.9709"/><rect class="cls-5" x="2120.7675" y="65.2306" width="57.4881" height="62.6334"/><rect class="cls-6" x="2083.2924" y="124.3798" width="30.2341" height="6.9683"/><rect class="cls-7" x="1808.4396" y="299.4391" width="7.011" height="11.1724" transform="translate(2440.9094 -1668.1783) rotate(90)"/><rect class="cls-7" x="1776.8886" y="298.7798" width="7.011" height="11.6685" transform="translate(1799.7191 1923.7495) rotate(-90)"/><rect class="cls-7" x="1802.1658" y="286.971" width="7.011" height="14.2575" transform="translate(1060.7678 -1351.9212) rotate(45)"/><rect class="cls-7" x="1780.7222" y="309.703" width="7.011" height="11.6807" transform="translate(1069.65 -1330.4776) rotate(45)"/><rect class="cls-7" x="1804.292" y="310.8359" width="7.011" height="11.0493" transform="translate(629.7299 1209.7071) rotate(-45)"/><rect class="cls-7" x="1782.0079" y="287.3519" width="7.011" height="11.6562" transform="translate(639.5942 1187.1604) rotate(-45)"/><circle class="cls-8" cx="2120.0033" cy="143.7667" r="23.5373"/><circle class="cls-9" cx="2120.0033" cy="143.7667" r="12.763"/><rect class="cls-7" x="1860.9099" y="299.4391" width="7.011" height="11.1724" transform="translate(2493.3797 -1720.6487) rotate(90)"/><rect class="cls-7" x="1829.359" y="298.7798" width="7.011" height="11.6685" transform="translate(1852.1894 1976.2198) rotate(-90)"/><rect class="cls-7" x="1854.6361" y="286.971" width="7.011" height="14.2575" transform="translate(1076.136 -1389.0234) rotate(45)"/><rect class="cls-7" x="1833.1925" y="309.703" width="7.011" height="11.6807" transform="translate(1085.0182 -1367.5797) rotate(45)"/><rect class="cls-7" x="1856.7624" y="310.8359" width="7.011" height="11.0493" transform="translate(645.0981 1246.8093) rotate(-45)"/><rect class="cls-7" x="1834.4783" y="287.3519" width="7.011" height="11.6562" transform="translate(654.9624 1224.2626) rotate(-45)"/><circle class="cls-8" cx="2172.4736" cy="143.7667" r="23.5373"/><circle class="cls-9" cx="2172.4736" cy="143.7667" r="12.763"/><rect class="cls-7" x="1910.1379" y="307.6109" width="5.2769" height="8.4091" transform="translate(2548.5308 -1762.2195) rotate(90)"/><rect class="cls-7" x="1886.3905" y="307.1147" width="5.2769" height="8.7825" transform="translate(1901.462 2039.2762) rotate(-90)"/><rect class="cls-7" x="1905.4158" y="298.2266" width="5.2769" height="10.7312" transform="translate(1097.4672 -1421.5367) rotate(45)"/><rect class="cls-7" x="1889.2759" y="315.3362" width="5.2769" height="8.7917" transform="translate(1104.1526 -1405.3967) rotate(45)"/><rect class="cls-7" x="1907.0162" y="316.1889" width="5.2769" height="8.3165" transform="translate(656.7442 1282.8986) rotate(-45)"/><rect class="cls-7" x="1890.2437" y="298.5133" width="5.2769" height="8.7732" transform="translate(664.1687 1265.9285) rotate(-45)"/><circle class="cls-8" cx="2224.7624" cy="150.5569" r="17.7158"/><circle class="cls-9" cx="2224.7624" cy="150.5569" r="9.6063"/><rect class="cls-7" x="1953.1511" y="307.6109" width="5.2769" height="8.4091" transform="translate(2591.5441 -1805.2327) rotate(90)"/><rect class="cls-7" x="1929.4037" y="307.1147" width="5.2769" height="8.7825" transform="translate(1944.4753 2082.2895) rotate(-90)"/><rect class="cls-7" x="1948.429" y="298.2266" width="5.2769" height="10.7312" transform="translate(1110.0655 -1451.9516) rotate(45)"/><rect class="cls-7" x="1932.2891" y="315.3362" width="5.2769" height="8.7917" transform="translate(1116.7509 -1435.8117) rotate(45)"/><rect class="cls-7" x="1950.0294" y="316.1889" width="5.2769" height="8.3165" transform="translate(669.3425 1313.3136) rotate(-45)"/><rect class="cls-7" x="1933.2569" y="298.5133" width="5.2769" height="8.7732" transform="translate(676.767 1296.3434) rotate(-45)"/><circle class="cls-8" cx="2267.7756" cy="150.5569" r="17.7158"/><circle class="cls-9" cx="2267.7756" cy="150.5569" r="9.6063"/><rect class="cls-4" x="2115.7051" y="136.7557" width="55.6522" height="3.0942"/><rect class="cls-1" x="1902.5248" y="36.8159" width="181.7552" height="95.4539"/><rect class="cls-4" x="2221.9814" y="152.7376" width="50.419" height="3.0942"/><rect class="cls-7" x="1626.1861" y="299.0278" width="7.011" height="11.1724" transform="translate(2258.2445 -1486.3362) rotate(90)"/><rect class="cls-7" x="1594.6351" y="298.3685" width="7.011" height="11.6685" transform="translate(1617.8769 1741.0846) rotate(-90)"/><rect class="cls-7" x="1619.9123" y="286.5596" width="7.011" height="14.2575" transform="translate(1007.0961 -1223.169) rotate(45)"/><rect class="cls-7" x="1598.4687" y="309.2917" width="7.011" height="11.6807" transform="translate(1015.9783 -1201.7254) rotate(45)"/><rect class="cls-7" x="1622.0385" y="310.4246" width="7.011" height="11.0493" transform="translate(576.6399 1080.714) rotate(-45)"/><rect class="cls-7" x="1599.7544" y="286.9406" width="7.011" height="11.6562" transform="translate(586.5042 1058.1673) rotate(-45)"/><circle class="cls-8" cx="1937.7498" cy="143.3554" r="23.5373"/><circle class="cls-9" cx="1937.7498" cy="143.3554" r="12.763"/><rect class="cls-7" x="1734.2473" y="299.4391" width="7.011" height="11.1724" transform="translate(2366.7171 -1593.9861) rotate(90)"/><rect class="cls-7" x="1702.6964" y="298.7798" width="7.011" height="11.6685" transform="translate(1725.5268 1849.5572) rotate(-90)"/><rect class="cls-7" x="1727.9735" y="286.971" width="7.011" height="14.2575" transform="translate(1039.0373 -1299.4594) rotate(45)"/><rect class="cls-7" x="1706.5299" y="309.703" width="7.011" height="11.6807" transform="translate(1047.9196 -1278.0157) rotate(45)"/><rect class="cls-7" x="1730.0998" y="310.8359" width="7.011" height="11.0493" transform="translate(607.9995 1157.2453) rotate(-45)"/><rect class="cls-7" x="1707.8157" y="287.3519" width="7.011" height="11.6562" transform="translate(617.8638 1134.6986) rotate(-45)"/><circle class="cls-8" cx="2045.811" cy="143.7667" r="23.5373"/><circle class="cls-9" cx="2045.811" cy="143.7667" r="12.763"/><rect class="cls-4" x="1920.739" y="46.212" width="35.401" height="31.3571"/><rect class="cls-4" x="1975.9664" y="46.212" width="35.401" height="31.3571"/><rect class="cls-4" x="2031.877" y="46.212" width="35.401" height="31.3571"/><rect class="cls-2" x="1899.2325" y="28.9446" width="188.8687" height="7.8714"/><rect class="cls-6" x="1872.2665" y="124.4871" width="30.2341" height="6.9683"/><rect class="cls-1" x="1691.499" y="36.9232" width="181.7552" height="95.4539"/><rect class="cls-7" x="1415.1602" y="299.1351" width="7.011" height="11.1724" transform="translate(2047.326 -1275.2031) rotate(90)"/><rect class="cls-7" x="1383.6093" y="298.4757" width="7.011" height="11.6685" transform="translate(1406.7438 1530.1661) rotate(-90)"/><rect class="cls-7" x="1408.8864" y="286.6669" width="7.011" height="14.2575" transform="translate(945.3639 -1073.9198) rotate(45)"/><rect class="cls-7" x="1387.4428" y="309.3989" width="7.011" height="11.6807" transform="translate(954.2461 -1052.4762) rotate(45)"/><rect class="cls-7" x="1411.0127" y="310.5318" width="7.011" height="11.0493" transform="translate(514.7561 931.5276) rotate(-45)"/><rect class="cls-7" x="1388.7286" y="287.0478" width="7.011" height="11.6562" transform="translate(524.6203 908.9809) rotate(-45)"/><circle class="cls-8" cx="1726.7239" cy="143.4626" r="23.5373"/><circle class="cls-9" cx="1726.7239" cy="143.4626" r="12.763"/><rect class="cls-7" x="1523.2215" y="299.5464" width="7.011" height="11.1724" transform="translate(2155.7985 -1382.853) rotate(90)"/><rect class="cls-7" x="1491.6705" y="298.887" width="7.011" height="11.6685" transform="translate(1514.3937 1638.6386) rotate(-90)"/><rect class="cls-7" x="1516.9477" y="287.0782" width="7.011" height="14.2575" transform="translate(977.3051 -1150.2101) rotate(45)"/><rect class="cls-7" x="1495.5041" y="309.8102" width="7.011" height="11.6807" transform="translate(986.1874 -1128.7665) rotate(45)"/><rect class="cls-7" x="1519.0739" y="310.9432" width="7.011" height="11.0493" transform="translate(546.1156 1008.0589) rotate(-45)"/><rect class="cls-7" x="1496.7898" y="287.4592" width="7.011" height="11.6562" transform="translate(555.9799 985.5122) rotate(-45)"/><circle class="cls-8" cx="1834.7852" cy="143.8739" r="23.5373"/><circle class="cls-9" cx="1834.7852" cy="143.8739" r="12.763"/><rect class="cls-4" x="1709.7131" y="46.3192" width="35.401" height="31.3571"/><rect class="cls-4" x="1764.9405" y="46.3192" width="35.401" height="31.3571"/><rect class="cls-4" x="1820.8512" y="46.3192" width="35.401" height="31.3571"/><rect class="cls-2" x="1688.2067" y="29.0518" width="188.8687" height="7.8714"/><rect class="cls-6" x="1661.2407" y="124.808" width="30.2341" height="6.9683"/><rect class="cls-1" x="1480.4731" y="37.2442" width="181.7552" height="95.4539"/><rect class="cls-7" x="1204.1344" y="299.456" width="7.011" height="11.1724" transform="translate(1836.6211 -1063.8563) rotate(90)"/><rect class="cls-7" x="1172.5834" y="298.7967" width="7.011" height="11.6685" transform="translate(1195.397 1319.4612) rotate(-90)"/><rect class="cls-7" x="1197.8606" y="286.9879" width="7.011" height="14.2575" transform="translate(883.7828 -924.608) rotate(45)"/><rect class="cls-7" x="1176.417" y="309.7199" width="7.011" height="11.6807" transform="translate(892.665 -903.1644) rotate(45)"/><rect class="cls-7" x="1199.9869" y="310.8528" width="7.011" height="11.0493" transform="translate(452.7211 782.4038) rotate(-45)"/><rect class="cls-7" x="1177.7028" y="287.3688" width="7.011" height="11.6562" transform="translate(462.5854 759.8571) rotate(-45)"/><circle class="cls-8" cx="1515.6981" cy="143.7836" r="23.5373"/><circle class="cls-9" cx="1515.6981" cy="143.7836" r="12.763"/><rect class="cls-7" x="1312.1956" y="299.8673" width="7.011" height="11.1724" transform="translate(1945.0936 -1171.5062) rotate(90)"/><rect class="cls-7" x="1280.6447" y="299.208" width="7.011" height="11.6685" transform="translate(1303.0469 1427.9337) rotate(-90)"/><rect class="cls-7" x="1305.9218" y="287.3992" width="7.011" height="14.2575" transform="translate(915.7241 -1000.8983) rotate(45)"/><rect class="cls-7" x="1284.4782" y="310.1312" width="7.011" height="11.6807" transform="translate(924.6063 -979.4547) rotate(45)"/><rect class="cls-7" x="1308.0481" y="311.2641" width="7.011" height="11.0493" transform="translate(484.0806 858.9351) rotate(-45)"/><rect class="cls-7" x="1285.764" y="287.7801" width="7.011" height="11.6562" transform="translate(493.9449 836.3884) rotate(-45)"/><circle class="cls-8" cx="1623.7593" cy="144.1949" r="23.5373"/><circle class="cls-9" cx="1623.7593" cy="144.1949" r="12.763"/><rect class="cls-4" x="1498.6873" y="46.6402" width="35.401" height="31.3571"/><rect class="cls-4" x="1553.9147" y="46.6402" width="35.401" height="31.3571"/><rect class="cls-4" x="1609.8254" y="46.6402" width="35.401" height="31.3571"/><rect class="cls-2" x="1477.1809" y="29.3728" width="188.8687" height="7.8714"/><polyline class="cls-6" points="1480.449 125.558 1450.215 125.558 1450.215 132.526 1480.449 132.526"/><rect class="cls-1" x="1269.4473" y="37.9942" width="181.7552" height="95.4539"/><rect class="cls-7" x="993.1086" y="300.2061" width="7.011" height="11.1724" transform="translate(1626.3453 -852.0804) rotate(90)"/><rect class="cls-7" x="961.5576" y="299.5467" width="7.011" height="11.6685" transform="translate(983.6211 1109.1854) rotate(-90)"/><rect class="cls-7" x="986.8348" y="287.7379" width="7.011" height="14.2575" transform="translate(822.5051 -775.1705) rotate(45)"/><rect class="cls-7" x="965.3911" y="310.4699" width="7.011" height="11.6807" transform="translate(831.3874 -753.7269) rotate(45)"/><rect class="cls-7" x="988.961" y="311.6028" width="7.011" height="11.0493" transform="translate(390.3827 633.4057) rotate(-45)"/><rect class="cls-7" x="966.6769" y="288.1189" width="7.011" height="11.6562" transform="translate(400.2469 610.859) rotate(-45)"/><circle class="cls-8" cx="1304.6723" cy="144.5336" r="23.5373"/><circle class="cls-9" cx="1304.6723" cy="144.5336" r="12.763"/><rect class="cls-7" x="1101.1698" y="300.6174" width="7.011" height="11.1724" transform="translate(1734.8179 -959.7303) rotate(90)"/><rect class="cls-7" x="1069.6188" y="299.958" width="7.011" height="11.6685" transform="translate(1091.271 1217.658) rotate(-90)"/><rect class="cls-7" x="1094.896" y="288.1492" width="7.011" height="14.2575" transform="translate(854.4464 -851.4609) rotate(45)"/><rect class="cls-7" x="1073.4524" y="310.8812" width="7.011" height="11.6807" transform="translate(863.3286 -830.0172) rotate(45)"/><rect class="cls-7" x="1097.0223" y="312.0142" width="7.011" height="11.0493" transform="translate(421.7422 709.937) rotate(-45)"/><rect class="cls-7" x="1074.7382" y="288.5302" width="7.011" height="11.6562" transform="translate(431.6065 687.3903) rotate(-45)"/><circle class="cls-8" cx="1412.7335" cy="144.945" r="23.5373"/><circle class="cls-9" cx="1412.7335" cy="144.945" r="12.763"/><rect class="cls-4" x="1287.6615" y="47.3903" width="35.401" height="31.3571"/><rect class="cls-4" x="1342.8889" y="47.3903" width="35.401" height="31.3571"/><rect class="cls-4" x="1398.7995" y="47.3903" width="35.401" height="31.3571"/><rect class="cls-2" x="1266.155" y="30.1229" width="188.8687" height="7.8714"/><polyline class="cls-6" points="1269.423 125.656 1239.189 125.656 1239.189 132.624 1269.423 132.624"/><rect class="cls-1" x="1058.4215" y="38.0919" width="181.7552" height="95.4539"/><rect class="cls-5" x="1085.3837" y="37.1393" width="10.162" height="95.1403"/><rect class="cls-5" x="1203.2789" y="37.1393" width="10.162" height="96.4065"/><rect class="cls-5" x="1147.9409" y="35.7339" width="10.162" height="96.4065"/><rect class="cls-7" x="782.0827" y="300.3037" width="7.011" height="11.1724" transform="translate(1415.4171 -640.9569) rotate(90)"/><rect class="cls-7" x="750.5318" y="299.6444" width="7.011" height="11.6685" transform="translate(772.4976 898.2572) rotate(-90)"/><rect class="cls-7" x="775.8089" y="287.8356" width="7.011" height="14.2575" transform="translate(760.7662 -625.9241) rotate(45)"/><rect class="cls-7" x="754.3653" y="310.5676" width="7.011" height="11.6807" transform="translate(769.6484 -604.4805) rotate(45)"/><rect class="cls-7" x="777.9352" y="311.7005" width="7.011" height="11.0493" transform="translate(328.5056 484.2165) rotate(-45)"/><rect class="cls-7" x="755.6511" y="288.2165" width="7.011" height="11.6562" transform="translate(338.3699 461.6698) rotate(-45)"/><circle class="cls-8" cx="1093.6464" cy="144.6313" r="23.5373"/><circle class="cls-9" cx="1093.6464" cy="144.6313" r="12.763"/><rect class="cls-7" x="890.144" y="300.715" width="7.011" height="11.1724" transform="translate(1523.8897 -748.6068) rotate(90)"/><rect class="cls-7" x="858.593" y="300.0557" width="7.011" height="11.6685" transform="translate(880.1475 1006.7298) rotate(-90)"/><rect class="cls-7" x="883.8702" y="288.2469" width="7.011" height="14.2575" transform="translate(792.7074 -702.2144) rotate(45)"/><rect class="cls-7" x="862.4266" y="310.9789" width="7.011" height="11.6807" transform="translate(801.5896 -680.7708) rotate(45)"/><rect class="cls-7" x="885.9964" y="312.1118" width="7.011" height="11.0493" transform="translate(359.8651 560.7478) rotate(-45)"/><rect class="cls-7" x="863.7123" y="288.6278" width="7.011" height="11.6562" transform="translate(369.7294 538.2011) rotate(-45)"/><circle class="cls-8" cx="1201.7077" cy="145.0426" r="23.5373"/><circle class="cls-9" cx="1201.7077" cy="145.0426" r="12.763"/><rect class="cls-6" x="1058.3973" y="34.1562" width="181.8036" height="7.8714"/><rect class="cls-2" x="1055.1292" y="30.2205" width="188.8687" height="7.8714"/><path class="cls-6" d="M734.4583,294.0779" transform="translate(323.939 -161.2586)"/><path class="cls-6" d="M734.4583,287.11" transform="translate(323.939 -161.2586)"/><polyline class="cls-6" points="1058.397 126.114 1028.163 126.114 1028.163 133.083 1058.397 133.083"/><rect class="cls-1" x="847.3956" y="38.5505" width="181.7552" height="95.4539"/><rect class="cls-5" x="874.3579" y="37.5979" width="10.162" height="95.1403"/><rect class="cls-5" x="992.253" y="37.5979" width="10.162" height="96.4065"/><rect class="cls-5" x="936.9151" y="36.1925" width="10.162" height="96.4065"/><rect class="cls-7" x="571.0569" y="300.7623" width="7.011" height="11.1724" transform="translate(1204.8499 -429.4725) rotate(90)"/><rect class="cls-7" x="539.5059" y="300.103" width="7.011" height="11.6685" transform="translate(561.0132 687.69) rotate(-90)"/><rect class="cls-7" x="564.7831" y="288.2942" width="7.011" height="14.2575" transform="translate(699.2824 -476.572) rotate(45)"/><rect class="cls-7" x="543.3395" y="311.0262" width="7.011" height="11.6807" transform="translate(708.1646 -455.1284) rotate(45)"/><rect class="cls-7" x="566.9094" y="312.1591" width="7.011" height="11.0493" transform="translate(266.3733 335.133) rotate(-45)"/><rect class="cls-7" x="544.6253" y="288.6751" width="7.011" height="11.6562" transform="translate(276.2375 312.5863) rotate(-45)"/><circle class="cls-8" cx="882.6206" cy="145.0899" r="23.5373"/><circle class="cls-9" cx="882.6206" cy="145.0899" r="12.763"/><rect class="cls-7" x="679.1181" y="301.1736" width="7.011" height="11.1724" transform="translate(1313.3224 -537.1224) rotate(90)"/><rect class="cls-7" x="647.5672" y="300.5143" width="7.011" height="11.6685" transform="translate(668.6631 796.1625) rotate(-90)"/><rect class="cls-7" x="672.8443" y="288.7055" width="7.011" height="14.2575" transform="translate(731.2237 -552.8623) rotate(45)"/><rect class="cls-7" x="651.4007" y="311.4375" width="7.011" height="11.6807" transform="translate(740.1059 -531.4187) rotate(45)"/><rect class="cls-7" x="674.9706" y="312.5704" width="7.011" height="11.0493" transform="translate(297.7328 411.6643) rotate(-45)"/><rect class="cls-7" x="652.6865" y="289.0864" width="7.011" height="11.6562" transform="translate(307.5971 389.1176) rotate(-45)"/><circle class="cls-8" cx="990.6818" cy="145.5012" r="23.5373"/><circle class="cls-9" cx="990.6818" cy="145.5012" r="12.763"/><rect class="cls-6" x="847.3714" y="34.6148" width="181.8036" height="7.8714"/><rect class="cls-2" x="844.1033" y="30.6791" width="188.8687" height="7.8714"/><path class="cls-6" d="M523.4325,294.5365" transform="translate(323.939 -161.2586)"/><path class="cls-6" d="M523.4325,287.5683" transform="translate(323.939 -161.2586)"/><polyline class="cls-6" points="847.371 126.391 817.137 126.391 817.137 133.359 847.371 133.359"/><rect class="cls-1" x="636.3698" y="38.827" width="181.7552" height="95.4539"/><rect class="cls-5" x="663.332" y="37.8745" width="10.162" height="95.1403"/><rect class="cls-5" x="781.2272" y="37.8745" width="10.162" height="96.4065"/><rect class="cls-5" x="725.8892" y="36.4691" width="10.162" height="96.4065"/><rect class="cls-7" x="360.0311" y="301.0389" width="7.011" height="11.1724" transform="translate(994.1006 -218.1701) rotate(90)"/><rect class="cls-7" x="328.4801" y="300.3796" width="7.011" height="11.6685" transform="translate(349.7108 476.9407) rotate(-90)"/><rect class="cls-7" x="353.7573" y="288.5707" width="7.011" height="14.2575" transform="translate(637.6699 -327.2732) rotate(45)"/><rect class="cls-7" x="332.3136" y="311.3028" width="7.011" height="11.6807" transform="translate(646.5522 -305.8295) rotate(45)"/><rect class="cls-7" x="355.8835" y="312.4357" width="7.011" height="11.0493" transform="translate(204.3697 185.9962) rotate(-45)"/><rect class="cls-7" x="333.5994" y="288.9517" width="7.011" height="11.6562" transform="translate(214.2339 163.4495) rotate(-45)"/><circle class="cls-8" cx="671.5948" cy="145.3665" r="23.5373"/><circle class="cls-9" cx="671.5948" cy="145.3665" r="12.763"/><rect class="cls-7" x="468.0923" y="301.4502" width="7.011" height="11.1724" transform="translate(1102.5732 -325.82) rotate(90)"/><rect class="cls-7" x="436.5413" y="300.7909" width="7.011" height="11.6685" transform="translate(457.3607 585.4133) rotate(-90)"/><rect class="cls-7" x="461.8185" y="288.9821" width="7.011" height="14.2575" transform="translate(669.6112 -403.5635) rotate(45)"/><rect class="cls-7" x="440.3749" y="311.7141" width="7.011" height="11.6807" transform="translate(678.4934 -382.1199) rotate(45)"/><rect class="cls-7" x="463.9448" y="312.847" width="7.011" height="11.0493" transform="translate(235.7292 262.5275) rotate(-45)"/><rect class="cls-7" x="441.6607" y="289.363" width="7.011" height="11.6562" transform="translate(245.5935 239.9808) rotate(-45)"/><circle class="cls-8" cx="779.656" cy="145.7778" r="23.5373"/><circle class="cls-9" cx="779.656" cy="145.7778" r="12.763"/><rect class="cls-6" x="636.3456" y="34.8914" width="181.8036" height="7.8714"/><rect class="cls-2" x="633.0775" y="30.9557" width="188.8687" height="7.8714"/><path class="cls-6" d="M312.4066,294.8131" transform="translate(323.939 -161.2586)"/><path class="cls-6" d="M312.4066,287.8448" transform="translate(323.939 -161.2586)"/><polyline class="cls-6" points="636.346 126.496 606.112 126.496 606.112 133.464 636.346 133.464"/><rect class="cls-1" x="425.344" y="38.9316" width="181.7552" height="95.4539"/><rect class="cls-5" x="452.3062" y="37.9791" width="10.162" height="95.1403"/><rect class="cls-5" x="570.2014" y="37.9791" width="10.162" height="96.4065"/><rect class="cls-5" x="514.8634" y="36.5737" width="10.162" height="96.4065"/><rect class="cls-7" x="149.0052" y="301.1435" width="7.011" height="11.1724" transform="translate(783.1794 -7.0396) rotate(90)"/><rect class="cls-7" x="117.4543" y="300.4842" width="7.011" height="11.6685" transform="translate(138.5803 266.0195) rotate(-90)"/><rect class="cls-7" x="142.7314" y="288.6753" width="7.011" height="14.2575" transform="translate(575.9359 -178.0247) rotate(45)"/><rect class="cls-7" x="121.2878" y="311.4074" width="7.011" height="11.6807" transform="translate(584.8181 -156.5811) rotate(45)"/><rect class="cls-7" x="144.8577" y="312.5403" width="7.011" height="11.0493" transform="translate(142.4877 36.809) rotate(-45)"/><rect class="cls-7" x="122.5736" y="289.0563" width="7.011" height="11.6562" transform="translate(152.3519 14.2624) rotate(-45)"/><circle class="cls-8" cx="460.5689" cy="145.4711" r="23.5373"/><circle class="cls-9" cx="460.5689" cy="145.4711" r="12.763"/><rect class="cls-7" x="257.0665" y="301.5548" width="7.011" height="11.1724" transform="translate(891.6519 -114.6895) rotate(90)"/><rect class="cls-7" x="225.5155" y="300.8955" width="7.011" height="11.6685" transform="translate(246.2302 374.4921) rotate(-90)"/><rect class="cls-7" x="250.7927" y="289.0867" width="7.011" height="14.2575" transform="translate(607.8771 -254.3151) rotate(45)"/><rect class="cls-7" x="229.349" y="311.8187" width="7.011" height="11.6807" transform="translate(616.7594 -232.8715) rotate(45)"/><rect class="cls-7" x="252.9189" y="312.9516" width="7.011" height="11.0493" transform="translate(173.8472 113.3403) rotate(-45)"/><rect class="cls-7" x="230.6348" y="289.4676" width="7.011" height="11.6562" transform="translate(183.7115 90.7937) rotate(-45)"/><circle class="cls-8" cx="568.6302" cy="145.8824" r="23.5373"/><circle class="cls-9" cx="568.6302" cy="145.8824" r="12.763"/><rect class="cls-6" x="425.3198" y="34.996" width="181.8036" height="7.8714"/><rect class="cls-2" x="422.0517" y="31.0603" width="188.8687" height="7.8714"/><path class="cls-6" d="M101.3808,294.9177" transform="translate(323.939 -161.2586)"/><path class="cls-6" d="M101.3808,287.9494" transform="translate(323.939 -161.2586)"/><polyline class="cls-6" points="425.32 126.352 395.086 126.352 395.086 133.32 425.32 133.32"/><rect class="cls-1" x="214.3181" y="38.7881" width="181.7552" height="95.4539"/><rect class="cls-5" x="241.2804" y="37.8355" width="10.162" height="95.1403"/><rect class="cls-5" x="359.1755" y="37.8355" width="10.162" height="96.4065"/><rect class="cls-5" x="303.8376" y="36.4301" width="10.162" height="96.4065"/><rect class="cls-7" x="-62.0206" y="300.9999" width="7.011" height="11.1724" transform="translate(572.01 203.8427) rotate(90)"/><rect class="cls-7" x="-93.5716" y="300.3406" width="7.011" height="11.6685" transform="translate(-72.3019 54.8501) rotate(-90)"/><rect class="cls-7" x="-68.2944" y="288.5318" width="7.011" height="14.2575" transform="translate(514.0263 -28.849) rotate(45)"/><rect class="cls-7" x="-89.738" y="311.2638" width="7.011" height="11.6807" transform="translate(522.9086 -7.4054) rotate(45)"/><rect class="cls-7" x="-66.1682" y="312.3967" width="7.011" height="11.0493" transform="translate(80.7811 -112.4508) rotate(-45)"/><rect class="cls-7" x="-88.4522" y="288.9127" width="7.011" height="11.6562" transform="translate(90.6454 -134.9975) rotate(-45)"/><circle class="cls-8" cx="249.5431" cy="145.3275" r="23.5373"/><circle class="cls-9" cx="249.5431" cy="145.3275" r="12.763"/><rect class="cls-7" x="46.0406" y="301.4113" width="7.011" height="11.1724" transform="translate(680.4825 96.1927) rotate(90)"/><rect class="cls-7" x="14.4897" y="300.7519" width="7.011" height="11.6685" transform="translate(35.348 163.3227) rotate(-90)"/><rect class="cls-7" x="39.7668" y="288.9431" width="7.011" height="14.2575" transform="translate(545.9676 -105.1393) rotate(45)"/><rect class="cls-7" x="18.3232" y="311.6751" width="7.011" height="11.6807" transform="translate(554.8498 -83.6957) rotate(45)"/><rect class="cls-7" x="41.8931" y="312.808" width="7.011" height="11.0493" transform="translate(112.1407 -35.9195) rotate(-45)"/><rect class="cls-7" x="19.609" y="289.3241" width="7.011" height="11.6562" transform="translate(122.005 -58.4662) rotate(-45)"/><circle class="cls-8" cx="357.6043" cy="145.7388" r="23.5373"/><circle class="cls-9" cx="357.6043" cy="145.7388" r="12.763"/><rect class="cls-6" x="214.2939" y="34.8524" width="181.8036" height="7.8714"/><rect class="cls-2" x="211.0258" y="30.9167" width="188.8687" height="7.8714"/><path class="cls-6" d="M-109.6451,294.7741" transform="translate(323.939 -161.2586)"/><path class="cls-6" d="M-109.6451,287.8059" transform="translate(323.939 -161.2586)"/><polyline class="cls-6" points="214.294 126.308 184.06 126.308 184.06 133.276 214.294 133.276"/><rect class="cls-1" x="3.2923" y="38.7441" width="181.7552" height="95.4539"/><rect class="cls-5" x="30.2545" y="37.7916" width="10.162" height="95.1403"/><rect class="cls-5" x="148.1497" y="37.7916" width="10.162" height="96.4065"/><rect class="cls-5" x="92.8117" y="36.3862" width="10.162" height="96.4065"/><rect class="cls-7" x="-273.0465" y="300.956" width="7.011" height="11.1724" transform="translate(360.9402 414.8246) rotate(90)"/><rect class="cls-7" x="-304.5974" y="300.2967" width="7.011" height="11.6685" transform="translate(-283.2838 -156.2197) rotate(-90)"/><rect class="cls-7" x="-279.3203" y="288.4879" width="7.011" height="14.2575" transform="translate(452.1872 120.356) rotate(45)"/><rect class="cls-7" x="-300.7639" y="311.2199" width="7.011" height="11.6807" transform="translate(461.0695 141.7996) rotate(45)"/><rect class="cls-7" x="-277.194" y="312.3528" width="7.011" height="11.0493" transform="translate(19.0042 -261.6815) rotate(-45)"/><rect class="cls-7" x="-299.4781" y="288.8688" width="7.011" height="11.6562" transform="translate(28.8684 -284.2281) rotate(-45)"/><circle class="cls-8" cx="38.5172" cy="145.2836" r="23.5373"/><circle class="cls-9" cx="38.5172" cy="145.2836" r="12.763"/><rect class="cls-7" x="-164.9852" y="301.3673" width="7.011" height="11.1724" transform="translate(469.4128 307.1746) rotate(90)"/><rect class="cls-7" x="-196.5362" y="300.708" width="7.011" height="11.6685" transform="translate(-175.6339 -47.7471) rotate(-90)"/><rect class="cls-7" x="-171.259" y="288.8992" width="7.011" height="14.2575" transform="translate(484.1285 44.0656) rotate(45)"/><rect class="cls-7" x="-192.7026" y="311.6312" width="7.011" height="11.6807" transform="translate(493.0107 65.5092) rotate(45)"/><rect class="cls-7" x="-169.1327" y="312.7641" width="7.011" height="11.0493" transform="translate(50.3637 -185.1502) rotate(-45)"/><rect class="cls-7" x="-191.4168" y="289.2801" width="7.011" height="11.6562" transform="translate(60.228 -207.6968) rotate(-45)"/><circle class="cls-8" cx="146.5785" cy="145.6949" r="23.5373"/><circle class="cls-9" cx="146.5785" cy="145.6949" r="12.763"/><rect class="cls-6" x="3.2681" y="34.8085" width="181.8036" height="7.8714"/><rect class="cls-2" y="30.8728" width="188.8687" height="7.8714"/><path class="cls-6" d="M-320.6709,294.73" transform="translate(323.939 -161.2586)"/><path class="cls-6" d="M-320.6709,287.7619" transform="translate(323.939 -161.2586)"/></svg>