<svg id="train" xmlns="http://www.w3.org/2000/svg" viewBox="0 0 1894.4671 173.3398"><defs><style>.cls-1{fill:#4a1d41;}.cls-2{fill:#391236;}.cls-3{fill:#352032;}.cls-4{fill:#603b5a;}.cls-5,.cls-8{fill:none;stroke-miterlimit:10;}.cls-5{stroke:#352032;stroke-width:3px;}.cls-6{fill:#231e22;}.cls-7{fill:#352934;}.cls-8{stroke:#4c3449;stroke-width:7px;}.cls-9{fill:#4c3449;}</style></defs><path class="cls-1" d="M1969.4637,278.4615H1863.0445V214.5859h106.4192s8.5914,15.7,8.5914,31.9378S1969.4637,278.4615,1969.4637,278.4615Z" transform="translate(-98.1853 -161.2586)"/><path class="cls-2" d="M1969.5316,278.3351s22.4292-19.0363,23.1067-31.8114-23.1746-31.9378-23.1746-31.9378,6.8914,22.645,6.5043,31.3553S1969.5316,278.3351,1969.5316,278.3351Z" transform="translate(-98.1853 -161.2586)"/><rect class="cls-2" x="1757.9467" y="53.3272" width="10.162" height="64.4908"/><polygon class="cls-3" points="1764.859 134.576 1877.565 134.327 1877.565 116.766 1764.859 117.014 1764.859 134.576"/><rect class="cls-2" x="1792.072" y="53.3272" width="10.162" height="64.273"/><rect class="cls-2" x="1772.9093" y="53.3272" width="10.162" height="64.4908"/><rect class="cls-2" x="1851.2159" y="39.0278" width="11.6863" height="14.2994"/><polyline class="cls-1" points="1851.337 39.22 1843.867 32.096 1845.228 32.072 1869.81 32.072 1862.77 39.111"/><rect class="cls-1" x="1691.4022" y="7.1618" width="73.457" height="127.4141"/><rect class="cls-2" x="1686.9327" width="80.9091" height="7.1618"/><rect class="cls-4" x="1698.6432" y="15.6786" width="57.4881" height="42.9709"/><rect class="cls-5" x="1698.6432" y="65.2306" width="57.4881" height="62.6334"/><rect class="cls-6" x="1661.1681" y="124.3798" width="30.2341" height="6.9683"/><rect class="cls-7" x="1808.4396" y="299.4391" width="7.011" height="11.1724" transform="translate(2018.7851 -1668.1783) rotate(90)"/><rect class="cls-7" x="1776.8886" y="298.7798" width="7.011" height="11.6685" transform="translate(1377.5948 1923.7495) rotate(-90)"/><rect class="cls-7" x="1802.1658" y="286.971" width="7.011" height="14.2575" transform="translate(638.6435 -1351.9212) rotate(45)"/><rect class="cls-7" x="1780.7222" y="309.703" width="7.011" height="11.6807" transform="translate(647.5257 -1330.4776) rotate(45)"/><rect class="cls-7" x="1804.292" y="310.8359" width="7.011" height="11.0493" transform="translate(207.6057 1209.7071) rotate(-45)"/><rect class="cls-7" x="1782.0079" y="287.3519" width="7.011" height="11.6562" transform="translate(217.4699 1187.1604) rotate(-45)"/><circle class="cls-8" cx="1697.879" cy="143.7667" r="23.5373"/><circle class="cls-9" cx="1697.879" cy="143.7667" r="12.763"/><rect class="cls-7" x="1860.9099" y="299.4391" width="7.011" height="11.1724" transform="translate(2071.2555 -1720.6487) rotate(90)"/><rect class="cls-7" x="1829.359" y="298.7798" width="7.011" height="11.6685" transform="translate(1430.0652 1976.2198) rotate(-90)"/><rect class="cls-7" x="1854.6361" y="286.971" width="7.011" height="14.2575" transform="translate(654.0117 -1389.0234) rotate(45)"/><rect class="cls-7" x="1833.1925" y="309.703" width="7.011" height="11.6807" transform="translate(662.8939 -1367.5797) rotate(45)"/><rect class="cls-7" x="1856.7624" y="310.8359" width="7.011" height="11.0493" transform="translate(222.9739 1246.8093) rotate(-45)"/><rect class="cls-7" x="1834.4783" y="287.3519" width="7.011" height="11.6562" transform="translate(232.8381 1224.2626) rotate(-45)"/><circle class="cls-8" cx="1750.3494" cy="143.7667" r="23.5373"/><circle class="cls-9" cx="1750.3494" cy="143.7667" r="12.763"/><rect class="cls-7" x="1910.1379" y="307.6109" width="5.2769" height="8.4091" transform="translate(2126.4066 -1762.2195) rotate(90)"/><rect class="cls-7" x="1886.3905" y="307.1147" width="5.2769" height="8.7825" transform="translate(1479.3378 2039.2762) rotate(-90)"/><rect class="cls-7" x="1905.4158" y="298.2266" width="5.2769" height="10.7312" transform="translate(675.3429 -1421.5367) rotate(45)"/><rect class="cls-7" x="1889.2759" y="315.3362" width="5.2769" height="8.7917" transform="translate(682.0283 -1405.3967) rotate(45)"/><rect class="cls-7" x="1907.0162" y="316.1889" width="5.2769" height="8.3165" transform="translate(234.62 1282.8986) rotate(-45)"/><rect class="cls-7" x="1890.2437" y="298.5133" width="5.2769" height="8.7732" transform="translate(242.0445 1265.9285) rotate(-45)"/><circle class="cls-8" cx="1802.6381" cy="150.5569" r="17.7158"/><circle class="cls-9" cx="1802.6381" cy="150.5569" r="9.6063"/><rect class="cls-7" x="1953.1511" y="307.6109" width="5.2769" height="8.4091" transform="translate(2169.4198 -1805.2327) rotate(90)"/><rect class="cls-7" x="1929.4037" y="307.1147" width="5.2769" height="8.7825" transform="translate(1522.351 2082.2895) rotate(-90)"/><rect class="cls-7" x="1948.429" y="298.2266" width="5.2769" height="10.7312" transform="translate(687.9412 -1451.9516) rotate(45)"/><rect class="cls-7" x="1932.2891" y="315.3362" width="5.2769" height="8.7917" transform="translate(694.6266 -1435.8117) rotate(45)"/><rect class="cls-7" x="1950.0294" y="316.1889" width="5.2769" height="8.3165" transform="translate(247.2182 1313.3136) rotate(-45)"/><rect class="cls-7" x="1933.2569" y="298.5133" width="5.2769" height="8.7732" transform="translate(254.6428 1296.3434) rotate(-45)"/><circle class="cls-8" cx="1845.6514" cy="150.5569" r="17.7158"/><circle class="cls-9" cx="1845.6514" cy="150.5569" r="9.6063"/><rect class="cls-4" x="1693.5808" y="136.7557" width="55.6522" height="3.0942"/><rect class="cls-1" x="1480.4006" y="36.8159" width="181.7552" height="95.4539"/><rect class="cls-4" x="1799.8571" y="152.7376" width="50.419" height="3.0942"/><rect class="cls-7" x="1626.1861" y="299.0278" width="7.011" height="11.1724" transform="translate(1836.1203 -1486.3362) rotate(90)"/><rect class="cls-7" x="1594.6351" y="298.3685" width="7.011" height="11.6685" transform="translate(1195.7526 1741.0846) rotate(-90)"/><rect class="cls-7" x="1619.9123" y="286.5596" width="7.011" height="14.2575" transform="translate(584.9718 -1223.169) rotate(45)"/><rect class="cls-7" x="1598.4687" y="309.2917" width="7.011" height="11.6807" transform="translate(593.8541 -1201.7254) rotate(45)"/><rect class="cls-7" x="1622.0385" y="310.4246" width="7.011" height="11.0493" transform="translate(154.5157 1080.714) rotate(-45)"/><rect class="cls-7" x="1599.7544" y="286.9406" width="7.011" height="11.6562" transform="translate(164.38 1058.1673) rotate(-45)"/><circle class="cls-8" cx="1515.6255" cy="143.3554" r="23.5373"/><circle class="cls-9" cx="1515.6255" cy="143.3554" r="12.763"/><rect class="cls-7" x="1734.2473" y="299.4391" width="7.011" height="11.1724" transform="translate(1944.5928 -1593.9861) rotate(90)"/><rect class="cls-7" x="1702.6964" y="298.7798" width="7.011" height="11.6685" transform="translate(1303.4025 1849.5572) rotate(-90)"/><rect class="cls-7" x="1727.9735" y="286.971" width="7.011" height="14.2575" transform="translate(616.9131 -1299.4594) rotate(45)"/><rect class="cls-7" x="1706.5299" y="309.703" width="7.011" height="11.6807" transform="translate(625.7953 -1278.0157) rotate(45)"/><rect class="cls-7" x="1730.0998" y="310.8359" width="7.011" height="11.0493" transform="translate(185.8752 1157.2453) rotate(-45)"/><rect class="cls-7" x="1707.8157" y="287.3519" width="7.011" height="11.6562" transform="translate(195.7395 1134.6986) rotate(-45)"/><circle class="cls-8" cx="1623.6867" cy="143.7667" r="23.5373"/><circle class="cls-9" cx="1623.6867" cy="143.7667" r="12.763"/><rect class="cls-4" x="1498.6147" y="46.212" width="35.401" height="31.3571"/><rect class="cls-4" x="1553.8421" y="46.212" width="35.401" height="31.3571"/><rect class="cls-4" x="1609.7528" y="46.212" width="35.401" height="31.3571"/><rect class="cls-2" x="1477.1083" y="28.9446" width="188.8687" height="7.8714"/><rect class="cls-6" x="1450.1423" y="124.4871" width="30.2341" height="6.9683"/><rect class="cls-1" x="1269.3747" y="36.9232" width="181.7552" height="95.4539"/><rect class="cls-7" x="1415.1602" y="299.1351" width="7.011" height="11.1724" transform="translate(1625.2017 -1275.2031) rotate(90)"/><rect class="cls-7" x="1383.6093" y="298.4757" width="7.011" height="11.6685" transform="translate(984.6195 1530.1661) rotate(-90)"/><rect class="cls-7" x="1408.8864" y="286.6669" width="7.011" height="14.2575" transform="translate(523.2396 -1073.9198) rotate(45)"/><rect class="cls-7" x="1387.4428" y="309.3989" width="7.011" height="11.6807" transform="translate(532.1219 -1052.4762) rotate(45)"/><rect class="cls-7" x="1411.0127" y="310.5318" width="7.011" height="11.0493" transform="translate(92.6318 931.5276) rotate(-45)"/><rect class="cls-7" x="1388.7286" y="287.0478" width="7.011" height="11.6562" transform="translate(102.4961 908.9809) rotate(-45)"/><circle class="cls-8" cx="1304.5997" cy="143.4626" r="23.5373"/><circle class="cls-9" cx="1304.5997" cy="143.4626" r="12.763"/><rect class="cls-7" x="1523.2215" y="299.5464" width="7.011" height="11.1724" transform="translate(1733.6743 -1382.853) rotate(90)"/><rect class="cls-7" x="1491.6705" y="298.887" width="7.011" height="11.6685" transform="translate(1092.2695 1638.6386) rotate(-90)"/><rect class="cls-7" x="1516.9477" y="287.0782" width="7.011" height="14.2575" transform="translate(555.1809 -1150.2101) rotate(45)"/><rect class="cls-7" x="1495.5041" y="309.8102" width="7.011" height="11.6807" transform="translate(564.0631 -1128.7665) rotate(45)"/><rect class="cls-7" x="1519.0739" y="310.9432" width="7.011" height="11.0493" transform="translate(123.9914 1008.0589) rotate(-45)"/><rect class="cls-7" x="1496.7898" y="287.4592" width="7.011" height="11.6562" transform="translate(133.8556 985.5122) rotate(-45)"/><circle class="cls-8" cx="1412.6609" cy="143.8739" r="23.5373"/><circle class="cls-9" cx="1412.6609" cy="143.8739" r="12.763"/><rect class="cls-4" x="1287.5889" y="46.3192" width="35.401" height="31.3571"/><rect class="cls-4" x="1342.8163" y="46.3192" width="35.401" height="31.3571"/><rect class="cls-4" x="1398.7269" y="46.3192" width="35.401" height="31.3571"/><rect class="cls-2" x="1266.0824" y="29.0518" width="188.8687" height="7.8714"/><rect class="cls-6" x="1239.1164" y="124.808" width="30.2341" height="6.9683"/><rect class="cls-1" x="1058.3489" y="37.2442" width="181.7552" height="95.4539"/><rect class="cls-7" x="1204.1344" y="299.456" width="7.011" height="11.1724" transform="translate(1414.4968 -1063.8563) rotate(90)"/><rect class="cls-7" x="1172.5834" y="298.7967" width="7.011" height="11.6685" transform="translate(773.2727 1319.4612) rotate(-90)"/><rect class="cls-7" x="1197.8606" y="286.9879" width="7.011" height="14.2575" transform="translate(461.6586 -924.608) rotate(45)"/><rect class="cls-7" x="1176.417" y="309.7199" width="7.011" height="11.6807" transform="translate(470.5408 -903.1644) rotate(45)"/><rect class="cls-7" x="1199.9869" y="310.8528" width="7.011" height="11.0493" transform="translate(30.5968 782.4038) rotate(-45)"/><rect class="cls-7" x="1177.7028" y="287.3688" width="7.011" height="11.6562" transform="translate(40.4611 759.8571) rotate(-45)"/><circle class="cls-8" cx="1093.5738" cy="143.7836" r="23.5373"/><circle class="cls-9" cx="1093.5738" cy="143.7836" r="12.763"/><rect class="cls-7" x="1312.1956" y="299.8673" width="7.011" height="11.1724" transform="translate(1522.9694 -1171.5062) rotate(90)"/><rect class="cls-7" x="1280.6447" y="299.208" width="7.011" height="11.6685" transform="translate(880.9227 1427.9337) rotate(-90)"/><rect class="cls-7" x="1305.9218" y="287.3992" width="7.011" height="14.2575" transform="translate(493.5998 -1000.8983) rotate(45)"/><rect class="cls-7" x="1284.4782" y="310.1312" width="7.011" height="11.6807" transform="translate(502.482 -979.4547) rotate(45)"/><rect class="cls-7" x="1308.0481" y="311.2641" width="7.011" height="11.0493" transform="translate(61.9564 858.9351) rotate(-45)"/><rect class="cls-7" x="1285.764" y="287.7801" width="7.011" height="11.6562" transform="translate(71.8206 836.3884) rotate(-45)"/><circle class="cls-8" cx="1201.6351" cy="144.1949" r="23.5373"/><circle class="cls-9" cx="1201.6351" cy="144.1949" r="12.763"/><rect class="cls-4" x="1076.563" y="46.6402" width="35.401" height="31.3571"/><rect class="cls-4" x="1131.7904" y="46.6402" width="35.401" height="31.3571"/><rect class="cls-4" x="1187.7011" y="46.6402" width="35.401" height="31.3571"/><rect class="cls-2" x="1055.0566" y="29.3728" width="188.8687" height="7.8714"/><polyline class="cls-6" points="1058.325 125.558 1028.091 125.558 1028.091 132.526 1058.325 132.526"/><rect class="cls-1" x="847.3231" y="37.9942" width="181.7552" height="95.4539"/><rect class="cls-7" x="993.1086" y="300.2061" width="7.011" height="11.1724" transform="translate(1204.221 -852.0804) rotate(90)"/><rect class="cls-7" x="961.5576" y="299.5467" width="7.011" height="11.6685" transform="translate(561.4969 1109.1854) rotate(-90)"/><rect class="cls-7" x="986.8348" y="287.7379" width="7.011" height="14.2575" transform="translate(400.3809 -775.1705) rotate(45)"/><rect class="cls-7" x="965.3911" y="310.4699" width="7.011" height="11.6807" transform="translate(409.2631 -753.7269) rotate(45)"/><rect class="cls-7" x="988.961" y="311.6028" width="7.011" height="11.0493" transform="translate(-31.7416 633.4057) rotate(-45)"/><rect class="cls-7" x="966.6769" y="288.1189" width="7.011" height="11.6562" transform="translate(-21.8773 610.859) rotate(-45)"/><circle class="cls-8" cx="882.548" cy="144.5336" r="23.5373"/><circle class="cls-9" cx="882.548" cy="144.5336" r="12.763"/><rect class="cls-7" x="1101.1698" y="300.6174" width="7.011" height="11.1724" transform="translate(1312.6936 -959.7303) rotate(90)"/><rect class="cls-7" x="1069.6188" y="299.958" width="7.011" height="11.6685" transform="translate(669.1468 1217.658) rotate(-90)"/><rect class="cls-7" x="1094.896" y="288.1492" width="7.011" height="14.2575" transform="translate(432.3221 -851.4609) rotate(45)"/><rect class="cls-7" x="1073.4524" y="310.8812" width="7.011" height="11.6807" transform="translate(441.2044 -830.0172) rotate(45)"/><rect class="cls-7" x="1097.0223" y="312.0142" width="7.011" height="11.0493" transform="translate(-0.382 709.937) rotate(-45)"/><rect class="cls-7" x="1074.7382" y="288.5302" width="7.011" height="11.6562" transform="translate(9.4822 687.3903) rotate(-45)"/><circle class="cls-8" cx="990.6092" cy="144.945" r="23.5373"/><circle class="cls-9" cx="990.6092" cy="144.945" r="12.763"/><rect class="cls-4" x="865.5372" y="47.3903" width="35.401" height="31.3571"/><rect class="cls-4" x="920.7646" y="47.3903" width="35.401" height="31.3571"/><rect class="cls-4" x="976.6753" y="47.3903" width="35.401" height="31.3571"/><rect class="cls-2" x="844.0308" y="30.1229" width="188.8687" height="7.8714"/><polyline class="cls-6" points="847.299 125.656 817.065 125.656 817.065 132.624 847.299 132.624"/><rect class="cls-1" x="636.2972" y="38.0919" width="181.7552" height="95.4539"/><rect class="cls-7" x="782.0827" y="300.3037" width="7.011" height="11.1724" transform="translate(993.2929 -640.9569) rotate(90)"/><rect class="cls-7" x="750.5318" y="299.6444" width="7.011" height="11.6685" transform="translate(350.3734 898.2572) rotate(-90)"/><rect class="cls-7" x="775.8089" y="287.8356" width="7.011" height="14.2575" transform="translate(338.6419 -625.9241) rotate(45)"/><rect class="cls-7" x="754.3653" y="310.5676" width="7.011" height="11.6807" transform="translate(347.5241 -604.4805) rotate(45)"/><rect class="cls-7" x="777.9352" y="311.7005" width="7.011" height="11.0493" transform="translate(-93.6187 484.2165) rotate(-45)"/><rect class="cls-7" x="755.6511" y="288.2165" width="7.011" height="11.6562" transform="translate(-83.7544 461.6698) rotate(-45)"/><circle class="cls-8" cx="671.5222" cy="144.6313" r="23.5373"/><circle class="cls-9" cx="671.5222" cy="144.6313" r="12.763"/><rect class="cls-7" x="890.144" y="300.715" width="7.011" height="11.1724" transform="translate(1101.7654 -748.6068) rotate(90)"/><rect class="cls-7" x="858.593" y="300.0557" width="7.011" height="11.6685" transform="translate(458.0233 1006.7298) rotate(-90)"/><rect class="cls-7" x="883.8702" y="288.2469" width="7.011" height="14.2575" transform="translate(370.5832 -702.2144) rotate(45)"/><rect class="cls-7" x="862.4266" y="310.9789" width="7.011" height="11.6807" transform="translate(379.4654 -680.7708) rotate(45)"/><rect class="cls-7" x="885.9964" y="312.1118" width="7.011" height="11.0493" transform="translate(-62.2591 560.7478) rotate(-45)"/><rect class="cls-7" x="863.7123" y="288.6278" width="7.011" height="11.6562" transform="translate(-52.3948 538.2011) rotate(-45)"/><circle class="cls-8" cx="779.5834" cy="145.0426" r="23.5373"/><circle class="cls-9" cx="779.5834" cy="145.0426" r="12.763"/><rect class="cls-2" x="633.0049" y="30.2205" width="188.8687" height="7.8714"/><polyline class="cls-6" points="636.273 125.851 606.039 125.851 606.039 132.819 636.273 132.819"/><rect class="cls-1" x="425.2714" y="38.2871" width="181.7552" height="95.4539"/><rect class="cls-7" x="571.0569" y="300.499" width="7.011" height="11.1724" transform="translate(782.4623 -429.7358) rotate(90)"/><rect class="cls-7" x="539.5059" y="299.8397" width="7.011" height="11.6685" transform="translate(139.1522 687.4267) rotate(-90)"/><rect class="cls-7" x="564.7831" y="288.0308" width="7.011" height="14.2575" transform="translate(276.9719 -476.6491) rotate(45)"/><rect class="cls-7" x="543.3395" y="310.7629" width="7.011" height="11.6807" transform="translate(285.8542 -455.2055) rotate(45)"/><rect class="cls-7" x="566.9094" y="311.8958" width="7.011" height="11.0493" transform="translate(-155.5648 335.0559) rotate(-45)"/><rect class="cls-7" x="544.6253" y="288.4118" width="7.011" height="11.6562" transform="translate(-145.7005 312.5092) rotate(-45)"/><circle class="cls-8" cx="460.4963" cy="144.8266" r="23.5373"/><circle class="cls-9" cx="460.4963" cy="144.8266" r="12.763"/><rect class="cls-7" x="679.1181" y="300.9103" width="7.011" height="11.1724" transform="translate(890.9349 -537.3857) rotate(90)"/><rect class="cls-7" x="647.5672" y="300.251" width="7.011" height="11.6685" transform="translate(246.8022 795.8992) rotate(-90)"/><rect class="cls-7" x="672.8443" y="288.4422" width="7.011" height="14.2575" transform="translate(308.9132 -552.9395) rotate(45)"/><rect class="cls-7" x="651.4007" y="311.1742" width="7.011" height="11.6807" transform="translate(317.7954 -531.4958) rotate(45)"/><rect class="cls-7" x="674.9706" y="312.3071" width="7.011" height="11.0493" transform="translate(-124.2052 411.5872) rotate(-45)"/><rect class="cls-7" x="652.6865" y="288.8231" width="7.011" height="11.6562" transform="translate(-114.341 389.0405) rotate(-45)"/><circle class="cls-8" cx="568.5576" cy="145.2379" r="23.5373"/><circle class="cls-9" cx="568.5576" cy="145.2379" r="12.763"/><rect class="cls-2" x="421.9791" y="30.4158" width="188.8687" height="7.8714"/><polyline class="cls-6" points="425.247 126.093 395.013 126.093 395.013 133.061 425.247 133.061"/><rect class="cls-1" x="214.2455" y="38.5291" width="181.7552" height="95.4539"/><rect class="cls-7" x="360.0311" y="300.741" width="7.011" height="11.1724" transform="translate(571.6784 -218.468) rotate(90)"/><rect class="cls-7" x="328.4801" y="300.0816" width="7.011" height="11.6685" transform="translate(-72.1155 476.6428) rotate(-90)"/><rect class="cls-7" x="353.7573" y="288.2728" width="7.011" height="14.2575" transform="translate(215.335 -327.3604) rotate(45)"/><rect class="cls-7" x="332.3136" y="311.0048" width="7.011" height="11.6807" transform="translate(224.2172 -305.9168) rotate(45)"/><rect class="cls-7" x="355.8835" y="312.1377" width="7.011" height="11.0493" transform="translate(-217.5439 185.9089) rotate(-45)"/><rect class="cls-7" x="333.5994" y="288.6538" width="7.011" height="11.6562" transform="translate(-207.6796 163.3623) rotate(-45)"/><circle class="cls-8" cx="249.4705" cy="145.0685" r="23.5373"/><circle class="cls-9" cx="249.4705" cy="145.0685" r="12.763"/><rect class="cls-7" x="468.0923" y="301.1523" width="7.011" height="11.1724" transform="translate(680.151 -326.1179) rotate(90)"/><rect class="cls-7" x="436.5413" y="300.4929" width="7.011" height="11.6685" transform="translate(35.5344 585.1153) rotate(-90)"/><rect class="cls-7" x="461.8185" y="288.6841" width="7.011" height="14.2575" transform="translate(247.2762 -403.6508) rotate(45)"/><rect class="cls-7" x="440.3749" y="311.4161" width="7.011" height="11.6807" transform="translate(256.1585 -382.2072) rotate(45)"/><rect class="cls-7" x="463.9448" y="312.5491" width="7.011" height="11.0493" transform="translate(-186.1844 262.4402) rotate(-45)"/><rect class="cls-7" x="441.6607" y="289.0651" width="7.011" height="11.6562" transform="translate(-176.3201 239.8936) rotate(-45)"/><circle class="cls-8" cx="357.5317" cy="145.4798" r="23.5373"/><circle class="cls-9" cx="357.5317" cy="145.4798" r="12.763"/><rect class="cls-2" x="210.9533" y="30.6578" width="188.8687" height="7.8714"/><polyline class="cls-6" points="214.294 126.916 184.06 126.916 184.06 133.884 214.294 133.884"/><rect class="cls-1" x="3.2923" y="39.3517" width="181.7552" height="95.4539"/><rect class="cls-7" x="149.0778" y="301.5636" width="7.011" height="11.1724" transform="translate(361.5478 -6.6921) rotate(90)"/><rect class="cls-7" x="117.5268" y="300.9042" width="7.011" height="11.6685" transform="translate(-283.8914 266.5122) rotate(-90)"/><rect class="cls-7" x="142.804" y="289.0954" width="7.011" height="14.2575" transform="translate(154.1299 -177.953) rotate(45)"/><rect class="cls-7" x="121.3604" y="311.8275" width="7.011" height="11.6807" transform="translate(163.0122 -156.5094) rotate(45)"/><rect class="cls-7" x="144.9303" y="312.9604" width="7.011" height="11.0493" transform="translate(-279.9124 36.9834) rotate(-45)"/><rect class="cls-7" x="122.6462" y="289.4764" width="7.011" height="11.6562" transform="translate(-270.0481 14.4367) rotate(-45)"/><circle class="cls-8" cx="38.5172" cy="145.8912" r="23.5373"/><circle class="cls-9" cx="38.5172" cy="145.8912" r="12.763"/><rect class="cls-7" x="257.139" y="301.9749" width="7.011" height="11.1724" transform="translate(470.0204 -114.342) rotate(90)"/><rect class="cls-7" x="225.5881" y="301.3156" width="7.011" height="11.6685" transform="translate(-176.2415 374.9847) rotate(-90)"/><rect class="cls-7" x="250.8652" y="289.5068" width="7.011" height="14.2575" transform="translate(186.0712 -254.2434) rotate(45)"/><rect class="cls-7" x="229.4216" y="312.2388" width="7.011" height="11.6807" transform="translate(194.9534 -232.7998) rotate(45)"/><rect class="cls-7" x="252.9915" y="313.3717" width="7.011" height="11.0493" transform="translate(-248.5528 113.5147) rotate(-45)"/><rect class="cls-7" x="230.7074" y="289.8877" width="7.011" height="11.6562" transform="translate(-238.6886 90.968) rotate(-45)"/><circle class="cls-8" cx="146.5785" cy="146.3025" r="23.5373"/><circle class="cls-9" cx="146.5785" cy="146.3025" r="12.763"/><rect class="cls-2" y="31.4804" width="188.8687" height="7.8714"/></svg>