<?xml version="1.0" encoding="UTF-8"?><svg id="a" xmlns="http://www.w3.org/2000/svg" xmlns:xlink="http://www.w3.org/1999/xlink" viewBox="0 0 4919.9367 2558.9045"><defs><style>.e{fill:#091a26;}.f{opacity:.45;}.g{fill:url(#d);}.h{fill:none;}.i{fill:#102230;}</style><pattern id="d" x="0" y="0" width="122.9045" height="197.6561" patternTransform="translate(1157.7718 2561.5541)" patternUnits="userSpaceOnUse" viewBox="0 0 122.9045 197.6561"><g><rect class="h" width="122.9045" height="197.6561"/><g><polygon class="e" points="88.4399 193.8408 73.9926 202.0955 71.2484 213.5605 82.548 202.0955 92.6369 197.2803 88.4399 193.8408"/><polygon class="e" points="105.5924 187.2229 159.1338 199.8344 140.1019 187.2229 105.5924 187.2229"/><polygon class="e" points="61.4522 184.7006 75.2102 165.2102 100.6624 162.9172 61.4522 184.7006"/><polygon class="e" points="130.7006 149.6178 128.4076 170.4841 120.6115 177.5924 125.6561 166.586 130.7006 149.6178"/></g><g><polygon class="e" points="-17.3121 187.2229 36.2293 199.8344 17.1975 187.2229 -17.3121 187.2229"/><polygon class="e" points="7.7962 149.6178 5.5032 170.4841 -2.293 177.5924 2.7516 166.586 7.7962 149.6178"/><polygon class="e" points="35.7472 159.2765 40.5691 194.2443 44.276 164.2291 35.7472 159.2765"/></g><g><polygon class="e" points="26.9877 95.0127 12.5404 103.2675 9.7962 114.7325 21.0958 103.2675 31.1847 98.4522 26.9877 95.0127"/><polygon class="e" points="44.1401 88.3949 97.6815 101.0064 78.6497 88.3949 44.1401 88.3949"/><polygon class="e" points="0 85.8726 13.758 66.3822 39.2102 64.0892 0 85.8726"/><polygon class="e" points="69.2484 50.7898 66.9554 71.6561 59.1592 78.7643 64.2038 67.758 69.2484 50.7898"/><polygon class="e" points="97.1994 60.4484 102.0213 95.4162 105.7282 65.4011 97.1994 60.4484"/><polygon class="e" points="101.3503 129.2102 105.9363 108.3439 116.2548 118.7771 99.0573 145.0318 101.3503 129.2102"/><polygon class="e" points="33.4777 137.2357 47.2357 132.1868 59.1592 148.242 33.4777 137.2357"/><polyline class="e" points="84.3949 136.0446 84.5502 137.1146 87.1465 155 75.8344 137.879 64.2038 119.2293"/><polygon class="e" points="44.1401 105.4713 59.1592 108.3439 52.5987 114.7325 50 109.4459 44.1401 105.4713"/></g><g><polygon class="e" points="88.4399 -3.8153 73.9926 4.4395 71.2484 15.9045 82.548 4.4395 92.6369 -.3758 88.4399 -3.8153"/><polygon class="e" points="105.5924 -10.4331 159.1338 2.1783 140.1019 -10.4331 105.5924 -10.4331"/><polygon class="e" points="94.9299 38.4076 108.6879 33.3588 120.6115 49.414 94.9299 38.4076"/><polygon class="e" points="105.5924 6.6433 120.6115 9.5159 114.051 15.9045 111.4522 10.6178 105.5924 6.6433"/></g><g><polygon class="e" points="-17.3121 -10.4331 36.2293 2.1783 17.1975 -10.4331 -17.3121 -10.4331"/><polygon class="e" points="39.8981 30.3822 44.4841 9.5159 54.8025 19.949 37.6051 46.2038 39.8981 30.3822"/><polyline class="e" points="22.9427 37.2166 23.098 38.2866 25.6943 56.172 14.3822 39.051 2.7516 20.4013"/></g></g></pattern></defs><g id="b"><g><g><polygon class="i" points="1395.1221 2214.7261 1443.8864 2264.2548 1456.4214 2309.1975 1491.8482 2349.2866 1538.2813 2373.0191 1538.2813 2550.0382 1233.0839 2550.0382 1233.0839 2225.8089 1395.1221 2214.7261"/><polygon class="i" points="2257.5934 2459.465 2231.9119 2450.7516 2298.6485 2419.4599 2357.3386 2379.4395 2370.9437 2345.4268 2603.1476 2249.1975 2707.0202 2226.7261 2741.8737 2191.1847 2779.6316 2166.9936 2779.6316 2101.5287 2806.2304 2074.9299 2806.2304 1991.9271 2967.5042 1973.5032 3102.5616 1988.0255 3172.8418 2058.3057 3144.982 2151.7452 3154.6125 2241.5732 3107.8355 2378.7516 3002.3577 2470.4713 2840.0138 2497.0701 2278.689 2486.0637 2257.5934 2459.465"/></g><g id="c" class="f"><polygon class="g" points="1395.1603 2214.7261 1443.9246 2264.2548 1456.4597 2309.1975 1491.8864 2349.2866 1538.3195 2373.0191 1538.3195 2550.0382 1233.1221 2550.0382 1233.1221 2225.8089 1395.1603 2214.7261"/><polygon class="g" points="2257.6316 2459.465 2231.9501 2450.7516 2298.6867 2419.4599 2357.3769 2379.4395 2370.982 2345.4268 2603.1858 2249.1975 2707.0584 2226.7261 2741.9119 2191.1847 2779.6699 2166.9936 2779.6699 2101.5287 2806.2686 2074.9299 2806.2686 1991.9271 2967.5425 1973.5032 3102.5998 1988.0255 3172.88 2058.3057 3145.0202 2151.7452 3154.6507 2241.5732 3107.8737 2378.7516 3002.396 2470.4713 2840.052 2497.0701 2278.7272 2486.0637 2257.6316 2459.465"/></g></g></g></svg>