<svg id="Layer_1" data-name="Layer 1" xmlns="http://www.w3.org/2000/svg" viewBox="0 0 2772 972"><defs><style>.cls-1{fill:#fff;}</style></defs><polygon class="cls-1" points="181.293 976.824 168.636 946.557 182.394 894.276 124.06 840.896 124.06 753.945 190.648 704.967 195.601 569.038 94.343 468.88 100.396 226.19 25.553 142.541 23.902 49.538 -5.265 18.72 -6.366 978.475 181.293 976.824"/><polygon class="cls-1" points="230.822 976.274 215.963 946.006 231.922 909.135 219.815 874.465 250.633 850.251 291.907 850.801 332.08 836.493 362.348 783.662 405.961 758.348 452.6 758.348 485.619 784.213 520.289 844.197 584.676 882.72 707.397 905.283 800.401 895.377 866.439 850.801 908.814 755.596 956.141 714.873 1054.648 714.873 1099.775 752.845 1123.438 816.131 1202.684 884.371 1255.515 900.88 1576.35 900.88 1597.813 878.317 1598.363 816.682 1530.674 792.468 1459.683 795.219 1438.22 825.487 1401.899 826.587 1377.685 807.876 1378.786 769.904 1462.985 692.31 1483.897 638.929 1535.076 584.447 1613.222 584.447 1635.785 605.91 1685.313 605.91 1729.339 654.338 1729.889 692.31 1634.684 764.401 1634.684 875.015 1653.395 889.874 1772.264 889.874 1797.028 905.833 1889.482 905.833 1914.246 922.893 1994.592 922.893 2021.008 904.732 2051.825 904.732 2121.166 850.801 2147.031 802.373 2183.352 778.71 2252.141 778.71 2272.503 763.301 2274.704 707.168 2233.431 651.586 2228.478 555.831 2187.754 511.255 2187.754 494.195 2222.975 473.283 2242.236 481.538 2283.51 459.525 2283.51 434.21 2319.28 410.546 2394.674 410.546 2412.284 434.21 2412.284 458.424 2428.243 480.437 2515.744 480.437 2536.106 467.229 2585.084 467.229 2609.848 450.72 2679.189 450.72 2692.946 438.062 2696.799 370.924 2722.664 353.313 2735.871 255.907 2758.985 234.995 2775.494 235.545 2775.494 980.676 230.822 976.274"/><polygon class="cls-1" points="1936.259 637.278 1947.265 711.02 1967.076 733.583 1997.344 717.074 1997.344 594.903 1962.674 553.629 1848.208 553.629 1823.443 584.997 1849.308 616.366 1913.696 619.117 1936.259 637.278"/><polygon class="cls-1" points="1928.554 368.722 1957.721 343.408 2055.678 347.81 2094.75 374.776 2098.052 413.848 2116.213 436.411 2158.587 436.962 2158.587 424.304 2204.814 398.99 2228.478 400.09 2256.544 383.031 2258.745 361.568 2283.51 346.71 2276.355 287.275 2230.679 246.552 2162.439 246.552 2116.763 189.318 2022.108 189.318 1957.171 243.8 1946.164 286.175 1911.494 315.341 1902.689 344.508 1928.554 368.722"/></svg>