<?xml version="1.0" encoding="UTF-8"?><svg id="a" xmlns="http://www.w3.org/2000/svg" viewBox="0 0 4919.9367 2558.9045"><defs><style>.c{fill:#142a3a;}</style></defs><g id="b"><path class="c" d="M1313.7972,2264.9563s257.7325-155.8608,274.0127-155.8608,97.4522,53.8778,97.4522,53.8778c0,0,105.9363,82.7409,125.1975,101.983,19.2611,19.2421,94.9299,46.181,94.9299,46.181l140.3312-23.0905s121.0701-138.5429,163.7197-138.5429,144.4586,23.0905,158.2166,30.7873c13.758,7.6968,171.9745,112.1385,176.1019,116.6818,4.1274,4.5433,170.5987-170.5596,188.4841-162.8628s145.3758,29.9856,170.5987,38.4841c25.2229,8.4986,153.1207,88.4021,161.8597,95.1925,8.739,6.7904,88.5352,89.5313,88.5352,89.5313l-9.6306,121.8665H1287.8864l-130.9299-14.1109,156.8408-200.1175Z"/></g></svg>