<?xml version="1.0" encoding="UTF-8"?><svg id="a" xmlns="http://www.w3.org/2000/svg" xmlns:xlink="http://www.w3.org/1999/xlink" viewBox="0 0 2386.191 1080"><defs><style>.e{opacity:.04;}.f{fill:#0b1923;}.g{fill:url(#d);}.h{fill:none;}.i{fill:#142a3a;}</style><pattern id="d" x="0" y="0" width="76.197" height="78.172" patternTransform="translate(0 1080)" patternUnits="userSpaceOnUse" viewBox="0 0 76.197 78.172"><g><rect class="h" y="0" width="76.197" height="78.172"/><circle class="f" cx="4.452" cy="46.099" r="4.452"/><ellipse class="f" cx="33.376" cy="6.879" rx="8.484" ry="6.879"/><circle class="f" cx="58.599" cy="56.197" r="8.255"/><ellipse class="f" cx="45.987" cy="39.688" rx="2.522" ry="3.917"/><circle class="f" cx="24.213" cy="46.099" r="6.411"/><circle class="f" cx="17.22" cy="25.376" r="6.994"/><ellipse class="f" cx="65.936" cy="31.825" rx="4.127" ry="1.596"/><ellipse class="f" cx="39.567" cy="64.013" rx="5.045" ry="2.064"/><ellipse class="f" cx="36.127" cy="25.376" rx="5.503" ry="3.793"/><circle class="f" cx="70.064" cy="6.134" r="6.134"/><circle class="f" cx="56.764" cy="17.197" r="3.439"/><circle class="f" cx="17.803" cy="67.452" r="10.72"/></g></pattern></defs><g id="b"><path class="i" d="M156.025,783.402s257.732-155.861,274.013-155.861,97.452,53.878,97.452,53.878c0,0,105.936,82.741,125.197,101.983,19.261,19.242,94.93,46.181,94.93,46.181l140.331-23.09s121.07-138.543,163.72-138.543,144.459,23.09,158.217,30.787c13.758,7.697,171.975,112.139,176.102,116.682,4.127,4.543,170.599-170.56,188.484-162.863s145.376,29.986,170.599,38.484c25.223,8.499,153.121,88.402,161.86,95.193,8.739,6.79,88.535,89.531,88.535,89.531l-9.631,121.866H130.115L-.815,983.52l156.841-200.118Z"/><g id="c" class="e"><path class="g" d="M156.025,783.402s257.732-155.861,274.013-155.861,97.452,53.878,97.452,53.878c0,0,105.936,82.741,125.197,101.983,19.261,19.242,94.93,46.181,94.93,46.181l140.331-23.09s121.07-138.543,163.72-138.543,144.459,23.09,158.217,30.787c13.758,7.697,171.975,112.139,176.102,116.682,4.127,4.543,170.599-170.56,188.484-162.863s145.376,29.986,170.599,38.484c25.223,8.499,153.121,88.402,161.86,95.193,8.739,6.79,88.535,89.531,88.535,89.531l-9.631,121.866H130.115L-.815,983.52l156.841-200.118Z"/></g></g></svg>