<?xml version="1.0" encoding="UTF-8"?><svg id="a" xmlns="http://www.w3.org/2000/svg" viewBox="0 0 4919.9367 2558.9045"><defs><style>.b{fill:#cad8dd;}</style></defs><g><polygon class="b" points="1897.4311 1542.7422 1897.7854 1543.46 1898.5776 1543.5751 1898.0044 1544.1339 1898.1397 1544.9229 1897.4311 1544.5504 1896.7226 1544.9229 1896.8579 1544.1339 1896.2847 1543.5751 1897.0768 1543.46 1897.4311 1542.7422"/><polygon class="b" points="2273.7889 1622.6155 2272.5482 1622.065 2271.3914 1622.7749 2271.5316 1621.4249 2270.4989 1620.5441 2271.8262 1620.2602 2272.3447 1619.0059 2273.0249 1620.1804 2274.3781 1620.286 2273.4711 1621.2959 2273.7889 1622.6155"/><polygon class="b" points="2205.8318 1532.6063 2205.0132 1533.1072 2204.9617 1534.0656 2204.2323 1533.4418 2203.305 1533.689 2203.6728 1532.8025 2203.1511 1531.9969 2204.1079 1532.0729 2204.7128 1531.3278 2204.9363 1532.2612 2205.8318 1532.6063"/><polygon class="b" points="1687.1065 1572.4459 1687.6711 1571.9671 1687.5967 1571.2305 1688.2266 1571.6195 1688.9041 1571.3211 1688.7288 1572.0404 1689.2219 1572.5925 1688.4837 1572.6481 1688.111 1573.2877 1687.83 1572.6028 1687.1065 1572.4459"/><polygon class="b" points="1922.2354 1609.0595 1921.1941 1608.9129 1920.483 1609.6876 1920.3007 1608.652 1919.3441 1608.2151 1920.2727 1607.7216 1920.3926 1606.6769 1921.1489 1607.4075 1922.1796 1607.1987 1921.7184 1608.1438 1922.2354 1609.0595"/><polygon class="b" points="2174.9231 1588.1931 2175.9361 1587.6932 2176.0985 1586.5753 2176.887 1587.3842 2178.0003 1587.1933 2177.4747 1588.1931 2178.0003 1589.193 2176.887 1589.002 2176.0985 1589.8109 2175.9361 1588.693 2174.9231 1588.1931"/><polygon class="b" points="1834.1241 1505.596 1833.6674 1505.028 1832.9406 1505.0821 1833.3397 1504.4723 1833.0636 1503.7978 1833.767 1503.9889 1834.3231 1503.5179 1834.3587 1504.2459 1834.9785 1504.6293 1834.2972 1504.888 1834.1241 1505.596"/><polygon class="b" points="2359.8151 1521.0878 2359.3397 1520.1244 2358.2765 1519.9699 2359.0458 1519.22 2358.8642 1518.1612 2359.8151 1518.6611 2360.766 1518.1612 2360.5844 1519.22 2361.3537 1519.9699 2360.2906 1520.1244 2359.8151 1521.0878"/><polygon class="b" points="2388.6862 1584.5181 2387.5386 1583.9598 2386.428 1584.5886 2386.6044 1583.3246 2385.6631 1582.4627 2386.9198 1582.2399 2387.4486 1581.0783 2388.0489 1582.2046 2389.317 1582.3486 2388.4313 1583.2676 2388.6862 1584.5181"/><polygon class="b" points="2009.7568 1587.798 2010.8477 1587.2596 2011.0226 1586.0558 2011.8717 1586.9269 2013.0707 1586.7212 2012.5046 1587.798 2013.0707 1588.8747 2011.8717 1588.6691 2011.0226 1589.5402 2010.8477 1588.3364 2009.7568 1587.798"/><polygon class="b" points="2156.0458 1523.399 2156.8546 1522.6122 2156.6651 1521.4998 2157.6633 1522.026 2158.6627 1521.5019 2158.4707 1522.6139 2159.2779 1523.4024 2158.1611 1523.5635 2157.6606 1524.5748 2157.1623 1523.5624 2156.0458 1523.399"/><polygon class="b" points="2003.3014 1665.851 2004.561 1666.3921 2005.7208 1665.6612 2005.5955 1667.0264 2006.649 1667.9036 2005.3119 1668.2062 2004.8031 1669.4793 2004.1021 1668.3011 2002.7342 1668.2107 2003.6381 1667.1799 2003.3014 1665.851"/><polygon class="b" points="1980.1372 1546.6745 1979.3292 1546.6081 1978.8165 1547.236 1978.63 1546.4471 1977.8743 1546.1534 1978.567 1545.7323 1978.6128 1544.9229 1979.2274 1545.4515 1980.0113 1545.2449 1979.6984 1545.9928 1980.1372 1546.6745"/><polygon class="b" points="2109.4458 1623.9549 2110.2524 1622.3779 2109.4106 1620.8193 2111.1597 1621.0992 2112.3819 1619.817 2112.6562 1621.5669 2114.2533 1622.333 2112.6738 1623.1347 2112.4387 1624.8904 2111.1882 1623.6359 2109.4458 1623.9549"/><polygon class="b" points="2024.7323 1534.0656 2025.1149 1535.2333 2026.2937 1535.5802 2025.3013 1536.3049 2025.3357 1537.5333 2024.3398 1536.8134 2023.1822 1537.2256 2023.5591 1536.056 2022.8093 1535.0825 2024.0381 1535.0795 2024.7323 1534.0656"/><polygon class="b" points="2300.0949 1660.3072 2298.7773 1659.6009 2297.4485 1660.2858 2297.7131 1658.8145 2296.6511 1657.7624 2298.1322 1657.5594 2298.8046 1656.2242 2299.4554 1657.5701 2300.933 1657.797 2299.8541 1658.8318 2300.0949 1660.3072"/><polygon class="b" points="1951.6097 1711.2038 1951.3158 1710.6082 1950.6584 1710.5127 1951.1341 1710.049 1951.0218 1709.3943 1951.6097 1709.7034 1952.1977 1709.3943 1952.0854 1710.049 1952.5611 1710.5127 1951.9037 1710.6082 1951.6097 1711.2038"/><polygon class="b" points="1742.3015 1517.7491 1743.168 1517.3215 1743.3069 1516.3652 1743.9814 1517.0572 1744.9338 1516.8938 1744.4841 1517.7491 1744.9338 1518.6044 1743.9814 1518.4411 1743.3069 1519.133 1743.168 1518.1768 1742.3015 1517.7491"/><polygon class="b" points="1809.6165 1563.3932 1808.7449 1564.2413 1808.9494 1565.4401 1807.8735 1564.8732 1806.7965 1565.4382 1807.0032 1564.2397 1806.1331 1563.3901 1807.3367 1563.2163 1807.8759 1562.1262 1808.4132 1563.2172 1809.6165 1563.3932"/><polygon class="b" points="2186.5695 1672.2168 2186.3003 1671.6714 2185.6984 1671.5839 2186.134 1671.1593 2186.0312 1670.5599 2186.5695 1670.8429 2187.1079 1670.5599 2187.0051 1671.1593 2187.4406 1671.5839 2186.8387 1671.6714 2186.5695 1672.2168"/><polygon class="b" points="2088.1442 1709.9689 2087.371 1709.9025 2086.878 1710.5017 2086.7022 1709.7459 2085.9799 1709.4622 2086.6445 1709.0615 2086.6911 1708.2869 2087.2776 1708.795 2088.0287 1708.6 2087.7266 1709.3148 2088.1442 1709.9689"/><polygon class="b" points="2266.5799 1520.1142 2267.5411 1519.1402 2267.2836 1517.7962 2268.507 1518.4093 2269.7057 1517.7491 2269.5006 1519.1021 2270.4989 1520.0381 2269.1487 1520.2612 2268.567 1521.4998 2267.9377 1520.2847 2266.5799 1520.1142"/><polygon class="b" points="2355.127 1653.6479 2353.9667 1654.6821 2354.1609 1656.2242 2352.8188 1655.4403 2351.4122 1656.1016 2351.743 1654.5829 2350.6794 1653.4495 2352.226 1653.2948 2352.9753 1651.933 2353.6003 1653.3561 2355.127 1653.6479"/><polygon class="b" points="2150.8964 1622.4862 2151.7563 1621.9198 2151.7771 1620.8904 2152.5815 1621.5331 2153.567 1621.2349 2153.2043 1622.1985 2153.7925 1623.0436 2152.7639 1622.9964 2152.142 1623.817 2151.869 1622.8242 2150.8964 1622.4862"/><polygon class="b" points="2055.5947 1611.8981 2054.0818 1611.5611 2052.9466 1612.6163 2052.7996 1611.0734 2051.4453 1610.3198 2052.8672 1609.7032 2053.1655 1608.1823 2054.1913 1609.3441 2055.7299 1609.1577 2054.9419 1610.4924 2055.5947 1611.8981"/><polygon class="b" points="2458.3954 1608.1823 2458.871 1607.9475 2458.9473 1607.4227 2459.3175 1607.8025 2459.8402 1607.7128 2459.5934 1608.1823 2459.8402 1608.6517 2459.3175 1608.5621 2458.9473 1608.9419 2458.871 1608.417 2458.3954 1608.1823"/><polygon class="b" points="2140.5358 1667.4798 2139.873 1667.9038 2139.8466 1668.6902 2139.2385 1668.1909 2138.4824 1668.4087 2138.7694 1667.6761 2138.3286 1667.0243 2139.114 1667.0709 2139.5977 1666.4502 2139.7961 1667.2116 2140.5358 1667.4798"/><polygon class="b" points="2231.1647 1718.0204 2230.5949 1717.7202 2230.0246 1718.0194 2230.1341 1717.3848 2229.6733 1716.9348 2230.3107 1716.8428 2230.5963 1716.2656 2230.8807 1716.8433 2231.518 1716.9365 2231.0564 1717.3856 2231.1647 1718.0204"/><polygon class="b" points="2510.0573 1521.5643 2510.9838 1520.6226 2510.7332 1519.3256 2511.9151 1519.9157 2513.0712 1519.2766 2512.8752 1520.583 2513.8403 1521.485 2512.5373 1521.7023 2511.9776 1522.8989 2511.3683 1521.7269 2510.0573 1521.5643"/><polygon class="b" points="2063.1765 1502.5778 2062.0488 1502.5849 2061.4154 1503.5179 2061.0602 1502.4477 2059.9771 1502.1336 2060.8852 1501.465 2060.8493 1500.3379 2061.7657 1500.9949 2062.8266 1500.6124 2062.4849 1501.6871 2063.1765 1502.5778"/><polygon class="b" points="2343.2669 1585.1478 2344.1504 1584.2029 2343.873 1582.9395 2345.0446 1583.4878 2346.1605 1582.8335 2346.0011 1584.1172 2346.9682 1584.9762 2345.698 1585.2213 2345.1799 1586.4066 2344.5543 1585.2743 2343.2669 1585.1478"/><polygon class="b" points="2202.7533 1632.2684 2203.0618 1631.7155 2202.7812 1631.1479 2203.4024 1631.2705 2203.8555 1630.8282 2203.9309 1631.4569 2204.4915 1631.7512 2203.9169 1632.0171 2203.8103 1632.6412 2203.3798 1632.177 2202.7533 1632.2684"/><polygon class="b" points="2255.6201 1561.2599 2254.4822 1561.2145 2253.7997 1562.1262 2253.4912 1561.03 2252.4133 1560.6626 2253.3605 1560.0305 2253.3768 1558.8918 2254.2707 1559.5973 2255.3587 1559.2609 2254.9639 1560.3291 2255.6201 1561.2599"/><polygon class="b" points="2068.1129 1535.7994 2068.3605 1536.3012 2068.9143 1536.3817 2068.5136 1536.7723 2068.6082 1537.3239 2068.1129 1537.0635 2067.6175 1537.3239 2067.7121 1536.7723 2067.3114 1536.3817 2067.8652 1536.3012 2068.1129 1535.7994"/><polygon class="b" points="2126.5026 1587.029 2125.5212 1587.0038 2124.944 1587.798 2124.6647 1586.8568 2123.7311 1586.5534 2124.5398 1585.9969 2124.5399 1585.0151 2125.3191 1585.6124 2126.2528 1585.3091 2125.9256 1586.2347 2126.5026 1587.029"/></g><g><polygon class="b" points="2807.609 1537.0053 2807.9633 1537.7232 2808.7555 1537.8383 2808.1823 1538.3971 2808.3176 1539.186 2807.609 1538.8135 2806.9005 1539.186 2807.0358 1538.3971 2806.4626 1537.8383 2807.2547 1537.7232 2807.609 1537.0053"/><polygon class="b" points="3183.9668 1616.8786 3182.7261 1616.3281 3181.5693 1617.0381 3181.7095 1615.6881 3180.6768 1614.8073 3182.0041 1614.5234 3182.5226 1613.269 3183.2028 1614.4436 3184.556 1614.5492 3183.6491 1615.559 3183.9668 1616.8786"/><polygon class="b" points="3116.0097 1526.8694 3115.1911 1527.3704 3115.1396 1528.3287 3114.4102 1527.7049 3113.4829 1527.9522 3113.8507 1527.0657 3113.329 1526.2601 3114.2858 1526.3361 3114.8907 1525.591 3115.1142 1526.5243 3116.0097 1526.8694"/><polygon class="b" points="2597.2844 1566.7091 2597.849 1566.2303 2597.7746 1565.4937 2598.4045 1565.8827 2599.082 1565.5843 2598.9067 1566.3035 2599.3998 1566.8557 2598.6616 1566.9113 2598.2889 1567.5509 2598.0079 1566.866 2597.2844 1566.7091"/><polygon class="b" points="2832.4133 1603.3226 2831.372 1603.1761 2830.6609 1603.9508 2830.4786 1602.9151 2829.522 1602.4783 2830.4506 1601.9848 2830.5705 1600.9401 2831.3268 1601.6707 2832.3575 1601.4619 2831.8963 1602.407 2832.4133 1603.3226"/><polygon class="b" points="3085.101 1582.4563 3086.114 1581.9564 3086.2764 1580.8385 3087.0649 1581.6474 3088.1782 1581.4564 3087.6526 1582.4563 3088.1782 1583.4561 3087.0649 1583.2652 3086.2764 1584.0741 3086.114 1582.9562 3085.101 1582.4563"/><polygon class="b" points="2744.302 1499.8592 2743.8453 1499.2911 2743.1185 1499.3453 2743.5176 1498.7355 2743.2415 1498.061 2743.9449 1498.2521 2744.501 1497.7811 2744.5366 1498.509 2745.1564 1498.8924 2744.4751 1499.1512 2744.302 1499.8592"/><polygon class="b" points="3269.993 1515.3509 3269.5176 1514.3876 3268.4544 1514.2331 3269.2237 1513.4832 3269.0421 1512.4244 3269.993 1512.9243 3270.9439 1512.4244 3270.7623 1513.4832 3271.5316 1514.2331 3270.4685 1514.3876 3269.993 1515.3509"/><polygon class="b" points="3298.8641 1578.7813 3297.7165 1578.2229 3296.6059 1578.8518 3296.7823 1577.5878 3295.841 1576.7259 3297.0977 1576.503 3297.6265 1575.3415 3298.2268 1576.4678 3299.4949 1576.6118 3298.6092 1577.5307 3298.8641 1578.7813"/><polygon class="b" points="2919.9347 1582.0612 2921.0256 1581.5228 2921.2005 1580.3189 2922.0496 1581.19 2923.2486 1580.9844 2922.6825 1582.0612 2923.2486 1583.1379 2922.0496 1582.9323 2921.2005 1583.8034 2921.0256 1582.5995 2919.9347 1582.0612"/><polygon class="b" points="3066.2237 1517.6622 3067.0325 1516.8754 3066.843 1515.763 3067.8412 1516.2891 3068.8406 1515.7651 3068.6486 1516.8771 3069.4558 1517.6656 3068.339 1517.8267 3067.8385 1518.838 3067.3402 1517.8256 3066.2237 1517.6622"/><polygon class="b" points="2913.4793 1660.1141 2914.7389 1660.6553 2915.8987 1659.9244 2915.7734 1661.2896 2916.8269 1662.1668 2915.4898 1662.4694 2914.981 1663.7425 2914.28 1662.5643 2912.9121 1662.4739 2913.816 1661.4431 2913.4793 1660.1141"/><polygon class="b" points="2890.3151 1540.9377 2889.5071 1540.8712 2888.9944 1541.4992 2888.8079 1540.7102 2888.0522 1540.4166 2888.7449 1539.9954 2888.7907 1539.186 2889.4053 1539.7147 2890.1892 1539.5081 2889.8764 1540.256 2890.3151 1540.9377"/><polygon class="b" points="3019.6237 1618.2181 3020.4303 1616.641 3019.5885 1615.0825 3021.3376 1615.3624 3022.5598 1614.0801 3022.8341 1615.8301 3024.4312 1616.5962 3022.8517 1617.3979 3022.6166 1619.1536 3021.3661 1617.8991 3019.6237 1618.2181"/><polygon class="b" points="2934.9102 1528.3287 2935.2928 1529.4965 2936.4716 1529.8434 2935.4792 1530.5681 2935.5136 1531.7964 2934.5177 1531.0765 2933.3601 1531.4888 2933.737 1530.3192 2932.9872 1529.3456 2934.216 1529.3427 2934.9102 1528.3287"/><polygon class="b" points="3210.2728 1654.5704 3208.9552 1653.8641 3207.6264 1654.549 3207.891 1653.0777 3206.829 1652.0256 3208.3101 1651.8226 3208.9825 1650.4874 3209.6333 1651.8332 3211.1109 1652.0601 3210.032 1653.095 3210.2728 1654.5704"/><polygon class="b" points="2861.7876 1705.467 2861.4937 1704.8713 2860.8363 1704.7758 2861.312 1704.3122 2861.1997 1703.6575 2861.7876 1703.9666 2862.3756 1703.6575 2862.2633 1704.3122 2862.739 1704.7758 2862.0816 1704.8713 2861.7876 1705.467"/><polygon class="b" points="2652.4794 1512.0123 2653.3459 1511.5847 2653.4848 1510.6284 2654.1593 1511.3204 2655.1117 1511.157 2654.662 1512.0123 2655.1117 1512.8676 2654.1593 1512.7043 2653.4848 1513.3962 2653.3459 1512.44 2652.4794 1512.0123"/><polygon class="b" points="2719.7944 1557.6564 2718.9228 1558.5045 2719.1273 1559.7033 2718.0514 1559.1364 2716.9744 1559.7013 2717.1811 1558.5029 2716.311 1557.6532 2717.5146 1557.4794 2718.0538 1556.3894 2718.5911 1557.4804 2719.7944 1557.6564"/><polygon class="b" points="3096.7474 1666.48 3096.4782 1665.9345 3095.8763 1665.8471 3096.3119 1665.4225 3096.2091 1664.823 3096.7474 1665.1061 3097.2858 1664.823 3097.183 1665.4225 3097.6185 1665.8471 3097.0166 1665.9345 3096.7474 1666.48"/><polygon class="b" points="2998.3221 1704.2321 2997.5489 1704.1657 2997.0559 1704.7649 2996.8801 1704.0091 2996.1578 1703.7254 2996.8224 1703.3246 2996.869 1702.55 2997.4555 1703.0582 2998.2066 1702.8632 2997.9045 1703.578 2998.3221 1704.2321"/><polygon class="b" points="3176.7578 1514.3774 3177.719 1513.4034 3177.4615 1512.0593 3178.6849 1512.6725 3179.8836 1512.0123 3179.6785 1513.3653 3180.6768 1514.3013 3179.3266 1514.5243 3178.7449 1515.763 3178.1156 1514.5478 3176.7578 1514.3774"/><polygon class="b" points="3265.3049 1647.9111 3264.1446 1648.9453 3264.3388 1650.4874 3262.9967 1649.7035 3261.5901 1650.3648 3261.9209 1648.8461 3260.8573 1647.7127 3262.4039 1647.5579 3263.1532 1646.1962 3263.7782 1647.6192 3265.3049 1647.9111"/><polygon class="b" points="3061.0743 1616.7494 3061.9342 1616.183 3061.955 1615.1536 3062.7594 1615.7963 3063.7449 1615.4981 3063.3822 1616.4617 3063.9704 1617.3068 3062.9418 1617.2596 3062.3199 1618.0801 3062.0469 1617.0874 3061.0743 1616.7494"/><polygon class="b" points="2965.7726 1606.1613 2964.2597 1605.8243 2963.1245 1606.8795 2962.9775 1605.3366 2961.6232 1604.5829 2963.0451 1603.9664 2963.3434 1602.4454 2964.3692 1603.6073 2965.9078 1603.4209 2965.1198 1604.7555 2965.7726 1606.1613"/><polygon class="b" points="3368.5733 1602.4454 3369.0489 1602.2107 3369.1252 1601.6858 3369.4954 1602.0656 3370.0181 1601.976 3369.7713 1602.4454 3370.0181 1602.9149 3369.4954 1602.8252 3369.1252 1603.205 3369.0489 1602.6802 3368.5733 1602.4454"/><polygon class="b" points="3050.7137 1661.743 3050.0509 1662.167 3050.0245 1662.9534 3049.4164 1662.4541 3048.6603 1662.6719 3048.9473 1661.9393 3048.5065 1661.2875 3049.2919 1661.3341 3049.7756 1660.7134 3049.974 1661.4748 3050.7137 1661.743"/><polygon class="b" points="3141.3426 1712.2836 3140.7728 1711.9834 3140.2025 1712.2826 3140.312 1711.6479 3139.8512 1711.198 3140.4886 1711.106 3140.7742 1710.5287 3141.0586 1711.1065 3141.6959 1711.1997 3141.2343 1711.6488 3141.3426 1712.2836"/><polygon class="b" points="3420.2352 1515.8275 3421.1617 1514.8858 3420.9111 1513.5888 3422.093 1514.1789 3423.2491 1513.5398 3423.0531 1514.8462 3424.0182 1515.7482 3422.7152 1515.9655 3422.1555 1517.1621 3421.5462 1515.99 3420.2352 1515.8275"/><polygon class="b" points="2973.3544 1496.841 2972.2267 1496.8481 2971.5933 1497.7811 2971.2381 1496.7108 2970.155 1496.3967 2971.0631 1495.7282 2971.0272 1494.6011 2971.9436 1495.2581 2973.0045 1494.8756 2972.6628 1495.9503 2973.3544 1496.841"/><polygon class="b" points="3253.4448 1579.4109 3254.3283 1578.4661 3254.0509 1577.2027 3255.2225 1577.7509 3256.3384 1577.0966 3256.179 1578.3803 3257.1461 1579.2394 3255.8759 1579.4845 3255.3578 1580.6697 3254.7322 1579.5375 3253.4448 1579.4109"/><polygon class="b" points="3112.9312 1626.5316 3113.2397 1625.9787 3112.9591 1625.4111 3113.5803 1625.5336 3114.0334 1625.0914 3114.1088 1625.7201 3114.6694 1626.0143 3114.0948 1626.2803 3113.9882 1626.9044 3113.5577 1626.4401 3112.9312 1626.5316"/><polygon class="b" points="3165.798 1555.5231 3164.6601 1555.4777 3163.9776 1556.3894 3163.6691 1555.2931 3162.5912 1554.9258 3163.5384 1554.2936 3163.5547 1553.1549 3164.4486 1553.8605 3165.5366 1553.5241 3165.1418 1554.5923 3165.798 1555.5231"/><polygon class="b" points="2978.2908 1530.0626 2978.5384 1530.5644 2979.0922 1530.6449 2978.6915 1531.0355 2978.7861 1531.5871 2978.2908 1531.3267 2977.7954 1531.5871 2977.89 1531.0355 2977.4893 1530.6449 2978.0431 1530.5644 2978.2908 1530.0626"/><polygon class="b" points="3036.6805 1581.2922 3035.6991 1581.267 3035.1219 1582.0612 3034.8426 1581.12 3033.909 1580.8165 3034.7177 1580.2601 3034.7178 1579.2783 3035.497 1579.8756 3036.4307 1579.5723 3036.1035 1580.4979 3036.6805 1581.2922"/></g><g><polygon class="b" points="3408.0066 1552.5689 3408.3609 1553.2867 3409.1531 1553.4018 3408.5799 1553.9606 3408.7152 1554.7496 3408.0066 1554.3771 3407.2981 1554.7496 3407.4334 1553.9606 3406.8601 1553.4018 3407.6523 1553.2867 3408.0066 1552.5689"/><polygon class="b" points="3639.839 1597.5103 3638.5984 1596.9599 3637.4416 1597.6698 3637.5817 1596.3198 3636.549 1595.439 3637.8763 1595.1551 3638.3949 1593.9008 3639.0751 1595.0753 3640.4282 1595.1809 3639.5213 1596.1908 3639.839 1597.5103"/><polygon class="b" points="3571.882 1507.5012 3571.0633 1508.0021 3571.0119 1508.9604 3570.2825 1508.3367 3569.3551 1508.5839 3569.723 1507.6974 3569.2013 1506.8918 3570.158 1506.9678 3570.763 1506.2227 3570.9864 1507.1561 3571.882 1507.5012"/><polygon class="b" points="3197.682 1582.2726 3198.2466 1581.7938 3198.1722 1581.0572 3198.8021 1581.4462 3199.4796 1581.1478 3199.3043 1581.8671 3199.7974 1582.4192 3199.0592 1582.4748 3198.6865 1583.1144 3198.4055 1582.4295 3197.682 1582.2726"/><polygon class="b" points="3432.8109 1618.8862 3431.7696 1618.7396 3431.0585 1619.5143 3430.8762 1618.4787 3429.9196 1618.0418 3430.8482 1617.5483 3430.9681 1616.5036 3431.7244 1617.2342 3432.7551 1617.0254 3432.2939 1617.9705 3432.8109 1618.8862"/><polygon class="b" points="3540.9733 1563.088 3541.9862 1562.5881 3542.1487 1561.4702 3542.9371 1562.2791 3544.0505 1562.0882 3543.5248 1563.088 3544.0505 1564.0878 3542.9371 1563.8969 3542.1487 1564.7058 3541.9862 1563.5879 3540.9733 1563.088"/><polygon class="b" points="3344.6996 1515.4227 3344.2429 1514.8547 3343.5161 1514.9088 3343.9152 1514.299 3343.6391 1513.6245 3344.3424 1513.8156 3344.8986 1513.3446 3344.9342 1514.0726 3345.554 1514.4559 3344.8727 1514.7147 3344.6996 1515.4227"/><polygon class="b" points="3375.807 1562.6929 3376.8979 1562.1545 3377.0728 1560.9507 3377.9219 1561.8218 3379.1209 1561.6161 3378.5548 1562.6929 3379.1209 1563.7696 3377.9219 1563.564 3377.0728 1564.4351 3376.8979 1563.2312 3375.807 1562.6929"/><polygon class="b" points="3522.0959 1498.2939 3522.9048 1497.5071 3522.7152 1496.3947 3523.7135 1496.9209 3524.7128 1496.3968 3524.5209 1497.5088 3525.3281 1498.2973 3524.2112 1498.4584 3523.7108 1499.4697 3523.2124 1498.4573 3522.0959 1498.2939"/><polygon class="b" points="3369.3515 1640.7459 3370.6111 1641.287 3371.771 1640.5561 3371.6456 1641.9213 3372.6992 1642.7985 3371.362 1643.1011 3370.8533 1644.3742 3370.1523 1643.196 3368.7843 1643.1056 3369.6882 1642.0748 3369.3515 1640.7459"/><polygon class="b" points="3346.1874 1521.5694 3345.3794 1521.503 3344.8666 1522.1309 3344.6801 1521.342 3343.9245 1521.0483 3344.6172 1520.6272 3344.6629 1519.8178 3345.2775 1520.3464 3346.0615 1520.1398 3345.7486 1520.8877 3346.1874 1521.5694"/><polygon class="b" points="3475.4959 1598.8498 3476.3026 1597.2728 3475.4608 1595.7142 3477.2099 1595.9941 3478.432 1594.7118 3478.7064 1596.4618 3480.3035 1597.2279 3478.724 1598.0296 3478.4889 1599.7853 3477.2383 1598.5308 3475.4959 1598.8498"/><polygon class="b" points="3390.7825 1508.9604 3391.165 1510.1282 3392.3439 1510.4751 3391.3515 1511.1998 3391.3858 1512.4282 3390.39 1511.7083 3389.2323 1512.1205 3389.6093 1510.9509 3388.8595 1509.9774 3390.0883 1509.9744 3390.7825 1508.9604"/><polygon class="b" points="3317.6599 1686.0987 3317.3659 1685.5031 3316.7086 1685.4075 3317.1842 1684.9439 3317.072 1684.2892 3317.6599 1684.5983 3318.2479 1684.2892 3318.1356 1684.9439 3318.6112 1685.4075 3317.9539 1685.5031 3317.6599 1686.0987"/><polygon class="b" points="3252.877 1527.5758 3253.7435 1527.1482 3253.8824 1526.1919 3254.5569 1526.8839 3255.5093 1526.7205 3255.0596 1527.5758 3255.5093 1528.4311 3254.5569 1528.2678 3253.8824 1528.9597 3253.7435 1528.0035 3252.877 1527.5758"/><polygon class="b" points="3320.192 1573.2199 3319.3204 1574.068 3319.5249 1575.2668 3318.449 1574.6999 3317.372 1575.2649 3317.5787 1574.0664 3316.7086 1573.2168 3317.9122 1573.043 3318.4514 1571.9529 3318.9887 1573.0439 3320.192 1573.2199"/><polygon class="b" points="3552.6197 1647.1117 3552.3505 1646.5663 3551.7486 1646.4788 3552.1841 1646.0542 3552.0813 1645.4547 3552.6197 1645.7378 3553.1581 1645.4547 3553.0553 1646.0542 3553.4908 1646.4788 3552.8889 1646.5663 3552.6197 1647.1117"/><polygon class="b" points="3454.1943 1684.8638 3453.4212 1684.7974 3452.9281 1685.3966 3452.7524 1684.6408 3452.0301 1684.3571 3452.6946 1683.9564 3452.7413 1683.1817 3453.3277 1683.6899 3454.0788 1683.4949 3453.7767 1684.2097 3454.1943 1684.8638"/><polygon class="b" points="3632.6301 1495.0091 3633.5913 1494.0351 3633.3338 1492.6911 3634.5572 1493.3042 3635.7559 1492.644 3635.5508 1493.997 3636.549 1494.933 3635.1989 1495.156 3634.6172 1496.3947 3633.9879 1495.1796 3632.6301 1495.0091"/><polygon class="b" points="3516.9466 1597.3811 3517.8064 1596.8147 3517.8273 1595.7853 3518.6317 1596.428 3519.6172 1596.1298 3519.2545 1597.0934 3519.8427 1597.9385 3518.8141 1597.8913 3518.1921 1598.7119 3517.9192 1597.7191 3516.9466 1597.3811"/><polygon class="b" points="3421.6448 1586.793 3420.132 1586.456 3418.9968 1587.5112 3418.8498 1585.9683 3417.4954 1585.2147 3418.9174 1584.5981 3419.2156 1583.0771 3420.2414 1584.239 3421.7801 1584.0526 3420.9921 1585.3873 3421.6448 1586.793"/><polygon class="b" points="3506.586 1642.3747 3505.9232 1642.7987 3505.8967 1643.5851 3505.2886 1643.0858 3504.5326 1643.3036 3504.8196 1642.571 3504.3787 1641.9192 3505.1642 1641.9658 3505.6478 1641.3451 3505.8463 1642.1065 3506.586 1642.3747"/><polygon class="b" points="3597.2148 1692.9153 3596.6451 1692.6151 3596.0748 1692.9143 3596.1842 1692.2797 3595.7235 1691.8297 3596.3609 1691.7377 3596.6464 1691.1605 3596.9309 1691.7382 3597.5681 1691.8314 3597.1066 1692.2805 3597.2148 1692.9153"/><polygon class="b" points="3429.2266 1477.4727 3428.099 1477.4798 3427.4656 1478.4128 3427.1103 1477.3426 3426.0273 1477.0285 3426.9354 1476.3599 3426.8994 1475.2328 3427.8159 1475.8898 3428.8767 1475.5073 3428.535 1476.582 3429.2266 1477.4727"/><polygon class="b" points="3568.8034 1607.1633 3569.1119 1606.6104 3568.8314 1606.0428 3569.4525 1606.1654 3569.9057 1605.7231 3569.9811 1606.3518 3570.5416 1606.6461 3569.9671 1606.912 3569.8604 1607.5361 3569.4299 1607.0718 3568.8034 1607.1633"/><polygon class="b" points="3621.6702 1536.1548 3620.5323 1536.1094 3619.8498 1537.0211 3619.5414 1535.9249 3618.4634 1535.5575 3619.4107 1534.9254 3619.427 1533.7867 3620.3209 1534.4922 3621.4089 1534.1558 3621.0141 1535.224 3621.6702 1536.1548"/><polygon class="b" points="3434.163 1510.6943 3434.4107 1511.1961 3434.9645 1511.2766 3434.5638 1511.6672 3434.6584 1512.2188 3434.163 1511.9584 3433.6677 1512.2188 3433.7623 1511.6672 3433.3616 1511.2766 3433.9154 1511.1961 3434.163 1510.6943"/><polygon class="b" points="3492.5527 1561.9239 3491.5713 1561.8987 3490.9942 1562.6929 3490.7149 1561.7517 3489.7812 1561.4483 3490.59 1560.8918 3490.5901 1559.91 3491.3693 1560.5073 3492.303 1560.204 3491.9758 1561.1296 3492.5527 1561.9239"/></g><polygon class="b" points="4630.1774 1529.6345 4631.1038 1528.6928 4630.8533 1527.3958 4632.0352 1527.9859 4633.1913 1527.3468 4632.9953 1528.6532 4633.9604 1529.5552 4632.6574 1529.7725 4632.0977 1530.9691 4631.4884 1529.797 4630.1774 1529.6345"/><g><polygon class="b" points="2336.8272 1540.9856 2337.1815 1541.7035 2337.9737 1541.8186 2337.4004 1542.3774 2337.5358 1543.1664 2336.8272 1542.7939 2336.1186 1543.1664 2336.254 1542.3774 2335.6807 1541.8186 2336.4729 1541.7035 2336.8272 1540.9856"/><polygon class="b" points="2713.185 1620.8589 2711.9443 1620.3085 2710.7875 1621.0184 2710.9276 1619.6684 2709.895 1618.7876 2711.2222 1618.5037 2711.7408 1617.2494 2712.421 1618.4239 2713.7741 1618.5295 2712.8672 1619.5394 2713.185 1620.8589"/><polygon class="b" points="2645.2279 1530.8497 2644.4093 1531.3507 2644.3578 1532.309 2643.6284 1531.6853 2642.701 1531.9325 2643.0689 1531.046 2642.5472 1530.2404 2643.504 1530.3164 2644.1089 1529.5713 2644.3323 1530.5047 2645.2279 1530.8497"/><polygon class="b" points="2126.5026 1570.6894 2127.0672 1570.2106 2126.9927 1569.474 2127.6226 1569.863 2128.3002 1569.5646 2128.1249 1570.2839 2128.618 1570.836 2127.8798 1570.8916 2127.507 1571.5312 2127.2261 1570.8463 2126.5026 1570.6894"/><polygon class="b" points="2361.6315 1607.303 2360.5902 1607.1564 2359.8791 1607.9311 2359.6967 1606.8955 2358.7402 1606.4586 2359.6688 1605.9651 2359.7887 1604.9204 2360.545 1605.651 2361.5756 1605.4422 2361.1145 1606.3873 2361.6315 1607.303"/><polygon class="b" points="2614.3192 1586.4366 2615.3322 1585.9367 2615.4946 1584.8188 2616.2831 1585.6277 2617.3964 1585.4368 2616.8707 1586.4366 2617.3964 1587.4364 2616.2831 1587.2455 2615.4946 1588.0544 2615.3322 1586.9365 2614.3192 1586.4366"/><polygon class="b" points="2273.5202 1503.8395 2273.0635 1503.2714 2272.3367 1503.3256 2272.7358 1502.7158 2272.4597 1502.0413 2273.163 1502.2324 2273.7192 1501.7614 2273.7548 1502.4893 2274.3746 1502.8727 2273.6933 1503.1315 2273.5202 1503.8395"/><polygon class="b" points="2799.2112 1519.3313 2798.7357 1518.3679 2797.6726 1518.2134 2798.4419 1517.4635 2798.2603 1516.4047 2799.2112 1516.9046 2800.1621 1516.4047 2799.9805 1517.4635 2800.7498 1518.2134 2799.6866 1518.3679 2799.2112 1519.3313"/><polygon class="b" points="2828.0823 1582.7616 2826.9346 1582.2032 2825.8241 1582.8321 2826.0005 1581.5681 2825.0592 1580.7062 2826.3158 1580.4833 2826.8447 1579.3218 2827.445 1580.4481 2828.7131 1580.5921 2827.8274 1581.511 2828.0823 1582.7616"/><polygon class="b" points="2449.1529 1586.0415 2450.2438 1585.5031 2450.4187 1584.2993 2451.2678 1585.1704 2452.4668 1584.9647 2451.9007 1586.0415 2452.4668 1587.1182 2451.2678 1586.9126 2450.4187 1587.7837 2450.2438 1586.5798 2449.1529 1586.0415"/><polygon class="b" points="2595.4418 1521.6425 2596.2507 1520.8557 2596.0611 1519.7433 2597.0594 1520.2695 2598.0587 1519.7454 2597.8668 1520.8574 2598.674 1521.6459 2597.5572 1521.807 2597.0567 1522.8183 2596.5584 1521.8059 2595.4418 1521.6425"/><polygon class="b" points="2442.6974 1664.0945 2443.9571 1664.6356 2445.1169 1663.9047 2444.9915 1665.2699 2446.0451 1666.1471 2444.708 1666.4497 2444.1992 1667.7228 2443.4982 1666.5446 2442.1303 1666.4542 2443.0341 1665.4234 2442.6974 1664.0945"/><polygon class="b" points="2419.5333 1544.918 2418.7253 1544.8516 2418.2126 1545.4795 2418.0261 1544.6906 2417.2704 1544.3969 2417.9631 1543.9758 2418.0088 1543.1664 2418.6235 1543.695 2419.4074 1543.4884 2419.0945 1544.2363 2419.5333 1544.918"/><polygon class="b" points="2548.8419 1622.1984 2549.6485 1620.6214 2548.8067 1619.0628 2550.5558 1619.3427 2551.7779 1618.0604 2552.0523 1619.8104 2553.6494 1620.5765 2552.0699 1621.3782 2551.8348 1623.1339 2550.5842 1621.8794 2548.8419 1622.1984"/><polygon class="b" points="2464.1284 1532.309 2464.511 1533.4768 2465.6898 1533.8237 2464.6974 1534.5484 2464.7317 1535.7768 2463.7359 1535.0569 2462.5783 1535.4691 2462.9552 1534.2995 2462.2054 1533.326 2463.4342 1533.323 2464.1284 1532.309"/><polygon class="b" points="2739.491 1658.5507 2738.1734 1657.8444 2736.8446 1658.5293 2737.1092 1657.058 2736.0472 1656.0059 2737.5283 1655.8029 2738.2007 1654.4677 2738.8514 1655.8136 2740.3291 1656.0405 2739.2502 1657.0753 2739.491 1658.5507"/><polygon class="b" points="2391.0058 1709.4473 2390.7119 1708.8517 2390.0545 1708.7561 2390.5302 1708.2925 2390.4179 1707.6378 2391.0058 1707.9469 2391.5938 1707.6378 2391.4815 1708.2925 2391.9572 1708.7561 2391.2998 1708.8517 2391.0058 1709.4473"/><polygon class="b" points="2181.6976 1515.9926 2182.5641 1515.565 2182.703 1514.6087 2183.3775 1515.3007 2184.3299 1515.1373 2183.8802 1515.9926 2184.3299 1516.8479 2183.3775 1516.6846 2182.703 1517.3765 2182.5641 1516.4203 2181.6976 1515.9926"/><polygon class="b" points="2249.0126 1561.6367 2248.141 1562.4848 2248.3455 1563.6836 2247.2696 1563.1167 2246.1926 1563.6817 2246.3993 1562.4832 2245.5292 1561.6336 2246.7328 1561.4598 2247.272 1560.3697 2247.8093 1561.4607 2249.0126 1561.6367"/><polygon class="b" points="2625.9656 1670.4603 2625.6964 1669.9149 2625.0945 1669.8274 2625.5301 1669.4028 2625.4272 1668.8033 2625.9656 1669.0864 2626.504 1668.8033 2626.4012 1669.4028 2626.8367 1669.8274 2626.2348 1669.9149 2625.9656 1670.4603"/><polygon class="b" points="2527.5402 1708.2124 2526.7671 1708.146 2526.274 1708.7452 2526.0983 1707.9894 2525.376 1707.7057 2526.0405 1707.3049 2526.0872 1706.5303 2526.6736 1707.0385 2527.4247 1706.8435 2527.1227 1707.5583 2527.5402 1708.2124"/><polygon class="b" points="2705.976 1518.3577 2706.9372 1517.3837 2706.6797 1516.0397 2707.9031 1516.6528 2709.1018 1515.9926 2708.8967 1517.3456 2709.895 1518.2816 2708.5448 1518.5046 2707.9631 1519.7433 2707.3338 1518.5282 2705.976 1518.3577"/><polygon class="b" points="2794.523 1651.8914 2793.3628 1652.9256 2793.557 1654.4677 2792.2149 1653.6838 2790.8083 1654.3451 2791.139 1652.8264 2790.0755 1651.693 2791.622 1651.5382 2792.3713 1650.1765 2792.9964 1651.5996 2794.523 1651.8914"/><polygon class="b" points="2590.2925 1620.7297 2591.1523 1620.1633 2591.1732 1619.1339 2591.9776 1619.7766 2592.9631 1619.4784 2592.6004 1620.442 2593.1886 1621.2871 2592.16 1621.2399 2591.5381 1622.0605 2591.2651 1621.0677 2590.2925 1620.7297"/><polygon class="b" points="2494.9907 1610.1416 2493.4779 1609.8046 2492.3427 1610.8598 2492.1957 1609.3169 2490.8413 1608.5633 2492.2633 1607.9467 2492.5615 1606.4257 2493.5874 1607.5876 2495.126 1607.4012 2494.338 1608.7359 2494.9907 1610.1416"/><polygon class="b" points="2897.7915 1606.4257 2898.2671 1606.191 2898.3433 1605.6661 2898.7136 1606.0459 2899.2363 1605.9563 2898.9895 1606.4257 2899.2363 1606.8952 2898.7136 1606.8055 2898.3433 1607.1853 2898.2671 1606.6605 2897.7915 1606.4257"/><polygon class="b" points="2579.9319 1665.7233 2579.2691 1666.1473 2579.2426 1666.9337 2578.6346 1666.4344 2577.8785 1666.6522 2578.1655 1665.9196 2577.7246 1665.2678 2578.5101 1665.3144 2578.9938 1664.6937 2579.1922 1665.4551 2579.9319 1665.7233"/><polygon class="b" points="2670.5608 1716.2639 2669.991 1715.9637 2669.4207 1716.2629 2669.5302 1715.6283 2669.0694 1715.1783 2669.7068 1715.0863 2669.9923 1714.5091 2670.2768 1715.0868 2670.914 1715.18 2670.4525 1715.6291 2670.5608 1716.2639"/><polygon class="b" points="2949.4534 1519.8078 2950.3798 1518.8661 2950.1293 1517.5691 2951.3112 1518.1592 2952.4673 1517.5201 2952.2713 1518.8265 2953.2364 1519.7285 2951.9334 1519.9458 2951.3737 1521.1424 2950.7644 1519.9703 2949.4534 1519.8078"/><polygon class="b" points="2502.5725 1500.8213 2501.4449 1500.8284 2500.8115 1501.7614 2500.4563 1500.6911 2499.3732 1500.3771 2500.2813 1499.7085 2500.2453 1498.5814 2501.1618 1499.2384 2502.2226 1498.8559 2501.881 1499.9306 2502.5725 1500.8213"/><polygon class="b" points="2782.663 1583.3913 2783.5465 1582.4464 2783.2691 1581.183 2784.4407 1581.7313 2785.5566 1581.077 2785.3971 1582.3607 2786.3643 1583.2197 2785.0941 1583.4648 2784.5759 1584.6501 2783.9504 1583.5178 2782.663 1583.3913"/><polygon class="b" points="2642.1493 1630.5119 2642.4578 1629.959 2642.1773 1629.3914 2642.7985 1629.5139 2643.2516 1629.0717 2643.327 1629.7004 2643.8876 1629.9947 2643.313 1630.2606 2643.2063 1630.8847 2642.7758 1630.4204 2642.1493 1630.5119"/><polygon class="b" points="2695.0162 1559.5034 2693.8782 1559.458 2693.1958 1560.3697 2692.8873 1559.2735 2691.8093 1558.9061 2692.7566 1558.274 2692.7729 1557.1353 2693.6668 1557.8408 2694.7548 1557.5044 2694.36 1558.5726 2695.0162 1559.5034"/><polygon class="b" points="2507.5089 1534.0429 2507.7566 1534.5447 2508.3104 1534.6252 2507.9097 1535.0158 2508.0043 1535.5674 2507.5089 1535.307 2507.0136 1535.5674 2507.1082 1535.0158 2506.7075 1534.6252 2507.2613 1534.5447 2507.5089 1534.0429"/><polygon class="b" points="2565.8987 1585.2725 2564.9172 1585.2473 2564.3401 1586.0415 2564.0608 1585.1003 2563.1271 1584.7968 2563.9359 1584.2404 2563.936 1583.2586 2564.7152 1583.8559 2565.6489 1583.5526 2565.3217 1584.4782 2565.8987 1585.2725"/></g><g><polygon class="b" points="1337.0615 1521.5983 1337.4157 1522.3161 1338.2079 1522.4312 1337.6347 1522.99 1337.77 1523.779 1337.0615 1523.4065 1336.3529 1523.779 1336.4882 1522.99 1335.915 1522.4312 1336.7072 1522.3161 1337.0615 1521.5983"/><polygon class="b" points="1713.4192 1601.4716 1712.1786 1600.9211 1711.0217 1601.6311 1711.1619 1600.281 1710.1292 1599.4002 1711.4565 1599.1163 1711.9751 1597.862 1712.6552 1599.0366 1714.0084 1599.1422 1713.1015 1600.152 1713.4192 1601.4716"/><polygon class="b" points="1645.4622 1511.4624 1644.6435 1511.9633 1644.592 1512.9217 1643.8627 1512.2979 1642.9353 1512.5451 1643.3032 1511.6587 1642.7815 1510.8531 1643.7382 1510.929 1644.3432 1510.1839 1644.5666 1511.1173 1645.4622 1511.4624"/><polygon class="b" points="1651.0153 1515.6702 1651.5798 1515.1914 1651.5054 1514.4548 1652.1353 1514.8438 1652.8129 1514.5454 1652.6376 1515.2647 1653.1307 1515.8168 1652.3925 1515.8724 1652.0197 1516.512 1651.7388 1515.8271 1651.0153 1515.6702"/><polygon class="b" points="1361.8658 1587.9156 1360.8245 1587.769 1360.1134 1588.5437 1359.931 1587.5081 1358.9745 1587.0712 1359.903 1586.5777 1360.023 1585.533 1360.7792 1586.2637 1361.8099 1586.0549 1361.3487 1586.9999 1361.8658 1587.9156"/><polygon class="b" points="1614.5535 1567.0492 1615.5664 1566.5493 1615.7288 1565.4315 1616.5173 1566.2404 1617.6306 1566.0494 1617.105 1567.0492 1617.6306 1568.0491 1616.5173 1567.8581 1615.7288 1568.667 1615.5664 1567.5492 1614.5535 1567.0492"/><polygon class="b" points="1273.7544 1484.4521 1273.2978 1483.8841 1272.571 1483.9382 1272.9701 1483.3284 1272.694 1482.6539 1273.3973 1482.845 1273.9535 1482.374 1273.989 1483.102 1274.6088 1483.4854 1273.9275 1483.7441 1273.7544 1484.4521"/><polygon class="b" points="1799.4454 1499.9439 1798.97 1498.9805 1797.9068 1498.826 1798.6761 1498.0762 1798.4945 1497.0173 1799.4454 1497.5172 1800.3963 1497.0173 1800.2147 1498.0762 1800.984 1498.826 1799.9209 1498.9805 1799.4454 1499.9439"/><polygon class="b" points="1828.3165 1563.3742 1827.1689 1562.8159 1826.0583 1563.4447 1826.2347 1562.1807 1825.2934 1561.3188 1826.5501 1561.096 1827.0789 1559.9344 1827.6792 1561.0607 1828.9473 1561.2048 1828.0616 1562.1237 1828.3165 1563.3742"/><polygon class="b" points="1449.3872 1566.6541 1450.478 1566.1157 1450.6529 1564.9119 1451.5021 1565.783 1452.701 1565.5774 1452.135 1566.6541 1452.701 1567.7309 1451.5021 1567.5252 1450.6529 1568.3963 1450.478 1567.1925 1449.3872 1566.6541"/><polygon class="b" points="1595.6761 1502.2551 1596.485 1501.4683 1596.2954 1500.3559 1597.2936 1500.8821 1598.293 1500.358 1598.1011 1501.47 1598.9083 1502.2585 1597.7914 1502.4196 1597.2909 1503.431 1596.7926 1502.4186 1595.6761 1502.2551"/><polygon class="b" points="1442.9317 1644.7071 1444.1913 1645.2482 1445.3512 1644.5173 1445.2258 1645.8825 1446.2793 1646.7597 1444.9422 1647.0624 1444.4335 1648.3354 1443.7325 1647.1573 1442.3645 1647.0668 1443.2684 1646.036 1442.9317 1644.7071"/><polygon class="b" points="1419.7675 1525.5306 1418.9596 1525.4642 1418.4468 1526.0921 1418.2603 1525.3032 1417.5047 1525.0096 1418.1973 1524.5884 1418.2431 1523.779 1418.8577 1524.3076 1419.6416 1524.101 1419.3288 1524.8489 1419.7675 1525.5306"/><polygon class="b" points="1549.0761 1602.811 1549.8828 1601.234 1549.0409 1599.6755 1550.7901 1599.9553 1552.0122 1598.6731 1552.2865 1600.4231 1553.8837 1601.1892 1552.3041 1601.9908 1552.0691 1603.7465 1550.8185 1602.492 1549.0761 1602.811"/><polygon class="b" points="1464.3627 1512.9217 1464.7452 1514.0895 1465.9241 1514.4364 1464.9316 1515.161 1464.966 1516.3894 1463.9701 1515.6695 1462.8125 1516.0818 1463.1894 1514.9122 1462.4396 1513.9386 1463.6685 1513.9356 1464.3627 1512.9217"/><polygon class="b" points="1739.7252 1639.1633 1738.4077 1638.457 1737.0789 1639.142 1737.3435 1637.6706 1736.2814 1636.6185 1737.7625 1636.4155 1738.4349 1635.0803 1739.0857 1636.4262 1740.5633 1636.6531 1739.4844 1637.6879 1739.7252 1639.1633"/><polygon class="b" points="1391.2401 1690.06 1390.9461 1689.4643 1390.2887 1689.3688 1390.7644 1688.9051 1390.6521 1688.2504 1391.2401 1688.5595 1391.828 1688.2504 1391.7157 1688.9051 1392.1914 1689.3688 1391.5341 1689.4643 1391.2401 1690.06"/><polygon class="b" points="1181.9318 1496.6053 1182.7983 1496.1776 1182.9373 1495.2214 1183.6117 1495.9133 1184.5641 1495.75 1184.1145 1496.6053 1184.5641 1497.4606 1183.6117 1497.2972 1182.9373 1497.9892 1182.7983 1497.0329 1181.9318 1496.6053"/><polygon class="b" points="1249.2468 1542.2493 1248.3752 1543.0974 1248.5797 1544.2962 1247.5038 1543.7293 1246.4269 1544.2943 1246.6335 1543.0959 1245.7634 1542.2462 1246.9671 1542.0724 1247.5063 1540.9823 1248.0435 1542.0734 1249.2468 1542.2493"/><polygon class="b" points="1626.1999 1651.0729 1625.9307 1650.5275 1625.3288 1650.44 1625.7643 1650.0155 1625.6615 1649.416 1626.1999 1649.699 1626.7382 1649.416 1626.6354 1650.0155 1627.071 1650.44 1626.469 1650.5275 1626.1999 1651.0729"/><polygon class="b" points="1527.7745 1688.825 1527.0013 1688.7586 1526.5083 1689.3579 1526.3325 1688.602 1525.6102 1688.3183 1526.2748 1687.9176 1526.3214 1687.143 1526.9079 1687.6512 1527.659 1687.4561 1527.3569 1688.1709 1527.7745 1688.825"/><polygon class="b" points="1706.2102 1498.9703 1707.1714 1497.9963 1706.914 1496.6523 1708.1374 1497.2655 1709.336 1496.6053 1709.1309 1497.9583 1710.1292 1498.8942 1708.7791 1499.1173 1708.1974 1500.3559 1707.568 1499.1408 1706.2102 1498.9703"/><polygon class="b" points="1794.7573 1632.504 1793.5971 1633.5382 1793.7913 1635.0803 1792.4491 1634.2965 1791.0425 1634.9577 1791.3733 1633.439 1790.3097 1632.3056 1791.8563 1632.1509 1792.6056 1630.7892 1793.2307 1632.2122 1794.7573 1632.504"/><polygon class="b" points="1590.5267 1601.3423 1591.3866 1600.7759 1591.4075 1599.7465 1592.2119 1600.3893 1593.1974 1600.091 1592.8346 1601.0546 1593.4228 1601.8997 1592.3943 1601.8526 1591.7723 1602.6731 1591.4993 1601.6803 1590.5267 1601.3423"/><polygon class="b" points="1495.225 1590.7543 1493.7122 1590.4173 1492.5769 1591.4724 1492.4299 1589.9295 1491.0756 1589.1759 1492.4976 1588.5593 1492.7958 1587.0384 1493.8216 1588.2002 1495.3603 1588.0139 1494.5723 1589.3485 1495.225 1590.7543"/><polygon class="b" points="1898.0257 1587.0384 1898.5013 1586.8037 1898.5776 1586.2788 1898.9478 1586.6586 1899.4706 1586.5689 1899.2237 1587.0384 1899.4706 1587.5078 1898.9478 1587.4182 1898.5776 1587.798 1898.5013 1587.2731 1898.0257 1587.0384"/><polygon class="b" points="1580.1662 1646.336 1579.5034 1646.76 1579.4769 1647.5464 1578.8688 1647.047 1578.1127 1647.2649 1578.3997 1646.5322 1577.9589 1645.8805 1578.7444 1645.927 1579.228 1645.3064 1579.4264 1646.0678 1580.1662 1646.336"/><polygon class="b" points="1670.795 1696.8766 1670.2253 1696.5764 1669.655 1696.8755 1669.7644 1696.2409 1669.3037 1695.791 1669.941 1695.6989 1670.2266 1695.1217 1670.5111 1695.6995 1671.1483 1695.7926 1670.6867 1696.2417 1670.795 1696.8766"/><polygon class="b" points="1949.6877 1500.4205 1950.6141 1499.4788 1950.3635 1498.1818 1951.5454 1498.7718 1952.7015 1498.1327 1952.5056 1499.4391 1953.4706 1500.3412 1952.1676 1500.5585 1951.608 1501.7551 1950.9986 1500.583 1949.6877 1500.4205"/><polygon class="b" points="1502.8068 1481.4339 1501.6792 1481.4411 1501.0458 1482.374 1500.6905 1481.3038 1499.6075 1480.9897 1500.5156 1480.3211 1500.4796 1479.194 1501.3961 1479.8511 1502.4569 1479.4686 1502.1152 1480.5432 1502.8068 1481.4339"/><polygon class="b" points="1782.8973 1564.0039 1783.7808 1563.0591 1783.5033 1561.7956 1784.6749 1562.3439 1785.7908 1561.6896 1785.6314 1562.9733 1786.5985 1563.8324 1785.3284 1564.0774 1784.8102 1565.2627 1784.1846 1564.1305 1782.8973 1564.0039"/><polygon class="b" points="1642.3836 1611.1245 1642.6921 1610.5716 1642.4115 1610.004 1643.0327 1610.1266 1643.4858 1609.6844 1643.5612 1610.313 1644.1218 1610.6073 1643.5472 1610.8733 1643.4406 1611.4974 1643.0101 1611.0331 1642.3836 1611.1245"/><polygon class="b" points="1695.2504 1540.1161 1694.1125 1540.0707 1693.43 1540.9823 1693.1215 1539.8861 1692.0436 1539.5187 1692.9909 1538.8866 1693.0071 1537.7479 1693.9011 1538.4535 1694.9891 1538.1171 1694.5943 1539.1853 1695.2504 1540.1161"/><polygon class="b" points="1507.7432 1514.6555 1507.9909 1515.1574 1508.5447 1515.2378 1508.1439 1515.6285 1508.2385 1516.18 1507.7432 1515.9196 1507.2479 1516.18 1507.3425 1515.6285 1506.9417 1515.2378 1507.4955 1515.1574 1507.7432 1514.6555"/><polygon class="b" points="1566.1329 1565.8851 1565.1515 1565.8599 1564.5744 1566.6541 1564.295 1565.713 1563.3614 1565.4095 1564.1702 1564.853 1564.1703 1563.8713 1564.9494 1564.4685 1565.8832 1564.1652 1565.5559 1565.0908 1566.1329 1565.8851"/></g><g><polygon class="b" points="1510.5478 1588.3953 1509.3072 1587.8448 1508.1503 1588.5548 1508.2905 1587.2047 1507.2578 1586.3239 1508.5851 1586.04 1509.1037 1584.7857 1509.7838 1585.9603 1511.137 1586.0659 1510.2301 1587.0757 1510.5478 1588.3953"/><polygon class="b" points="1442.5908 1498.3861 1441.7721 1498.887 1441.7206 1499.8454 1440.9913 1499.2216 1440.0639 1499.4688 1440.4318 1498.5824 1439.9101 1497.7768 1440.8668 1497.8527 1441.4718 1497.1076 1441.6952 1498.041 1442.5908 1498.3861"/><polygon class="b" points="1158.9944 1574.8393 1157.9531 1574.6928 1157.242 1575.4675 1157.0596 1574.4318 1156.1031 1573.995 1157.0316 1573.5015 1157.1516 1572.4567 1157.9078 1573.1874 1158.9385 1572.9786 1158.4773 1573.9236 1158.9944 1574.8393"/><polygon class="b" points="1411.6821 1553.973 1412.695 1553.473 1412.8574 1552.3552 1413.6459 1553.1641 1414.7592 1552.9731 1414.2336 1553.973 1414.7592 1554.9728 1413.6459 1554.7819 1412.8574 1555.5907 1412.695 1554.4729 1411.6821 1553.973"/><polygon class="b" points="1596.574 1486.8676 1596.0986 1485.9042 1595.0354 1485.7498 1595.8047 1484.9999 1595.6231 1483.941 1596.574 1484.441 1597.5249 1483.941 1597.3433 1484.9999 1598.1126 1485.7498 1597.0495 1485.9042 1596.574 1486.8676"/><polygon class="b" points="1625.4451 1550.298 1624.2975 1549.7396 1623.1869 1550.3685 1623.3633 1549.1045 1622.422 1548.2426 1623.6787 1548.0197 1624.2075 1546.8582 1624.8078 1547.9845 1626.0759 1548.1285 1625.1902 1549.0474 1625.4451 1550.298"/><polygon class="b" points="1246.5158 1553.5778 1247.6066 1553.0395 1247.7815 1551.8356 1248.6307 1552.7067 1249.8296 1552.5011 1249.2636 1553.5778 1249.8296 1554.6546 1248.6307 1554.4489 1247.7815 1555.3201 1247.6066 1554.1162 1246.5158 1553.5778"/><polygon class="b" points="1392.8047 1489.1788 1393.6136 1488.392 1393.424 1487.2797 1394.4222 1487.8058 1395.4216 1487.2818 1395.2297 1488.3937 1396.0369 1489.1822 1394.92 1489.3433 1394.4195 1490.3547 1393.9212 1489.3423 1392.8047 1489.1788"/><polygon class="b" points="1240.0603 1631.6308 1241.3199 1632.1719 1242.4798 1631.4411 1242.3544 1632.8062 1243.4079 1633.6835 1242.0708 1633.9861 1241.5621 1635.2591 1240.8611 1634.081 1239.4931 1633.9905 1240.397 1632.9598 1240.0603 1631.6308"/><polygon class="b" points="1216.8961 1512.4543 1216.0882 1512.3879 1215.5754 1513.0159 1215.3889 1512.2269 1214.6333 1511.9333 1215.3259 1511.5121 1215.3717 1510.7027 1215.9863 1511.2314 1216.7702 1511.0247 1216.4574 1511.7726 1216.8961 1512.4543"/><polygon class="b" points="1346.2047 1589.7348 1347.0114 1588.1577 1346.1695 1586.5992 1347.9187 1586.879 1349.1408 1585.5968 1349.4151 1587.3468 1351.0123 1588.1129 1349.4327 1588.9146 1349.1977 1590.6703 1347.9471 1589.4158 1346.2047 1589.7348"/><polygon class="b" points="1261.4913 1499.8454 1261.8738 1501.0132 1263.0527 1501.3601 1262.0602 1502.0848 1262.0946 1503.3131 1261.0987 1502.5932 1259.9411 1503.0055 1260.318 1501.8359 1259.5682 1500.8623 1260.797 1500.8594 1261.4913 1499.8454"/><polygon class="b" points="1536.8538 1626.0871 1535.5363 1625.3807 1534.2075 1626.0657 1534.4721 1624.5944 1533.41 1623.5423 1534.8911 1623.3392 1535.5635 1622.0041 1536.2143 1623.3499 1537.6919 1623.5768 1536.613 1624.6116 1536.8538 1626.0871"/><polygon class="b" points="1188.3687 1676.9837 1188.0747 1676.388 1187.4173 1676.2925 1187.893 1675.8288 1187.7807 1675.1742 1188.3687 1675.4833 1188.9566 1675.1742 1188.8443 1675.8288 1189.32 1676.2925 1188.6627 1676.388 1188.3687 1676.9837"/><polygon class="b" points="1423.3285 1637.9967 1423.0593 1637.4512 1422.4574 1637.3638 1422.8929 1636.9392 1422.7901 1636.3397 1423.3285 1636.6228 1423.8668 1636.3397 1423.764 1636.9392 1424.1996 1637.3638 1423.5976 1637.4512 1423.3285 1637.9967"/><polygon class="b" points="1324.9031 1675.7488 1324.1299 1675.6823 1323.6369 1676.2816 1323.4611 1675.5258 1322.7388 1675.242 1323.4034 1674.8413 1323.45 1674.0667 1324.0365 1674.5749 1324.7876 1674.3799 1324.4855 1675.0947 1324.9031 1675.7488"/><polygon class="b" points="1503.3388 1485.8941 1504.3 1484.92 1504.0426 1483.576 1505.266 1484.1892 1506.4646 1483.529 1506.2595 1484.882 1507.2578 1485.818 1505.9077 1486.041 1505.326 1487.2797 1504.6966 1486.0645 1503.3388 1485.8941"/><polygon class="b" points="1591.8859 1619.4277 1590.7257 1620.462 1590.9199 1622.0041 1589.5777 1621.2202 1588.1711 1621.8814 1588.5019 1620.3628 1587.4383 1619.2293 1588.9849 1619.0746 1589.7342 1617.7129 1590.3593 1619.1359 1591.8859 1619.4277"/><polygon class="b" points="1387.6553 1588.2661 1388.5152 1587.6997 1388.5361 1586.6702 1389.3405 1587.313 1390.3259 1587.0147 1389.9632 1587.9784 1390.5514 1588.8235 1389.5229 1588.7763 1388.9009 1589.5968 1388.6279 1588.604 1387.6553 1588.2661"/><polygon class="b" points="1292.3536 1577.678 1290.8408 1577.341 1289.7055 1578.3962 1289.5585 1576.8532 1288.2042 1576.0996 1289.6262 1575.483 1289.9244 1573.9621 1290.9502 1575.124 1292.4889 1574.9376 1291.7009 1576.2722 1292.3536 1577.678"/><polygon class="b" points="1170.8759 1609.5939 1171.3515 1609.3592 1171.4277 1608.8344 1171.798 1609.2141 1172.3207 1609.1245 1172.0739 1609.5939 1172.3207 1610.0634 1171.798 1609.9737 1171.4277 1610.3535 1171.3515 1609.8287 1170.8759 1609.5939"/><polygon class="b" points="1377.2948 1633.2597 1376.632 1633.6837 1376.6055 1634.4701 1375.9974 1633.9707 1375.2413 1634.1886 1375.5283 1633.456 1375.0875 1632.8042 1375.873 1632.8508 1376.3566 1632.2301 1376.555 1632.9915 1377.2948 1633.2597"/><polygon class="b" points="1467.9236 1683.8003 1467.3539 1683.5001 1466.7836 1683.7992 1466.893 1683.1646 1466.4323 1682.7147 1467.0696 1682.6227 1467.3552 1682.0454 1467.6397 1682.6232 1468.2769 1682.7164 1467.8153 1683.1655 1467.9236 1683.8003"/><polygon class="b" points="1222.5378 1522.976 1223.4642 1522.0343 1223.2137 1520.7373 1224.3956 1521.3274 1225.5517 1520.6883 1225.3557 1521.9947 1226.3208 1522.8967 1225.0178 1523.114 1224.4581 1524.3106 1223.8488 1523.1386 1222.5378 1522.976"/><polygon class="b" points="1299.9354 1468.3576 1298.8078 1468.3648 1298.1744 1469.2978 1297.8191 1468.2275 1296.7361 1467.9134 1297.6442 1467.2448 1297.6082 1466.1178 1298.5247 1466.7748 1299.5855 1466.3923 1299.2438 1467.4669 1299.9354 1468.3576"/><polygon class="b" points="1580.0259 1550.9276 1580.9094 1549.9828 1580.6319 1548.7193 1581.8035 1549.2676 1582.9194 1548.6133 1582.76 1549.897 1583.7271 1550.7561 1582.457 1551.0012 1581.9388 1552.1864 1581.3132 1551.0542 1580.0259 1550.9276"/><polygon class="b" points="1439.5122 1598.0482 1439.8207 1597.4953 1439.5401 1596.9278 1440.1613 1597.0503 1440.6144 1596.6081 1440.6898 1597.2367 1441.2504 1597.531 1440.6758 1597.797 1440.5692 1598.4211 1440.1387 1597.9568 1439.5122 1598.0482"/><polygon class="b" points="1492.379 1527.0398 1491.2411 1526.9944 1490.5586 1527.9061 1490.2501 1526.8098 1489.1722 1526.4425 1490.1195 1525.8103 1490.1357 1524.6716 1491.0297 1525.3772 1492.1177 1525.0408 1491.7229 1526.109 1492.379 1527.0398"/><polygon class="b" points="1304.8718 1501.5793 1305.1195 1502.0811 1305.6733 1502.1616 1305.2725 1502.5522 1305.3671 1503.1037 1304.8718 1502.8433 1304.3765 1503.1037 1304.4711 1502.5522 1304.0703 1502.1616 1304.6241 1502.0811 1304.8718 1501.5793"/><polygon class="b" points="1363.2615 1552.8088 1362.2801 1552.7837 1361.703 1553.5778 1361.4236 1552.6367 1360.49 1552.3332 1361.2988 1551.7767 1361.2989 1550.795 1362.078 1551.3922 1363.0118 1551.089 1362.6845 1552.0145 1363.2615 1552.8088"/></g><g><polygon class="b" points="0 1576.4341 .5646 1575.9552 .4902 1575.2186 1.1201 1575.6076 1.7976 1575.3092 1.6223 1576.0285 2.1154 1576.5806 1.3772 1576.6362 1.0045 1577.2758 .7235 1576.5909 0 1576.4341"/><polygon class="b" points="1196.9871 1489.444 1196.5116 1488.4807 1195.4485 1488.3262 1196.2178 1487.5763 1196.0362 1486.5175 1196.9871 1487.0174 1197.938 1486.5175 1197.7564 1487.5763 1198.5257 1488.3262 1197.4625 1488.4807 1196.9871 1489.444"/><polygon class="b" points="1225.8582 1552.8744 1224.7105 1552.316 1223.5999 1552.9449 1223.7763 1551.6809 1222.8351 1550.819 1224.0917 1550.5961 1224.6206 1549.4346 1225.2208 1550.5609 1226.4889 1550.7049 1225.6033 1551.6238 1225.8582 1552.8744"/><polygon class="b" points="1192.2989 1622.0042 1191.1387 1623.0384 1191.3329 1624.5805 1189.9908 1623.7966 1188.5842 1624.4579 1188.9149 1622.9392 1187.8514 1621.8058 1189.3979 1621.651 1190.1472 1620.2893 1190.7723 1621.7123 1192.2989 1622.0042"/><polygon class="b" points="1295.5673 1576.5385 1296.043 1576.3038 1296.1192 1575.7789 1296.4894 1576.1587 1297.0122 1576.0691 1296.7654 1576.5385 1297.0122 1577.008 1296.4894 1576.9183 1296.1192 1577.2981 1296.043 1576.7733 1295.5673 1576.5385"/><polygon class="b" points="1347.2293 1489.9206 1348.1557 1488.9789 1347.9052 1487.6819 1349.087 1488.272 1350.2432 1487.6329 1350.0472 1488.9393 1351.0123 1489.8413 1349.7093 1490.0586 1349.1496 1491.2552 1348.5403 1490.0831 1347.2293 1489.9206"/><polygon class="b" points="1180.4389 1553.5041 1181.3224 1552.5592 1181.0449 1551.2958 1182.2166 1551.8441 1183.3324 1551.1897 1183.173 1552.4734 1184.1401 1553.3325 1182.87 1553.5776 1182.3518 1554.7628 1181.7262 1553.6306 1180.4389 1553.5041"/></g></svg>