<?xml version="1.0" encoding="UTF-8"?><svg id="a" xmlns="http://www.w3.org/2000/svg" xmlns:xlink="http://www.w3.org/1999/xlink" viewBox="0 0 2386.191 1080"><defs><style>.e{fill:#7194a8;}.f{fill:#80a6b7;}.g{fill:url(#d);}.h{fill:none;}.i{opacity:.77;}</style><pattern id="d" x="0" y="0" width="354" height="300" patternTransform="translate(0 1080)" patternUnits="userSpaceOnUse" viewBox="0 0 354 300"><g><rect class="h" width="354" height="300"/><g><path class="f" d="M505.286,284.58c-22.935-3.579-23.132-6.373-35.57-7.108-10.805-.639-20.264,.901-32.336,2.866-12.635,2.057-12.373,3.151-19.617,3.554-8.692,.484-16.763-1.085-32.552-4.242-16.333-3.266-16.491-4.201-24.576-4.93-10.459-.942-18.983-.169-27.162,.573-2.741,.249-12.754,1.214-25.438,4.013-14.487,3.197-26.065,7.375-25.653,7.796,.362,.371,9.72-2.44,24.36-4.93,10.255-1.744,20.598-3.489,31.043-3.554,19.815-.124,21.465,5.935,49.798,10.089,14.99,2.198,29.495,4.325,44.408,1.147,11.111-2.368,12.842-5.634,25.007-6.994,5.05-.565,8.051-.371,28.456,1.261,23.714,1.897,35.053,2.866,35.139,2.637,.066-.176-6.615-.822-15.306-2.178Z"/><path class="f" d="M379.117,301.288c-28.164-3.579-28.406-6.373-43.679-7.108-13.268-.639-24.883,.901-39.708,2.866-15.515,2.057-15.194,3.151-24.089,3.554-10.673,.484-20.585-1.085-39.972-4.242-20.057-3.266-20.25-4.201-30.178-4.93-12.843-.942-23.311-.169-33.354,.573-3.366,.249-15.661,1.214-31.237,4.013-17.79,3.197-32.007,7.375-31.501,7.796,.444,.371,11.936-2.44,29.914-4.93,12.593-1.744,25.293-3.489,38.119-3.554,24.332-.124,26.358,5.935,61.15,10.089,18.407,2.198,36.219,4.325,54.532,1.147,13.644-2.368,15.77-5.634,30.707-6.994,6.201-.565,9.886-.371,34.943,1.261,29.12,1.897,43.044,2.866,43.149,2.637,.081-.176-8.124-.822-18.795-2.178Z"/><path class="f" d="M285.67,248.892c-19.57-3.579-19.738-6.373-30.35-7.108-9.219-.639-17.29,.901-27.591,2.866-10.781,2.057-10.557,3.151-16.739,3.554-7.416,.484-14.303-1.085-27.775-4.242-13.936-3.266-14.071-4.201-20.969-4.93-8.924-.942-16.198-.169-23.176,.573-2.339,.249-10.882,1.214-21.705,4.013-12.361,3.197-22.24,7.375-21.889,7.796,.309,.371,8.294-2.44,20.785-4.93,8.75-1.744,17.575-3.489,26.487-3.554,16.907-.124,18.315,5.935,42.49,10.089,12.79,2.198,25.167,4.325,37.891,1.147,9.48-2.368,10.958-5.634,21.337-6.994,4.309-.565,6.869-.371,24.28,1.261,20.234,1.897,29.909,2.866,29.982,2.637,.056-.176-5.645-.822-13.06-2.178Z"/><path class="f" d="M441.663,235.619c-19.369-3.579-19.535-6.373-30.039-7.108-9.125-.639-17.113,.901-27.308,2.866-10.67,2.057-10.449,3.151-16.567,3.554-7.34,.484-14.157-1.085-27.49-4.242-13.793-3.266-13.926-4.201-20.754-4.93-8.833-.942-16.031-.169-22.939,.573-2.315,.249-10.771,1.214-21.482,4.013-12.235,3.197-22.012,7.375-21.664,7.796,.305,.371,8.209-2.44,20.572-4.93,8.66-1.744,17.395-3.489,26.216-3.554,16.733-.124,18.127,5.935,42.054,10.089,12.659,2.198,24.909,4.325,37.503,1.147,9.383-2.368,10.845-5.634,21.118-6.994,4.264-.565,6.799-.371,24.031,1.261,20.027,1.897,29.602,2.866,29.675,2.637,.056-.176-5.587-.822-12.926-2.178Z"/></g><g><path class="f" d="M151.286,284.58c-22.935-3.579-23.132-6.373-35.57-7.108-10.805-.639-20.264,.901-32.336,2.866-12.635,2.057-12.373,3.151-19.617,3.554-8.692,.484-16.763-1.085-32.552-4.242-16.333-3.266-16.491-4.201-24.576-4.93-10.459-.942-18.983-.169-27.162,.573-2.741,.249-12.754,1.214-25.438,4.013-14.487,3.197-26.065,7.375-25.653,7.796,.362,.371,9.72-2.44,24.36-4.93,10.255-1.744,20.598-3.489,31.043-3.554,19.815-.124,21.465,5.935,49.798,10.089,14.99,2.198,29.495,4.325,44.408,1.147,11.111-2.368,12.842-5.634,25.007-6.994,5.05-.565,8.051-.371,28.456,1.261,23.714,1.897,35.053,2.866,35.139,2.637,.066-.176-6.615-.822-15.306-2.178Z"/><path class="f" d="M25.117,301.288c-28.164-3.579-28.406-6.373-43.679-7.108-13.268-.639-24.883,.901-39.708,2.866-15.515,2.057-15.194,3.151-24.089,3.554-10.673,.484-20.585-1.085-39.972-4.242-20.057-3.266-20.25-4.201-30.178-4.93-12.843-.942-23.311-.169-33.354,.573-3.366,.249-15.661,1.214-31.237,4.013-17.79,3.197-32.007,7.375-31.501,7.796,.444,.371,11.936-2.44,29.914-4.93,12.593-1.744,25.293-3.489,38.119-3.554,24.332-.124,26.358,5.935,61.15,10.089,18.407,2.198,36.219,4.325,54.532,1.147,13.644-2.368,15.77-5.634,30.707-6.994,6.201-.565,9.886-.371,34.943,1.261,29.12,1.897,43.044,2.866,43.149,2.637,.081-.176-8.124-.822-18.795-2.178Z"/><path class="f" d="M307.569,269.011c-29.604-3.579-29.859-6.373-45.913-7.108-13.947-.639-26.156,.901-41.739,2.866-16.309,2.057-15.971,3.151-25.322,3.554-11.219,.484-21.638-1.085-42.017-4.242-21.082-3.266-21.286-4.201-31.722-4.93-13.5-.942-24.503-.169-35.06,.573-3.538,.249-16.462,1.214-32.835,4.013-18.7,3.197-33.644,7.375-33.113,7.796,.467,.371,12.546-2.44,31.444-4.93,13.237-1.744,26.587-3.489,40.069-3.554,25.576-.124,27.706,5.935,64.278,10.089,19.348,2.198,38.072,4.325,57.321,1.147,14.342-2.368,16.576-5.634,32.278-6.994,6.518-.565,10.392-.371,36.73,1.261,30.61,1.897,45.246,2.866,45.356,2.637,.085-.176-8.539-.822-19.756-2.178Z"/><path class="f" d="M87.663,235.619c-19.369-3.579-19.535-6.373-30.039-7.108-9.125-.639-17.113,.901-27.308,2.866-10.67,2.057-10.449,3.151-16.567,3.554-7.34,.484-14.157-1.085-27.49-4.242-13.793-3.266-13.926-4.201-20.754-4.93-8.833-.942-16.031-.169-22.939,.573-2.315,.249-10.771,1.214-21.482,4.013-12.235,3.197-22.012,7.375-21.664,7.796,.305,.371,8.209-2.44,20.572-4.93,8.66-1.744,17.395-3.489,26.216-3.554,16.733-.124,18.127,5.935,42.054,10.089,12.659,2.198,24.909,4.325,37.503,1.147,9.383-2.368,10.845-5.634,21.118-6.994,4.264-.565,6.799-.371,24.031,1.261,20.027,1.897,29.602,2.866,29.675,2.637,.056-.176-5.587-.822-12.926-2.178Z"/></g><g><path class="f" d="M556.117,151.288c-28.164-3.579-28.406-6.373-43.679-7.108-13.268-.639-24.883,.901-39.708,2.866-15.515,2.057-15.194,3.151-24.089,3.554-10.673,.484-20.585-1.085-39.972-4.242-20.057-3.266-20.25-4.201-30.178-4.93-12.843-.942-23.311-.169-33.354,.573-3.366,.249-15.661,1.214-31.237,4.013-17.79,3.197-32.007,7.375-31.501,7.796,.444,.371,11.936-2.44,29.914-4.93,12.593-1.744,25.293-3.489,38.119-3.554,24.332-.124,26.358,5.935,61.15,10.089,18.407,2.198,36.219,4.325,54.532,1.147,13.644-2.368,15.77-5.634,30.707-6.994,6.201-.565,9.886-.371,34.943,1.261,29.12,1.897,43.044,2.866,43.149,2.637,.081-.176-8.124-.822-18.795-2.178Z"/><path class="f" d="M462.67,98.892c-19.57-3.579-19.738-6.373-30.35-7.108-9.219-.639-17.29,.901-27.591,2.866-10.781,2.057-10.557,3.151-16.739,3.554-7.416,.484-14.303-1.085-27.775-4.242-13.936-3.266-14.071-4.201-20.969-4.93-8.924-.942-16.198-.169-23.176,.573-2.339,.249-10.882,1.214-21.705,4.013-12.361,3.197-22.24,7.375-21.889,7.796,.309,.371,8.294-2.44,20.785-4.93,8.75-1.744,17.575-3.489,26.487-3.554,16.907-.124,18.315,5.935,42.49,10.089,12.79,2.198,25.167,4.325,37.891,1.147,9.48-2.368,10.958-5.634,21.337-6.994,4.309-.565,6.869-.371,24.28,1.261,20.234,1.897,29.909,2.866,29.982,2.637,.056-.176-5.645-.822-13.06-2.178Z"/><path class="f" d="M684.163,199.116c-35.406-3.579-35.71-6.373-54.91-7.108-16.68-.639-31.281,.901-49.918,2.866-19.505,2.057-19.1,3.151-30.284,3.554-13.418,.484-25.878-1.085-50.251-4.242-25.214-3.266-25.457-4.201-37.938-4.93-16.146-.942-29.305-.169-41.931,.573-4.231,.249-19.689,1.214-39.269,4.013-22.364,3.197-40.237,7.375-39.602,7.796,.558,.371,15.005-2.44,37.605-4.93,15.831-1.744,31.797-3.489,47.921-3.554,30.588-.124,33.136,5.935,76.874,10.089,23.14,2.198,45.532,4.325,68.554,1.147,17.152-2.368,19.825-5.634,38.603-6.994,7.795-.565,12.428-.371,43.928,1.261,36.608,1.897,54.112,2.866,54.245,2.637,.102-.176-10.212-.822-23.628-2.178Z"/><path class="f" d="M526.455,223.937c-19.196-3.579-19.361-6.373-29.771-7.108-9.043-.639-16.96,.901-27.065,2.866-10.575,2.057-10.356,3.151-16.419,3.554-7.275,.484-14.031-1.085-27.245-4.242-13.671-3.266-13.802-4.201-20.569-4.93-8.754-.942-15.889-.169-22.734,.573-2.294,.249-10.675,1.214-21.291,4.013-12.126,3.197-21.816,7.375-21.471,7.796,.303,.371,8.135-2.44,20.389-4.93,8.583-1.744,17.24-3.489,25.982-3.554,16.584-.124,17.966,5.935,41.68,10.089,12.546,2.198,24.687,4.325,37.169,1.147,9.3-2.368,10.749-5.634,20.93-6.994,4.226-.565,6.738-.371,23.817,1.261,19.848,1.897,29.339,2.866,29.41,2.637,.055-.176-5.537-.822-12.811-2.178Z"/></g><g><path class="f" d="M87.804,176.749c31.461-3.579,31.732-6.373,48.793-7.108,14.821-.639,27.797,.901,44.357,2.866,17.332,2.057,16.973,3.151,26.91,3.554,11.923,.484,22.995-1.085,44.653-4.242,22.405-3.266,22.621-4.201,33.711-4.93,14.347-.942,26.04-.169,37.26,.573,3.76,.249,17.495,1.214,34.895,4.013,19.873,3.197,35.754,7.375,35.19,7.796-.496,.371-13.333-2.44-33.416-4.93-14.067-1.744-28.255-3.489-42.583-3.554-27.181-.124-29.445,5.935-68.31,10.089-20.562,2.198-40.46,4.325-60.917,1.147-15.241-2.368-17.616-5.634-34.303-6.994-6.927-.565-11.044-.371-39.034,1.261-32.53,1.897-48.084,2.866-48.202,2.637-.091-.176,9.075-.822,20.996-2.178Z"/><path class="f" d="M328.286,134.58c-22.935-3.579-23.132-6.373-35.57-7.108-10.805-.639-20.264,.901-32.336,2.866-12.635,2.057-12.373,3.151-19.617,3.554-8.692,.484-16.763-1.085-32.552-4.242-16.333-3.266-16.491-4.201-24.576-4.93-10.459-.942-18.983-.169-27.162,.573-2.741,.249-12.754,1.214-25.438,4.013-14.487,3.197-26.065,7.375-25.653,7.796,.362,.371,9.72-2.44,24.36-4.93,10.255-1.744,20.598-3.489,31.043-3.554,19.815-.124,21.465,5.935,49.798,10.089,14.99,2.198,29.495,4.325,44.408,1.147,11.111-2.368,12.842-5.634,25.007-6.994,5.05-.565,8.051-.371,28.456,1.261,23.714,1.897,35.053,2.866,35.139,2.637,.066-.176-6.615-.822-15.306-2.178Z"/><path class="f" d="M202.117,151.288c-28.164-3.579-28.406-6.373-43.679-7.108-13.268-.639-24.883,.901-39.708,2.866-15.515,2.057-15.194,3.151-24.089,3.554-10.673,.484-20.585-1.085-39.972-4.242-20.057-3.266-20.25-4.201-30.178-4.93-12.843-.942-23.311-.169-33.354,.573-3.366,.249-15.661,1.214-31.237,4.013-17.79,3.197-32.007,7.375-31.501,7.796,.444,.371,11.936-2.44,29.914-4.93,12.593-1.744,25.293-3.489,38.119-3.554,24.332-.124,26.358,5.935,61.15,10.089,18.407,2.198,36.219,4.325,54.532,1.147,13.644-2.368,15.77-5.634,30.707-6.994,6.201-.565,9.886-.371,34.943,1.261,29.12,1.897,43.044,2.866,43.149,2.637,.081-.176-8.124-.822-18.795-2.178Z"/><path class="f" d="M484.569,119.011c-29.604-3.579-29.859-6.373-45.913-7.108-13.947-.639-26.156,.901-41.739,2.866-16.309,2.057-15.971,3.151-25.322,3.554-11.219,.484-21.638-1.085-42.017-4.242-21.082-3.266-21.286-4.201-31.722-4.93-13.5-.942-24.503-.169-35.06,.573-3.538,.249-16.462,1.214-32.835,4.013-18.7,3.197-33.644,7.375-33.113,7.796,.467,.371,12.546-2.44,31.444-4.93,13.237-1.744,26.587-3.489,40.069-3.554,25.576-.124,27.706,5.935,64.278,10.089,19.348,2.198,38.072,4.325,57.321,1.147,14.342-2.368,16.576-5.634,32.278-6.994,6.518-.565,10.392-.371,36.73,1.261,30.61,1.897,45.246,2.866,45.356,2.637,.085-.176-8.539-.822-19.756-2.178Z"/><path class="f" d="M108.67,98.892c-19.57-3.579-19.738-6.373-30.35-7.108-9.219-.639-17.29,.901-27.591,2.866-10.781,2.057-10.557,3.151-16.739,3.554-7.416,.484-14.303-1.085-27.775-4.242-13.936-3.266-14.071-4.201-20.969-4.93-8.924-.942-16.198-.169-23.176,.573-2.339,.249-10.882,1.214-21.705,4.013-12.361,3.197-22.24,7.375-21.889,7.796,.309,.371,8.294-2.44,20.785-4.93,8.75-1.744,17.575-3.489,26.487-3.554,16.907-.124,18.315,5.935,42.49,10.089,12.79,2.198,25.167,4.325,37.891,1.147,9.48-2.368,10.958-5.634,21.337-6.994,4.309-.565,6.869-.371,24.28,1.261,20.234,1.897,29.909,2.866,29.982,2.637,.056-.176-5.645-.822-13.06-2.178Z"/><path class="f" d="M264.663,85.619c-19.369-3.579-19.535-6.373-30.039-7.108-9.125-.639-17.113,.901-27.308,2.866-10.67,2.057-10.449,3.151-16.567,3.554-7.34,.484-14.157-1.085-27.49-4.242-13.793-3.266-13.926-4.201-20.754-4.93-8.833-.942-16.031-.169-22.939,.573-2.315,.249-10.771,1.214-21.482,4.013-12.235,3.197-22.012,7.375-21.664,7.796,.305,.371,8.209-2.44,20.572-4.93,8.66-1.744,17.395-3.489,26.216-3.554,16.733-.124,18.127,5.935,42.054,10.089,12.659,2.198,24.909,4.325,37.503,1.147,9.383-2.368,10.845-5.634,21.118-6.994,4.264-.565,6.799-.371,24.031,1.261,20.027,1.897,29.602,2.866,29.675,2.637,.056-.176-5.587-.822-12.926-2.178Z"/><path class="f" d="M330.163,199.116c-35.406-3.579-35.71-6.373-54.91-7.108-16.68-.639-31.281,.901-49.918,2.866-19.505,2.057-19.1,3.151-30.284,3.554-13.418,.484-25.878-1.085-50.251-4.242-25.214-3.266-25.457-4.201-37.938-4.93-16.146-.942-29.305-.169-41.931,.573-4.231,.249-19.689,1.214-39.269,4.013-22.364,3.197-40.237,7.375-39.602,7.796,.558,.371,15.005-2.44,37.605-4.93,15.831-1.744,31.797-3.489,47.921-3.554,30.588-.124,33.136,5.935,76.874,10.089,23.14,2.198,45.532,4.325,68.554,1.147,17.152-2.368,19.825-5.634,38.603-6.994,7.795-.565,12.428-.371,43.928,1.261,36.608,1.897,54.112,2.866,54.245,2.637,.102-.176-10.212-.822-23.628-2.178Z"/><path class="f" d="M172.455,223.937c-19.196-3.579-19.361-6.373-29.771-7.108-9.043-.639-16.96,.901-27.065,2.866-10.575,2.057-10.356,3.151-16.419,3.554-7.275,.484-14.031-1.085-27.245-4.242-13.671-3.266-13.802-4.201-20.569-4.93-8.754-.942-15.889-.169-22.734,.573-2.294,.249-10.675,1.214-21.291,4.013-12.126,3.197-21.816,7.375-21.471,7.796,.303,.371,8.135-2.44,20.389-4.93,8.583-1.744,17.24-3.489,25.982-3.554,16.584-.124,17.966,5.935,41.68,10.089,12.546,2.198,24.687,4.325,37.169,1.147,9.3-2.368,10.749-5.634,20.93-6.994,4.226-.565,6.738-.371,23.817,1.261,19.848,1.897,29.339,2.866,29.41,2.637,.055-.176-5.537-.822-12.811-2.178Z"/></g><g><path class="f" d="M-266.196,176.749c31.461-3.579,31.732-6.373,48.793-7.108,14.821-.639,27.797,.901,44.357,2.866,17.332,2.057,16.973,3.151,26.91,3.554,11.923,.484,22.995-1.085,44.653-4.242,22.405-3.266,22.621-4.201,33.711-4.93,14.347-.942,26.04-.169,37.26,.573,3.76,.249,17.495,1.214,34.895,4.013,19.873,3.197,35.754,7.375,35.19,7.796-.496,.371-13.333-2.44-33.416-4.93-14.067-1.744-28.255-3.489-42.583-3.554-27.181-.124-29.445,5.935-68.31,10.089-20.562,2.198-40.46,4.325-60.917,1.147-15.241-2.368-17.616-5.634-34.303-6.994-6.927-.565-11.044-.371-39.034,1.261-32.53,1.897-48.084,2.866-48.202,2.637-.091-.176,9.075-.822,20.996-2.178Z"/><path class="f" d="M130.569,119.011c-29.604-3.579-29.859-6.373-45.913-7.108-13.947-.639-26.156,.901-41.739,2.866-16.309,2.057-15.971,3.151-25.322,3.554-11.219,.484-21.638-1.085-42.017-4.242-21.082-3.266-21.286-4.201-31.722-4.93-13.5-.942-24.503-.169-35.06,.573-3.538,.249-16.462,1.214-32.835,4.013-18.7,3.197-33.644,7.375-33.113,7.796,.467,.371,12.546-2.44,31.444-4.93,13.237-1.744,26.587-3.489,40.069-3.554,25.576-.124,27.706,5.935,64.278,10.089,19.348,2.198,38.072,4.325,57.321,1.147,14.342-2.368,16.576-5.634,32.278-6.994,6.518-.565,10.392-.371,36.73,1.261,30.61,1.897,45.246,2.866,45.356,2.637,.085-.176-8.539-.822-19.756-2.178Z"/></g><g><path class="f" d="M264.804,26.749c31.461-3.579,31.732-6.373,48.793-7.108,14.821-.639,27.797,.901,44.357,2.866,17.332,2.057,16.973,3.151,26.91,3.554,11.923,.484,22.995-1.085,44.653-4.242,22.405-3.266,22.621-4.201,33.711-4.93,14.347-.942,26.04-.169,37.26,.573,3.76,.249,17.495,1.214,34.895,4.013,19.873,3.197,35.754,7.375,35.19,7.796-.496,.371-13.333-2.44-33.416-4.93-14.067-1.744-28.255-3.489-42.583-3.554-27.181-.124-29.445,5.935-68.31,10.089-20.562,2.198-40.46,4.325-60.917,1.147-15.241-2.368-17.616-5.634-34.303-6.994-6.927-.565-11.044-.371-39.034,1.261-32.53,1.897-48.084,2.866-48.202,2.637-.091-.176,9.075-.822,20.996-2.178Z"/><path class="f" d="M379.117,1.288c-28.164-3.579-28.406-6.373-43.679-7.108-13.268-.639-24.883,.901-39.708,2.866-15.515,2.057-15.194,3.151-24.089,3.554-10.673,.484-20.585-1.085-39.972-4.242-20.057-3.266-20.25-4.201-30.178-4.93-12.843-.942-23.311-.169-33.354,.573-3.366,.249-15.661,1.214-31.237,4.013-17.79,3.197-32.007,7.375-31.501,7.796,.444,.371,11.936-2.44,29.914-4.93,12.593-1.744,25.293-3.489,38.119-3.554,24.332-.124,26.358,5.935,61.15,10.089,18.407,2.198,36.219,4.325,54.532,1.147,13.644-2.368,15.77-5.634,30.707-6.994,6.201-.565,9.886-.371,34.943,1.261,29.12,1.897,43.044,2.866,43.149,2.637,.081-.176-8.124-.822-18.795-2.178Z"/><path class="f" d="M507.163,49.116c-35.406-3.579-35.71-6.373-54.91-7.108-16.68-.639-31.281,.901-49.918,2.866-19.505,2.057-19.1,3.151-30.284,3.554-13.418,.484-25.878-1.085-50.251-4.242-25.214-3.266-25.457-4.201-37.938-4.93-16.146-.942-29.305-.169-41.931,.573-4.231,.249-19.689,1.214-39.269,4.013-22.364,3.197-40.237,7.375-39.602,7.796,.558,.371,15.005-2.44,37.605-4.93,15.831-1.744,31.797-3.489,47.921-3.554,30.588-.124,33.136,5.935,76.874,10.089,23.14,2.198,45.532,4.325,68.554,1.147,17.152-2.368,19.825-5.634,38.603-6.994,7.795-.565,12.428-.371,43.928,1.261,36.608,1.897,54.112,2.866,54.245,2.637,.102-.176-10.212-.822-23.628-2.178Z"/><path class="f" d="M349.455,73.937c-19.196-3.579-19.361-6.373-29.771-7.108-9.043-.639-16.96,.901-27.065,2.866-10.575,2.057-10.356,3.151-16.419,3.554-7.275,.484-14.031-1.085-27.245-4.242-13.671-3.266-13.802-4.201-20.569-4.93-8.754-.942-15.889-.169-22.734,.573-2.294,.249-10.675,1.214-21.291,4.013-12.126,3.197-21.816,7.375-21.471,7.796,.303,.371,8.135-2.44,20.389-4.93,8.583-1.744,17.24-3.489,25.982-3.554,16.584-.124,17.966,5.935,41.68,10.089,12.546,2.198,24.687,4.325,37.169,1.147,9.3-2.368,10.749-5.634,20.93-6.994,4.226-.565,6.738-.371,23.817,1.261,19.848,1.897,29.339,2.866,29.41,2.637,.055-.176-5.537-.822-12.811-2.178Z"/></g><g><path class="f" d="M-89.196,26.749c31.461-3.579,31.732-6.373,48.793-7.108,14.821-.639,27.797,.901,44.357,2.866,17.332,2.057,16.973,3.151,26.91,3.554,11.923,.484,22.995-1.085,44.653-4.242,22.405-3.266,22.621-4.201,33.711-4.93,14.347-.942,26.04-.169,37.26,.573,3.76,.249,17.495,1.214,34.895,4.013,19.873,3.197,35.754,7.375,35.19,7.796-.496,.371-13.333-2.44-33.416-4.93-14.067-1.744-28.255-3.489-42.583-3.554-27.181-.124-29.445,5.935-68.31,10.089-20.562,2.198-40.46,4.325-60.917,1.147-15.241-2.368-17.616-5.634-34.303-6.994-6.927-.565-11.044-.371-39.034,1.261-32.53,1.897-48.084,2.866-48.202,2.637-.091-.176,9.075-.822,20.996-2.178Z"/><path class="f" d="M25.117,1.288C-3.047-2.292-3.289-5.085-18.562-5.821c-13.268-.639-24.883,.901-39.708,2.866C-73.785-.898-73.463,.196-82.359,.6c-10.673,.484-20.585-1.085-39.972-4.242-20.057-3.266-20.25-4.201-30.178-4.93-12.843-.942-23.311-.169-33.354,.573-3.366,.249-15.661,1.214-31.237,4.013-17.79,3.197-32.007,7.375-31.501,7.796,.444,.371,11.936-2.44,29.914-4.93,12.593-1.744,25.293-3.489,38.119-3.554,24.332-.124,26.358,5.935,61.15,10.089,18.407,2.198,36.219,4.325,54.532,1.147C-51.244,4.194-49.118,.928-34.18-.432-27.98-.997-24.294-.803,.763,.829c29.12,1.897,43.044,2.866,43.149,2.637,.081-.176-8.124-.822-18.795-2.178Z"/><path class="f" d="M153.163,49.116c-35.406-3.579-35.71-6.373-54.91-7.108-16.68-.639-31.281,.901-49.918,2.866-19.505,2.057-19.1,3.151-30.284,3.554-13.418,.484-25.878-1.085-50.251-4.242-25.214-3.266-25.457-4.201-37.938-4.93-16.146-.942-29.305-.169-41.931,.573-4.231,.249-19.689,1.214-39.269,4.013-22.364,3.197-40.237,7.375-39.602,7.796,.558,.371,15.005-2.44,37.605-4.93,15.831-1.744,31.797-3.489,47.921-3.554,30.588-.124,33.136,5.935,76.874,10.089,23.14,2.198,45.532,4.325,68.554,1.147,17.152-2.368,19.825-5.634,38.603-6.994,7.795-.565,12.428-.371,43.928,1.261,36.608,1.897,54.112,2.866,54.245,2.637,.102-.176-10.212-.822-23.628-2.178Z"/><path class="f" d="M-4.545,73.937c-19.196-3.579-19.361-6.373-29.771-7.108-9.043-.639-16.96,.901-27.065,2.866-10.575,2.057-10.356,3.151-16.419,3.554-7.275,.484-14.031-1.085-27.245-4.242-13.671-3.266-13.802-4.201-20.569-4.93-8.754-.942-15.889-.169-22.734,.573-2.294,.249-10.675,1.214-21.291,4.013-12.126,3.197-21.816,7.375-21.471,7.796,.303,.371,8.135-2.44,20.389-4.93,8.583-1.744,17.24-3.489,25.982-3.554,16.584-.124,17.966,5.935,41.68,10.089,12.546,2.198,24.687,4.325,37.169,1.147,9.3-2.368,10.749-5.634,20.93-6.994,4.226-.565,6.738-.371,23.817,1.261,19.848,1.897,29.339,2.866,29.41,2.637,.055-.176-5.537-.822-12.811-2.178Z"/></g></g></pattern></defs><g id="b"><g><g><polygon class="e" points="75.924 246.293 49.019 276.255 75.924 306.828 75.924 335.873 4.076 416.586 4.076 421.478 83.567 511.057 83.261 678.904 58.497 702.599 80.586 722.701 80.586 1033.707 207.274 1033.707 220.344 1068.484 236.28 1036.955 223.898 1007.49 235.363 966.331 188.701 921.503 188.701 849.809 242.242 810.981 242.242 695.414 163.478 616.535 163.478 412.611 106.726 350.089 106.726 271.669 75.924 246.293"/><polygon class="e" points="265.401 1052.204 280.306 1077.35 295.898 1052.204 286.497 1031.108 2357.557 1031.108 2357.557 519.713 2366.013 455.261 2386.191 455.261 2386.191 426.217 2341.86 426.217 2324.127 443.949 2314.344 522.522 2293.401 536.28 2289.197 593.605 2278.42 602.548 2218.573 602.548 2203.783 614.815 2160.79 614.815 2147.49 625.363 2073.656 625.363 2061.159 608.624 2061.159 586.038 2046.14 569.529 1975.631 569.529 1955.338 588.331 1955.338 607.936 1925.414 625.134 1917.274 625.134 1913.49 621.35 1887.58 621.35 1887.58 632.815 1876.573 638.204 1876.688 651.962 1912 690.599 1912 768.79 1946.739 810.293 1946.739 851.338 1930.115 869.796 1872.675 869.796 1841.49 890.548 1820.586 928.994 1766.318 973.554 1737.446 973.554 1716.293 988.057 1650.369 988.057 1631.185 973.631 1555.21 973.631 1539.732 961.057 1424.357 961.057 1424.357 860.968 1503.217 801.465 1503.217 768.408 1465.631 729.121 1424.357 729.121 1407.465 710.395 1340.892 710.318 1325.796 728.968 1299.771 756.102 1287.389 791.567 1287.389 803.605 1277.223 803.605 1213.172 863.873 1213.019 894.599 1231.669 909.293 1262.51 909.293 1279.439 884.586 1343.338 882.369 1393.325 901.401 1393.325 955.822 1376.901 969.513 1107.045 969.513 1062.561 951.771 1003.516 898.688 984.828 845.834 949.248 818.013 867.006 818.013 830.013 849.809 794.548 928.688 742.573 963.236 658.038 973.631 561.885 953.605 511.21 922.191 486.675 877.707 458.089 853.363 416.796 853.363 380.51 875.529 356.204 917.605 328.315 928.096 292.306 928.096 265.401 949.019 275.834 976.535 263.223 1001.643 273.541 1029.503 265.401 1052.204"/><polygon class="e" points="1577.529 712.994 1598.72 685.439 1693.707 685.439 1720.764 718.631 1720.764 817.975 1714.172 826.057 1709.529 834.599 1696.153 834.599 1678.344 813.58 1675.134 780.408 1670.548 767.357 1670.662 741.159 1637.758 741.732 1599.236 738.522 1577.529 712.994"/><polygon class="e" points="1679.338 467.567 1650.293 490.726 1644.006 516.79 1663.975 534.064 1688.051 515.414 1768.459 517.592 1801.936 546.369 1801.936 570.79 1823.605 594.981 1839.427 589.707 1853.414 590.166 1853.414 579.618 1889.299 561.732 1914.293 561.732 1934.357 546.255 1934.357 532.459 1956.025 516.255 1950.522 467.567 1912.917 434.624 1855.439 434.624 1819.669 388.917 1739.72 388.917 1686.825 433.186 1679.338 467.567"/></g><g id="c" class="i"><polygon class="g" points="75.916 246.251 49.011 276.212 75.916 306.786 75.916 335.83 4.068 416.544 4.068 421.435 83.559 511.015 83.253 678.862 58.489 702.556 80.578 722.658 80.578 1033.665 207.266 1033.665 220.336 1068.442 236.272 1036.913 223.89 1007.448 235.355 966.289 188.693 921.461 188.693 849.766 242.234 810.938 242.234 695.372 163.47 616.493 163.47 412.569 106.718 350.047 106.718 271.626 75.916 246.251"/><polygon class="g" points="265.393 1052.161 280.298 1077.308 295.89 1052.161 286.489 1031.066 2357.549 1031.066 2357.549 519.671 2366.005 455.219 2386.183 455.219 2386.183 426.174 2341.852 426.174 2324.119 443.907 2314.336 522.48 2293.393 536.238 2289.189 593.563 2278.412 602.505 2218.565 602.505 2203.775 614.773 2160.782 614.773 2147.482 625.321 2073.648 625.321 2061.151 608.582 2061.151 585.996 2046.132 569.486 1975.623 569.486 1955.33 588.289 1955.33 607.894 1925.406 625.091 1917.266 625.091 1913.482 621.308 1887.572 621.308 1887.572 632.773 1876.565 638.161 1876.68 651.919 1911.992 690.556 1911.992 768.747 1946.731 810.251 1946.731 851.295 1930.107 869.754 1872.667 869.754 1841.482 890.505 1820.578 928.951 1766.31 973.512 1737.438 973.512 1716.285 988.015 1650.361 988.015 1631.177 973.588 1555.202 973.588 1539.724 961.015 1424.349 961.015 1424.349 860.926 1503.209 801.423 1503.209 768.365 1465.623 729.079 1424.349 729.079 1407.457 710.352 1340.884 710.276 1325.788 728.926 1299.763 756.059 1287.381 791.524 1287.381 803.563 1277.215 803.563 1213.164 863.83 1213.011 894.556 1231.661 909.251 1262.502 909.251 1279.431 884.544 1343.33 882.327 1393.317 901.359 1393.317 955.779 1376.893 969.47 1107.037 969.47 1062.552 951.728 1003.508 898.645 984.82 845.792 949.24 817.97 866.998 817.97 830.005 849.766 794.54 928.645 742.565 963.193 658.03 973.588 561.877 953.563 511.202 922.149 486.667 877.665 458.081 853.321 416.788 853.321 380.502 875.486 356.196 917.563 328.307 928.053 292.298 928.053 265.393 948.977 275.826 976.493 263.215 1001.601 273.533 1029.461 265.393 1052.161"/><polygon class="g" points="1577.521 712.951 1598.712 685.397 1693.699 685.397 1720.756 718.588 1720.756 817.932 1714.164 826.015 1709.521 834.556 1696.145 834.556 1678.336 813.537 1675.126 780.365 1670.54 767.314 1670.654 741.117 1637.75 741.69 1599.228 738.48 1577.521 712.951"/><polygon class="g" points="1679.33 467.524 1650.285 490.684 1643.998 516.747 1663.967 534.021 1688.043 515.372 1768.451 517.55 1801.928 546.327 1801.928 570.747 1823.597 594.938 1839.419 589.665 1853.406 590.123 1853.406 579.575 1889.291 561.69 1914.285 561.69 1934.349 546.212 1934.349 532.416 1956.017 516.212 1950.514 467.524 1912.909 434.582 1855.431 434.582 1819.661 388.875 1739.712 388.875 1686.817 433.143 1679.33 467.524"/></g></g></g></svg>