<svg id="rocks_n_treees" data-name="rocks n treees" xmlns="http://www.w3.org/2000/svg" viewBox="0 0 13.0584 9.5369"><defs><style>.cls-1{fill:#782c44;}</style></defs><path class="cls-1" d="M203.8662,363.4074l2.37-3.4775v-2.484l.9554-2.293,1.7579-.9172h.879s.0964,1.3648.5733,1.6433.8407,1.9108,1.0318,2.0637,1.3137-3.258,1.3137-3.258a1.3208,1.3208,0,0,1,.8456-.449,1.9426,1.9426,0,0,1,1.39.22c.6592.2866.43,3.54.43,3.54a2.2387,2.2387,0,0,0,.0386,1.6338c.3914.6449.0331,1.1895.506,1.5907s1.4331,1.6338.7022,2.0207-2.6082.0043-3.2388.167a18.3439,18.3439,0,0,1-2.594.32c-.5589.0287-6.96-.258-6.96-.258" transform="translate(-203.8662 -354.1928)"/></svg>