<?xml version="1.0" encoding="utf-8"?>
<!-- Generator: Adobe Illustrator 26.2.1, SVG Export Plug-In . SVG Version: 6.00 Build 0)  -->
<svg version="1.1" id="parallax_layer_4" xmlns="http://www.w3.org/2000/svg" xmlns:xlink="http://www.w3.org/1999/xlink" x="0px"
	 y="0px" viewBox="0 0 2053.4 347.8" style="enable-background:new 0 0 2053.4 347.8;" xml:space="preserve">
<style type="text/css">
	.st0{fill:#602872;}
</style>
<path class="st0" d="M23,233c13.8-32.9,87.8-40.5,170.6-89.9c4.7-3,9.8-5.3,15.1-6.9c30-8.6,58,10.9,115.6,50.9
	c60.7,42.2,91.6,63.2,121.5,61.9c4.2-0.2,16.7-1,40.8-11c85.4-35.4,101.8-96.4,146.8-109.1c62.6-17.7,98,99.4,154.1,88
	c60.3-12.2,58.5-147,139.9-165c20.6-4.5,38.2,0.2,44,1.8c68.2,19.2,72.6,105.3,111.9,116.5c55.2,15.7,101.4-172.6,166-168.8
	c56,3.3,67.1,142.4,129.3,147.7c27.7,2.3,46.1-23.4,68.3-51.3c19.6-24.7,64.4-86.1,98.9-96.4c31.4-9.4,44.8,34.7,78.4,51.1
	c28.9,14.1,56.4,33.6,78.4,51.1c20.1,15.9,81.5-49.4,89.7-42.2c37.3,32.5,97.4,76.1,122,75.7c55.7-1,38.7-86.9,107.8-106.6
	c62.3-17.8,40.9,88.9,47.4,143.6c7.5,63.5,28.3,175.7-44,190.7c-188.9,39.2-760.6,40.6-1192.4,38.5c-239.5-1.1-571.4-0.2-763.3-19.5
	C-35.3,373.1,4.7,276.6,23,233z"/>
</svg>
