<svg id="ground_layer" data-name="ground layer" xmlns="http://www.w3.org/2000/svg" xmlns:xlink="http://www.w3.org/1999/xlink" viewBox="0 0 2001.61 405.81"><defs><style>.cls-1,.cls-2{fill:none;}.cls-2{stroke:#d25d5d;stroke-miterlimit:10;stroke-width:3px;}.cls-3{fill:#d14c4a;}.cls-4{fill:url(#CBT);}</style><pattern id="CBT" data-name="CBT" width="60.29" height="1340.72" patternUnits="userSpaceOnUse" viewBox="0 0 60.29 1340.72"><rect class="cls-1" width="60.29" height="1340.72"/><line class="cls-2" x1="600.6" y1="0.81" x2="-250.92" y2="1339.92"/><line class="cls-2" x1="588.54" y1="0.81" x2="-262.98" y2="1339.92"/><line class="cls-2" x1="576.49" y1="0.81" x2="-275.04" y2="1339.92"/><line class="cls-2" x1="564.43" y1="0.81" x2="-287.1" y2="1339.92"/><line class="cls-2" x1="552.37" y1="0.81" x2="-299.16" y2="1339.92"/><line class="cls-2" x1="540.31" y1="0.81" x2="-311.21" y2="1339.92"/><line class="cls-2" x1="528.25" y1="0.81" x2="-323.27" y2="1339.92"/><line class="cls-2" x1="516.2" y1="0.81" x2="-335.33" y2="1339.92"/><line class="cls-2" x1="504.14" y1="0.81" x2="-347.39" y2="1339.92"/><line class="cls-2" x1="492.08" y1="0.81" x2="-359.45" y2="1339.92"/><line class="cls-2" x1="480.02" y1="0.81" x2="-371.5" y2="1339.92"/><line class="cls-2" x1="467.97" y1="0.81" x2="-383.56" y2="1339.92"/><line class="cls-2" x1="455.91" y1="0.81" x2="-395.62" y2="1339.92"/><line class="cls-2" x1="443.85" y1="0.81" x2="-407.68" y2="1339.92"/><line class="cls-2" x1="431.79" y1="0.81" x2="-419.73" y2="1339.92"/><line class="cls-2" x1="419.73" y1="0.81" x2="-431.79" y2="1339.92"/><line class="cls-2" x1="407.68" y1="0.81" x2="-443.85" y2="1339.92"/><line class="cls-2" x1="395.62" y1="0.81" x2="-455.91" y2="1339.92"/><line class="cls-2" x1="383.56" y1="0.81" x2="-467.97" y2="1339.92"/><line class="cls-2" x1="371.5" y1="0.81" x2="-480.02" y2="1339.92"/><line class="cls-2" x1="359.44" y1="0.81" x2="-492.08" y2="1339.92"/><line class="cls-2" x1="347.39" y1="0.81" x2="-504.14" y2="1339.92"/><line class="cls-2" x1="335.33" y1="0.81" x2="-516.2" y2="1339.92"/><line class="cls-2" x1="323.27" y1="0.81" x2="-528.26" y2="1339.92"/><line class="cls-2" x1="311.21" y1="0.81" x2="-540.31" y2="1339.92"/></pattern></defs><path class="cls-3" d="M-15,704.15l27.72,27.72a3.25,3.25,0,0,1,.95,2.3v44a3.25,3.25,0,0,1-.95,2.3l-17.3,17.3A3.23,3.23,0,0,0-5.52,800v14.34a3.21,3.21,0,0,0,.95,2.29L7.2,828.43a3.25,3.25,0,0,1,1,2.3v2.6a3.24,3.24,0,0,0,3.25,3.25H90.57a3.24,3.24,0,0,0,3.25-3.25v-3.2a3.25,3.25,0,0,1,1-2.3l12.66-12.66a3.3,3.3,0,0,1,2.3-.95h17.53a3.25,3.25,0,0,0,3.25-3.25V797.41a3.24,3.24,0,0,1,3.25-3.25h8.86a3.24,3.24,0,0,1,3.25,3.25v13.68a3.26,3.26,0,0,0,3.25,3.25H206.6a3.26,3.26,0,0,0,3.25-3.25V797.87a3.24,3.24,0,0,1,3.25-3.25H222a3.24,3.24,0,0,1,3.25,3.25v13.91a3.25,3.25,0,0,0,3.25,3.25H274a3.25,3.25,0,0,0,3.25-3.25V784.11a3.25,3.25,0,0,1,3.25-3.25h8.64a3.24,3.24,0,0,1,3.24,3.25v28.13a3.25,3.25,0,0,0,3.25,3.24h90.27a3.25,3.25,0,0,0,3.25-3.24V783.88a3.24,3.24,0,0,1,3.25-3.25H401a3.24,3.24,0,0,1,3.25,3.25v27.67a3.26,3.26,0,0,0,3.25,3.25h93.25a3.26,3.26,0,0,0,3.25-3.25v-16a3.23,3.23,0,0,1,.95-2.29l11.28-11.28a3.26,3.26,0,0,1,2.3-1h12.72a3.24,3.24,0,0,0,3.24-3.24v-51a3.26,3.26,0,0,1,3.25-3.25H548a3.25,3.25,0,0,1,3.24,3.25v50.83a3.25,3.25,0,0,0,3.25,3.25h38.91a3.24,3.24,0,0,0,3.24-3.25v-18.5a3.25,3.25,0,0,1,3.25-3.24h10a3.24,3.24,0,0,1,3.24,3.24v18.5a3.25,3.25,0,0,0,3.25,3.25h53.12a3.24,3.24,0,0,0,3.25-3.25V726.55a3.25,3.25,0,0,1,3.25-3.24h8.18a3.25,3.25,0,0,1,3.25,3.24v51.06a3.24,3.24,0,0,0,3.25,3.25h47.38a3.24,3.24,0,0,0,3.25-3.25v-18.5a3.25,3.25,0,0,1,3.25-3.24h8.18a3.25,3.25,0,0,1,3.25,3.24v19a3.25,3.25,0,0,0,3.25,3.25h81.78a3.26,3.26,0,0,0,3.25-3.25V686a3.24,3.24,0,0,1,3.25-3.25h18.26a3.24,3.24,0,0,1,3.25,3.25v92.1a3.26,3.26,0,0,0,3.25,3.25H982.16a3.21,3.21,0,0,1,2.29.95l10.83,10.82a3.25,3.25,0,0,1,1,2.3v16.16a3.25,3.25,0,0,0,3.25,3.25H1237.6a3.24,3.24,0,0,0,2.29-1l13.23-13.23a3.24,3.24,0,0,0,1-2.29V776.08a3.25,3.25,0,0,1,3.24-3.25h18.73a3.26,3.26,0,0,1,3.25,3.25v35.7a3.25,3.25,0,0,0,3.25,3.25h17.81a3.25,3.25,0,0,0,3.24-3.25V791.45a3.25,3.25,0,0,1,3.25-3.25h19.42a3.25,3.25,0,0,1,3.25,3.25v20.33a3.25,3.25,0,0,0,3.24,3.25h8a3.26,3.26,0,0,0,2.3-1l16.78-16.78a3.25,3.25,0,0,0,1-2.3V730.45a3.26,3.26,0,0,1,3.25-3.25h17.7a3.26,3.26,0,0,1,3.25,3.25v80.64a3.25,3.25,0,0,0,3.24,3.25h164.63a3.25,3.25,0,0,0,2.3-1l44.76-44.76a3.25,3.25,0,0,0,1-2.3V683a3.25,3.25,0,0,1,3.25-3.25h52.09a3.25,3.25,0,0,1,3.25,3.25v37.07a3.25,3.25,0,0,0,3.25,3.25H1886a3.26,3.26,0,0,0,3.25-3.25V681.31a3.23,3.23,0,0,1,1-2.29l25-25a3.25,3.25,0,0,0,1-2.3V523.33a3.24,3.24,0,0,1,1-2.3l56.27-56.27a3.25,3.25,0,0,1,5.55,2.29V865.66a3.25,3.25,0,0,1-3.25,3.25H-19.41a3.24,3.24,0,0,1-3.25-3.25V708.75a3.22,3.22,0,0,1,.86-2.2l2.12-2.31A3.25,3.25,0,0,1-15,704.15Z" transform="translate(22.66 -463.1)"/><path class="cls-3" d="M926.12,661.84l57.3-57.3a4.71,4.71,0,0,1,3.34-1.39h210.71a4.72,4.72,0,0,1,3.34,1.39l56.73,56.73a4.72,4.72,0,0,1,0,6.67l-56.43,56.43a4.72,4.72,0,0,1-3.33,1.38H1148.5a4.73,4.73,0,0,0-4.72,4.72v45.29a4.72,4.72,0,0,1-4.72,4.72h-14.4a4.72,4.72,0,0,1-4.72-4.72V730.47a4.73,4.73,0,0,0-4.72-4.72H1088a4.72,4.72,0,0,0-4.72,4.72v12.27a4.73,4.73,0,0,1-4.72,4.72h-15a4.72,4.72,0,0,1-4.72-4.72V730.47a4.72,4.72,0,0,0-4.72-4.72H986.72a4.7,4.7,0,0,1-3.29-1.34l-57.27-55.86A4.71,4.71,0,0,1,926.12,661.84Z" transform="translate(22.66 -463.1)"/><rect class="cls-3" x="1446.94" y="592.02" width="70.71" height="70.71" rx="4.61" transform="translate(900.44 -1327.49) rotate(45)"/><path class="cls-3" d="M1746.08,469v51.42a4.81,4.81,0,0,0,1.4,3.4l41.21,41.21a4.76,4.76,0,0,1,1.41,3.4v62.29a4.81,4.81,0,0,0,4.81,4.81h46.95a4.8,4.8,0,0,0,4.8-4.81V525a4.78,4.78,0,0,0-1.41-3.4l-56.9-56.9a4.84,4.84,0,0,0-3.52-1.41l-34.07.9A4.8,4.8,0,0,0,1746.08,469Z" transform="translate(22.66 -463.1)"/><path class="cls-4" d="M-15,703.91l27.72,27.73a3.23,3.23,0,0,1,.95,2.29v44a3.23,3.23,0,0,1-.95,2.29l-17.3,17.3a3.25,3.25,0,0,0-.95,2.3v14.34a3.23,3.23,0,0,0,.95,2.29L7.2,828.2a3.25,3.25,0,0,1,1,2.3v2.6a3.25,3.25,0,0,0,3.25,3.25H90.57a3.25,3.25,0,0,0,3.25-3.25v-3.2a3.24,3.24,0,0,1,1-2.3l12.66-12.66a3.25,3.25,0,0,1,2.3-1h17.53a3.25,3.25,0,0,0,3.25-3.25V797.18a3.24,3.24,0,0,1,3.25-3.25h8.86a3.24,3.24,0,0,1,3.25,3.25v13.68a3.25,3.25,0,0,0,3.25,3.24H206.6a3.25,3.25,0,0,0,3.25-3.24V797.63a3.24,3.24,0,0,1,3.25-3.24H222a3.24,3.24,0,0,1,3.25,3.24v13.91a3.24,3.24,0,0,0,3.25,3.25H274a3.24,3.24,0,0,0,3.25-3.25V783.88a3.25,3.25,0,0,1,3.25-3.25h8.64a3.24,3.24,0,0,1,3.24,3.25V812a3.25,3.25,0,0,0,3.25,3.25h90.27a3.25,3.25,0,0,0,3.25-3.25V783.65a3.24,3.24,0,0,1,3.25-3.25H401a3.24,3.24,0,0,1,3.25,3.25v27.67a3.25,3.25,0,0,0,3.25,3.24h93.25a3.25,3.25,0,0,0,3.25-3.24V795.27A3.21,3.21,0,0,1,505,793l11.28-11.29a3.25,3.25,0,0,1,2.3-1h12.72a3.24,3.24,0,0,0,3.24-3.25V726.55a3.26,3.26,0,0,1,3.25-3.25H548a3.25,3.25,0,0,1,3.24,3.25v50.83a3.26,3.26,0,0,0,3.25,3.25h38.91a3.25,3.25,0,0,0,3.24-3.25v-18.5a3.26,3.26,0,0,1,3.25-3.25h10a3.25,3.25,0,0,1,3.24,3.25v18.5a3.26,3.26,0,0,0,3.25,3.25h53.12a3.25,3.25,0,0,0,3.25-3.25V726.32a3.26,3.26,0,0,1,3.25-3.25h8.18a3.26,3.26,0,0,1,3.25,3.25v51.06a3.25,3.25,0,0,0,3.25,3.25h47.38a3.25,3.25,0,0,0,3.25-3.25v-18.5a3.26,3.26,0,0,1,3.25-3.25h8.18a3.26,3.26,0,0,1,3.25,3.25v19a3.25,3.25,0,0,0,3.25,3.25h81.78a3.26,3.26,0,0,0,3.25-3.25v-92.1a3.24,3.24,0,0,1,3.25-3.25h18.26a3.24,3.24,0,0,1,3.25,3.25v92.1a3.26,3.26,0,0,0,3.25,3.25H982.16a3.21,3.21,0,0,1,2.29.95l10.83,10.82a3.25,3.25,0,0,1,1,2.3v16.16a3.24,3.24,0,0,0,3.25,3.24H1237.6a3.23,3.23,0,0,0,2.29-.95l13.23-13.23a3.25,3.25,0,0,0,1-2.3V775.85a3.25,3.25,0,0,1,3.24-3.25h18.73a3.26,3.26,0,0,1,3.25,3.25v35.69a3.24,3.24,0,0,0,3.25,3.25h17.81a3.24,3.24,0,0,0,3.24-3.25V791.21a3.26,3.26,0,0,1,3.25-3.25h19.42a3.26,3.26,0,0,1,3.25,3.25v20.33a3.24,3.24,0,0,0,3.24,3.25h8a3.25,3.25,0,0,0,2.3-.95l16.78-16.78a3.25,3.25,0,0,0,1-2.3V730.22a3.26,3.26,0,0,1,3.25-3.25h17.7a3.26,3.26,0,0,1,3.25,3.25v80.64a3.24,3.24,0,0,0,3.24,3.24h164.63a3.25,3.25,0,0,0,2.3-1l44.76-44.76a3.23,3.23,0,0,0,1-2.29V682.75a3.25,3.25,0,0,1,3.25-3.24h52.09a3.25,3.25,0,0,1,3.25,3.24v37.07a3.24,3.24,0,0,0,3.25,3.25H1886a3.25,3.25,0,0,0,3.25-3.25V681.08a3.25,3.25,0,0,1,1-2.3l25-25a3.21,3.21,0,0,0,1-2.29V523.09a3.23,3.23,0,0,1,1-2.29l56.27-56.28a3.25,3.25,0,0,1,5.55,2.3V865.43a3.26,3.26,0,0,1-3.25,3.25H-19.41a3.25,3.25,0,0,1-3.25-3.25V708.52a3.2,3.2,0,0,1,.86-2.2l2.12-2.31A3.26,3.26,0,0,1-15,703.91Z" transform="translate(22.66 -463.1)"/><path class="cls-4" d="M926.12,661.6l57.3-57.3a4.74,4.74,0,0,1,3.34-1.38h210.71a4.76,4.76,0,0,1,3.34,1.38L1257.54,661a4.73,4.73,0,0,1,0,6.68l-56.43,56.43a4.72,4.72,0,0,1-3.33,1.38H1148.5a4.72,4.72,0,0,0-4.72,4.72v45.28a4.72,4.72,0,0,1-4.72,4.73h-14.4a4.72,4.72,0,0,1-4.72-4.73V730.24a4.72,4.72,0,0,0-4.72-4.72H1088a4.72,4.72,0,0,0-4.72,4.72v12.27a4.73,4.73,0,0,1-4.72,4.72h-15a4.72,4.72,0,0,1-4.72-4.72V730.24a4.72,4.72,0,0,0-4.72-4.72H986.72a4.7,4.7,0,0,1-3.29-1.34l-57.27-55.86A4.73,4.73,0,0,1,926.12,661.6Z" transform="translate(22.66 -463.1)"/><path class="cls-4" d="M1479,673.88l-43.48-43.48a4.61,4.61,0,0,1,0-6.52L1479,580.4a4.61,4.61,0,0,1,6.52,0L1529,623.88a4.61,4.61,0,0,1,0,6.52l-43.48,43.48A4.61,4.61,0,0,1,1479,673.88Z" transform="translate(22.66 -463.1)"/><path class="cls-4" d="M1746.08,468.8v51.42a4.79,4.79,0,0,0,1.4,3.39l41.21,41.21a4.8,4.8,0,0,1,1.41,3.4v62.3a4.81,4.81,0,0,0,4.81,4.81h46.95a4.8,4.8,0,0,0,4.8-4.81V524.81a4.76,4.76,0,0,0-1.41-3.4l-56.9-56.9a4.84,4.84,0,0,0-3.52-1.41l-34.07.9A4.79,4.79,0,0,0,1746.08,468.8Z" transform="translate(22.66 -463.1)"/></svg>