<svg id="wall_layer" data-name="wall layer" xmlns="http://www.w3.org/2000/svg" xmlns:xlink="http://www.w3.org/1999/xlink" viewBox="0 0 2014.94 413.62"><defs><style>.cls-1,.cls-2{fill:none;}.cls-2{stroke:#1c0c3e;stroke-miterlimit:10;stroke-width:5px;}.cls-3{fill:#1e1033;}.cls-4{fill:url(#jd);}</style><pattern id="jd" data-name="jd" width="158.82" height="321.59" patternUnits="userSpaceOnUse" viewBox="0 0 158.82 321.59"><rect class="cls-1" width="158.82" height="321.59"/><line class="cls-2" x1="660.83" y1="891.83" x2="133.27" y2="72.95"/><line class="cls-2" x1="629.06" y1="891.83" x2="101.5" y2="72.95"/><line class="cls-2" x1="597.3" y1="891.83" x2="69.74" y2="72.95"/><line class="cls-2" x1="565.54" y1="891.83" x2="37.98" y2="72.95"/><line class="cls-2" x1="533.77" y1="891.83" x2="6.21" y2="72.95"/><line class="cls-2" x1="502.01" y1="891.83" x2="-25.55" y2="72.95"/><line class="cls-2" x1="470.24" y1="891.83" x2="-57.32" y2="72.95"/><line class="cls-2" x1="438.48" y1="891.83" x2="-89.08" y2="72.95"/><line class="cls-2" x1="406.72" y1="891.83" x2="-120.84" y2="72.95"/><line class="cls-2" x1="374.95" y1="891.83" x2="-152.61" y2="72.95"/><line class="cls-2" x1="343.19" y1="891.83" x2="-184.37" y2="72.95"/><line class="cls-2" x1="311.43" y1="891.83" x2="-216.13" y2="72.95"/><line class="cls-2" x1="279.66" y1="891.83" x2="-247.9" y2="72.95"/><line class="cls-2" x1="247.9" y1="891.83" x2="-279.66" y2="72.95"/><line class="cls-2" x1="216.13" y1="891.83" x2="-311.43" y2="72.95"/><line class="cls-2" x1="184.37" y1="891.83" x2="-343.19" y2="72.95"/><line class="cls-2" x1="152.61" y1="891.83" x2="-374.95" y2="72.95"/><line class="cls-2" x1="120.84" y1="891.83" x2="-406.72" y2="72.95"/><line class="cls-2" x1="89.08" y1="891.83" x2="-438.48" y2="72.95"/><line class="cls-2" x1="57.32" y1="891.83" x2="-470.24" y2="72.95"/><line class="cls-2" x1="25.55" y1="891.83" x2="-502.01" y2="72.95"/><line class="cls-2" x1="660.83" y1="570.24" x2="133.27" y2="-248.65"/><line class="cls-2" x1="629.06" y1="570.24" x2="101.5" y2="-248.65"/><line class="cls-2" x1="597.3" y1="570.24" x2="69.74" y2="-248.65"/><line class="cls-2" x1="565.54" y1="570.24" x2="37.98" y2="-248.65"/><line class="cls-2" x1="533.77" y1="570.24" x2="6.21" y2="-248.65"/><line class="cls-2" x1="502.01" y1="570.24" x2="-25.55" y2="-248.65"/><line class="cls-2" x1="470.24" y1="570.24" x2="-57.32" y2="-248.65"/><line class="cls-2" x1="438.48" y1="570.24" x2="-89.08" y2="-248.65"/><line class="cls-2" x1="406.72" y1="570.24" x2="-120.84" y2="-248.65"/><line class="cls-2" x1="374.95" y1="570.24" x2="-152.61" y2="-248.65"/><line class="cls-2" x1="343.19" y1="570.24" x2="-184.37" y2="-248.65"/><line class="cls-2" x1="311.43" y1="570.24" x2="-216.13" y2="-248.65"/><line class="cls-2" x1="279.66" y1="570.24" x2="-247.9" y2="-248.65"/><line class="cls-2" x1="247.9" y1="570.24" x2="-279.66" y2="-248.65"/><line class="cls-2" x1="216.13" y1="570.24" x2="-311.43" y2="-248.65"/><line class="cls-2" x1="184.37" y1="570.24" x2="-343.19" y2="-248.65"/><line class="cls-2" x1="152.61" y1="570.24" x2="-374.95" y2="-248.65"/><line class="cls-2" x1="120.84" y1="570.24" x2="-406.72" y2="-248.65"/><line class="cls-2" x1="89.08" y1="570.24" x2="-438.48" y2="-248.65"/><line class="cls-2" x1="57.32" y1="570.24" x2="-470.24" y2="-248.65"/><line class="cls-2" x1="25.55" y1="570.24" x2="-502.01" y2="-248.65"/><line class="cls-2" x1="660.83" y1="248.65" x2="133.27" y2="-570.24"/><line class="cls-2" x1="629.06" y1="248.65" x2="101.5" y2="-570.24"/><line class="cls-2" x1="597.3" y1="248.65" x2="69.74" y2="-570.24"/><line class="cls-2" x1="565.54" y1="248.65" x2="37.98" y2="-570.24"/><line class="cls-2" x1="533.77" y1="248.65" x2="6.21" y2="-570.24"/><line class="cls-2" x1="502.01" y1="248.65" x2="-25.55" y2="-570.24"/><line class="cls-2" x1="470.24" y1="248.65" x2="-57.32" y2="-570.24"/><line class="cls-2" x1="438.48" y1="248.65" x2="-89.08" y2="-570.24"/><line class="cls-2" x1="406.72" y1="248.65" x2="-120.84" y2="-570.24"/><line class="cls-2" x1="374.95" y1="248.65" x2="-152.61" y2="-570.24"/><line class="cls-2" x1="343.19" y1="248.65" x2="-184.37" y2="-570.24"/><line class="cls-2" x1="311.43" y1="248.65" x2="-216.13" y2="-570.24"/><line class="cls-2" x1="279.66" y1="248.65" x2="-247.9" y2="-570.24"/><line class="cls-2" x1="247.9" y1="248.65" x2="-279.66" y2="-570.24"/><line class="cls-2" x1="216.13" y1="248.65" x2="-311.43" y2="-570.24"/><line class="cls-2" x1="184.37" y1="248.65" x2="-343.19" y2="-570.24"/><line class="cls-2" x1="152.61" y1="248.65" x2="-374.95" y2="-570.24"/><line class="cls-2" x1="120.84" y1="248.65" x2="-406.72" y2="-570.24"/><line class="cls-2" x1="89.08" y1="248.65" x2="-438.48" y2="-570.24"/><line class="cls-2" x1="57.32" y1="248.65" x2="-470.24" y2="-570.24"/><line class="cls-2" x1="25.55" y1="248.65" x2="-502.01" y2="-570.24"/></pattern></defs><path class="cls-3" d="M1998.24-3.6l-472.63-.88a10.15,10.15,0,0,0-9.8,12.83l3.87,14.13a9.85,9.85,0,0,1,.36,3l-1.28,46.64a10.29,10.29,0,0,1-.75,3.54l-15.49,38.1a9.93,9.93,0,0,1-2.26,3.39L1459,157.91a10.17,10.17,0,0,0-2.83,5.33l-11.78,62.7a10.14,10.14,0,0,1-2.09,4.52L1426,250.65a10,10,0,0,1-4.26,3.09l-15.1,5.75a10,10,0,0,1-3.33.66c-6.92.19-32.47.88-34.06.88-1.17,0-5,4.53-7.58,7.78a10.1,10.1,0,0,1-6.69,3.74c-8.12,1-25.36,3-27.46,2.69-2.33-.39-15.87-19.23-19.94-25a10.09,10.09,0,0,1-1.6-3.57L1299.24,218a10.12,10.12,0,0,0-2.71-4.87l-74.61-74.62a10.13,10.13,0,0,1-1.47-1.85l-19.68-32a10.14,10.14,0,0,0-4.7-4l-19.45-8.19a10.18,10.18,0,0,1-5.33-5.22L1161,64.06a10.15,10.15,0,0,0-9.53-6l-4.25.12a10.13,10.13,0,0,0-9,6l-8,18.09a10.07,10.07,0,0,1-.87,1.57l-6.11,9a10.13,10.13,0,0,1-17.34-.91L1100,81a10.11,10.11,0,0,0-7.2-5.21l-8.28-1.45a10.14,10.14,0,0,0-8.92,2.82l-15.73,15.73c-.17.17-.34.35-.5.53l-17.36,20.07a10.15,10.15,0,0,1-7.67,3.51h-2.28a10.16,10.16,0,0,0-7,2.84l-76.19,73.59a10.18,10.18,0,0,0-2.38,3.56L930.34,237.8a10.15,10.15,0,0,1-4.74,5.26c-7.28,3.8-24,12.46-25.08,12.46s-9.28-6.6-13.9-10.33a10.15,10.15,0,0,0-7.06-2.24l-5.1.34a10.11,10.11,0,0,0-7.46,4.06l-26.09,35.06a10.49,10.49,0,0,1-1,1.18L820.09,303a10.14,10.14,0,0,1-9.36,2.65l-17.34-3.95a10.13,10.13,0,0,1-5.6-3.47l-6.5-8a10.14,10.14,0,0,0-9.42-3.59l-6.73,1.05a10.26,10.26,0,0,0-4.06,1.58l-13.55,9a10.28,10.28,0,0,1-5.45,1.7l-20.16.35a10.11,10.11,0,0,1-5.56-1.54l-9-5.59a10.14,10.14,0,0,0-12.55,1.43l-17.38,17.37a10.09,10.09,0,0,1-7.38,3l-15.48-.31a10.18,10.18,0,0,1-5-1.42l-16.47-9.76a10.16,10.16,0,0,0-11.47.77l-13.67,10.83a10.18,10.18,0,0,1-6.53,2.19l-12.1-.27a10.16,10.16,0,0,1-7.36-3.42l-9.39-10.59a10.14,10.14,0,0,0-16.31,1.55l-7.07,11.91a10.14,10.14,0,0,1-5.4,4.41C527.54,326.58,459.64,350,458.43,350s-23.29-11.26-33.28-16.35a10.12,10.12,0,0,0-9.49.15c-9.22,5.07-29,15.85-31.07,16.2-2.27.38-38.91,3.26-51.63,4.25a10.11,10.11,0,0,1-7.55-2.55l-12.72-11.36a10.12,10.12,0,0,0-12-1.11l-14.58,8.87a10.29,10.29,0,0,1-5.18,1.47L133.76,350.9a10.14,10.14,0,0,0-2.74.4L90.9,363a10,10,0,0,0-2.25,1L75,371.8a10.08,10.08,0,0,1-5.88,1.33l-7.66-.6a10.16,10.16,0,0,1-8.79-6.8l-9.77-28.25a10.18,10.18,0,0,1-.35-5.33L48,305.33a10.17,10.17,0,0,0,0-4.22l-4.42-19.9a10.14,10.14,0,0,0-2.57-4.8l-29.7-31.1a10.15,10.15,0,0,0-17.48,7l-.37,144A10.16,10.16,0,0,0,3.56,406.42l1989.85,2.72a10.15,10.15,0,0,0,10.16-10l4.8-392.46A10.15,10.15,0,0,0,1998.24-3.6ZM1860,258.31l-109.53.87a4,4,0,0,1-2-.49l-22-11.83a4.06,4.06,0,0,1-1.52-1.42L1718,234.5a4.1,4.1,0,0,0-3.47-1.91h-5.93a4.14,4.14,0,0,1-3.13-1.44l-6-7.09a4.07,4.07,0,0,0-1.29-1l-19.43-9.72a4.08,4.08,0,0,0-1.94-.43l-52.37,1.31a4,4,0,0,0-2.8,1.2l-9.5,9.5a4.14,4.14,0,0,1-3.05,1.2l-9.63-.36a4.17,4.17,0,0,1-1.82-.5l-21.35-11.73a4.11,4.11,0,0,1-1.75-1.87L1566.86,195l-13-28.09a53.23,53.23,0,0,0-10.68-15.3l-1.16-1.16a4.11,4.11,0,0,1-1.11-2L1536.71,129a3.84,3.84,0,0,1-.09-1.07l1.29-25.71a4,4,0,0,1,.82-2.27l15.56-20.62a4.1,4.1,0,0,1,5-1.23l6.56,3.13a4.16,4.16,0,0,0,2,.4l3.43-.22a4.09,4.09,0,0,0,3.67-2.91l6.15-20.38a4.13,4.13,0,0,1,1.33-2l20.72-17a4.06,4.06,0,0,1,2.86-.92l10.66.66a4.11,4.11,0,0,1,3.44,2.32l4.18,8.65a4.1,4.1,0,0,0,4,2.31l1.45-.09a4.12,4.12,0,0,0,3.77-3.27l3.28-16a4,4,0,0,1,.94-1.88l21.39-24.33a4.14,4.14,0,0,1,3.21-1.4c4.67.15,16.23.59,17.33,1.32,1.37.92,10.54,16.51,10.54,18.35,0,1.41.55,16.48.8,23.29A4.11,4.11,0,0,0,1694.4,52l8.31,1.48a4.09,4.09,0,0,0,2.44-.31l9.75-4.5a4,4,0,0,1,2.11-.36c3.57.34,14.56,1.5,15,2.65s4.45,17,5,19a3.89,3.89,0,0,1,.09.47l1.9,14a4.1,4.1,0,0,0,3,3.42l.71.19a4.1,4.1,0,0,0,4.87-2.44l.12-.28a4.08,4.08,0,0,1,4.67-2.48l11.86,2.56a4.13,4.13,0,0,1,2.64,1.88l11.2,18.41a4.07,4.07,0,0,1,.58,2.55l-1.29,12.61a4.09,4.09,0,0,0,3.47,4.48l2.91.44a4.11,4.11,0,0,0,3.86-1.56l1.11-1.43a4.09,4.09,0,0,1,5-1.21l9.8,4.59a4.09,4.09,0,0,1,2.29,2.94l6.38,33.1a4.09,4.09,0,0,0,3.5,3.29l4.2.55a4.12,4.12,0,0,1,3.57,3.88l.66,14.31a4.08,4.08,0,0,0,1.7,3.13l3.24,2.35a4.12,4.12,0,0,0,5.79-1,4.1,4.1,0,0,1,6.14-.71l6.1,5.54a4,4,0,0,1,.84,1.08c1.75,3.21,9.76,18.18,9.76,21.86,0,3-.7,10.1-1.1,14a4.12,4.12,0,0,0,1.93,3.92l2,1.25a4.11,4.11,0,0,1,1.93,3.06l1.6,15.05A4.1,4.1,0,0,1,1860,258.31Z" transform="translate(6.57 4.48)"/><path class="cls-4" d="M1998.24-3.6l-472.63-.88a10.15,10.15,0,0,0-9.8,12.83l3.87,14.13a9.85,9.85,0,0,1,.36,3l-1.28,46.64a10.29,10.29,0,0,1-.75,3.54l-15.49,38.1a9.93,9.93,0,0,1-2.26,3.39L1459,157.91a10.17,10.17,0,0,0-2.83,5.33l-11.78,62.7a10.14,10.14,0,0,1-2.09,4.52L1426,250.65a10,10,0,0,1-4.26,3.09l-15.1,5.75a10,10,0,0,1-3.33.66c-6.92.19-32.47.88-34.06.88-1.17,0-5,4.53-7.58,7.78a10.1,10.1,0,0,1-6.69,3.74c-8.12,1-25.36,3-27.46,2.69-2.33-.39-15.87-19.23-19.94-25a10.09,10.09,0,0,1-1.6-3.57L1299.24,218a10.12,10.12,0,0,0-2.71-4.87l-74.61-74.62a10.13,10.13,0,0,1-1.47-1.85l-19.68-32a10.14,10.14,0,0,0-4.7-4l-19.45-8.19a10.18,10.18,0,0,1-5.33-5.22L1161,64.06a10.15,10.15,0,0,0-9.53-6l-4.25.12a10.13,10.13,0,0,0-9,6l-8,18.09a10.07,10.07,0,0,1-.87,1.57l-6.11,9a10.13,10.13,0,0,1-17.34-.91L1100,81a10.11,10.11,0,0,0-7.2-5.21l-8.28-1.45a10.14,10.14,0,0,0-8.92,2.82l-15.73,15.73c-.17.17-.34.35-.5.53l-17.36,20.07a10.15,10.15,0,0,1-7.67,3.51h-2.28a10.16,10.16,0,0,0-7,2.84l-76.19,73.59a10.18,10.18,0,0,0-2.38,3.56L930.34,237.8a10.15,10.15,0,0,1-4.74,5.26c-7.28,3.8-24,12.46-25.08,12.46s-9.28-6.6-13.9-10.33a10.15,10.15,0,0,0-7.06-2.24l-5.1.34a10.11,10.11,0,0,0-7.46,4.06l-26.09,35.06a10.49,10.49,0,0,1-1,1.18L820.09,303a10.14,10.14,0,0,1-9.36,2.65l-17.34-3.95a10.13,10.13,0,0,1-5.6-3.47l-6.5-8a10.14,10.14,0,0,0-9.42-3.59l-6.73,1.05a10.26,10.26,0,0,0-4.06,1.58l-13.55,9a10.28,10.28,0,0,1-5.45,1.7l-20.16.35a10.11,10.11,0,0,1-5.56-1.54l-9-5.59a10.14,10.14,0,0,0-12.55,1.43l-17.38,17.37a10.09,10.09,0,0,1-7.38,3l-15.48-.31a10.18,10.18,0,0,1-5-1.42l-16.47-9.76a10.16,10.16,0,0,0-11.47.77l-13.67,10.83a10.18,10.18,0,0,1-6.53,2.19l-12.1-.27a10.16,10.16,0,0,1-7.36-3.42l-9.39-10.59a10.14,10.14,0,0,0-16.31,1.55l-7.07,11.91a10.14,10.14,0,0,1-5.4,4.41C527.54,326.58,459.64,350,458.43,350s-23.29-11.26-33.28-16.35a10.12,10.12,0,0,0-9.49.15c-9.22,5.07-29,15.85-31.07,16.2-2.27.38-38.91,3.26-51.63,4.25a10.11,10.11,0,0,1-7.55-2.55l-12.72-11.36a10.12,10.12,0,0,0-12-1.11l-14.58,8.87a10.29,10.29,0,0,1-5.18,1.47L133.76,350.9a10.14,10.14,0,0,0-2.74.4L90.9,363a10,10,0,0,0-2.25,1L75,371.8a10.08,10.08,0,0,1-5.88,1.33l-7.66-.6a10.16,10.16,0,0,1-8.79-6.8l-9.77-28.25a10.18,10.18,0,0,1-.35-5.33L48,305.33a10.17,10.17,0,0,0,0-4.22l-4.42-19.9a10.14,10.14,0,0,0-2.57-4.8l-29.7-31.1a10.15,10.15,0,0,0-17.48,7l-.37,144A10.16,10.16,0,0,0,3.56,406.42l1989.85,2.72a10.15,10.15,0,0,0,10.16-10l4.8-392.46A10.15,10.15,0,0,0,1998.24-3.6ZM1860,258.31l-109.53.87a4,4,0,0,1-2-.49l-22-11.83a4.06,4.06,0,0,1-1.52-1.42L1718,234.5a4.1,4.1,0,0,0-3.47-1.91h-5.93a4.14,4.14,0,0,1-3.13-1.44l-6-7.09a4.07,4.07,0,0,0-1.29-1l-19.43-9.72a4.08,4.08,0,0,0-1.94-.43l-52.37,1.31a4,4,0,0,0-2.8,1.2l-9.5,9.5a4.14,4.14,0,0,1-3.05,1.2l-9.63-.36a4.17,4.17,0,0,1-1.82-.5l-21.35-11.73a4.11,4.11,0,0,1-1.75-1.87L1566.86,195l-13-28.09a53.23,53.23,0,0,0-10.68-15.3l-1.16-1.16a4.11,4.11,0,0,1-1.11-2L1536.71,129a3.84,3.84,0,0,1-.09-1.07l1.29-25.71a4,4,0,0,1,.82-2.27l15.56-20.62a4.1,4.1,0,0,1,5-1.23l6.56,3.13a4.16,4.16,0,0,0,2,.4l3.43-.22a4.09,4.09,0,0,0,3.67-2.91l6.15-20.38a4.13,4.13,0,0,1,1.33-2l20.72-17a4.06,4.06,0,0,1,2.86-.92l10.66.66a4.11,4.11,0,0,1,3.44,2.32l4.18,8.65a4.1,4.1,0,0,0,4,2.31l1.45-.09a4.12,4.12,0,0,0,3.77-3.27l3.28-16a4,4,0,0,1,.94-1.88l21.39-24.33a4.14,4.14,0,0,1,3.21-1.4c4.67.15,16.23.59,17.33,1.32,1.37.92,10.54,16.51,10.54,18.35,0,1.41.55,16.48.8,23.29A4.11,4.11,0,0,0,1694.4,52l8.31,1.48a4.09,4.09,0,0,0,2.44-.31l9.75-4.5a4,4,0,0,1,2.11-.36c3.57.34,14.56,1.5,15,2.65s4.45,17,5,19a3.89,3.89,0,0,1,.09.47l1.9,14a4.1,4.1,0,0,0,3,3.42l.71.19a4.1,4.1,0,0,0,4.87-2.44l.12-.28a4.08,4.08,0,0,1,4.67-2.48l11.86,2.56a4.13,4.13,0,0,1,2.64,1.88l11.2,18.41a4.07,4.07,0,0,1,.58,2.55l-1.29,12.61a4.09,4.09,0,0,0,3.47,4.48l2.91.44a4.11,4.11,0,0,0,3.86-1.56l1.11-1.43a4.09,4.09,0,0,1,5-1.21l9.8,4.59a4.09,4.09,0,0,1,2.29,2.94l6.38,33.1a4.09,4.09,0,0,0,3.5,3.29l4.2.55a4.12,4.12,0,0,1,3.57,3.88l.66,14.31a4.08,4.08,0,0,0,1.7,3.13l3.24,2.35a4.12,4.12,0,0,0,5.79-1,4.1,4.1,0,0,1,6.14-.71l6.1,5.54a4,4,0,0,1,.84,1.08c1.75,3.21,9.76,18.18,9.76,21.86,0,3-.7,10.1-1.1,14a4.12,4.12,0,0,0,1.93,3.92l2,1.25a4.11,4.11,0,0,1,1.93,3.06l1.6,15.05A4.1,4.1,0,0,1,1860,258.31Z" transform="translate(6.57 4.48)"/></svg>