<?xml version="1.0" encoding="UTF-8"?><svg id="a" xmlns="http://www.w3.org/2000/svg" viewBox="0 0 2001.612 405.581"><defs><style>.c{fill:#d25e5e;}.d{fill:none;}.e{fill:#d15656;}</style></defs><g id="b"><path class="d" d="M764.026,314.277h0v-.35l-1.812,3.25c1.107-.543,1.809-1.667,1.812-2.9Z"/><path class="d" d="M863.733,317.98c1.794,0,3.248-1.454,3.248-3.248v-7.8l-6.157,11.044,2.909,.004Z"/><path class="d" d="M1908.65,259.971c1.794,0,3.248-1.454,3.248-3.248h0v-14.356l-9.815,17.6,6.567,.004Z"/><polygon class="d" points="866.981 247.713 827.805 317.98 846.181 317.98 866.981 280.674 866.981 247.713"/><path class="d" d="M528.733,328.79l10.2-10.2c.61-.61,1.437-.953,2.3-.952h12.094l3.873-6.946v-32.962l-28.467,51.06Z"/><path class="d" d="M523.452,351.462c1.794,0,3.248-1.454,3.249-3.248v-15.779l-10.608,19.027h7.359Z"/><path class="d" d="M1623.564,233.919l-65.278,117.079h17.266c.429,0,.854-.084,1.25-.249l46.762-83.871v-32.959Z"/><path class="d" d="M1275.791,337.279c.61-.61,.952-1.437,.951-2.3v-7.073l-10.612,19.033,9.661-9.66Z"/><path class="d" d="M1622.613,305.289c.61-.61,.952-1.438,.951-2.3v-9.847l-14.108,25.3,13.157-13.153Z"/><path class="d" d="M296.675,351.691c1.794,0,3.248-1.454,3.249-3.248v-18.887l-12.341,22.135h9.092Z"/><path class="d" d="M18.093,334.403c-.61,.61-.953,1.437-.952,2.3v7.408l11.033-19.789-10.081,10.081Z"/><path class="d" d="M1363.447,351.691c.863,.001,1.69-.341,2.3-.951l16.785-16.785c.611-.609,.953-1.437,.952-2.3v-17.533l-20.946,37.569h.909Z"/><path class="e" d="M1301.965,312.749c0-1.794-1.454-3.248-3.248-3.249h-11.717l-10.262,18.406v7.073c0,.863-.341,1.69-.951,2.3l-9.661,9.66-32.7,58.642h18.377l50.153-89.955,.009-2.877Z"/><path class="e" d="M1407.675,270.733l-24.191,43.389v17.533c.001,.863-.341,1.69-.952,2.3l-16.785,16.785c-.61,.61-1.438,.952-2.3,.951h-.909l-30.046,53.89h15.625l59.558-106.823v-28.025Z"/><polygon class="e" points="1231.966 351.461 1201.792 405.581 1218.793 405.581 1248.967 351.461 1231.966 351.461"/><polygon class="e" points="1198.947 351.461 1168.772 405.581 1187.149 405.581 1217.323 351.461 1198.947 351.461"/><polygon class="e" points="1165.927 351.461 1135.753 405.581 1154.13 405.581 1184.304 351.461 1165.927 351.461"/><path class="e" d="M1410.923,350.998c-1.794,0-3.248-1.454-3.248-3.248h0v-22.729l-44.915,80.56h18.377l30.431-54.583h-.645Z"/><polygon class="e" points="1459.229 351 1428.798 405.581 1447.175 405.581 1477.606 351 1459.229 351"/><path class="e" d="M1305.213,351.691c-1.794,0-3.248-1.454-3.248-3.248h0v-6.555l-35.511,63.693h18.377l30.046-53.89h-9.664Z"/><polygon class="e" points="1036.603 351.461 1006.429 405.581 1024.805 405.581 1054.979 351.461 1036.603 351.461"/><polygon class="e" points="1426.21 351 1395.779 405.581 1414.156 405.581 1444.587 351 1426.21 351"/><polygon class="e" points="1132.908 351.461 1102.734 405.581 1121.111 405.581 1151.285 351.461 1132.908 351.461"/><polygon class="e" points="924.11 317.98 875.269 405.581 893.646 405.581 942.487 317.98 924.11 317.98"/><path class="e" d="M1352.181,328.112c0-1.794-1.454-3.248-3.248-3.249h-4.456l-45,80.718h18.377l34.331-61.577-.004-15.892Z"/><polygon class="e" points="957.129 317.98 908.288 405.581 926.665 405.581 975.506 317.98 957.129 317.98"/><path class="e" d="M1004.82,317.98h-14.671l-48.841,87.6h17.459l48.324-86.673c-.606-.594-1.422-.927-2.271-.927Z"/><polygon class="e" points="1102.641 351.461 1072.467 405.581 1088.092 405.581 1118.266 351.461 1102.641 351.461"/><path class="e" d="M1018.9,348.213v-16.158c.001-.863-.341-1.69-.952-2.3l-1.449-1.449-43.085,77.275h18.377l30.184-54.138c-1.721-.087-3.073-1.507-3.075-3.23Z"/><polygon class="e" points="1069.622 351.461 1039.448 405.581 1057.824 405.581 1087.999 351.461 1069.622 351.461"/><path class="e" d="M1386.732,263.867c-1.794,0-3.248,1.454-3.248,3.248h0v20.744l13.377-23.992h-10.129Z"/><path class="e" d="M894.994,317.98c-1.231-.001-2.355-.701-2.9-1.805l-49.844,89.406h18.377l48.841-87.6h-14.474Z"/><path class="e" d="M1329.519,324.863c-1.794,0-3.248,1.455-3.248,3.249v3.142l3.563-6.391h-.315Z"/><polygon class="e" points="350.613 352.15 320.823 405.581 339.2 405.581 368.99 352.15 350.613 352.15"/><polygon class="e" points="254.564 351.691 224.518 405.581 242.895 405.581 272.94 351.691 254.564 351.691"/><path class="e" d="M315.057,320.774c0-1.794-1.454-3.248-3.248-3.248h-5.178l-6.707,12.03v18.887c0,1.794-1.455,3.248-3.249,3.248h-9.092l-30.046,53.89h18.377l39.143-70.207v-14.6Z"/><path class="e" d="M247.873,334.532c0-1.794-1.456-3.249-3.25-3.248h-8.866c-1.794,0-3.248,1.454-3.248,3.248v13.223c0,1.794-1.455,3.248-3.249,3.248h-7.332l-30.428,54.578h18.376l38-68.152-.003-2.897Z"/><polygon class="e" points="320.346 352.15 290.556 405.581 306.181 405.581 335.971 352.15 320.346 352.15"/><polygon class="e" points="1492.248 351 1461.817 405.581 1480.194 405.581 1510.625 351 1492.248 351"/><path class="e" d="M415.07,317.298c-1.794,0-3.248,1.455-3.248,3.249v14l9.62-17.254-6.372,.005Z"/><path class="e" d="M891.745,262.52l-24.764,44.416v7.8c0,1.794-1.454,3.248-3.248,3.248h-2.909l-48.841,87.6h15.625l64.137-115.036v-28.028Z"/><polygon class="e" points="190.285 351.003 159.855 405.581 176.856 405.581 207.286 351.003 190.285 351.003"/><polygon class="e" points="48.557 373.248 30.531 405.581 46.156 405.581 64.183 373.248 48.557 373.248"/><polygon class="e" points="17.73 250.871 0 282.671 0 315.632 29.529 262.669 17.73 250.871"/><path class="e" d="M17.141,336.703c0-.863,.342-1.69,.952-2.3l10.081-10.081,8.17-14.653v-32.961L0,341.898v32.96l17.141-30.744v-7.411Z"/><path class="e" d="M7.669,240.812c-.032-.032-.065-.064-.1-.095-1.32-1.214-3.374-1.128-4.588,.192h-.001l-2.122,2.308c-.552,.6-.858,1.385-.858,2.2v10.992l8.328-14.938-.659-.659Z"/><path class="e" d="M30.811,369.998v-2.6c.001-.863-.341-1.69-.951-2.3l-6.278-6.279L0,401.117v1.215c0,1.794,1.455,3.249,3.249,3.249H15.888l18.035-32.347c-1.737-.07-3.11-1.497-3.112-3.236Z"/><polygon class="e" points="78.825 373.248 60.798 405.581 79.175 405.581 97.202 373.248 78.825 373.248"/><path class="e" d="M132.392,350.891c-.863-.001-1.69,.341-2.3,.951l-12.657,12.656c-.611,.609-.953,1.437-.952,2.3v3.2c0,1.794-1.454,3.248-3.248,3.248h-1.391l-18.027,32.335h18.377l30.492-54.69h-10.294Z"/><path class="e" d="M430.2,351.462c-1.794,0-3.248-1.454-3.248-3.248v-14.546l-40.094,71.913h18.376l30.174-54.119h-5.208Z"/><path class="e" d="M171.786,351.003c-1.794,0-3.248-1.454-3.249-3.248v-13.682l-3.248-3.248-38.453,74.756h18.377l30.429-54.578h-3.856Z"/><polygon class="e" points="383.632 352.15 353.843 405.581 372.219 405.581 402.009 352.15 383.632 352.15"/><polygon class="e" points="730.376 317.526 681.282 405.581 698.283 405.581 747.377 317.526 730.376 317.526"/><path class="e" d="M778.7,314.732v-18.952c-.003-1.607-1.183-2.968-2.773-3.2l-11.9,21.347v.35h0c-.003,1.233-.705,2.357-1.812,2.9l-49.289,88.4h18.374l49.076-88.023c-1.03-.566-1.672-1.647-1.676-2.822Z"/><path class="e" d="M713.389,317.526c-1.794,0-3.249-1.455-3.249-3.249h0v-19.679l-61.877,110.983h18.377l49.094-88.055h-2.345Z"/><path class="e" d="M710.14,263.22c0-1.794-1.454-3.248-3.248-3.249h-8.178c-1.794,0-3.249,1.455-3.249,3.249h0v31.437l14.675-26.321v-5.116Z"/><polygon class="e" points="827.805 317.98 778.964 405.581 797.34 405.581 846.181 317.98 827.805 317.98"/><polygon class="e" points="664.336 317.529 615.244 405.581 633.621 405.581 682.713 317.529 664.336 317.529"/><polygon class="e" points="794.786 317.98 745.945 405.581 764.321 405.581 813.162 317.98 794.786 317.98"/><polygon class="e" points="450.054 351.462 419.881 405.581 438.258 405.581 468.431 351.462 450.054 351.462"/><path class="e" d="M866.981,280.674l24.764-44.417v-13.625c0-1.794-1.454-3.248-3.248-3.248h-5.721l-15.795,28.329v32.961Z"/><path class="e" d="M557.2,310.691l16.738-30.022v-17.22c0-1.794-1.454-3.248-3.248-3.248h-3.717l-9.773,17.529v32.961Z"/><polygon class="e" points="483.073 351.462 452.9 405.581 471.277 405.581 501.45 351.462 483.073 351.462"/><path class="e" d="M541.234,317.637c-.863,0-1.69,.342-2.3,.952l-10.2,10.2-2.032,3.645v15.779c0,1.794-1.455,3.248-3.249,3.248h-7.359l-30.174,54.119h18.38l49.032-87.944h-12.098Z"/><path class="e" d="M639.1,317.529c-1.794,0-3.249-1.455-3.249-3.249h0v-4.876l-53.622,96.177h18.371l49.092-88.052h-10.592Z"/><path class="e" d="M577.188,317.526c-1.794,0-3.249-1.455-3.249-3.249h0v-7.345l-55,98.649h18.377l49.094-88.055h-9.222Z"/><path class="e" d="M622.586,292.532c-1.793,0-3.247,1.452-3.249,3.245v16.977l11.275-20.222h-8.026Z"/><path class="e" d="M616.088,317.526h-15.037l-49.094,88.055h15.625l49.13-88.118c-.205,.041-.414,.062-.624,.063Z"/><polygon class="e" points="1623.564 266.879 1651.705 216.405 1633.328 216.405 1623.564 233.919 1623.564 266.879"/><polygon class="e" points="1738.364 259.971 1657.18 405.581 1675.557 405.581 1756.74 259.971 1738.364 259.971"/><polygon class="e" points="2001.612 254.189 1917.206 405.581 1935.582 405.581 2001.612 287.15 2001.612 254.189"/><polygon class="e" points="1938.841 167.779 2001.612 55.193 2001.612 22.233 1938.841 134.819 1938.841 167.779"/><polygon class="e" points="1804.402 259.971 1723.218 405.581 1740.219 405.581 1821.403 259.971 1804.402 259.971"/><polygon class="e" points="1771.383 259.971 1690.199 405.581 1708.576 405.581 1789.759 259.971 1771.383 259.971"/><polygon class="e" points="1705.344 259.971 1624.161 405.581 1642.538 405.581 1723.721 259.971 1705.344 259.971"/><path class="e" d="M1575.552,350.998h-17.266l-30.431,54.581h18.377l30.57-54.83c-.396,.165-.821,.249-1.25,.249Z"/><polygon class="e" points="2001.612 313.412 1950.225 405.581 1968.602 405.581 2001.612 346.373 2001.612 313.412"/><path class="e" d="M1682.15,219.653h0c0-1.794-1.454-3.248-3.248-3.248h-12.555l-42.783,76.737v9.847c0,.862-.341,1.69-.951,2.3l-13.157,13.157-48.581,87.135h18.376l102.9-184.558v-1.37Z"/><path class="e" d="M1685.4,259.971c-1.794,0-3.248-1.454-3.249-3.248v-9.438l-88.256,158.3h15.625l81.183-145.61-5.303-.004Z"/><polygon class="e" points="1869.064 259.971 1787.881 405.581 1806.258 405.581 1887.441 259.971 1869.064 259.971"/><path class="e" d="M1983.244,405.581h15.119c1.794,0,3.249-1.455,3.249-3.249h0v-29.7l-18.368,32.949Z"/><polygon class="e" points="2001.612 140.679 1853.919 405.581 1869.544 405.581 2001.612 168.704 2001.612 140.679"/><polygon class="e" points="1836.045 259.971 1754.862 405.581 1773.239 405.581 1854.422 259.971 1836.045 259.971"/><path class="e" d="M2001.612,81.456l-89.712,160.911v14.356h0c0,1.794-1.454,3.248-3.248,3.248h-6.567l-81.185,145.61h18.377l162.335-291.164v-32.961Z"/><polygon class="e" points="2001.612 194.967 1884.187 405.581 1902.563 405.581 2001.612 227.927 2001.612 194.967"/><polygon class="e" points="1525.267 351 1494.836 405.581 1513.213 405.581 1543.644 351 1525.267 351"/><path class="e" d="M1938.841,108.557L1999.06,.549c-1.081-.241-2.21,.086-2.994,.869l-35.866,35.862-21.359,38.318v32.959Z"/><path class="e" d="M1081.457,279.398c0,2.607,2.114,4.721,4.721,4.721h6.344l80.456-144.3h-18.378l-73.144,131.19v8.389Z"/><polygon class="e" points="1137.644 262.417 1205.997 139.82 1187.62 139.82 1119.267 262.417 1137.644 262.417"/><polygon class="e" points="1200.932 262.414 1252.389 170.121 1240.591 158.322 1182.555 262.414 1200.932 262.414"/><polygon class="e" points="1071.606 262.417 1139.958 139.82 1121.582 139.82 1053.229 262.417 1071.606 262.417"/><path class="e" d="M1142.6,307.808l88.586-158.887-7.719-7.719c-.771-.76-1.78-1.232-2.858-1.335l-78.009,139.916v28.025Z"/><path class="e" d="M1006.091,261.076c.244,.233,.512,.44,.8,.616l67.948-121.872h-18.376l-61.536,110.367,11.164,10.889Z"/><polygon class="e" points="985.442 240.935 1041.818 139.82 1023.442 139.82 973.539 229.325 985.442 240.935"/><path class="e" d="M964.054,220.074l44.709-80.189c-1.013,.136-1.955,.598-2.682,1.317l-37.131,37.131-16.8,30.131,11.904,11.61Z"/><polygon class="e" points="1038.587 262.417 1106.939 139.82 1089.48 139.82 1021.127 262.417 1038.587 262.417"/><path class="e" d="M1220.44,262.414c1.252,0,2.453-.497,3.338-1.382l24.733-24.732,25.078-44.979-11.8-11.8-46.215,82.892h4.866Z"/><path class="e" d="M1166.446,312.42v-21.112l-14.4,25.832h9.681c2.606-.001,4.718-2.114,4.719-4.72Z"/><path class="e" d="M1472.826,181.904l35.8-64.2-.4-.4c-1.8-1.799-4.717-1.799-6.517,0l-19.17,19.17-19.739,35.4,10.026,10.03Z"/><polygon class="e" points="1494.025 203.104 1529.822 138.899 1518.023 127.101 1482.227 191.305 1494.025 203.104"/><path class="e" d="M1508.22,210.782l32.87-32.87,9.931-17.813-11.8-11.8-35.485,63.644c1.595,.451,3.309,.007,4.484-1.161Z"/><path class="e" d="M1768.739,57.114c0,1.275,.506,2.499,1.408,3.4l.958,.958L1805.346,.058l-18.646,.489-17.958,32.209-.003,24.358Z"/><polygon class="e" points="1838.678 172.23 1869.325 117.262 1869.325 84.302 1820.302 172.23 1838.678 172.23"/><polygon class="e" points="1790.538 80.905 1826.326 16.716 1816.294 6.684 1780.506 70.873 1790.538 80.905"/><path class="e" d="M1768.739,5.698v.8l2.9-5.2c-1.757,.757-2.897,2.486-2.9,4.4Z"/><path class="e" d="M1812.764,159.487l55.876-100.219c-.2-.349-.443-.672-.723-.96l-10.991-10.991-44.162,79.21v32.96Z"/><path class="e" d="M1811.357,101.724c.126,.137,.244,.28,.353,.431l35.815-64.239-11.8-11.8-35.788,64.188,11.42,11.42Z"/><path class="e" d="M1864.519,172.23c2.654,0,4.806-2.152,4.806-4.806h0v-23.9l-16,28.705h11.194Z"/><polygon class="c" points="8.328 241.471 0 256.409 0 282.671 17.73 250.871 8.328 241.471"/><path class="c" d="M36.344,270.832c.001-.863-.341-1.69-.951-2.3l-5.864-5.863L0,315.632v26.266l36.344-65.19v-5.876Z"/><path class="c" d="M35.393,317.103c.61-.61,.952-1.437,.951-2.3v-5.134l-8.17,14.653,7.219-7.219Z"/><path class="c" d="M18.093,353.332c-.61-.61-.953-1.437-.952-2.3v-6.921L0,374.855v26.262l23.582-42.3-5.489-5.485Z"/><path class="c" d="M34.06,373.248c-.047,0-.091-.012-.137-.014l-18.035,32.347h14.643l18.026-32.333h-14.497Z"/><polygon class="c" points="64.183 373.248 46.156 405.581 60.798 405.581 78.825 373.248 64.183 373.248"/><polygon class="c" points="97.202 373.248 79.175 405.581 93.817 405.581 111.844 373.248 97.202 373.248"/><path class="c" d="M165.289,330.825h-8.867c-1.794,0-3.248,1.454-3.248,3.248v13.569c0,1.794-1.454,3.248-3.248,3.249h-7.24l-30.492,54.69h14.642l40.524-72.685-2.071-2.071Z"/><polygon class="c" points="175.642 351.003 145.213 405.581 159.855 405.581 190.285 351.003 175.642 351.003"/><polygon class="c" points="207.286 351.003 176.856 405.581 191.499 405.581 221.928 351.003 207.286 351.003"/><path class="c" d="M251.121,351.691c-1.794,0-3.248-1.454-3.248-3.248v-11.014l-38,68.152h14.643l30.046-53.89h-3.441Z"/><polygon class="c" points="272.94 351.691 242.895 405.581 257.537 405.581 287.583 351.691 272.94 351.691"/><path class="c" d="M299.924,320.774v8.782l6.707-12.03h-3.459c-1.794,0-3.248,1.454-3.248,3.248Z"/><path class="c" d="M318.306,352.15c-1.794,0-3.249-1.455-3.249-3.249v-13.527l-39.143,70.207h14.642l29.79-53.431h-2.04Z"/><polygon class="c" points="335.971 352.15 306.181 405.581 320.823 405.581 350.613 352.15 335.971 352.15"/><polygon class="c" points="368.99 352.15 339.2 405.581 353.843 405.581 383.632 352.15 368.99 352.15"/><path class="c" d="M426.956,320.545c0-1.794-1.455-3.249-3.249-3.249h-2.265l-9.62,17.254v14.348c0,1.794-1.455,3.249-3.249,3.249h-6.564l-29.79,53.431h14.643l40.094-71.913v-13.12Z"/><polygon class="c" points="435.412 351.462 405.238 405.581 419.881 405.581 450.054 351.462 435.412 351.462"/><polygon class="c" points="468.431 351.462 438.258 405.581 452.9 405.581 483.073 351.462 468.431 351.462"/><polygon class="c" points="501.45 351.462 471.277 405.581 485.919 405.581 516.093 351.462 501.45 351.462"/><path class="c" d="M526.7,332.171v.264l2.032-3.645-1.081,1.081c-.61,.61-.952,1.437-.951,2.3Z"/><path class="c" d="M557.2,263.449v14.281l9.773-17.529h-6.525c-1.794,0-3.248,1.454-3.248,3.248Z"/><path class="c" d="M573.939,280.669l-16.739,30.022v3.7c0,1.794-1.455,3.248-3.249,3.248h-.624l-49.027,87.942h14.642l55-98.649-.003-26.263Z"/><polygon class="c" points="586.409 317.526 537.315 405.581 551.957 405.581 601.051 317.526 586.409 317.526"/><path class="c" d="M635.847,295.78c0-1.794-1.454-3.248-3.248-3.248h-1.987l-11.275,20.222v1.523h0c0,1.553-1.101,2.888-2.625,3.186l-49.13,88.118h14.643l53.622-96.177v-13.624Z"/><polygon class="c" points="649.694 317.529 600.602 405.581 615.244 405.581 664.336 317.529 649.694 317.529"/><path class="c" d="M710.14,268.336l-14.675,26.321v19.623c0,1.794-1.454,3.248-3.248,3.249h-9.5l-49.092,88.052h14.642l61.873-110.983v-26.262Z"/><polygon class="c" points="715.734 317.526 666.64 405.581 681.282 405.581 730.376 317.526 715.734 317.526"/><path class="c" d="M767.274,292.532c-1.793,0-3.246,1.452-3.248,3.245v18.15l11.9-21.347c-.157-.028-.316-.044-.476-.048h-8.176Z"/><path class="c" d="M760.777,317.526h-13.4l-49.094,88.055h14.642l49.289-88.4c-.446,.225-.938,.343-1.437,.345Z"/><path class="c" d="M781.949,317.98c-.551-.003-1.092-.149-1.571-.422l-49.078,88.023h14.643l48.841-87.6h-12.835Z"/><path class="c" d="M866.981,222.632v25.081l15.795-28.329h-12.547c-1.794,0-3.248,1.454-3.248,3.248Z"/><polygon class="c" points="813.162 317.98 764.321 405.581 778.964 405.581 827.805 317.98 813.162 317.98"/><polygon class="c" points="866.981 306.936 891.745 262.519 891.745 236.257 866.981 280.674 866.981 306.936"/><polygon class="c" points="846.181 317.98 797.34 405.581 811.983 405.581 860.824 317.98 846.181 317.98"/><path class="c" d="M891.745,314.732v-24.187l-64.137,115.036h14.642l49.85-89.406c-.23-.446-.352-.941-.355-1.443Z"/><path class="c" d="M948.741,198.543c-1.821,1.867-1.784,4.856,.083,6.677l3.327,3.244,16.8-30.131-20.17,20.165-.04,.045Z"/><polygon class="c" points="909.468 317.98 860.627 405.581 875.269 405.581 924.11 317.98 909.468 317.98"/><path class="c" d="M973.539,229.325l49.9-89.5h-14.019c-.22,.006-.44,.028-.657,.065l-44.709,80.189,9.485,9.246Z"/><polygon class="c" points="942.487 317.98 893.646 405.581 908.288 405.581 957.129 317.98 942.487 317.98"/><polygon class="c" points="994.927 250.186 1056.461 139.82 1041.818 139.82 985.442 240.935 994.927 250.186"/><polygon class="c" points="975.506 317.98 926.665 405.581 941.308 405.581 990.149 317.98 975.506 317.98"/><path class="c" d="M1009.391,262.417h11.736l68.353-122.6h-14.643l-67.948,121.872c.749,.473,1.616,.725,2.502,.728Z"/><path class="c" d="M1007.12,318.932c-.009-.009-.02-.015-.029-.024l-48.324,86.673h14.642l43.085-77.275-9.374-9.374Z"/><polygon class="c" points="1053.229 262.417 1121.582 139.82 1106.939 139.82 1038.587 262.417 1053.229 262.417"/><path class="c" d="M1022.143,351.461c-.059,0-.114-.014-.173-.018l-30.184,54.138h14.643l30.174-54.12h-14.46Z"/><path class="c" d="M1076.736,262.417c2.607,0,4.721,2.114,4.721,4.721v3.872l73.144-131.19h-14.643l-68.352,122.6,5.13-.003Z"/><polygon class="c" points="1054.979 351.461 1024.805 405.581 1039.448 405.581 1069.622 351.461 1054.979 351.461"/><path class="c" d="M1101.2,284.124c2.607,0,4.721-2.114,4.721-4.721v-12.265c0-2.607,2.114-4.721,4.721-4.721h8.63l68.353-122.6h-14.642l-80.456,144.3,8.673,.007Z"/><polygon class="c" points="1087.999 351.461 1057.824 405.581 1072.467 405.581 1102.641 351.461 1087.999 351.461"/><path class="c" d="M1137.883,262.417c2.607,0,4.721,2.114,4.721,4.721v12.645l78.009-139.916c-.159-.024-.319-.039-.48-.047h-14.133l-68.353,122.6,.236-.003Z"/><polygon class="c" points="1118.266 351.461 1088.092 405.581 1102.734 405.581 1132.908 351.461 1118.266 351.461"/><path class="c" d="M1142.6,312.42h0c0,2.607,2.114,4.72,4.721,4.719h4.719l14.4-25.832v-24.172c0-2.607,2.114-4.721,4.721-4.721h11.388l58.036-104.092-9.4-9.4-88.585,158.886v4.612Z"/><polygon class="c" points="1151.285 351.461 1121.111 405.581 1135.753 405.581 1165.927 351.461 1151.285 351.461"/><polygon class="c" points="1215.575 262.414 1261.79 179.522 1252.389 170.121 1200.932 262.414 1215.575 262.414"/><polygon class="c" points="1184.304 351.461 1154.13 405.581 1168.772 405.581 1198.947 351.461 1184.304 351.461"/><path class="c" d="M1280.2,204.61h0c1.843-1.843,1.843-4.832,0-6.675l-6.613-6.613-25.076,44.976,31.689-31.688Z"/><polygon class="c" points="1217.323 351.461 1187.149 405.581 1201.792 405.581 1231.966 351.461 1217.323 351.461"/><path class="c" d="M1262.56,350.509c-.61,.61-1.437,.953-2.3,.952h-11.293l-30.174,54.12h14.642l32.7-58.642-3.575,3.57Z"/><path class="c" d="M1276.742,312.749v15.157l10.258-18.408h-7.014c-1.793,.003-3.245,1.458-3.244,3.251Z"/><polygon class="c" points="1301.965 315.626 1251.812 405.581 1266.454 405.581 1301.965 341.888 1301.965 315.626"/><path class="c" d="M1329.834,324.863l-3.563,6.391v17.189c0,1.794-1.455,3.248-3.249,3.248h-8.145l-30.046,53.89h14.642l45-80.718h-14.639Z"/><path class="c" d="M1355.43,351.691c-1.794,0-3.248-1.454-3.249-3.248v-4.439l-34.331,61.577h14.642l30.046-53.89h-7.108Z"/><path class="c" d="M1407.675,270.733v-3.618h0c0-1.794-1.454-3.248-3.248-3.248h-7.566l-13.377,23.992v26.263l24.191-43.389Z"/><path class="c" d="M1458.22,167.298l4.574,4.574,19.739-35.4-24.313,24.314c-1.797,1.799-1.797,4.713,0,6.512Z"/><polygon class="c" points="1407.675 298.758 1348.117 405.581 1362.76 405.581 1407.675 325.02 1407.675 298.758"/><polygon class="c" points="1482.227 191.305 1518.023 127.101 1508.622 117.7 1472.826 181.904 1482.227 191.305"/><polygon class="c" points="1411.568 351 1381.137 405.581 1395.779 405.581 1426.21 351 1411.568 351"/><path class="c" d="M1501.7,210.782c.565,.558,1.267,.959,2.035,1.163l35.485-63.644-9.4-9.4-35.8,64.2,7.68,7.681Z"/><polygon class="c" points="1444.587 351 1414.156 405.581 1428.798 405.581 1459.229 351 1444.587 351"/><path class="c" d="M1551.7,167.298c1.799-1.799,1.799-4.717,0-6.516l-.683-.683-9.931,17.813,10.614-10.614Z"/><polygon class="c" points="1477.606 351 1447.175 405.581 1461.817 405.581 1492.248 351 1477.606 351"/><polygon class="c" points="1510.625 351 1480.194 405.581 1494.836 405.581 1525.267 351 1510.625 351"/><path class="c" d="M1623.564,219.653v14.266l9.764-17.514h-6.515c-1.794,0-3.248,1.454-3.249,3.248Z"/><polygon class="c" points="1543.644 351 1513.213 405.581 1527.855 405.581 1558.286 351 1543.644 351"/><polygon class="c" points="1623.564 293.142 1666.347 216.405 1651.705 216.405 1623.564 266.879 1623.564 293.142"/><path class="c" d="M1577.853,350.049c-.301,.3-.658,.538-1.051,.7l-30.57,54.83h14.643l48.581-87.135-31.603,31.605Z"/><path class="c" d="M1786.7,.547l-13.278,.351c-.615,.017-1.22,.153-1.783,.4l-2.9,5.2v26.258L1786.7,.547Z"/><polygon class="c" points="1682.15 221.022 1579.251 405.581 1593.894 405.581 1682.15 247.285 1682.15 221.022"/><path class="c" d="M1780.506,70.873l35.788-64.188-5.277-5.277c-.932-.933-2.206-1.443-3.524-1.41l-2.147,.056-34.241,61.414,9.401,9.405Z"/><polygon class="c" points="1690.702 259.971 1609.519 405.581 1624.161 405.581 1705.344 259.971 1690.702 259.971"/><polygon class="c" points="1799.939 90.306 1835.727 26.117 1826.326 16.716 1790.538 80.905 1799.939 90.306"/><polygon class="c" points="1723.721 259.971 1642.538 405.581 1657.18 405.581 1738.364 259.971 1723.721 259.971"/><path class="c" d="M1812.764,105.124v21.4l44.162-79.21-9.4-9.4-35.815,64.239c.676,.843,1.047,1.89,1.053,2.971Z"/><polygon class="c" points="1756.74 259.971 1675.557 405.581 1690.199 405.581 1771.383 259.971 1756.74 259.971"/><path class="c" d="M1812.764,167.424c.001,2.654,2.153,4.805,4.807,4.806h2.731l49.023-87.932v-22.59c-.005-.86-.241-1.703-.685-2.44l-55.876,100.219v7.937Z"/><polygon class="c" points="1789.759 259.971 1708.576 405.581 1723.218 405.581 1804.402 259.971 1789.759 259.971"/><polygon class="c" points="1853.321 172.23 1869.325 143.525 1869.325 117.262 1838.678 172.23 1853.321 172.23"/><polygon class="c" points="1821.403 259.971 1740.219 405.581 1754.862 405.581 1836.045 259.971 1821.403 259.971"/><path class="c" d="M1938.841,59.992v15.606l21.359-38.318-20.412,20.412c-.609,.611-.949,1.438-.947,2.3Z"/><polygon class="c" points="1854.422 259.971 1773.239 405.581 1787.881 405.581 1869.064 259.971 1854.422 259.971"/><path class="c" d="M1938.841,134.819l62.771-112.586V3.718c.004-1.526-1.06-2.848-2.552-3.169l-60.219,108.008v26.262Z"/><polygon class="c" points="1887.441 259.971 1806.258 405.581 1820.9 405.581 1902.083 259.971 1887.441 259.971"/><path class="c" d="M1938.841,188.34c0,.863-.342,1.69-.952,2.3l-25.039,25.039c-.61,.61-.953,1.437-.952,2.3v24.388l89.714-160.911v-26.258l-62.771,112.586v20.556Z"/><polygon class="c" points="2001.612 114.416 1839.277 405.581 1853.919 405.581 2001.612 140.679 2001.612 114.416"/><polygon class="c" points="2001.612 168.704 1869.544 405.581 1884.187 405.581 2001.612 194.967 2001.612 168.704"/><polygon class="c" points="2001.612 227.927 1902.563 405.581 1917.206 405.581 2001.612 254.189 2001.612 227.927"/><polygon class="c" points="2001.612 287.15 1935.582 405.581 1950.225 405.581 2001.612 313.412 2001.612 287.15"/><polygon class="c" points="2001.612 346.373 1968.602 405.581 1983.244 405.581 2001.612 372.635 2001.612 346.373"/></g></svg>