<svg id="parallax_layer_4" data-name="parallax layer 4" xmlns="http://www.w3.org/2000/svg" viewBox="0 0 2053.38 347.76"><defs><style>.cls-1{fill:#602872;}</style></defs><path class="cls-1" d="M-35.94,249.56c13.79-32.87,87.81-40.53,170.6-89.88a59.28,59.28,0,0,1,15.13-6.88c30-8.57,58,10.94,115.57,50.9,60.69,42.16,91.65,63.22,121.53,61.91,4.24-.18,16.7-1,40.81-11,85.42-35.38,101.78-96.42,146.75-109.15,62.6-17.73,98,99.41,154.09,88C788.88,221.28,787,86.44,868.41,68.41c20.57-4.55,38.16.19,44,1.84,68.17,19.17,72.58,105.3,111.9,116.48,55.16,15.69,101.43-172.59,166-168.76,56,3.32,67.06,142.41,129.33,147.67,27.65,2.33,46.1-23.37,68.29-51.3,19.63-24.72,64.43-86.09,98.86-96.43,31.42-9.43,44.76,34.69,78.36,51.09,28.93,14.12,56.38,33.58,78.44,51.06,20.07,15.91,81.53-49.38,89.7-42.24,37.27,32.54,97.39,76.1,122,75.66,55.72-1,38.72-86.95,107.77-106.64,62.31-17.77,11.44,94.8,17.88,149.52,7.49,63.54-19.35,125.78-91.72,140.79-188.93,39.21-690,25-1121.73,22.93-239.47-1.12-565,13.53-756.91-5.73C-94.36,343.82-54.24,293.16-35.94,249.56Z" transform="translate(58.92 -16.6)"/></svg>