<?xml version="1.0" encoding="utf-8"?>
<!-- Generator: Adobe Illustrator 25.1.0, SVG Export Plug-In . SVG Version: 6.00 Build 0)  -->
<svg version="1.1" xmlns="http://www.w3.org/2000/svg" xmlns:xlink="http://www.w3.org/1999/xlink" x="0px" y="0px"
	 viewBox="0 0 2001.6 405.6" style="enable-background:new 0 0 2001.6 405.6;" xml:space="preserve">
<style type="text/css">
	.st0{fill:none;}
	.st1{fill:#D15656;}
	.st2{fill:#D25E5E;}
</style>
<g id="Layer_1">
</g>
<g id="Layer_2">
	<g>
		<path class="st0" d="M764,314.3C764,314.3,764,314.3,764,314.3v-0.3l-1.8,3.2C763.3,316.6,764,315.6,764,314.3z"/>
		<path class="st0" d="M863.7,318c1.8,0,3.2-1.5,3.2-3.2v-7.8l-6.2,11H863.7z"/>
		<path class="st0" d="M1908.7,260c1.8,0,3.2-1.5,3.2-3.2c0,0,0,0,0,0v-14.4l-9.8,17.6H1908.7z"/>
		<polygon class="st0" points="867,247.7 827.8,318 846.2,318 867,280.7 		"/>
		<path class="st0" d="M528.7,328.8l10.2-10.2c0.6-0.6,1.4-1,2.3-1h12.1l3.9-6.9v-33L528.7,328.8z"/>
		<path class="st0" d="M523.5,351.5c1.8,0,3.2-1.5,3.2-3.2v-15.8l-10.6,19H523.5z"/>
		<path class="st0" d="M1623.6,233.9L1558.3,351h17.3c0.4,0,0.9-0.1,1.2-0.2l46.8-83.9V233.9z"/>
		<path class="st0" d="M1275.8,337.3c0.6-0.6,1-1.4,1-2.3v-7.1l-10.6,19L1275.8,337.3z"/>
		<path class="st0" d="M1622.6,305.3c0.6-0.6,1-1.4,1-2.3v-9.8l-14.1,25.3L1622.6,305.3z"/>
		<path class="st0" d="M296.7,351.7c1.8,0,3.2-1.5,3.2-3.2v-18.9l-12.3,22.1H296.7z"/>
		<path class="st0" d="M18.1,334.4c-0.6,0.6-1,1.4-1,2.3v7.4l11-19.8L18.1,334.4z"/>
		<path class="st0" d="M1363.4,351.7c0.9,0,1.7-0.3,2.3-1l16.8-16.8c0.6-0.6,1-1.4,1-2.3v-17.5l-20.9,37.6H1363.4z"/>
		<path class="st1" d="M1302,312.8c0-1.8-1.5-3.2-3.2-3.2H1287l-10.3,18.4v7.1c0,0.9-0.3,1.7-1,2.3l-9.7,9.7l-32.7,58.6h18.4
			l50.2-90V312.8z"/>
		<path class="st1" d="M1407.7,270.7l-24.2,43.4v17.5c0,0.9-0.3,1.7-1,2.3l-16.8,16.8c-0.6,0.6-1.4,1-2.3,1h-0.9l-30,53.9h15.6
			l59.6-106.8V270.7z"/>
		<polygon class="st1" points="1232,351.5 1201.8,405.6 1218.8,405.6 1249,351.5 		"/>
		<polygon class="st1" points="1198.9,351.5 1168.8,405.6 1187.1,405.6 1217.3,351.5 		"/>
		<polygon class="st1" points="1165.9,351.5 1135.8,405.6 1154.1,405.6 1184.3,351.5 		"/>
		<path class="st1" d="M1410.9,351c-1.8,0-3.2-1.5-3.2-3.2V325l-44.9,80.6h18.4l30.4-54.6H1410.9z"/>
		<polygon class="st1" points="1459.2,351 1428.8,405.6 1447.2,405.6 1477.6,351 		"/>
		<path class="st1" d="M1305.2,351.7c-1.8,0-3.2-1.5-3.2-3.2v-6.6l-35.5,63.7h18.4l30-53.9H1305.2z"/>
		<polygon class="st1" points="1036.6,351.5 1006.4,405.6 1024.8,405.6 1055,351.5 		"/>
		<polygon class="st1" points="1426.2,351 1395.8,405.6 1414.2,405.6 1444.6,351 		"/>
		<polygon class="st1" points="1132.9,351.5 1102.7,405.6 1121.1,405.6 1151.3,351.5 		"/>
		<polygon class="st1" points="924.1,318 875.3,405.6 893.6,405.6 942.5,318 		"/>
		<path class="st1" d="M1352.2,328.1c0-1.8-1.5-3.2-3.2-3.2h-4.5l-45,80.7h18.4l34.3-61.6V328.1z"/>
		<polygon class="st1" points="957.1,318 908.3,405.6 926.7,405.6 975.5,318 		"/>
		<path class="st1" d="M1004.8,318h-14.7l-48.8,87.6h17.5l48.3-86.7C1006.5,318.3,1005.7,318,1004.8,318z"/>
		<polygon class="st1" points="1102.6,351.5 1072.5,405.6 1088.1,405.6 1118.3,351.5 		"/>
		<path class="st1" d="M1018.9,348.2v-16.2c0-0.9-0.3-1.7-1-2.3l-1.4-1.4l-43.1,77.3h18.4l30.2-54.1
			C1020.3,351.4,1018.9,349.9,1018.9,348.2z"/>
		<polygon class="st1" points="1069.6,351.5 1039.4,405.6 1057.8,405.6 1088,351.5 		"/>
		<path class="st1" d="M1386.7,263.9c-1.8,0-3.2,1.5-3.2,3.2v20.7l13.4-24H1386.7z"/>
		<path class="st1" d="M895,318c-1.3,0-2.4-0.7-2.9-1.8l-49.8,89.4h18.4l48.8-87.6H895z"/>
		<path class="st1" d="M1329.5,324.9c-1.8,0-3.2,1.5-3.2,3.2v3.1l3.6-6.4H1329.5z"/>
		<polygon class="st1" points="350.6,352.2 320.8,405.6 339.2,405.6 369,352.2 		"/>
		<polygon class="st1" points="254.6,351.7 224.5,405.6 242.9,405.6 272.9,351.7 		"/>
		<path class="st1" d="M315.1,320.8c0-1.8-1.5-3.2-3.2-3.2h-5.2l-6.7,12v18.9c0,1.8-1.5,3.2-3.2,3.2h-9.1l-30,53.9h18.4l39.1-70.2
			V320.8z"/>
		<path class="st1" d="M247.9,334.5c0-1.8-1.5-3.2-3.2-3.2h-8.9c-1.8,0-3.2,1.5-3.2,3.2v13.2c0,1.8-1.5,3.2-3.2,3.2h-7.3l-30.4,54.6
			h18.4l38-68.2V334.5z"/>
		<polygon class="st1" points="320.3,352.2 290.6,405.6 306.2,405.6 336,352.2 		"/>
		<polygon class="st1" points="1492.2,351 1461.8,405.6 1480.2,405.6 1510.6,351 		"/>
		<path class="st1" d="M415.1,317.3c-1.8,0-3.2,1.5-3.2,3.2v14l9.6-17.3H415.1z"/>
		<path class="st1" d="M891.7,262.5L867,306.9v7.8c0,1.8-1.5,3.2-3.2,3.2h-2.9L812,405.6h15.6l64.1-115V262.5z"/>
		<polygon class="st1" points="190.3,351 159.9,405.6 176.9,405.6 207.3,351 		"/>
		<polygon class="st1" points="48.6,373.2 30.5,405.6 46.2,405.6 64.2,373.2 		"/>
		<polygon class="st1" points="17.7,250.9 0,282.7 0,315.6 29.5,262.7 		"/>
		<path class="st1" d="M17.1,336.7c0-0.9,0.3-1.7,1-2.3l10.1-10.1l8.2-14.7v-33L0,341.9v33l17.1-30.7V336.7z"/>
		<path class="st1" d="M7.7,240.8C7.6,240.8,7.6,240.8,7.7,240.8c-1.4-1.3-3.5-1.2-4.7,0.1l-2.1,2.3c-0.6,0.6-0.9,1.4-0.9,2.2v11
			l8.3-14.9L7.7,240.8z"/>
		<path class="st1" d="M30.8,370v-2.6c0-0.9-0.3-1.7-1-2.3l-6.3-6.3L0,401.1v1.2c0,1.8,1.5,3.2,3.2,3.2h12.6l18-32.3
			C32.2,373.2,30.8,371.7,30.8,370z"/>
		<polygon class="st1" points="78.8,373.2 60.8,405.6 79.2,405.6 97.2,373.2 		"/>
		<path class="st1" d="M132.4,350.9c-0.9,0-1.7,0.3-2.3,1l-12.7,12.7c-0.6,0.6-1,1.4-1,2.3v3.2c0,1.8-1.5,3.2-3.2,3.2h-1.4l-18,32.3
			h18.4l30.5-54.7H132.4z"/>
		<path class="st1" d="M430.2,351.5c-1.8,0-3.2-1.5-3.2-3.2v-14.5l-40.1,71.9h18.4l30.2-54.1H430.2z"/>
		<path class="st1" d="M171.8,351c-1.8,0-3.2-1.5-3.2-3.2v-13.7c0-0.8-0.3-1.5-0.7-2l-41,73.5h18.4l30.4-54.6H171.8z"/>
		<polygon class="st1" points="383.6,352.2 353.8,405.6 372.2,405.6 402,352.2 		"/>
		<polygon class="st1" points="730.4,317.5 681.3,405.6 698.3,405.6 747.4,317.5 		"/>
		<path class="st1" d="M778.7,314.7v-19c0-1.6-1.2-3-2.8-3.2L764,313.9v0.3c0,0,0,0,0,0c0,1.3-0.7,2.4-1.8,2.9l-49.3,88.4h18.4
			l49.1-88C779.4,317,778.7,316,778.7,314.7z"/>
		<path class="st1" d="M713.4,317.5c-1.8,0-3.2-1.5-3.2-3.2v-19.7l-61.9,111h18.4l49.1-88.1H713.4z"/>
		<path class="st1" d="M710.1,263.2c0-1.8-1.5-3.2-3.2-3.2h-8.2c-1.8,0-3.2,1.5-3.2,3.2v31.4l14.7-26.3V263.2z"/>
		<polygon class="st1" points="827.8,318 779,405.6 797.3,405.6 846.2,318 		"/>
		<polygon class="st1" points="664.3,317.5 615.2,405.6 633.6,405.6 682.7,317.5 		"/>
		<polygon class="st1" points="794.8,318 745.9,405.6 764.3,405.6 813.2,318 		"/>
		<polygon class="st1" points="450.1,351.5 419.9,405.6 438.3,405.6 468.4,351.5 		"/>
		<path class="st1" d="M867,280.7l24.8-44.4v-13.6c0-1.8-1.5-3.2-3.2-3.2h-5.7L867,247.7V280.7z"/>
		<path class="st1" d="M557.2,310.7l16.7-30v-17.2c0-1.8-1.5-3.2-3.2-3.2H567l-9.8,17.5V310.7z"/>
		<polygon class="st1" points="483.1,351.5 452.9,405.6 471.3,405.6 501.5,351.5 		"/>
		<path class="st1" d="M541.2,317.6c-0.9,0-1.7,0.3-2.3,1l-10.2,10.2l-2,3.6v15.8c0,1.8-1.5,3.2-3.2,3.2h-7.4l-30.2,54.1h18.4
			l49-87.9H541.2z"/>
		<path class="st1" d="M639.1,317.5c-1.8,0-3.2-1.5-3.2-3.2v-4.9l-53.6,96.2h18.4l49.1-88.1H639.1z"/>
		<path class="st1" d="M577.2,317.5c-1.8,0-3.2-1.5-3.2-3.2v-7.3l-55,98.6h18.4l49.1-88.1H577.2z"/>
		<path class="st1" d="M622.6,292.5c-1.8,0-3.2,1.5-3.2,3.2v17l11.3-20.2H622.6z"/>
		<path class="st1" d="M616.1,317.5h-15L552,405.6h15.6l49.1-88.1C616.5,317.5,616.3,317.5,616.1,317.5z"/>
		<polygon class="st1" points="1623.6,266.9 1651.7,216.4 1633.3,216.4 1623.6,233.9 		"/>
		<polygon class="st1" points="1738.4,260 1657.2,405.6 1675.6,405.6 1756.7,260 		"/>
		<polygon class="st1" points="2001.6,254.2 1917.2,405.6 1935.6,405.6 2001.6,287.2 		"/>
		<polygon class="st1" points="1938.8,167.8 2001.6,55.2 2001.6,22.2 1938.8,134.8 		"/>
		<polygon class="st1" points="1804.4,260 1723.2,405.6 1740.2,405.6 1821.4,260 		"/>
		<polygon class="st1" points="1771.4,260 1690.2,405.6 1708.6,405.6 1789.8,260 		"/>
		<polygon class="st1" points="1705.3,260 1624.2,405.6 1642.5,405.6 1723.7,260 		"/>
		<path class="st1" d="M1575.6,351h-17.3l-30.4,54.6h18.4l30.6-54.8C1576.4,350.9,1576,351,1575.6,351z"/>
		<polygon class="st1" points="2001.6,313.4 1950.2,405.6 1968.6,405.6 2001.6,346.4 		"/>
		<path class="st1" d="M1682.1,219.7C1682.1,219.7,1682.1,219.7,1682.1,219.7c0-1.8-1.5-3.2-3.2-3.2h-12.6l-42.8,76.7v9.8
			c0,0.9-0.3,1.7-1,2.3l-13.2,13.2l-48.6,87.1h18.4L1682.1,221V219.7z"/>
		<path class="st1" d="M1685.4,260c-1.8,0-3.2-1.5-3.2-3.2v-9.4l-88.3,158.3h15.6l81.2-145.6H1685.4z"/>
		<polygon class="st1" points="1869.1,260 1787.9,405.6 1806.3,405.6 1887.4,260 		"/>
		<path class="st1" d="M1983.2,405.6h15.1c1.8,0,3.2-1.5,3.2-3.2v-29.7L1983.2,405.6z"/>
		<polygon class="st1" points="2001.6,140.7 1853.9,405.6 1869.5,405.6 2001.6,168.7 		"/>
		<polygon class="st1" points="1836,260 1754.9,405.6 1773.2,405.6 1854.4,260 		"/>
		<path class="st1" d="M2001.6,81.5l-89.7,160.9v14.4c0,0,0,0,0,0c0,1.8-1.5,3.2-3.2,3.2h-6.6l-81.2,145.6h18.4l162.3-291.2V81.5z"
			/>
		<polygon class="st1" points="2001.6,195 1884.2,405.6 1902.6,405.6 2001.6,227.9 		"/>
		<polygon class="st1" points="1525.3,351 1494.8,405.6 1513.2,405.6 1543.6,351 		"/>
		<path class="st1" d="M1938.8,108.6l60.2-108c-1-0.2-2.2,0.1-3,0.9l-35.9,35.9l-21.4,38.3V108.6z"/>
		<path class="st1" d="M1081.5,279.4c0,2.6,2.1,4.7,4.7,4.7h6.3l80.5-144.3h-18.4L1081.5,271V279.4z"/>
		<polygon class="st1" points="1137.6,262.4 1206,139.8 1187.6,139.8 1119.3,262.4 		"/>
		<polygon class="st1" points="1200.9,262.4 1252.4,170.1 1240.6,158.3 1182.6,262.4 		"/>
		<polygon class="st1" points="1071.6,262.4 1140,139.8 1121.6,139.8 1053.2,262.4 		"/>
		<path class="st1" d="M1142.6,307.8l88.6-158.9l-7.7-7.7c-0.8-0.8-1.8-1.2-2.9-1.3l-78,139.9V307.8z"/>
		<path class="st1" d="M1006.1,261.1c0.2,0.2,0.5,0.4,0.8,0.6l67.9-121.9h-18.4l-61.5,110.4L1006.1,261.1z"/>
		<polygon class="st1" points="985.4,240.9 1041.8,139.8 1023.4,139.8 973.5,229.3 		"/>
		<path class="st1" d="M964.1,220.1l44.7-80.2c-1,0.1-2,0.6-2.7,1.3l-37.1,37.1l-16.8,30.1L964.1,220.1z"/>
		<polygon class="st1" points="1038.6,262.4 1106.9,139.8 1089.5,139.8 1021.1,262.4 		"/>
		<path class="st1" d="M1220.4,262.4c1.3,0,2.5-0.5,3.3-1.4l24.7-24.7l25.1-45l-11.8-11.8l-46.2,82.9H1220.4z"/>
		<path class="st1" d="M1166.4,312.4v-21.1l-14.4,25.8h9.7C1164.3,317.1,1166.4,315,1166.4,312.4z"/>
		<path class="st1" d="M1472.8,181.9l35.8-64.2l-0.4-0.4c-1.8-1.8-4.7-1.8-6.5,0l-19.2,19.2l-19.7,35.4L1472.8,181.9z"/>
		<polygon class="st1" points="1494,203.1 1529.8,138.9 1518,127.1 1482.2,191.3 		"/>
		<path class="st1" d="M1508.2,210.8l32.9-32.9l9.9-17.8l-11.8-11.8l-35.5,63.6C1505.3,212.4,1507,212,1508.2,210.8z"/>
		<path class="st1" d="M1768.7,57.1c0,1.3,0.5,2.5,1.4,3.4l1,1l34.2-61.4l-18.6,0.5l-18,32.2V57.1z"/>
		<polygon class="st1" points="1838.7,172.2 1869.3,117.3 1869.3,84.3 1820.3,172.2 		"/>
		<polygon class="st1" points="1790.5,80.9 1826.3,16.7 1816.3,6.7 1780.5,70.9 		"/>
		<path class="st1" d="M1768.7,5.7v0.8l2.9-5.2C1769.9,2,1768.7,3.7,1768.7,5.7z"/>
		<path class="st1" d="M1812.8,159.5l55.9-100.2c-0.2-0.3-0.4-0.7-0.7-1l-11-11l-44.2,79.2V159.5z"/>
		<path class="st1" d="M1811.4,101.7c0.1,0.1,0.2,0.3,0.4,0.4l35.8-64.2l-11.8-11.8l-35.8,64.2L1811.4,101.7z"/>
		<path class="st1" d="M1864.5,172.2c2.7,0,4.8-2.2,4.8-4.8v-23.9l-16,28.7H1864.5z"/>
		<polygon class="st2" points="8.3,241.5 0,256.4 0,282.7 17.7,250.9 		"/>
		<path class="st2" d="M36.3,270.8c0-0.9-0.3-1.7-1-2.3l-5.9-5.9L0,315.6v26.3l36.3-65.2V270.8z"/>
		<path class="st2" d="M35.4,317.1c0.6-0.6,1-1.4,1-2.3v-5.1l-8.2,14.7L35.4,317.1z"/>
		<path class="st2" d="M18.1,353.3c-0.6-0.6-1-1.4-1-2.3v-6.9L0,374.9v26.3l23.6-42.3L18.1,353.3z"/>
		<path class="st2" d="M34.1,373.2c0,0-0.1,0-0.1,0l-18,32.3h14.6l18-32.3H34.1z"/>
		<polygon class="st2" points="64.2,373.2 46.2,405.6 60.8,405.6 78.8,373.2 		"/>
		<polygon class="st2" points="97.2,373.2 79.2,405.6 93.8,405.6 111.8,373.2 		"/>
		<path class="st2" d="M165.3,330.8h-8.9c0,0,0,0,0,0c-1.8,0-3.2,1.5-3.2,3.2v13.6c0,1.8-1.5,3.2-3.2,3.2h-7.2l-30.5,54.7h14.6
			l41-73.5C167.2,331.3,166.3,330.8,165.3,330.8z"/>
		<polygon class="st2" points="175.6,351 145.2,405.6 159.9,405.6 190.3,351 		"/>
		<polygon class="st2" points="207.3,351 176.9,405.6 191.5,405.6 221.9,351 		"/>
		<path class="st2" d="M251.1,351.7c-1.8,0-3.2-1.5-3.2-3.2v-11l-38,68.2h14.6l30-53.9H251.1z"/>
		<polygon class="st2" points="272.9,351.7 242.9,405.6 257.5,405.6 287.6,351.7 		"/>
		<path class="st2" d="M299.9,320.8v8.8l6.7-12h-3.5C301.4,317.5,299.9,319,299.9,320.8z"/>
		<path class="st2" d="M318.3,352.2c-1.8,0-3.2-1.5-3.2-3.2v-13.5l-39.1,70.2h14.6l29.8-53.4H318.3z"/>
		<polygon class="st2" points="336,352.2 306.2,405.6 320.8,405.6 350.6,352.2 		"/>
		<polygon class="st2" points="369,352.2 339.2,405.6 353.8,405.6 383.6,352.2 		"/>
		<path class="st2" d="M427,320.5c0-1.8-1.5-3.2-3.2-3.2h-2.3l-9.6,17.3v14.4c0,1.8-1.5,3.2-3.2,3.2H402l-29.8,53.4h14.6l40.1-71.9
			V320.5z"/>
		<polygon class="st2" points="435.4,351.5 405.2,405.6 419.9,405.6 450.1,351.5 		"/>
		<polygon class="st2" points="468.4,351.5 438.3,405.6 452.9,405.6 483.1,351.5 		"/>
		<polygon class="st2" points="501.5,351.5 471.3,405.6 485.9,405.6 516.1,351.5 		"/>
		<path class="st2" d="M526.7,332.2v0.3l2-3.6l-1.1,1.1C527,330.5,526.7,331.3,526.7,332.2z"/>
		<path class="st2" d="M557.2,263.5v14.3l9.8-17.5h-6.5C558.7,260.2,557.2,261.7,557.2,263.5z"/>
		<path class="st2" d="M573.9,280.7l-16.7,30v3.7c0,1.8-1.5,3.2-3.2,3.2h-0.6l-49,87.9h14.6l55-98.6V280.7z"/>
		<polygon class="st2" points="586.4,317.5 537.3,405.6 552,405.6 601.1,317.5 		"/>
		<path class="st2" d="M635.8,295.8c0-1.8-1.5-3.2-3.2-3.2h-2l-11.3,20.2v1.5c0,0,0,0,0,0c0,1.6-1.1,2.9-2.6,3.2l-49.1,88.1h14.6
			l53.6-96.2V295.8z"/>
		<polygon class="st2" points="649.7,317.5 600.6,405.6 615.2,405.6 664.3,317.5 		"/>
		<path class="st2" d="M710.1,268.3l-14.7,26.3v19.6c0,1.8-1.5,3.2-3.2,3.2h-9.5l-49.1,88.1h14.6l61.9-111V268.3z"/>
		<polygon class="st2" points="715.7,317.5 666.6,405.6 681.3,405.6 730.4,317.5 		"/>
		<path class="st2" d="M767.3,292.5c-1.8,0-3.2,1.5-3.2,3.2v18.2l11.9-21.3c-0.2,0-0.3,0-0.5,0H767.3z"/>
		<path class="st2" d="M760.8,317.5h-13.4l-49.1,88.1h14.6l49.3-88.4C761.8,317.4,761.3,317.5,760.8,317.5z"/>
		<path class="st2" d="M781.9,318c-0.6,0-1.1-0.2-1.6-0.4l-49.1,88h14.6l48.8-87.6H781.9z"/>
		<path class="st2" d="M867,222.6v25.1l15.8-28.3h-12.5C868.4,219.4,867,220.8,867,222.6z"/>
		<polygon class="st2" points="813.2,318 764.3,405.6 779,405.6 827.8,318 		"/>
		<polygon class="st2" points="867,306.9 891.7,262.5 891.7,236.3 867,280.7 		"/>
		<polygon class="st2" points="846.2,318 797.3,405.6 812,405.6 860.8,318 		"/>
		<path class="st2" d="M891.7,314.7v-24.2l-64.1,115h14.6l49.8-89.4C891.9,315.7,891.7,315.3,891.7,314.7z"/>
		<path class="st2" d="M948.7,198.5c-1.8,1.9-1.8,4.9,0.1,6.7l3.3,3.2l16.8-30.1L948.7,198.5C948.8,198.5,948.8,198.5,948.7,198.5z"
			/>
		<polygon class="st2" points="909.5,318 860.6,405.6 875.3,405.6 924.1,318 		"/>
		<path class="st2" d="M973.5,229.3l49.9-89.5h-14c-0.2,0-0.4,0-0.7,0.1l-44.7,80.2L973.5,229.3z"/>
		<polygon class="st2" points="942.5,318 893.6,405.6 908.3,405.6 957.1,318 		"/>
		<polygon class="st2" points="994.9,250.2 1056.5,139.8 1041.8,139.8 985.4,240.9 		"/>
		<polygon class="st2" points="975.5,318 926.7,405.6 941.3,405.6 990.1,318 		"/>
		<path class="st2" d="M1009.4,262.4h11.7l68.4-122.6h-14.6l-67.9,121.9C1007.6,262.2,1008.5,262.4,1009.4,262.4z"/>
		<path class="st2" d="M1007.1,318.9C1007.1,318.9,1007.1,318.9,1007.1,318.9l-48.4,86.6h14.6l43.1-77.3L1007.1,318.9z"/>
		<polygon class="st2" points="1053.2,262.4 1121.6,139.8 1106.9,139.8 1038.6,262.4 		"/>
		<path class="st2" d="M1022.1,351.5c-0.1,0-0.1,0-0.2,0l-30.2,54.1h14.6l30.2-54.1H1022.1z"/>
		<path class="st2" d="M1076.7,262.4c2.6,0,4.7,2.1,4.7,4.7v3.9l73.1-131.2H1140l-68.4,122.6H1076.7z"/>
		<polygon class="st2" points="1055,351.5 1024.8,405.6 1039.4,405.6 1069.6,351.5 		"/>
		<path class="st2" d="M1101.2,284.1c2.6,0,4.7-2.1,4.7-4.7v-12.3c0-2.6,2.1-4.7,4.7-4.7h8.6l68.4-122.6H1173l-80.5,144.3H1101.2z"
			/>
		<polygon class="st2" points="1088,351.5 1057.8,405.6 1072.5,405.6 1102.6,351.5 		"/>
		<path class="st2" d="M1137.9,262.4c2.6,0,4.7,2.1,4.7,4.7v12.6l78-139.9c-0.2,0-0.3,0-0.5,0H1206l-68.4,122.6H1137.9z"/>
		<polygon class="st2" points="1118.3,351.5 1088.1,405.6 1102.7,405.6 1132.9,351.5 		"/>
		<path class="st2" d="M1142.6,312.4C1142.6,312.4,1142.6,312.4,1142.6,312.4c0,2.6,2.1,4.7,4.7,4.7h4.7l14.4-25.8v-24.2
			c0-2.6,2.1-4.7,4.7-4.7h11.4l58-104.1l-9.4-9.4l-88.6,158.9V312.4z"/>
		<polygon class="st2" points="1151.3,351.5 1121.1,405.6 1135.8,405.6 1165.9,351.5 		"/>
		<polygon class="st2" points="1215.6,262.4 1261.8,179.5 1252.4,170.1 1200.9,262.4 		"/>
		<polygon class="st2" points="1184.3,351.5 1154.1,405.6 1168.8,405.6 1198.9,351.5 		"/>
		<path class="st2" d="M1280.2,204.6C1280.2,204.6,1280.2,204.6,1280.2,204.6c1.8-1.8,1.8-4.8,0-6.7l-6.6-6.6l-25.1,45L1280.2,204.6
			z"/>
		<polygon class="st2" points="1217.3,351.5 1187.1,405.6 1201.8,405.6 1232,351.5 		"/>
		<path class="st2" d="M1262.6,350.5c-0.6,0.6-1.4,1-2.3,1H1249l-30.2,54.1h14.6l32.7-58.6L1262.6,350.5z"/>
		<path class="st2" d="M1276.7,312.8v15.2l10.3-18.4h-7C1278.2,309.5,1276.7,311,1276.7,312.8z"/>
		<polygon class="st2" points="1302,315.6 1251.8,405.6 1266.5,405.6 1302,341.9 		"/>
		<path class="st2" d="M1329.8,324.9l-3.6,6.4v17.2c0,1.8-1.5,3.2-3.2,3.2h-8.1l-30,53.9h14.6l45-80.7H1329.8z"/>
		<path class="st2" d="M1355.4,351.7c-1.8,0-3.2-1.5-3.2-3.2V344l-34.3,61.6h14.6l30-53.9H1355.4z"/>
		<path class="st2" d="M1407.7,270.7v-3.6v0c0-1.8-1.5-3.2-3.2-3.2h-7.6l-13.4,24v26.3L1407.7,270.7z"/>
		<path class="st2" d="M1458.2,167.3l4.6,4.6l19.7-35.4l-24.3,24.3C1456.4,162.6,1456.4,165.5,1458.2,167.3z"/>
		<polygon class="st2" points="1407.7,298.8 1348.1,405.6 1362.8,405.6 1407.7,325 		"/>
		<polygon class="st2" points="1482.2,191.3 1518,127.1 1508.6,117.7 1472.8,181.9 		"/>
		<polygon class="st2" points="1411.6,351 1381.1,405.6 1395.8,405.6 1426.2,351 		"/>
		<path class="st2" d="M1501.7,210.8c0.6,0.6,1.3,1,2,1.2l35.5-63.6l-9.4-9.4l-35.8,64.2L1501.7,210.8z"/>
		<polygon class="st2" points="1444.6,351 1414.2,405.6 1428.8,405.6 1459.2,351 		"/>
		<path class="st2" d="M1551.7,167.3c1.8-1.8,1.8-4.7,0-6.5l-0.7-0.7l-9.9,17.8L1551.7,167.3z"/>
		<polygon class="st2" points="1477.6,351 1447.2,405.6 1461.8,405.6 1492.2,351 		"/>
		<polygon class="st2" points="1510.6,351 1480.2,405.6 1494.8,405.6 1525.3,351 		"/>
		<path class="st2" d="M1623.6,219.7v14.3l9.8-17.5h-6.5C1625,216.4,1623.6,217.9,1623.6,219.7z"/>
		<polygon class="st2" points="1543.6,351 1513.2,405.6 1527.9,405.6 1558.3,351 		"/>
		<polygon class="st2" points="1623.6,293.1 1666.3,216.4 1651.7,216.4 1623.6,266.9 		"/>
		<path class="st2" d="M1577.9,350.1c-0.3,0.3-0.7,0.5-1.1,0.7l-30.6,54.8h14.6l48.6-87.1L1577.9,350.1z"/>
		<path class="st2" d="M1786.7,0.5l-13.3,0.3c-0.6,0-1.2,0.2-1.8,0.4l-2.9,5.2v26.3L1786.7,0.5z"/>
		<polygon class="st2" points="1682.1,221 1579.3,405.6 1593.9,405.6 1682.1,247.3 		"/>
		<path class="st2" d="M1780.5,70.9l35.8-64.2l-5.3-5.3c-0.9-0.9-2.2-1.4-3.5-1.4l-2.1,0.1l-34.2,61.4L1780.5,70.9z"/>
		<polygon class="st2" points="1690.7,260 1609.5,405.6 1624.2,405.6 1705.3,260 		"/>
		<polygon class="st2" points="1799.9,90.3 1835.7,26.1 1826.3,16.7 1790.5,80.9 		"/>
		<polygon class="st2" points="1723.7,260 1642.5,405.6 1657.2,405.6 1738.4,260 		"/>
		<path class="st2" d="M1812.8,105.1v21.4l44.2-79.2l-9.4-9.4l-35.8,64.2C1812.4,103,1812.8,104,1812.8,105.1z"/>
		<polygon class="st2" points="1756.7,260 1675.6,405.6 1690.2,405.6 1771.4,260 		"/>
		<path class="st2" d="M1812.8,167.4c0,2.7,2.2,4.8,4.8,4.8h2.7l49-87.9V61.7c0-0.9-0.3-1.7-0.7-2.4l-55.9,100.2V167.4z"/>
		<polygon class="st2" points="1789.8,260 1708.6,405.6 1723.2,405.6 1804.4,260 		"/>
		<polygon class="st2" points="1853.3,172.2 1869.3,143.5 1869.3,117.3 1838.7,172.2 		"/>
		<polygon class="st2" points="1821.4,260 1740.2,405.6 1754.9,405.6 1836,260 		"/>
		<path class="st2" d="M1938.8,60v15.6l21.4-38.3l-20.4,20.4C1939.2,58.3,1938.8,59.1,1938.8,60z"/>
		<polygon class="st2" points="1854.4,260 1773.2,405.6 1787.9,405.6 1869.1,260 		"/>
		<path class="st2" d="M1938.8,134.8l62.8-112.6V3.7c0-0.9-0.3-1.7-1-2.3c-0.5-0.5-1-0.7-1.6-0.9l-60.2,108V134.8z"/>
		<polygon class="st2" points="1887.4,260 1806.3,405.6 1820.9,405.6 1902.1,260 		"/>
		<path class="st2" d="M1938.8,188.3c0,0.9-0.3,1.7-1,2.3l-25,25c-0.6,0.6-1,1.4-1,2.3v24.4l89.7-160.9V55.2l-62.8,112.6V188.3z"/>
		<polygon class="st2" points="2001.6,114.4 1839.3,405.6 1853.9,405.6 2001.6,140.7 		"/>
		<polygon class="st2" points="2001.6,168.7 1869.5,405.6 1884.2,405.6 2001.6,195 		"/>
		<polygon class="st2" points="2001.6,227.9 1902.6,405.6 1917.2,405.6 2001.6,254.2 		"/>
		<polygon class="st2" points="2001.6,287.2 1935.6,405.6 1950.2,405.6 2001.6,313.4 		"/>
		<polygon class="st2" points="2001.6,346.4 1968.6,405.6 1983.2,405.6 2001.6,372.6 		"/>
	</g>
</g>
</svg>
