<svg id="parallax_layer_2" data-name="parallax layer 2" xmlns="http://www.w3.org/2000/svg" viewBox="0 0 2029.76 231.86"><defs><style>.cls-1{fill:#ca3759;}</style></defs><path class="cls-1" d="M7.62,338.9,41,276.41,80.24,350.3l49.83-80.19,76.13,74.76s99.67-75,133.91-72.46,91.26,53.65,91.26,53.65,108.08-83.33,136.2-81.52,109.61,63.64,109.15,65,78-91.29,78-91.29l94.93,85.33s45.1-78.81,79.8-78,86.67,85.76,86.67,85.76,35.16-136.58,79.8-133.37,94.93,138.41,94.93,138.41,74.29-72.22,118.55-73.29,56.48,13,56.48,13,54.42-76.6,118.47-72.69,85.76,113.27,85.76,113.27,81.71-124.58,126.42-123.58,142.32,93.32,142.32,93.32,73.07-97.31,117.86-100,80.71,142.62,80.71,142.62L1864,390.73,10.61,398.29Z" transform="translate(-7.62 -166.43)"/></svg>