<svg id="Layer_1" data-name="Layer 1" xmlns="http://www.w3.org/2000/svg" viewBox="0 0 1152 648"><defs><style>.cls-1{fill:#2e2c72;}.cls-2{fill:#362e7d;}.cls-3{fill:#402f88;}.cls-4{fill:#55338c;}.cls-5{fill:#7d3793;}.cls-6{fill:#913f98;}.cls-7{fill:#ab448d;}</style></defs><rect class="cls-1" width="1152" height="648"/><rect class="cls-2" x="-0.397" y="76.959" width="1152" height="571.521"/><rect class="cls-3" x="-0.397" y="178.612" width="1152" height="469.868"/><rect class="cls-4" x="-0.397" y="299.273" width="1152" height="349.207"/><rect class="cls-5" x="-0.397" y="407.537" width="1152" height="240.942"/><rect class="cls-6" x="-0.397" y="499.273" width="1152" height="149.207"/><rect class="cls-7" x="-0.397" y="573.876" width="1152" height="74.603"/><path class="cls-2" d="M35.82,82.172c-6.049-.434-7.05-10.079-2.439-14.019s11.366-3.665,17.412-3.177C49.332,56.694,49.284,47.3,54.749,40.9s18.027-6.314,20.732,1.649c.754,2.218,1.134,5.227,3.426,5.716a4.913,4.913,0,0,0,2.952-.619c5.546-2.487,11.027-5.516,17.072-6.146s12.972,1.936,15.138,7.615c.875,2.3.918,4.916,2.226,7,4.786,7.608,18.668-.074,25.017,6.288,1.457,1.46,2.249,3.477,3.687,4.957,3.165,3.258,8.624,3.012,12.7,1s7.262-5.406,10.889-8.141a39.788,39.788,0,0,1,36.986-5.477c8.978,3.3,16.686,9.862,26.045,11.839,9.61,2.03,20.429-.894,28.9,4.082a4.887,4.887,0,0,1,2.211,2.182c.847,2.086-1.134,4.4-3.319,4.938s-4.466-.063-6.707-.279c-7.354-.708-14.36,2.77-21.391,5.039-9.345,3.017-19.215,3.95-28.993,4.865l-33.746,3.158c-12.254,1.147-24.531,2.3-36.839,2.238-18.348-.085-36.566-2.846-54.706-5.6L31.766,80.333"/><path class="cls-2" d="M1113.013,81.152a16.124,16.124,0,0,0-25.334-16.595,48.9,48.9,0,0,0-8.96-33.932c-1.216-1.67-2.678-3.354-4.679-3.864a9.645,9.645,0,0,0-4.92.462,153.61,153.61,0,0,0-36.175,15.366c-4.682-.5-8.8-3.224-13.295-4.629s-10.353-.942-12.635,3.176a29.675,29.675,0,0,1-1.717,3.552c-2.724,3.659-8.772,1.293-11.55-2.326s-4.567-8.4-8.7-10.325a102.876,102.876,0,0,1-54.893,28.794A45.132,45.132,0,0,0,920.6,63.08c-4.48,1.856-8.223,5.466-12.971,6.455-3.488.728-7.088-.057-10.6-.639A93.781,93.781,0,0,0,838,78.633,150.807,150.807,0,0,0,868.17,89.317"/><path class="cls-3" d="M221.764,181.991c-3.537-2.783-7.364-7.77-4.392-11.15,3.63-4.128,10.874,1.579,15.789-.883,4.293-2.151,4.213-9.239,8.629-11.127,5.872-2.509,11.524,6.963,17.659,5.192,3.16-.912,4.694-4.37,6.111-7.338,2.787-5.837,6.837-11.349,12.585-14.315s13.413-2.806,18.126,1.624a31.786,31.786,0,0,0,3.543,3.415c3.933,2.683,9.241.84,13.6-1.068l25.266-11.055c8.11-3.549,18.387-6.825,25.062-1.011,3.938,3.43,5.132,8.945,6.4,14.01a7.107,7.107,0,0,0,2.039,4.023c2.867,2.274,6.815-.65,10.388-1.438,8.545-1.885,14.339,8.732,22.491,11.911,6.682,2.606,14.1-.109,21-2.06s15.357-2.73,20.269,2.5c1.537,1.636,2.618,3.781,4.568,4.894,2.012,1.149,4.493.94,6.8.7l41.722-4.412c5.183-.548,10.577-1.072,15.477.7s9.125,6.578,8.427,11.743c-.584,4.325-4.429,7.63-8.591,8.945s-8.633,1.041-12.992.813a295.121,295.121,0,0,0-47.029.8c-24.978,2.687-49.339,9.774-74.344,12.2-31.266,3.028-62.774-1.308-93.647-7.1-10.512-1.973-21.03-4.121-31.7-4.785-13.267-.825-28.55-.118-37.433-10.006"/><path class="cls-3" d="M1155.516,143.376a21.759,21.759,0,0,0-12.251-4.556c-3.746-.182-7.7.717-10.465,3.248s-3.99,6.909-2.2,10.2c-1.219-3.035-6.007-2.174-8.171.279s-3.243,5.879-5.932,7.741c-5.482,3.795-12.518-1.29-19-2.83-9.094-2.158-18.079,3.051-27.056,5.651-7.086,2.052-14.575,2.5-21.6,4.739s-13.949,6.873-16.028,13.952q49.512,3.132,99.119,4.394c8.244.21,17.793-.213,22.779-6.781,2.644-3.483,3.383-8.029,3.694-12.391a83.746,83.746,0,0,0-2.906-28.552"/><path class="cls-3" d="M-13.6,143.352a100.579,100.579,0,0,1,26.585,5.921c2.2.814,4.706,2.146,4.889,4.48.089,1.142-.436,2.3-.188,3.414.459,2.071,3.24,2.7,5.261,2.05s3.722-2.1,5.768-2.66c3.9-1.074,7.9,1.294,10.96,3.941s6,5.8,9.927,6.767c2.018.5,4.14.36,6.179.757,7.461,1.456,11.894,11.178,8.1,17.765a6.432,6.432,0,0,1-2.141,2.367,8.812,8.812,0,0,1-4.732.823l-47.218-.626c-3.81-.05-7.808-.149-11.119-2.037A18.447,18.447,0,0,1-7.6,179.5a48.607,48.607,0,0,1-6.45-31.4"/><path class="cls-4" d="M976.337,306.663a11.685,11.685,0,0,0-18.493-13.707,75.157,75.157,0,0,0-19.355-37.678,15.151,15.151,0,0,0-5.555-4.126c-4.712-1.695-9.878,1.091-13.518,4.531s-6.667,7.7-11.111,10.014a22.024,22.024,0,0,0-41.369-5.612c-3.3,6.675-3.019,14.465-3.714,21.88a6.146,6.146,0,0,1-1.374,3.937c-2.983,2.924-7.2-1.658-10.806-3.767-4.7-2.749-10.624-.9-15.771.874q-13.258,4.57-26.888,7.952a28.635,28.635,0,0,1-7.554,1.14c-11.443-.285-19.206-13.014-30.534-14.658-8.661-1.258-17.684,5.484-18.934,14.146a31.159,31.159,0,0,0-27-10.672c-1.748.207-3.608.636-4.782,1.948a8,8,0,0,0-1.563,4.15,89.817,89.817,0,0,0-1.13,17.949,4.626,4.626,0,0,0,1.1,3.406,4.737,4.737,0,0,0,3.439.718l18.624-.946"/><path class="cls-4" d="M60.189,311.563c-1.487-2.859-.516-6.291,2.407-8.516-8.735-3.9-10.231-13.928-2.843-19.051a19.461,19.461,0,0,1,.325-24.092,8.893,8.893,0,0,1,3.54-2.958c3.543-1.5,8.093-.14,11.484,1.534a40.822,40.822,0,0,1,16.115,13.565,6.511,6.511,0,0,0,3.038,2.938c1.691.642,3.754.282,5.6-.085,3.967-.788,8.067-1.549,12.155-1.2s8.213,2.065,9.539,4.847c1.637,3.435.023,8.8,5.009,9.516,3.442.492,5.869-2.193,8.133-4.106,6.989-5.911,19.379-6.214,30.215-6.045,2.082.033,4.369.123,5.885,1.141a5.487,5.487,0,0,1,2.024,3.306l2.891,9.607c.723,2.405,1.517,4.914,3.734,6.8,6.274,5.331,18.123,2.362,27.391.185,12.409-2.915,25.608-3.554,38.644-4.172,12.193-.577,25.785-.839,35.015,4.874,1.936,1.2,3.67,2.751,3.877,4.573.487,4.275-7.2,6.584-13.187,6.189s-12.271-2.075-17.773-.347"/><path class="cls-5" d="M594.547,417.907a16.093,16.093,0,0,0,12.432-11.036,13.578,13.578,0,0,1-14.02-7.891c-1.109-2.61-1.784-6.011-4.493-6.849-1.543-.477-3.3.114-4.785-.525-2.56-1.1-2.458-4.68-2.26-7.46a35.387,35.387,0,0,0-8.841-25.813c-5.286-5.9-14.822-9.778-20.937-4.748-2.74,2.254-4.067,5.746-5.987,8.73s-5.161,5.749-8.64,5.046c-2.407-.487-4.226-2.518-6.567-3.262-4.57-1.452-9.1,2.38-11.778,6.356s-4.98,8.716-9.4,10.577c-2.647,1.114-5.626.977-8.469,1.379-10.269,1.451-19.365,10-29.6,8.317-7.514-1.237-12.9-7.6-18.5-12.766-6.174-5.693-13.817-10.461-22.212-10.678s-17.311,5.446-18.41,13.771c-2.2-.449-3.03-3.147-4.784-4.545-3.189-2.54-7.9.016-10.661,3.015s-5.564,6.791-9.639,6.928c-3.084.1-5.766-2-8.734-2.842-6.342-1.8-13.648,3.547-13.862,10.134-5.121-6.668-15.518-4.263-23.442-1.454s-18.722,4.433-23-2.806l-13.05,27.237a4.243,4.243,0,0,0-.611,2.819,3.847,3.847,0,0,0,2.141,2.154c8.52,4.51,18.828,2.127,28.408,1.057a96.589,96.589,0,0,1,30.132,1.383"/><path class="cls-5" d="M1154.877,365.781a14.064,14.064,0,0,0-14.611-2.739,12.333,12.333,0,0,0-7.752,11.841c.27,3.9,2.167,8.741-1.216,11.052a7.922,7.922,0,0,1-4.2,1.042c-9.257.323-19.639-3.111-27.13,1.958-2.152,1.457-3.851,3.533-6.283,4.539-2.175.9-4.652.823-7.03.73l-20.262-.79c-3.586-.14-7.362-.333-10.384-2.134-2.769-1.65-4.547-4.454-7.271-6.168-6.657-4.188-15.607-.427-22.348,3.644s-14.852,8.637-22.259,5.736c-4.527-1.772-7.761-6.111-12.6-6.878-4.628-.733-8.966,2.054-12.707,4.693-4.232,2.986-8.551,6.058-11.439,10.2s-4.107,9.652-1.72,14.065c3.873,7.163,14.348,7.961,22.962,7.663,45.572-1.572,91.156-6.626,136.662-3.851,8.225.5,16.568,1.252,24.648-.267s16.043-5.735,19.575-12.663"/><path class="cls-6" d="M-6.615,448.767c-1.009-4.666-.794-9.788,1.655-13.885s7.47-6.834,12.1-5.675,7.841,6.861,5.649,11.1c5.355-3.307,12.6,1.121,15.188,6.858s2.235,12.31,3.324,18.509a39.9,39.9,0,0,0,9.05,19.061,8.181,8.181,0,0,0,3.784,2.827c1.753.479,3.6-.127,5.32-.705a213.465,213.465,0,0,1,57.471-10.819c3.022-.146,6.486-.046,8.452,2.254,3.007,3.52,1.227,10.714,5.668,12.018,1.923.564,3.9-.533,5.626-1.548A126.541,126.541,0,0,1,149.8,478.147c4.158-1.422,9.274-2.449,12.524.509a11.839,11.839,0,0,1,2.88,5.158,62.7,62.7,0,0,1,3.214,22.383c-.052,1.331-.244,2.842-1.33,3.612a4.57,4.57,0,0,1-2.678.557c-21.332.018-155.9-2.02-177.236-2"/><path class="cls-6" d="M507.641,505.275c-2.489-.8-5.124-1.689-6.767-3.722s-1.669-5.581.616-6.851c2-1.114,4.627.006,6.752-.857,5.388-2.188.72-12.008,5.235-15.673,2.527-2.05,6.669-.916,9.133-3.042,1.8-1.553,1.992-4.212,2.279-6.573a38.159,38.159,0,0,1,18.217-27.824,6.267,6.267,0,0,1,3.363-1.129c4.186.195,4.2,6.311,5.978,10.108,2.927,6.263,11.784,6.315,18.5,4.671s14.619-3.765,19.9.7c5.1,4.321,5.858,13.613,12.377,15.109a13.528,13.528,0,0,0,5.926-.427l36.922-8.27c3.2-.717,6.537-1.434,9.726-.667,2.985.717,5.51,2.661,7.845,4.655A105.586,105.586,0,0,1,679.2,481.975c3.059,4.034,6,8.443,10.471,10.815,9.461,5.018,20.9-1.123,29.17-7.93s17.15-14.99,27.835-14.288c6.238.41,11.806,3.872,17.077,7.234,4.1,2.615,8.42,5.477,10.4,9.92,4.145,9.315-4.1,19.506-12.79,24.839-10.325,6.337-22.128,9.958-34.065,12.027-33.124,5.74-67-.09-100.311-4.616q-58.069-7.891-116.7-10.479"/><path class="cls-6" d="M1155.08,453.23c-6.105-.907-11.945,2.453-17.2,5.685-2.267,1.393-4.594,2.84-6.159,4.992-4.1,5.643-1.93,14.552-6.926,19.42-4.1,3.99-10.663,3.083-16.382,3.079a42.387,42.387,0,0,0-37.7,24.209l36.959,5.629c7.14,1.087,14.616,2.147,21.438-.223,8.29-2.879,15.139-10.648,23.9-10.2,2.392.123,5.35.649,6.7-1.328a5.636,5.636,0,0,0,.7-2.99l.922-21.563c.4-9.271.188-19.98-6.989-25.862"/><path class="cls-7" d="M1072.422,575.15a11.972,11.972,0,0,1-4.87-1.434,17.449,17.449,0,0,1-3.082-2.626c-6.888-6.362-23.161-8.807-34.775-5.225-2.774-4.133-9.439-6.971-15.781-9.577a64.093,64.093,0,0,0-13.975-4.476c-5.162-.869-11.249-.619-15.266,1.4a26.419,26.419,0,0,1-3.108,1.578c-4.974,1.782-11.028-.954-16.8-1.636-8.324-.983-16.009,2.463-22.586,5.5s-15.268,6.024-23.058,4.1c-5.43-1.339-8.3-4.612-12.118-7.164s-10.815-4.506-15.434-2.415c-2.638,1.194-3.361,3.241-4.9,4.937-4.724,5.207-16.491,6.683-26.764,7.579l-14.324,1.249a6.007,6.007,0,0,1-2.937-.229c-.873-.435-.764-1.211-1.231-1.812-1.474-1.9-6.577-.923-9.53.318l-23.738,9.975c-1.9.8-3.907,1.68-4.6,2.954s.739,2.976,3.108,2.946a10.332,10.332,0,0,0,2.584-.493c5.6-1.5,12.028-1.566,18.23-1.6,46.891-.244,93.783-.489,140.675-.407"/><path class="cls-7" d="M381.879,573.381c-.9-5.042-11.258-7.44-17.807-4.861-2.194.864-4.983,2.125-6.941,1.037a2.807,2.807,0,0,1-1.219-1.45c-2.058-4.867,2.9-10.857-1.862-14.788-4.144-3.418-12.592-2.307-17.793.391s-8.968,6.6-14.713,8.751-14.925,1.321-16.441-2.96a77.8,77.8,0,0,1-40.674-1.747,115.921,115.921,0,0,0-4.588-19.26c-1.093-3.317-2.945-7.089-7.706-8.279-7.836-1.957-14.2,4.515-21.865,6.76-11.723,3.436-25.986-3.548-37.745-.167-2.086.6-4.049,1.521-6.314,1.635-2.461.123-4.758-.728-7.064-1.316-8.338-2.124-18.468-.63-24.693,3.64s-8.192,11.075-4.793,16.586a150.557,150.557,0,0,0-19.959,3.225c-5.085,1.181-10.877,3.431-10.786,7.027.042,1.7,1.475,3.234,2.859,4.664l6.884,7.112a9.848,9.848,0,0,0,4.218,2.95,16.149,16.149,0,0,0,5.2.372L173.1,581.44"/></svg>