<?xml version="1.0" encoding="UTF-8"?><svg xmlns="http://www.w3.org/2000/svg" viewBox="0 0 23.5461 33.9193"><defs><style>.d{fill:#aa8335;}.e{fill:#0a210a;}</style></defs><g id="a"/><g id="b"><g id="c"><g><path class="e" d="M11.6106,33.9193l-.0134-2.7855-.4174,.4814-.1629-.8492-1.873,1.0819h-.4421l.5933-1.0819-1.524,.4421-.8492,.0349,.4072-.5235-1.7625,.5613,1.8584-1.7101s.1745-1.047-1.7363,.5671l-.445,.2269,.0349-.5671-1.2215,.2618,.2356-.698-2.7484,.9598,.4101-.6806-.9772,.1309s1.6578-1.1517,1.6839-1.1604-1.4222,.2967-1.4222,.2967l.2618-.445-1.5007,.0611,1.1953-.541,5.2874-2.9491-.8405,.1018,.1629-.4072-1.6054,.5584,.0698-.5933-1.3146,.6049-.1629-.5817H1.7683s6.7474-3.3039,6.8521-4.4556c0-.1512-2.1522,.1745-2.1522,.1745l1.2215-1.5589-1.8963,.8841,.0814-.4886-1.1052,.3257,.7911-.5817-1.9428,.3374,5.7237-4.1764-1.1052-.0233,.9656-.9539s-1.1284,.7096-2.8735-.1512c1.0586-.0931,2.4779-.9656,2.4779-.9656l-1.8148-.1047,2.9549-2.1871-1.7799-.7794,1.5007-1.0121-1.2913-.6631,2.1522-1.2099-1.2099-.0582,1.7799-1.3378-1.3611-.1512,1.0121-.9307-.5119-.1512,1.1517-1.1633-.8143,.128,1.0354-.8725,.1958-.5468s.3965-3.6384,.793-1.2041l.061,1.305,.2319,.5527,.6089,.4842-.5774,.1167,1.1065,1.3193-1.0557-.1658,1.6403,1.6752h-1.1604l1.5705,.8812-.7853,.3054,.541,.9859,.89,.6282-1.3349,.3752,3.0538,2.8618-1.4571,.1047,.602,.4973h-.8725l.1134,.3577-.8114-.0524,3.6907,2.7222-1.7537,.3926,1.9457,1.5618,1.3378,.6515h-2.0824l.8027,.6398h-.9307l.5351,.4886h-2.1173l.7678,1.0935,5.2816,2.7222-.9423,.2094-.2908,.3723s-1.7334-.6747-1.7799-.6864,.57,.8027,.57,.8027l-1.5705-.221-.0349,.4304h-1.4542s3.6064,2.4547,6.6078,2.792l-1.1052,.2676-.1745,.6631-1.4774-.0465-.5119,.3025,3.0131,1.4309h-2.0591l.3257,.4653-1.7334-.2094,.1163,.5002-2.8502-.6864,.4072,1.047-.6864,.1163,.5933,.6282-1.6752-.4072-.1629,.57-1.7683-.8492-.2443,.1978,.0349,.4537-.8122-.3844,.0566,2.8033-1.2217,.0132Z"/><polygon class="d" points="11.4228 2.6946 12.945 3.3197 12.9783 3.2864 12.9413 3.2689 11.5596 2.6165 11.4228 2.6946"/><polygon class="d" points="10.7493 4.6488 12.3984 4.9956 12.8772 5.0163 13.504 4.9921 13.57 5.0595 12.9053 5.1705 12.3938 5.1284 10.67 4.7217 10.7493 4.6488"/><polygon class="d" points="10.4832 6.193 10.9926 6.4946 11.5328 6.7846 12.0159 7.0186 12.6671 7.1602 13.4938 7.3564 14.0963 7.4194 14.3326 7.4828 14.4338 7.6672 14.0823 7.5666 13.6978 7.5382 13.1645 7.4965 12.4585 7.2723 11.9805 7.1742 11.455 6.9301 10.9926 6.6768 10.4832 6.4316 10.3171 6.3179 10.4832 6.193"/><polygon class="d" points="9.8576 9.3251 9.4943 9.1164 9.6674 8.9997 9.8296 9.0729 10.8665 9.5633 11.5811 9.7595 12.562 9.8295 13.4798 9.6964 14.2855 9.5773 14.5344 9.4888 14.6218 9.5707 14.7085 9.6519 14.2294 9.7875 13.5708 9.9416 12.583 10.0677 11.5951 10.0187 10.7754 9.7595 9.8576 9.3251"/><path class="d" d="M8.8065,13.0831l-.3182,.1818,2.3945,1.4199,1.4926,.5231,.7493,.0689c.4431,.0407,.8766,.1556,1.2817,.3395,.2655,.1206,.523,.2367,.5493,.2454,.056,.0187,1.4386,.4858,1.4386,.4858l.8887,.1458-.1897-.1983-.1424-.0369-.5433-.0791-1.3135-.4959-1.2238-.5855-1.3768-.1319-1.5456-.5486-1.9782-1.1975-.163-.1365Z"/><path class="d" d="M8.3253,20.7436c-.1182,.1274,.077,.2249,.077,.2249l1.5921,.5962c.0908,.034,.1839,.0618,.2785,.0832l1.9878,.4492,1.5415,.4143c.0839,.0225,.1691,.0399,.2551,.0521l.6801,.0963c.3159,.0447,.6379,.0182,.9423-.0777l.9085-.2863c.1042-.0328,.2056-.0736,.3036-.1219l1.0299-.5083,.3603-.3032v-.1688l-.1643-.1003-.0131,.1687-.3149,.2446-.9954,.4379c-.0749,.0329-.1516,.0616-.2298,.0857l-.9191,.284c-.2768,.0855-.568,.1139-.8561,.0834l-.6131-.0649c-.1264-.0134-.2513-.038-.3732-.0735l-1.449-.4224c-.0407-.0119-.0817-.0225-.123-.0319l-1.955-.4457c-.062-.0141-.1233-.031-.1838-.0506l-1.5287-.4954-.0517-.1768-.0274-.0842-.1588,.1916Z"/><polygon class="d" points="5.9489 25.3313 5.5629 25.5466 7.2287 26.4866 8.697 26.8286 9.8927 27.2396 11.7731 27.5572 13.8534 27.7627 15.1986 27.4451 17.0482 27.0341 18.6549 26.4549 19.3275 25.9692 19.5613 25.7428 19.143 25.534 18.4681 26.1 17.2537 26.547 15.236 27.0715 13.8161 27.3891 11.9291 27.1462 10.0795 26.8659 8.8651 26.3802 7.2957 26.1373 5.9489 25.3313"/></g></g></g></svg>