<?xml version="1.0" encoding="UTF-8"?><svg xmlns="http://www.w3.org/2000/svg" viewBox="0 0 14.7109 23.8211"><defs><style>.d{fill:#0a210a;}</style></defs><g id="a"/><g id="b"><g id="c"><path class="d" d="M7.4756,0s2.1153,5.3604,2.548,5.5046h-1.274l2.0191,2.2595-1.0336-.1442,1.298,1.923,.2163,.7452,.9855,1.4663-1.947-.3365s-.5048,.5048,.1923,.9615,2.4037,2.0913,2.4037,2.0913h-1.6826l2.3797,1.947h-1.7307l2.8605,2.548-2.6441,.2404-.5769,.8413-1.5865-.5529-1.4422,.5529-.3846,.7452,.2163,1.2499,.7211,1.7788h-3.3893s.8653-1.5384,.9375-1.6826,.024-1.6345,.024-1.6345l-.9615-.3606-.6009-.5769-.8173,.4807s-1.274,.3606-1.7067-.7692c-.1923-.5529-2.4999,.0481-2.4999,.0481l3.0047-2.6922H1.1778l1.8268-1.8028-1.1778-.2884s2.572-1.8509,2.548-2.6321-1.3942-.4447-1.3942-.4447l2.0191-3.2691-.9615-.3606,1.6105-2.1393-.9375,.0961S7.5478,.625,7.4756,0Z"/></g></g></svg>