<?xml version="1.0" encoding="UTF-8"?><svg xmlns="http://www.w3.org/2000/svg" viewBox="0 0 14.1581 25.648"><defs><style>.d{fill:#0a210a;}</style></defs><g id="a"/><g id="b"><g id="c"><path class="d" d="M14.1581,17.1627s-3.4854,1.5624-4.2066,1.1778c0,0,.3846,1.4422,3.5095,2.1634-1.1778,.7452-3.2931,.4567-3.2931,.4567l.1683,1.6586-1.7788-1.8268-.3606,2.2595-.673-1.0817s.4567,1.9951,.3365,2.0191,.9134,1.5624,.9134,1.5624l-3.6297,.0961,.9855-1.0096,.1442-2.7883-.5048-.2163-1.5144,1.3942v-2.6201s-2.1387,.4045-3.7739,.024c2.6201-1.274,3.4854-1.8509,3.4854-1.8509,0,0-3.7258-.9855-3.9662-1.274,.1647,.1035,2.9566-.5769,3.0768-1.2499H1.5384s1.8268-.673,1.9951-1.0576-3.0528-.625-3.0528-.625l2.9566-2.2114,.6971-1.0336-2.7403-.3606s4.7113-1.6586,2.572-1.947c-.8653-.1923-1.3701,0-1.3701,0,0,0,3.6777-1.6826,2.548-1.899-.7211-.2404-1.7547-.3365-1.7547-.3365l2.1874-1.0576s.024-.4207-.6009-.661c1.2139-.5889,.3726-.8533,.2284-.8774,.8173-.3485,.631-.9615,.631-.9615l-.2344-.8894,.5769,.4086,.7211-2.548,.3606,.4327,.1442,1.1057,.3606,.8173,.625-.1202-.4447,1.0246,.3786,.7662s-.442,.2571-.2223,.4687c.1082,.6851,1.1899,.9495,1.1899,.9495l-1.1899,.2764,2.0432,1.3161-1.7788,.2945c-.8653-.3125,2.4999,1.5384,2.4999,1.5384l-2.6201-.2644,4.0143,1.8268-3.1249,1.2019,4.4229,3.5335s-3.7739-1.3701-3.3893-.3846c0,0,.6009,2.1393,3.9902,2.3797Z"/></g></g></svg>