<?xml version="1.0" encoding="UTF-8"?><svg xmlns="http://www.w3.org/2000/svg" viewBox="0 0 15.1679 25.0774"><defs><style>.d{fill:#0a210a;}</style></defs><g id="a"/><g id="b"><g id="c"><g><path class="d" d="M7.3245,23.8887l.1824-3.2298-1.4907,.4812,.2233-.3428,.4843-.4403c-.0252,.0189-.1258,.0818-.2988,.1541l.1227-.1887c.1635-.2516,.5221-.2799,.7265-.0566l1.5819,1.7486,.0189,1.4938,.7233,1.5693h-3.1921l.9183-1.1888Z"/><path class="d" d="M10.9663,20.0645l1.3712,.8491-1.6165-.3145-1.2485-.2453,1.1039,.8334,.066,.0503-.0755-.0189-1.7266-.4151,.0157,1.2108-1.5819-1.7486c-.2044-.2233-.5629-.195-.7265,.0566l-.1227,.1887c-.2799,.1195-.7453,.2673-1.3932,.2988l.7391-.8271-4.0129,.129-1.0001,.0314,.912-.1447,2.1354-.3428-3.8053-.1604s2.6795-.434,2.9436-.7988l-1.7832-.4529s2.4153-.3774,2.5411-1.0252c.0094-.0472,.0157-.0912,.0157-.1258,.0063-.478-.629-.1824-.629-.1824l.3617-.8774,.3963-.9623-.3051,.0881-1.4089,.3994,.2799-.2736h.0031l1.0661-1.0472,.0031-.0031,.5787-.5692-.9183,.0723,1.8744-1.5316-1.0818,.1981,.5944-.7579,.9026-1.1542-.6196,.4403-1.0032,.7139,.6321-.9372,.6258-.9277,.1635-.2421s.1635-.868-.8806-.9215l.5472-.6227,.0031-.0031,.8554-.9781-.7768,.2579-.3019,.1006c.0094-.0157,.0629-.0849,.1415-.1918,.1887-.2579,.5409-.7422,.89-1.258,.6007-.89,1.1919-1.8775,.9309-1.975-.0377,.0912-.9372,.2893-.9372,.2893,0,0,.0314-.0346,.0912-.0975,.1635-.1792,.5346-.6038,.9372-1.2045,.5063-.7485,1.0693-1.7737,1.3492-2.9342,0,0,.0503,.9372,.4686,1.9278,.2453,.5818,.6164,1.1793,1.1793,1.6133,.0943,.0755,.1918,.1447,.2988,.2076-.2327-.0063-.9718-.0723-.9718-.0723,0,0,.8648,1.9121,1.6385,1.9656,.3679,.0283,.1667,.0566-.1478,.0786h-.0031c-.2485,.0189-.5661,.0346-.7296,.044-.0692,0-.1101,.0031-.1101,.0031l.173,.1635,.0094,.0063,.0031,.0031,.7139,.6919,1.8052,1.7328-2.4342-.8837,1.6416,1.4246-1.2454-.2359s-.412,.2925,.4906,1.3837c.2893,.3522,.7107,.7831,1.3271,1.3146,.0377,.0314,.0755,.066,.1132,.0975l-.7736-.3145h-.0031l-1.4907-.607-.0409-.0157,.0377,.0346,1.4404,1.3366,.0031,.0031,.5126,.478c-.1038-.0252-1.7108-.4025-.8051,.3648,.5818,.4183,.846,.5787,.8932,.6101-.1195-.0157-1.4372-.195-.3868,.6164,.0849,.0566,.1761,.1321,.2767,.2107l.0252,.0157,.0409,.0283c.2673,.1981,.5692,.4308,.8428,.6447,.4749,.3711,.868,.6856,.868,.6856l-1.6165-.2453-.0031-.0031-.3805-.0566,.8177,.6919,.4371,.3648,.0063,.0063h-.0063c-.1038-.0063-1.2171-.0566-1.4215,.2233-.0943,.1289,.0094,.3302,.5095,.6416,1.3492,.8397,2.1857,.8082,2.431,.7737l-1.2768,.2736,1.9278,.846-2.9216,.4151,2.0568,.5755h-3.3368Z"/></g></g></g></svg>