<?xml version="1.0" encoding="UTF-8"?><svg xmlns="http://www.w3.org/2000/svg" viewBox="0 0 23.8173 33.9193"><defs><style>.d{fill:#608696;}.e{fill:#0a210a;}</style></defs><g id="a"/><g id="b"><g id="c"><g><path class="e" d="M11.6106,33.9193l-.0134-2.7855-.4174,.4814-.1629-.8492-1.873,1.0819h-.4421l.5933-1.0819-1.524,.4421-.8492,.0349,.4072-.5235-1.7625,.5613,1.8584-1.7101s.1745-1.047-1.7363,.5671l-.445,.2269,.0349-.5671-1.2215,.2618,.2356-.698-2.7484,.9598,.4101-.6806-.9772,.1309s1.6578-1.1517,1.6839-1.1604-1.4222,.2967-1.4222,.2967l.2618-.445-1.5007,.0611,1.1953-.541,5.2874-2.9491-.8405,.1018,.1629-.4072-1.6054,.5584,.0698-.5933-1.3146,.6049-.1629-.5817H1.7683s6.7474-3.3039,6.8521-4.4556c0-.1512-2.1522,.1745-2.1522,.1745l1.2215-1.5589-1.8963,.8841,.0814-.4886-1.1052,.3257,.7911-.5817-1.9428,.3374,5.7237-4.1764-1.1052-.0233,.9656-.9539s-1.1284,.7096-2.8735-.1512c1.0586-.0931,2.4779-.9656,2.4779-.9656l-1.8148-.1047,2.9549-2.1871-1.7799-.7794,1.5007-1.0121-1.2913-.6631,2.1522-1.2099-1.2099-.0582,1.7799-1.3378-1.3611-.1512,1.0121-.9307-.5119-.1512,1.1517-1.1633-.8143,.128,1.0354-.8725,.1958-.5468s.3965-3.6384,.793-1.2041l.061,1.305,.2319,.5527,.6089,.4842-.5774,.1167,1.1065,1.3193-1.0557-.1658,1.6403,1.6752h-1.1604l1.5705,.8812-.7853,.3054,.541,.9859,.89,.6282-1.3349,.3752,3.0538,2.8618-1.4571,.1047,.602,.4973h-.8725l.1134,.3577-.8114-.0524,3.6907,2.7222-1.7537,.3926,1.9457,1.5618,1.3378,.6515h-2.0824l.8027,.6398h-.9307l.5351,.4886h-2.1173l.7678,1.0935,5.2816,2.7222-.9423,.2094-.2908,.3723s-1.7334-.6747-1.7799-.6864,.57,.8027,.57,.8027l-1.5705-.221-.0349,.4304h-1.4542s3.6064,2.4547,6.6078,2.792l-1.1052,.2676-.1745,.6631-1.4774-.0465-.5119,.3025,3.0131,1.4309h-2.0591l.3257,.4653-1.7334-.2094,.1163,.5002-2.8502-.6864,.4072,1.047-.6864,.1163,.5933,.6282-1.6752-.4072-.1629,.57-1.7683-.8492-.2443,.1978,.0349,.4537-.8122-.3844,.0566,2.8033-1.2217,.0132Z"/><g><path class="d" d="M8.6726,20.8485l-.3853-.2965s-2.9478,1.4085-3.0624,1.6377-.5159,.7166-.6019,.7166-1.2898,.7452-1.2898,.7452c0,0-.2006,.8025,1.0032,.4873s1.6602,.0734,1.6602,.0734c0,0,1.6933-.3887,1.9799-.8473s.5118,.258,.5118,.258l.8354,.5893s.8117-.6484,.9934-.6905,.4094-.6154,.3529-.7014-1.0311-.8885-1.0311-.8885l-1.3516-.6019,.3853-.4814Z"/><path class="d" d="M14.9893,20.552l.6693-.3686h.3833s.8186,.3943,.9347,.3686,1.586,.5868,1.586,.5868l2.1783,.9936s1.1651,.6954,1.2415,.7718,.4586,.4395,.4586,.4395l-.4013,.2045-.9931-.0266-1.2803-.5485-.6879,.2419s-.9745,.3392-1.0318,.3066-.8776-.6058-.7636-.6822-.6279-1.2994-.6279-1.2994l-1.2265,.172-1.6432-.4204s.6688-.8487,1.2038-.7397Z"/><path class="d" d="M12.3754,17.8044l-.6024-.3153-.7583,.3153-1.6624,.6306h-.864l-1.8993,.6118c-.1565,.0504-.3199,.0761-.4843,.0761h-1.0607c-.0653,0-.1306,.0041-.1954,.0121l-1.1231,.14,.2383-.893,1.3726-.8385c.0588-.0359,.1139-.0652,.1769-.0932,.2807-.1247,1.1498-.5176,1.3302-.6819,.2159-.1966,1.207-.8272,1.207-.8272,0,0-.1699-.2624,.4379-.5159s1.5941,.086,1.7306,.1433c.091,.0382,.6051,.3302,.9379,.5208,.1765,.1011,.3303,.2316,.4541,.393,.1505,.196,.3669,.4514,.4905,.4771,.2031,.0422,.6201,.2874,.7842,.3224s1.4253,0,1.4253,0l.4091,.5268,.8087-.5051,.9984,.1981s.6493,.4636,1.1652,.5823,1.0318,.348,1.0318,.348c0,0,.3726,.1439,.6592,.4875s.6306,.4815,.7166,.6132-.2866,.0322-.5446,.1823-1.1239-.0075-1.3185,.1214-.172-.0314-.4299-.0587-.6019-.0328-1.0892-.245-.6942-.4415-1.0493-.4415c-.0384,0-.0826,.002-.131,.0056-.7331,.0542-1.4386-.2963-1.8857-.8797h0l-.3057-.5562-.5637,.0096s-.0478,.1433-.2102,.1624l-.1624,.0191"/><path class="d" d="M8.053,10.0677l.4353-.4321,1.0691-.483,.6615-.3387h1.3308s1.3475,.2568,1.4285,.1857,.3294-.2048,.4059-.1857c.0345,.0086,.7129,.1272,.8217,.2866,.1319,.1934-.3057,.4331-.3057,.4331l-1.1226,.1377s-1.1393,.1291-1.3113,.1146-.796,.3489-.8455,.4299-1.1895,.172-1.1895,.172l-.3846-.2174s-.2307,.1164-.3412,.0771-.6524-.18-.6524-.18Z"/><path class="d" d="M11.1867,5.7017l.4156,.1003,.5177,.3368s.0234,.2291-.0662,.2651c-.0577,.0232-.0264,.183,.2293,.4228,.1915,.1795,.7844,.2183,.7954,.2221,0,0,.4153,.4525-.2007,.3009-.2014-.0495-.8103-.1461-1.0103-.2588-.3334-.1879-.3769-.4423-.4586-.4219-.2285,.0571-.5176-.169-.5303-.1595-.0215,.0162-.4996,.3386-.5615,.3601s-.7257,.1818-.7843,.2092-.3094,0-.3094,0l.5446-.3381,.3368-.301,.2508-.4873s.4873-.0788,.5303-.0932,.256-.1576,.256-.1576h.0449Z"/><path class="d" d="M14.3347,13.3795l.3273-.2965s2.3209,.6421,2.4183,.8714,.4383,.7166,.5113,.7166,1.0957,.7452,1.0957,.7452c0,0,.1704,.8025-.8522,.4873s-1.4104,.0734-1.4104,.0734c0,0-1.4385-.3887-1.682-.8473s.3507-.4319,.3507-.4319l-.7097,.5893s-.6896-.6484-.844-.6905-.3478-.6154-.2998-.7014,.8759-.8885,.8759-.8885l.3628,.088-.144,.2849Z"/><path class="d" d="M12.2987,2.3643c.0274-.0085,.4322,.0376,.4322,.0376l.5065,.4198,.3114,.1955,.0327,.1947-.3452,.0381s-.3199-.1101-.3663-.1145-.1088-.0599-.1469-.0856-.4686-.334-.4686-.334l-.1346-.1606,.1787-.191Z"/><path class="d" d="M16.7488,24.4109l1.2119,.2281c.3579,.0674,.7041,.1714,1.0358,.3118,.5023,.2127,1.2095,.5114,1.2396,.5206,.0469,.0143,2.7523,1.0605,2.8149,1.0748s.7663,.2006,.7663,.2006v.4156l-.4413,.2257c-.4476,.229-.9457,.3629-1.4574,.392h0c-.3174,.018-.6359-.0045-.9465-.0671l-.7517-.1513,.2129,.4137,.7097,.5197-.9016-.1224c-.5213-.0708-1.0261-.2204-1.4938-.4428l-.7742-.3682s-.8562-.8297-.77-.8582,.9469-.874,.77-.917-2.1943,1.2748-2.1943,1.2748v.8032l-.8282,.5544c-.3755,.0403-.9257,.2809-1.2803,.4013l-.7834-.2089-1.3376-.6746-.7668-.736-.6472,.1863-.6568,.6306-2.1531,.2403c-.1908,.0213-.3829,.032-.5751,.032h-.6991c-.8892,0-1.7605,.2284-2.5152,.6592h0s-1.2458-.1931-1.2458-.7691,.7298-1.414,.7298-1.414l.8549-.6401s.6933-.1003,1.0217-.0717,1.4074,.0822,1.6107,.1414,1.0478,.1742,1.0478,.1742l.9696,.3006s.735,.1433,.907,.1433,.344,.0573,.6255,.0287,.5004-.1146,.5004-.1146l.686,.0478,.9172,.7261,1.1234,.5541,.9976-.1191,.6369-.5738,.1224-.542s-.185-.7622-.0911-.8338,.5943-1.0605,.5943-1.0605c0,0,.6881-.3583,.7506-.3726s.4535-.1433,.4535-.1433Z"/></g></g></g></g></svg>