<?xml version="1.0" encoding="UTF-8"?><svg xmlns="http://www.w3.org/2000/svg" viewBox="0 0 23.555 37.295"><defs><style>.d{fill:#aa8335;}.e{fill:#36a84c;}.f{fill:#8db7c6;}.g{fill:#d1a14b;}.h{fill:#154215;}.i{fill:#fffcde;}.j{fill:#a84e36;}.k{fill:#ce6651;}.l{fill:#fff6b6;}.m{fill:#4ad861;}</style></defs><g id="a"/><g id="b"><g id="c"><path class="h" d="M11.569,37.295l.029-4.45-.417,.481-.163-.849-1.873,1.082h-.442l.593-1.082-1.524,.442-.849,.035,.407-.524-1.762,.561,1.858-1.71s.174-1.047-1.736,.567l-.445,.227,.035-.567-1.221,.262,.236-.698-2.748,.96,.41-.681-.977,.131s1.658-1.152,1.684-1.16-1.422,.297-1.422,.297l.262-.445-1.501,.061,1.195-.541,5.287-2.949-.84,.102,.163-.407-1.605,.558,.07-.593-1.315,.605-.163-.582H1.768s6.747-3.304,6.852-4.456c0-.151-2.152,.174-2.152,.174l1.221-1.559-1.896,.884,.081-.489-1.105,.326,.791-.582-1.943,.337,5.724-4.176-1.105-.023,.966-.954s-1.128,.71-2.873-.151c1.059-.093,2.478-.966,2.478-.966l-1.815-.105,2.955-2.187-1.78-.779,1.501-1.012-1.291-.663,2.152-1.21-1.21-.058,1.78-1.338-1.361-.151,1.012-.931-.512-.151,1.152-1.163-.814,.128,1.035-.872,.196-.547s.396-3.638,.793-1.204l.061,1.305,.232,.553,.609,.484-.577,.117,1.106,1.319-1.056-.166,1.64,1.675h-1.16l1.571,.881-.785,.305,.541,.986,.89,.628-1.335,.375,3.054,2.862-1.457,.105,.602,.497h-.873l.113,.358-.811-.052,3.691,2.722-1.754,.393,1.946,1.562,1.338,.652h-2.082l.803,.64h-.931l.535,.489h-2.117l.768,1.094,5.282,2.722-.942,.209-.291,.372s-1.733-.675-1.78-.686,.57,.803,.57,.803l-1.57-.221-.035,.43h-1.454s3.606,2.455,6.608,2.792l-1.105,.268-.174,.663-1.477-.046-.512,.302,3.013,1.431h-2.059l.326,.465-1.733-.209,.116,.5-2.85-.686,.407,1.047-.686,.116,.593,.628-1.675-.407-.163,.57-1.768-.849-.244,.198,.035,.454-.812-.384,.015,4.467-1.222,.013h0Z"/><polygon class="d" points="11.423 4.407 12.945 5.032 12.978 4.998 12.941 4.981 11.56 4.328 11.423 4.407"/><polygon class="d" points="10.749 6.361 12.398 6.708 12.877 6.728 13.504 6.704 13.57 6.771 12.905 6.882 12.394 6.84 10.67 6.434 10.749 6.361"/><polygon class="d" points="10.483 7.905 10.993 8.207 11.533 8.497 12.016 8.731 12.667 8.872 13.494 9.068 14.096 9.131 14.333 9.195 14.434 9.379 14.082 9.279 13.698 9.25 13.165 9.208 12.458 8.984 11.981 8.886 11.455 8.642 10.993 8.389 10.483 8.144 10.317 8.03 10.483 7.905"/><polygon class="d" points="9.858 11.037 9.494 10.828 9.667 10.712 9.83 10.785 10.866 11.275 11.581 11.471 12.562 11.541 13.48 11.408 14.285 11.289 14.534 11.201 14.622 11.283 14.708 11.364 14.229 11.499 13.571 11.654 12.583 11.78 11.595 11.731 10.775 11.471 9.858 11.037"/><path class="d" d="M8.807,14.795l-.318,.182,2.394,1.42,1.493,.523,.749,.069c.443,.041,.877,.156,1.282,.34,.266,.121,.523,.237,.549,.245,.056,.019,1.439,.486,1.439,.486l.889,.146-.19-.198-.142-.037-.543-.079-1.314-.496-1.224-.585-1.377-.132-1.546-.549-1.978-1.198-.163-.137h0Z"/><path class="d" d="M8.325,22.456c-.118,.127,.077,.225,.077,.225l1.592,.596c.091,.034,.184,.062,.278,.083l1.988,.449,1.542,.414c.084,.022,.169,.04,.255,.052l.68,.096c.316,.045,.638,.018,.942-.078l.908-.286c.104-.033,.206-.074,.304-.122l1.03-.508,.36-.303v-.169l-.164-.1-.013,.169-.315,.245-.995,.438c-.075,.033-.152,.062-.23,.086l-.919,.284c-.277,.086-.568,.114-.856,.083l-.613-.065c-.126-.013-.251-.038-.373-.073l-1.449-.422c-.041-.012-.082-.022-.123-.032l-1.955-.446c-.062-.014-.123-.031-.184-.051l-1.529-.495-.052-.177-.027-.084-.159,.192h0Z"/><polygon class="d" points="5.949 27.043 5.563 27.259 7.229 28.199 8.697 28.541 9.893 28.952 11.773 29.269 13.853 29.475 15.199 29.157 17.048 28.746 18.655 28.167 19.327 27.681 19.561 27.455 19.143 27.246 18.468 27.812 17.254 28.259 15.236 28.783 13.816 29.101 11.929 28.858 10.08 28.578 8.865 28.092 7.296 27.849 5.949 27.043"/><circle class="g" cx="15.061" cy="12.47" r=".451"/><circle class="e" cx="10.699" cy="18.48" r=".514"/><circle class="d" cx="16.042" cy="19.929" r=".613"/><circle class="d" cx="6.843" cy="25.234" r=".307"/><circle class="k" cx="15.659" cy="26.721" r=".598"/><circle class="k" cx="9.898" cy="21.217" r=".675"/><circle class="m" cx="12.677" cy="7.92" r=".301"/><circle class="k" cx="10.67" cy="14.344" r=".451"/><circle class="m" cx="11.121" cy="31.397" r=".514"/><polygon class="i" points="12.201 0 12.884 1.385 14.413 1.607 13.307 2.686 13.568 4.208 12.201 3.49 10.833 4.208 11.094 2.686 9.988 1.607 11.517 1.385 12.201 0"/><polygon class="l" points="12.204 .392 12.76 1.519 14.004 1.7 13.104 2.577 13.316 3.816 12.204 3.231 11.092 3.816 11.304 2.577 10.404 1.7 11.648 1.519 12.204 .392"/><circle class="e" cx="12.679" cy="7.92" r=".234"/><circle class="d" cx="15.062" cy="12.47" r=".36"/><circle class="j" cx="10.67" cy="14.344" r=".36"/><circle class="j" cx="9.9" cy="21.217" r=".54"/><circle class="j" cx="15.66" cy="26.721" r=".45"/><circle class="e" cx="11.124" cy="31.397" r=".45"/><circle class="l" cx="11.124" cy="6.503" r=".09"/><circle class="l" cx="11.863" cy="6.655" r=".09"/><circle class="l" cx="12.64" cy="6.792" r=".09"/><circle class="l" cx="13.251" cy="6.773" r=".09"/><circle class="l" cx="11.777" cy="4.489" r=".09"/><circle class="l" cx="12.811" cy="4.962" r=".09"/><circle class="l" cx="12.179" cy="4.68" r=".09"/><circle class="l" cx="14.179" cy="9.226" r=".09"/><circle class="l" cx="13.528" cy="9.136" r=".09"/><circle class="l" cx="12.712" cy="8.978" r=".09"/><circle class="l" cx="11.996" cy="8.824" r=".09"/><circle class="l" cx="11.464" cy="8.552" r=".09"/><circle class="l" cx="10.967" cy="8.312" r=".09"/><circle class="l" cx="14.449" cy="11.336" r=".09"/><circle class="l" cx="13.924" cy="11.464" r=".09"/><circle class="l" cx="13.327" cy="11.554" r=".09"/><circle class="l" cx="12.679" cy="11.644" r=".09"/><circle class="l" cx="12.057" cy="11.644" r=".09"/><circle class="l" cx="11.525" cy="11.572" r=".09"/><circle class="l" cx="8.852" cy="15.021" r=".09"/><circle class="l" cx="9.489" cy="15.435" r=".09"/><circle class="l" cx="10.129" cy="15.794" r=".09"/><circle class="l" cx="10.94" cy="16.255" r=".09"/><circle class="l" cx="12.428" cy="16.776" r=".09"/><circle class="l" cx="11.701" cy="16.55" r=".09"/><circle class="l" cx="13.841" cy="16.978" r=".09"/><circle class="l" cx="13.118" cy="16.866" r=".09"/><circle class="l" cx="16.776" cy="18.032" r=".09"/><circle class="l" cx="16.042" cy="17.837" r=".09"/><circle class="l" cx="14.488" cy="17.237" r=".09"/><circle class="l" cx="15.298" cy="17.578" r=".09"/><circle class="l" cx="8.87" cy="22.736" r=".09"/><circle class="l" cx="11.14" cy="23.402" r=".09"/><circle class="l" cx="10.237" cy="23.204" r=".09"/><circle class="l" cx="9.59" cy="22.988" r=".09"/><circle class="l" cx="12.625" cy="23.772" r=".09"/><circle class="l" cx="13.535" cy="24.031" r=".09"/><circle class="l" cx="14.453" cy="24.211" r=".09"/><circle class="l" cx="15.42" cy="24.189" r=".09"/><circle class="l" cx="16.521" cy="23.894" r=".09"/><circle class="l" cx="17.6" cy="28.318" r=".09"/><circle class="l" cx="16.657" cy="28.567" r=".09"/><circle class="l" cx="13.884" cy="29.229" r=".09"/><circle class="l" cx="12.945" cy="29.113" r=".09"/><circle class="l" cx="12.183" cy="28.973" r=".09"/><circle class="l" cx="11.312" cy="28.933" r=".09"/><circle class="l" cx="10.028" cy="28.793" r=".09"/><circle class="l" cx="8.856" cy="28.329" r=".09"/><circle class="l" cx="7.237" cy="28.024" r=".09"/><circle class="l" cx="8" cy="28.15" r=".09"/><circle class="l" cx="5.986" cy="27.297" r=".09"/><circle class="l" cx="6.626" cy="27.642" r=".09"/><g><path class="f" d="M8.673,22.56l-.385-.296s-2.948,1.409-3.062,1.638-.516,.717-.602,.717-1.29,.745-1.29,.745c0,0-.201,.802,1.003,.487,1.204-.315,1.66,.073,1.66,.073,0,0,1.693-.389,1.98-.847s.512,.258,.512,.258l.835,.589s.812-.648,.993-.691,.409-.615,.353-.701-1.031-.889-1.031-.889l-1.352-.602,.385-.481Z"/><path class="f" d="M14.989,22.264l.669-.369h.383s.819,.394,.935,.369,1.586,.587,1.586,.587l2.178,.994s1.165,.695,1.242,.772,.459,.44,.459,.44l-.401,.205-.993-.027-1.28-.549-.688,.242s-.975,.339-1.032,.307-.878-.606-.764-.682-.628-1.299-.628-1.299l-1.226,.172-1.643-.42s.669-.849,1.204-.74h0Z"/><path class="f" d="M12.375,19.516l-.602-.315-.758,.315-1.662,.631h-.864l-1.899,.612c-.156,.05-.32,.076-.484,.076h-1.061c-.065,0-.131,.004-.195,.012l-1.123,.14,.238-.893,1.373-.838c.059-.036,.114-.065,.177-.093,.281-.125,1.15-.518,1.33-.682,.216-.197,1.207-.827,1.207-.827,0,0-.17-.262,.438-.516s1.594,.086,1.731,.143c.091,.038,.605,.33,.938,.521,.177,.101,.33,.232,.454,.393,.151,.196,.367,.451,.491,.477,.203,.042,.62,.287,.784,.322s1.425,0,1.425,0l.409,.527,.809-.505,.998,.198s.649,.464,1.165,.582,1.032,.348,1.032,.348c0,0,.373,.144,.659,.487s.631,.482,.717,.613-.287,.032-.545,.182-1.124-.007-1.319,.121-.172-.031-.43-.059-.602-.033-1.089-.245-.694-.441-1.049-.441c-.038,0-.083,.002-.131,.006-.733,.054-1.439-.296-1.886-.88h0l-.306-.556-.564,.01s-.048,.143-.21,.162l-.162,.019"/><path class="f" d="M8.053,11.78l.435-.432,1.069-.483,.661-.339h1.331s1.347,.257,1.429,.186,.329-.205,.406-.186c.035,.009,.713,.127,.822,.287,.132,.193-.306,.433-.306,.433l-1.123,.138s-1.139,.129-1.311,.115-.796,.349-.845,.43-1.189,.172-1.189,.172l-.385-.217s-.231,.116-.341,.077-.652-.18-.652-.18h0Z"/><path class="f" d="M14.335,15.091l.327-.297s2.321,.642,2.418,.871,.438,.717,.511,.717,1.096,.745,1.096,.745c0,0,.17,.802-.852,.487s-1.41,.073-1.41,.073c0,0-1.439-.389-1.682-.847s.351-.432,.351-.432l-.71,.589s-.69-.648-.844-.691-.348-.615-.3-.701,.876-.889,.876-.889l.363,.088-.144,.285h0Z"/><path class="f" d="M12.299,4.076c.027-.009,.432,.038,.432,.038l.507,.42,.311,.195,.033,.195-.345,.038s-.32-.11-.366-.115-.109-.06-.147-.086-.469-.334-.469-.334l-.135-.161,.179-.191h0Z"/><path class="f" d="M1.59,29.475l.884-.7,.847-.344,1.064-.515s.455-.534,.573-.46,.745-.091,1.147-.007,.798,.294,.896,.408-.189,.229,.232,.592,.354,.669,1.056,.535,1.143,.038,1.611,.325,.288,1.319,.288,1.319l.387,.631-2.285-.65-2.451-.382-2.516,.478-.57-.401c-.217-.08-.978-.124-1.209-.124l-1.489,.033s.768-.616,1.159-.597c.392,.019,.377-.14,.377-.14h0Z"/><path class="f" d="M17.492,26.721s1.065-.235,1.72,.323,.325,.451,1.185,.68,.898,.21,1.433,.459,1.579,.44,1.716,.44-1.391,.923-1.888,.853-2.269-.452-1.545,.198-.565,.44-.551,.44-.779-1.092-1.448-1.414,.005-.597-.203-.681-1.163-.699-1.163-.699l.745-.598h0Z"/><path class="f" d="M15.83,27.9c-.343-.23-.935-.407-1.175-.172-.24,.235,.106,.65-.172,1.161-.025,.046-.205,.367-.545,.473-.34,.107-.587-.081-1.018-.229-.097-.033-1.447-.482-1.977,.057-.275,.279-.33,.824-.1,1.075,.272,.297,.904,.14,1.261-.086,.219-.138,.188-.209,.358-.301,.405-.218,.802,.063,1.634,.287,.655,.176,1.154,.31,1.691,.129,.101-.034,.771-.26,.888-.788,.077-.349-.122-.674-.328-1.011-.126-.205-.258-.42-.517-.594h0Z"/><path class="f" d="M12.477,22.526c.193,.038,.312,.292,.315,.487,.008,.467-.645,.75-.676,.763-.455,.191-.992,.101-1.015-.018-.018-.097,.299-.238,.344-.258,.324-.144,.459-.048,.573-.172,.169-.183-.048-.478,.143-.688,.079-.087,.206-.136,.315-.115h0Z"/><path class="f" d="M11.187,7.414l.416,.1,.518,.337s.023,.229-.066,.265c-.058,.023-.026,.183,.229,.423,.191,.18,.784,.218,.795,.222,0,0,.415,.452-.201,.301-.201-.049-.81-.146-1.01-.259-.333-.188-.377-.442-.459-.422-.229,.057-.518-.169-.53-.16-.021,.016-.5,.339-.561,.36s-.726,.182-.784,.209-.309,0-.309,0l.545-.338,.337-.301,.251-.487s.487-.079,.53-.093,.256-.158,.256-.158h.045Z"/></g></g></g></svg>