<?xml version="1.0" encoding="UTF-8"?><svg xmlns="http://www.w3.org/2000/svg" viewBox="0 0 24.2696 50.1659"><defs><style>.d{fill:#71d2e2;}.e{fill:#92ebff;}.f{fill:#58bcc6;}.g{fill:#7ddaea;}.h{fill:#b0f4ff;}</style></defs><g id="a"/><g id="b"><g id="c"><g><polygon class="e" points="24.2696 20.2426 22.6024 50.1659 0 29.9233 1.6671 0 24.2696 20.2426"/><polygon class="g" points="1.6671 0 24.2696 20.2426 18.3152 33.387 15.2517 29.3059 17.5784 35.0135 0 29.9233 1.6671 0"/><polygon class="f" points="11.1938 19.3516 6.4 9.1478 1.6671 0 .7967 15.6231 11.1938 19.3516"/><polygon class="d" points="11.0648 19.0353 17.5784 35.0135 0 29.9233 .7967 15.6231 11.0648 19.0353"/><polygon class="d" points="11.5143 20.1378 11.1096 8.4566 1.6671 0 11.5143 20.1378"/><polygon class="h" points="20.3013 35.3739 22.2217 46.5618 22.9096 27.9503 20.3013 35.3739"/></g></g></g></svg>