<?xml version="1.0" encoding="UTF-8"?><svg xmlns="http://www.w3.org/2000/svg" viewBox="0 0 24.2696 50.1659"><defs><style>.d{fill:#71d2e2;}.e{fill:#92ebff;}.f{fill:#58bcc6;}.g{fill:#7ddaea;}</style></defs><g id="a"/><g id="b"><g id="c"><g><polygon class="e" points="24.2696 20.2426 22.6024 50.1659 0 29.9233 1.6671 0 24.2696 20.2426"/><polygon class="f" points="5.7031 8.0766 7.4766 20.688 14.5849 29.0575 17.1166 40.3557 0 29.9233 1.6671 0 5.7031 8.0766"/><polygon class="d" points="12.9684 36.4715 23.7982 28.703 22.6024 50.1659 0 29.9233 12.9684 36.4715"/><polygon class="d" points="23.7982 28.703 17.1166 39.4906 5.7031 30.5479 3.5499 8.9651 2.9853 3.3657 24.2696 20.2426 23.7982 28.703"/><polygon class="f" points="2.1161 2.5314 21.8078 21.4332 21.9225 36.1657 23.7982 28.703 24.2696 20.2426 1.6671 0 2.1161 2.5314"/><polygon class="g" points="22.6024 50.1659 19.2282 42.9301 13.8548 36.1657 7.2855 29.2103 5.1072 7.6944 20.5085 22.2549 22.6024 50.1659"/><polygon class="f" points="8.2261 37.2906 15.8078 41.516 17.9598 46.0079 8.2261 37.2906"/><polygon class="f" points="23.4023 35.809 22.725 41.6492 22.9864 43.2737 23.4023 35.809"/><polygon class="e" points="12.5785 16.3887 19.6868 22.6944 21.7505 43.2737 17.9598 23.7262 10.2855 14.8409 12.5785 16.3887"/></g></g></g></svg>