<?xml version="1.0" encoding="UTF-8"?><svg xmlns="http://www.w3.org/2000/svg" viewBox="0 0 22.3858 46.5794"><defs><style>.d{fill:#71d2e2;}.e{fill:#92ebff;}.f{fill:#58bcc6;}.g{fill:#b0f4ff;}</style></defs><g id="a"/><g id="b"><g id="c"><g><polygon class="e" points="6.344 26.5213 0 0 10.4048 14.2782 10.3094 8.4393 13.8253 14.0953 18.7491 21.372 22.3858 46.5794 6.344 26.5213"/><polygon class="d" points="6.344 26.5213 9.8157 30.8622 12.6788 29.917 14.131 23.0093 15.3539 18.3722 14.9428 15.6426 10.3094 8.4393 10.4029 14.2437 0 0 6.344 26.5213"/><polygon class="f" points="10.2616 19.5698 11.1929 15.4311 11.1929 13.5412 10.3094 8.4393 10.4029 14.2437 0 0 6.344 26.5213 10.7488 26.5213 10.2616 19.5698"/><polygon class="g" points="17.5705 33.5475 21.6597 45.0507 19.1756 28.0826 17.5705 33.5475"/></g></g></g></svg>