<?xml version="1.0" encoding="UTF-8"?><svg id="a" xmlns="http://www.w3.org/2000/svg" viewBox="0 0 4919.9367 2558.9045"><defs><style>.b{fill:#142a3a;}</style></defs><path class="b" d="M1921.04,2292.7251s-11.0828,4.9682-13.3758,3.7452c0,0,1.2229,4.586,11.1592,6.879-3.7452,2.3694-10.4713,1.4522-10.4713,1.4522l.535,5.2739-5.6561-5.8089-1.1465,7.1847-2.1401-3.4395s1.4522,6.3439,1.0701,6.4204,2.9045,4.9682,2.9045,4.9682l-11.5414,.3057,3.1338-3.2102,.4586-8.8662-1.6051-.6879-4.8153,4.4331v-8.3312s-6.8006,1.2863-12,.0764c8.3312-4.051,11.0828-5.8854,11.0828-5.8854,0,0-11.8471-3.1338-12.6115-4.051,.5238,.3291,9.4013-1.8344,9.7834-3.9745h-4.8917s5.8089-2.1401,6.3439-3.3631-9.707-1.9873-9.707-1.9873l9.4013-7.0318,2.2166-3.2866-8.7134-1.1465s14.9809-5.2739,8.1783-6.1911c-2.7516-.6115-4.3567,0-4.3567,0,0,0,11.6943-5.3503,8.1019-6.0382-2.293-.7643-5.5796-1.0701-5.5796-1.0701l6.9554-3.3631s.0764-1.3376-1.9108-2.1019c3.8599-1.8726,1.1847-2.7134,.7261-2.7898,2.5987-1.1083,2.0064-3.0573,2.0064-3.0573l-.7452-2.828,1.8344,1.2994,2.293-8.1019,1.1465,1.3758,.4586,3.5159,1.1465,2.5987,1.9873-.3822-2.293,3.2102s-.7261,1.949,1.3758,3.9745c.3439,2.1783,3.7834,3.0191,3.7834,3.0191l-3.7834,.879,6.3439-.0764s-2.7516,6.1911-5.5032,5.1975,7.949,4.8917,7.949,4.8917l-8.3312-.8408,12.7643,5.8089-9.9363,3.8217,14.0637,11.2357s-12-4.3567-10.7771-1.2229c0,0,1.9108,6.8025,12.6879,7.5669Z"/></svg>