<?xml version="1.0" encoding="UTF-8"?><svg xmlns="http://www.w3.org/2000/svg" viewBox="0 0 15.1679 25.0774"><defs><style>.d{fill:#608696;}.e{fill:#0a210a;}</style></defs><g id="a"/><g id="b"><g id="c"><g><path class="e" d="M7.3245,23.8887l.1824-3.2298-1.4907,.4812,.2233-.3428,.4843-.4403c-.0252,.0189-.1258,.0818-.2988,.1541l.1227-.1887c.1635-.2516,1.0551-1.492,1.2595-1.2687l1.0331,1.7499,.0346,2.7046,.7233,1.5693h-3.1921l.9183-1.1888Z"/><path class="e" d="M10.9663,20.0645l1.3712,.8491-1.6165-.3145-1.2485-.2453,1.1039,.8334,.066,.0503-.0755-.0189-1.7266-.4151,.0157,1.2108-1.5819-1.7486c-.2044-.2233-.5629-.195-.7265,.0566l-.1227,.1887c-.2799,.1195-.7453,.2673-1.3932,.2988l.7391-.8271-4.0129,.129-1.0001,.0314,.912-.1447,2.1354-.3428-3.8053-.1604s2.6795-.434,2.9436-.7988l-1.7832-.4529s2.4153-.3774,2.5411-1.0252c.0094-.0472,.0157-.0912,.0157-.1258,.0063-.478-.629-.1824-.629-.1824l.3617-.8774,.3963-.9623-.3051,.0881-1.4089,.3994,.2799-.2736h.0031l1.0661-1.0472,.0031-.0031,.5787-.5692-.9183,.0723,1.8744-1.5316-1.0818,.1981,.5944-.7579,.9026-1.1542-.6196,.4403-1.0032,.7139,.6321-.9372,.6258-.9277,.1635-.2421s.1635-.868-.8806-.9215l.5472-.6227,.0031-.0031,.8554-.9781-.7768,.2579-.3019,.1006c.0094-.0157,.0629-.0849,.1415-.1918,.1887-.2579,.5409-.7422,.89-1.258,.6007-.89,1.1919-1.8775,.9309-1.975-.0377,.0912-.9372,.2893-.9372,.2893,0,0,.0314-.0346,.0912-.0975,.1635-.1792,.5346-.6038,.9372-1.2045,.5063-.7485,1.0693-1.7737,1.3492-2.9342,0,0,.0503,.9372,.4686,1.9278,.2453,.5818,.6164,1.1793,1.1793,1.6133,.0943,.0755,.1918,.1447,.2988,.2076-.2327-.0063-.9718-.0723-.9718-.0723,0,0,.8648,1.9121,1.6385,1.9656,.3679,.0283,.1667,.0566-.1478,.0786h-.0031c-.2485,.0189-.5661,.0346-.7296,.044-.0692,0-.1101,.0031-.1101,.0031l.173,.1635,.0094,.0063,.0031,.0031,.7139,.6919,1.8052,1.7328-2.4342-.8837,1.6416,1.4246-1.2454-.2359s-.412,.2925,.4906,1.3837c.2893,.3522,.7107,.7831,1.3271,1.3146,.0377,.0314,.0755,.066,.1132,.0975l-.7736-.3145h-.0031l-1.4907-.607-.0409-.0157,.0377,.0346,1.4404,1.3366,.0031,.0031,.5126,.478c-.1038-.0252-1.7108-.4025-.8051,.3648,.5818,.4183,.846,.5787,.8932,.6101-.1195-.0157-1.4372-.195-.3868,.6164,.0849,.0566,.1761,.1321,.2767,.2107l.0252,.0157,.0409,.0283c.2673,.1981,.5692,.4308,.8428,.6447,.4749,.3711,.868,.6856,.868,.6856l-1.6165-.2453-.0031-.0031-.3805-.0566,.8177,.6919,.4371,.3648,.0063,.0063h-.0063c-.1038-.0063-1.2171-.0566-1.4215,.2233-.0943,.1289,.0094,.3302,.5095,.6416,1.3492,.8397,2.1857,.8082,2.431,.7737l-1.2768,.2736,1.9278,.846-2.9216,.4151,2.0568,.5755h-3.3368Z"/><g><path class="d" d="M5.0874,10.43l.6693-.3686h.3833s.8186,.3943,.9347,.3686c.0097-.0021,.0322-.0047,.0653-.0075,1.2518-.1071,2.4837,.3687,3.3706,1.2585l.2562,.2571c.0476,.0478,.1009,.0895,.1588,.1242,.2715,.1628,1.0911,.6563,1.1548,.7199,.0764,.0764,.4586,.4395,.4586,.4395l-.4013,.2045-.9931-.0266-1.2803-.5485-.6879,.2419s-.9745,.3392-1.0318,.3066-.8776-.6058-.7636-.6822c.0648-.0435-.1473-.4579-.3422-.8072-.1658-.297-.4955-.4628-.8323-.4155l-.5194,.0728c-.1059,.0149-.2138,.0089-.3174-.0177l-1.4862-.3802s.6688-.8487,1.2038-.7397Z"/><path class="d" d="M8.9868,6.2301s-.0834-.2571-.3629-.2356c-.172,.0358-.4399,.2356-.4399,.2356l-.9808,.6306s-.2786-.1944-.5098,0-.5832,.0319-.6802,.0319l-1.2229,.4682c-.0385,0-.5523,.1988-.0669-.5541,0-.0585,.3351-.5183,.3351-.5183,.0347-.0359,.0672-.0652,.1044-.0932,.1656-.1247,.6101-.4607,.7166-.625,.1274-.1966,.5732-.9323,.5732-.9323,0,0,.1338-.5924,.2407-.7867,.2118-.3847,.7485,.5223,.8413,.4881,.2723-.1003,.5368-.0146,.7331,.176,.1041,.1011,.1948,.2316,.2679,.393,.0888,.196,.2126,.486,.2894,.4771,.3075-.0357,.3038,.1407,.4007,.1757s.4443-.0825,.9029,.1467c.1362,.0646,1.9204,2.1426-1.1419,.5223Z"/><path class="d" d="M8.9565,15.8969s1.0648-.2345,1.7197,.3225,.0336,.2788,.8935,.5081,.7684,.5314,1.3034,.7798,1.4677,.4108,1.6051,.4108-.8593,.8025-1.3561,.7328-2.2694-.4519-1.5455,.1977-.5653,.4395-.5513,.4395-.7793-1.0924-1.4481-1.414,.005-.5971-.2028-.6807-1.1632-.6986-1.1632-.6986l.7452-.5979Z"/><path class="d" d="M7.2839,12.3072l-.3853-.2965s-2.9478,1.4085-3.0624,1.6377-.5159,.7166-.6019,.7166-1.2898,.7452-1.2898,.7452c0,0-.2006,.8025,1.0032,.4873s1.6602,.0734,1.6602,.0734c0,0,1.6933-.3887,1.9799-.8473s.5118,.258,.5118,.258l.8354,.5893s.8117-.6484,.9934-.6905,.4094-.6154,.3529-.7014-1.0311-.8885-1.0311-.8885l.1038-1.1189-1.0702,.0356Z"/><path class="d" d="M7.6136,2.3162c.0353-.011,.7521,.1564,.7521,.1564l.6877,.6517,.419,.308,.0545,.2902-.4493,.0358s-.425-.1821-.4859-.1913-.1459-.0952-.1972-.1354-.6329-.5225-.6329-.5225l-.9646,.2336,.8169-.8264Z"/><path class="d" d="M2.4304,18.4893s.4617-.0806,.6955-.0671c.1439,.0226,.368,.1484,.368,.1484,0,0-2.3724,.3435-2.9877,.8358-.1014,.1059,3.1676,.3943,4.5636-.1197,.1565-.0576,.5853,.0932,.6664,.0932l.4372-.0671c.0093,0-.2304,.4408,.0908,.4677,.4653,.039,1.539-.3393,1.4999-.4154-.2913-.5665-1.1338-.5044-1.2517-.642,0-.0368-.4036-.1157-.4036-.1157-.029-.0226-.0562-.0411-.0873-.0587-.1386-.0785-.4865-.5223-.5755-.6257-.1066-.1238-.4889-.5255-.4889-.5255l-.3579-.1958c-.3153-.0885-.3619-.0549-.4395-.0764-.2278-.0632-.4663,.0396-.6306,.1596-.0871,.0636-.2733,.1979-.3344,.2995-.0743,.1234-.2319,.1866-.2962,.181-.2573-.0225-.4057,.0364-.4867,.0584s-.3717-.0519-.7554,.0924c-.1139,.0407-1.5668,.5084,.7739,.5732Z"/></g></g></g></g></svg>