<?xml version="1.0" encoding="UTF-8"?><svg id="a" xmlns="http://www.w3.org/2000/svg" viewBox="0 0 4919.9367 2558.9045"><defs><style>.b{fill:#142a3a;}</style></defs><path class="b" d="M1769.9464,2305.2477l.58-10.27-4.74,1.53,.71-1.09,1.54-1.4c-.08,.06-.4,.26-.95,.49l.39-.6c.52-.8,1.66-.89,2.31-.18l5.03,5.56,.06,4.75,2.3,4.99h-10.15l2.92-3.78Z"/><path class="b" d="M1781.5264,2293.0877l4.36,2.7-5.14-1-3.97-.78,3.51,2.65,.21,.16-.24-.06-5.4901-1.3199,.05,3.85-5.03-5.56c-.65-.71-1.79-.62-2.31,.18l-.39,.6c-.89,.38-2.37,.85-4.43,.95l2.35-2.63-12.76,.41-3.18,.1,2.9-.46,6.79-1.09-12.1-.51s8.52-1.38,9.36-2.54l-5.67-1.44s7.68-1.2,8.08-3.26c.03-.15,.05-.29,.05-.4,.02-1.52-2-.58-2-.58l1.15-2.79,1.26-3.06-.97,.28-4.48,1.27,.89-.87h.0099l3.39-3.33s0-.01,.01-.01l1.84-1.81-2.92,.23,5.96-4.87-3.44,.63,1.89-2.41,2.87-3.67-1.97,1.4-3.19,2.27,2.01-2.98,1.99-2.95,.52-.77s.52-2.76-2.8-2.93l1.74-1.98,.01-.01,2.72-3.11-2.47,.82-.96,.32c.03-.05,.2-.27,.45-.61,.6-.82,1.72-2.36,2.83-4,1.91-2.83,3.79-5.97,2.96-6.28-.12,.29-2.98,.92-2.98,.92,0,0,.1-.11,.29-.31,.52-.5699,1.7-1.92,2.98-3.83,1.61-2.38,3.4-5.64,4.29-9.33,0,0,.16,2.98,1.49,6.13,.78,1.85,1.96,3.75,3.75,5.13,.3,.24,.61,.46,.95,.66-.74-.02-3.09-.23-3.09-.23,0,0,2.75,6.08,5.21,6.25,1.17,.09,.53,.18-.47,.25h-.01c-.79,.06-1.8,.11-2.32,.14-.22,0-.35,.01-.35,.01l.55,.52,.03,.02,.01,.01,2.27,2.2,5.74,5.5099-7.74-2.81,5.22,4.53-3.96-.75s-1.31,.93,1.56,4.4c.92,1.1201,2.2599,2.4901,4.22,4.1801,.12,.1,.24,.21,.36,.31l-2.46-1h-.01l-4.74-1.9301-.13-.05,.12,.11,4.58,4.25,.0099,.0099,1.63,1.52c-.33-.08-5.44-1.28-2.56,1.16,1.85,1.33,2.69,1.84,2.84,1.94-.38-.05-4.57-.62-1.23,1.96,.27,.18,.56,.42,.8799,.67l.08,.05,.13,.09c.85,.63,1.81,1.37,2.68,2.05,1.51,1.18,2.76,2.18,2.76,2.18l-5.14-.78c-.01,0-.01-.01-.01-.01l-1.21-.18,2.6,2.2,1.39,1.16,.02,.02h-.02c-.33-.02-3.87-.18-4.52,.71-.3,.41,.03,1.05,1.62,2.04,4.29,2.67,6.95,2.57,7.73,2.46l-4.06,.87,6.13,2.69-9.29,1.3199,6.54,1.83h-10.61Z"/></svg>