<?xml version="1.0" encoding="UTF-8"?><svg xmlns="http://www.w3.org/2000/svg" viewBox="0 0 14.723 23.8211"><defs><style>.d{fill:#608696;}.e{fill:#0a210a;}</style></defs><g id="a"/><g id="b"><g id="c"><g><path class="e" d="M7.4877,0s2.1153,5.3604,2.548,5.5046h-1.274l2.0191,2.2595-1.0336-.1442,1.298,1.923,.2163,.7452,.9855,1.4663-1.947-.3365s-.5048,.5048,.1923,.9615,2.4037,2.0913,2.4037,2.0913h-1.6826l2.3797,1.947h-1.7307l2.8605,2.548-2.6441,.2404-.5769,.8413-1.5865-.5529-1.4422,.5529-.3846,.7452,.2163,1.2499,.7211,1.7788h-3.3893s.8653-1.5384,.9375-1.6826,.024-1.6345,.024-1.6345l-.9615-.3606-.6009-.5769-.8173,.4807s-1.274,.3606-1.7067-.7692c-.1923-.5529-2.4999,.0481-2.4999,.0481l3.0047-2.6922H1.1899l1.8268-1.8028-1.1778-.2884s2.572-1.8509,2.548-2.6321-1.3942-.4447-1.3942-.4447l2.0191-3.2691-.9615-.3606,1.6105-2.1393-.9375,.0961S7.5598,.625,7.4877,0Z"/><g><path class="d" d="M10.0766,9.4753l-.6785-.3686h-.3885s-.8299,.3943-.9475,.3686c-.0098-.0021-.0326-.0047-.0662-.0075-1.269-.1071-2.5178,.3687-3.417,1.2585l-.2597,.2571c-.0483,.0478-.1023,.0895-.161,.1242-.2752,.1628-1.1061,.6563-1.1707,.7199-.0775,.0764-.4649,.4395-.4649,.4395l.4068,.2045,1.0067-.0266,1.2978-.5485,.6973,.2419s.9879,.3392,1.046,.3066,.8896-.6058,.7741-.6822c-.0657-.0435,.1493-.4579,.3469-.8072,.168-.297,.5023-.4628,.8438-.4155l.5265,.0728c.1074,.0149,.2167,.0089,.3218-.0177l1.5067-.3802s-.678-.8487-1.2204-.7397Z"/><path class="d" d="M6.1236,5.2754s.1532,.2152,.4365,.2367c.1743,.0358,.339-.3654,.5732-.172,.2795,.5876,.7983,.5658,.7983,.5658,0,0,.2824-.1944,.5168,0s.5913,.0319,.6896,.0319l1.2397,.4682c.0391,0,.5599,.1988,.0678-.5541,0-.0585-.3397-.5183-.3397-.5183-.0352-.0359-.0681-.0652-.1058-.0932-.1679-.1247-.6185-.4607-.7264-.625-.1291-.1966-.5811-.9323-.5811-.9323,0,0-.1356-.5924-.2441-.7867-.2147-.3847-.7588,.5223-.8528,.4881-.276-.1003-.5441-.0146-.7432,.176-.1056,.1011-.1975,.2316-.2716,.393-.09,.196-.2155,.486-.2933,.4771-.3117-.0357-.308,.1407-.4062,.1757s-.4504-.0825-.9153,.1467c-.138,.0646-1.9468,2.1426,1.1576,.5223Z"/><path class="d" d="M7.8499,11.3525l.3905-.2965s2.9883,1.4085,3.1045,1.6377,.523,.7166,.6102,.7166,1.3075,.7452,1.3075,.7452c0,0,.2034,.8025-1.017,.4873s-1.6831,.0734-1.6831,.0734c0,0-1.7165-.3887-2.0071-.8473s-.5188,.258-.5188,.258l-.8468,.5893s-.8229-.6484-1.0071-.6905-.4151-.6154-.3577-.7014,1.0452-.8885,1.0452-.8885l-.1052-1.1189,1.0849,.0356Z"/><path class="d" d="M7.1187,1.7962c-.0373,.0026-.6551,.4202-.6551,.4202l-.416,.8589-.2855,.4402,.0529,.2906,.4379-.1305s.3365-.3249,.3908-.3557,.1038-.142,.1378-.1983,.4858-.907,.4107-.7183c.9014-.9075-.0735-.607-.0735-.607Z"/><path class="d" d="M12.3594,17.3593s.9936-.1051,2.2388,1.4764c.091,.1162-3.2348,.0522-4.5876-.6087-.1516-.0741-.5998,.0298-.6816,.0211l-.4336-.1137c-.0094-.001,.1856,.463-.1411,.4554-.4732-.0111-1.5155-.5026-1.468-.5741,.3537-.5321-1.8485-.6708-1.7151-.795,.0039-.0366,.8599-.172,.8599-.172-2.0451-.3337,.8205-.3871,.8536-.4013,.148-.0632,2.3903,.2762,2.491,.1829,.1205-.1117,.5484-.4701,.5484-.4701l.3815-.1563c.3272-.0542,.3706-.0158,.4511-.0288,.2363-.0384,.4445,.1178,.6188,.2264,1.138,.7094,.5839,.9578,.5839,.9578Z"/></g><path class="d" d="M7.1473,16.341l-.6785-.3686h-.3885s-.8299,.3943-.9475,.3686c-.0098-.0021-.0326-.0047-.0662-.0075-1.269-.1071-2.5178,.3687-3.417,1.2585l-.2597,.2571c-.0483,.0478-.1023,.0895-.161,.1242-.2752,.1628-.8121,.8573-.8121,.8573l-.4167,.5067,1.0067-.0266,1.2978-.5485,.6973,.2419s.9879,.3392,1.046,.3066,.8896-.6058,.7741-.6822c-.0657-.0435,.1493-.4579,.3469-.8072,.168-.297,.5023-.4628,.8438-.4155l.5265,.0728c.1074,.0149,.2167,.0089,.3218-.0177l1.5067-.3802s-.678-.8487-1.2204-.7397Z"/></g></g></g></svg>