<?xml version="1.0" encoding="UTF-8"?><svg id="a" xmlns="http://www.w3.org/2000/svg" viewBox="0 0 4919.9367 2558.9045"><defs><style>.b{fill:#142a3a;}</style></defs><path class="b" d="M1835.8358,2247.6295s6.7261,17.0446,8.1019,17.5032h-4.051l6.4204,7.1847-3.2866-.4586,4.1274,6.1146,.6879,2.3694,3.1338,4.6624-6.1911-1.0701s-1.6051,1.6051,.6115,3.0573,7.6433,6.6497,7.6433,6.6497h-5.3503l7.5669,6.1911h-5.5032l9.0955,8.1019-8.4076,.7643-1.8344,2.6752-5.0446-1.758-4.586,1.758-1.2229,2.3694,.6879,3.9745,2.293,5.6561h-10.7771s2.7516-4.8917,2.9809-5.3503,.0764-5.1975,.0764-5.1975l-3.0573-1.1465-1.9108-1.8344-2.5987,1.5287s-4.051,1.1465-5.4268-2.4459c-.6115-1.758-7.949,.1529-7.949,.1529l9.5541-8.5605h-5.8089l5.8089-5.7325-3.7452-.9172s8.1783-5.8854,8.1019-8.3694-4.4331-1.414-4.4331-1.414l6.4204-10.3949-3.0573-1.1465,5.121-6.8025-2.9809,.3057s9.0191-16.4331,8.7898-18.4204Z"/></svg>