<svg id="Layer_1" data-name="Layer 1" xmlns="http://www.w3.org/2000/svg" viewBox="0 0 72 72"><defs><style>.cls-1{fill:#fff;}</style></defs><path class="cls-1" d="M59.528,28.623c0,12.146-12.287,24.316-21.623,25.856l-.071.741a.422.422,0,0,1-.423.376H34.542a.432.432,0,0,1-.423-.388l-.059-.741c-9.218-1.575-21.588-13.721-21.588-25.844C12.472,15.63,23.007,7.2,36,7.2S59.528,15.63,59.528,28.623Z"/><path class="cls-1" d="M39.186,63.368h-.152l-.511,1a.782.782,0,0,1-.7.428l-3.8-.019a.781.781,0,0,1-.725-.5l-.359-.916h-.129l.3-3.735a.783.783,0,0,1,.781-.721h4.289a.783.783,0,0,1,.782.735Z"/></svg>