<?xml version="1.0" encoding="UTF-8"?><svg id="a" xmlns="http://www.w3.org/2000/svg" viewBox="0 0 1044.78 1000"><defs><style>.m{fill:#350e68;}.n{fill:#11dbad;}.o{fill:#7a16c1;}.p{fill:#123987;}.q{fill:#5b0d99;}.r{fill:#4dfed4;}.s{fill:#128fc6;}.t{fill:#8f37db;}.u{fill:#80ffe1;}.v{fill:#0b9985;}.w{fill:#1bb7e0;}.x{fill:#0a589e;}</style></defs><g id="b"><polygon class="r" points="627.628 106.777 624.342 133.146 634.737 153.401 638.023 155.771 640.316 130.471 627.628 106.777"/><polygon class="n" points="624.667 132.898 628.622 129.373 635.605 134.977 638.023 151.471 639.46 135.756 640.316 130.471 627.628 106.777 624.667 132.898"/><polygon class="u" points="637.507 153.535 634.493 145.763 633.265 135.936 628.737 130.92 625.723 133.432 634.985 152.876 637.507 154.854 637.507 153.535"/><polygon class="v" points="627.628 106.777 631.718 121.198 631.864 129.526 636.533 127.882 640.316 130.471 627.628 106.777"/><polygon class="v" points="627.39 108.841 629.883 123.095 624.988 127.959 627.39 108.841"/></g><g><polyline class="x" points="497.177 203.56 490.441 214.187 486.742 202.916"/><polyline class="q" points="486.742 202.916 493.346 188.701 497.177 203.56"/><polyline class="m" points="497.177 203.56 490.441 214.187 486.742 202.916"/><polyline class="m" points="486.742 202.916 490.118 195.65 489.49 201.46 492.67 200.511 490.009 207.203 490.559 212.519 494.682 205.181 494.79 202.643 495.793 199.761 497.177 203.56"/><polygon class="o" points="494.915 197.462 493.951 198.435 493.542 201.37 492.276 199.105 490.519 199.635 490.508 196.038 493.346 188.701 495.715 197.889 494.915 197.462"/><polygon class="t" points="494.985 195.529 493.683 197.418 493.015 199.015 493.317 194.501 493.423 190.005 493.933 194.184 494.203 195.419 494.985 195.529"/></g><g><polyline class="o" points="630.761 230.972 610.998 239.563 613.247 234.008 606.069 243.385 605.018 248.651 611.081 273.013 626.229 250.429"/><polyline class="o" points="626.229 250.429 623.852 246.555 630.761 230.972"/><polyline class="q" points="626.229 250.429 623.964 245.892 630.761 230.972"/><polyline class="q" points="630.498 231.086 610.998 239.563 613.247 234.008 606.069 243.385 608.196 247.512 611.903 253.037 614.658 248.421 619.961 243.745 620.399 251.184 616.061 265.589 626.229 250.429"/><path class="m" d="M625.095,250.498l-3.173,4.491-.094-7.906,3.203-8.044-2.964,1.167c-.547,.215-1.089-.323-.878-.872l.928-2.406-6.842,6.205-3.38,6.918-2.902-3.369-1.509-5.143,5.763-7.53-2.075,5.367,19.589-8.403"/><polyline class="m" points="630.761 230.972 624.06 246.084 625.095 250.498"/><polygon class="t" points="606.274 249.055 611.271 271.399 613.536 267.02 607.953 249.543 606.39 245.776 606.274 249.055"/></g><g id="c"><polygon class="x" points="680.968 208.231 679.312 192.831 690.338 179.673 692.494 196.801 680.968 208.231"/><polygon class="p" points="680.968 208.231 679.312 192.831 680.512 191.4 681.987 191.464 681.053 194.035 681.053 194.035 681.848 195.155 682.062 197.099 682.062 197.099 682.806 199.358 683.247 200.698 683.247 200.698 684.353 201.049 685.064 200.104 686.466 197.272 686.466 197.272 689.473 196.584 690.882 195.168 692.1 193.669 692.494 196.801 680.968 208.231"/><polygon class="s" points="691.822 191.174 689.816 193.812 688.415 193.663 686.753 194.763 684.669 196.423 685.019 194.654 684.141 194.222 685.461 190.389 682.625 190.163 684.465 186.682 690.338 179.673 691.822 191.174"/><polygon class="w" points="690.6 185.267 690.079 189.497 690.169 192.02 689.38 190.571 686.946 193.134 688.028 191.265 689.049 189.5 689.581 188.19 689.624 183.013 690.226 181.061 690.6 185.267"/></g><g id="d"><polygon class="n" points="467.1 138.786 471.233 149.905 465.183 164.365 460.78 149.665 467.1 138.786"/><polygon class="v" points="467.1 138.786 471.233 149.905 468.14 157.296 468.542 151.466 465.402 152.538 467.802 145.748 467.046 140.456 463.211 147.949 463.201 150.49 462.31 153.408 460.78 149.665 467.1 138.786"/><polygon class="r" points="463.276 155.671 464.202 154.661 464.497 151.713 465.85 153.927 467.586 153.33 467.736 156.923 465.183 164.365 462.461 155.276 463.276 155.671"/><polygon class="u" points="463.281 157.605 464.51 155.668 465.115 154.046 464.988 158.568 465.056 163.065 464.384 158.908 464.067 157.685 463.281 157.605"/></g><g id="e"><polygon class="o" points="311.501 383.591 340.409 374.549 308.839 362.219 304.568 365.066 283.598 360.092 298.823 378.745 291.397 377.185 304.71 383.191 311.501 383.591"/><polygon class="q" points="283.598 360.092 283.8 360.34 298.823 378.745 291.397 377.185 304.71 383.191 309.354 380.561 315.374 376.185 308.999 374.005 301.966 369.292 311.118 367.94 330.031 370.496 308.839 362.219 303.716 365.035 283.598 360.092"/><path class="m" d="M283.598,360.092l20.336,4.824,5.252-1.575,6.315,2.612-9.812,1.065-10.741-2.205,2.132,2.813c.394,.519-.151,1.126-.883,.983l-3.206-.629,9.289,6.061,9.381,2.52-3.524,3.309-6.051,2.138-10.689-4.822,7.152,1.409-14.951-18.502h0Z"/><polygon class="t" points="311.715 382.289 338.358 374.559 332.391 372.837 311.935 380.554 307.61 382.577 311.715 382.289"/></g><g id="f"><polygon class="r" points="262.697 256.987 250.882 274.165 273.867 271.79 275.926 266.726 289.634 257.32 276.718 256.599 265.893 255.141 262.697 256.987"/><path class="n" d="M262.04,257.943l1.546,.569c.115,.042,.235,.056,.351,.041l5.067-.27-2.201,1.273,2.387,1.196h0l1.816,2.422-6.52,2.46,.903,1.013-.298,1.377-1.986,2.244,4.739-.161-2.344,2.546,6.422-.636,4.619-9.361,6.542-3.481-17.294-3.159-2.142,.421-.949,.548-.658,.956h0Z"/><polygon class="u" points="262.784 260.745 264.501 261.474 266.023 260.504 265.092 262.438 262.203 264.794 256.302 271.264 252.201 273.475 256.507 268.606 261.141 260.547 262.784 260.745"/><polygon class="v" points="262.697 256.987 266.165 256.638 270.276 257.232 270.616 258.208 273.432 258.172 275.543 258.414 275.543 258.414 279.048 259.519 279.222 259.42 279.048 259.519 276.048 261.472 274.71 261.816 272.286 261.957 271.991 263.503 271.991 263.503 267.484 265.573 266.797 268.673 269.844 268.928 267.361 272.462 273.867 271.79 275.926 266.726 289.634 257.32 265.893 255.141 262.697 256.987"/></g><g id="g"><polygon class="n" points="184.911 408.104 176.996 381.055 192.515 353.943 201.881 383.927 184.911 408.104"/><polygon class="v" points="184.911 408.104 176.996 381.055 178.684 378.105 181.346 377.746 180.5 382.65 180.5 382.65 182.285 384.402 183.293 387.815 184.885 388.997 185.351 391.621 186.573 393.88 186.573 393.88 188.666 394.152 189.635 392.232 192.655 388.69 192.655 388.69 196.4 384.51 198.469 381.521 200.169 378.445 201.881 383.927 184.911 408.104"/><polygon class="r" points="198.869 374.066 196.123 379.435 193.567 379.619 190.944 382.122 187.744 385.765 187.804 382.486 186.091 381.994 187.224 374.704 182.072 375.211 184.248 368.386 192.515 353.943 198.869 374.066"/><polygon class="u" points="194.781 363.879 195.208 371.623 196.18 376.112 194.302 373.771 190.765 379.144 192.102 375.448 193.365 371.959 193.895 369.442 192.309 360.155 192.759 356.466 194.781 363.879"/></g><g id="h"><polygon class="x" points="268.094 457.363 274.399 482.407 292.954 460.903 289.442 453.067 291.375 435.317 268.094 457.363"/><polygon class="s" points="269.734 460.133 271.826 458.666 275.294 457.569 281.479 452.291 282.744 454.011 280.31 460.202 277.091 470.474 281.519 468.074 286.455 463.213 291.55 462.529 274.399 482.407 268.747 459.96 269.734 460.133"/><polygon class="p" points="291.375 435.317 291.169 437.209 289.442 453.067 288.435 445.953 281.995 450.047 268.588 459.328 268.094 457.363 291.375 435.317"/><polygon class="p" points="280.687 465 282.138 460.129 285.415 456.047 287.229 449.877 286.237 448.72 286.875 446.944 288.435 445.953 289.442 453.067 292.954 460.903 284.893 462.849 280.687 465"/><polygon class="w" points="271.275 463.63 274.462 459.616 276.838 458.787 273.767 465.88 275.232 479.428 274.755 480.971 271.275 463.63"/></g><polyline class="r" points="824.219 527.68 826.162 564.561 845.934 589.545 851.177 591.932 848.096 556.77 824.219 527.68"/><polyline class="n" points="824.219 527.68 826.559 564.138 831.274 558.297 842.557 564.146 850.102 586.057 848.206 564.212 848.096 556.77 824.219 527.68"/><polyline class="v" points="824.219 527.68 833.61 546.325 835.899 557.666 842.095 554.212 848.096 556.77 824.219 527.68"/><polygon class="v" points="824.397 530.562 831.489 549.393 826.117 557.244 824.397 530.562"/><g><polyline class="x" points="569.111 414.152 558.536 425.382 554.817 410.793"/><polyline class="q" points="554.817 410.793 565.648 395.176 569.111 414.152"/><polyline class="m" points="569.111 414.152 558.536 425.382 554.817 410.793"/><polyline class="m" points="554.817 410.793 560.354 402.81 558.78 409.705 563.275 409.339 558.793 416.801 558.903 423.388 565.476 415.503 565.935 412.449 567.668 409.2 569.111 414.152"/><polygon class="o" points="566.74 406.194 565.293 407.137 564.372 410.596 562.904 407.535 560.419 407.744 560.843 403.378 565.648 395.176 567.789 406.909 566.74 406.194"/><polygon class="t" points="567.072 403.866 565.048 405.836 563.933 407.609 564.9 402.206 565.594 396.777 565.788 401.974 566.009 403.539 567.072 403.866"/></g><g id="i"><polygon class="n" points="495.508 417.836 493.005 399.067 480.427 413.913 482.155 419.867 479.996 432.831 495.508 417.836"/><polygon class="r" points="494.651 415.711 493.286 416.68 491.095 417.303 487.006 420.86 486.323 419.527 488.157 415.099 490.698 407.709 487.846 409.241 484.546 412.557 481.378 412.79 493.005 399.067 495.248 415.89 494.651 415.711"/><polygon class="v" points="479.996 432.831 480.226 431.449 482.155 419.867 482.385 425.158 486.566 422.485 495.311 416.364 495.508 417.836 479.996 432.831"/><polygon class="v" points="489.138 409.301 487.03 415.056 484.793 417.887 483.34 422.333 483.887 423.237 483.397 424.51 482.385 425.158 482.155 419.867 480.427 413.913 485.486 412.908 489.138 409.301"/><polygon class="u" points="493.896 413.055 491.718 415.841 490.213 416.325 492.488 411.267 492.33 401.216 492.708 400.105 493.896 413.055"/></g><g id="j"><polygon class="x" points="668.43 429.287 663.656 415.538 672.604 399.319 677.509 417.342 668.43 429.287"/><polygon class="p" points="668.43 429.287 663.656 415.538 668.23 407.247 667.325 414.083 671.56 413.273 667.943 420.952 668.608 427.319 674.175 419.018 674.35 416.015 675.717 412.694 677.509 417.342 668.43 429.287"/><polygon class="s" points="674.58 409.877 673.287 410.936 672.708 414.379 671.054 411.564 668.713 412.018 668.743 407.747 672.604 399.319 675.637 410.463 674.58 409.877"/><polygon class="w" points="674.697 407.589 672.943 409.701 672.036 411.531 672.493 406.202 672.69 400.875 673.316 405.887 673.659 407.38 674.697 407.589"/></g><g><polyline class="o" points="765.328 335.872 780.445 361.507 783.117 332.301 770.699 310.369 766.928 307.884"/><polyline class="q" points="765.328 335.872 780.445 361.507 783.117 332.301 778.468 336.629 770.432 330.72 767.092 312.625 766.085 330.011"/><polygon class="t" points="767.591 310.329 771.265 318.783 773.016 329.571 778.28 334.926 781.559 332.04 770.441 310.958 767.541 308.875 767.591 310.329"/><polyline class="m" points="765.328 335.872 780.445 361.507 775.313 345.764 774.831 336.586 769.665 338.58 765.328 335.872"/><polygon class="m" points="780.634 359.222 777.295 343.6 782.324 338.056 780.634 359.222"/></g><g id="k"><polygon class="q" points="420.486 587.658 436.348 577.394 458.719 584.615 437.587 596.275 420.486 587.658"/><polygon class="m" points="420.486 587.658 436.348 577.394 447.784 581.085 439.075 581.842 441.143 587.224 430.706 584.626 422.973 587.331 434.671 592.334 438.441 591.707 442.906 592.57 437.587 596.275 420.486 587.658"/><polygon class="o" points="446.115 590.255 444.476 588.845 440.058 589.062 443.136 586.064 441.985 583.091 447.292 581.908 458.719 584.615 445.654 591.825 446.115 590.255"/><polygon class="t" points="448.983 589.756 445.922 588.036 443.424 587.357 450.151 586.438 456.811 585.174 450.748 587.439 448.982 588.321 448.983 589.756"/></g><g id="l"><polygon class="q" points="606.066 690.526 593.482 676.433 597.174 653.217 611.948 672.302 606.066 690.526"/><polygon class="m" points="606.066 690.526 593.482 676.433 595.369 664.566 597.457 673.054 602.457 670.182 601.497 680.895 605.359 688.12 608.503 675.791 607.303 672.162 607.467 667.618 611.948 672.302 606.066 690.526"/><polygon class="o" points="604.687 664.803 603.545 666.64 604.44 670.971 601.004 668.392 598.244 669.986 596.258 664.924 597.174 653.217 606.308 665.017 604.687 664.803"/><polygon class="t" points="603.752 662.046 602.524 665.335 602.238 667.908 600.294 661.403 598.019 655.017 601.191 660.659 602.334 662.268 603.752 662.046"/></g><polygon class="u" points="849.888 589.01 843.68 579.171 839.486 566.063 831.824 560.382 828.187 564.594 846.154 588.763 850.218 590.812 849.888 589.01"/></svg>