<?xml version="1.0" encoding="UTF-8"?><svg id="a" xmlns="http://www.w3.org/2000/svg" viewBox="0 0 1044.78 1000"><defs><style>.h{fill:#350e68;}.i{fill:#11dbad;}.j{fill:#7a16c1;}.k{fill:#123987;}.l{fill:#5b0d99;}.m{fill:#4dfed4;}.n{fill:#128fc6;}.o{fill:#8f37db;}.p{fill:#80ffe1;}.q{fill:#0b9985;}.r{fill:#1bb7e0;}.s{fill:#0a589e;}</style></defs><g id="b"><polygon class="i" points="538.068 113.718 549.172 124.223 549.316 141.165 536.731 129.682 538.068 113.718"/><polygon class="q" points="538.068 113.718 549.172 124.223 549.187 126.066 548.039 126.962 547.094 124.434 547.094 124.434 545.779 124.101 544.374 122.779 543.305 122.66 542.369 121.559 541.179 120.835 541.179 120.835 540.124 121.28 540.195 122.444 539.75 124.929 539.75 124.929 539.138 127.91 538.987 129.876 539.032 131.781 536.731 129.682 538.068 113.718"/><polygon class="m" points="540.838 133.477 540.656 130.212 541.803 129.427 542.347 127.537 542.849 124.956 543.718 126.508 544.655 126.27 546.118 129.994 548.392 128.348 549.239 132.14 549.316 141.165 540.838 133.477"/><polygon class="p" points="545.538 137.131 543.221 133.62 541.538 131.783 543.058 132.367 543.245 128.883 543.629 130.98 543.992 132.959 544.432 134.283 547.714 138.199 548.512 140.05 545.538 137.131"/></g><g><polyline class="m" points="509.178 269.388 490.225 285.07 493.22 275.871 483.373 291.862 482.066 300.435 491.5 338.6 512.185 300.379"/><polyline class="i" points="512.185 300.379 498.3 326.036 503.95 302.386 503.072 290.539 495.719 298.747 491.974 306.513 486.53 298.178 483.373 291.862 493.22 275.871 490.225 285.07 509.35 274.49"/><path class="q" d="M509.178,269.388l-18.713,15.356,2.754-8.874-7.907,12.841,2.316,8.026,4.229,4.995,4.551-11.536,9.482-10.868-1.231,3.978c-.281,.907,.506,1.695,1.274,1.275l4.16-2.273-4.261,13.314,.406,12.642,5.978-8.018,2.236-10.28,1.51-10.873-6.783-9.707h0Z"/><polygon class="p" points="483.859 300.91 491.713 335.99 494.772 328.672 486.256 301.461 483.91 295.646 483.859 300.91"/></g><g><polyline class="n" points="447.45 203.94 438.925 193.199 437.043 207.754 439.76 210.048 443.391 220.359 445.671 212.6 448.09 206.273"/><path class="s" d="M446.34,204.378l-.566,3.157-.442-1.607-1.054,1.217-1.701,.617h0l-.529-4.493-1.559-.148,.051,.03-1.05-1.674-.583,2.933-1.178-1.954-.542,4.061,4.906,4.739,1.133,4.715,4.358-9.941"/><polyline class="r" points="445.555 202.26 445.202 203.226 444.522 204.128 444.881 205.257 443.864 204.292 442.876 202.043 439.874 197.11 439.146 194.148 441.425 197.778 445.555 202.26"/><polyline class="k" points="447.45 203.94 447.16 206.133 446.217 208.529 445.588 208.537 445.206 210.268 444.759 211.511 444.656 212.093 444.039 212.704 443.417 212.74 443.417 212.74 442.868 211.196 442.855 210.307 443.119 208.794 442.721 209.081 442.242 208.298 441.657 205.116 439.911 204.062 439.322 205.876 437.576 203.634 437.043 207.754 439.76 210.048 443.391 220.359 448.09 206.273"/></g><g><polyline class="s" points="648.88 248.848 637.572 235.803 640.807 219.896 650.738 231.781 648.88 248.848"/><polygon class="k" points="640.807 219.896 650.738 231.781 650.536 233.638 649.274 234.404 648.623 231.748 648.623 231.748 647.339 231.257 646.081 229.76 646.081 229.76 644.208 228.295 643.096 227.426 643.096 227.426 641.982 227.749 641.915 228.929 642.323 232.062 642.323 232.062 640.205 234.305 639.82 236.265 639.64 238.188 637.572 235.803 640.807 219.896"/><polyline class="n" points="648.88 248.848 641.257 240.108 641.46 236.8 642.707 236.146 643.478 234.309 644.289 231.771 644.98 233.436 645.951 233.307 646.982 237.227 649.466 235.84 649.87 239.756"/><polygon class="r" points="645.555 244.341 643.638 240.534 642.162 238.487 643.622 239.253 644.223 235.77 644.361 237.925 644.492 239.96 644.778 241.345 647.618 245.673 648.202 247.63 645.555 244.341"/></g><g><polyline class="s" points="752.997 193.046 743.807 206.906 738.495 191.95"/><polyline class="l" points="738.495 191.95 747.447 173.353 752.997 193.046"/><polyline class="h" points="752.997 193.046 743.807 206.906 738.495 191.95"/><polyline class="h" points="749.557 195.126 749.668 191.779 751.016 188.001"/><polyline class="h" points="738.495 191.95 743.071 182.443 742.29 190.094 746.69 188.917 743.099 197.682 743.945 204.709 749.557 195.126"/><polygon class="j" points="749.761 184.948 748.437 186.209 747.915 190.07 746.121 187.053 743.689 187.71 743.618 182.965 747.447 173.353 750.878 185.529 749.761 184.948"/><polygon class="o" points="749.829 182.4 748.049 184.86 747.146 186.951 747.496 181.003 747.573 175.074 748.347 180.6 748.741 182.235 749.829 182.4"/></g><g><polyline class="j" points="383.282 339.487 411.013 328.686 382.615 321.356 358.973 330.088 355.914 333.411"/><polyline class="l" points="383.282 339.487 411.013 328.686 382.615 321.356 386.14 326.64 379.017 333.622 360.62 334.011 377.619 337.799"/><polygon class="o" points="358.435 333.149 367.368 330.882 378.298 330.887 384.43 326.552 382.108 322.851 359.513 330.437 356.991 332.966 358.435 333.149"/><polyline class="h" points="383.282 339.487 411.013 328.686 394.65 331.221 385.514 330.223 386.651 335.642 383.282 339.487"/><polygon class="h" points="408.788 328.133 392.832 328.917 388.169 323.063 408.788 328.133"/></g><g><polyline class="s" points="269.048 349.763 279.632 360.985 264.848 363.833"/><polyline class="l" points="264.848 363.833 249.901 352.096 269.048 349.763"/><polyline class="h" points="269.048 349.763 279.632 360.985 264.848 363.833"/><polyline class="h" points="264.848 363.833 257.207 357.833 263.997 359.812 263.897 355.304 271.082 360.22 277.664 360.501 270.181 353.472 267.16 352.832 264.02 350.91 269.048 349.763"/><polygon class="j" points="260.964 351.659 261.819 353.159 265.218 354.284 262.076 355.567 262.137 358.06 257.803 357.378 249.901 352.096 261.74 350.654 260.964 351.659"/><polygon class="o" points="258.66 351.189 260.506 353.327 262.21 354.544 256.874 353.259 251.495 352.244 256.695 352.359 258.27 352.231 258.66 351.189"/></g><g id="c"><polygon class="s" points="184.017 476.224 211.75 479.698 223.955 501.6 192.819 498.213 184.017 476.224"/><polygon class="k" points="184.017 476.224 211.75 479.698 213.079 482.082 211.607 484.301 208.095 481.879 208.095 481.879 205.454 482.653 201.949 482.222 201.949 482.222 197.418 482.475 194.729 482.625 194.729 482.625 193.111 484.171 194.062 485.621 197.585 488.857 197.585 488.857 195.979 493.7 197.087 496.395 198.512 498.832 192.819 498.213 184.017 476.224"/><polygon class="n" points="203.013 499.38 200.379 495.301 201.926 493.228 201.591 490.27 200.691 486.452 203.376 487.674 204.923 486.505 210.226 490.006 213.23 485.779 217.454 489.933 223.955 501.6 203.013 499.38"/><polygon class="r" points="214.194 499.82 207.477 497.381 203.102 496.535 206.296 495.899 204.183 491.197 206.364 493.571 208.424 495.813 210.162 497.131 218.931 499.212 221.696 500.888 214.194 499.82"/></g><g><polyline class="s" points="299.08 476.477 320.661 479.229 306.346 494.381"/><polyline class="l" points="306.346 494.381 279.38 494.709 299.08 476.477"/><polyline class="h" points="299.08 476.477 320.661 479.229 306.346 494.381"/><polyline class="h" points="306.346 494.381 292.561 494.549 301.945 490.961 297.979 486.42 310.32 485.518 318.017 480.362 303.533 479.343 299.564 481.187 294.363 481.814 299.08 476.477"/><polygon class="j" points="291.541 485.109 293.792 485.94 298.604 484.282 296.14 488.198 298.34 490.703 292.847 493.59 279.38 494.709 291.56 483.436 291.541 485.109"/><polygon class="o" points="288.528 486.533 292.447 487.198 295.418 487.038 288.275 490.134 281.313 493.543 287.302 489.359 288.978 487.925 288.528 486.533"/></g><g id="d"><polygon class="n" points="704.423 419.798 695.41 396.367 683.155 420.642 685.991 424.194 681.051 440.509 699.607 429.553 698.058 435.342 704.029 425.153 704.423 419.798"/><polygon class="s" points="681.051 440.509 681.297 440.364 699.607 429.553 698.058 435.342 704.029 425.153 701.409 421.319 697.051 416.292 694.885 421.212 690.197 426.504 688.847 419.176 691.382 404.346 683.155 420.642 685.96 424.866 681.051 440.509"/><path class="k" d="M681.051,440.509l4.791-15.822-1.57-4.253,2.597-4.847,1.065,7.835-2.19,8.377,2.798-1.522c.517-.281,1.121,.186,.978,.757l-.625,2.502,6.027-6.999,2.504-7.281,3.295,2.986,2.13,4.919-4.794,8.181,1.399-5.581-18.407,10.748h0Z"/><polygon class="r" points="703.128 419.551 695.421 397.992 693.711 402.616 701.401 419.274 703.416 422.819 703.128 419.551"/></g><g id="e"><polygon class="l" points="593.622 412.072 580.987 397.256 574.539 418.291 579.603 422.393 583.939 435.115 593.622 412.072"/><polygon class="j" points="591.544 410.761 590.508 412.482 588.36 414.43 585.6 420.158 584.132 419.429 583.89 414.382 582.897 406.292 580.476 409.456 578.483 414.469 575.026 416.7 580.987 397.256 592.312 410.536 591.544 410.761"/><polygon class="h" points="583.939 435.115 583.476 433.759 579.603 422.393 582.627 426.874 585.952 421.86 592.631 410.91 593.622 412.072 583.939 435.115"/><polygon class="h" points="582.068 411.255 582.594 415.065 581.547 418.973 582.23 423.792 583.319 424.233 583.432 425.66 582.627 426.874 579.603 422.393 574.539 418.291 579.728 414.174 582.068 411.255"/><polygon class="o" points="589.304 408.921 588.3 412.751 586.852 414.138 586.779 408.258 581.348 399.567 581.193 398.354 589.304 408.921"/></g><g id="f"><polygon class="i" points="497.999 435.71 498.048 456.686 481.2 474.005 480.719 450.66 497.999 435.71"/><polygon class="q" points="497.999 435.71 498.048 456.686 496.215 458.571 494.222 458.412 495.857 454.969 495.857 454.969 494.937 453.41 494.924 450.762 494.024 449.648 494.236 447.661 493.828 445.821 493.828 445.821 492.377 445.291 491.277 446.539 488.361 448.645 488.361 448.645 484.789 451.101 482.674 452.954 480.807 454.928 480.719 450.66 497.999 435.71"/><polygon class="m" points="480.828 458.327 483.928 454.845 485.808 455.115 488.222 453.704 491.288 451.553 490.56 453.935 491.691 454.565 489.352 459.701 493.169 460.146 490.175 464.779 481.2 474.005 480.828 458.327"/><polygon class="p" points="481.644 466.401 482.955 460.687 483.193 457.259 484.057 459.264 487.728 455.904 485.992 458.388 484.353 460.733 483.445 462.485 482.647 469.507 481.552 472.127 481.644 466.401"/></g><g id="g"><polygon class="s" points="640.176 691.464 624.083 664.49 634.05 633.153 652.547 662.945 640.176 691.464"/><polygon class="k" points="640.176 691.464 624.083 664.49 625.167 661.08 628.033 660.214 628.412 665.523 628.412 665.523 630.87 667.037 632.911 670.438 632.911 670.438 636.226 674.061 638.194 676.211 638.194 676.211 640.597 676.113 641.158 673.917 641.452 667.82 641.452 667.82 646.606 664.562 648.102 661.042 649.166 657.498 652.547 662.945 640.176 691.464"/><polygon class="n" points="646.54 653.135 644.931 659.28 642.136 659.942 639.891 663.053 637.312 667.469 636.495 664.011 634.456 663.808 633.754 655.94 628.158 657.417 628.74 649.846 634.05 633.153 646.54 653.135"/><polygon class="r" points="639.248 643.179 641.808 651.238 644.099 655.778 641.378 653.661 638.89 659.956 639.383 655.828 639.848 651.929 639.76 649.187 635.494 639.719 635.001 635.759 639.248 643.179"/></g></svg>