<?xml version="1.0" encoding="UTF-8"?><svg id="a" xmlns="http://www.w3.org/2000/svg" viewBox="0 0 1044.78 1000"><defs><style>.l{fill:#350e68;}.m{fill:#11dbad;}.n{fill:#7a16c1;}.o{fill:#123987;}.p{fill:#5b0d99;}.q{fill:#4dfed4;}.r{fill:#128fc6;}.s{fill:#8f37db;}.t{fill:#80ffe1;}.u{fill:#0b9985;}.v{fill:#1bb7e0;}.w{fill:#0a589e;}</style></defs><g><polyline class="w" points="552.373 122.627 556.213 110.646 562.634 120.621"/><polyline class="p" points="562.634 120.621 559.825 136.041 552.373 122.627"/><polyline class="l" points="552.373 122.627 556.213 110.646 562.634 120.621"/><polyline class="l" points="562.634 120.621 561.198 128.504 560.341 122.723 557.503 124.443 558.392 117.296 556.519 112.29 554.379 120.43 554.914 122.914 554.67 125.955 552.373 122.627"/><polygon class="n" points="556.099 127.959 556.787 126.774 556.443 123.831 558.239 125.704 559.806 124.748 560.723 128.226 559.825 136.041 555.217 127.748 556.099 127.959"/><polygon class="s" points="556.518 129.847 557.302 127.691 557.546 125.977 558.392 130.421 559.422 134.799 557.875 130.883 557.302 129.757 556.518 129.847"/></g><g><polyline class="w" points="509.861 199.002 507.057 211.267 499.809 201.877"/><polyline class="w" points="499.809 201.877 501.291 186.273 509.861 199.002"/><polyline class="o" points="509.861 199.002 507.057 211.267 499.809 201.877"/><polyline class="o" points="499.809 201.877 500.566 193.901 501.914 199.587 504.594 197.631 504.319 204.828 506.612 209.656 508.049 201.363 507.304 198.934 507.288 195.883 509.861 199.002"/><polygon class="r" points="505.693 194.008 505.109 195.247 505.703 198.15 503.754 196.438 502.274 197.523 501.063 194.137 501.291 186.273 506.59 194.143 505.693 194.008"/><polygon class="v" points="505.115 192.163 504.517 194.378 504.42 196.106 503.198 191.75 501.798 187.476 503.674 191.246 504.34 192.32 505.115 192.163"/></g><g><polyline class="m" points="531.617 323.188 534.999 341.819 546.865 326.398 544.859 320.532 546.406 307.481 531.617 323.188"/><polyline class="q" points="533.891 324.239 536.05 323.513 539.967 319.767 540.712 321.067 539.088 325.576 536.898 333.078 539.674 331.414 542.814 327.946 545.968 327.564 534.999 341.819 531.967 325.12"/><polyline class="u" points="531.617 323.188 546.406 307.481 546.241 308.872 544.859 320.532 544.381 315.258 540.33 318.124 531.882 324.65"/><polygon class="u" points="538.381 331.414 540.215 325.567 542.317 322.634 543.559 318.124 542.971 317.247 543.4 315.952 544.381 315.258 544.859 320.532 546.865 326.398 541.859 327.64 538.381 331.414"/><polyline class="t" points="533.451 327.888 535.496 325.003 536.977 324.449 534.941 329.608 535.572 339.64 535.247 340.767 533.451 327.888"/></g><polyline class="w" points="580.693 234.325 586.047 218.58 594.996 231.688"/><polyline class="p" points="594.996 231.688 591.081 251.952 580.693 234.325"/><polyline class="l" points="580.693 234.325 586.047 218.58 594.996 231.688"/><polyline class="l" points="583.49 231.437 584.236 234.701 583.896 238.698"/><polyline class="l" points="594.996 231.688 592.995 242.047 591.8 234.45 587.845 236.71 589.083 227.319 586.473 220.74 583.49 231.437"/><polygon class="n" points="585.887 241.331 586.846 239.774 586.367 235.907 588.87 238.367 591.054 237.112 592.333 241.682 591.081 251.952 584.658 241.053 585.887 241.331"/><polygon class="s" points="586.471 243.812 587.565 240.979 587.905 238.727 589.083 244.567 590.52 250.32 588.363 245.174 587.565 243.693 586.471 243.812"/><g><polyline class="w" points="671.584 185.018 661.917 168.737 656.173 187.328 660.1 192.126 663.201 204.897 671.584 185.018"/><polyline class="r" points="670.582 183.33 669.962 183.4 669.086 184.826 667.316 186.26 664.951 191.136 663.799 190.178 663.749 185.385 663.185 177.591 661.163 180.119 659.43 184.464 656.608 185.922 661.917 168.737 670.582 183.33"/><polyline class="o" points="671.584 185.018 663.201 204.897 662.87 203.536 660.1 192.126 662.387 196.902 665.184 192.803 670.826 183.741"/><polygon class="o" points="662.383 182.106 662.695 185.788 661.748 189.27 662.157 193.929 663.015 194.546 663.064 195.909 662.387 196.902 660.1 192.126 656.173 187.328 660.432 184.417 662.383 182.106"/><polygon class="v" points="668.225 181.253 667.315 184.67 666.121 185.706 666.229 180.161 662.139 170.979 662.05 169.809 668.225 181.253"/></g><g><polyline class="n" points="695.162 312.576 690.427 274.42 683.167 315.398 686.89 347.976 688.815 351.964"/><polyline class="p" points="695.162 312.576 690.427 274.42 683.167 315.398 686.948 309.858 690.935 319.223 689.614 345.237 693.565 320.771"/><polygon class="s" points="688.859 348.422 688.132 336.004 689.072 320.525 686.743 312.29 684.108 315.962 687.166 347.175 688.614 350.485 688.859 348.422"/><polyline class="l" points="695.162 312.576 690.427 274.42 690.694 297.332 689.253 310.375 692.919 308.202 695.162 312.576"/><polygon class="l" points="689.872 277.629 689.021 300.145 684.766 307.356 689.872 277.629"/></g><g><polyline class="p" points="355.826 161.333 360.166 139.877 374 155.51"/><polyline class="p" points="374 155.51 372.287 182.63 355.826 161.333"/><polyline class="l" points="374.016 155.51 373.14 169.373 370.318 159.65 365.547 163.259 363.86 154.625 361.223 154.395 359 157.096 358.997 163.682 355.842 161.333 360.182 139.877 374.016 155.51"/><polygon class="n" points="363.755 169.62 364.743 167.427 363.473 162.456 367.142 165.253 369.775 163.25 372.202 169.007 372.287 182.63 362.109 169.462 363.755 169.62"/><polygon class="s" points="364.929 172.764 365.88 168.882 365.946 165.883 368.454 173.316 371.284 180.592 367.618 174.229 366.333 172.427 364.929 172.764"/></g><g><polyline class="m" points="263.953 280.406 280.847 288.913 264.66 296.863 242.445 289.25 263.953 280.406"/><polyline class="u" points="263.953 280.406 280.847 288.913 264.66 296.863 253.305 292.971 262.054 292.84 260.133 288.045 270.52 290.927 278.346 289.047 266.764 284.001 262.968 284.318 258.518 283.301 263.953 280.406"/><polygon class="q" points="255.236 285.115 256.839 286.438 261.272 286.516 258.103 288.931 259.172 291.58 253.82 292.287 242.445 289.25 255.743 283.782 255.236 285.115"/><polygon class="t" points="252.348 285.376 255.367 287.053 257.851 287.792 251.084 288.184 244.373 288.88 250.513 287.28 252.308 286.621 252.348 285.376"/></g><g id="b"><polygon class="w" points="194.732 521.086 213.342 515.621 196.795 501.45 191.009 504.371 177.667 503.207 194.732 521.086"/><polygon class="r" points="196.767 519.74 195.619 518.123 194.715 515.415 190.616 510.654 191.874 509.624 196.569 511.415 204.339 513.742 202.437 510.306 198.679 506.518 198.047 502.522 213.342 515.621 196.661 520.52 196.767 519.74"/><polygon class="o" points="177.667 503.207 179.09 503.331 191.009 504.371 185.704 505.307 188.923 510.293 196.192 520.658 194.732 521.086 177.667 503.207"/><polygon class="o" points="200.154 511.022 196.472 509.978 193.336 507.481 188.671 506.177 187.828 506.981 186.483 506.515 185.704 505.307 191.009 504.371 196.795 501.45 198.444 507.755 200.154 511.022"/><polygon class="v" points="199.351 518.457 196.268 516.029 195.592 514.176 200.977 516.451 211.09 515.026 212.257 515.37 199.351 518.457"/></g><g id="c"><polygon class="p" points="293.125 460.992 282.63 477.395 304.631 477.438 307.081 471.399 317.988 463.546 293.125 460.992"/><polygon class="n" points="292.475 463.362 294.424 463.852 296.913 465.34 303.196 466.312 302.926 467.929 298.168 469.631 290.718 472.936 294.45 474.331 299.826 474.778 302.967 477.435 282.63 477.395 292.036 462.693 292.475 463.362"/><polygon class="l" points="317.988 463.546 316.826 464.383 307.081 471.399 310.487 467.201 304.722 465.479 292.301 462.279 293.125 460.992 317.988 463.546"/><polygon class="l" points="295.707 472.284 299.199 470.671 303.243 470.535 307.654 468.478 307.759 467.307 309.091 466.784 310.487 467.201 307.081 471.399 304.631 477.438 299.181 473.673 295.707 472.284"/><polygon class="s" points="291.367 466.042 295.324 465.887 297.072 466.867 291.468 468.65 284.736 476.376 283.62 476.877 291.367 466.042"/></g><g id="d"><polygon class="q" points="456.103 432.505 452.817 458.874 463.212 479.129 466.498 481.499 468.791 456.199 456.103 432.505"/><polygon class="m" points="453.142 458.626 457.097 455.1 464.081 460.705 466.498 477.199 467.935 461.483 468.791 456.199 456.103 432.505 453.142 458.626"/><polygon class="t" points="465.983 479.263 462.968 471.491 461.741 461.664 457.212 456.648 454.198 459.159 463.46 478.604 465.983 480.581 465.983 479.263"/><polygon class="u" points="456.103 432.505 460.193 446.925 460.339 455.253 465.008 453.61 468.791 456.199 456.103 432.505"/><polygon class="u" points="455.865 434.569 458.358 448.823 453.702 453.686 455.865 434.569"/></g><g id="e"><polygon class="p" points="551.326 434.341 543.874 418.543 549.619 395.553 558.038 416.666 551.326 434.341"/><polygon class="l" points="551.326 434.341 543.874 418.543 546.81 406.791 547.247 415.624 551.31 413.345 549.208 424.046 551.118 431.823 555.042 419.761 554.629 415.947 555.341 411.378 558.038 416.666 551.326 434.341"/><polygon class="n" points="553.656 408.189 552.574 409.902 552.671 414.388 550.471 411.356 548.227 412.623 547.419 407.264 549.619 395.553 554.825 408.607 553.656 408.189"/><polygon class="s" points="553.325 405.288 551.99 408.457 551.444 411.021 550.856 404.208 550.008 397.475 551.615 403.568 552.249 405.336 553.325 405.288"/></g><g id="f"><polygon class="w" points="460.927 423.525 461.717 405.156 480.257 392.778 477.586 415.994 460.927 423.525"/><polygon class="o" points="460.927 423.525 461.717 405.156 471.194 398.829 474.145 398.656 474.554 408.152 465.095 416.364 462.079 421.445 472.76 415.738 474.404 412.501 477.639 409.67 477.586 415.994 460.927 423.525"/><polygon class="r" points="477.608 405.806 475.542 406.163 475.013 408.229 475.357 404.331 474.88 398.312 474.554 397.681 480.257 392.778 478.606 407.132 477.608 405.806"/><polygon class="v" points="478.841 403.33 476.618 404.503 475.586 405.306 476.841 400.38 479.619 394.566 477.985 400.553 477.688 402.436 478.841 403.33"/></g><g id="g"><polygon class="w" points="654.252 461.763 653.943 492.614 631.156 509.395 630.93 474.839 654.252 461.763"/><polygon class="o" points="654.252 461.763 653.943 492.614 651.464 494.44 648.807 493.181 651.05 488.963 651.05 488.963 649.851 486.198 649.88 482.3 649.88 482.3 649.019 477.389 648.507 474.475 648.507 474.475 646.58 472.949 645.091 474.216 641.944 478.575 641.944 478.575 636.353 477.582 633.498 479.216 630.971 481.157 630.93 474.839 654.252 461.763"/><polygon class="r" points="630.939 486.162 635.137 482.642 637.641 484.006 640.886 483.175 645.016 481.591 644.002 484.718 645.5 486.224 642.286 492.569 647.372 495.187 643.294 500.456 631.156 509.395 630.939 486.162"/><polygon class="v" points="631.883 498.449 633.734 490.725 634.113 485.811 635.23 489.201 640.188 486.153 637.828 488.91 635.599 491.513 634.356 493.62 633.166 503.53 631.658 506.815 631.883 498.449"/></g><g id="h"><polygon class="m" points="754.415 359.908 741.271 364.327 725.882 355.665 743.101 351.16 754.415 359.908"/><polygon class="u" points="754.415 359.908 741.271 364.327 733.404 359.899 739.913 360.822 739.174 356.785 746.466 360.297 752.541 359.721 744.672 354.348 741.81 354.155 738.656 352.823 743.101 351.16 754.415 359.908"/><polygon class="q" points="735.961 353.88 736.961 355.12 740.238 355.703 737.542 357.251 737.956 359.483 733.885 359.416 725.882 355.665 736.528 352.879 735.961 353.88"/><polygon class="t" points="733.782 353.748 735.781 355.436 737.518 356.315 732.442 355.832 727.365 355.597 732.148 355.046 733.574 354.733 733.782 353.748"/></g><g id="i"><polygon class="m" points="765.523 682.058 754.409 669.315 758.323 648.844 771.311 666.054 765.523 682.058"/><polygon class="u" points="765.523 682.058 754.409 669.315 756.41 658.851 758.107 666.409 762.725 663.974 761.596 673.436 764.938 679.914 768.092 669.068 767.087 665.83 767.346 661.812 771.311 666.054 765.523 682.058"/><polygon class="q" points="764.883 659.26 763.8 660.862 764.511 664.715 761.446 662.358 758.896 663.71 757.21 659.187 758.323 648.844 766.353 659.485 764.883 659.26"/><polygon class="t" points="764.098 656.8 762.901 659.685 762.58 661.956 760.966 656.157 759.049 650.455 761.8 655.517 762.802 656.966 764.098 656.8"/></g><g id="j"><polygon class="q" points="426.606 618.373 446.919 623.303 463.454 613.087 465.538 609.648 445.987 605.85 426.606 618.373"/><polygon class="m" points="446.749 622.938 444.287 618.468 449.158 611.19 462.187 609.425 450.043 607.052 445.987 605.85 426.606 618.373 446.749 622.938"/><polygon class="t" points="463.758 610.091 457.484 612.955 449.737 613.776 445.501 618.424 447.241 621.821 463.062 612.791 464.786 610.159 463.758 610.091"/><polygon class="u" points="426.606 618.373 438.139 614.689 444.64 614.963 443.696 609.816 445.987 605.85 426.606 618.373"/><polygon class="u" points="428.197 618.739 439.486 616.776 442.94 622.075 428.197 618.739"/></g><g id="k"><polygon class="n" points="305.234 667.458 288.061 649.146 285.849 676.25 289.814 678.472 291.38 695.446 304.445 678.309 305.191 684.255 306.885 672.568 305.234 667.458"/><polygon class="p" points="291.38 695.446 291.554 695.219 304.445 678.309 305.191 684.255 306.924 672.296 303.014 670.002 297.084 666.987 296.93 672.36 294.58 679.028 290.57 672.747 287.334 658.055 285.849 676.25 290.038 679.106 291.38 695.446"/><path class="l" d="M291.38,695.446l-1.52-16.461-3.056-3.349,.581-5.468,3.937,6.857,1.126,8.585,2.019-2.464c.373-.455,1.109-.249,1.191,.333l.363,2.553,2.948-8.754-.422-7.688,4.177,1.526,3.826,3.755-1.36,9.384-.806-5.697-13.005,16.888h0Z"/><polygon class="s" points="298.624 661.376 288.683 650.648 288.84 655.575 296.678 660.712 296.367 665.331 298.624 661.376"/></g></svg>