<?xml version="1.0" encoding="UTF-8"?><svg id="a" xmlns="http://www.w3.org/2000/svg" viewBox="0 0 1044.78 1000"><defs><style>.l{fill:#350e68;}.m{fill:#11dbad;}.n{fill:#7a16c1;}.o{fill:#123987;}.p{fill:#5b0d99;}.q{fill:#4dfed4;}.r{fill:#128fc6;}.s{fill:#8f37db;}.t{fill:#80ffe1;}.u{fill:#0b9985;}.v{fill:#1bb7e0;}.w{fill:#0a589e;}</style></defs><g id="b"><polygon class="r" points="587.006 123.248 589.242 136.777 597.955 124.968 596.694 121.643 598.529 110.866 592.768 116.541 587.58 120.898 587.006 123.248"/><path class="w" d="M587.131,124.002l.893-.453c.066-.034,.123-.083,.166-.144l2.028-2.485-.394,1.619,1.512-.552,1.787,.287h0l-1.72,4.185,1.291,.886-.029-.051,.105,1.973,1.935-2.281,.081,2.281,2.446-3.287-1.987-6.525,1.299-4.672-8.637,6.573-.728,1.194-.17,.698,.124,.753h0Z"/><polygon class="v" points="588.625 124.964 589.656 124.506 589.892 123.344 590.312 124.682 590.083 127.127 590.312 132.898 589.51 135.841 589.28 131.561 587.847 125.637 588.625 124.964"/><polygon class="o" points="587.006 123.248 588.325 121.471 590.312 119.835 590.866 120.134 592.041 118.806 593.035 117.936 593.408 117.478 594.244 117.243 594.805 117.514 594.805 117.514 594.535 119.131 594.115 119.914 593.15 121.108 593.637 121.051 593.675 121.968 592.642 125.034 593.656 126.802 595.051 125.503 595.489 128.311 597.955 124.968 596.694 121.643 598.529 110.866 587.58 120.898 587.006 123.248"/></g><g id="c"><polygon class="w" points="533.061 205.168 525.435 189.394 531.703 169.885 540.508 187.277 533.061 205.168"/><polygon class="o" points="533.061 205.168 525.435 189.394 526.117 187.271 527.657 186.626 527.686 189.845 527.686 189.845 528.935 190.666 529.903 192.655 529.903 192.655 531.536 194.725 532.505 195.954 532.505 195.954 533.777 195.796 534.144 194.434 534.495 190.707 534.495 190.707 537.32 188.508 538.223 186.301 538.898 184.098 540.508 187.277 533.061 205.168"/><polygon class="r" points="537.653 181.547 536.606 185.359 535.109 185.877 533.824 187.866 532.321 190.663 532.001 188.59 530.932 188.55 530.814 183.785 527.813 184.916 528.364 180.277 531.703 169.885 537.653 181.547"/><polygon class="v" points="534.124 175.781 535.216 180.586 536.279 183.258 534.911 182.081 533.396 186.02 533.789 183.484 534.159 181.088 534.201 179.421 532.254 173.827 532.121 171.435 534.124 175.781"/></g><g><polyline class="r" points="428.333 232.163 420.967 259.094 422.031 264.116 445.444 244.281 453.571 212.298 428.333 232.163"/><polyline class="w" points="428.333 232.163 435.49 232.762 437.272 243.925 425.647 260.393 440.203 248.083 445.444 244.281 453.571 212.298 428.333 232.163"/><polygon class="v" points="423.431 261.714 427.165 252.26 434.288 242.641 434.294 234.206 429.378 233.657 421.64 258.864 422.323 262.855 423.431 261.714"/><polygon class="o" points="453.571 212.298 445.245 228.48 438.376 235.824 444.102 238.62 445.444 244.281 453.571 212.298"/><polygon class="o" points="451.613 213.869 441.942 228.466 433.52 228.47 451.613 213.869"/></g><g><polyline class="w" points="655.611 232.909 665.983 222.196 669.036 236.326"/><polyline class="w" points="669.036 236.326 658.281 251.27 655.611 232.909"/><polyline class="o" points="655.611 232.909 665.983 222.196 669.036 236.326"/><polyline class="o" points="669.036 236.326 663.538 243.965 665.249 237.328 660.982 237.627 665.464 230.477 665.572 224.117 659.096 231.649 658.563 234.592 656.818 237.707 655.611 232.909"/><polygon class="r" points="657.601 240.62 659.001 239.728 659.984 236.4 661.275 239.372 663.634 239.201 663.093 243.412 658.281 251.27 656.63 239.918 657.601 240.62"/><polygon class="v" points="657.211 242.864 659.191 240.987 660.303 239.289 659.215 244.493 658.383 249.726 658.367 244.706 658.208 243.193 657.211 242.864"/></g><g><polyline class="w" points="676.216 278.858 667.262 287.71 682.104 294.614 684.447 290.913 692.704 288.513 676.216 278.858"/><polygon class="r" points="675.507 280.408 676.766 281.379 678.276 283.257 682.406 285.938 682.039 287.05 678.634 286.822 673.229 286.94 675.589 289.136 679.165 291.146 680.982 294.092 667.262 287.71 675.287 279.776 675.507 280.408"/><polyline class="o" points="676.216 278.858 691.357 288.306 691.823 288.769 684.447 290.913 687.224 288.873 683.53 285.799 675.513 279.552 676.216 278.858"/><polygon class="o" points="676.67 288.015 679.211 287.913 681.955 289.076 685.167 288.932 685.371 288.099 686.33 288.128 687.224 288.873 684.447 290.913 682.104 294.614 678.856 290.128 676.67 288.015"/><polygon class="v" points="674.454 282.043 677.142 283.165 678.21 284.436 674.224 284.004 668.8 287.615 667.99 287.637 674.454 282.043"/></g><g id="d"><polygon class="p" points="268.424 325.172 252.885 336.907 273.501 344.59 277.896 339.778 290.853 336.204 268.424 325.172"/><polygon class="n" points="266.992 327.168 268.649 328.305 270.466 330.565 276.021 333.659 275.206 335.081 270.153 335.024 262.018 335.536 265.034 338.14 269.92 340.427 271.942 344.009 252.885 336.907 266.813 326.388 266.992 327.168"/><polygon class="l" points="290.853 336.204 289.471 336.585 277.896 339.778 282.549 337.025 277.741 333.408 267.205 326.092 268.424 325.172 290.853 336.204"/><polygon class="l" points="266.924 336.657 270.758 336.358 274.598 337.635 279.448 337.239 279.953 336.177 281.384 336.149 282.549 337.025 277.896 339.778 273.501 344.59 269.699 339.166 266.924 336.657"/><polygon class="s" points="265.022 329.296 268.787 330.525 270.085 332.052 264.211 331.777 255.214 336.684 253.994 336.766 265.022 329.296"/></g><g id="e"><polygon class="r" points="208.426 419.053 213.778 458.474 236.795 483.717 242.517 485.863 236.123 448.377 208.426 419.053"/><polygon class="w" points="213.778 458.474 218.587 451.347 230.966 456.73 240.86 479.644 236.906 456.354 236.123 448.377 208.426 419.053 213.778 458.474"/><polygon class="v" points="240.901 482.83 233.495 472.764 227.911 459.03 219.352 453.541 215.909 458.349 236.956 482.86 241.409 484.737 240.901 482.83"/><polygon class="o" points="208.426 419.053 219.967 438.316 223.39 450.305 229.589 446.107 236.123 448.377 208.426 419.053"/><polygon class="o" points="208.872 422.132 218.014 441.777 213.074 450.626 208.872 422.132"/></g><g id="f"><polygon class="r" points="299.169 528.306 284.607 548.756 311.614 545.575 313.01 541.25 329.341 536.363 309.962 526.938 315.645 525.033 303.853 525.68 299.169 528.306"/><polygon class="w" points="329.341 536.363 329.084 536.238 309.962 526.938 315.645 525.033 303.853 525.68 302.101 529.98 300.316 536.389 305.614 535.479 312.614 536.467 307.248 541.638 293.484 547.71 311.614 545.575 313.587 540.904 329.341 536.363"/><path class="o" d="M329.341,536.363l-15.837,4.739-2.68,3.656-5.475,.51,5.945-5.213,8.194-2.799-2.814-1.493c-.52-.276-.463-1.038,.091-1.234l2.431-.86-9.163-1.162-7.453,1.932,.672-4.396,2.926-4.492,9.468-.519-5.426,1.914,19.123,9.416h0Z"/><polygon class="v" points="299.679 529.523 285.956 547.85 290.756 546.723 300.401 531.115 302.245 527.478 299.679 529.523"/></g><g><polyline class="q" points="877.232 512.12 858.654 561.237 863.214 604.112 866.766 609.953 883.336 562.487 877.232 512.12"/><polyline class="m" points="877.232 512.12 859.258 560.891 866.866 555.726 874.114 569.226 869.013 601.731 879.325 572.251 883.336 562.487 877.232 512.12"/><polygon class="t" points="867.182 605.472 866.853 589.408 870.202 570.128 866.224 558.731 860.518 562.332 863.851 603.206 866.493 607.994 867.182 605.472"/><polyline class="u" points="877.232 512.12 875.652 541.326 871.511 557.31 879.175 556.028 883.336 562.487 877.232 512.12"/><polygon class="u" points="875.805 515.971 871.986 544.224 862.657 551.668 875.805 515.971"/></g><g id="g"><polygon class="w" points="720.708 427.335 708.926 416.729 710.466 397.358 724.476 411.897 720.708 427.335"/><polygon class="o" points="720.708 427.335 708.926 416.729 709.713 406.827 712.099 413.642 716.186 410.892 716.114 419.773 719.933 425.412 721.766 415.033 720.482 412.143 720.305 408.395 724.476 411.897 720.708 427.335"/><polygon class="r" points="717.722 406.297 716.872 407.896 717.943 411.387 714.815 409.534 712.559 411.059 710.5 407.053 710.466 397.358 719.128 406.348 717.722 406.297"/><polygon class="v" points="716.727 404.104 715.904 406.903 715.839 409.04 713.716 403.844 711.317 398.771 714.433 403.163 715.527 404.397 716.727 404.104"/></g><g id="h"><polygon class="r" points="474.145 401.701 465.132 378.27 452.876 402.546 455.712 406.098 450.772 422.413 469.328 411.456 465.153 413.56 473.75 407.057 474.145 401.701"/><polygon class="w" points="450.772 422.413 451.018 422.267 469.328 411.456 463.72 414.42 473.75 407.057 471.131 403.222 466.773 398.196 464.607 403.116 459.919 408.408 458.569 401.079 461.103 386.25 452.876 402.546 455.682 406.77 450.772 422.413"/><path class="o" d="M450.772,422.413l4.791-15.822-1.57-4.253,2.597-4.847,1.065,7.835-2.19,8.377,2.798-1.522c.517-.281,1.121,.186,.978,.757l-.625,2.502,6.027-6.999,2.504-7.281,3.295,2.986,2.13,4.919-5.701,4.668,2.306-2.068-18.407,10.748h0Z"/><polygon class="v" points="472.849 401.455 465.142 379.896 463.432 384.52 471.123 401.178 473.138 404.723 472.849 401.455"/></g><g id="i"><polygon class="q" points="566.699 443.028 565.705 480.491 585.136 506.999 590.646 509.736 590.255 473.944 566.699 443.028"/><polygon class="m" points="566.174 480.087 571.803 474.461 583.599 481.074 589.971 503.722 589.747 481.486 590.255 473.944 566.699 443.028 566.174 480.087"/><polygon class="t" points="589.488 506.699 583.555 496.357 580.092 482.827 572.225 476.606 567.909 480.648 585.442 506.22 589.696 508.544 589.488 506.699"/><polygon class="u" points="566.699 443.028 575.357 462.482 576.894 474.105 583.934 470.987 590.255 473.944 566.699 443.028"/><polygon class="u" points="566.65 445.957 572.788 465.459 566.273 473.079 566.65 445.957"/></g><g id="j"><polygon class="m" points="749.781 671.448 738.688 646.33 725.055 672.181 730.012 679.766 731.689 698.714 749.781 671.448"/><polygon class="q" points="747.643 668.84 745.914 670.75 742.783 672.52 737.861 679.156 736.295 677.58 737.41 670.657 738.47 659.317 734.671 662.623 730.872 668.599 726.086 670.226 738.688 646.33 748.631 668.844 747.643 668.84"/><polygon class="u" points="731.689 698.714 731.51 696.694 730.012 679.766 732.406 687.042 737.81 681.6 748.911 669.478 749.781 671.448 731.689 698.714"/><polygon class="u" points="736.683 662.176 735.659 671.059 733.308 675.923 732.787 682.714 733.977 683.749 733.715 685.724 732.406 687.042 730.012 679.766 725.055 672.181 732.454 668.701 736.683 662.176"/><polygon class="t" points="745.456 665.449 743.178 670.226 741.048 671.519 742.599 663.537 738.478 649.601 738.631 647.898 745.456 665.449"/></g><g id="k"><polygon class="p" points="339.16 680.772 334.668 662.42 348.828 643.656 352.91 667.444 339.16 680.772"/><polygon class="l" points="339.16 680.772 334.668 662.42 341.906 652.829 339.763 661.304 345.526 661.115 339.649 670.123 339.666 678.316 348.231 668.906 348.875 665.139 351.154 661.204 352.91 667.444 339.16 680.772"/><polygon class="n" points="350.021 657.413 348.151 658.499 346.907 662.743 345.085 658.852 341.899 658.964 342.522 653.563 348.828 643.656 351.352 658.364 350.021 657.413"/><polygon class="s" points="350.491 654.54 347.861 656.867 346.401 659.005 347.739 652.348 348.73 645.642 348.881 652.113 349.135 654.07 350.491 654.54"/></g></svg>