<?xml version="1.0" encoding="UTF-8"?><svg id="a" xmlns="http://www.w3.org/2000/svg" viewBox="0 0 1044.78 1000"><defs><style>.o{fill:#350e68;}.p{fill:#11dbad;}.q{fill:#7a16c1;}.r{fill:#123987;}.s{fill:#5b0d99;}.t{fill:#4dfed4;}.u{fill:#128fc6;}.v{fill:#0a7f6c;}.w{fill:#8f37db;}.x{fill:#80ffe1;}.y{fill:#0b9985;}.a`{fill:#1bb7e0;}.aa{fill:#0a589e;}</style></defs><g><polyline class="q" points="582.827 121.947 570.139 98.253 566.853 124.622 577.248 144.877 580.534 147.247"/><polyline class="s" points="582.827 121.947 570.139 98.253 566.853 124.622 571.133 120.849 578.116 126.453 580.534 142.947 581.971 127.231"/><polygon class="w" points="580.018 145.011 577.004 137.239 575.776 127.412 571.248 122.396 568.234 124.908 577.496 144.352 580.018 146.329 580.018 145.011"/><polyline class="o" points="582.827 121.947 570.139 98.253 574.229 112.674 574.375 121.002 579.044 119.358 582.827 121.947"/><polygon class="o" points="569.901 100.317 572.394 114.571 567.738 119.435 569.901 100.317"/></g><g id="b"><polygon class="s" points="522.082 206.043 513.768 196.482 513.252 179.301 523.287 192.383 522.082 206.043"/><polygon class="o" points="522.082 206.043 513.768 196.482 513.505 187.7 515.548 193.78 517.936 191.389 518.576 199.273 521.441 204.327 521.805 195.134 520.765 192.552 520.363 189.222 523.287 192.383 522.082 206.043"/><polygon class="q" points="518.559 187.328 518.141 188.737 519.092 191.849 516.959 190.166 515.641 191.492 514.023 187.91 513.252 179.301 519.457 187.389 518.559 187.328"/><polygon class="w" points="517.756 185.368 517.449 187.843 517.572 189.74 515.82 185.1 513.903 180.567 516.224 184.504 517.015 185.613 517.756 185.368"/></g><g id="c"><polygon class="t" points="516.555 269.828 506.63 302.166 517.612 329.926 521.878 333.642 530.162 302.421 516.555 269.828"/><polygon class="p" points="507.147 301.928 513.537 298.399 522.49 307.009 522.725 328.248 527.888 308.857 530.162 302.421 516.555 269.828 507.147 301.928"/><polygon class="x" points="521.576 330.72 518.765 320.289 518.932 307.683 513.397 300.367 508.562 302.836 518.073 329.323 521.316 332.374 521.576 330.72"/><polygon class="y" points="516.555 269.828 519.605 288.843 518.175 299.324 525.223 298.318 530.162 302.421 516.555 269.828"/><polygon class="v" points="515.805 272.363 516.555 281.083 516.191 298.127 508.582 295.804 515.805 272.363"/></g><g id="d"><polygon class="p" points="698.002 246.006 684.577 256.275 663.882 254.924 678.582 243.247 698.002 246.006"/><polygon class="y" points="698.002 246.006 684.577 256.275 682.325 256.128 681.293 254.89 684.431 254.161 684.431 254.161 684.908 252.865 686.599 251.564 686.801 250.497 688.196 249.65 689.145 248.514 689.145 248.514 688.659 247.411 687.233 247.38 684.223 246.711 684.223 246.711 680.615 245.832 678.223 245.505 675.894 245.382 678.582 243.247 698.002 246.006"/><polygon class="t" points="673.726 247.054 677.724 247.158 678.62 248.384 680.898 249.1 684.023 249.835 682.081 250.574 682.32 251.539 677.695 252.685 679.582 255.124 674.906 255.644 663.882 254.924 673.726 247.054"/><polygon class="x" points="669.012 251.47 673.423 249.444 675.757 247.909 674.963 249.39 679.206 249.887 676.625 250.089 674.189 250.28 672.548 250.607 667.59 253.571 665.287 254.212 669.012 251.47"/></g><g><polyline class="q" points="708.883 176.338 708.639 203.531 712.754 205.46 715.546 222.276 727.336 204.238 728.51 210.115 729.353 198.336 727.336 193.359 708.883 176.338"/><polygon class="s" points="715.546 222.276 715.703 222.037 727.336 204.238 728.51 210.115 729.353 198.336 725.307 196.057 719.174 193.479 719.41 198.849 717.549 205.67 713.094 199.695 708.803 185.276 708.639 203.531 713.024 206.076 715.546 222.276"/><path class="o" d="M715.546,222.276l-2.708-16.308-3.29-3.119,.183-5.496,4.423,6.554,1.745,8.481,1.835-2.604c.339-.481,1.088-.329,1.213,.246l.547,2.52,2.307-8.944-.978-7.637,4.276,1.22,4.088,3.468-.677,9.458-1.216-5.624-11.748,17.785h0Z"/><polygon class="w" points="726.065 193.711 709.612 177.79 710.125 182.694 724.395 194.227 727.771 196.514 726.065 193.711"/></g><g id="e"><polygon class="aa" points="334.814 157.108 354.323 170.031 358.997 195.544 336.996 181.536 334.814 157.108"/><polygon class="r" points="334.814 157.108 354.323 170.031 354.831 172.807 353.335 174.46 351.245 170.895 351.245 170.895 349.174 170.74 346.707 169.115 346.707 169.115 343.363 167.802 341.378 167.023 341.378 167.023 339.904 167.971 340.317 169.709 342.259 174.07 342.259 174.07 340.161 178.231 340.449 181.236 341.018 184.097 336.996 181.536 334.814 157.108"/><polygon class="u" points="344.188 186.18 343.055 181.303 344.578 179.817 344.902 176.824 344.981 172.799 346.699 174.911 348.049 174.306 351.235 179.538 354.232 176.457 356.507 181.953 358.997 195.544 344.188 186.18"/><polygon class="a`" points="352.238 190.454 347.819 185.769 344.798 183.441 347.244 183.921 346.61 178.618 347.741 181.678 348.809 184.569 349.821 186.45 355.801 191.492 357.491 194.074 352.238 190.454"/></g><g id="f"><polygon class="p" points="260.814 302.184 248.149 316.26 267.606 316.209 271.018 311.032 282.287 304.27 260.814 302.184"/><polygon class="t" points="259.751 304.214 261.374 304.626 263.27 305.889 268.629 306.695 268.057 308.08 263.497 309.555 256.224 312.413 259.239 313.591 263.903 313.952 266.135 316.212 248.149 316.26 259.501 303.643 259.751 304.214"/><polygon class="y" points="282.287 304.27 281.086 304.991 271.018 311.032 274.897 307.427 270.151 305.977 259.82 303.289 260.814 302.184 282.287 304.27"/><polygon class="y" points="258.447 312.568 264.194 310.441 267.8 310.308 272.127 308.531 272.461 307.529 273.747 307.076 274.897 307.427 271.018 311.032 267.606 316.209 263.56 313.009 258.447 312.568"/><polygon class="x" points="258.219 306.511 261.752 306.363 263.096 307.195 257.771 308.743 250.222 315.38 249.132 315.813 258.219 306.511"/></g><g id="g"><polygon class="u" points="207.296 479.01 225.767 479.79 214.406 460.96 209.549 461.979 196.45 455.206 201.207 466.933 204.517 477.238 207.296 479.01"/><path class="aa" d="M208.324,479.053l-.187-1.673c-.014-.124-.052-.237-.112-.331l-2.303-4.293,1.915,1.22-.037-2.76,1.168-2.943h0l4.637,4.345,1.721-1.896-.079,.033,2.595,.49-2.082-4.065,2.982,.635-3.152-5.277-9.315,1.171-5.454-3.794,4.633,16.926,1.217,1.643,.825,.526,1.028,.043h0Z"/><polygon class="a`" points="210.235 476.838 210.104 474.926 208.708 474.132 210.623 473.87 213.68 475.089 221.235 476.655 224.677 479.017 219.047 477.957 210.756 478.389 210.235 476.838"/><polygon class="r" points="207.296 479.01 205.59 476.164 204.364 472.228 204.997 471.386 203.807 468.936 203.128 466.95 202.702 466.161 202.773 464.658 202.407 463.164 203.372 463.795 205.34 464.802 206.164 465.783 207.275 467.83 207.419 466.982 208.621 467.227 212.118 470.025 214.856 468.898 213.801 466.084 217.622 466.29 214.406 460.96 209.549 461.979 196.45 455.206 204.517 477.238 207.296 479.01"/></g><g id="h"><polygon class="q" points="417.885 400.977 393.985 408.662 417.535 422.26 421.24 419.628 437.252 425.475 427.354 406.334 433.048 408.204 423.209 401.672 417.885 400.977"/><polygon class="s" points="437.252 425.475 437.121 425.221 427.354 406.334 433.048 408.204 423.209 401.672 419.234 404.072 413.971 408.141 418.762 410.58 423.783 415.558 416.39 416.494 401.726 413.132 417.535 422.26 421.91 419.696 437.252 425.475"/><path class="o" d="M437.252,425.475l-15.528-5.671-4.334,1.329-4.694-2.865,7.882-.624,8.241,2.656-1.363-2.879c-.252-.532,.249-1.109,.811-.934l2.463,.764-6.65-6.41-7.129-2.908,3.167-3.122,5.03-1.851,7.9,5.245-5.494-1.71,9.698,18.981h0Z"/><polygon class="w" points="417.566 402.257 395.608 408.742 400.129 410.709 417.192 403.965 420.845 402.153 417.566 402.257"/></g><g id="i"><polygon class="s" points="323.645 496.417 309.934 517.55 278.848 520.749 298.204 495.064 323.645 496.417"/><polygon class="o" points="323.645 496.417 309.934 517.55 294.044 519.185 304.213 513.566 298.786 508.08 312.872 505.641 320.802 498.158 303.881 498.325 299.641 501.126 293.75 502.474 298.204 495.064 323.645 496.417"/><polygon class="q" points="291.105 507.041 293.86 507.888 299.109 505.241 296.993 510.576 300.001 513.601 294.195 517.912 278.848 520.749 290.816 504.868 291.105 507.041"/><polygon class="w" points="287.891 509.199 292.541 509.659 295.943 509.145 288.269 513.897 280.863 519.036 287.002 512.992 288.67 510.958 287.891 509.199"/></g><g id="j"><polygon class="t" points="736.331 390.781 724.106 400.352 741.27 404.809 743.841 401.602 755.781 398.32 746.574 394.288 739.041 390.274 736.331 390.781"/><path class="p" d="M735.651,391.314l.999,.841c.074,.062,.158,.105,.245,.126l3.729,1.171-1.866,.351,1.474,1.535h0l.8,2.292-5.25,.064,.438,.998-.51,.943-1.918,1.13,3.468,1.163-2.241,1.258,4.79,1.266,5.344-5.708,5.483-.817-11.859-7.029-1.642-.267-.805,.151-.68,.533h0Z"/><polygon class="x" points="735.593 393.599 736.682 394.605 737.992 394.296 736.905 395.482 734.309 396.451 728.653 399.664 725.209 400.197 729.368 397.743 734.445 393.007 735.593 393.599"/><polygon class="y" points="736.331 390.781 738.919 391.461 741.771 393.015 741.809 393.833 743.858 394.569 745.336 395.32 745.336 395.32 747.64 397.089 747.787 397.063 747.64 397.089 745.05 397.729 744.007 397.623 742.221 397.072 741.677 398.141 741.677 398.141 737.969 398.459 736.81 400.578 738.964 401.592 736.411 403.547 741.27 404.809 743.841 401.602 755.781 398.32 739.041 390.274 736.331 390.781"/></g><g id="k"><polygon class="p" points="506.238 433.748 499.03 417.357 506.882 400.393 515.253 418.549 506.238 433.748"/><polygon class="y" points="506.238 433.748 499.03 417.357 499.884 415.511 501.567 415.231 501.408 418.254 501.408 418.254 502.692 419.287 503.608 421.355 504.724 422.043 505.229 423.64 506.191 424.996 506.191 424.996 507.559 425.115 508.031 423.917 509.695 421.677 509.695 421.677 511.775 419.031 512.87 417.153 513.722 415.23 515.253 418.549 506.238 433.748"/><polygon class="t" points="512.544 412.577 511.199 415.929 509.57 416.099 508.08 417.693 506.309 419.998 506.09 417.987 504.95 417.725 505.107 413.233 501.835 413.661 502.699 409.43 506.882 400.393 512.544 412.577"/><polygon class="x" points="509.117 406.429 509.999 411.163 510.975 413.892 509.584 412.5 507.732 415.872 508.302 413.578 508.84 411.411 508.983 409.857 507.236 404.204 507.236 401.934 509.117 406.429"/></g><g id="l"><polygon class="p" points="577.46 453.432 594.543 458.8 602.14 475.879 582.963 470.224 577.46 453.432"/><polygon class="y" points="577.46 453.432 594.543 458.8 595.37 460.658 594.472 462.11 592.302 459.999 592.302 459.999 590.679 460.285 588.52 459.613 587.267 460 585.732 459.329 584.078 459.16 584.078 459.16 583.088 460.11 583.679 461.255 584.269 463.982 584.269 463.982 584.89 467.289 585.583 469.351 586.469 471.258 582.963 470.224 577.46 453.432"/><polygon class="t" points="589.242 472.118 587.604 468.899 588.549 467.561 588.331 465.39 587.762 462.539 589.42 463.698 590.367 463.013 593.645 466.089 595.477 463.345 598.093 466.781 602.14 475.879 589.242 472.118"/><polygon class="x" points="596.125 473.588 591.982 471.133 589.285 470.072 591.249 469.941 589.93 466.327 591.282 468.267 592.558 470.098 593.633 471.23 599.038 473.637 600.747 475.132 596.125 473.588"/></g><g id="m"><polygon class="p" points="435.475 640.357 449.022 632.253 466.586 639.76 448.681 648.799 435.475 640.357"/><polygon class="y" points="435.475 640.357 449.022 632.253 458 636.09 450.909 636.281 452.198 641.09 443.949 638.261 437.508 640.205 446.604 645.202 449.696 644.858 453.242 645.851 448.681 648.799 435.475 640.357"/><polygon class="t" points="456 644.004 454.776 642.685 451.19 642.636 453.891 640.185 453.172 637.529 457.544 636.782 466.586 639.76 455.515 645.349 456 644.004"/><polygon class="x" points="458.353 643.723 456.002 642.057 454.031 641.33 459.533 640.89 465.004 640.145 459.944 641.795 458.454 642.47 458.353 643.723"/></g><g><polyline class="q" points="258.995 664.671 258.634 694.43 276.058 670.838 276.807 645.646 274.87 641.566"/><polyline class="s" points="258.995 664.671 258.634 694.43 276.058 670.838 269.839 672.129 266.029 662.911 272.553 645.705 262.679 660.052"/><polygon class="w" points="274.17 644.001 272.929 653.134 268.835 663.268 270.56 670.576 274.861 669.807 276.281 646.016 274.88 642.731 274.17 644.001"/><polyline class="o" points="258.995 664.671 258.634 694.43 262.406 678.307 266.751 670.208 261.299 669.235 258.995 664.671"/><polygon class="o" points="259.98 692.573 265.223 677.483 272.397 675.349 259.98 692.573"/></g><g id="n"><polygon class="t" points="825.646 673.95 814.584 656.278 807.622 678.312 811.449 682.214 814.628 698.533 820.426 686.968 826.07 677.616 825.646 673.95"/><path class="p" d="M825.03,672.966l-1.137,1.192c-.084,.088-.145,.193-.177,.305l-1.768,4.756-.293-2.526-2.047,1.714h0l-2.945,.703,.336-6.961-1.289,.426-1.144-.821-1.269-2.715-1.737,4.412-1.404-3.163-1.971,6.146,6.752,7.961,.592,7.387,9.776-14.612,.465-2.133-.126-1.089-.616-.984h0Z"/><polygon class="x" points="822.163 672.536 820.812 673.821 821.097 675.604 819.692 673.98 818.679 670.392 815.089 662.405 814.692 657.762 817.447 663.65 822.998 671.107 822.163 672.536"/><polygon class="y" points="825.646 673.95 824.587 677.271 822.407 680.807 821.376 680.73 820.289 683.328 819.228 685.169 819.228 685.169 816.821 687.945 816.842 688.144 816.821 687.945 816.221 684.416 816.438 683.052 817.272 680.772 815.972 679.886 815.972 679.886 815.865 674.927 813.294 673.064 811.848 675.759 809.593 672.075 807.622 678.312 811.449 682.214 814.628 698.533 826.07 677.616 825.646 673.95"/></g></svg>