<?xml version="1.0" encoding="UTF-8"?><svg id="a" xmlns="http://www.w3.org/2000/svg" viewBox="0 0 1044.78 1000"><defs><style>.m{fill:#350e68;}.n{fill:#11dbad;}.o{fill:#7a16c1;}.p{fill:#123987;}.q{fill:#5b0d99;}.r{fill:#4dfed4;}.s{fill:#128fc6;}.t{fill:#8f37db;}.u{fill:#80ffe1;}.v{fill:#0b9985;}.w{fill:#1bb7e0;}.x{fill:#0a589e;}</style></defs><g><polyline class="x" points="604.647 124.551 615.539 109.96 619.824 126.634"/><polyline class="x" points="604.647 124.551 608.768 146.419 619.824 126.634"/><polygon class="s" points="607.346 133.602 607.548 130.395 610.101 125.255 612.917 129 613.982 130.953 613.642 136.145 608.768 146.419 606.22 132.899 607.346 133.602"/><polygon class="w" points="607.052 136.384 609.141 133.803 610.275 131.571 609.387 138.053 608.786 144.53 608.455 138.442 608.183 136.63 607.052 136.384"/><polygon class="p" points="606.22 128.311 609.21 123.344 613.395 119.083 612.707 125.905 615.057 128.504 615.057 133.242 617.45 130.883 619.824 126.634 615.539 109.96 604.819 124.321 606.22 128.311"/></g><g id="b"><polygon class="n" points="470.075 214.269 465.108 203.497 470.04 188.619 475.549 202.941 470.075 214.269"/><polygon class="v" points="470.075 214.269 465.108 203.497 467.629 195.891 467.672 201.735 470.721 200.428 468.845 207.381 470.001 212.599 473.255 204.837 473.072 202.303 473.738 199.325 475.549 202.941 470.075 214.269"/><polygon class="r" points="472.603 197.142 471.756 198.219 471.686 201.181 470.169 199.077 468.484 199.804 468.061 196.232 470.04 188.619 473.446 197.474 472.603 197.142"/><polygon class="u" points="472.451 195.214 471.373 197.239 470.893 198.902 470.675 194.384 470.266 189.905 471.252 193.998 471.661 195.194 472.451 195.214"/></g><g id="c"><polygon class="s" points="700.977 268.251 677.593 258.265 655.741 266.698 652.561 270.266 675.255 278.774 700.977 268.251"/><polygon class="x" points="677.593 258.265 679.792 264.443 672.509 271.896 656.535 271.226 670.628 276.527 675.255 278.774 700.977 268.251 677.593 258.265"/><polygon class="w" points="654.783 270.122 662.874 268.1 672.327 268.765 678.327 264.24 676.914 259.922 656.152 267.125 653.564 269.827 654.783 270.122"/><polygon class="p" points="700.977 268.251 686.416 270.127 678.674 268.449 678.787 274.637 675.255 278.774 700.977 268.251"/><polygon class="p" points="699.141 267.492 685.214 267.417 682.122 260.527 699.141 267.492"/></g><g id="d"><polygon class="n" points="751.251 238.475 764.874 259.765 773.345 234.383 767.788 228.178 763.519 211.192 751.251 238.475"/><polygon class="r" points="753.551 240.549 754.824 238.574 757.378 236.532 760.829 229.819 762.465 231.035 762.474 237.48 763.176 247.932 766.105 244.402 768.644 238.444 772.704 236.303 764.874 259.765 752.663 240.682 753.551 240.549"/><polygon class="v" points="763.519 211.192 763.974 213.002 767.788 228.178 764.577 221.898 760.518 227.592 752.32 240.145 751.251 238.475 763.519 211.192"/><polygon class="v" points="764.363 245.086 763.987 236.872 765.389 232.126 764.866 225.883 763.647 225.107 763.594 223.277 764.577 221.898 767.788 228.178 773.345 234.383 767.209 238.571 764.363 245.086"/><polygon class="u" points="756.009 243.327 757.357 238.671 759.082 237.201 758.853 244.669 764.586 256.763 764.697 258.331 756.009 243.327"/></g><g id="e"><polygon class="x" points="392.141 167.789 405.786 186.799 410.867 163.296 405.52 157.809 400.335 142.417 392.141 167.789"/><polygon class="s" points="394.311 169.608 395.237 167.758 397.263 165.803 399.653 159.547 401.173 160.603 401.749 166.498 403.276 176.034 405.495 172.706 407.164 167.17 410.483 165.074 405.786 186.799 393.556 169.76 394.311 169.608"/><polygon class="p" points="400.335 142.417 400.888 144.058 405.52 157.809 402.193 152.174 399.188 157.52 393.212 169.28 392.141 167.789 400.335 142.417"/><polygon class="p" points="403.78 170.389 403.002 165.891 403.796 161.502 402.794 155.809 401.672 155.141 401.465 153.469 402.193 152.174 405.52 157.809 410.867 163.296 405.935 167.335 403.78 170.389"/><polygon class="w" points="396.679 172.066 397.434 167.761 398.794 166.358 399.254 173.196 405.272 184.063 405.507 185.494 396.679 172.066"/></g><g id="f"><polygon class="q" points="288.148 368.713 271.936 375.216 249.327 368.119 270.902 360.965 288.148 368.713"/><polygon class="m" points="288.148 368.713 271.936 375.216 260.379 371.589 269.222 371.676 267.187 367.485 277.745 370.218 285.622 368.771 273.814 364.14 269.982 364.327 265.463 363.344 270.902 360.965 288.148 368.713"/><polygon class="o" points="262.18 364.838 263.826 366.019 268.31 366.188 265.152 368.205 266.284 370.521 260.887 371.008 249.327 368.119 262.666 363.696 262.18 364.838"/><polygon class="t" points="259.264 364.997 262.349 366.517 264.875 367.213 258.04 367.397 251.269 367.844 257.446 366.602 259.248 366.073 259.264 364.997"/></g><g id="g"><polygon class="r" points="173.976 270.254 185.799 310.089 194.99 263.002 191.739 257.36 194.643 226.602 177.562 251.362 178.389 240.502 173.711 260.488 173.976 270.254"/><polygon class="n" points="194.643 226.602 194.416 226.931 177.562 251.362 178.389 240.502 173.711 260.488 176.782 266.698 181.726 274.591 183.273 265.134 187.279 254.326 189.518 267.181 188.82 294.611 194.99 263.002 191.686 256.139 194.643 226.602"/><path class="v" d="M194.643,226.602l-2.816,29.828,2.08,7.248-1.984,9.442-2.018-13.844,1.147-15.7-2.592,3.499c-.479,.646-1.136-.035-1.064-1.102l.313-4.681-5.126,14.248-1.593,13.808-3.637-4.499-2.718-8.298,3.756-16.048-.704,10.444,16.958-24.344h0Z"/><polygon class="u" points="175.293 270.35 185.589 307.16 186.72 298.36 177.041 270.384 174.606 264.532 175.293 270.35"/></g><g id="h"><polygon class="x" points="246.756 447.682 252.133 459.555 245.282 474.528 239.458 458.875 246.756 447.682"/><polygon class="p" points="246.756 447.682 252.133 459.555 248.631 467.209 248.925 461.089 245.155 462.088 247.838 455.039 246.746 449.438 242.347 457.168 242.419 459.842 241.437 462.877 239.458 458.875 246.756 447.682"/><polygon class="s" points="242.683 465.299 243.772 464.274 244.031 461.183 245.744 463.569 247.827 463.011 248.129 466.8 245.282 474.528 241.681 464.85 242.683 465.299"/><polygon class="w" points="242.753 467.335 244.177 465.346 244.857 463.664 244.854 468.418 245.085 473.155 244.133 468.752 243.708 467.451 242.753 467.335"/></g><g><polyline class="r" points="906.986 523.313 886.217 560.422 887.389 596.143 890.271 601.478 909.057 565.395 906.986 523.313"/><polyline class="n" points="906.986 523.313 886.802 560.237 894.24 557.239 900.008 569.417 892.947 595.128 904.633 572.721 909.057 565.395 906.986 523.313"/><polygon class="u" points="890.978 597.888 891.82 584.726 896.309 569.527 893.428 559.589 887.87 561.615 888.045 595.505 890.158 599.835 890.978 597.888"/><polyline class="v" points="906.986 523.313 903.431 546.895 898.441 559.276 905.653 559.457 909.057 565.395 906.986 523.313"/><polygon class="v" points="905.385 526.227 899.818 548.673 890.619 553.254 905.385 526.227"/></g><g id="i"><polygon class="n" points="737.242 370.655 720.534 379.566 738.842 386.155 743.815 382.453 756.715 379.94 737.242 370.655"/><polygon class="r" points="735.55 372.201 736.935 373.141 738.286 374.976 743.049 377.562 742.039 378.668 737.249 378.499 729.437 378.705 731.87 380.84 736.131 382.771 737.458 385.657 720.534 379.566 735.509 371.579 735.55 372.201"/><polygon class="v" points="756.715 379.94 755.34 380.208 743.815 382.453 748.691 380.387 744.725 377.405 735.931 371.354 737.242 370.655 756.715 379.94"/><polygon class="v" points="731.475 379.609 737.603 379.57 741.038 380.675 745.711 380.48 746.367 379.652 747.731 379.665 748.691 380.387 743.815 382.453 738.842 386.155 736.13 381.768 731.475 379.609"/><polygon class="u" points="733.326 373.838 736.698 374.903 737.678 376.144 732.144 375.782 722.784 379.447 721.611 379.482 733.326 373.838"/></g><g id="j"><polygon class="r" points="546.901 415.419 529.264 384.581 515.831 420.225 520.663 424.648 516.475 448.04 541.662 429.725 540.477 437.99 547.327 422.888 546.901 415.419"/><polygon class="n" points="516.475 448.04 516.81 447.797 541.662 429.725 540.477 437.99 547.327 422.888 542.761 418.037 535.418 411.836 533.162 419.006 527.273 427.121 523.914 417.224 524.849 396.297 515.831 420.225 520.745 425.583 516.475 448.04"/><path class="v" d="M516.475,448.04l4.061-22.685-3.104-5.609,2.902-7.143,3.036,10.645-1.641,11.952,3.822-2.582c.706-.477,1.681,.066,1.579,.879l-.447,3.564,7.534-10.704,2.308-10.491,5.398,3.564,4.052,6.433-5.501,12.126,1.005-7.953-25.006,18.002h0Z"/><polygon class="u" points="544.952 415.3 529.585 386.825 527.943 393.508 542.365 415.213 545.989 419.768 544.952 415.3"/></g><g><polyline class="r" points="618.474 434.341 604.44 458.424 609.706 483.143 612.893 487.032 625.289 463.513 618.474 434.341"/><polyline class="n" points="618.474 434.341 604.938 458.338 611.18 456.812 617.738 465.629 614.516 482.848 622.231 468.244 625.289 463.513 618.474 434.341"/><polygon class="u" points="613.096 484.608 612.286 475.592 614.47 465.436 610.739 458.374 606.048 459.366 610.213 482.752 612.599 485.891 613.096 484.608"/><polyline class="v" points="618.474 434.341 618.11 450.346 615.148 458.522 621.567 459.171 625.289 463.513 618.474 434.341"/><polygon class="v" points="617.399 436.235 615.116 451.31 607.497 453.801 617.399 436.235"/><polyline class="r" points="610.472 385.325 631.304 358.704 631.212 328.964 628.622 323.995 609.707 350.154 610.472 385.325"/><polyline class="n" points="610.472 385.325 630.742 358.744 623.577 359.774 618.435 348.59 625.893 328.721 614.128 344.962 609.707 350.154 610.472 385.325"/><polygon class="u" points="627.846 326.823 626.667 337.535 621.959 349.219 624.417 357.99 629.765 357.397 630.569 329.362 628.682 325.374 627.846 326.823"/><polyline class="v" points="610.472 385.325 614.532 366.533 619.636 357.274 612.777 355.721 609.707 350.154 610.472 385.325"/><polygon class="v" points="612.08 383.228 618.022 365.766 626.909 363.77 612.08 383.228"/></g><g id="k"><polygon class="x" points="703.494 676.555 702.246 659.258 718.139 645.113 718.163 667.206 703.494 676.555"/><polygon class="p" points="703.494 676.555 702.246 659.258 710.37 652.027 707.085 659.219 712.391 660.139 705.604 667.103 704.341 674.45 713.651 667.633 714.829 664.378 717.529 661.282 718.163 667.206 703.494 676.555"/><polygon class="s" points="717.084 657.669 715.202 658.289 713.401 661.859 712.339 658.027 709.405 657.526 710.82 652.802 718.139 645.113 718.154 658.773 717.084 657.669"/><polygon class="w" points="717.962 655.183 715.191 656.772 713.521 658.412 715.785 652.698 717.739 646.874 716.867 652.703 716.794 654.505 717.962 655.183"/></g><g id="l"><polygon class="s" points="376.884 654.509 358.119 637.832 358.377 665.025 362.527 666.878 365.629 683.64 377.084 665.387 378.366 671.241 378.992 659.448 376.884 654.509"/><polygon class="x" points="365.629 683.64 365.781 683.397 377.084 665.387 378.366 671.241 378.992 659.448 374.905 657.244 368.725 654.78 369.06 660.145 367.325 666.999 362.761 661.108 358.204 646.77 358.377 665.025 362.809 667.489 365.629 683.64"/><path class="p" d="M365.629,683.64l-3.008-16.255-3.347-3.057,.082-5.498,4.543,6.471,1.901,8.448,1.787-2.637c.33-.487,1.081-.349,1.217,.224l.594,2.509,2.141-8.985-1.119-7.618,4.298,1.141,4.151,3.392-.502,9.469-1.32-5.601-11.417,17.999h0Z"/><polygon class="w" points="375.619 654.885 358.875 639.271 359.478 644.164 373.959 655.432 377.376 657.656 375.619 654.885"/></g></svg>