<?xml version="1.0" encoding="UTF-8"?><svg id="a" xmlns="http://www.w3.org/2000/svg" viewBox="0 0 720 720"><defs><style>.b{fill:#fff;}</style></defs><g><rect class="b" x="338.78" y="193.56" width="23.7" height="22.01"/><rect class="b" x="367.83" y="193.56" width="23.23" height="22.01"/><rect class="b" x="367.83" y="219.7" width="23.23" height="23.08"/><rect class="b" x="338.78" y="219.7" width="23.7" height="23.08"/></g><g><rect class="b" x="175.217" y="193.56" width="23.7" height="22.01"/><rect class="b" x="204.267" y="193.56" width="23.23" height="22.01"/><rect class="b" x="204.267" y="219.7" width="23.23" height="23.08"/><rect class="b" x="175.217" y="219.7" width="23.7" height="23.08"/></g><g><rect class="b" x="166.733" y="427.905" width="27.546" height="25.582"/><rect class="b" x="200.497" y="427.905" width="27" height="25.582"/><rect class="b" x="200.497" y="458.287" width="27" height="26.825"/><rect class="b" x="166.733" y="458.287" width="27.546" height="26.825"/></g><g><rect class="b" x="316.121" y="429.683" width="27.546" height="25.582"/><rect class="b" x="349.885" y="429.683" width="27" height="25.582"/><rect class="b" x="349.885" y="460.065" width="27" height="26.825"/><rect class="b" x="316.121" y="460.065" width="27.546" height="26.825"/></g><g><rect class="b" x="479.382" y="429.683" width="27.546" height="25.582"/><rect class="b" x="513.147" y="429.683" width="27" height="25.582"/><rect class="b" x="513.147" y="460.065" width="27" height="26.825"/><rect class="b" x="479.382" y="460.065" width="27.546" height="26.825"/></g><g><rect class="b" x="166.733" y="548.116" width="27.546" height="25.582"/><rect class="b" x="200.497" y="548.116" width="27" height="25.582"/><rect class="b" x="200.497" y="578.498" width="27" height="26.825"/><rect class="b" x="166.733" y="578.498" width="27.546" height="26.825"/></g><g><rect class="b" x="476.546" y="545.094" width="27.546" height="25.582"/><rect class="b" x="510.311" y="545.094" width="27" height="25.582"/><rect class="b" x="510.311" y="575.476" width="27" height="26.825"/><rect class="b" x="476.546" y="575.476" width="27.546" height="26.825"/></g><g><rect class="b" x="329.685" y="554.176" width="15.228" height="14.142"/><rect class="b" x="348.351" y="554.176" width="14.926" height="14.142"/><rect class="b" x="348.351" y="570.972" width="14.926" height="14.83"/><rect class="b" x="329.685" y="570.972" width="15.228" height="14.83"/></g></svg>