<?xml version="1.0" encoding="UTF-8"?><svg id="a" xmlns="http://www.w3.org/2000/svg" viewBox="0 0 720 720"><defs><style>.b{fill:#fff;}</style></defs><path class="b" d="M720,427h-41l-44-40v281.22H72V387l-34,41-38-1,15-13c8.13-10.27,.88-30.68,12.99-35.67,3.53-1.46,7.53-.92,11.32-1.37,7.95-.94,15.14-6.69,17.81-14.23,1.49-4.21,1.7-8.93,4.1-12.7,6.2-9.74,21.48-6.77,31.28-12.88,4.4-2.74,7.45-7.2,11.52-10.42,2.13-1.69,4.39-2.96,6.76-3.89V149.31l-35.08,50.21h-26.14l16.24-17.99c-.93-6.33-1.78-13.16,1.21-18.82,2.02-3.8,5.53-6.55,8.19-9.93,7.85-10.01,8-25.17,17.69-33.42,14.76-12.59,41.59-.93,54.65-15.27,2.66-2.92,4.35-6.62,6.98-9.56,10.26-11.43,28.9-7,43.61-11.39,11.39-3.4,20.27-12.18,30.65-17.96,15.89-8.85,34.69-10.39,52.83-11.74,7.68-.58,15.69-1.1,22.79,1.89,4.46,1.88,8.3,5.06,12.81,6.79,8.1,3.11,17.39,1.25,25.64,3.93,9.07,2.95,15.45,10.81,22.34,17.41,6.89,6.59,16.18,12.51,25.41,10.09,4.8-1.26,8.85-4.65,13.69-5.73,8.33-1.86,16.57,3.55,22.41,9.77,5.84,6.22,10.69,13.67,18.07,17.96,13.69,7.96,33.81,3.76,43.83,16.02,6.98,8.55,5.53,21.45,11.34,30.83,3.63,5.88,9.73,9.75,14.37,14.88,4.64,5.12,7.77,13,4.08,18.85l-26.51,1.33-34.4-41.96v136.01c13.73,6.45,27.61,10.99,42.45,8.53,11.57-1.92,22.81-8.15,34.36-6.1,15.68,2.79,24.64,19.18,37.82,28.1,17.83,12.07,41.3,9.41,62.78,7.96,3.46-.23,7.04-.4,10.28,.81,4.46,1.66,7.6,5.67,10.02,9.77,10.23,17.31,14.31,41.67,33.3,48.27,5.05,1.76,11.23,2.32,14.07,6.84,4.03,6.4-2.02,17.39,4.44,21.31l13,10Z"/></svg>