<?xml version="1.0" encoding="UTF-8"?><svg id="a" xmlns="http://www.w3.org/2000/svg" viewBox="0 0 2316.591 172.92"><defs><style>.b{fill:#231e22;}.c{fill:#4a1d41;}.d{fill:none;stroke:#352032;stroke-miterlimit:10;stroke-width:3px;}.e{fill:#391236;}.f{fill:#603b5a;}.g{fill:#352032;}</style></defs><path class="c" d="M2293.403,117.203h-106.419V53.327h106.419s8.591,15.7,8.591,31.938-8.591,31.938-8.591,31.938Z"/><path class="e" d="M2293.471,117.077s22.429-19.036,23.107-31.811-23.175-31.938-23.175-31.938c0,0,6.891,22.645,6.504,31.355s-6.436,32.394-6.436,32.394Z"/><rect class="e" x="2180.071" y="53.327" width="10.162" height="64.491"/><polygon class="g" points="2186.983 134.576 2299.689 134.327 2299.689 116.766 2186.983 117.014 2186.983 134.576"/><rect class="e" x="2214.196" y="53.327" width="10.162" height="64.273"/><rect class="e" x="2195.034" y="53.327" width="10.162" height="64.491"/><rect class="e" x="2273.34" y="39.028" width="11.686" height="14.299"/><polyline class="c" points="2273.462 39.22 2265.991 32.096 2267.352 32.072 2291.934 32.072 2284.895 39.111"/><rect class="c" x="2113.527" y="7.162" width="73.457" height="127.414"/><rect class="e" x="2109.057" width="80.909" height="7.162"/><rect class="f" x="2120.768" y="15.679" width="57.488" height="42.971"/><rect class="d" x="2120.768" y="65.231" width="57.488" height="62.633"/><rect class="b" x="2083.292" y="124.38" width="30.234" height="6.968"/><rect class="c" x="1902.525" y="36.816" width="181.755" height="95.454"/><rect class="f" x="1920.739" y="46.212" width="35.401" height="31.357"/><rect class="f" x="1975.966" y="46.212" width="35.401" height="31.357"/><rect class="f" x="2031.877" y="46.212" width="35.401" height="31.357"/><rect class="e" x="1899.233" y="28.945" width="188.869" height="7.871"/><rect class="b" x="1872.266" y="124.487" width="30.234" height="6.968"/><rect class="c" x="1691.499" y="36.923" width="181.755" height="95.454"/><rect class="f" x="1709.713" y="46.319" width="35.401" height="31.357"/><rect class="f" x="1764.941" y="46.319" width="35.401" height="31.357"/><rect class="f" x="1820.851" y="46.319" width="35.401" height="31.357"/><rect class="e" x="1688.207" y="29.052" width="188.869" height="7.871"/><rect class="b" x="1661.241" y="124.808" width="30.234" height="6.968"/><rect class="c" x="1480.473" y="37.244" width="181.755" height="95.454"/><rect class="f" x="1498.687" y="46.64" width="35.401" height="31.357"/><rect class="f" x="1553.915" y="46.64" width="35.401" height="31.357"/><rect class="f" x="1609.825" y="46.64" width="35.401" height="31.357"/><rect class="e" x="1477.181" y="29.373" width="188.869" height="7.871"/><polyline class="b" points="1480.449 125.558 1450.215 125.558 1450.215 132.526 1480.449 132.526"/><rect class="c" x="1269.447" y="37.994" width="181.755" height="95.454"/><rect class="f" x="1287.661" y="47.39" width="35.401" height="31.357"/><rect class="f" x="1342.889" y="47.39" width="35.401" height="31.357"/><rect class="f" x="1398.8" y="47.39" width="35.401" height="31.357"/><rect class="e" x="1266.155" y="30.123" width="188.869" height="7.871"/><polyline class="b" points="1269.423 125.656 1239.189 125.656 1239.189 132.624 1269.423 132.624"/><rect class="c" x="1058.422" y="38.092" width="181.755" height="95.454"/><rect class="d" x="1085.384" y="37.139" width="10.162" height="95.14"/><rect class="d" x="1203.279" y="37.139" width="10.162" height="96.407"/><rect class="d" x="1147.941" y="35.734" width="10.162" height="96.406"/><rect class="b" x="1058.397" y="34.156" width="181.804" height="7.871"/><rect class="e" x="1055.129" y="30.221" width="188.869" height="7.871"/><polyline class="b" points="1058.397 126.114 1028.163 126.114 1028.163 133.083 1058.397 133.083"/><rect class="c" x="847.396" y="38.55" width="181.755" height="95.454"/><rect class="d" x="874.358" y="37.598" width="10.162" height="95.14"/><rect class="d" x="992.253" y="37.598" width="10.162" height="96.406"/><rect class="d" x="936.915" y="36.193" width="10.162" height="96.406"/><rect class="b" x="847.371" y="34.615" width="181.804" height="7.871"/><rect class="e" x="844.103" y="30.679" width="188.869" height="7.871"/><polyline class="b" points="847.371 126.391 817.137 126.391 817.137 133.359 847.371 133.359"/><rect class="c" x="636.37" y="38.827" width="181.755" height="95.454"/><rect class="d" x="663.332" y="37.875" width="10.162" height="95.14"/><rect class="d" x="781.227" y="37.875" width="10.162" height="96.407"/><rect class="d" x="725.889" y="36.469" width="10.162" height="96.407"/><rect class="b" x="636.346" y="34.891" width="181.804" height="7.871"/><rect class="e" x="633.078" y="30.956" width="188.869" height="7.871"/><polyline class="b" points="636.346 126.496 606.112 126.496 606.112 133.464 636.346 133.464"/><rect class="c" x="425.344" y="38.932" width="181.755" height="95.454"/><rect class="d" x="452.306" y="37.979" width="10.162" height="95.14"/><rect class="d" x="570.201" y="37.979" width="10.162" height="96.407"/><rect class="d" x="514.863" y="36.574" width="10.162" height="96.406"/><rect class="b" x="425.32" y="34.996" width="181.804" height="7.871"/><rect class="e" x="422.052" y="31.06" width="188.869" height="7.871"/><polyline class="b" points="425.32 126.352 395.086 126.352 395.086 133.32 425.32 133.32"/><rect class="c" x="214.318" y="38.788" width="181.755" height="95.454"/><rect class="d" x="241.28" y="37.835" width="10.162" height="95.14"/><rect class="d" x="359.176" y="37.835" width="10.162" height="96.407"/><rect class="d" x="303.838" y="36.43" width="10.162" height="96.407"/><rect class="b" x="214.294" y="34.852" width="181.804" height="7.871"/><rect class="e" x="211.026" y="30.917" width="188.869" height="7.871"/><polyline class="b" points="214.294 126.308 184.06 126.308 184.06 133.276 214.294 133.276"/><rect class="c" x="3.292" y="38.744" width="181.755" height="95.454"/><rect class="d" x="30.254" y="37.792" width="10.162" height="95.14"/><rect class="d" x="148.15" y="37.792" width="10.162" height="96.407"/><rect class="d" x="92.812" y="36.386" width="10.162" height="96.406"/><rect class="b" x="3.268" y="34.808" width="181.804" height="7.871"/><rect class="e" y="30.873" width="188.869" height="7.871"/></svg>