<?xml version="1.0" encoding="UTF-8"?><svg xmlns="http://www.w3.org/2000/svg" viewBox="0 0 23.6561 21.7967"><defs><style>.e{fill:#003d57;}</style></defs><g id="a"/><g id="b"><g id="c"><g id="d"><g><polygon class="e" points="18.1135 9.8378 22.6389 6.9861 21.4525 0 18.5287 2.7183 16.4472 .428 15.1272 3.2126 11.367 1.1921 10.3468 1.1705 11.9477 5.916 16.4836 8.236 16.6754 8.7732 16.7907 9.0962 17.1292 8.5662 17.1347 8.569 17.1325 8.5612 17.6134 7.8081 18.1135 9.8378"/><polygon class="e" points="10.6905 2.9375 10.6905 2.9375 10.5527 2.7683 6.6158 1.699 7.0803 4.113 6.2287 3.3513 6.2288 3.3513 3.3872 .8093 2.7357 3.3132 2.7357 3.3132 2.0545 5.9319 5.9832 8.9585 7.4415 6.0139 7.524 6.4528 7.5305 6.4532 7.6145 6.8894 8.7447 6.8682 11.0545 9.1631 11.0168 3.338 10.6905 2.9375"/></g><g><rect class="e" y="3.6483" width="23.6561" height="15.7584"/><circle class="e" cx="4.8535" cy="19.2171" r="2.5796"/><circle class="e" cx="18.3487" cy="19.2171" r="2.5796"/><circle class="e" cx="18.3487" cy="19.2171" r=".9172"/><circle class="e" cx="4.8535" cy="19.2171" r=".9172"/></g></g></g></g></svg>