<?xml version="1.0" encoding="UTF-8"?><svg xmlns="http://www.w3.org/2000/svg" viewBox="0 0 23.6561 22.9501"><defs><style>.e{fill:#005768;}</style></defs><g id="a"/><g id="b"><g id="c"><g id="d"><polygon class="e" points="23.0752 4.364 19.7011 .802 18.7392 .4611 18.7444 1.3318 17.7231 .2083 17.2671 1.1702 17.0861 0 14.7629 2.0969 14.7629 2.0969 12.446 4.1884 11.1005 .9519 8.8804 3.4757 8.8804 3.4757 8.4097 4.0061 6.9949 2.8043 6.9949 2.8043 4.1119 .3555 4.1586 2.0391 2.8962 .65 .7491 5.1794 2.1577 6.2869 3.1244 8.9951 3.2398 9.3184 4.9007 6.7175 7.9304 8.9423 7.9192 9.0325 7.9839 8.9817 8.1446 9.0996 8.1805 8.8273 12.5006 5.4346 12.5493 5.2245 13.6027 9.7876 17.5358 7.3892 17.9514 8.5535 18.0668 8.8765 19.6636 6.3762 22.8605 9.6169 23.0752 4.364"/><g><rect class="e" y="4.8017" width="23.6561" height="15.7584"/><circle class="e" cx="4.8535" cy="20.3705" r="2.5796"/><circle class="e" cx="18.3487" cy="20.3705" r="2.5796"/><circle class="e" cx="18.3487" cy="20.3705" r=".9172"/><circle class="e" cx="4.8535" cy="20.3705" r=".9172"/></g></g></g></g></svg>