<?xml version="1.0" encoding="UTF-8"?><svg xmlns="http://www.w3.org/2000/svg" viewBox="0 0 23.6561 23.5631"><defs><style>.e{fill:#04a0a9;}</style></defs><g id="a"/><g id="b"><g id="c"><g id="d"><g><polygon class="e" points="6.1534 5.3866 4.1314 1.2529 .8058 5.0035 1.8495 6.46 2.0223 9.3303 2.0429 9.6729 6.3873 5.8647 6.2103 5.5029 6.1534 5.3866"/><polygon class="e" points="23.1128 .894 17.9628 3.7842 17.821 4.7239 17.5151 4.4817 17.4684 4.3057 14.8376 1.6078 14.708 2.2598 12.4361 .4617 10.489 0 10.3458 3.9429 8.7328 3.1394 8.7328 3.1394 5.3469 1.4526 6.9206 7.1447 11.3576 8.9757 11.3135 8.5806 18.3061 13.8777 18.8901 7.9255 21.7745 6.864 23.1128 .894"/></g><rect class="e" y="5.4147" width="23.6561" height="15.7584"/><circle class="e" cx="4.8535" cy="20.9835" r="2.5796"/><circle class="e" cx="18.3487" cy="20.9835" r="2.5796"/><circle class="e" cx="18.3487" cy="20.9835" r=".9172"/><circle class="e" cx="4.8535" cy="20.9835" r=".9172"/></g></g></g></svg>