<?xml version="1.0" encoding="UTF-8"?><svg xmlns="http://www.w3.org/2000/svg" viewBox="0 0 9.4767 25.268"><defs><style>.d{fill:#04a0a9;}</style></defs><g id="a"/><g id="b"><g id="c"><path class="d" d="M2.8919,21.9644l-1.0913,.6349s-.7168,.062-.8011,.0893-.8755,.0006-.9995-.9425c.0298-.0694,.1439-.3522,.1439-.3522l.0694-.687,.3373-5.0521s.0719-1.4112,.2133-1.5377l.0347-1.0392s.5196-.6386,.692,0c.0942,.1141,.6349-1.0516,.6349-1.0516,0,0,.9759-2.5707,1.2872-5.2108,0,0,.2865-.9759,.3683-3.2081-.0149-.1897,.2319-3.6074,.2319-3.6074l.5456,3.1449s.16,.3398,.4464-.4787c0-.0744-.0632-1.25-.0632-1.25,0,0,.4204-1.2574,.6585-.2158-.0298,.2753,.0112,1.1682,.0632,1.4881-.0037,.1004,.2641,3.7947,.6064,4.7173,.0595,.1488,.5804,3.0655,.5804,3.0655,0,0,.2158,.5394,1.0584,1.131,.0409-.0093,.1246,.0056,.1246,.0056,0,0-.3547,.6293-.2604,2.1174,0,0,.005,1.1954,.4514,2.0585,.0347,.0099,1.245,1.3864,1.245,1.3864l.0074,.0707s-.3075,.0558-.4117,1.3182c.0198,.0893-.111,.8389-.111,.8389l.3441,1.5867s.0149,.1563-.2083,.2158c-.0372-.0149,.1488,.2902,.1711,1.8452-.0298,.0372-.067,.6151-.067,.6151,0,0-.2951,.4415-.7441,.3894-.057,.0025-.6597-.3695-.8383-.6374,.0198-.0471,.0335-.5667,.0335-.5667,0,0-.1885-1.3963-.3559-1.3926-.0967-.0037-.2158,.532-.2158,.532,0,0,.1786,.5097,.0298,.7676-.0248,.0645-.3274,1.0268-.3274,1.0268l-.0198,.1488s.6207,.3522,.6448,.6721c.0186,.0911,.1265,.6672,.1265,.6672,0,0-.5382-.0967-1.0169-.3671-.1538-.0843-.3571-.3125-.3571-.3125,0,0-.4266,.3447-1.1806,.1736-.0868-.0422-1.059-.0298-1.3368-.2703-.0198-.0198-.1637,.1513-.1637,.1513,0,0-.1959,.4737-1.1334,.5804-.0223-.0099,.0099-1.0516,.0645-1.1111s.4762-.4836,.4762-.4836c0,0-.1091-.8879-.057-.9945l.0694-.6696Z"/></g></g></svg>