<?xml version="1.0" encoding="UTF-8"?><svg xmlns="http://www.w3.org/2000/svg" viewBox="0 0 2097.6274 1901.5096"><defs><style>.g{fill:#350e68;}.h{fill:#11dbad;}.i{fill:#445668;}.j{fill:#7a16c1;}.k{fill:#123987;}.l{fill:#5b0d99;}.m{fill:#4dfed4;}.n{fill:#128fc6;}.o{fill:#354654;}.p{fill:#8f37db;}.q{fill:#1f2b33;}.r{fill:#80ffe1;}.s{fill:#0b9985;}.t{fill:#0a589e;}.u{fill:#19bdd8;}</style></defs><g id="a"><g id="b"><g><polygon class="h" points="1998.8407 1234.3488 1999.562 1233.1862 1999.6574 1234.652 1999.302 1235.4989 1999.4345 1236.6132 1999.7436 1236.7516 1999.757 1237.0783 1999.5078 1237.3244 2000.5366 1236.3082 2002.6146 1234.0679 2002.5275 1233.9721 2002.3025 1233.9958 2001.9799 1234.3484 2001.3325 1234.7128 2000.4578 1235.9107 2000.0431 1235.6938 2000.041 1234.5435 1999.863 1232.6783 1999.1206 1233.3083 1998.477 1234.3715 1997.4478 1234.7536 1999.4325 1230.5667 1997.2854 1235.0962 1998.8407 1234.3488"/><path class="m" d="M1998.477,1234.3715l.6436-1.0632,.7424-.63,.1781,1.8652,.0021,1.1503,.4147,.2169,.8748-1.1978,.6473-.3644,.3227-.3526,.225-.0237-3.095-3.4054-1.9847,4.187,1.0292-.3821Zm3.2026-.8715l-.3418,.8309-.437,.2623,.058-1.3327-1.453-2.1582-.0283-.2799,2.2021,2.6776Z"/><polygon class="s" points="1999.5078 1237.3244 1999.757 1237.0783 1999.7436 1236.7516 1999.4345 1236.6132 1999.302 1235.4989 1999.6574 1234.652 1999.562 1233.1862 1998.8407 1234.3488 1997.2854 1235.0962 1998.694 1236.2036 1999.6607 1238.9118 1999.7761 1239.235 2002.8856 1234.366 2002.6146 1234.0679 2000.5366 1236.3082 1999.5078 1237.3244"/><polygon class="r" points="2000.9587 1233.2606 2000.9007 1234.5933 2001.3377 1234.331 2001.6795 1233.5 1999.4774 1230.8225 1999.5057 1231.1024 2000.9587 1233.2606"/></g><g><polygon class="h" points="2013.6677 1233.9071 2014.389 1232.7444 2014.4843 1234.2103 2014.1289 1235.0572 2014.2615 1236.1714 2014.5705 1236.3098 2014.5839 1236.6365 2014.3347 1236.8826 2015.3635 1235.8665 2017.4416 1233.6262 2017.3545 1233.5303 2017.1294 1233.554 2016.8068 1233.9066 2016.1595 1234.2711 2015.2847 1235.4689 2014.87 1235.252 2014.8679 1234.1017 2014.6899 1232.2365 2013.9475 1232.8665 2013.3039 1233.9297 2012.2747 1234.3119 2014.2594 1230.1249 2012.1123 1234.6544 2013.6677 1233.9071"/><path class="m" d="M2013.3039,1233.9297l.6436-1.0632,.7424-.63,.1781,1.8652,.0021,1.1503,.4147,.2169,.8748-1.1978,.6473-.3644,.3227-.3526,.225-.0237-3.095-3.4054-1.9847,4.187,1.0292-.3821Zm3.2026-.8715l-.3418,.8309-.437,.2623,.058-1.3327-1.453-2.1582-.0283-.2799,2.2021,2.6776Z"/><polygon class="s" points="2014.3347 1236.8826 2014.5839 1236.6365 2014.5705 1236.3098 2014.2615 1236.1714 2014.1289 1235.0572 2014.4843 1234.2103 2014.389 1232.7444 2013.6677 1233.9071 2012.1123 1234.6544 2013.5209 1235.7618 2014.4877 1238.4701 2014.603 1238.7932 2017.7125 1233.9243 2017.4416 1233.6262 2015.3635 1235.8665 2014.3347 1236.8826"/><polygon class="r" points="2015.7856 1232.8188 2015.7276 1234.1515 2016.1647 1233.8892 2016.5065 1233.0583 2014.3043 1230.3807 2014.3326 1230.6606 2015.7856 1232.8188"/></g><g id="c"><polygon class="t" points="2010.139 1239.7041 2008.8698 1234.2065 2013.6223 1229.9166 2014.7058 1236.9193 2010.139 1239.7041"/><polygon class="k" points="2010.139 1239.7041 2008.8698 1234.2065 2011.2992 1232.0136 2010.5248 1234.2531 2012.3858 1234.6091 2010.4012 1236.7338 2010.3264 1239.047 2013.1818 1236.9997 2013.4267 1235.9822 2014.2006 1235.0338 2014.7058 1236.9193 2010.139 1239.7041"/><polygon class="n" points="2013.8722 1233.8835 2013.2582 1234.057 2012.8152 1235.1665 2012.2654 1233.9391 2011.2366 1233.7445 2011.4908 1232.2645 2013.6223 1229.9166 2014.2923 1234.2462 2013.8722 1233.8835"/><polygon class="u" points="2014.0518 1233.106 2013.1807 1233.5761 2012.6886 1234.0755 2013.1857 1232.2921 2013.5711 1230.4699 2013.5562 1232.3066 2013.6189 1232.8771 2014.0518 1233.106"/></g><g id="d"><polygon class="t" points="2004.6809 1239.0162 2000.812 1236.1753 2000.6481 1230.272 2005.3111 1234.2329 2004.6809 1239.0162"/><polygon class="k" points="2004.6809 1239.0162 2000.812 1236.1753 2000.7282 1233.1577 2001.6622 1235.144 2002.7971 1234.186 2003.0618 1236.8728 2004.387 1238.4589 2004.6008 1235.2647 2004.1233 1234.4309 2003.9494 1233.3035 2005.3111 1234.2329 2004.6809 1239.0162"/><polygon class="n" points="2003.1087 1232.7494 2002.9057 1233.259 2003.3389 1234.281 2002.3427 1233.8178 2001.7166 1234.3489 2000.9712 1233.2015 2000.6481 1230.272 2003.5312 1232.721 2003.1087 1232.7494"/><polygon class="u" points="2002.7401 1232.1171 2002.5839 1232.9889 2002.6334 1233.6369 2001.8302 1232.1319 2000.9486 1230.6729 2002.0229 1231.9037 2002.3901 1232.2428 2002.7401 1232.1171"/></g><g><polyline class="j" points="2015.3051 1235.3859 2019.3967 1239.5335 2019.6114 1234.2807 2016.2374 1230.7186 2015.2755 1230.3777"/><polyline class="l" points="2015.3051 1235.3859 2019.3967 1239.5335 2019.6114 1234.2807 2018.5371 1235.1718 2016.4784 1234.3365 2015.3872 1231.2145 2015.4023 1234.326"/><polygon class="p" points="2015.4749 1230.794 2016.5027 1232.1964 2017.0945 1234.0642 2018.4654 1234.8748 2019.2258 1234.2757 2016.183 1230.83 2015.4406 1230.5373 2015.4749 1230.794"/><polyline class="g" points="2015.3051 1235.3859 2019.3967 1239.5335 2017.9016 1236.8763 2017.6451 1235.2607 2016.4088 1235.7514 2015.3051 1235.3859"/><polygon class="g" points="2019.4085 1239.1231 2018.3548 1236.4398 2019.5039 1235.3228 2019.4085 1239.1231"/></g><g id="e"><polygon class="m" points="2009.2028 1234.6355 2007.6367 1230.8686 2004.1456 1234.8373 2004.8547 1235.7176 2004.4554 1238.9491 2006.85 1236.9414 2009.0369 1235.3513 2009.2028 1234.6355"/><path class="h" d="M2009.1157,1234.4258l-.3882,.188c-.0288,.0139-.0527,.0319-.0696,.0521l-.823,.8474,.114-.4931-.6664,.2559h0l-.8255,.0312,.614-1.3191-.3703,.0362-.2381-.1972-.1277-.5636-.7889,.7826-.1292-.654-.9813,1.1059,1.1694,1.759-.4027,1.4331,3.6682-2.4508,.2832-.3915,.0493-.2125-.0872-.2097Z"/><polygon class="r" points="2008.3962 1234.2429 2007.9447 1234.4412 2007.8846 1234.792 2007.639 1234.4323 2007.6444 1233.7109 2007.3063 1232.0578 2007.5528 1231.1562 2007.8305 1232.3785 2008.7232 1233.9989 2008.3962 1234.2429"/><polygon class="s" points="2009.2028 1234.6355 2008.6742 1235.2332 2007.8352 1235.8328 2007.5707 1235.7819 2007.0891 1236.2407 2006.6717 1236.5554 2006.6717 1236.5554 2005.8306 1237.0018 2005.8211 1237.0405 2005.8306 1237.0018 2005.9401 1236.306 2006.0998 1236.0527 2006.491 1235.646 2006.2169 1235.4311 2006.2169 1235.4311 2006.5636 1234.4793 2006.0298 1234.0328 2005.447 1234.4973 2005.1339 1233.7138 2004.1456 1234.8373 2004.8547 1235.7176 2004.4554 1238.9491 2009.0369 1235.3513 2009.2028 1234.6355"/></g><g><rect class="i" x="1996.5363" y="1234.7183" width="23.6561" height="15.7584"/><rect class="o" x="1997.7879" y="1236.0992" width="10.8344" height="1.6911"/><rect class="o" x="1998.4758" y="1244.698" width="11.8089" height="1.6624"/><rect class="o" x="2009.014" y="1240.037" width="10.1847" height="1.6338"/><circle class="o" cx="2001.3898" cy="1250.2871" r="2.5796"/><circle class="o" cx="2014.885" cy="1250.2871" r="2.5796"/><circle class="q" cx="2014.885" cy="1250.2871" r=".9172"/><circle class="q" cx="2001.3898" cy="1250.2871" r=".9172"/></g></g></g><g id="f"/></svg>