<?xml version="1.0" encoding="UTF-8"?><svg xmlns="http://www.w3.org/2000/svg" viewBox="0 0 2097.6274 1901.5096"><defs><style>.g{fill:#350e68;}.h{fill:#11dbad;}.i{fill:#445668;}.j{fill:#7a16c1;}.k{fill:#123987;}.l{fill:#5b0d99;}.m{fill:#4dfed4;}.n{fill:#128fc6;}.o{fill:#354654;}.p{fill:#8f37db;}.q{fill:#1f2b33;}.r{fill:#80ffe1;}.s{fill:#0b9985;}.t{fill:#0a589e;}.u{fill:#19bdd8;}</style></defs><g id="a"><g id="b"><g id="c"><polygon class="t" points="2042.717 1239.988 2041.3671 1234.5096 2046.056 1230.1503 2047.2424 1237.1363 2042.717 1239.988"/><polygon class="k" points="2042.717 1239.988 2041.3671 1234.5096 2043.764 1232.2812 2043.0226 1234.5319 2044.8886 1234.8605 2042.9354 1237.0141 2042.8947 1239.3282 2045.7196 1237.2391 2045.9496 1236.2182 2046.7094 1235.2584 2047.2424 1237.1363 2042.717 1239.988"/><polygon class="n" points="2046.3642 1234.1131 2045.7528 1234.2957 2045.3262 1235.4116 2044.7584 1234.1924 2043.7268 1234.0129 2043.9592 1232.5293 2046.056 1230.1503 2046.7895 1234.4696 2046.3642 1234.1131"/><polygon class="u" points="2046.5323 1233.333 2045.6683 1233.8159 2045.1836 1234.3225 2045.6544 1232.532 2046.0129 1230.7043 2046.0251 1232.541 2046.0961 1233.1106 2046.5323 1233.333"/></g><g id="d"><polygon class="t" points="2030.5867 1239.1087 2026.658 1236.0821 2027.9907 1230.9595 2032.5866 1235.0709 2030.5867 1239.1087"/><polygon class="k" points="2030.5867 1239.1087 2026.658 1236.0821 2027.3393 1233.4636 2027.9506 1235.3174 2029.5673 1234.6581 2029.19 1237.0178 2030.3768 1238.5839 2031.4626 1235.8569 2031.1029 1235.0661 2031.1855 1234.0666 2032.5866 1235.0709 2030.5867 1239.1087"/><polygon class="n" points="2030.3155 1233.4635 2029.9385 1233.8735 2030.196 1234.8204 2029.1148 1234.2728 2028.2222 1234.6387 2027.6209 1233.5374 2027.9907 1230.9595 2030.8323 1233.5016 2030.3155 1233.4635"/><polygon class="u" points="2030.0349 1232.8629 2029.6206 1233.5926 2029.5123 1234.1596 2028.9339 1232.7409 2028.249 1231.3502 2029.2254 1232.5723 2029.5803 1232.9196 2030.0349 1232.8629"/></g><g id="e"><polygon class="m" points="2035.1562 1232.9187 2031.2193 1231.8493 2032.218 1237.0397 2033.3482 1237.0184 2035.658 1239.3134 2035.5377 1236.1909 2035.6203 1233.4883 2035.1562 1232.9187"/><path class="h" d="M2034.937,1232.8591l-.0892,.422c-.0066,.0313-.0071,.0612-.0014,.087l.1657,1.1696-.32-.3921-.2059,.6835h0l-.481,.6716-.6666-1.2933-.1982,.3149-.3017,.0675-.5237-.2443,.1354,1.1029-.5961-.2984,.2731,1.453,2.1067,.153,.8861,1.1961,.3097-4.4007-.1359-.4637-.1378-.1691-.2191-.0595Z"/><polygon class="r" points="2034.3517 1233.3158 2034.232 1233.7942 2034.4725 1234.0565 2034.0377 1234.0304 2033.4707 1233.5842 2031.957 1232.8389 2031.3953 1232.0918 2032.5316 1232.621 2034.3592 1232.9079 2034.3517 1233.3158"/><polygon class="s" points="2035.1562 1232.9187 2035.3048 1233.7026 2035.2649 1234.7331 2035.0626 1234.911 2035.1303 1235.5727 2035.1233 1236.0954 2035.1233 1236.0954 2034.961 1237.0336 2034.9858 1237.0649 2034.961 1237.0336 2034.4781 1236.5209 2034.3758 1236.2395 2034.2939 1235.6812 2033.9561 1235.7662 2033.9561 1235.7662 2033.4161 1234.9092 2032.7362 1235.0576 2032.7464 1235.8028 2031.9353 1235.5704 2032.218 1237.0397 2033.3482 1237.0184 2035.658 1239.3134 2035.6203 1233.4883 2035.1562 1232.9187"/></g><g><polyline class="j" points="2036.5511 1236.0664 2041.7383 1238.7193 2040.2925 1233.6647 2035.9706 1231.3424 2034.9502 1231.3208"/><polyline class="l" points="2036.5511 1236.0664 2041.7383 1238.7193 2040.2925 1233.6647 2039.5524 1234.8482 2037.3356 1234.7016 2035.3192 1232.0802 2036.3105 1235.0296"/><polygon class="p" points="2035.2703 1231.6534 2036.6865 1232.6622 2037.8349 1234.2496 2039.3911 1234.5887 2039.9248 1233.7811 2035.9539 1231.4653 2035.1572 1231.4205 2035.2703 1231.6534"/><polyline class="g" points="2036.5511 1236.0664 2041.7383 1238.7193 2039.4844 1236.666 2038.7335 1235.2126 2037.7138 1236.0668 2036.5511 1236.0664"/><polygon class="g" points="2041.6205 1238.3259 2039.7775 1236.1092 2040.5177 1234.6879 2041.6205 1238.3259"/></g><g><polygon class="h" points="2040.4589 1234.3604 2041.1802 1233.1977 2041.2756 1234.6636 2040.9202 1235.5105 2041.0527 1236.6247 2041.3617 1236.7632 2041.3751 1237.0898 2041.1259 1237.336 2042.1548 1236.3198 2044.2328 1234.0795 2044.1457 1233.9836 2043.9207 1234.0074 2043.598 1234.36 2042.9507 1234.7244 2042.0759 1235.9222 2041.6613 1235.7053 2041.6592 1234.555 2041.4811 1232.6898 2040.7388 1233.3199 2040.0951 1234.3831 2039.066 1234.7652 2041.0507 1230.5782 2038.9036 1235.1077 2040.4589 1234.3604"/><path class="m" d="M2040.0951,1234.3831l.6436-1.0632,.7424-.63,.1781,1.8652,.0021,1.1503,.4147,.2169,.8748-1.1978,.6473-.3644,.3227-.3526,.225-.0237-3.095-3.4054-1.9847,4.187,1.0292-.3821Zm3.2026-.8715l-.3418,.8309-.437,.2623,.058-1.3327-1.453-2.1582-.0283-.2799,2.2021,2.6776Z"/><polygon class="s" points="2041.1259 1237.336 2041.3751 1237.0898 2041.3617 1236.7632 2041.0527 1236.6247 2040.9202 1235.5105 2041.2756 1234.6636 2041.1802 1233.1977 2040.4589 1234.3604 2038.9036 1235.1077 2040.3121 1236.2152 2041.2789 1238.9234 2041.3943 1239.2465 2044.5037 1234.3776 2044.2328 1234.0795 2042.1548 1236.3198 2041.1259 1237.336"/><polygon class="r" points="2042.5768 1233.2722 2042.5189 1234.6049 2042.9559 1234.3425 2043.2977 1233.5116 2041.0956 1230.834 2041.1238 1231.1139 2042.5768 1233.2722"/></g><g><rect class="i" x="2024.6035" y="1233.7986" width="23.6561" height="15.7584"/><rect class="o" x="2025.8551" y="1235.1795" width="10.8344" height="1.6911"/><rect class="o" x="2026.543" y="1243.7782" width="11.8089" height="1.6624"/><rect class="o" x="2037.0812" y="1239.1173" width="10.1847" height="1.6338"/><circle class="o" cx="2029.457" cy="1249.3674" r="2.5796"/><circle class="o" cx="2042.9522" cy="1249.3674" r="2.5796"/><circle class="q" cx="2042.9522" cy="1249.3674" r=".9172"/><circle class="q" cx="2029.457" cy="1249.3674" r=".9172"/></g></g></g><g id="f"/></svg>