<?xml version="1.0" encoding="UTF-8"?><svg xmlns="http://www.w3.org/2000/svg" viewBox="0 0 2097.6274 1901.5096"><defs><style>.g{fill:#350e68;}.h{fill:#11dbad;}.i{fill:#445668;}.j{fill:#7a16c1;}.k{fill:#123987;}.l{fill:#5b0d99;}.m{fill:#4dfed4;}.n{fill:#128fc6;}.o{fill:#354654;}.p{fill:#8f37db;}.q{fill:#1f2b33;}.r{fill:#80ffe1;}.s{fill:#0b9985;}.t{fill:#0a589e;}.u{fill:#19bdd8;}</style></defs><g id="a"><g id="b"><g><polygon class="h" points="1998.0151 1208.9223 1999.0321 1208.0071 1998.7147 1209.4413 1998.1371 1210.1555 1997.9535 1211.2624 1998.2117 1211.4816 1998.1334 1211.799 1997.8254 1211.9658 1999.0969 1211.2771 2001.7175 1209.7055 2001.6606 1209.5891 2001.4379 1209.5491 2001.0297 1209.7977 2000.3064 1209.9671 1999.1321 1210.8733 1998.7945 1210.5493 1999.1134 1209.4441 1999.4628 1207.6033 1998.5741 1208.0012 1997.6594 1208.8426 1996.5645 1208.9224 1999.6385 1205.4554 1996.313 1209.2061 1998.0151 1208.9223"/><path class="m" d="M1997.6594,1208.8426l.9147-.8414,.8887-.3979-.3494,1.8408-.3189,1.1052,.3377,.324,1.1742-.9062,.7233-.1694,.4082-.2486,.2227,.04-2.022-4.1337-3.074,3.467,1.0949-.0798Zm3.3185,.0567l-.56,.7026-.4929,.13,.4275-1.2636-.7932-2.4779,.051-.2767,1.3676,3.1856Z"/><polygon class="s" points="1997.8254 1211.9658 1998.1334 1211.799 1998.2117 1211.4816 1997.9535 1211.2624 1998.1371 1210.1555 1998.7147 1209.4413 1999.0321 1208.0071 1998.0151 1208.9223 1996.313 1209.2061 1997.3566 1210.6625 1997.5294 1213.5329 1997.5501 1213.8754 2001.8945 1210.0673 2001.7175 1209.7055 1999.0969 1211.2771 1997.8254 1211.9658"/><polygon class="r" points="2000.3525 1208.4682 1999.925 1209.7318 2000.4179 1209.6018 2000.9779 1208.8993 1999.6103 1205.7136 1999.5593 1205.9903 2000.3525 1208.4682"/></g><g id="c"><polygon class="t" points="2006.8647 1213.1782 2002.4278 1211.3472 2000.8541 1205.6552 2006.3303 1208.3832 2006.8647 1213.1782"/><polygon class="k" points="2006.8647 1213.1782 2002.4278 1211.3472 2001.6233 1208.4376 2003.0061 1210.1422 2003.8783 1208.9402 2004.7792 1211.4853 2006.4459 1212.7076 2005.888 1209.5552 2005.2246 1208.8601 2004.7856 1207.8072 2006.3303 1208.3832 2006.8647 1213.1782"/><polygon class="n" points="2003.8366 1207.4707 2003.7616 1208.0141 2004.4271 1208.9026 2003.3489 1208.6916 2002.8683 1209.3572 2001.8698 1208.4219 2000.8541 1205.6552 2004.24 1207.3419 2003.8366 1207.4707"/><polygon class="u" points="2003.3272 1206.9452 2003.3845 1207.829 2003.5878 1208.4463 2002.4474 1207.1776 2001.2418 1205.9724 2002.5798 1206.9099 2003.0176 1207.1511 2003.3272 1206.9452"/></g><g id="d"><polygon class="t" points="2012.7539 1212.7328 2013.47 1207.9867 2018.62 1205.0966 2017.2817 1211.0666 2012.7539 1212.7328"/><polygon class="k" points="2012.7539 1212.7328 2013.47 1207.9867 2016.1026 1206.5093 2014.7784 1208.2598 2016.1541 1208.8191 2013.8986 1210.3028 2013.1106 1212.2135 2016.0379 1210.9175 2016.554 1210.1071 2017.4713 1209.4289 2017.2817 1211.0666 2012.7539 1212.7328"/><polygon class="n" points="2017.5709 1208.427 2017.0254 1208.4841 2016.322 1209.343 2016.2688 1208.2456 2015.5076 1207.9382 2016.1767 1206.7449 2018.62 1205.0966 2017.7926 1208.7878 2017.5709 1208.427"/><polygon class="u" points="2017.9593 1207.8066 2017.1149 1208.0737 2016.5642 1208.4188 2017.5231 1207.0079 2018.4048 1205.549 2017.8148 1207.0724 2017.6853 1207.5552 2017.9593 1207.8066"/></g><g><polyline class="j" points="2005.7149 1211.9454 2013.8132 1218.0802 2014.6117 1209.9423 2007.9433 1204.6641 2005.9962 1204.2026"/><polyline class="l" points="2005.7149 1211.9454 2013.8132 1218.0802 2014.6117 1209.9423 2012.3501 1211.3938 2008.1901 1210.2426 2006.168 1205.489 2005.9864 1210.2998"/><polygon class="p" points="2006.3763 1204.8327 2008.3859 1206.9314 2009.4706 1209.7793 2012.2236 1210.9393 2013.822 1209.9609 2007.8243 1204.8401 2006.3236 1204.4382 2006.3763 1204.8327"/><polyline class="g" points="2005.7149 1211.9454 2013.8132 1218.0802 2010.9321 1214.073 2010.5169 1211.5921 2007.9509 1212.4353 2005.7149 1211.9454"/><polygon class="g" points="2013.8654 1217.4447 2011.8902 1213.367 2014.3203 1211.5613 2013.8654 1217.4447"/></g><g id="e"><polygon class="m" points="2012.9756 1208.5082 2010.3447 1205.8103 2009.4799 1210.1617 2010.3374 1210.6915 2011.3615 1213.5175 2012.2436 1211.1317 2013.1476 1209.1569 2012.9756 1208.5082"/><path class="h" d="M2012.8291,1208.358l-.1986,.2715c-.0147,.0201-.0244,.0422-.0281,.0641l-.2396,.9519-.1188-.4468-.3679,.4101h0l-.5713,.2684-.099-1.2859-.2473,.139-.2481-.0954-.3182-.4349-.2416,.8876-.3558-.5102-.247,1.215,1.5384,1.1312,.2945,1.3194,1.6039-3.131,.0421-.4113-.0511-.1926-.1464-.1502Z"/><polygon class="r" points="2012.2462 1208.4159 2012.0071 1208.7147 2012.1064 1209.0263 2011.7872 1208.7969 2011.4993 1208.1906 2010.5919 1206.9042 2010.4016 1206.0761 2011.0923 1207.0191 2012.3789 1208.1154 2012.2462 1208.4159"/><polygon class="s" points="2012.9756 1208.5082 2012.8433 1209.1644 2012.4922 1209.9132 2012.2845 1209.9482 2012.1294 1210.4741 2011.9613 1210.8604 2011.9613 1210.8604 2011.5469 1211.4815 2011.5558 1211.5168 2011.5469 1211.4815 2011.343 1210.8661 2011.3536 1210.607 2011.4659 1210.1512 2011.1851 1210.0515 2011.1851 1210.0515 2011.0455 1209.1519 2010.4874 1208.9343 2010.263 1209.4948 2009.7247 1208.93 2009.4799 1210.1617 2010.3374 1210.6915 2011.3615 1213.5175 2013.1476 1209.1569 2012.9756 1208.5082"/></g><rect class="i" x="1995.5072" y="1209.6172" width="23.6561" height="15.7584"/><rect class="o" x="1996.7588" y="1210.9981" width="10.8344" height="1.6911"/><rect class="o" x="1997.4467" y="1219.5968" width="11.8089" height="1.6624"/><rect class="o" x="2007.9849" y="1214.9359" width="10.1847" height="1.6338"/><circle class="o" cx="2000.3607" cy="1225.186" r="2.5796"/><circle class="o" cx="2013.8559" cy="1225.186" r="2.5796"/><circle class="q" cx="2013.8559" cy="1225.186" r=".9172"/><circle class="q" cx="2000.3607" cy="1225.186" r=".9172"/></g></g><g id="f"/></svg>