<?xml version="1.0" encoding="UTF-8"?><svg id="a" xmlns="http://www.w3.org/2000/svg" viewBox="0 0 720 720"><defs><style>.b{fill:#fff;}</style></defs><path class="b" d="M687.729,401.514c-9.027,12.775-25.661,17.324-41.075,19.943-15.594,2.649-31.339,4.248-47.073,5.848-3.929,.4-7.867,.8-11.796,1.19-5.998,.61-11.986,1.22-17.984,1.829-12.066,1.22-25.111,2.239-35.467-4.069-6.448,3.539-12.895,7.067-19.353,10.596-1.999,1.1-4.059,2.209-6.328,2.469-2.959,.34-5.868-.83-8.627-1.969-9.117-3.789-18.223-7.567-27.34-11.356-7.507,.12-14.915-1.509-22.242-3.129-5.718-1.26-11.446-2.519-17.164-3.789-15.274-3.369-30.549-6.748-45.824-10.116-4.428,130.033-11.296,311.038-15.265,311.038-6.198,0-39.816-3.809-39.816-3.809l12.565-319.075c-7.697-3.759-14.235-8.977-17.974-16.674-11.116,1.27-17.084-12.176-24.721-20.353-12.675-13.565-33.798-13.615-52.341-12.675-5.208,.26-10.426,.53-15.634,.79-8.747,.44-17.724,.85-26.021-1.929-8.297-2.789-15.864-9.557-16.934-18.243-5.538,7.517-17.404,5.968-25.521,1.349-8.107-4.618-15.295-11.596-24.511-13.115-4.998-.83-10.766-.15-14.505-3.579-3.749-3.449-3.979-9.936-8.347-12.545-4.408-2.639-10.566,.25-15.025-2.299-3.049-1.749-4.258-5.438-5.828-8.577-10.406-20.823-42.035-24.031-51.701-45.204-5.308-11.626-2.359-25.801-7.917-37.307-3.229-6.688-9.097-11.896-11.836-18.793-6.548-16.514,7.157-35.497,5.228-53.151,17.654-.48,35.997-1.13,51.691-9.247,11.146-5.768,20.203-14.975,31.279-20.892,13.395-7.177,28.92-9.137,43.205-14.335,8.407-3.049,16.414-7.237,25.021-9.697,8.437-2.399,17.254-3.089,25.851-4.878,27.01-5.608,50.422-21.692,74.353-35.427,22.452-12.885,45.943-23.951,70.185-33.038,11.026-4.139,22.562-7.927,34.318-7.207,21.902,1.339,39.586,17.624,55.21,33.018,30.859,30.409,61.708,61.258,86.019,97.115,15.994,23.592,29.15,49.332,48.423,70.335,10.816,11.786,23.582,22.132,31.439,36.067,8.667,15.384,12.096,35.767,27.76,43.924,4.618,2.409,10.656,4.238,11.826,9.317,1.759,7.727-9.687,16.464-4.039,22.022,3.259,3.209,8.977,.92,13.145,2.799,7.237,3.269,4.418,15.205,10.116,20.733,5.078,4.928,13.885,2.159,20.173,5.418,7.307,3.779,8.287,13.655,8.327,21.882,.05,13.425-.19,27.83-7.927,38.796Z"/></svg>