<?xml version="1.0" encoding="utf-8"?>
<!-- Generator: Adobe Illustrator 26.2.1, SVG Export Plug-In . SVG Version: 6.00 Build 0)  -->
<svg version="1.1" xmlns="http://www.w3.org/2000/svg" xmlns:xlink="http://www.w3.org/1999/xlink" x="0px" y="0px"
	 viewBox="0 0 1044.8 1000" style="enable-background:new 0 0 1044.8 1000;" xml:space="preserve">
<style type="text/css">
	.st0{fill:#0A589E;}
	.st1{fill:#5B0D99;}
	.st2{fill:#350E68;}
	.st3{fill:#7A16C1;}
	.st4{fill:#8F37DB;}
	.st5{fill:#123987;}
	.st6{fill:#128FC6;}
	.st7{fill:#1BB7E0;}
	.st8{fill:#11DBAD;}
	.st9{fill:#4DFED4;}
	.st10{fill:#0B9985;}
	.st11{fill:#80FFE1;}
	.st12{fill:#0A7F6C;}
</style>
<g id="a">
	<g>
		<polyline class="st0" points="552.4,122.6 556.2,110.6 562.6,120.6 		"/>
		<polyline class="st1" points="562.6,120.6 559.8,136 552.4,122.6 		"/>
		<polyline class="st2" points="552.4,122.6 556.2,110.6 562.6,120.6 		"/>
		<polyline class="st2" points="562.6,120.6 561.2,128.5 560.3,122.7 557.5,124.4 558.4,117.3 556.5,112.3 554.4,120.4 554.9,122.9 
			554.7,126 552.4,122.6 		"/>
		<polygon class="st3" points="556.1,128 556.8,126.8 556.4,123.8 558.2,125.7 559.8,124.7 560.7,128.2 559.8,136 555.2,127.7 		"/>
		<polygon class="st4" points="556.5,129.8 557.3,127.7 557.5,126 558.4,130.4 559.4,134.8 557.9,130.9 557.3,129.8 		"/>
	</g>
	<g>
		<polyline class="st0" points="509.9,199 507.1,211.3 499.8,201.9 		"/>
		<polyline class="st0" points="499.8,201.9 501.3,186.3 509.9,199 		"/>
		<polyline class="st5" points="509.9,199 507.1,211.3 499.8,201.9 		"/>
		<polyline class="st5" points="499.8,201.9 500.6,193.9 501.9,199.6 504.6,197.6 504.3,204.8 506.6,209.7 508,201.4 507.3,198.9 
			507.3,195.9 509.9,199 		"/>
		<polygon class="st6" points="505.7,194 505.1,195.2 505.7,198.2 503.8,196.4 502.3,197.5 501.1,194.1 501.3,186.3 506.6,194.1 		
			"/>
		<polygon class="st7" points="505.1,192.2 504.5,194.4 504.4,196.1 503.2,191.8 501.8,187.5 503.7,191.2 504.3,192.3 		"/>
	</g>
	<g>
		<polyline class="st8" points="531.6,323.2 535,341.8 546.9,326.4 544.9,320.5 546.4,307.5 531.6,323.2 		"/>
		<polyline class="st9" points="533.9,324.2 536,323.5 540,319.8 540.7,321.1 539.1,325.6 536.9,333.1 539.7,331.4 542.8,327.9 
			546,327.6 535,341.8 532,325.1 		"/>
		<polyline class="st10" points="531.6,323.2 546.4,307.5 546.2,308.9 544.9,320.5 544.4,315.3 540.3,318.1 531.9,324.6 		"/>
		<polygon class="st10" points="538.4,331.4 540.2,325.6 542.3,322.6 543.6,318.1 543,317.2 543.4,316 544.4,315.3 544.9,320.5 
			546.9,326.4 541.9,327.6 		"/>
		<polyline class="st11" points="533.5,327.9 535.5,325 537,324.4 534.9,329.6 535.6,339.6 535.2,340.8 533.5,327.9 		"/>
	</g>
	<polyline class="st0" points="580.7,234.3 586,218.6 595,231.7 	"/>
	<polyline class="st1" points="595,231.7 591.1,252 580.7,234.3 	"/>
	<polyline class="st2" points="580.7,234.3 586,218.6 595,231.7 	"/>
	<polyline class="st2" points="583.5,231.4 584.2,234.7 583.9,238.7 	"/>
	<polyline class="st2" points="595,231.7 593,242 591.8,234.5 587.8,236.7 589.1,227.3 586.5,220.7 583.5,231.4 	"/>
	<polygon class="st3" points="585.9,241.3 586.8,239.8 586.4,235.9 588.9,238.4 591.1,237.1 592.3,241.7 591.1,252 584.7,241.1 	"/>
	<polygon class="st4" points="586.5,243.8 587.6,241 587.9,238.7 589.1,244.6 590.5,250.3 588.4,245.2 587.6,243.7 	"/>
	<g>
		<polyline class="st0" points="671.6,185 661.9,168.7 656.2,187.3 660.1,192.1 663.2,204.9 671.6,185 		"/>
		<polyline class="st6" points="670.6,183.3 670,183.4 669.1,184.8 667.3,186.3 665,191.1 663.8,190.2 663.7,185.4 663.2,177.6 
			661.2,180.1 659.4,184.5 656.6,185.9 661.9,168.7 670.6,183.3 		"/>
		<polyline class="st5" points="671.6,185 663.2,204.9 662.9,203.5 660.1,192.1 662.4,196.9 665.2,192.8 670.8,183.7 		"/>
		<polygon class="st5" points="662.4,182.1 662.7,185.8 661.7,189.3 662.2,193.9 663,194.5 663.1,195.9 662.4,196.9 660.1,192.1 
			656.2,187.3 660.4,184.4 		"/>
		<polygon class="st7" points="668.2,181.3 667.3,184.7 666.1,185.7 666.2,180.2 662.1,171 662.1,169.8 		"/>
	</g>
	<g>
		<polyline class="st3" points="695.2,312.6 690.4,274.4 683.2,315.4 686.9,348 688.8,352 		"/>
		<polyline class="st1" points="695.2,312.6 690.4,274.4 683.2,315.4 686.9,309.9 690.9,319.2 689.6,345.2 693.6,320.8 		"/>
		<polygon class="st4" points="688.9,348.4 688.1,336 689.1,320.5 686.7,312.3 684.1,316 687.2,347.2 688.6,350.5 		"/>
		<polyline class="st2" points="695.2,312.6 690.4,274.4 690.7,297.3 689.3,310.4 692.9,308.2 695.2,312.6 		"/>
		<polygon class="st2" points="689.9,277.6 689,300.1 684.8,307.4 		"/>
	</g>
	<g>
		<polyline class="st1" points="355.8,161.3 360.2,139.9 374,155.5 		"/>
		<polyline class="st1" points="374,155.5 372.3,182.6 355.8,161.3 		"/>
		<polyline class="st2" points="374,155.5 373.1,169.4 370.3,159.6 365.5,163.3 363.9,154.6 361.2,154.4 359,157.1 359,163.7 
			355.8,161.3 360.2,139.9 374,155.5 		"/>
		<polygon class="st3" points="363.8,169.6 364.7,167.4 363.5,162.5 367.1,165.3 369.8,163.3 372.2,169 372.3,182.6 362.1,169.5 		
			"/>
		<polygon class="st4" points="364.9,172.8 365.9,168.9 365.9,165.9 368.5,173.3 371.3,180.6 367.6,174.2 366.3,172.4 		"/>
	</g>
	<g>
		<polyline class="st8" points="264,280.4 280.8,288.9 264.7,296.9 242.4,289.2 264,280.4 		"/>
		<polyline class="st10" points="264,280.4 280.8,288.9 264.7,296.9 253.3,293 262.1,292.8 260.1,288 270.5,290.9 278.3,289 
			266.8,284 263,284.3 258.5,283.3 264,280.4 		"/>
		<polygon class="st9" points="255.2,285.1 256.8,286.4 261.3,286.5 258.1,288.9 259.2,291.6 253.8,292.3 242.4,289.2 255.7,283.8 
					"/>
		<polygon class="st11" points="252.3,285.4 255.4,287.1 257.9,287.8 251.1,288.2 244.4,288.9 250.5,287.3 252.3,286.6 		"/>
	</g>
	<g id="ad">
		<polygon class="st0" points="194.7,521.1 213.3,515.6 196.8,501.5 191,504.4 177.7,503.2 		"/>
		<polygon class="st6" points="196.8,519.7 195.6,518.1 194.7,515.4 190.6,510.7 191.9,509.6 196.6,511.4 204.3,513.7 202.4,510.3 
			198.7,506.5 198,502.5 213.3,515.6 196.7,520.5 		"/>
		<polygon class="st5" points="177.7,503.2 179.1,503.3 191,504.4 185.7,505.3 188.9,510.3 196.2,520.7 194.7,521.1 		"/>
		<polygon class="st5" points="200.2,511 196.5,510 193.3,507.5 188.7,506.2 187.8,507 186.5,506.5 185.7,505.3 191,504.4 
			196.8,501.5 198.4,507.8 		"/>
		<polygon class="st7" points="199.4,518.5 196.3,516 195.6,514.2 201,516.5 211.1,515 212.3,515.4 		"/>
	</g>
	<g id="ag">
		<polygon class="st1" points="293.1,461 282.6,477.4 304.6,477.4 307.1,471.4 318,463.5 		"/>
		<polygon class="st3" points="292.5,463.4 294.4,463.9 296.9,465.3 303.2,466.3 302.9,467.9 298.2,469.6 290.7,472.9 294.5,474.3 
			299.8,474.8 303,477.4 282.6,477.4 292,462.7 		"/>
		<polygon class="st2" points="318,463.5 316.8,464.4 307.1,471.4 310.5,467.2 304.7,465.5 292.3,462.3 293.1,461 		"/>
		<polygon class="st2" points="295.7,472.3 299.2,470.7 303.2,470.5 307.7,468.5 307.8,467.3 309.1,466.8 310.5,467.2 307.1,471.4 
			304.6,477.4 299.2,473.7 		"/>
		<polygon class="st4" points="291.4,466 295.3,465.9 297.1,466.9 291.5,468.6 284.7,476.4 283.6,476.9 		"/>
	</g>
	<g id="ai">
		<polygon class="st9" points="456.1,432.5 452.8,458.9 463.2,479.1 466.5,481.5 468.8,456.2 		"/>
		<polygon class="st8" points="453.1,458.6 457.1,455.1 464.1,460.7 466.5,477.2 467.9,461.5 468.8,456.2 456.1,432.5 		"/>
		<polygon class="st11" points="466,479.3 463,471.5 461.7,461.7 457.2,456.6 454.2,459.2 463.5,478.6 466,480.6 		"/>
		<polygon class="st10" points="456.1,432.5 460.2,446.9 460.3,455.3 465,453.6 468.8,456.2 		"/>
		<polygon class="st10" points="455.9,434.6 458.4,448.8 453.7,453.7 		"/>
	</g>
	<g id="ao">
		<polygon class="st1" points="551.3,434.3 543.9,418.5 549.6,395.6 558,416.7 		"/>
		<polygon class="st2" points="551.3,434.3 543.9,418.5 546.8,406.8 547.2,415.6 551.3,413.3 549.2,424 551.1,431.8 555,419.8 
			554.6,415.9 555.3,411.4 558,416.7 		"/>
		<polygon class="st3" points="553.7,408.2 552.6,409.9 552.7,414.4 550.5,411.4 548.2,412.6 547.4,407.3 549.6,395.6 554.8,408.6 
					"/>
		<polygon class="st4" points="553.3,405.3 552,408.5 551.4,411 550.9,404.2 550,397.5 551.6,403.6 552.2,405.3 		"/>
	</g>
	<g id="ar">
		<polygon class="st0" points="460.9,423.5 461.7,405.2 480.3,392.8 477.6,416 		"/>
		<polygon class="st5" points="460.9,423.5 461.7,405.2 471.2,398.8 474.1,398.7 474.6,408.2 465.1,416.4 462.1,421.4 472.8,415.7 
			474.4,412.5 477.6,409.7 477.6,416 		"/>
		<polygon class="st6" points="477.6,405.8 475.5,406.2 475,408.2 475.4,404.3 474.9,398.3 474.6,397.7 480.3,392.8 478.6,407.1 		
			"/>
		<polygon class="st7" points="478.8,403.3 476.6,404.5 475.6,405.3 476.8,400.4 479.6,394.6 478,400.6 477.7,402.4 		"/>
	</g>
	<g id="aw">
		<polygon class="st0" points="654.3,461.8 653.9,492.6 631.2,509.4 630.9,474.8 		"/>
		<polygon class="st5" points="654.3,461.8 653.9,492.6 651.5,494.4 648.8,493.2 651,489 651,489 649.9,486.2 649.9,482.3 
			649.9,482.3 649,477.4 648.5,474.5 648.5,474.5 646.6,472.9 645.1,474.2 641.9,478.6 641.9,478.6 636.4,477.6 633.5,479.2 
			631,481.2 630.9,474.8 		"/>
		<polygon class="st6" points="630.9,486.2 635.1,482.6 637.6,484 640.9,483.2 645,481.6 644,484.7 645.5,486.2 642.3,492.6 
			647.4,495.2 643.3,500.5 631.2,509.4 		"/>
		<polygon class="st7" points="631.9,498.4 633.7,490.7 634.1,485.8 635.2,489.2 640.2,486.2 637.8,488.9 635.6,491.5 634.4,493.6 
			633.2,503.5 631.7,506.8 		"/>
	</g>
	<g id="b_x60_">
		<polygon class="st8" points="754.4,359.9 741.3,364.3 725.9,355.7 743.1,351.2 		"/>
		<polygon class="st10" points="754.4,359.9 741.3,364.3 733.4,359.9 739.9,360.8 739.2,356.8 746.5,360.3 752.5,359.7 744.7,354.3 
			741.8,354.2 738.7,352.8 743.1,351.2 		"/>
		<polygon class="st9" points="736,353.9 737,355.1 740.2,355.7 737.5,357.3 738,359.5 733.9,359.4 725.9,355.7 736.5,352.9 		"/>
		<polygon class="st11" points="733.8,353.7 735.8,355.4 737.5,356.3 732.4,355.8 727.4,355.6 732.1,355 733.6,354.7 		"/>
	</g>
	<g id="bb">
		<polygon class="st8" points="765.5,682.1 754.4,669.3 758.3,648.8 771.3,666.1 		"/>
		<polygon class="st10" points="765.5,682.1 754.4,669.3 756.4,658.9 758.1,666.4 762.7,664 761.6,673.4 764.9,679.9 768.1,669.1 
			767.1,665.8 767.3,661.8 771.3,666.1 		"/>
		<polygon class="st9" points="764.9,659.3 763.8,660.9 764.5,664.7 761.4,662.4 758.9,663.7 757.2,659.2 758.3,648.8 766.4,659.5 
					"/>
		<polygon class="st11" points="764.1,656.8 762.9,659.7 762.6,662 761,656.2 759,650.5 761.8,655.5 762.8,657 		"/>
	</g>
	<g id="bd">
		<polygon class="st9" points="426.6,618.4 446.9,623.3 463.5,613.1 465.5,609.6 446,605.8 		"/>
		<polygon class="st8" points="446.7,622.9 444.3,618.5 449.2,611.2 462.2,609.4 450,607.1 446,605.8 426.6,618.4 		"/>
		<polygon class="st11" points="463.8,610.1 457.5,613 449.7,613.8 445.5,618.4 447.2,621.8 463.1,612.8 464.8,610.2 		"/>
		<polygon class="st10" points="426.6,618.4 438.1,614.7 444.6,615 443.7,609.8 446,605.8 		"/>
		<polygon class="st10" points="428.2,618.7 439.5,616.8 442.9,622.1 		"/>
	</g>
	<g id="bj">
		<polygon class="st3" points="305.2,667.5 288.1,649.1 285.8,676.2 289.8,678.5 291.4,695.4 304.4,678.3 305.2,684.3 306.9,672.6 
					"/>
		<polygon class="st1" points="291.4,695.4 291.6,695.2 304.4,678.3 305.2,684.3 306.9,672.3 303,670 297.1,667 296.9,672.4 
			294.6,679 290.6,672.7 287.3,658.1 285.8,676.2 290,679.1 		"/>
		<path class="st2" d="M291.4,695.4l-1.5-16.5l-3.1-3.3l0.6-5.5l3.9,6.9l1.1,8.6l2-2.5c0.4-0.5,1.1-0.2,1.2,0.3l0.4,2.6l2.9-8.8
			l-0.4-7.7l4.2,1.5l3.8,3.8l-1.4,9.4l-0.8-5.7L291.4,695.4L291.4,695.4z"/>
		<polygon class="st4" points="298.6,661.4 288.7,650.6 288.8,655.6 296.7,660.7 296.4,665.3 		"/>
	</g>
</g>
<g id="Layer_2">
	<g>
		<polyline class="st3" points="582.8,121.9 570.1,98.3 566.9,124.6 577.2,144.9 580.5,147.2 		"/>
		<polyline class="st1" points="582.8,121.9 570.1,98.3 566.9,124.6 571.1,120.8 578.1,126.5 580.5,142.9 582,127.2 		"/>
		<polygon class="st4" points="580,145 577,137.2 575.8,127.4 571.2,122.4 568.2,124.9 577.5,144.4 580,146.3 		"/>
		<polyline class="st2" points="582.8,121.9 570.1,98.3 574.2,112.7 574.4,121 579,119.4 582.8,121.9 		"/>
		<polygon class="st2" points="569.9,100.3 572.4,114.6 567.7,119.4 		"/>
	</g>
	<g id="g">
		<polygon class="st1" points="522.1,206 513.8,196.5 513.3,179.3 523.3,192.4 		"/>
		<polygon class="st2" points="522.1,206 513.8,196.5 513.5,187.7 515.5,193.8 517.9,191.4 518.6,199.3 521.4,204.3 521.8,195.1 
			520.8,192.6 520.4,189.2 523.3,192.4 		"/>
		<polygon class="st3" points="518.6,187.3 518.1,188.7 519.1,191.8 517,190.2 515.6,191.5 514,187.9 513.3,179.3 519.5,187.4 		"/>
		<polygon class="st4" points="517.8,185.4 517.4,187.8 517.6,189.7 515.8,185.1 513.9,180.6 516.2,184.5 517,185.6 		"/>
	</g>
	<g id="i">
		<polygon class="st9" points="516.6,269.8 506.6,302.2 517.6,329.9 521.9,333.6 530.2,302.4 		"/>
		<polygon class="st8" points="507.1,301.9 513.5,298.4 522.5,307 522.7,328.2 527.9,308.9 530.2,302.4 516.6,269.8 		"/>
		<polygon class="st11" points="521.6,330.7 518.8,320.3 518.9,307.7 513.4,300.4 508.6,302.8 518.1,329.3 521.3,332.4 		"/>
		<polygon class="st10" points="516.6,269.8 519.6,288.8 518.2,299.3 525.2,298.3 530.2,302.4 		"/>
		<polygon class="st12" points="515.8,272.4 516.6,281.1 516.2,298.1 508.6,295.8 		"/>
	</g>
	<g id="k">
		<polygon class="st8" points="698,246 684.6,256.3 663.9,254.9 678.6,243.2 		"/>
		<polygon class="st10" points="698,246 684.6,256.3 682.3,256.1 681.3,254.9 684.4,254.2 684.4,254.2 684.9,252.9 686.6,251.6 
			686.8,250.5 688.2,249.7 689.1,248.5 689.1,248.5 688.7,247.4 687.2,247.4 684.2,246.7 684.2,246.7 680.6,245.8 678.2,245.5 
			675.9,245.4 678.6,243.2 		"/>
		<polygon class="st9" points="673.7,247.1 677.7,247.2 678.6,248.4 680.9,249.1 684,249.8 682.1,250.6 682.3,251.5 677.7,252.7 
			679.6,255.1 674.9,255.6 663.9,254.9 		"/>
		<polygon class="st11" points="669,251.5 673.4,249.4 675.8,247.9 675,249.4 679.2,249.9 676.6,250.1 674.2,250.3 672.5,250.6 
			667.6,253.6 665.3,254.2 		"/>
	</g>
	<g>
		<polyline class="st3" points="708.9,176.3 708.6,203.5 712.8,205.5 715.5,222.3 727.3,204.2 728.5,210.1 729.4,198.3 727.3,193.4 
			708.9,176.3 		"/>
		<polygon class="st1" points="715.5,222.3 715.7,222 727.3,204.2 728.5,210.1 729.4,198.3 725.3,196.1 719.2,193.5 719.4,198.8 
			717.5,205.7 713.1,199.7 708.8,185.3 708.6,203.5 713,206.1 		"/>
		<path class="st2" d="M715.5,222.3l-2.7-16.3l-3.3-3.1l0.2-5.5l4.4,6.6l1.7,8.5l1.8-2.6c0.3-0.5,1.1-0.3,1.2,0.2l0.5,2.5l2.3-8.9
			l-1-7.6l4.3,1.2l4.1,3.5l-0.7,9.5l-1.2-5.6L715.5,222.3L715.5,222.3z"/>
		<polygon class="st4" points="726.1,193.7 709.6,177.8 710.1,182.7 724.4,194.2 727.8,196.5 		"/>
	</g>
	<g id="p">
		<polygon class="st0" points="334.8,157.1 354.3,170 359,195.5 337,181.5 		"/>
		<polygon class="st5" points="334.8,157.1 354.3,170 354.8,172.8 353.3,174.5 351.2,170.9 351.2,170.9 349.2,170.7 346.7,169.1 
			346.7,169.1 343.4,167.8 341.4,167 341.4,167 339.9,168 340.3,169.7 342.3,174.1 342.3,174.1 340.2,178.2 340.4,181.2 341,184.1 
			337,181.5 		"/>
		<polygon class="st6" points="344.2,186.2 343.1,181.3 344.6,179.8 344.9,176.8 345,172.8 346.7,174.9 348,174.3 351.2,179.5 
			354.2,176.5 356.5,182 359,195.5 		"/>
		<polygon class="st7" points="352.2,190.5 347.8,185.8 344.8,183.4 347.2,183.9 346.6,178.6 347.7,181.7 348.8,184.6 349.8,186.4 
			355.8,191.5 357.5,194.1 		"/>
	</g>
	<g id="t">
		<polygon class="st8" points="260.8,302.2 248.1,316.3 267.6,316.2 271,311 282.3,304.3 		"/>
		<polygon class="st9" points="259.8,304.2 261.4,304.6 263.3,305.9 268.6,306.7 268.1,308.1 263.5,309.6 256.2,312.4 259.2,313.6 
			263.9,314 266.1,316.2 248.1,316.3 259.5,303.6 		"/>
		<polygon class="st10" points="282.3,304.3 281.1,305 271,311 274.9,307.4 270.2,306 259.8,303.3 260.8,302.2 		"/>
		<polygon class="st10" points="258.4,312.6 264.2,310.4 267.8,310.3 272.1,308.5 272.5,307.5 273.7,307.1 274.9,307.4 271,311 
			267.6,316.2 263.6,313 		"/>
		<polygon class="st11" points="258.2,306.5 261.8,306.4 263.1,307.2 257.8,308.7 250.2,315.4 249.1,315.8 		"/>
	</g>
	<g id="ab">
		<polygon class="st6" points="207.3,479 225.8,479.8 214.4,461 209.5,462 196.4,455.2 201.2,466.9 204.5,477.2 		"/>
		<path class="st0" d="M208.3,479.1l-0.2-1.7c0-0.1-0.1-0.2-0.1-0.3l-2.3-4.3l1.9,1.2l0-2.8l1.2-2.9l0,0l4.6,4.3l1.7-1.9l-0.1,0
			l2.6,0.5l-2.1-4.1l3,0.6l-3.2-5.3l-9.3,1.2l-5.5-3.8l4.6,16.9l1.2,1.6l0.8,0.5L208.3,479.1L208.3,479.1z"/>
		<polygon class="st7" points="210.2,476.8 210.1,474.9 208.7,474.1 210.6,473.9 213.7,475.1 221.2,476.7 224.7,479 219,478 
			210.8,478.4 		"/>
		<polygon class="st5" points="207.3,479 205.6,476.2 204.4,472.2 205,471.4 203.8,468.9 203.1,467 202.7,466.2 202.8,464.7 
			202.4,463.2 203.4,463.8 205.3,464.8 206.2,465.8 207.3,467.8 207.4,467 208.6,467.2 212.1,470 214.9,468.9 213.8,466.1 
			217.6,466.3 214.4,461 209.5,462 196.4,455.2 204.5,477.2 		"/>
	</g>
	<g id="ae">
		<polygon class="st3" points="417.9,401 394,408.7 417.5,422.3 421.2,419.6 437.3,425.5 427.4,406.3 433,408.2 423.2,401.7 		"/>
		<polygon class="st1" points="437.3,425.5 437.1,425.2 427.4,406.3 433,408.2 423.2,401.7 419.2,404.1 414,408.1 418.8,410.6 
			423.8,415.6 416.4,416.5 401.7,413.1 417.5,422.3 421.9,419.7 		"/>
		<path class="st2" d="M437.3,425.5l-15.5-5.7l-4.3,1.3l-4.7-2.9l7.9-0.6l8.2,2.7l-1.4-2.9c-0.3-0.5,0.2-1.1,0.8-0.9l2.5,0.8
			l-6.7-6.4l-7.1-2.9l3.2-3.1l5-1.9l7.9,5.2l-5.5-1.7L437.3,425.5L437.3,425.5z"/>
		<polygon class="st4" points="417.6,402.3 395.6,408.7 400.1,410.7 417.2,404 420.8,402.2 		"/>
	</g>
	<g id="ah">
		<polygon class="st1" points="323.6,496.4 309.9,517.6 278.8,520.7 298.2,495.1 		"/>
		<polygon class="st2" points="323.6,496.4 309.9,517.6 294,519.2 304.2,513.6 298.8,508.1 312.9,505.6 320.8,498.2 303.9,498.3 
			299.6,501.1 293.8,502.5 298.2,495.1 		"/>
		<polygon class="st3" points="291.1,507 293.9,507.9 299.1,505.2 297,510.6 300,513.6 294.2,517.9 278.8,520.7 290.8,504.9 		"/>
		<polygon class="st4" points="287.9,509.2 292.5,509.7 295.9,509.1 288.3,513.9 280.9,519 287,513 288.7,511 		"/>
	</g>
	<g id="al">
		<polygon class="st9" points="736.3,390.8 724.1,400.4 741.3,404.8 743.8,401.6 755.8,398.3 746.6,394.3 739,390.3 		"/>
		<path class="st8" d="M735.7,391.3l1,0.8c0.1,0.1,0.2,0.1,0.2,0.1l3.7,1.2l-1.9,0.4l1.5,1.5l0,0l0.8,2.3l-5.2,0.1l0.4,1l-0.5,0.9
			l-1.9,1.1l3.5,1.2l-2.2,1.3l4.8,1.3l5.3-5.7l5.5-0.8l-11.9-7l-1.6-0.3l-0.8,0.2L735.7,391.3L735.7,391.3z"/>
		<polygon class="st11" points="735.6,393.6 736.7,394.6 738,394.3 736.9,395.5 734.3,396.5 728.7,399.7 725.2,400.2 729.4,397.7 
			734.4,393 		"/>
		<polygon class="st10" points="736.3,390.8 738.9,391.5 741.8,393 741.8,393.8 743.9,394.6 745.3,395.3 745.3,395.3 747.6,397.1 
			747.8,397.1 747.6,397.1 745,397.7 744,397.6 742.2,397.1 741.7,398.1 741.7,398.1 738,398.5 736.8,400.6 739,401.6 736.4,403.5 
			741.3,404.8 743.8,401.6 755.8,398.3 739,390.3 		"/>
	</g>
	<g id="at">
		<polygon class="st8" points="506.2,433.7 499,417.4 506.9,400.4 515.3,418.5 		"/>
		<polygon class="st10" points="506.2,433.7 499,417.4 499.9,415.5 501.6,415.2 501.4,418.3 501.4,418.3 502.7,419.3 503.6,421.4 
			504.7,422 505.2,423.6 506.2,425 506.2,425 507.6,425.1 508,423.9 509.7,421.7 509.7,421.7 511.8,419 512.9,417.2 513.7,415.2 
			515.3,418.5 		"/>
		<polygon class="st9" points="512.5,412.6 511.2,415.9 509.6,416.1 508.1,417.7 506.3,420 506.1,418 505,417.7 505.1,413.2 
			501.8,413.7 502.7,409.4 506.9,400.4 		"/>
		<polygon class="st11" points="509.1,406.4 510,411.2 511,413.9 509.6,412.5 507.7,415.9 508.3,413.6 508.8,411.4 509,409.9 
			507.2,404.2 507.2,401.9 		"/>
	</g>
	<g id="au">
		<polygon class="st8" points="577.5,453.4 594.5,458.8 602.1,475.9 583,470.2 		"/>
		<polygon class="st10" points="577.5,453.4 594.5,458.8 595.4,460.7 594.5,462.1 592.3,460 592.3,460 590.7,460.3 588.5,459.6 
			587.3,460 585.7,459.3 584.1,459.2 584.1,459.2 583.1,460.1 583.7,461.3 584.3,464 584.3,464 584.9,467.3 585.6,469.4 
			586.5,471.3 583,470.2 		"/>
		<polygon class="st9" points="589.2,472.1 587.6,468.9 588.5,467.6 588.3,465.4 587.8,462.5 589.4,463.7 590.4,463 593.6,466.1 
			595.5,463.3 598.1,466.8 602.1,475.9 		"/>
		<polygon class="st11" points="596.1,473.6 592,471.1 589.3,470.1 591.2,469.9 589.9,466.3 591.3,468.3 592.6,470.1 593.6,471.2 
			599,473.6 600.7,475.1 		"/>
	</g>
	<g id="be">
		<polygon class="st8" points="435.5,640.4 449,632.3 466.6,639.8 448.7,648.8 		"/>
		<polygon class="st10" points="435.5,640.4 449,632.3 458,636.1 450.9,636.3 452.2,641.1 443.9,638.3 437.5,640.2 446.6,645.2 
			449.7,644.9 453.2,645.9 448.7,648.8 		"/>
		<polygon class="st9" points="456,644 454.8,642.7 451.2,642.6 453.9,640.2 453.2,637.5 457.5,636.8 466.6,639.8 455.5,645.3 		"/>
		<polygon class="st11" points="458.4,643.7 456,642.1 454,641.3 459.5,640.9 465,640.1 459.9,641.8 458.5,642.5 		"/>
	</g>
	<g>
		<polyline class="st3" points="259,664.7 258.6,694.4 276.1,670.8 276.8,645.6 274.9,641.6 		"/>
		<polyline class="st1" points="259,664.7 258.6,694.4 276.1,670.8 269.8,672.1 266,662.9 272.6,645.7 262.7,660.1 		"/>
		<polygon class="st4" points="274.2,644 272.9,653.1 268.8,663.3 270.6,670.6 274.9,669.8 276.3,646 274.9,642.7 		"/>
		<polyline class="st2" points="259,664.7 258.6,694.4 262.4,678.3 266.8,670.2 261.3,669.2 259,664.7 		"/>
		<polygon class="st2" points="260,692.6 265.2,677.5 272.4,675.3 		"/>
	</g>
	<g id="bl">
		<polygon class="st9" points="825.6,674 814.6,656.3 807.6,678.3 811.4,682.2 814.6,698.5 820.4,687 826.1,677.6 		"/>
		<path class="st8" d="M825,673l-1.1,1.2c-0.1,0.1-0.1,0.2-0.2,0.3l-1.8,4.8l-0.3-2.5l-2,1.7l0,0l-2.9,0.7l0.3-7l-1.3,0.4l-1.1-0.8
			l-1.3-2.7l-1.7,4.4l-1.4-3.2l-2,6.1l6.8,8l0.6,7.4l9.8-14.6l0.5-2.1l-0.1-1.1L825,673L825,673z"/>
		<polygon class="st11" points="822.2,672.5 820.8,673.8 821.1,675.6 819.7,674 818.7,670.4 815.1,662.4 814.7,657.8 817.4,663.6 
			823,671.1 		"/>
		<polygon class="st10" points="825.6,674 824.6,677.3 822.4,680.8 821.4,680.7 820.3,683.3 819.2,685.2 819.2,685.2 816.8,687.9 
			816.8,688.1 816.8,687.9 816.2,684.4 816.4,683.1 817.3,680.8 816,679.9 816,679.9 815.9,674.9 813.3,673.1 811.8,675.8 
			809.6,672.1 807.6,678.3 811.4,682.2 814.6,698.5 826.1,677.6 		"/>
	</g>
</g>
<g id="Layer_3">
	<g>
		<polyline class="st0" points="604.6,124.6 615.5,110 619.8,126.6 		"/>
		<polyline class="st0" points="604.6,124.6 608.8,146.4 619.8,126.6 		"/>
		<polygon class="st6" points="607.3,133.6 607.5,130.4 610.1,125.3 612.9,129 614,131 613.6,136.1 608.8,146.4 606.2,132.9 		"/>
		<polygon class="st7" points="607.1,136.4 609.1,133.8 610.3,131.6 609.4,138.1 608.8,144.5 608.5,138.4 608.2,136.6 		"/>
		<polygon class="st5" points="606.2,128.3 609.2,123.3 613.4,119.1 612.7,125.9 615.1,128.5 615.1,133.2 617.4,130.9 619.8,126.6 
			615.5,110 604.8,124.3 		"/>
	</g>
	<g id="f">
		<polygon class="st8" points="470.1,214.3 465.1,203.5 470,188.6 475.5,202.9 		"/>
		<polygon class="st10" points="470.1,214.3 465.1,203.5 467.6,195.9 467.7,201.7 470.7,200.4 468.8,207.4 470,212.6 473.3,204.8 
			473.1,202.3 473.7,199.3 475.5,202.9 		"/>
		<polygon class="st9" points="472.6,197.1 471.8,198.2 471.7,201.2 470.2,199.1 468.5,199.8 468.1,196.2 470,188.6 473.4,197.5 		
			"/>
		<polygon class="st11" points="472.5,195.2 471.4,197.2 470.9,198.9 470.7,194.4 470.3,189.9 471.3,194 471.7,195.2 		"/>
	</g>
	<g id="j">
		<polygon class="st6" points="701,268.3 677.6,258.3 655.7,266.7 652.6,270.3 675.3,278.8 		"/>
		<polygon class="st0" points="677.6,258.3 679.8,264.4 672.5,271.9 656.5,271.2 670.6,276.5 675.3,278.8 701,268.3 		"/>
		<polygon class="st7" points="654.8,270.1 662.9,268.1 672.3,268.8 678.3,264.2 676.9,259.9 656.2,267.1 653.6,269.8 		"/>
		<polygon class="st5" points="701,268.3 686.4,270.1 678.7,268.4 678.8,274.6 675.3,278.8 		"/>
		<polygon class="st5" points="699.1,267.5 685.2,267.4 682.1,260.5 		"/>
	</g>
	<g id="m">
		<polygon class="st8" points="751.3,238.5 764.9,259.8 773.3,234.4 767.8,228.2 763.5,211.2 		"/>
		<polygon class="st9" points="753.6,240.5 754.8,238.6 757.4,236.5 760.8,229.8 762.5,231 762.5,237.5 763.2,247.9 766.1,244.4 
			768.6,238.4 772.7,236.3 764.9,259.8 752.7,240.7 		"/>
		<polygon class="st10" points="763.5,211.2 764,213 767.8,228.2 764.6,221.9 760.5,227.6 752.3,240.1 751.3,238.5 		"/>
		<polygon class="st10" points="764.4,245.1 764,236.9 765.4,232.1 764.9,225.9 763.6,225.1 763.6,223.3 764.6,221.9 767.8,228.2 
			773.3,234.4 767.2,238.6 		"/>
		<polygon class="st11" points="756,243.3 757.4,238.7 759.1,237.2 758.9,244.7 764.6,256.8 764.7,258.3 		"/>
	</g>
	<g id="o">
		<polygon class="st0" points="392.1,167.8 405.8,186.8 410.9,163.3 405.5,157.8 400.3,142.4 		"/>
		<polygon class="st6" points="394.3,169.6 395.2,167.8 397.3,165.8 399.7,159.5 401.2,160.6 401.7,166.5 403.3,176 405.5,172.7 
			407.2,167.2 410.5,165.1 405.8,186.8 393.6,169.8 		"/>
		<polygon class="st5" points="400.3,142.4 400.9,144.1 405.5,157.8 402.2,152.2 399.2,157.5 393.2,169.3 392.1,167.8 		"/>
		<polygon class="st5" points="403.8,170.4 403,165.9 403.8,161.5 402.8,155.8 401.7,155.1 401.5,153.5 402.2,152.2 405.5,157.8 
			410.9,163.3 405.9,167.3 		"/>
		<polygon class="st7" points="396.7,172.1 397.4,167.8 398.8,166.4 399.3,173.2 405.3,184.1 405.5,185.5 		"/>
	</g>
	<g id="s">
		<polygon class="st1" points="288.1,368.7 271.9,375.2 249.3,368.1 270.9,361 		"/>
		<polygon class="st2" points="288.1,368.7 271.9,375.2 260.4,371.6 269.2,371.7 267.2,367.5 277.7,370.2 285.6,368.8 273.8,364.1 
			270,364.3 265.5,363.3 270.9,361 		"/>
		<polygon class="st3" points="262.2,364.8 263.8,366 268.3,366.2 265.2,368.2 266.3,370.5 260.9,371 249.3,368.1 262.7,363.7 		"/>
		<polygon class="st4" points="259.3,365 262.3,366.5 264.9,367.2 258,367.4 251.3,367.8 257.4,366.6 259.2,366.1 		"/>
	</g>
	<g id="v">
		<polygon class="st9" points="174,270.3 185.8,310.1 195,263 191.7,257.4 194.6,226.6 177.6,251.4 178.4,240.5 173.7,260.5 		"/>
		<polygon class="st8" points="194.6,226.6 194.4,226.9 177.6,251.4 178.4,240.5 173.7,260.5 176.8,266.7 181.7,274.6 183.3,265.1 
			187.3,254.3 189.5,267.2 188.8,294.6 195,263 191.7,256.1 		"/>
		<path class="st10" d="M194.6,226.6l-2.8,29.8l2.1,7.2l-2,9.4l-2-13.8l1.1-15.7l-2.6,3.5c-0.5,0.6-1.1,0-1.1-1.1l0.3-4.7l-5.1,14.2
			l-1.6,13.8l-3.6-4.5l-2.7-8.3l3.8-16l-0.7,10.4L194.6,226.6L194.6,226.6z"/>
		<polygon class="st11" points="175.3,270.3 185.6,307.2 186.7,298.4 177,270.4 174.6,264.5 		"/>
	</g>
	<g id="y">
		<polygon class="st0" points="246.8,447.7 252.1,459.6 245.3,474.5 239.5,458.9 		"/>
		<polygon class="st5" points="246.8,447.7 252.1,459.6 248.6,467.2 248.9,461.1 245.2,462.1 247.8,455 246.7,449.4 242.3,457.2 
			242.4,459.8 241.4,462.9 239.5,458.9 		"/>
		<polygon class="st6" points="242.7,465.3 243.8,464.3 244,461.2 245.7,463.6 247.8,463 248.1,466.8 245.3,474.5 241.7,464.8 		"/>
		<polygon class="st7" points="242.8,467.3 244.2,465.3 244.9,463.7 244.9,468.4 245.1,473.2 244.1,468.8 243.7,467.5 		"/>
	</g>
	<g>
		<polyline class="st9" points="907,523.3 886.2,560.4 887.4,596.1 890.3,601.5 909.1,565.4 907,523.3 		"/>
		<polyline class="st8" points="907,523.3 886.8,560.2 894.2,557.2 900,569.4 892.9,595.1 904.6,572.7 909.1,565.4 907,523.3 		"/>
		<polygon class="st11" points="891,597.9 891.8,584.7 896.3,569.5 893.4,559.6 887.9,561.6 888,595.5 890.2,599.8 		"/>
		<polyline class="st10" points="907,523.3 903.4,546.9 898.4,559.3 905.7,559.5 909.1,565.4 907,523.3 		"/>
		<polygon class="st10" points="905.4,526.2 899.8,548.7 890.6,553.3 		"/>
	</g>
	<g id="am">
		<polygon class="st8" points="737.2,370.7 720.5,379.6 738.8,386.2 743.8,382.5 756.7,379.9 		"/>
		<polygon class="st9" points="735.6,372.2 736.9,373.1 738.3,375 743,377.6 742,378.7 737.2,378.5 729.4,378.7 731.9,380.8 
			736.1,382.8 737.5,385.7 720.5,379.6 735.5,371.6 		"/>
		<polygon class="st10" points="756.7,379.9 755.3,380.2 743.8,382.5 748.7,380.4 744.7,377.4 735.9,371.4 737.2,370.7 		"/>
		<polygon class="st10" points="731.5,379.6 737.6,379.6 741,380.7 745.7,380.5 746.4,379.7 747.7,379.7 748.7,380.4 743.8,382.5 
			738.8,386.2 736.1,381.8 		"/>
		<polygon class="st11" points="733.3,373.8 736.7,374.9 737.7,376.1 732.1,375.8 722.8,379.4 721.6,379.5 		"/>
	</g>
	<g id="aq">
		<polygon class="st9" points="546.9,415.4 529.3,384.6 515.8,420.2 520.7,424.6 516.5,448 541.7,429.7 540.5,438 547.3,422.9 		"/>
		<polygon class="st8" points="516.5,448 516.8,447.8 541.7,429.7 540.5,438 547.3,422.9 542.8,418 535.4,411.8 533.2,419 
			527.3,427.1 523.9,417.2 524.8,396.3 515.8,420.2 520.7,425.6 		"/>
		<path class="st10" d="M516.5,448l4.1-22.7l-3.1-5.6l2.9-7.1l3,10.6l-1.6,12l3.8-2.6c0.7-0.5,1.7,0.1,1.6,0.9l-0.4,3.6l7.5-10.7
			l2.3-10.5l5.4,3.6l4.1,6.4l-5.5,12.1l1-8L516.5,448L516.5,448z"/>
		<polygon class="st11" points="545,415.3 529.6,386.8 527.9,393.5 542.4,415.2 546,419.8 		"/>
	</g>
	<g>
		<polyline class="st9" points="618.5,434.3 604.4,458.4 609.7,483.1 612.9,487 625.3,463.5 618.5,434.3 		"/>
		<polyline class="st8" points="618.5,434.3 604.9,458.3 611.2,456.8 617.7,465.6 614.5,482.8 622.2,468.2 625.3,463.5 618.5,434.3 
					"/>
		<polygon class="st11" points="613.1,484.6 612.3,475.6 614.5,465.4 610.7,458.4 606,459.4 610.2,482.8 612.6,485.9 		"/>
		<polyline class="st10" points="618.5,434.3 618.1,450.3 615.1,458.5 621.6,459.2 625.3,463.5 618.5,434.3 		"/>
		<polygon class="st10" points="617.4,436.2 615.1,451.3 607.5,453.8 		"/>
		<polyline class="st9" points="610.5,385.3 631.3,358.7 631.2,329 628.6,324 609.7,350.2 610.5,385.3 		"/>
		<polyline class="st8" points="610.5,385.3 630.7,358.7 623.6,359.8 618.4,348.6 625.9,328.7 614.1,345 609.7,350.2 610.5,385.3 		
			"/>
		<polygon class="st11" points="627.8,326.8 626.7,337.5 622,349.2 624.4,358 629.8,357.4 630.6,329.4 628.7,325.4 		"/>
		<polyline class="st10" points="610.5,385.3 614.5,366.5 619.6,357.3 612.8,355.7 609.7,350.2 610.5,385.3 		"/>
		<polygon class="st10" points="612.1,383.2 618,365.8 626.9,363.8 		"/>
	</g>
	<g id="bf">
		<polygon class="st0" points="703.5,676.6 702.2,659.3 718.1,645.1 718.2,667.2 		"/>
		<polygon class="st5" points="703.5,676.6 702.2,659.3 710.4,652 707.1,659.2 712.4,660.1 705.6,667.1 704.3,674.4 713.7,667.6 
			714.8,664.4 717.5,661.3 718.2,667.2 		"/>
		<polygon class="st6" points="717.1,657.7 715.2,658.3 713.4,661.9 712.3,658 709.4,657.5 710.8,652.8 718.1,645.1 718.2,658.8 		
			"/>
		<polygon class="st7" points="718,655.2 715.2,656.8 713.5,658.4 715.8,652.7 717.7,646.9 716.9,652.7 716.8,654.5 		"/>
	</g>
	<g id="bk">
		<polygon class="st6" points="376.9,654.5 358.1,637.8 358.4,665 362.5,666.9 365.6,683.6 377.1,665.4 378.4,671.2 379,659.4 		"/>
		<polygon class="st0" points="365.6,683.6 365.8,683.4 377.1,665.4 378.4,671.2 379,659.4 374.9,657.2 368.7,654.8 369.1,660.1 
			367.3,667 362.8,661.1 358.2,646.8 358.4,665 362.8,667.5 		"/>
		<path class="st5" d="M365.6,683.6l-3-16.3l-3.3-3.1l0.1-5.5l4.5,6.5l1.9,8.4l1.8-2.6c0.3-0.5,1.1-0.3,1.2,0.2l0.6,2.5l2.1-9
			l-1.1-7.6l4.3,1.1l4.2,3.4l-0.5,9.5l-1.3-5.6L365.6,683.6L365.6,683.6z"/>
		<polygon class="st7" points="375.6,654.9 358.9,639.3 359.5,644.2 374,655.4 377.4,657.7 		"/>
	</g>
</g>
<g id="Layer_4">
	<g id="c">
		<polygon class="st9" points="627.6,106.8 624.3,133.1 634.7,153.4 638,155.8 640.3,130.5 		"/>
		<polygon class="st8" points="624.7,132.9 628.6,129.4 635.6,135 638,151.5 639.5,135.8 640.3,130.5 627.6,106.8 		"/>
		<polygon class="st11" points="637.5,153.5 634.5,145.8 633.3,135.9 628.7,130.9 625.7,133.4 635,152.9 637.5,154.9 		"/>
		<polygon class="st10" points="627.6,106.8 631.7,121.2 631.9,129.5 636.5,127.9 640.3,130.5 		"/>
		<polygon class="st10" points="627.4,108.8 629.9,123.1 625,128 		"/>
	</g>
	<g>
		<polyline class="st0" points="497.2,203.6 490.4,214.2 486.7,202.9 		"/>
		<polyline class="st1" points="486.7,202.9 493.3,188.7 497.2,203.6 		"/>
		<polyline class="st2" points="497.2,203.6 490.4,214.2 486.7,202.9 		"/>
		<polyline class="st2" points="486.7,202.9 490.1,195.6 489.5,201.5 492.7,200.5 490,207.2 490.6,212.5 494.7,205.2 494.8,202.6 
			495.8,199.8 497.2,203.6 		"/>
		<polygon class="st3" points="494.9,197.5 494,198.4 493.5,201.4 492.3,199.1 490.5,199.6 490.5,196 493.3,188.7 495.7,197.9 		"/>
		<polygon class="st4" points="495,195.5 493.7,197.4 493,199 493.3,194.5 493.4,190 493.9,194.2 494.2,195.4 		"/>
	</g>
	<g>
		<polyline class="st3" points="630.8,231 611,239.6 613.2,234 606.1,243.4 605,248.7 611.1,273 626.2,250.4 		"/>
		<polyline class="st3" points="626.2,250.4 623.9,246.6 630.8,231 		"/>
		<polyline class="st1" points="626.2,250.4 624,245.9 630.8,231 		"/>
		<polyline class="st1" points="630.5,231.1 611,239.6 613.2,234 606.1,243.4 608.2,247.5 611.9,253 614.7,248.4 620,243.7 
			620.4,251.2 616.1,265.6 626.2,250.4 		"/>
		<path class="st2" d="M625.1,250.5l-3.2,4.5l-0.1-7.9l3.2-8l-3,1.2c-0.5,0.2-1.1-0.3-0.9-0.9l0.9-2.4l-6.8,6.2l-3.4,6.9l-2.9-3.4
			l-1.5-5.1l5.8-7.5l-2.1,5.4l19.6-8.4"/>
		<polyline class="st2" points="630.8,231 624.1,246.1 625.1,250.5 		"/>
		<polygon class="st4" points="606.3,249.1 611.3,271.4 613.5,267 608,249.5 606.4,245.8 		"/>
	</g>
	<g id="l">
		<polygon class="st0" points="681,208.2 679.3,192.8 690.3,179.7 692.5,196.8 		"/>
		<polygon class="st5" points="681,208.2 679.3,192.8 680.5,191.4 682,191.5 681.1,194 681.1,194 681.8,195.2 682.1,197.1 
			682.1,197.1 682.8,199.4 683.2,200.7 683.2,200.7 684.4,201 685.1,200.1 686.5,197.3 686.5,197.3 689.5,196.6 690.9,195.2 
			692.1,193.7 692.5,196.8 		"/>
		<polygon class="st6" points="691.8,191.2 689.8,193.8 688.4,193.7 686.8,194.8 684.7,196.4 685,194.7 684.1,194.2 685.5,190.4 
			682.6,190.2 684.5,186.7 690.3,179.7 		"/>
		<polygon class="st7" points="690.6,185.3 690.1,189.5 690.2,192 689.4,190.6 686.9,193.1 688,191.3 689,189.5 689.6,188.2 
			689.6,183 690.2,181.1 		"/>
	</g>
	<g id="n">
		<polygon class="st8" points="467.1,138.8 471.2,149.9 465.2,164.4 460.8,149.7 		"/>
		<polygon class="st10" points="467.1,138.8 471.2,149.9 468.1,157.3 468.5,151.5 465.4,152.5 467.8,145.7 467,140.5 463.2,147.9 
			463.2,150.5 462.3,153.4 460.8,149.7 		"/>
		<polygon class="st9" points="463.3,155.7 464.2,154.7 464.5,151.7 465.9,153.9 467.6,153.3 467.7,156.9 465.2,164.4 462.5,155.3 
					"/>
		<polygon class="st11" points="463.3,157.6 464.5,155.7 465.1,154 465,158.6 465.1,163.1 464.4,158.9 464.1,157.7 		"/>
	</g>
	<g id="q">
		<polygon class="st3" points="311.5,383.6 340.4,374.5 308.8,362.2 304.6,365.1 283.6,360.1 298.8,378.7 291.4,377.2 304.7,383.2 
					"/>
		<polygon class="st1" points="283.6,360.1 283.8,360.3 298.8,378.7 291.4,377.2 304.7,383.2 309.4,380.6 315.4,376.2 309,374 
			302,369.3 311.1,367.9 330,370.5 308.8,362.2 303.7,365 		"/>
		<path class="st2" d="M283.6,360.1l20.3,4.8l5.3-1.6l6.3,2.6l-9.8,1.1l-10.7-2.2l2.1,2.8c0.4,0.5-0.2,1.1-0.9,1L293,368l9.3,6.1
			l9.4,2.5l-3.5,3.3l-6.1,2.1l-10.7-4.8l7.2,1.4L283.6,360.1L283.6,360.1z"/>
		<polygon class="st4" points="311.7,382.3 338.4,374.6 332.4,372.8 311.9,380.6 307.6,382.6 		"/>
	</g>
	<g id="u">
		<polygon class="st9" points="262.7,257 250.9,274.2 273.9,271.8 275.9,266.7 289.6,257.3 276.7,256.6 265.9,255.1 		"/>
		<path class="st8" d="M262,257.9l1.5,0.6c0.1,0,0.2,0.1,0.4,0l5.1-0.3l-2.2,1.3l2.4,1.2l0,0l1.8,2.4l-6.5,2.5l0.9,1l-0.3,1.4
			l-2,2.2l4.7-0.2l-2.3,2.5l6.4-0.6l4.6-9.4l6.5-3.5l-17.3-3.2l-2.1,0.4l-0.9,0.5L262,257.9L262,257.9z"/>
		<polygon class="st11" points="262.8,260.7 264.5,261.5 266,260.5 265.1,262.4 262.2,264.8 256.3,271.3 252.2,273.5 256.5,268.6 
			261.1,260.5 		"/>
		<polygon class="st10" points="262.7,257 266.2,256.6 270.3,257.2 270.6,258.2 273.4,258.2 275.5,258.4 275.5,258.4 279,259.5 
			279.2,259.4 279,259.5 276,261.5 274.7,261.8 272.3,262 272,263.5 272,263.5 267.5,265.6 266.8,268.7 269.8,268.9 267.4,272.5 
			273.9,271.8 275.9,266.7 289.6,257.3 265.9,255.1 		"/>
	</g>
	<g id="w">
		<polygon class="st8" points="184.9,408.1 177,381.1 192.5,353.9 201.9,383.9 		"/>
		<polygon class="st10" points="184.9,408.1 177,381.1 178.7,378.1 181.3,377.7 180.5,382.7 180.5,382.7 182.3,384.4 183.3,387.8 
			184.9,389 185.4,391.6 186.6,393.9 186.6,393.9 188.7,394.2 189.6,392.2 192.7,388.7 192.7,388.7 196.4,384.5 198.5,381.5 
			200.2,378.4 201.9,383.9 		"/>
		<polygon class="st9" points="198.9,374.1 196.1,379.4 193.6,379.6 190.9,382.1 187.7,385.8 187.8,382.5 186.1,382 187.2,374.7 
			182.1,375.2 184.2,368.4 192.5,353.9 		"/>
		<polygon class="st11" points="194.8,363.9 195.2,371.6 196.2,376.1 194.3,373.8 190.8,379.1 192.1,375.4 193.4,372 193.9,369.4 
			192.3,360.2 192.8,356.5 		"/>
	</g>
	<g id="af">
		<polygon class="st0" points="268.1,457.4 274.4,482.4 293,460.9 289.4,453.1 291.4,435.3 		"/>
		<polygon class="st6" points="269.7,460.1 271.8,458.7 275.3,457.6 281.5,452.3 282.7,454 280.3,460.2 277.1,470.5 281.5,468.1 
			286.5,463.2 291.6,462.5 274.4,482.4 268.7,460 		"/>
		<polygon class="st5" points="291.4,435.3 291.2,437.2 289.4,453.1 288.4,446 282,450 268.6,459.3 268.1,457.4 		"/>
		<polygon class="st5" points="280.7,465 282.1,460.1 285.4,456 287.2,449.9 286.2,448.7 286.9,446.9 288.4,446 289.4,453.1 
			293,460.9 284.9,462.8 		"/>
		<polygon class="st7" points="271.3,463.6 274.5,459.6 276.8,458.8 273.8,465.9 275.2,479.4 274.8,481 		"/>
	</g>
	<polyline class="st9" points="824.2,527.7 826.2,564.6 845.9,589.5 851.2,591.9 848.1,556.8 824.2,527.7 	"/>
	<polyline class="st8" points="824.2,527.7 826.6,564.1 831.3,558.3 842.6,564.1 850.1,586.1 848.2,564.2 848.1,556.8 824.2,527.7 	
		"/>
	<polyline class="st10" points="824.2,527.7 833.6,546.3 835.9,557.7 842.1,554.2 848.1,556.8 824.2,527.7 	"/>
	<polygon class="st10" points="824.4,530.6 831.5,549.4 826.1,557.2 	"/>
	<g>
		<polyline class="st0" points="569.1,414.2 558.5,425.4 554.8,410.8 		"/>
		<polyline class="st1" points="554.8,410.8 565.6,395.2 569.1,414.2 		"/>
		<polyline class="st2" points="569.1,414.2 558.5,425.4 554.8,410.8 		"/>
		<polyline class="st2" points="554.8,410.8 560.4,402.8 558.8,409.7 563.3,409.3 558.8,416.8 558.9,423.4 565.5,415.5 565.9,412.4 
			567.7,409.2 569.1,414.2 		"/>
		<polygon class="st3" points="566.7,406.2 565.3,407.1 564.4,410.6 562.9,407.5 560.4,407.7 560.8,403.4 565.6,395.2 567.8,406.9 
					"/>
		<polygon class="st4" points="567.1,403.9 565,405.8 563.9,407.6 564.9,402.2 565.6,396.8 565.8,402 566,403.5 		"/>
	</g>
	<g id="ap">
		<polygon class="st8" points="495.5,417.8 493,399.1 480.4,413.9 482.2,419.9 480,432.8 		"/>
		<polygon class="st9" points="494.7,415.7 493.3,416.7 491.1,417.3 487,420.9 486.3,419.5 488.2,415.1 490.7,407.7 487.8,409.2 
			484.5,412.6 481.4,412.8 493,399.1 495.2,415.9 		"/>
		<polygon class="st10" points="480,432.8 480.2,431.4 482.2,419.9 482.4,425.2 486.6,422.5 495.3,416.4 495.5,417.8 		"/>
		<polygon class="st10" points="489.1,409.3 487,415.1 484.8,417.9 483.3,422.3 483.9,423.2 483.4,424.5 482.4,425.2 482.2,419.9 
			480.4,413.9 485.5,412.9 		"/>
		<polygon class="st11" points="493.9,413.1 491.7,415.8 490.2,416.3 492.5,411.3 492.3,401.2 492.7,400.1 		"/>
	</g>
	<g id="ay">
		<polygon class="st0" points="668.4,429.3 663.7,415.5 672.6,399.3 677.5,417.3 		"/>
		<polygon class="st5" points="668.4,429.3 663.7,415.5 668.2,407.2 667.3,414.1 671.6,413.3 667.9,421 668.6,427.3 674.2,419 
			674.3,416 675.7,412.7 677.5,417.3 		"/>
		<polygon class="st6" points="674.6,409.9 673.3,410.9 672.7,414.4 671.1,411.6 668.7,412 668.7,407.7 672.6,399.3 675.6,410.5 		
			"/>
		<polygon class="st7" points="674.7,407.6 672.9,409.7 672,411.5 672.5,406.2 672.7,400.9 673.3,405.9 673.7,407.4 		"/>
	</g>
	<g>
		<polyline class="st3" points="765.3,335.9 780.4,361.5 783.1,332.3 770.7,310.4 766.9,307.9 		"/>
		<polyline class="st1" points="765.3,335.9 780.4,361.5 783.1,332.3 778.5,336.6 770.4,330.7 767.1,312.6 766.1,330 		"/>
		<polygon class="st4" points="767.6,310.3 771.3,318.8 773,329.6 778.3,334.9 781.6,332 770.4,311 767.5,308.9 		"/>
		<polyline class="st2" points="765.3,335.9 780.4,361.5 775.3,345.8 774.8,336.6 769.7,338.6 765.3,335.9 		"/>
		<polygon class="st2" points="780.6,359.2 777.3,343.6 782.3,338.1 		"/>
	</g>
	<g id="bc">
		<polygon class="st1" points="420.5,587.7 436.3,577.4 458.7,584.6 437.6,596.3 		"/>
		<polygon class="st2" points="420.5,587.7 436.3,577.4 447.8,581.1 439.1,581.8 441.1,587.2 430.7,584.6 423,587.3 434.7,592.3 
			438.4,591.7 442.9,592.6 437.6,596.3 		"/>
		<polygon class="st3" points="446.1,590.3 444.5,588.8 440.1,589.1 443.1,586.1 442,583.1 447.3,581.9 458.7,584.6 445.7,591.8 		
			"/>
		<polygon class="st4" points="449,589.8 445.9,588 443.4,587.4 450.2,586.4 456.8,585.2 450.7,587.4 449,588.3 		"/>
	</g>
	<g id="bh">
		<polygon class="st1" points="606.1,690.5 593.5,676.4 597.2,653.2 611.9,672.3 		"/>
		<polygon class="st2" points="606.1,690.5 593.5,676.4 595.4,664.6 597.5,673.1 602.5,670.2 601.5,680.9 605.4,688.1 608.5,675.8 
			607.3,672.2 607.5,667.6 611.9,672.3 		"/>
		<polygon class="st3" points="604.7,664.8 603.5,666.6 604.4,671 601,668.4 598.2,670 596.3,664.9 597.2,653.2 606.3,665 		"/>
		<polygon class="st4" points="603.8,662 602.5,665.3 602.2,667.9 600.3,661.4 598,655 601.2,660.7 602.3,662.3 		"/>
	</g>
	<polygon class="st11" points="849.9,589 843.7,579.2 839.5,566.1 831.8,560.4 828.2,564.6 846.2,588.8 850.2,590.8 	"/>
</g>
<g id="Layer_5">
	<g id="d">
		<polygon class="st6" points="587,123.2 589.2,136.8 598,125 596.7,121.6 598.5,110.9 592.8,116.5 587.6,120.9 		"/>
		<path class="st0" d="M587.1,124l0.9-0.5c0.1,0,0.1-0.1,0.2-0.1l2-2.5l-0.4,1.6l1.5-0.6l1.8,0.3l0,0l-1.7,4.2l1.3,0.9l0-0.1l0.1,2
			l1.9-2.3l0.1,2.3l2.4-3.3l-2-6.5l1.3-4.7l-8.6,6.6l-0.7,1.2l-0.2,0.7L587.1,124L587.1,124z"/>
		<polygon class="st7" points="588.6,125 589.7,124.5 589.9,123.3 590.3,124.7 590.1,127.1 590.3,132.9 589.5,135.8 589.3,131.6 
			587.8,125.6 		"/>
		<polygon class="st5" points="587,123.2 588.3,121.5 590.3,119.8 590.9,120.1 592,118.8 593,117.9 593.4,117.5 594.2,117.2 
			594.8,117.5 594.8,117.5 594.5,119.1 594.1,119.9 593.1,121.1 593.6,121.1 593.7,122 592.6,125 593.7,126.8 595.1,125.5 
			595.5,128.3 598,125 596.7,121.6 598.5,110.9 587.6,120.9 		"/>
	</g>
	<g id="h">
		<polygon class="st0" points="533.1,205.2 525.4,189.4 531.7,169.9 540.5,187.3 		"/>
		<polygon class="st5" points="533.1,205.2 525.4,189.4 526.1,187.3 527.7,186.6 527.7,189.8 527.7,189.8 528.9,190.7 529.9,192.7 
			529.9,192.7 531.5,194.7 532.5,196 532.5,196 533.8,195.8 534.1,194.4 534.5,190.7 534.5,190.7 537.3,188.5 538.2,186.3 
			538.9,184.1 540.5,187.3 		"/>
		<polygon class="st6" points="537.7,181.5 536.6,185.4 535.1,185.9 533.8,187.9 532.3,190.7 532,188.6 530.9,188.6 530.8,183.8 
			527.8,184.9 528.4,180.3 531.7,169.9 		"/>
		<polygon class="st7" points="534.1,175.8 535.2,180.6 536.3,183.3 534.9,182.1 533.4,186 533.8,183.5 534.2,181.1 534.2,179.4 
			532.3,173.8 532.1,171.4 		"/>
	</g>
	<g>
		<polyline class="st6" points="428.3,232.2 421,259.1 422,264.1 445.4,244.3 453.6,212.3 428.3,232.2 		"/>
		<polyline class="st0" points="428.3,232.2 435.5,232.8 437.3,243.9 425.6,260.4 440.2,248.1 445.4,244.3 453.6,212.3 428.3,232.2 
					"/>
		<polygon class="st7" points="423.4,261.7 427.2,252.3 434.3,242.6 434.3,234.2 429.4,233.7 421.6,258.9 422.3,262.9 		"/>
		<polygon class="st5" points="453.6,212.3 445.2,228.5 438.4,235.8 444.1,238.6 445.4,244.3 		"/>
		<polygon class="st5" points="451.6,213.9 441.9,228.5 433.5,228.5 		"/>
	</g>
	<g>
		<polyline class="st0" points="655.6,232.9 666,222.2 669,236.3 		"/>
		<polyline class="st0" points="669,236.3 658.3,251.3 655.6,232.9 		"/>
		<polyline class="st5" points="655.6,232.9 666,222.2 669,236.3 		"/>
		<polyline class="st5" points="669,236.3 663.5,244 665.2,237.3 661,237.6 665.5,230.5 665.6,224.1 659.1,231.6 658.6,234.6 
			656.8,237.7 655.6,232.9 		"/>
		<polygon class="st6" points="657.6,240.6 659,239.7 660,236.4 661.3,239.4 663.6,239.2 663.1,243.4 658.3,251.3 656.6,239.9 		"/>
		<polygon class="st7" points="657.2,242.9 659.2,241 660.3,239.3 659.2,244.5 658.4,249.7 658.4,244.7 658.2,243.2 		"/>
	</g>
	<g>
		<polyline class="st0" points="676.2,278.9 667.3,287.7 682.1,294.6 684.4,290.9 692.7,288.5 676.2,278.9 		"/>
		<polygon class="st6" points="675.5,280.4 676.8,281.4 678.3,283.3 682.4,285.9 682,287 678.6,286.8 673.2,286.9 675.6,289.1 
			679.2,291.1 681,294.1 667.3,287.7 675.3,279.8 		"/>
		<polyline class="st5" points="676.2,278.9 691.4,288.3 691.8,288.8 684.4,290.9 687.2,288.9 683.5,285.8 675.5,279.6 676.2,278.9 
					"/>
		<polygon class="st5" points="676.7,288 679.2,287.9 682,289.1 685.2,288.9 685.4,288.1 686.3,288.1 687.2,288.9 684.4,290.9 
			682.1,294.6 678.9,290.1 		"/>
		<polygon class="st7" points="674.5,282 677.1,283.2 678.2,284.4 674.2,284 668.8,287.6 668,287.6 		"/>
	</g>
	<g id="r">
		<polygon class="st1" points="268.4,325.2 252.9,336.9 273.5,344.6 277.9,339.8 290.9,336.2 		"/>
		<polygon class="st3" points="267,327.2 268.6,328.3 270.5,330.6 276,333.7 275.2,335.1 270.2,335 262,335.5 265,338.1 
			269.9,340.4 271.9,344 252.9,336.9 266.8,326.4 		"/>
		<polygon class="st2" points="290.9,336.2 289.5,336.6 277.9,339.8 282.5,337 277.7,333.4 267.2,326.1 268.4,325.2 		"/>
		<polygon class="st2" points="266.9,336.7 270.8,336.4 274.6,337.6 279.4,337.2 280,336.2 281.4,336.1 282.5,337 277.9,339.8 
			273.5,344.6 269.7,339.2 		"/>
		<polygon class="st4" points="265,329.3 268.8,330.5 270.1,332.1 264.2,331.8 255.2,336.7 254,336.8 		"/>
	</g>
	<g id="a_x60_">
		<polygon class="st6" points="208.4,419.1 213.8,458.5 236.8,483.7 242.5,485.9 236.1,448.4 		"/>
		<polygon class="st0" points="213.8,458.5 218.6,451.3 231,456.7 240.9,479.6 236.9,456.4 236.1,448.4 208.4,419.1 		"/>
		<polygon class="st7" points="240.9,482.8 233.5,472.8 227.9,459 219.4,453.5 215.9,458.3 237,482.9 241.4,484.7 		"/>
		<polygon class="st5" points="208.4,419.1 220,438.3 223.4,450.3 229.6,446.1 236.1,448.4 		"/>
		<polygon class="st5" points="208.9,422.1 218,441.8 213.1,450.6 		"/>
	</g>
	<g id="aa">
		<polygon class="st6" points="299.2,528.3 284.6,548.8 311.6,545.6 313,541.2 329.3,536.4 310,526.9 315.6,525 303.9,525.7 		"/>
		<polygon class="st0" points="329.3,536.4 329.1,536.2 310,526.9 315.6,525 303.9,525.7 302.1,530 300.3,536.4 305.6,535.5 
			312.6,536.5 307.2,541.6 293.5,547.7 311.6,545.6 313.6,540.9 		"/>
		<path class="st5" d="M329.3,536.4l-15.8,4.7l-2.7,3.7l-5.5,0.5l5.9-5.2l8.2-2.8l-2.8-1.5c-0.5-0.3-0.5-1,0.1-1.2l2.4-0.9l-9.2-1.2
			l-7.5,1.9l0.7-4.4l2.9-4.5l9.5-0.5l-5.4,1.9L329.3,536.4L329.3,536.4z"/>
		<polygon class="st7" points="299.7,529.5 286,547.8 290.8,546.7 300.4,531.1 302.2,527.5 		"/>
	</g>
	<g>
		<polyline class="st9" points="877.2,512.1 858.7,561.2 863.2,604.1 866.8,610 883.3,562.5 877.2,512.1 		"/>
		<polyline class="st8" points="877.2,512.1 859.3,560.9 866.9,555.7 874.1,569.2 869,601.7 879.3,572.3 883.3,562.5 877.2,512.1 		
			"/>
		<polygon class="st11" points="867.2,605.5 866.9,589.4 870.2,570.1 866.2,558.7 860.5,562.3 863.9,603.2 866.5,608 		"/>
		<polyline class="st10" points="877.2,512.1 875.7,541.3 871.5,557.3 879.2,556 883.3,562.5 877.2,512.1 		"/>
		<polygon class="st10" points="875.8,516 872,544.2 862.7,551.7 		"/>
	</g>
	<g id="ak">
		<polygon class="st0" points="720.7,427.3 708.9,416.7 710.5,397.4 724.5,411.9 		"/>
		<polygon class="st5" points="720.7,427.3 708.9,416.7 709.7,406.8 712.1,413.6 716.2,410.9 716.1,419.8 719.9,425.4 721.8,415 
			720.5,412.1 720.3,408.4 724.5,411.9 		"/>
		<polygon class="st6" points="717.7,406.3 716.9,407.9 717.9,411.4 714.8,409.5 712.6,411.1 710.5,407.1 710.5,397.4 719.1,406.3 
					"/>
		<polygon class="st7" points="716.7,404.1 715.9,406.9 715.8,409 713.7,403.8 711.3,398.8 714.4,403.2 715.5,404.4 		"/>
	</g>
	<g id="as">
		<polygon class="st6" points="474.1,401.7 465.1,378.3 452.9,402.5 455.7,406.1 450.8,422.4 469.3,411.5 465.2,413.6 473.8,407.1 
					"/>
		<polygon class="st0" points="450.8,422.4 451,422.3 469.3,411.5 463.7,414.4 473.8,407.1 471.1,403.2 466.8,398.2 464.6,403.1 
			459.9,408.4 458.6,401.1 461.1,386.2 452.9,402.5 455.7,406.8 		"/>
		<path class="st5" d="M450.8,422.4l4.8-15.8l-1.6-4.3l2.6-4.8l1.1,7.8l-2.2,8.4l2.8-1.5c0.5-0.3,1.1,0.2,1,0.8l-0.6,2.5l6-7
			l2.5-7.3l3.3,3l2.1,4.9l-5.7,4.7l2.3-2.1L450.8,422.4L450.8,422.4z"/>
		<polygon class="st7" points="472.8,401.5 465.1,379.9 463.4,384.5 471.1,401.2 473.1,404.7 		"/>
	</g>
	<g id="ax">
		<polygon class="st9" points="566.7,443 565.7,480.5 585.1,507 590.6,509.7 590.3,473.9 		"/>
		<polygon class="st8" points="566.2,480.1 571.8,474.5 583.6,481.1 590,503.7 589.7,481.5 590.3,473.9 566.7,443 		"/>
		<polygon class="st11" points="589.5,506.7 583.6,496.4 580.1,482.8 572.2,476.6 567.9,480.6 585.4,506.2 589.7,508.5 		"/>
		<polygon class="st10" points="566.7,443 575.4,462.5 576.9,474.1 583.9,471 590.3,473.9 		"/>
		<polygon class="st10" points="566.6,446 572.8,465.5 566.3,473.1 		"/>
	</g>
	<g id="ba">
		<polygon class="st8" points="749.8,671.4 738.7,646.3 725.1,672.2 730,679.8 731.7,698.7 		"/>
		<polygon class="st9" points="747.6,668.8 745.9,670.8 742.8,672.5 737.9,679.2 736.3,677.6 737.4,670.7 738.5,659.3 734.7,662.6 
			730.9,668.6 726.1,670.2 738.7,646.3 748.6,668.8 		"/>
		<polygon class="st10" points="731.7,698.7 731.5,696.7 730,679.8 732.4,687 737.8,681.6 748.9,669.5 749.8,671.4 		"/>
		<polygon class="st10" points="736.7,662.2 735.7,671.1 733.3,675.9 732.8,682.7 734,683.7 733.7,685.7 732.4,687 730,679.8 
			725.1,672.2 732.5,668.7 		"/>
		<polygon class="st11" points="745.5,665.4 743.2,670.2 741,671.5 742.6,663.5 738.5,649.6 738.6,647.9 		"/>
	</g>
	<g id="bi">
		<polygon class="st1" points="339.2,680.8 334.7,662.4 348.8,643.7 352.9,667.4 		"/>
		<polygon class="st2" points="339.2,680.8 334.7,662.4 341.9,652.8 339.8,661.3 345.5,661.1 339.6,670.1 339.7,678.3 348.2,668.9 
			348.9,665.1 351.2,661.2 352.9,667.4 		"/>
		<polygon class="st3" points="350,657.4 348.2,658.5 346.9,662.7 345.1,658.9 341.9,659 342.5,653.6 348.8,643.7 351.4,658.4 		"/>
		<polygon class="st4" points="350.5,654.5 347.9,656.9 346.4,659 347.7,652.3 348.7,645.6 348.9,652.1 349.1,654.1 		"/>
	</g>
</g>
<g id="Layer_6">
	<g id="e">
		<polygon class="st8" points="538.1,113.7 549.2,124.2 549.3,141.2 536.7,129.7 		"/>
		<polygon class="st10" points="538.1,113.7 549.2,124.2 549.2,126.1 548,127 547.1,124.4 547.1,124.4 545.8,124.1 544.4,122.8 
			543.3,122.7 542.4,121.6 541.2,120.8 541.2,120.8 540.1,121.3 540.2,122.4 539.7,124.9 539.7,124.9 539.1,127.9 539,129.9 
			539,131.8 536.7,129.7 		"/>
		<polygon class="st9" points="540.8,133.5 540.7,130.2 541.8,129.4 542.3,127.5 542.8,125 543.7,126.5 544.7,126.3 546.1,130 
			548.4,128.3 549.2,132.1 549.3,141.2 		"/>
		<polygon class="st11" points="545.5,137.1 543.2,133.6 541.5,131.8 543.1,132.4 543.2,128.9 543.6,131 544,133 544.4,134.3 
			547.7,138.2 548.5,140 		"/>
	</g>
	<g>
		<polyline class="st9" points="509.2,269.4 490.2,285.1 493.2,275.9 483.4,291.9 482.1,300.4 491.5,338.6 512.2,300.4 		"/>
		<polyline class="st8" points="512.2,300.4 498.3,326 503.9,302.4 503.1,290.5 495.7,298.7 492,306.5 486.5,298.2 483.4,291.9 
			493.2,275.9 490.2,285.1 509.4,274.5 		"/>
		<path class="st10" d="M509.2,269.4l-18.7,15.4l2.8-8.9l-7.9,12.8l2.3,8l4.2,5l4.6-11.5l9.5-10.9l-1.2,4c-0.3,0.9,0.5,1.7,1.3,1.3
			l4.2-2.3l-4.3,13.3l0.4,12.6l6-8l2.2-10.3l1.5-10.9L509.2,269.4L509.2,269.4z"/>
		<polygon class="st11" points="483.9,300.9 491.7,336 494.8,328.7 486.3,301.5 483.9,295.6 		"/>
	</g>
	<g>
		<polyline class="st6" points="447.4,203.9 438.9,193.2 437,207.8 439.8,210 443.4,220.4 445.7,212.6 448.1,206.3 		"/>
		<path class="st0" d="M446.3,204.4l-0.6,3.2l-0.4-1.6l-1.1,1.2l-1.7,0.6l0,0l-0.5-4.5l-1.6-0.1l0.1,0l-1-1.7l-0.6,2.9l-1.2-2
			l-0.5,4.1l4.9,4.7l1.1,4.7l4.4-9.9"/>
		<polyline class="st7" points="445.6,202.3 445.2,203.2 444.5,204.1 444.9,205.3 443.9,204.3 442.9,202 439.9,197.1 439.1,194.1 
			441.4,197.8 445.6,202.3 		"/>
		<polyline class="st5" points="447.4,203.9 447.2,206.1 446.2,208.5 445.6,208.5 445.2,210.3 444.8,211.5 444.7,212.1 444,212.7 
			443.4,212.7 443.4,212.7 442.9,211.2 442.9,210.3 443.1,208.8 442.7,209.1 442.2,208.3 441.7,205.1 439.9,204.1 439.3,205.9 
			437.6,203.6 437,207.8 439.8,210 443.4,220.4 448.1,206.3 		"/>
	</g>
	<g>
		<polyline class="st0" points="648.9,248.8 637.6,235.8 640.8,219.9 650.7,231.8 648.9,248.8 		"/>
		<polygon class="st5" points="640.8,219.9 650.7,231.8 650.5,233.6 649.3,234.4 648.6,231.7 648.6,231.7 647.3,231.3 646.1,229.8 
			646.1,229.8 644.2,228.3 643.1,227.4 643.1,227.4 642,227.7 641.9,228.9 642.3,232.1 642.3,232.1 640.2,234.3 639.8,236.3 
			639.6,238.2 637.6,235.8 		"/>
		<polyline class="st6" points="648.9,248.8 641.3,240.1 641.5,236.8 642.7,236.1 643.5,234.3 644.3,231.8 645,233.4 646,233.3 
			647,237.2 649.5,235.8 649.9,239.8 		"/>
		<polygon class="st7" points="645.6,244.3 643.6,240.5 642.2,238.5 643.6,239.3 644.2,235.8 644.4,237.9 644.5,240 644.8,241.3 
			647.6,245.7 648.2,247.6 		"/>
	</g>
	<g>
		<polyline class="st0" points="753,193 743.8,206.9 738.5,191.9 		"/>
		<polyline class="st1" points="738.5,191.9 747.4,173.4 753,193 		"/>
		<polyline class="st2" points="753,193 743.8,206.9 738.5,191.9 		"/>
		<polyline class="st2" points="749.6,195.1 749.7,191.8 751,188 		"/>
		<polyline class="st2" points="738.5,191.9 743.1,182.4 742.3,190.1 746.7,188.9 743.1,197.7 743.9,204.7 749.6,195.1 		"/>
		<polygon class="st3" points="749.8,184.9 748.4,186.2 747.9,190.1 746.1,187.1 743.7,187.7 743.6,183 747.4,173.4 750.9,185.5 		
			"/>
		<polygon class="st4" points="749.8,182.4 748,184.9 747.1,187 747.5,181 747.6,175.1 748.3,180.6 748.7,182.2 		"/>
	</g>
	<g>
		<polyline class="st3" points="383.3,339.5 411,328.7 382.6,321.4 359,330.1 355.9,333.4 		"/>
		<polyline class="st1" points="383.3,339.5 411,328.7 382.6,321.4 386.1,326.6 379,333.6 360.6,334 377.6,337.8 		"/>
		<polygon class="st4" points="358.4,333.1 367.4,330.9 378.3,330.9 384.4,326.6 382.1,322.9 359.5,330.4 357,333 		"/>
		<polyline class="st2" points="383.3,339.5 411,328.7 394.6,331.2 385.5,330.2 386.7,335.6 383.3,339.5 		"/>
		<polygon class="st2" points="408.8,328.1 392.8,328.9 388.2,323.1 		"/>
	</g>
	<g>
		<polyline class="st0" points="269,349.8 279.6,361 264.8,363.8 		"/>
		<polyline class="st1" points="264.8,363.8 249.9,352.1 269,349.8 		"/>
		<polyline class="st2" points="269,349.8 279.6,361 264.8,363.8 		"/>
		<polyline class="st2" points="264.8,363.8 257.2,357.8 264,359.8 263.9,355.3 271.1,360.2 277.7,360.5 270.2,353.5 267.2,352.8 
			264,350.9 269,349.8 		"/>
		<polygon class="st3" points="261,351.7 261.8,353.2 265.2,354.3 262.1,355.6 262.1,358.1 257.8,357.4 249.9,352.1 261.7,350.7 		
			"/>
		<polygon class="st4" points="258.7,351.2 260.5,353.3 262.2,354.5 256.9,353.3 251.5,352.2 256.7,352.4 258.3,352.2 		"/>
	</g>
	<g id="ac">
		<polygon class="st0" points="184,476.2 211.8,479.7 224,501.6 192.8,498.2 		"/>
		<polygon class="st5" points="184,476.2 211.8,479.7 213.1,482.1 211.6,484.3 208.1,481.9 208.1,481.9 205.5,482.7 201.9,482.2 
			201.9,482.2 197.4,482.5 194.7,482.6 194.7,482.6 193.1,484.2 194.1,485.6 197.6,488.9 197.6,488.9 196,493.7 197.1,496.4 
			198.5,498.8 192.8,498.2 		"/>
		<polygon class="st6" points="203,499.4 200.4,495.3 201.9,493.2 201.6,490.3 200.7,486.5 203.4,487.7 204.9,486.5 210.2,490 
			213.2,485.8 217.5,489.9 224,501.6 		"/>
		<polygon class="st7" points="214.2,499.8 207.5,497.4 203.1,496.5 206.3,495.9 204.2,491.2 206.4,493.6 208.4,495.8 210.2,497.1 
			218.9,499.2 221.7,500.9 		"/>
	</g>
	<g>
		<polyline class="st0" points="299.1,476.5 320.7,479.2 306.3,494.4 		"/>
		<polyline class="st1" points="306.3,494.4 279.4,494.7 299.1,476.5 		"/>
		<polyline class="st2" points="299.1,476.5 320.7,479.2 306.3,494.4 		"/>
		<polyline class="st2" points="306.3,494.4 292.6,494.5 301.9,491 298,486.4 310.3,485.5 318,480.4 303.5,479.3 299.6,481.2 
			294.4,481.8 299.1,476.5 		"/>
		<polygon class="st3" points="291.5,485.1 293.8,485.9 298.6,484.3 296.1,488.2 298.3,490.7 292.8,493.6 279.4,494.7 291.6,483.4 
					"/>
		<polygon class="st4" points="288.5,486.5 292.4,487.2 295.4,487 288.3,490.1 281.3,493.5 287.3,489.4 289,487.9 		"/>
	</g>
	<g id="aj">
		<polygon class="st6" points="704.4,419.8 695.4,396.4 683.2,420.6 686,424.2 681.1,440.5 699.6,429.6 698.1,435.3 704,425.2 		"/>
		<polygon class="st0" points="681.1,440.5 681.3,440.4 699.6,429.6 698.1,435.3 704,425.2 701.4,421.3 697.1,416.3 694.9,421.2 
			690.2,426.5 688.8,419.2 691.4,404.3 683.2,420.6 686,424.9 		"/>
		<path class="st5" d="M681.1,440.5l4.8-15.8l-1.6-4.3l2.6-4.8l1.1,7.8l-2.2,8.4l2.8-1.5c0.5-0.3,1.1,0.2,1,0.8l-0.6,2.5l6-7
			l2.5-7.3l3.3,3l2.1,4.9l-4.8,8.2l1.4-5.6L681.1,440.5L681.1,440.5z"/>
		<polygon class="st7" points="703.1,419.6 695.4,398 693.7,402.6 701.4,419.3 703.4,422.8 		"/>
	</g>
	<g id="an">
		<polygon class="st1" points="593.6,412.1 581,397.3 574.5,418.3 579.6,422.4 583.9,435.1 		"/>
		<polygon class="st3" points="591.5,410.8 590.5,412.5 588.4,414.4 585.6,420.2 584.1,419.4 583.9,414.4 582.9,406.3 580.5,409.5 
			578.5,414.5 575,416.7 581,397.3 592.3,410.5 		"/>
		<polygon class="st2" points="583.9,435.1 583.5,433.8 579.6,422.4 582.6,426.9 586,421.9 592.6,410.9 593.6,412.1 		"/>
		<polygon class="st2" points="582.1,411.3 582.6,415.1 581.5,419 582.2,423.8 583.3,424.2 583.4,425.7 582.6,426.9 579.6,422.4 
			574.5,418.3 579.7,414.2 		"/>
		<polygon class="st4" points="589.3,408.9 588.3,412.8 586.9,414.1 586.8,408.3 581.3,399.6 581.2,398.4 		"/>
	</g>
	<g id="av">
		<polygon class="st8" points="498,435.7 498,456.7 481.2,474 480.7,450.7 		"/>
		<polygon class="st10" points="498,435.7 498,456.7 496.2,458.6 494.2,458.4 495.9,455 495.9,455 494.9,453.4 494.9,450.8 
			494,449.6 494.2,447.7 493.8,445.8 493.8,445.8 492.4,445.3 491.3,446.5 488.4,448.6 488.4,448.6 484.8,451.1 482.7,453 
			480.8,454.9 480.7,450.7 		"/>
		<polygon class="st9" points="480.8,458.3 483.9,454.8 485.8,455.1 488.2,453.7 491.3,451.6 490.6,453.9 491.7,454.6 489.4,459.7 
			493.2,460.1 490.2,464.8 481.2,474 		"/>
		<polygon class="st11" points="481.6,466.4 483,460.7 483.2,457.3 484.1,459.3 487.7,455.9 486,458.4 484.4,460.7 483.4,462.5 
			482.6,469.5 481.6,472.1 		"/>
	</g>
	<g id="bg">
		<polygon class="st0" points="640.2,691.5 624.1,664.5 634,633.2 652.5,662.9 		"/>
		<polygon class="st5" points="640.2,691.5 624.1,664.5 625.2,661.1 628,660.2 628.4,665.5 628.4,665.5 630.9,667 632.9,670.4 
			632.9,670.4 636.2,674.1 638.2,676.2 638.2,676.2 640.6,676.1 641.2,673.9 641.5,667.8 641.5,667.8 646.6,664.6 648.1,661 
			649.2,657.5 652.5,662.9 		"/>
		<polygon class="st6" points="646.5,653.1 644.9,659.3 642.1,659.9 639.9,663.1 637.3,667.5 636.5,664 634.5,663.8 633.8,655.9 
			628.2,657.4 628.7,649.8 634,633.2 		"/>
		<polygon class="st7" points="639.2,643.2 641.8,651.2 644.1,655.8 641.4,653.7 638.9,660 639.4,655.8 639.8,651.9 639.8,649.2 
			635.5,639.7 635,635.8 		"/>
	</g>
</g>
</svg>
