<?xml version="1.0" encoding="utf-8"?>
<!-- Generator: Adobe Illustrator 26.2.1, SVG Export Plug-In . SVG Version: 6.00 Build 0)  -->
<svg version="1.1" xmlns="http://www.w3.org/2000/svg" xmlns:xlink="http://www.w3.org/1999/xlink" x="0px" y="0px"
	 viewBox="0 0 1044.8 1000" style="enable-background:new 0 0 1044.8 1000;" xml:space="preserve">
<style type="text/css">
	.st0{fill:none;}
	.st1{fill:#1D2B3F;}
	.st2{fill:#003D57;}
	.st3{fill:#40404F;}
	.st4{fill:#242433;}
	.st5{fill:#333342;}
	.st6{fill:#2A2A30;}
	.st7{fill:#2D2D3D;}
	.st8{fill:#333349;}
	.st9{fill:#2C2C42;}
	.st10{fill:#393951;}
	.st11{fill:#4A4A60;}
	.st12{fill:#151521;}
	.st13{fill:#1C1C28;}
	.st14{fill:#282835;}
	.st15{fill:#32323F;}
	.st16{fill:#2F2F3D;}
	.st17{fill:#454556;}
	.st18{display:none;}
	.st19{fill:#152134;}
	.st20{fill:url(#SVGID_00000121970424777564926510000014563009804804564119_);}
	.st21{fill:url(#SVGID_00000161630295606397019060000007071691845120781959_);}
	.st22{fill:url(#SVGID_00000071530702874641393920000007375156409759801278_);}
	.st23{fill:url(#SVGID_00000114763182472326084600000005258825866848007060_);}
	.st24{fill:url(#SVGID_00000157272090516075932470000013923455809975428777_);}
	.st25{fill:url(#SVGID_00000102516503938522573460000012481747110683909311_);}
	.st26{fill:url(#SVGID_00000000938551833933258280000003306301743956032415_);}
	.st27{fill:url(#SVGID_00000021829235212321775030000017874514022032957328_);}
	.st28{fill:url(#SVGID_00000031169132373698231870000013630429811745418157_);}
	.st29{fill:url(#SVGID_00000129891435140400896260000012837021262610156686_);}
	.st30{fill:url(#SVGID_00000034086816717374398080000017840103282539418504_);}
	.st31{fill:url(#SVGID_00000034051356778547448620000017873818528886154644_);}
	.st32{fill:url(#SVGID_00000137828326546387500460000001597257091611498674_);}
	.st33{fill:none;stroke:#333342;stroke-miterlimit:10;}
	.st34{font-family:'MyriadPro-Regular';}
	.st35{font-size:2px;}
	.st36{display:inline;fill:#152134;}
	.st37{display:inline;fill:url(#SVGID_00000116203528608298183150000010833152966280448673_);}
</style>
<pattern  y="1000" width="141.2" height="152.6" patternUnits="userSpaceOnUse" id="SVGID_0000003116668277697267222" viewBox="0 -152.6 141.2 152.6" style="overflow:visible;">
	<g>
		<rect y="-152.6" class="st0" width="141.2" height="152.6"/>
		<g>
			<rect y="-152.6" class="st0" width="141.2" height="152.6"/>
			<g>
				<rect y="-152.6" class="st0" width="141.2" height="152.6"/>
				<polygon class="st1" points="4.4,-76.6 46.2,-118.4 35.8,-82.6 0,-44.4 				"/>
				<polygon class="st1" points="63.1,-105.1 94.6,-84 71.7,-42.1 				"/>
				<polygon class="st1" points="138.6,-109.5 132.5,-134.5 117.2,-130.3 				"/>
				<polygon class="st1" points="138.6,-64.4 103,-7.4 138.6,-23.1 				"/>
				<polygon class="st1" points="87.6,-130.1 118.5,-105.1 118.5,-68.1 				"/>
				<polygon class="st1" points="34.6,-145.7 5,-116.5 64.1,-142.7 				"/>
				<polygon class="st1" points="13.8,-36.3 47.2,-51.6 33.6,-27.1 3.2,-14.9 				"/>
				<polygon class="st1" points="54.6,-117 68.6,-140.5 72.6,-120.7 				"/>
				<polygon class="st1" points="77,-28.6 115.4,-50 111.7,-31.7 				"/>
				<polygon class="st1" points="94.6,-58.4 121.8,-64.4 119.9,-58.4 				"/>
				<polygon class="st1" points="103,-129.7 135.8,-107 103.1,-121.5 				"/>
				<polygon class="st1" points="103,-133.2 141.2,-152.6 115.4,-131.1 				"/>
				<polygon class="st1" points="91.6,-9 53.6,-27.3 84.9,0 				"/>
				<polygon class="st1" points="13.9,-110 23.8,-121 24.6,-110 16.2,-97.9 				"/>
				<polygon class="st1" points="23.1,-58.3 36.5,-68.1 13.9,-42.1 				"/>
				<polygon class="st1" points="49.4,-107 54.6,-89 43.4,-79.8 				"/>
				<polygon class="st1" points="41.6,-37.3 58.9,-55.3 77.4,-21.8 				"/>
				<polygon class="st1" points="78.9,-150.9 98.3,-147.3 84.5,-135 				"/>
				<polygon class="st1" points="28.1,-8.3 39.8,-19.6 47.2,-4.7 				"/>
				<polygon class="st1" points="49,-64.4 57.5,-76.2 57.5,-64.4 				"/>
				<polygon class="st1" points="127.9,-100.7 131.8,-79.8 125.1,-64.4 				"/>
				<polygon class="st1" points="80.1,-109.5 96.2,-100.7 83.2,-103.4 				"/>
			</g>
		</g>
	</g>
</pattern>
<pattern  y="1000" width="141.2" height="152.6" patternUnits="userSpaceOnUse" id="SVGID_0000004199596005269134193" viewBox="0 -152.6 141.2 152.6" style="overflow:visible;">
	<g>
		<rect y="-152.6" class="st0" width="141.2" height="152.6"/>
		<g>
			<rect y="-152.6" class="st0" width="141.2" height="152.6"/>
			<g>
				<rect y="-152.6" class="st0" width="141.2" height="152.6"/>
				<polygon class="st1" points="4.4,-76.6 46.2,-118.4 35.8,-82.6 0,-44.4 				"/>
				<polygon class="st1" points="63.1,-105.1 94.6,-84 71.7,-42.1 				"/>
				<polygon class="st1" points="138.6,-109.5 132.5,-134.5 117.2,-130.3 				"/>
				<polygon class="st1" points="138.6,-64.4 103,-7.4 138.6,-23.1 				"/>
				<polygon class="st1" points="87.6,-130.1 118.5,-105.1 118.5,-68.1 				"/>
				<polygon class="st1" points="34.6,-145.7 5,-116.5 64.1,-142.7 				"/>
				<polygon class="st1" points="13.8,-36.3 47.2,-51.6 33.6,-27.1 3.2,-14.9 				"/>
				<polygon class="st1" points="54.6,-117 68.6,-140.5 72.6,-120.7 				"/>
				<polygon class="st1" points="77,-28.6 115.4,-50 111.7,-31.7 				"/>
				<polygon class="st1" points="94.6,-58.4 121.8,-64.4 119.9,-58.4 				"/>
				<polygon class="st1" points="103,-129.7 135.8,-107 103.1,-121.5 				"/>
				<polygon class="st1" points="103,-133.2 141.2,-152.6 115.4,-131.1 				"/>
				<polygon class="st1" points="91.6,-9 53.6,-27.3 84.9,0 				"/>
				<polygon class="st1" points="13.9,-110 23.8,-121 24.6,-110 16.2,-97.9 				"/>
				<polygon class="st1" points="23.1,-58.3 36.5,-68.1 13.9,-42.1 				"/>
				<polygon class="st1" points="49.4,-107 54.6,-89 43.4,-79.8 				"/>
				<polygon class="st1" points="41.6,-37.3 58.9,-55.3 77.4,-21.8 				"/>
				<polygon class="st1" points="78.9,-150.9 98.3,-147.3 84.5,-135 				"/>
				<polygon class="st1" points="28.1,-8.3 39.8,-19.6 47.2,-4.7 				"/>
				<polygon class="st1" points="49,-64.4 57.5,-76.2 57.5,-64.4 				"/>
				<polygon class="st1" points="127.9,-100.7 131.8,-79.8 125.1,-64.4 				"/>
				<polygon class="st1" points="80.1,-109.5 96.2,-100.7 83.2,-103.4 				"/>
			</g>
		</g>
	</g>
</pattern>
<pattern  y="1000" width="141.2" height="152.6" patternUnits="userSpaceOnUse" id="SVGID_0000005930711217431478199" viewBox="0 -152.6 141.2 152.6" style="overflow:visible;">
	<g>
		<rect y="-152.6" class="st0" width="141.2" height="152.6"/>
		<g>
			<rect y="-152.6" class="st0" width="141.2" height="152.6"/>
			<g>
				<rect y="-152.6" class="st0" width="141.2" height="152.6"/>
				<polygon class="st1" points="4.4,-76.6 46.2,-118.4 35.8,-82.6 0,-44.4 				"/>
				<polygon class="st1" points="63.1,-105.1 94.6,-84 71.7,-42.1 				"/>
				<polygon class="st1" points="138.6,-109.5 132.5,-134.5 117.2,-130.3 				"/>
				<polygon class="st1" points="138.6,-64.4 103,-7.4 138.6,-23.1 				"/>
				<polygon class="st1" points="87.6,-130.1 118.5,-105.1 118.5,-68.1 				"/>
				<polygon class="st1" points="34.6,-145.7 5,-116.5 64.1,-142.7 				"/>
				<polygon class="st1" points="13.8,-36.3 47.2,-51.6 33.6,-27.1 3.2,-14.9 				"/>
				<polygon class="st1" points="54.6,-117 68.6,-140.5 72.6,-120.7 				"/>
				<polygon class="st1" points="77,-28.6 115.4,-50 111.7,-31.7 				"/>
				<polygon class="st1" points="94.6,-58.4 121.8,-64.4 119.9,-58.4 				"/>
				<polygon class="st1" points="103,-129.7 135.8,-107 103.1,-121.5 				"/>
				<polygon class="st1" points="103,-133.2 141.2,-152.6 115.4,-131.1 				"/>
				<polygon class="st1" points="91.6,-9 53.6,-27.3 84.9,0 				"/>
				<polygon class="st1" points="13.9,-110 23.8,-121 24.6,-110 16.2,-97.9 				"/>
				<polygon class="st1" points="23.1,-58.3 36.5,-68.1 13.9,-42.1 				"/>
				<polygon class="st1" points="49.4,-107 54.6,-89 43.4,-79.8 				"/>
				<polygon class="st1" points="41.6,-37.3 58.9,-55.3 77.4,-21.8 				"/>
				<polygon class="st1" points="78.9,-150.9 98.3,-147.3 84.5,-135 				"/>
				<polygon class="st1" points="28.1,-8.3 39.8,-19.6 47.2,-4.7 				"/>
				<polygon class="st1" points="49,-64.4 57.5,-76.2 57.5,-64.4 				"/>
				<polygon class="st1" points="127.9,-100.7 131.8,-79.8 125.1,-64.4 				"/>
				<polygon class="st1" points="80.1,-109.5 96.2,-100.7 83.2,-103.4 				"/>
			</g>
		</g>
	</g>
</pattern>
<pattern  y="1000" width="141.2" height="152.6" patternUnits="userSpaceOnUse" id="SVGID_0000007156023135877645245" viewBox="0 -152.6 141.2 152.6" style="overflow:visible;">
	<g>
		<rect y="-152.6" class="st0" width="141.2" height="152.6"/>
		<g>
			<rect y="-152.6" class="st0" width="141.2" height="152.6"/>
			<g>
				<rect y="-152.6" class="st0" width="141.2" height="152.6"/>
				<polygon class="st1" points="4.4,-76.6 46.2,-118.4 35.8,-82.6 0,-44.4 				"/>
				<polygon class="st1" points="63.1,-105.1 94.6,-84 71.7,-42.1 				"/>
				<polygon class="st1" points="138.6,-109.5 132.5,-134.5 117.2,-130.3 				"/>
				<polygon class="st1" points="138.6,-64.4 103,-7.4 138.6,-23.1 				"/>
				<polygon class="st1" points="87.6,-130.1 118.5,-105.1 118.5,-68.1 				"/>
				<polygon class="st1" points="34.6,-145.7 5,-116.5 64.1,-142.7 				"/>
				<polygon class="st1" points="13.8,-36.3 47.2,-51.6 33.6,-27.1 3.2,-14.9 				"/>
				<polygon class="st1" points="54.6,-117 68.6,-140.5 72.6,-120.7 				"/>
				<polygon class="st1" points="77,-28.6 115.4,-50 111.7,-31.7 				"/>
				<polygon class="st1" points="94.6,-58.4 121.8,-64.4 119.9,-58.4 				"/>
				<polygon class="st1" points="103,-129.7 135.8,-107 103.1,-121.5 				"/>
				<polygon class="st1" points="103,-133.2 141.2,-152.6 115.4,-131.1 				"/>
				<polygon class="st1" points="91.6,-9 53.6,-27.3 84.9,0 				"/>
				<polygon class="st1" points="13.9,-110 23.8,-121 24.6,-110 16.2,-97.9 				"/>
				<polygon class="st1" points="23.1,-58.3 36.5,-68.1 13.9,-42.1 				"/>
				<polygon class="st1" points="49.4,-107 54.6,-89 43.4,-79.8 				"/>
				<polygon class="st1" points="41.6,-37.3 58.9,-55.3 77.4,-21.8 				"/>
				<polygon class="st1" points="78.9,-150.9 98.3,-147.3 84.5,-135 				"/>
				<polygon class="st1" points="28.1,-8.3 39.8,-19.6 47.2,-4.7 				"/>
				<polygon class="st1" points="49,-64.4 57.5,-76.2 57.5,-64.4 				"/>
				<polygon class="st1" points="127.9,-100.7 131.8,-79.8 125.1,-64.4 				"/>
				<polygon class="st1" points="80.1,-109.5 96.2,-100.7 83.2,-103.4 				"/>
			</g>
		</g>
	</g>
</pattern>
<pattern  y="1000" width="141.2" height="152.6" patternUnits="userSpaceOnUse" id="SVGID_0000008884611333030316368" viewBox="0 -152.6 141.2 152.6" style="overflow:visible;">
	<g>
		<rect y="-152.6" class="st0" width="141.2" height="152.6"/>
		<g>
			<rect y="-152.6" class="st0" width="141.2" height="152.6"/>
			<g>
				<rect y="-152.6" class="st0" width="141.2" height="152.6"/>
				<polygon class="st1" points="4.4,-76.6 46.2,-118.4 35.8,-82.6 0,-44.4 				"/>
				<polygon class="st1" points="63.1,-105.1 94.6,-84 71.7,-42.1 				"/>
				<polygon class="st1" points="138.6,-109.5 132.5,-134.5 117.2,-130.3 				"/>
				<polygon class="st1" points="138.6,-64.4 103,-7.4 138.6,-23.1 				"/>
				<polygon class="st1" points="87.6,-130.1 118.5,-105.1 118.5,-68.1 				"/>
				<polygon class="st1" points="34.6,-145.7 5,-116.5 64.1,-142.7 				"/>
				<polygon class="st1" points="13.8,-36.3 47.2,-51.6 33.6,-27.1 3.2,-14.9 				"/>
				<polygon class="st1" points="54.6,-117 68.6,-140.5 72.6,-120.7 				"/>
				<polygon class="st1" points="77,-28.6 115.4,-50 111.7,-31.7 				"/>
				<polygon class="st1" points="94.6,-58.4 121.8,-64.4 119.9,-58.4 				"/>
				<polygon class="st1" points="103,-129.7 135.8,-107 103.1,-121.5 				"/>
				<polygon class="st1" points="103,-133.2 141.2,-152.6 115.4,-131.1 				"/>
				<polygon class="st1" points="91.6,-9 53.6,-27.3 84.9,0 				"/>
				<polygon class="st1" points="13.9,-110 23.8,-121 24.6,-110 16.2,-97.9 				"/>
				<polygon class="st1" points="23.1,-58.3 36.5,-68.1 13.9,-42.1 				"/>
				<polygon class="st1" points="49.4,-107 54.6,-89 43.4,-79.8 				"/>
				<polygon class="st1" points="41.6,-37.3 58.9,-55.3 77.4,-21.8 				"/>
				<polygon class="st1" points="78.9,-150.9 98.3,-147.3 84.5,-135 				"/>
				<polygon class="st1" points="28.1,-8.3 39.8,-19.6 47.2,-4.7 				"/>
				<polygon class="st1" points="49,-64.4 57.5,-76.2 57.5,-64.4 				"/>
				<polygon class="st1" points="127.9,-100.7 131.8,-79.8 125.1,-64.4 				"/>
				<polygon class="st1" points="80.1,-109.5 96.2,-100.7 83.2,-103.4 				"/>
			</g>
		</g>
	</g>
</pattern>
<pattern  y="1000" width="141.2" height="152.6" patternUnits="userSpaceOnUse" id="SVGID_0000009459542717841438356" viewBox="0 -152.6 141.2 152.6" style="overflow:visible;">
	<g>
		<rect y="-152.6" class="st0" width="141.2" height="152.6"/>
		<g>
			<rect y="-152.6" class="st0" width="141.2" height="152.6"/>
			<g>
				<rect y="-152.6" class="st0" width="141.2" height="152.6"/>
				<polygon class="st1" points="4.4,-76.6 46.2,-118.4 35.8,-82.6 0,-44.4 				"/>
				<polygon class="st1" points="63.1,-105.1 94.6,-84 71.7,-42.1 				"/>
				<polygon class="st1" points="138.6,-109.5 132.5,-134.5 117.2,-130.3 				"/>
				<polygon class="st1" points="138.6,-64.4 103,-7.4 138.6,-23.1 				"/>
				<polygon class="st1" points="87.6,-130.1 118.5,-105.1 118.5,-68.1 				"/>
				<polygon class="st1" points="34.6,-145.7 5,-116.5 64.1,-142.7 				"/>
				<polygon class="st1" points="13.8,-36.3 47.2,-51.6 33.6,-27.1 3.2,-14.9 				"/>
				<polygon class="st1" points="54.6,-117 68.6,-140.5 72.6,-120.7 				"/>
				<polygon class="st1" points="77,-28.6 115.4,-50 111.7,-31.7 				"/>
				<polygon class="st1" points="94.6,-58.4 121.8,-64.4 119.9,-58.4 				"/>
				<polygon class="st1" points="103,-129.7 135.8,-107 103.1,-121.5 				"/>
				<polygon class="st1" points="103,-133.2 141.2,-152.6 115.4,-131.1 				"/>
				<polygon class="st1" points="91.6,-9 53.6,-27.3 84.9,0 				"/>
				<polygon class="st1" points="13.9,-110 23.8,-121 24.6,-110 16.2,-97.9 				"/>
				<polygon class="st1" points="23.1,-58.3 36.5,-68.1 13.9,-42.1 				"/>
				<polygon class="st1" points="49.4,-107 54.6,-89 43.4,-79.8 				"/>
				<polygon class="st1" points="41.6,-37.3 58.9,-55.3 77.4,-21.8 				"/>
				<polygon class="st1" points="78.9,-150.9 98.3,-147.3 84.5,-135 				"/>
				<polygon class="st1" points="28.1,-8.3 39.8,-19.6 47.2,-4.7 				"/>
				<polygon class="st1" points="49,-64.4 57.5,-76.2 57.5,-64.4 				"/>
				<polygon class="st1" points="127.9,-100.7 131.8,-79.8 125.1,-64.4 				"/>
				<polygon class="st1" points="80.1,-109.5 96.2,-100.7 83.2,-103.4 				"/>
			</g>
		</g>
	</g>
</pattern>
<pattern  y="1000" width="141.2" height="152.6" patternUnits="userSpaceOnUse" id="SVGID_0000009530390201640683627" viewBox="0 -152.6 141.2 152.6" style="overflow:visible;">
	<g>
		<rect y="-152.6" class="st0" width="141.2" height="152.6"/>
		<g>
			<rect y="-152.6" class="st0" width="141.2" height="152.6"/>
			<g>
				<rect y="-152.6" class="st0" width="141.2" height="152.6"/>
				<polygon class="st1" points="4.4,-76.6 46.2,-118.4 35.8,-82.6 0,-44.4 				"/>
				<polygon class="st1" points="63.1,-105.1 94.6,-84 71.7,-42.1 				"/>
				<polygon class="st1" points="138.6,-109.5 132.5,-134.5 117.2,-130.3 				"/>
				<polygon class="st1" points="138.6,-64.4 103,-7.4 138.6,-23.1 				"/>
				<polygon class="st1" points="87.6,-130.1 118.5,-105.1 118.5,-68.1 				"/>
				<polygon class="st1" points="34.6,-145.7 5,-116.5 64.1,-142.7 				"/>
				<polygon class="st1" points="13.8,-36.3 47.2,-51.6 33.6,-27.1 3.2,-14.9 				"/>
				<polygon class="st1" points="54.6,-117 68.6,-140.5 72.6,-120.7 				"/>
				<polygon class="st1" points="77,-28.6 115.4,-50 111.7,-31.7 				"/>
				<polygon class="st1" points="94.6,-58.4 121.8,-64.4 119.9,-58.4 				"/>
				<polygon class="st1" points="103,-129.7 135.8,-107 103.1,-121.5 				"/>
				<polygon class="st1" points="103,-133.2 141.2,-152.6 115.4,-131.1 				"/>
				<polygon class="st1" points="91.6,-9 53.6,-27.3 84.9,0 				"/>
				<polygon class="st1" points="13.9,-110 23.8,-121 24.6,-110 16.2,-97.9 				"/>
				<polygon class="st1" points="23.1,-58.3 36.5,-68.1 13.9,-42.1 				"/>
				<polygon class="st1" points="49.4,-107 54.6,-89 43.4,-79.8 				"/>
				<polygon class="st1" points="41.6,-37.3 58.9,-55.3 77.4,-21.8 				"/>
				<polygon class="st1" points="78.9,-150.9 98.3,-147.3 84.5,-135 				"/>
				<polygon class="st1" points="28.1,-8.3 39.8,-19.6 47.2,-4.7 				"/>
				<polygon class="st1" points="49,-64.4 57.5,-76.2 57.5,-64.4 				"/>
				<polygon class="st1" points="127.9,-100.7 131.8,-79.8 125.1,-64.4 				"/>
				<polygon class="st1" points="80.1,-109.5 96.2,-100.7 83.2,-103.4 				"/>
			</g>
		</g>
	</g>
</pattern>
<pattern  y="1000" width="141.2" height="152.6" patternUnits="userSpaceOnUse" id="SVGID_0000009892162898998504830" viewBox="0 -152.6 141.2 152.6" style="overflow:visible;">
	<g>
		<rect y="-152.6" class="st0" width="141.2" height="152.6"/>
		<g>
			<rect y="-152.6" class="st0" width="141.2" height="152.6"/>
			<g>
				<rect y="-152.6" class="st0" width="141.2" height="152.6"/>
				<polygon class="st1" points="4.4,-76.6 46.2,-118.4 35.8,-82.6 0,-44.4 				"/>
				<polygon class="st1" points="63.1,-105.1 94.6,-84 71.7,-42.1 				"/>
				<polygon class="st1" points="138.6,-109.5 132.5,-134.5 117.2,-130.3 				"/>
				<polygon class="st1" points="138.6,-64.4 103,-7.4 138.6,-23.1 				"/>
				<polygon class="st1" points="87.6,-130.1 118.5,-105.1 118.5,-68.1 				"/>
				<polygon class="st1" points="34.6,-145.7 5,-116.5 64.1,-142.7 				"/>
				<polygon class="st1" points="13.8,-36.3 47.2,-51.6 33.6,-27.1 3.2,-14.9 				"/>
				<polygon class="st1" points="54.6,-117 68.6,-140.5 72.6,-120.7 				"/>
				<polygon class="st1" points="77,-28.6 115.4,-50 111.7,-31.7 				"/>
				<polygon class="st1" points="94.6,-58.4 121.8,-64.4 119.9,-58.4 				"/>
				<polygon class="st1" points="103,-129.7 135.8,-107 103.1,-121.5 				"/>
				<polygon class="st1" points="103,-133.2 141.2,-152.6 115.4,-131.1 				"/>
				<polygon class="st1" points="91.6,-9 53.6,-27.3 84.9,0 				"/>
				<polygon class="st1" points="13.9,-110 23.8,-121 24.6,-110 16.2,-97.9 				"/>
				<polygon class="st1" points="23.1,-58.3 36.5,-68.1 13.9,-42.1 				"/>
				<polygon class="st1" points="49.4,-107 54.6,-89 43.4,-79.8 				"/>
				<polygon class="st1" points="41.6,-37.3 58.9,-55.3 77.4,-21.8 				"/>
				<polygon class="st1" points="78.9,-150.9 98.3,-147.3 84.5,-135 				"/>
				<polygon class="st1" points="28.1,-8.3 39.8,-19.6 47.2,-4.7 				"/>
				<polygon class="st1" points="49,-64.4 57.5,-76.2 57.5,-64.4 				"/>
				<polygon class="st1" points="127.9,-100.7 131.8,-79.8 125.1,-64.4 				"/>
				<polygon class="st1" points="80.1,-109.5 96.2,-100.7 83.2,-103.4 				"/>
			</g>
		</g>
	</g>
</pattern>
<pattern  y="1000" width="141.2" height="152.6" patternUnits="userSpaceOnUse" id="SVGID_0000013496843445835448724" viewBox="0 -152.6 141.2 152.6" style="overflow:visible;">
	<g>
		<rect y="-152.6" class="st0" width="141.2" height="152.6"/>
		<g>
			<rect y="-152.6" class="st0" width="141.2" height="152.6"/>
			<g>
				<rect y="-152.6" class="st0" width="141.2" height="152.6"/>
				<polygon class="st1" points="4.4,-76.6 46.2,-118.4 35.8,-82.6 0,-44.4 				"/>
				<polygon class="st1" points="63.1,-105.1 94.6,-84 71.7,-42.1 				"/>
				<polygon class="st1" points="138.6,-109.5 132.5,-134.5 117.2,-130.3 				"/>
				<polygon class="st1" points="138.6,-64.4 103,-7.4 138.6,-23.1 				"/>
				<polygon class="st1" points="87.6,-130.1 118.5,-105.1 118.5,-68.1 				"/>
				<polygon class="st1" points="34.6,-145.7 5,-116.5 64.1,-142.7 				"/>
				<polygon class="st1" points="13.8,-36.3 47.2,-51.6 33.6,-27.1 3.2,-14.9 				"/>
				<polygon class="st1" points="54.6,-117 68.6,-140.5 72.6,-120.7 				"/>
				<polygon class="st1" points="77,-28.6 115.4,-50 111.7,-31.7 				"/>
				<polygon class="st1" points="94.6,-58.4 121.8,-64.4 119.9,-58.4 				"/>
				<polygon class="st1" points="103,-129.7 135.8,-107 103.1,-121.5 				"/>
				<polygon class="st1" points="103,-133.2 141.2,-152.6 115.4,-131.1 				"/>
				<polygon class="st1" points="91.6,-9 53.6,-27.3 84.9,0 				"/>
				<polygon class="st1" points="13.9,-110 23.8,-121 24.6,-110 16.2,-97.9 				"/>
				<polygon class="st1" points="23.1,-58.3 36.5,-68.1 13.9,-42.1 				"/>
				<polygon class="st1" points="49.4,-107 54.6,-89 43.4,-79.8 				"/>
				<polygon class="st1" points="41.6,-37.3 58.9,-55.3 77.4,-21.8 				"/>
				<polygon class="st1" points="78.9,-150.9 98.3,-147.3 84.5,-135 				"/>
				<polygon class="st1" points="28.1,-8.3 39.8,-19.6 47.2,-4.7 				"/>
				<polygon class="st1" points="49,-64.4 57.5,-76.2 57.5,-64.4 				"/>
				<polygon class="st1" points="127.9,-100.7 131.8,-79.8 125.1,-64.4 				"/>
				<polygon class="st1" points="80.1,-109.5 96.2,-100.7 83.2,-103.4 				"/>
			</g>
		</g>
	</g>
</pattern>
<pattern  y="1000" width="141.2" height="152.6" patternUnits="userSpaceOnUse" id="SVGID_0000014432836072329995146" viewBox="0 -152.6 141.2 152.6" style="overflow:visible;">
	<g>
		<rect y="-152.6" class="st0" width="141.2" height="152.6"/>
		<g>
			<rect y="-152.6" class="st0" width="141.2" height="152.6"/>
			<g>
				<rect y="-152.6" class="st0" width="141.2" height="152.6"/>
				<polygon class="st1" points="4.4,-76.6 46.2,-118.4 35.8,-82.6 0,-44.4 				"/>
				<polygon class="st1" points="63.1,-105.1 94.6,-84 71.7,-42.1 				"/>
				<polygon class="st1" points="138.6,-109.5 132.5,-134.5 117.2,-130.3 				"/>
				<polygon class="st1" points="138.6,-64.4 103,-7.4 138.6,-23.1 				"/>
				<polygon class="st1" points="87.6,-130.1 118.5,-105.1 118.5,-68.1 				"/>
				<polygon class="st1" points="34.6,-145.7 5,-116.5 64.1,-142.7 				"/>
				<polygon class="st1" points="13.8,-36.3 47.2,-51.6 33.6,-27.1 3.2,-14.9 				"/>
				<polygon class="st1" points="54.6,-117 68.6,-140.5 72.6,-120.7 				"/>
				<polygon class="st1" points="77,-28.6 115.4,-50 111.7,-31.7 				"/>
				<polygon class="st1" points="94.6,-58.4 121.8,-64.4 119.9,-58.4 				"/>
				<polygon class="st1" points="103,-129.7 135.8,-107 103.1,-121.5 				"/>
				<polygon class="st1" points="103,-133.2 141.2,-152.6 115.4,-131.1 				"/>
				<polygon class="st1" points="91.6,-9 53.6,-27.3 84.9,0 				"/>
				<polygon class="st1" points="13.9,-110 23.8,-121 24.6,-110 16.2,-97.9 				"/>
				<polygon class="st1" points="23.1,-58.3 36.5,-68.1 13.9,-42.1 				"/>
				<polygon class="st1" points="49.4,-107 54.6,-89 43.4,-79.8 				"/>
				<polygon class="st1" points="41.6,-37.3 58.9,-55.3 77.4,-21.8 				"/>
				<polygon class="st1" points="78.9,-150.9 98.3,-147.3 84.5,-135 				"/>
				<polygon class="st1" points="28.1,-8.3 39.8,-19.6 47.2,-4.7 				"/>
				<polygon class="st1" points="49,-64.4 57.5,-76.2 57.5,-64.4 				"/>
				<polygon class="st1" points="127.9,-100.7 131.8,-79.8 125.1,-64.4 				"/>
				<polygon class="st1" points="80.1,-109.5 96.2,-100.7 83.2,-103.4 				"/>
			</g>
		</g>
	</g>
</pattern>
<pattern  y="1000" width="141.2" height="152.6" patternUnits="userSpaceOnUse" id="SVGID_0000017241803870568647531" viewBox="0 -152.6 141.2 152.6" style="overflow:visible;">
	<g>
		<rect y="-152.6" class="st0" width="141.2" height="152.6"/>
		<g>
			<rect y="-152.6" class="st0" width="141.2" height="152.6"/>
			<g>
				<rect y="-152.6" class="st0" width="141.2" height="152.6"/>
				<polygon class="st1" points="4.4,-76.6 46.2,-118.4 35.8,-82.6 0,-44.4 				"/>
				<polygon class="st1" points="63.1,-105.1 94.6,-84 71.7,-42.1 				"/>
				<polygon class="st1" points="138.6,-109.5 132.5,-134.5 117.2,-130.3 				"/>
				<polygon class="st1" points="138.6,-64.4 103,-7.4 138.6,-23.1 				"/>
				<polygon class="st1" points="87.6,-130.1 118.5,-105.1 118.5,-68.1 				"/>
				<polygon class="st1" points="34.6,-145.7 5,-116.5 64.1,-142.7 				"/>
				<polygon class="st1" points="13.8,-36.3 47.2,-51.6 33.6,-27.1 3.2,-14.9 				"/>
				<polygon class="st1" points="54.6,-117 68.6,-140.5 72.6,-120.7 				"/>
				<polygon class="st1" points="77,-28.6 115.4,-50 111.7,-31.7 				"/>
				<polygon class="st1" points="94.6,-58.4 121.8,-64.4 119.9,-58.4 				"/>
				<polygon class="st1" points="103,-129.7 135.8,-107 103.1,-121.5 				"/>
				<polygon class="st1" points="103,-133.2 141.2,-152.6 115.4,-131.1 				"/>
				<polygon class="st1" points="91.6,-9 53.6,-27.3 84.9,0 				"/>
				<polygon class="st1" points="13.9,-110 23.8,-121 24.6,-110 16.2,-97.9 				"/>
				<polygon class="st1" points="23.1,-58.3 36.5,-68.1 13.9,-42.1 				"/>
				<polygon class="st1" points="49.4,-107 54.6,-89 43.4,-79.8 				"/>
				<polygon class="st1" points="41.6,-37.3 58.9,-55.3 77.4,-21.8 				"/>
				<polygon class="st1" points="78.9,-150.9 98.3,-147.3 84.5,-135 				"/>
				<polygon class="st1" points="28.1,-8.3 39.8,-19.6 47.2,-4.7 				"/>
				<polygon class="st1" points="49,-64.4 57.5,-76.2 57.5,-64.4 				"/>
				<polygon class="st1" points="127.9,-100.7 131.8,-79.8 125.1,-64.4 				"/>
				<polygon class="st1" points="80.1,-109.5 96.2,-100.7 83.2,-103.4 				"/>
			</g>
		</g>
	</g>
</pattern>
<pattern  y="1000" width="141.2" height="152.6" patternUnits="userSpaceOnUse" id="SVGID_1_" viewBox="0 -152.6 141.2 152.6" style="overflow:visible;">
	<g>
		<rect y="-152.6" class="st0" width="141.2" height="152.6"/>
		<g>
			<rect y="-152.6" class="st0" width="141.2" height="152.6"/>
			<g>
				<rect y="-152.6" class="st0" width="141.2" height="152.6"/>
				<polygon class="st1" points="4.4,-76.6 46.2,-118.4 35.8,-82.6 0,-44.4 				"/>
				<polygon class="st1" points="63.1,-105.1 94.6,-84 71.7,-42.1 				"/>
				<polygon class="st1" points="138.6,-109.5 132.5,-134.5 117.2,-130.3 				"/>
				<polygon class="st1" points="138.6,-64.4 103,-7.4 138.6,-23.1 				"/>
				<polygon class="st1" points="87.6,-130.1 118.5,-105.1 118.5,-68.1 				"/>
				<polygon class="st1" points="34.6,-145.7 5,-116.5 64.1,-142.7 				"/>
				<polygon class="st1" points="13.8,-36.3 47.2,-51.6 33.6,-27.1 3.2,-14.9 				"/>
				<polygon class="st1" points="54.6,-117 68.6,-140.5 72.6,-120.7 				"/>
				<polygon class="st1" points="77,-28.6 115.4,-50 111.7,-31.7 				"/>
				<polygon class="st1" points="94.6,-58.4 121.8,-64.4 119.9,-58.4 				"/>
				<polygon class="st1" points="103,-129.7 135.8,-107 103.1,-121.5 				"/>
				<polygon class="st1" points="103,-133.2 141.2,-152.6 115.4,-131.1 				"/>
				<polygon class="st1" points="91.6,-9 53.6,-27.3 84.9,0 				"/>
				<polygon class="st1" points="13.9,-110 23.8,-121 24.6,-110 16.2,-97.9 				"/>
				<polygon class="st1" points="23.1,-58.3 36.5,-68.1 13.9,-42.1 				"/>
				<polygon class="st1" points="49.4,-107 54.6,-89 43.4,-79.8 				"/>
				<polygon class="st1" points="41.6,-37.3 58.9,-55.3 77.4,-21.8 				"/>
				<polygon class="st1" points="78.9,-150.9 98.3,-147.3 84.5,-135 				"/>
				<polygon class="st1" points="28.1,-8.3 39.8,-19.6 47.2,-4.7 				"/>
				<polygon class="st1" points="49,-64.4 57.5,-76.2 57.5,-64.4 				"/>
				<polygon class="st1" points="127.9,-100.7 131.8,-79.8 125.1,-64.4 				"/>
				<polygon class="st1" points="80.1,-109.5 96.2,-100.7 83.2,-103.4 				"/>
			</g>
		</g>
	</g>
</pattern>
<pattern  y="1000" width="141.2" height="152.6" patternUnits="userSpaceOnUse" id="d" viewBox="0 -152.6 141.2 152.6" style="overflow:visible;">
	<g>
		<rect y="-152.6" class="st0" width="141.2" height="152.6"/>
		<g>
			<rect y="-152.6" class="st0" width="141.2" height="152.6"/>
			<g>
				<rect y="-152.6" class="st0" width="141.2" height="152.6"/>
				<polygon class="st1" points="4.4,-76.6 46.2,-118.4 35.8,-82.6 0,-44.4 				"/>
				<polygon class="st1" points="63.1,-105.1 94.6,-84 71.7,-42.1 				"/>
				<polygon class="st1" points="138.6,-109.5 132.5,-134.5 117.2,-130.3 				"/>
				<polygon class="st1" points="138.6,-64.4 103,-7.4 138.6,-23.1 				"/>
				<polygon class="st1" points="87.6,-130.1 118.5,-105.1 118.5,-68.1 				"/>
				<polygon class="st1" points="34.6,-145.7 5,-116.5 64.1,-142.7 				"/>
				<polygon class="st1" points="13.8,-36.3 47.2,-51.6 33.6,-27.1 3.2,-14.9 				"/>
				<polygon class="st1" points="54.6,-117 68.6,-140.5 72.6,-120.7 				"/>
				<polygon class="st1" points="77,-28.6 115.4,-50 111.7,-31.7 				"/>
				<polygon class="st1" points="94.6,-58.4 121.8,-64.4 119.9,-58.4 				"/>
				<polygon class="st1" points="103,-129.7 135.8,-107 103.1,-121.5 				"/>
				<polygon class="st1" points="103,-133.2 141.2,-152.6 115.4,-131.1 				"/>
				<polygon class="st1" points="91.6,-9 53.6,-27.3 84.9,0 				"/>
				<polygon class="st1" points="13.9,-110 23.8,-121 24.6,-110 16.2,-97.9 				"/>
				<polygon class="st1" points="23.1,-58.3 36.5,-68.1 13.9,-42.1 				"/>
				<polygon class="st1" points="49.4,-107 54.6,-89 43.4,-79.8 				"/>
				<polygon class="st1" points="41.6,-37.3 58.9,-55.3 77.4,-21.8 				"/>
				<polygon class="st1" points="78.9,-150.9 98.3,-147.3 84.5,-135 				"/>
				<polygon class="st1" points="28.1,-8.3 39.8,-19.6 47.2,-4.7 				"/>
				<polygon class="st1" points="49,-64.4 57.5,-76.2 57.5,-64.4 				"/>
				<polygon class="st1" points="127.9,-100.7 131.8,-79.8 125.1,-64.4 				"/>
				<polygon class="st1" points="80.1,-109.5 96.2,-100.7 83.2,-103.4 				"/>
			</g>
		</g>
	</g>
</pattern>
<g id="Layer_8">
	<polygon class="st2" points="861.5,318.5 861.4,328.9 860.1,328.9 860.1,332.1 851.3,339.5 855.6,341.7 875.7,341.8 886.9,350.4 
		907,350.4 907,332.1 921.4,332.4 920.9,322.8 907,323.5 899.3,318.1 883.1,318 875.6,314.4 861.9,313.8 859.2,318.5 	"/>
</g>
<g id="Layer_5">
	<polygon class="st3" points="886.9,350.4 907,350.4 907,343 876.8,342.6 	"/>
	<polygon class="st3" points="884.8,339.8 897.7,332.1 907,332.1 907,339.8 	"/>
</g>
<g id="Layer_10">
	<rect x="861.4" y="318.4" class="st3" width="15.6" height="10.6"/>
	<rect x="877" y="325" class="st4" width="0.3" height="4"/>
	<polygon class="st5" points="861.4,321.3 867.8,321.4 867.8,328.6 861.4,328.6 	"/>
	<polygon class="st5" points="870.4,319.9 870.4,327.9 877,327.9 877,319.7 	"/>
	<polygon class="st5" points="870.1,319.8 870.1,328.6 868.2,328.6 868.1,321 861.4,320.8 861.4,319.9 	"/>
</g>
<g id="Layer_7">
	<path class="st6" d="M913.9,332.4l-0.5-0.5l-0.2-1.4l0.4-2.7c0,0,0-1,0-1.2c0-0.2,0.4-1.5,0.4-1.5l0.4-1.3l0.7-0.4l1.4,0.4l1.4,0.9
		l2.1,1.3l0.4,3.6c0,0,0,0.4,0,1.3c0,0.9-0.7,1.8-0.7,1.8l-2.1-0.4L913.9,332.4z"/>
	<path class="st7" d="M914.3,323.8l-0.7,2.8l0,1.2l-0.4,2.7l0.2,1.4l0.5,0.5l3.3-0.1l-0.5-1.4c0,0,0-1.3,0-1.5s0.4-1.6,0.4-1.6
		s0.4-2.2,0.4-2c0.1,0.2-0.6-1.1-0.6-1.1l-0.9-1l-1-0.3"/>
	<path class="st8" d="M914.2,324l0.8,0.2l1.1,0.4c0,0,0,1.6,0,1.5s-0.9,1.5-0.9,1.5l0.6,1.9l0.4,1.3h-0.2l0.2,1.4l-2.1,0.1l-0.3-1.1
		v-1.2l-0.2-0.6l0.2-1.7v-1.3l0.2-0.6L914.2,324z"/>
	<polygon class="st8" points="915.7,325.5 916.4,328.7 915.7,330 914.7,330.2 914.6,326.4 	"/>
	<path class="st8" d="M920.2,328.8c0,0-0.4,0.3-0.7,0.3s-1.8,1.8-1.8,1.8l0.4,0.9l0.4,0.4l0.3,0.4l1,0.4l0.3-1.7l0.4-1.2
		L920.2,328.8z"/>
	<polygon class="st9" points="918.1,326.9 918,327.1 916.9,328.8 917.1,330.4 917.4,331.8 917.4,332.2 918.1,332.7 919,332.7 
		918.1,330.9 918.1,329.1 919.5,328.7 919.9,327.3 919.5,326 918.4,326.4 	"/>
	<polygon class="st9" points="916.7,332.3 916.4,331.3 916.4,331 916,329.9 915.7,330 915.5,330.8 915.4,331.5 915.5,332.3 
		915.8,332.7 	"/>
	<path class="st10" d="M919.4,332.9l-0.3-1.1l-0.7-1.2c0,0,1.3-0.8,1.2-0.7c-0.1,0.1,0.7,0.8,0.7,0.8v1.1l-0.5,1.5L919.4,332.9z"/>
	<path class="st10" d="M918.1,324.2v1.5c0,0,0.2,0.2,0.3,0.7c0.1,0.5,0.4,1.4,0.4,1.4s1.1,0,1.2,0.2c0.2,0.2,0.9-0.2,0.9-0.2
		l-0.4-1.5l-0.6-1l-1.8-1.3"/>
	<path class="st10" d="M916.4,323.1c0,0,0.6,1.5,0.5,1.6c-0.1,0,0.6,0.9,0.6,0.9c0,0,0.9,0.5,0.9,0.5l-0.6-1.8c0,0-0.9-0.5-0.8-1.1
		C917.1,322.4,916.4,323.1,916.4,323.1z"/>
	<path class="st11" d="M916.9,325.5l1.1-0.5l0.5,1v0.9l-0.8,1l-0.7,1.7c0,0,0.2,1,0.1,1.2s0.5,0.9,0.5,0.9v0.6h-0.7l-0.2-1.8
		l-0.1-1.1l0.4-1.5l0.1-1L916.9,325.5z"/>
	<polygon class="st11" points="915.8,323.3 916.6,325 917.1,324.9 916.6,323.6 	"/>
	<polygon class="st11" points="919.9,327.6 919.4,328.2 918.1,328.6 917.8,330.4 919.1,329.5 920.3,329 920.2,327.8 	"/>
	<g>
		<rect x="914.1" y="324.2" class="st12" width="0.7" height="8.1"/>
		<rect x="914.1" y="324.2" class="st13" width="0.5" height="8.1"/>
		<rect x="914.1" y="324.2" class="st14" width="0.4" height="8.1"/>
		<rect x="914.1" y="324.2" class="st15" width="0.2" height="8.1"/>
	</g>
	<polygon class="st7" points="915,324.2 914.7,324.4 914.4,324.8 914.3,325.1 914.1,325.7 914.1,326 913.9,326.4 913.6,326.4 
		913.7,326.1 913.9,325 914.1,324.2 914.2,324 914.9,324.2 	"/>
	<polygon class="st4" points="859.2,318.5 862.7,312.4 863.8,313.3 875.9,314.3 879.3,318.3 	"/>
	<polygon class="st16" points="860.2,316.8 863.1,316.1 861.5,318.5 859.2,318.5 	"/>
	<polygon class="st16" points="867.1,313.6 868,315.8 868.8,313.7 	"/>
	<polygon class="st16" points="871.9,316.5 875,315.1 874.3,316.5 	"/>
	<polygon class="st16" points="876.8,318.4 875.9,317.3 877.7,317.2 879.3,318.3 	"/>
	<polygon class="st16" points="868.5,317.1 870.7,315 870.1,317.2 868.6,318.4 	"/>
	<polygon class="st16" points="863.8,318.5 865.8,317.5 867.1,318.5 	"/>
	<polygon class="st16" points="863.5,313.7 865.4,316.5 866.2,314.5 865.6,313.5 863.8,313.3 863.5,313 	"/>
	<polygon class="st16" points="860.9,315.5 863,314.8 862.6,312.6 	"/>
	<polygon class="st16" points="871.7,314 871.3,315.8 874.2,314.2 	"/>
	<polygon class="st16" points="870.7,318.4 873.6,317.3 875.6,318.4 	"/>
	<polygon class="st16" points="877.8,316.5 875.6,316.7 876.1,314.5 	"/>
</g>
<g id="Layer_4_00000176735144511697888650000009636714793261200050_">
	<rect x="869.6" y="328.7" class="st5" width="6.3" height="0.3"/>
	<polygon class="st4" points="860.1,332.4 860.1,329.2 878,329.3 882,332.6 	"/>
	<polygon class="st4" points="851,339.8 860.1,332.1 907.4,332.4 917.8,332.1 917.8,333.2 870.6,333.5 860.8,333.5 852.5,340.3 	"/>
	<polygon class="st4" points="851.3,339.5 855.7,341.7 875.8,341.8 886.9,350.4 885.6,350.4 876.6,342.6 855.9,342.6 850.9,339.8 	
		"/>
	<polygon class="st4" points="883.1,333 884.4,333.7 907.4,333.7 907.4,332.9 	"/>
	<polyline class="st4" points="875.4,342.6 907.4,343.1 907.4,342.3 875.8,341.9 	"/>
	<polyline class="st4" points="879.2,340.3 907.4,340.6 907.4,339.8 879,339.8 878.5,339.8 875.7,342 876.1,342.1 	"/>
	<rect x="881.5" y="332.1" class="st17" width="36.4" height="0.4"/>
	<polygon class="st17" points="881.5,332.1 878,328.9 860.1,328.9 860.1,329.2 877.8,329.4 881.5,332.4 	"/>
	<polygon class="st17" points="875.9,341.9 878.7,339.9 907.4,340 907.4,339.8 878.5,339.8 875.6,341.9 	"/>
	<polygon class="st17" points="876.6,342.6 875.5,341.8 875.8,341.8 886.9,350.4 907,350.4 907,350.6 886.8,350.6 	"/>
	<polyline class="st17" points="875.8,341.8 855.6,341.7 851.3,339.5 851,339.8 855.9,342.5 876.4,342.2 	"/>
	<polygon class="st17" points="851,339.8 860.1,332.1 881.6,332.1 881.6,332.4 860.3,332.4 851.2,339.9 	"/>
	<polygon class="st4" points="860.1,332.4 860.1,329.2 878,329.3 882,332.6 	"/>
	<polygon class="st4" points="851,339.8 860.1,332.1 907.4,332.4 917.8,332.1 917.8,333.2 870.6,333.5 860.8,333.5 852.5,340.3 	"/>
	<polygon class="st4" points="851.3,339.5 855.7,341.7 875.7,341.8 886.9,350.4 886.1,350.4 875.5,342.7 856,342.5 851,339.8 	"/>
	<polygon class="st4" points="882.7,333 884,333.7 907.4,333.7 907.4,332.9 	"/>
	<polygon class="st4" points="875.4,342.6 907.4,343.1 907.4,342.3 875.8,341.9 	"/>
	<polygon class="st4" points="878.3,340.8 879.2,340.3 907.4,340.6 907.4,339.8 879,339.8 878.5,339.8 875.8,341.9 876.1,342.1 	"/>
	<rect x="881.5" y="332.1" class="st17" width="36.4" height="0.4"/>
	<polygon class="st17" points="881.5,332.1 878,328.9 860.1,328.9 860.1,329.2 877.8,329.4 881.5,332.4 	"/>
	<polygon class="st17" points="875.8,341.8 878.7,339.9 907.4,340 907.4,339.8 878.5,339.8 875.5,341.8 	"/>
	<polygon class="st17" points="876.6,342.6 875.5,341.8 875.8,341.8 886.9,350.4 907,350.4 907,350.6 886.8,350.6 	"/>
	<polygon class="st17" points="851,339.8 860.1,332.1 881.6,332.1 881.6,332.4 860.3,332.4 851.2,339.9 	"/>
	<polyline class="st17" points="851.3,339.5 850.9,339.9 855.9,342.7 876.9,342.7 875.8,341.8 855.7,341.7 851.3,339.5 	"/>
</g>
<g id="Layer_6">
	<g>
		<rect x="908.8" y="323.6" class="st12" width="0.7" height="8.6"/>
		<rect x="908.8" y="323.6" class="st13" width="0.5" height="8.6"/>
		<rect x="908.8" y="323.6" class="st14" width="0.4" height="8.6"/>
		<rect x="908.8" y="323.6" class="st15" width="0.2" height="8.6"/>
	</g>
	<g>
		<polygon class="st12" points="884.2,321.8 884.7,321.3 878.2,314.6 877.7,315.1 		"/>
		<polygon class="st13" points="884.2,321.8 884.6,321.5 878.1,314.8 877.7,315.1 		"/>
		<polygon class="st14" points="884.2,321.8 884.4,321.6 878,314.9 877.7,315.1 		"/>
		<polygon class="st15" points="884.2,321.8 884.3,321.7 877.8,315 877.7,315.1 		"/>
	</g>
	<g>
		<polygon class="st12" points="884.1,321.4 884.6,321.9 888.5,317.8 888,317.3 		"/>
		<polygon class="st13" points="884.1,321.4 884.5,321.8 888.4,317.7 888,317.3 		"/>
		<polygon class="st14" points="884.1,321.4 884.3,321.7 888.3,317.6 888,317.3 		"/>
		<polygon class="st15" points="884.1,321.4 884.2,321.5 888.2,317.5 888,317.3 		"/>
	</g>
	<g>
		<polygon class="st12" points="897.9,321.5 898.4,321 895,317.5 894.5,318 		"/>
		<polygon class="st13" points="897.9,321.5 898.3,321.1 894.9,317.7 894.5,318 		"/>
		<polygon class="st14" points="897.9,321.5 898.1,321.3 894.8,317.8 894.5,318 		"/>
		<polygon class="st15" points="897.9,321.5 898,321.4 894.7,317.9 894.5,318 		"/>
	</g>
	<g>
		<polygon class="st12" points="897.8,321.1 898.3,321.6 901.9,317.9 901.4,317.4 		"/>
		<polygon class="st13" points="897.8,321.1 898.2,321.5 901.8,317.8 901.4,317.4 		"/>
		<polygon class="st14" points="897.8,321.1 898,321.3 901.6,317.6 901.4,317.4 		"/>
		<polygon class="st15" points="897.8,321.1 897.9,321.2 901.5,317.5 901.4,317.4 		"/>
	</g>
	<g>
		<rect x="884.1" y="333.7" class="st12" width="0.7" height="6.1"/>
		<rect x="884.1" y="333.7" class="st13" width="0.5" height="6.1"/>
		<rect x="884.1" y="333.7" class="st14" width="0.4" height="6.1"/>
		<rect x="884.1" y="333.7" class="st15" width="0.2" height="6.1"/>
	</g>
	<g>
		<rect x="869.4" y="333.5" class="st12" width="0.7" height="8.5"/>
		<rect x="869.4" y="333.5" class="st13" width="0.5" height="8.5"/>
		<rect x="869.4" y="333.5" class="st14" width="0.4" height="8.5"/>
		<rect x="869.4" y="333.5" class="st15" width="0.2" height="8.5"/>
	</g>
	<g>
		<rect x="877.1" y="333.4" class="st12" width="0.7" height="8.5"/>
		<rect x="877.1" y="333.4" class="st13" width="0.5" height="8.5"/>
		<rect x="877.1" y="333.4" class="st14" width="0.4" height="8.5"/>
		<rect x="877.1" y="333.4" class="st15" width="0.2" height="8.5"/>
	</g>
	<g>
		<rect x="861.3" y="333.5" class="st12" width="0.7" height="8.4"/>
		<rect x="861.3" y="333.5" class="st13" width="0.5" height="8.4"/>
		<rect x="861.3" y="333.5" class="st14" width="0.4" height="8.4"/>
		<rect x="861.3" y="333.5" class="st15" width="0.2" height="8.4"/>
	</g>
	<g>
		<rect x="884.1" y="317.7" class="st12" width="0.7" height="14.5"/>
		<rect x="884.1" y="317.7" class="st13" width="0.5" height="14.5"/>
		<rect x="884.1" y="317.7" class="st14" width="0.4" height="14.5"/>
		<rect x="884.1" y="317.7" class="st15" width="0.2" height="14.5"/>
	</g>
	<g>
		<rect x="897.7" y="317.9" class="st12" width="0.7" height="14.3"/>
		<rect x="897.7" y="317.9" class="st13" width="0.5" height="14.3"/>
		<rect x="897.7" y="317.9" class="st14" width="0.4" height="14.3"/>
		<rect x="897.7" y="317.9" class="st15" width="0.2" height="14.3"/>
	</g>
</g>
<g id="Layer_1">
	<g id="Layer_2_00000065785446052404265250000010461904818774371518_" class="st18">
		
			<image style="display:inline;overflow:visible;enable-background:new    ;" width="1692" height="824" xlink:href="CD54E09A.jpg"  transform="matrix(0.1318 0 0 0.1318 735.5043 269.2906)">
		</image>
	</g>
	<g id="a">
		<g id="b">
			<path class="st19" d="M278.5,831.1L278.5,831.1l0.2,62.6l0,0L278.5,831.1z"/>
			<polygon class="st19" points="315.4,882.9 316.3,824.6 316.3,824.6 			"/>
			<polygon class="st19" points="697,881.8 698,839.2 698.1,839.4 697,881.9 			"/>
			<path class="st19" d="M738,403.6c-2.6-13.4-3.5-24.2-3.4-32.6c0.1,8.4,1.1,18.8,3.7,31.8C738.7,402.9,738.5,403.2,738,403.6z"/>
			<path class="st19" d="M864.8,57.2c-0.7-1.6-0.9-3.6-0.8-5.8c0.1,1.3,0.3,2.4,0.8,3.4c2.2,4.8,7.9,15.4,7.6,31.4
				C872.2,71.6,866.9,61.8,864.8,57.2z"/>
			<path class="st19" d="M870.8,164.7c0,0-11.2-25.8-10.3-35.1c0.8,10.7,10.3,32.7,10.3,32.7l36.5,57.9l-1,0.9L870.8,164.7z"/>
			<polygon class="st19" points="934.7,123.7 934.7,123.7 935.3,41.6 935.3,41.6 			"/>
			<polygon class="st19" points="934,775.2 934,775.1 935.5,576.1 946.8,545.3 947.2,546.5 935.5,578.5 			"/>
			<polygon class="st19" points="934.3,510.8 934.3,510.8 935.4,194.4 958.7,160.2 959.6,161.4 935.4,196.8 			"/>
			<path class="st19" d="M987.9,900c-0.9,0-29.8,44.9-29.8,44.9l-23.1,32l-21.6-7l-38.2-40l-72.7-0.9c0,0-10.5,19.8-10.5,20.3
				c-0.3-0.1-5.7-1-5.9-1c-0.3,0-8.3-19.8-8.3-19.8l-73.6,0.1l-7,8.7l-1.7-0.5l-6-8h-10.4l-8.6,30.7l-0.5,8.4l-5.2-0.7l-1-4
				L652,928.8l-49.9-0.1l-15,46.9c0,0-7.1-3.7-7.4-3.9c-0.3-0.1-18.2-42.6-18.2-42.6l-32.4-0.5l-8.5,10.9l-2.2-1l-8.6-10l-22,0.2
				l-7.6,33.6l-5.9-33.7h-94.8c0,0-2.3,1.6-4.6,2.6c-2.3,1-5.7-2.5-5.7-2.5H332l-15.4,8l-15-7.9l-99.7-0.1l-3.5,2.6l-3.5-2.5h-55.5
				v-2.4H195l3.5,2.5l3.5-2.6l99.7,0.1l15,7.9l15.4-8h37.2c0,0,3.4,3.5,5.7,2.5c2.3-1,4.6-2.6,4.6-2.6h94.8l5.9,33.7l7.6-33.6
				l22-0.2l8.6,10l2.2,1l8.5-10.9l32.4,0.4c0,0,17.9,42.5,18.2,42.6s7.4,3.9,7.4,3.9l15-46.9l49.9,0.1l11.8,34.4l1,4l5.2,0.7
				l0.5-8.4l8.6-30.7h10.4l6,8l1.7,0.5l7-8.7l73.6-0.1c0,0,8,19.7,8.3,19.7s5.6,0.9,5.9,1c0-0.5,10.5-20.3,10.5-20.3l72.7,0.9
				l38.2,40l21.6,7l23.1-32c0,0,23.3-36.3,28.7-43.7C987.6,899.6,988,900,987.9,900z"/>
			<g>
				<path class="st19" d="M520.8,537.6c0,0.4,0.1,0.9,0.1,1.3c-0.1,0.7-0.1,1.8-0.1,3.1C520.7,540.3,520.7,538.8,520.8,537.6z"/>
				<path class="st19" d="M653.2,512.3c0-0.9,0.1-3.1,0.9-6.3c0.1,0.4,0.2,0.8,0.3,1.2c-0.6,2.3-0.9,4.1-1.1,5.5
					C653.2,512.5,653.2,512.4,653.2,512.3z"/>
				<path class="st19" d="M860.4,129.6c-0.1-2.1,0-3.7,0.7-4.7c8.3-15.1,11.1-28,11.3-38.6c0.2,11-2.4,24.7-11.3,41
					C860.7,127.8,860.5,128.6,860.4,129.6z"/>
				<path class="st19" d="M922,673.3c0-2.4,0-5.1,0-7.8C922.1,668.2,922,670.8,922,673.3z"/>
				<path class="st19" d="M922.1,665.5c0-1.6,0-3.1,0-4.7C922.1,662.3,922.1,663.9,922.1,665.5z"/>
				<path class="st19" d="M922.1,660.1c0-1.7,0-3.5,0-5.2C922.1,656.7,922.1,658.4,922.1,660.1z"/>
				<path class="st19" d="M864.1,51.4c-0.6-8.9,6.5-23.2,6.5-23.2l8.5-4.4l3.6,15.1l52.6,0.2v2.4l-52.6-0.2l-3.6-15.1l-8.5,4.4
					C870.6,30.6,864.6,42.6,864.1,51.4z"/>
				<polygon class="st19" points="934.3,510.8 947.2,544.1 946.8,545.3 934.3,513.2 				"/>
				<polygon class="st19" points="958.7,160.2 934.7,126.1 934.7,123.7 959.6,159 				"/>
				<path class="st19" d="M987.9,897.6c-0.1,0-0.5,0.5-1.1,1.3c-6.8-6.2-42.8-36.7-42.8-36.7l-10-84.7v-2.3l9.9,84.6
					C944,859.8,988.8,897.6,987.9,897.6z"/>
				<path class="st19" d="M76.6,933.6l6-8l11.3-0.4v-18.5c0,0-17.1-24.4-17.7-24.5s0-132.5,0-132.5s2.3-44.7,45.7-51.8h61.4
					c0,0,5.7,15.9,6.5,16.2s19.9-14.6,19.9-14.6l65.2,11l12.5,13.1l19.6-19.3l65.2-6.4l10.4,25.1l-4.5,48.5l11.3,13.7
					c0,0,14.3-14.9,17.9-12.8s2.4-44.4,2.4-44.4l11.9-30.2h51.2V720c0,0,15.8,19.9,16.7,20.8s22.9-18.8,22.9-18.8v-25.9l22.6,1.5
					l19.3,12.2l19.3,65.8l11.6,4.5l13.1-24.1l-3.3-18.8l12.2-29.8l-3-7.1l24.4,9.2l31.3-12.2l6.3,48.8l17-5.1l18.5-39.9l21.1,8
					l45.2-11l16.4,28v68.5l8.9,39l10.1,3.3l11-38.1c0,0,10.4-109.5,12.5-112.8S812,674.1,812,674.1l-0.3-10.4l-4.5-3.6l-9.8-28h-9.8
					l-11.9,29.5l-33.6,8.9l-44.6-19.1l-4.8-42l-17.3,3l-21.1,46.1c0,0-51.5,15.5-79.5,11.3c-3.9-1.8-14.6-17-14.6-17l-25.8,1.8
					l-17,15.4l-64.3,0.1l-8.1-76.6l-4.8-30.4l-23.8-16.7l-26.8,16.4c0,0-14.3,87.8-23.2,92c0,0-2.5,12.2-23.4,9.7
					c-3.1-0.6-14.4-35.1-14.4-35.1l-11.3-12.5l-10.9,11.9l-10,40.5c0,0-25.2,8.2-43.8-7.1c0.3-2.8,9.7-59.6,10.5-59.8
					s-20.2-50.8-20.2-50.8l-6.7,2.4l-12.1,26.6l0.4,11.5L205,658.5c0,0-13.8,14.4-32.4,11.5c-3.9-0.4-54.5-0.6-54.5-0.6l-15.8-23.2
					L91,606.3c0,0,22.1-29.4,0.5-79.8c-2.6-3,9.1-140.7,9.3-140.1s-12.7-67.1-12.7-67.1l44.5-82.4l39.1,8.9l13.3,38.9l17.5-38.1
					l46-11.5l16.9,22.4c0,0-6.4,25,2.8,61.5c7.1,9.1-4.8,49.2-4.8,49.2l28.6,21l45.8-14.3l-39.5-17.3c0,0,2-76.2,1.2-76.6
					s28.2-27,28.2-27l15.5-56.2l-4-19.2l22.8-22.4h12.9l27.2,18.9l31.9-40.7l33.5,19.2l27.8-22.2l74.8-11.5l57.4,9.5l97.8-13.9
					l29.9,18.6l34.2,0.7c0,0,14.4,10.1,13.8,10.4s11.8-12.4,11.8-12.4L825.7,98L814,61.9c0,0,2.1-22,2.1-22.9s-10.4-23-10.4-23
					s-5.4,4.2-4.5,3.9s-8,25.9-8,25.9L58,46.4v134L37.4,219v33l21.1,33l0.6,321.5L47.5,647L58,682.5l-27.4,14.3l28.3,18.8L59.5,924
					l10.1,1.6l4,8.1L76.6,933.6L76.6,933.6z"/>
				<polygon class="st19" points="689.8,306.7 716.3,261.9 739.8,233.5 761.4,243.3 774.6,233.5 790.8,230.5 787.7,215.2 
					749.5,184.1 703.1,199.1 692.4,194.1 682.3,195.3 665.6,178.5 643.6,202.1 552.5,202.5 552.5,193.3 534,180.6 519.2,193.1 
					511,194.3 503.7,200.1 494.8,200.1 480.3,205.4 472.3,200.9 452.7,209.8 441.8,199.9 432.4,214.8 432.4,232.4 474.9,247.7 
					472,255.1 488.4,312.8 509.5,298.5 527.7,317.9 536,333.6 550.6,323.8 559.8,297.9 567.9,262.8 584.2,228.6 606.6,242.6 
					611.6,256 641.1,233.6 658.4,233 672.4,243.2 672.1,263.7 673.3,274.7 684.6,297.6 686.6,307.4 				"/>
			</g>
			<g id="c">
				
					<pattern  id="SVGID_00000003079808193594860400000013782339207692562360_" xlink:href="#SVGID_1_" patternTransform="matrix(1 0 0 1 -221.5024 17806.6309)">
				</pattern>
				<path style="fill:url(#SVGID_00000003079808193594860400000013782339207692562360_);" d="M520.8,537.6c0,0.4,0.1,0.9,0.1,1.3
					c-0.1,0.7-0.1,1.8-0.1,3.1C520.7,540.3,520.7,538.8,520.8,537.6z"/>
				
					<pattern  id="SVGID_00000143579380049110712160000007127202789956843155_" xlink:href="#SVGID_0000017241803870568647531" patternTransform="matrix(1 0 0 1 -221.5024 17806.6309)">
				</pattern>
				<path style="fill:url(#SVGID_00000143579380049110712160000007127202789956843155_);" d="M653.2,512.3c0-0.9,0.1-3.1,0.9-6.3
					c0.1,0.4,0.2,0.8,0.3,1.2c-0.6,2.3-0.9,4.1-1.1,5.5C653.2,512.5,653.2,512.4,653.2,512.3z"/>
				
					<pattern  id="SVGID_00000066517976257092371150000009329587859925779098_" xlink:href="#SVGID_0000014432836072329995146" patternTransform="matrix(1 0 0 1 -221.5024 17806.6309)">
				</pattern>
				<path style="fill:url(#SVGID_00000066517976257092371150000009329587859925779098_);" d="M860.4,129.6c-0.1-2.1,0-3.7,0.7-4.7
					c8.3-15.1,11.1-28,11.3-38.6c0.2,11-2.4,24.7-11.3,41C860.7,127.8,860.5,128.6,860.4,129.6z"/>
				
					<pattern  id="SVGID_00000026852639559038867220000008410364467812511131_" xlink:href="#SVGID_0000008884611333030316368" patternTransform="matrix(1 0 0 1 -221.5024 17806.6309)">
				</pattern>
				<path style="fill:url(#SVGID_00000026852639559038867220000008410364467812511131_);" d="M922,673.3c0-2.4,0-5.1,0-7.8
					C922.1,668.2,922,670.8,922,673.3z"/>
				
					<pattern  id="SVGID_00000131345886815257277210000002607462752726543233_" xlink:href="#SVGID_0000013496843445835448724" patternTransform="matrix(1 0 0 1 -221.5024 17806.6309)">
				</pattern>
				<path style="fill:url(#SVGID_00000131345886815257277210000002607462752726543233_);" d="M922.1,665.5c0-1.6,0-3.1,0-4.7
					C922.1,662.3,922.1,663.9,922.1,665.5z"/>
				
					<pattern  id="SVGID_00000003100610766087234530000000670008163031801770_" xlink:href="#SVGID_0000009459542717841438356" patternTransform="matrix(1 0 0 1 -221.5024 17806.6309)">
				</pattern>
				<path style="fill:url(#SVGID_00000003100610766087234530000000670008163031801770_);" d="M922.1,660.1c0-1.7,0-3.5,0-5.2
					C922.1,656.7,922.1,658.4,922.1,660.1z"/>
				
					<pattern  id="SVGID_00000152970965434237854050000009026328486513862313_" xlink:href="#SVGID_0000007156023135877645245" patternTransform="matrix(1 0 0 1 -221.5024 17806.6309)">
				</pattern>
				<path style="fill:url(#SVGID_00000152970965434237854050000009026328486513862313_);" d="M864.1,51.4
					c-0.6-8.9,6.5-23.2,6.5-23.2l8.5-4.4l3.6,15.1l52.6,0.2v2.4l-52.6-0.2l-3.6-15.1l-8.5,4.4C870.6,30.6,864.6,42.6,864.1,51.4z"/>
				
					<pattern  id="SVGID_00000044877158404539998870000011928834309709034627_" xlink:href="#SVGID_0000009530390201640683627" patternTransform="matrix(1 0 0 1 -221.5024 17806.6309)">
				</pattern>
				<polygon style="fill:url(#SVGID_00000044877158404539998870000011928834309709034627_);" points="934.3,510.8 947.2,544.1 
					946.8,545.3 934.3,513.2 				"/>
				
					<pattern  id="SVGID_00000105416238371255067450000003920430566136515736_" xlink:href="#SVGID_0000004199596005269134193" patternTransform="matrix(1 0 0 1 -221.5024 17806.6309)">
				</pattern>
				<polygon style="fill:url(#SVGID_00000105416238371255067450000003920430566136515736_);" points="958.7,160.2 934.7,126.1 
					934.7,123.7 959.6,159 				"/>
				
					<pattern  id="SVGID_00000013896978899790176180000008030556850331067817_" xlink:href="#SVGID_0000009892162898998504830" patternTransform="matrix(1 0 0 1 -221.5024 17806.6309)">
				</pattern>
				<path style="fill:url(#SVGID_00000013896978899790176180000008030556850331067817_);" d="M987.9,897.6c-0.1,0-0.5,0.5-1.1,1.3
					c-6.8-6.2-42.8-36.7-42.8-36.7l-10-84.7v-2.3l9.9,84.6C944,859.8,988.8,897.6,987.9,897.6z"/>
			</g>
		</g>
	</g>
	<g id="Layer_3">
		<path class="st19" d="M986.8,898.9c-5.4,7.4-28.7,43.7-28.7,43.7l-23.1,32l-21.6-7l-38.2-40l-72.7-0.9c0,0-10.5,19.8-10.5,20.3
			c-0.3-0.1-5.7-1-5.9-1c-0.3,0-8.3-19.7-8.3-19.7l-73.6,0.1l-7,8.7l-1.7-0.5l-6-8h-10.4l-8.6,30.7l-0.5,8.4l-5.2-0.7l-1-4
			L652,926.6l-49.9-0.1l-15,46.9c0,0-7.1-3.7-7.4-3.9s-18.2-42.6-18.2-42.6l-32.4-0.4l-8.5,10.9l-2.2-1l-8.6-10l-22,0.2l-7.6,33.6
			l-5.9-33.7h-94.8c0,0-2.3,1.6-4.6,2.6c-2.3,1-5.7-2.5-5.7-2.5H332l-15.4,8l-15-7.9l-99.7-0.1l-3.5,2.6l-3.5-2.5h-55.5V911l28-16.3
			l0.5-31.6l15.4-15.4l14.7,13.9l0.1,29.5l27.4,13.1c10,7.7,53.2-8.1,53.2-8.1v-2.4l0,0l-0.2-62.6l16-22l21.9,15.6l-0.9,58.3l0,0
			v2.4l37.7,16.2l21.6-11.7l25.8,15.4l73.7-10.1l6.6-74.8l5.9-15.4l13.6-9.1l19,22.8l0.5,61.8l17.3,22.2l10.1-0.4l16.9-13.2
			l14.4-42.1l7-0.4l18.8,53.8l9.6,10.3h31.8l19.7-54L669,793l11.3-0.9l17.7,47.2l-1,42.6l0.1,0.1l-0.1,2.3l24.3,26.4h49l18.5-33.8
			l6-0.3l14.7,34.1H860l43.5-48.1L922,690.3c0,0,0-6.2,0.1-15.2c0-0.6,0-1.1,0-1.7c0-2.5,0-5.1,0-7.8c0-1.6,0-3.1,0-4.7v-0.6
			c0-1.7,0-3.5,0-5.2c0-2.6,0-5.2,0-7.9c0-7.7,0-15.3,0-21.7c0-2.3,0-4.5,0-6.5c0-6.2-0.1-10.2-0.2-10.2c-0.4,0-21.7-56.6-21.7-56.6
			l-28.1,11l-29.8-13.5l-23.8,43l-13.4,0.9l-20.1-54L747.2,482l-9.2-0.5l-34.8-19.4l-7,48.8l-11.5,40.8l-11.9-0.3
			c0,0-17.8-34.8-19.5-38.8c0.1-1.3,0.5-3.2,1.1-5.5c-0.1-0.4-0.2-0.8-0.3-1.2c0.1-0.4,0.2-0.8,0.3-1.2c-3.3-14.9-25-33.2-31.8-39
			c-46.6-29.5-58.8,34.4-58.8,34.4v65l-18.2,28.3l-6.2-0.7l-17.7-27.1c0,0-0.8-14-0.9-22.9c0-0.2,0-0.5,0-0.7c0-1.3,0.1-2.4,0.1-3.1
			c0-0.4,0-0.9-0.1-1.3c0-0.4,0-0.8,0.1-1.1c-2.8-51-38.1-87.2-38.1-87.2l-28,3.3L439.4,496l-29.3-0.6l-0.5-19.2l-11-28.6l-23.2,0.6
			l-10.1,23.5l-15.5,63.5l-23.2,19.5l-23.1-12.5l-3.9-66.1c0,0-7.2-22.3-11.6-26.4c-10-2.9-31,26.7-31,26.7l-20.2-24.3l-12.8-1.4
			l-13.9,22.6l-10.5,30.8l-5.3,6.1l-11,42.8l-19.6-39v-10l10.6-53.3l1-65.6l15-13.2l31.1,38.5l44.5,11H404
			c1.9,0,25.5-35.5,25.5-35.5c0.9-1.5,1.2-3.8,1-6.5c0.5-9.5-6.2-26.7-6.2-26.7s-11.5-13.2-17.7-13.7c-16.6-1.1-25-6.3-28.7-9.3
			c12.4-0.6,71.1-3.2,70.2-0.8c3,47,26.2,78.7,31.2,83.3c28.1,15.6,55.7,0.6,55.7,0.6s51.2,0.1,54.8-0.3
			c20.2-70.2,31.8-59.5,31.8-59.5s47.8,67.2,53.8,64c18.5-10.9,35.7,0,35.7,0s30.3-10.9,27.2-12.2c-0.1-0.5-0.2-1-0.3-1.5
			c0.5-0.4,0.7-0.7,0.3-0.9c-2.5-12.9-3.6-23.4-3.7-31.8v-0.3c0.2-21.3,6.4-28.2,6.4-28.2c15.9,0.9,20.7-7.2,24.3-10.6
			c4.6,0.7,19.4-10.7,19.4-10.7l6,17.7h58.5l6.4,3.2l20.2,0.1l11.1,8.6H907v-18.3h11.5l1.8-2.7l-1.6-1.3l1.6-1.8l-4.2-2.7h-9
			l-7.8-5.5h-16.1l-7.6-3.7h-13.1l-3.9-3.9l-1.3-7.6l6.7-5.2l11.1-0.9l9.7-8l2.1-27.4l9.2-9v-22.2l10.3-9.4l1-0.9L870.9,162
			c0,0-9.6-22-10.3-32.7c0.1-1,0.3-1.7,0.7-2.3c8.9-16.3,11.5-30,11.3-41c0.3-16-5.4-26.7-7.6-31.4c-0.4-1-0.7-2.1-0.8-3.4
			c0.5-8.8,6.5-20.8,6.5-20.8l8.5-4.4l3.6,15.1l52.6,0.2l-0.6,82.1l0,0v2.4l24,34.1l-23.3,34.2l-1.1,316.3l0,0v2.4l12.5,32.2
			l-11.3,30.8l-1.5,199v0.1v2.3l10,84.7C944,862.2,980.1,892.6,986.8,898.9z"/>
	</g>
	<g id="Layer_4">
		
			<pattern  id="SVGID_00000152261308201007185040000015426450182272506759_" xlink:href="#SVGID_0000003116668277697267222" patternTransform="matrix(1 0 0 1 -221.5024 17806.6309)">
		</pattern>
		<path style="fill:url(#SVGID_00000152261308201007185040000015426450182272506759_);" d="M76.6,933.6l6-8l11.3-0.4v-18.5
			c0,0-17.1-24.4-17.7-24.5s0-132.5,0-132.5s2.3-44.7,45.7-51.8h61.4c0,0,5.7,15.9,6.5,16.2s19.9-14.6,19.9-14.6l65.2,11l12.5,13.1
			l19.6-19.3l65.2-6.4l10.4,25.1l-4.5,48.5l11.3,13.7c0,0,14.3-14.9,17.9-12.8s2.4-44.4,2.4-44.4l11.9-30.2h51.2V720
			c0,0,15.8,19.9,16.7,20.8s22.9-18.8,22.9-18.8v-25.9l22.6,1.5l19.3,12.2l19.3,65.8l11.6,4.5l13.1-24.1l-3.3-18.8l12.2-29.8l-3-7.1
			l24.4,9.2l31.3-12.2l6.3,48.8l17-5.1l18.5-39.9l21.1,8l45.2-11l16.4,28v68.5l8.9,39l10.1,3.3l11-38.1c0,0,10.4-109.5,12.5-112.8
			S812,674.1,812,674.1l-0.3-10.4l-4.5-3.6l-9.8-28h-9.8l-11.9,29.5l-33.6,8.9l-44.6-19.1l-4.8-42l-17.3,3l-21.1,46.1
			c0,0-51.5,15.5-79.5,11.3c-3.9-1.8-14.6-17-14.6-17l-25.8,1.8l-17,15.4l-64.3,0.1l-8.1-76.6l-4.8-30.4l-23.8-16.7l-26.8,16.4
			c0,0-14.3,87.8-23.2,92c0,0-2.5,12.2-23.4,9.7c-3.1-0.6-14.4-35.1-14.4-35.1l-11.3-12.5l-10.9,11.9l-10,40.5
			c0,0-25.2,8.2-43.8-7.1c0.3-2.8,9.7-59.6,10.5-59.8s-20.2-50.8-20.2-50.8l-6.7,2.4l-12.1,26.6l0.4,11.5L205,658.5
			c0,0-13.8,14.4-32.4,11.5c-3.9-0.4-54.5-0.6-54.5-0.6l-15.8-23.2L91,606.3c0,0,22.1-29.4,0.5-79.8c-2.6-3,9.1-140.7,9.3-140.1
			s-12.7-67.1-12.7-67.1l44.5-82.4l39.1,8.9l13.3,38.9l17.5-38.1l46-11.5l16.9,22.4c0,0-6.4,25,2.8,61.5c7.1,9.1-4.8,49.2-4.8,49.2
			l28.6,21l45.8-14.3l-39.5-17.3c0,0,2-76.2,1.2-76.6s28.2-27,28.2-27l15.5-56.2l-4-19.2l22.8-22.4h12.9l27.2,18.9l31.9-40.7
			l33.5,19.2l27.8-22.2l74.8-11.5l57.4,9.5l97.8-13.9l29.9,18.6l34.2,0.7c0,0,14.4,10.1,13.8,10.4s11.8-12.4,11.8-12.4L825.7,98
			L814,61.9c0,0,2.1-22,2.1-22.9s-10.4-23-10.4-23s-5.4,4.2-4.5,3.9s-8,25.9-8,25.9L58,46.4v134L37.4,219v33l21.1,33l0.6,321.5
			L47.5,647L58,682.5l-27.4,14.3l28.3,18.8L59.5,924l10.1,1.6l4,8.1L76.6,933.6L76.6,933.6z"/>
		
			<pattern  id="SVGID_00000147205321515676715730000011952552352446859961_" xlink:href="#SVGID_0000005930711217431478199" patternTransform="matrix(1 0 0 1 -221.5024 17806.6309)">
		</pattern>
		<polygon style="fill:url(#SVGID_00000147205321515676715730000011952552352446859961_);" points="689.8,306.7 716.3,261.9 
			739.8,233.5 761.4,243.3 774.6,233.5 790.8,230.5 787.7,215.2 749.5,184.1 703.1,199.1 692.4,194.1 682.3,195.3 665.6,178.5 
			643.6,202.1 552.5,202.5 552.5,193.3 534,180.6 519.2,193.1 511,194.3 503.7,200.1 494.8,200.1 480.3,205.4 472.3,200.9 
			452.7,209.8 441.8,199.9 432.4,214.8 432.4,232.4 474.9,247.7 472,255.1 488.4,312.8 509.5,298.5 527.7,317.9 536,333.6 
			550.6,323.8 559.8,297.9 567.9,262.8 584.2,228.6 606.6,242.6 611.6,256 641.1,233.6 658.4,233 672.4,243.2 672.1,263.7 
			673.3,274.7 684.6,297.6 686.6,307.4 		"/>
		
			<pattern  id="SVGID_00000101795456539503979970000012476631294468966052_" xlink:href="#d" patternTransform="matrix(1 0 0 -1 -126 -18271.1992)">
		</pattern>
		<path style="fill:url(#SVGID_00000101795456539503979970000012476631294468966052_);" d="M986.8,898.9
			c-5.4,7.4-28.7,43.7-28.7,43.7l-23.1,32l-21.6-7l-38.2-40l-72.7-0.9c0,0-10.5,19.8-10.5,20.3c-0.3-0.1-5.7-1-5.9-1
			c-0.3,0-8.3-19.7-8.3-19.7l-73.6,0.1l-7,8.7l-1.7-0.5l-6-8h-10.4l-8.6,30.7l-0.5,8.4l-5.2-0.7l-1-4L652,926.6l-49.9-0.1l-15,46.9
			c0,0-7.1-3.7-7.4-3.9s-18.2-42.6-18.2-42.6l-32.4-0.4l-8.5,10.9l-2.2-1l-8.6-10l-22,0.2l-7.6,33.6l-5.9-33.7h-94.8
			c0,0-2.3,1.6-4.6,2.6c-2.3,1-5.7-2.5-5.7-2.5H332l-15.4,8l-15-7.9l-99.7-0.1l-3.5,2.6l-3.5-2.5h-55.5V911l28-16.3l0.5-31.6
			l15.4-15.4l14.7,13.9l0.1,29.5l27.4,13.1c10,7.7,53.2-8.1,53.2-8.1v-2.4l0,0l-0.2-62.6l16-22l21.9,15.6l-0.9,58.3l0,0v2.4
			l37.7,16.2l21.6-11.7l25.8,15.4l73.7-10.1l6.6-74.8l5.9-15.4l13.6-9.1l19,22.8l0.5,61.8l17.3,22.2l10.1-0.4l16.9-13.2l14.4-42.1
			l7-0.4l18.8,53.8l9.6,10.3h31.8l19.7-54L669,793l11.3-0.9l17.7,47.2l-1,42.6l0.1,0.1l-0.1,2.3l24.3,26.4h49l18.5-33.8l6-0.3
			l14.7,34.1H860l43.5-48.1L922,690.3c0,0,0-6.2,0.1-15.2c0-0.6,0-1.1,0-1.7c0-2.5,0-5.1,0-7.8c0-1.6,0-3.1,0-4.7v-0.6
			c0-1.7,0-3.5,0-5.2c0-2.6,0-5.2,0-7.9c0-7.7,0-15.3,0-21.7c0-2.3,0-4.5,0-6.5c0-6.2-0.1-10.2-0.2-10.2c-0.4,0-21.7-56.6-21.7-56.6
			l-28.1,11l-29.8-13.5l-23.8,43l-13.4,0.9l-20.1-54L747.2,482l-9.2-0.5l-34.8-19.4l-7,48.8l-11.5,40.8l-11.9-0.3
			c0,0-17.8-34.8-19.5-38.8c0.1-1.3,0.5-3.2,1.1-5.5c-0.1-0.4-0.2-0.8-0.3-1.2c0.1-0.4,0.2-0.8,0.3-1.2c-3.3-14.9-25-33.2-31.8-39
			c-46.6-29.5-58.8,34.4-58.8,34.4v65l-18.2,28.3l-6.2-0.7l-17.7-27.1c0,0-0.8-14-0.9-22.9c0-0.2,0-0.5,0-0.7c0-1.3,0.1-2.4,0.1-3.1
			c0-0.4,0-0.9-0.1-1.3c0-0.4,0-0.8,0.1-1.1c-2.8-51-38.1-87.2-38.1-87.2l-28,3.3L439.4,496l-29.3-0.6l-0.5-19.2l-11-28.6l-23.2,0.6
			l-10.1,23.5l-15.5,63.5l-23.2,19.5l-23.1-12.5l-3.9-66.1c0,0-7.2-22.3-11.6-26.4c-10-2.9-31,26.7-31,26.7l-20.2-24.3l-12.8-1.4
			l-13.9,22.6l-10.5,30.8l-5.3,6.1l-11,42.8l-19.6-39v-10l10.6-53.3l1-65.6l15-13.2l31.1,38.5l44.5,11H404
			c1.9,0,25.5-35.5,25.5-35.5c0.9-1.5,1.2-3.8,1-6.5c0.5-9.5-6.2-26.7-6.2-26.7s-11.5-13.2-17.7-13.7c-16.6-1.1-25-6.3-28.7-9.3
			c12.4-0.6,71.1-3.2,70.2-0.8c3,47,26.2,78.7,31.2,83.3c28.1,15.6,55.7,0.6,55.7,0.6s51.2,0.1,54.8-0.3
			c20.2-70.2,31.8-59.5,31.8-59.5s47.8,67.2,53.8,64c18.5-10.9,35.7,0,35.7,0s30.3-10.9,27.2-12.2c-0.1-0.5-0.2-1-0.3-1.5
			c0.5-0.4,0.7-0.7,0.3-0.9c-2.5-12.9-3.6-23.4-3.7-31.8v-0.3c0.2-21.3,6.4-28.2,6.4-28.2c15.9,0.9,20.7-7.2,24.3-10.6
			c4.6,0.7,19.4-10.7,19.4-10.7l5.9,17.7h58.6l6.3,3.1h20.3l11.1,8.8H907v-18.3h11.5l1.8-2.7l-1.6-1.3l1.6-1.8l-4.2-2.7h-9l-7.8-5.5
			h-16.1l-7.6-3.7h-13.1l-3.9-3.9l-1.3-7.6l6.7-5.2l11.1-0.9l9.7-8l2.1-27.4l9.2-9v-22.2l10.3-9.4l1-0.9L870.9,162
			c0,0-9.6-22-10.3-32.7c0.1-1,0.3-1.7,0.7-2.3c8.9-16.3,11.5-30,11.3-41c0.3-16-5.4-26.7-7.6-31.4c-0.4-1-0.7-2.1-0.8-3.4
			c0.5-8.8,6.5-20.8,6.5-20.8l8.5-4.4l3.6,15.1l52.6,0.2l-0.6,82.1l0,0v2.4l24,34.1l-23.3,34.2l-1.1,316.3l0,0v2.4l12.5,32.2
			l-11.3,30.8l-1.5,199v0.1v2.3l10,84.7C944,862.2,980.1,892.6,986.8,898.9z"/>
	</g>
</g>
<g id="Layer_9">
	<path class="st33" d="M788.2,331.4c5.8,0.4,11.7,0.6,17.5,0.9"/>
	<path class="st33" d="M787.2,329.6c5.8,0.2,11.5,0.4,17.3,0.6"/>
	<path class="st33" d="M801.1,331.6c0,2.5,0.1,5,0.4,7.5"/>
	<path class="st33" d="M792.2,330.6c0.2,2.6,0.5,5.3,0.7,7.9"/>
	<rect x="789.9" y="320.5" class="st0" width="26.3" height="7.8"/>
	<text transform="matrix(1 0 0 1 789.8861 321.9377)"><tspan x="0" y="0" class="st34 st35">maybe like a small mining op </tspan><tspan x="0" y="2.4" class="st34 st35">over here? idk lol. could also </tspan><tspan x="0" y="4.8" class="st34 st35">just be a house or smt</tspan></text>
</g>
<g id="Layer_3_00000096755769700384501820000000981187504453982132_" class="st18">
	<polygon class="st36" points="848.6,339 862.2,325.3 862.2,313.2 888.9,286.5 908.7,286.5 935.1,313 935.1,343.6 916.6,362.1 
		870.7,362.1 	"/>
	
		<pattern  id="SVGID_00000056405172572958227380000010725928699243544469_" xlink:href="#d" patternTransform="matrix(1 0 0 -1 -125.8194 -18279.416)">
	</pattern>
	<polygon style="display:inline;fill:url(#SVGID_00000056405172572958227380000010725928699243544469_);" points="848.6,339 
		862.2,325.3 862.2,313.2 888.9,286.5 908.7,286.5 935.3,311.9 935.1,343.6 916.6,362.1 870.7,362.1 	"/>
</g>
</svg>
