<?xml version="1.0" encoding="UTF-8"?><svg id="a" xmlns="http://www.w3.org/2000/svg" viewBox="0 0 720 720"><defs><style>.b{fill:#fff;}</style></defs><path class="b" d="M679.766,.445l-22.22,71.893-7.553,32.522,13.611,12.105,4.53,19.658,36.304,12.105v99.83l-90.749,1.517-12.864-17.393v-32.522l-12.853-16.646,.759-31.763,6.806-21.176-1.517-23.451,12.105-26.464L580.034,.445H-1.192V720.445H725.613V.445h-45.847Zm-162.884,192.152l28.74-.759,18.152,22.693,6.047,37.81-5.299,62.02-85.461,.759-6.047-43.11,25.716-15.129-3.035-43.868,21.187-20.417Zm-37.909-128.581l10.093,22.858-9.752,18.152,5.047,11.764-12.105,11.094-13.787,.682-5.376,7.729-18.152-.341-5.706-7.059-16.811-.33-1.682-5.046-11.423-6.047-.341-23.869s-13.106-10.423-14.117-10.753c-1.011-.341-2.694-19.504-2.694-19.504l96.807,.671Zm-151.934,136.893l22.693-7.564,54.456-7.553,24.958,28.74,.759,24.958,21.175,34.787-33.28,43.11-65.044,6.047-28.74-24.958-12.105-75.631,15.128-21.934Zm7.564,270.763l20.428-15.876-21.934-10.588,12.853-7.564-31.763-24.958-.759-29.498,15.887-24.21,11.346,8.323,14.37-7.564,9.829,18.911,1.506,62.02,5.299-6.058,18.152,28.74-2.276,20.428-15.876,18.911-34.787-2.276,18.152-12.094-20.428-16.646Zm-157.31-90.76l-5.299,39.327-13.611-21.923-20.417,16.635,9.071-38.569,14.37-14.37,15.887,18.9ZM46.447,303.015v-80.92l25.716-45.386,11.346,15.129,26.475-33.28,21.934,24.199,27.981-7.553-18.152,21.923,11.346,12.105-31.016,24.958,27.981,21.176,.759,27.981-38.569,27.992-21.934-19.669-10.588,18.152,9.829,26.475-2.265,35.545-13.611,15.876,12.094,16.646,15.887,40.845,12.853-24.21,16.646,16.646-11.346,40.834-18.152,20.428-16.635-23.451-16.646,21.934-21.934-17.393-.759-30.257,11.346-12.094-8.312-15.129-4.541-76.39,12.105-14.37-9.84-28.74Zm42.362,348.659l-5.299,32.522-20.417,17.393-10.588-9.829-9.082,4.541-12.105-27.234-2.265-91.508,21.934-27.992,12.853,16.646,21.186-27.981,21.176,18.9,6.806,61.262-24.199,33.28Zm85.461-31.005l-.759,44.616-15.887,12.864-14.37-13.611-1.506-27.992-20.428-39.328-2.265-33.27,14.37-15.129,18.911,20.417,24.958-21.934,21.176,23.451,1.517,29.487-25.716,20.428Zm58.986-440.178l15.129,10.588,13.611-17.393,23.451,31.763,3.782,71.091-21.176,26.475-9.84-9.071-24.199,10.588-17.393-12.105-.759-40.845,9.829-11.346-19.658-29.487,27.223-30.257Zm34.039,446.983l-11.346,11.346-1.517,35.545-12.853,9.829-6.806-11.346v-21.176l-12.105-13.611,.759-35.545-13.611-15.129,.759-34.039,6.047-10.588,15.887,9.082,7.553-9.829,11.346,14.37,.759,27.981,15.887,24.199-.759,18.911Zm-12.864-155.045l-9.829,10.588-18.911-15.887-.748-40.075,12.853,8.312,2.265-15.876,12.105-12.105,4.541-47.65,7.564-15.876,8.312,12.853,6.058-9.071,5.288,11.335,1.517,34.798-17.393,22.682-13.622,55.973Zm87.736,133.111l-11.346,12.105v45.374l-20.417,19.669h-16.635l-15.887-27.992,1.517-33.269,19.658-20.428v-48.398l15.129,10.588,14.37-14.37,17.393,25.716-3.782,31.005Zm66.561,49.157l-10.588,12.105-9.082-12.105v-28.74l-29.498-34.028v-15.129l16.646-16.635,12.094-18.152,12.864,18.152,.748,27.223,12.864,12.853,3.024,24.958-11.346,11.346,2.276,18.152Zm78.655-.759l-13.611,22.693-9.84-17.393-13.611,16.635-13.611-40.834-.759-26.475,20.417-28.74,10.588,11.346,8.323-16.635,15.129,26.464-3.024,52.939Zm-.759-183.026l-15.887-17.393-17.393,39.328-13.611-15.129-17.393,21.934-15.887-16.635v-18.911l18.152-26.464-.759-54.456,12.864,9.071,12.094-15.876,19.669,24.199,11.346-9.082,18.152,31.774,3.024,31.763-14.37,15.876Zm86.978,207.236l-7.564-6.058-12.105,15.129-16.635-25.716-.759-27.222-17.393-31.005-.759-32.522,14.37-20.428,15.129,15.887,18.911-15.887,13.611,24.21,.759,57.48,11.346,24.958-18.911,21.176Zm3.782-195.89l-17.393,.759-13.622-18.152-12.094,14.37-12.105-27.223,1.517-45.385,11.335-25.716,9.84,24.958,12.094-20.417,13.622,1.517,20.417,40.086,1.517,37.052-15.129,18.152Zm111.177,55.973l-7.564,15.118-12.864-17.393-2.265,66.561,11.346,15.129-.759,41.592-28.74,31.763-25.716-2.265-12.094-23.451,3.782-21.934,11.335-17.393,4.541-61.262,9.829,6.058,1.517-55.973-16.635-29.498-.759-20.417,15.876-15.887,13.622,32.522,14.37-23.44,10.588,12.853,12.094-16.635-1.506,83.954Z"/></svg>