<svg xmlns="http://www.w3.org/2000/svg" xmlns:xlink="http://www.w3.org/1999/xlink" viewBox="0 0 1044.78 1000"><defs><style>.cls-1{fill:none;}.cls-2{fill:#1d2b3f;}.cls-3{fill:#152134;}.cls-4{fill:url(#d);}.cls-5{fill:url(#d-25);}</style><pattern id="d" data-name="d" width="141.249" height="152.63" patternTransform="matrix(1, 0, 0, -1, -95.502, -17083.37)" patternUnits="userSpaceOnUse" viewBox="0 0 141.249 152.63"><rect class="cls-1" width="141.249" height="152.63"/><rect class="cls-1" width="141.249" height="152.63"/><polygon class="cls-2" points="4.433 76.662 46.166 118.395 35.771 82.624 0 44.408 4.433 76.662"/><polygon class="cls-2" points="63.134 105.096 94.624 84 71.694 42.115 63.134 105.096"/><polygon class="cls-2" points="138.65 109.492 132.535 134.562 117.248 130.281 138.65 109.492"/><polygon class="cls-2" points="138.65 64.433 103.032 7.442 138.65 23.159 138.65 64.433"/><polygon class="cls-2" points="87.592 130.166 118.471 105.096 118.471 68.102 87.592 130.166"/><polygon class="cls-2" points="34.624 145.776 5.045 116.542 64.051 142.719 34.624 145.776"/><polygon class="cls-2" points="13.772 36.306 47.222 51.592 33.645 27.134 3.224 14.904 13.772 36.306"/><polygon class="cls-2" points="54.573 117.019 68.637 140.56 72.612 120.688 54.573 117.019"/><polygon class="cls-2" points="77.031 28.662 115.414 50.064 111.745 31.72 77.031 28.662"/><polygon class="cls-2" points="94.624 58.471 121.758 64.433 119.924 58.471 94.624 58.471"/><polygon class="cls-2" points="103.032 129.759 135.788 107.031 103.103 121.525 103.032 129.759"/><polygon class="cls-2" points="103.032 133.223 141.249 152.63 115.414 131.159 103.032 133.223"/><polygon class="cls-2" points="91.643 9.019 53.58 27.363 84.917 0 91.643 9.019"/><polygon class="cls-2" points="13.911 110.027 23.847 121.033 24.611 110.027 16.204 97.95 13.911 110.027"/><polygon class="cls-2" points="23.083 58.318 36.535 68.102 13.911 42.115 23.083 58.318"/><polygon class="cls-2" points="49.376 107.031 54.573 88.993 43.414 79.821 49.376 107.031"/><polygon class="cls-2" points="41.566 37.376 58.858 55.347 77.355 21.87 41.566 37.376"/><polygon class="cls-2" points="78.879 150.955 98.293 147.287 84.535 135.057 78.879 150.955"/><polygon class="cls-2" points="28.146 8.359 39.764 19.672 47.222 4.691 28.146 8.359"/><polygon class="cls-2" points="48.994 64.433 57.497 76.232 57.497 64.433 48.994 64.433"/><polygon class="cls-2" points="127.949 100.691 131.79 79.821 125.064 64.433 127.949 100.691"/><polygon class="cls-2" points="80.121 109.492 96.223 100.691 83.178 103.442 80.121 109.492"/></pattern><pattern id="d-25" data-name="d" width="141.249" height="152.63" patternTransform="translate(0 1000)" patternUnits="userSpaceOnUse" viewBox="0 0 141.249 152.63"><rect class="cls-1" width="141.249" height="152.63"/><rect class="cls-1" width="141.249" height="152.63"/><polygon class="cls-2" points="4.433 76.662 46.166 118.395 35.771 82.624 0 44.408 4.433 76.662"/><polygon class="cls-2" points="63.134 105.096 94.624 84 71.694 42.115 63.134 105.096"/><polygon class="cls-2" points="138.65 109.492 132.535 134.562 117.248 130.281 138.65 109.492"/><polygon class="cls-2" points="138.65 64.433 103.032 7.442 138.65 23.159 138.65 64.433"/><polygon class="cls-2" points="87.592 130.166 118.471 105.096 118.471 68.102 87.592 130.166"/><polygon class="cls-2" points="34.624 145.776 5.045 116.542 64.051 142.719 34.624 145.776"/><polygon class="cls-2" points="13.772 36.306 47.222 51.592 33.645 27.134 3.224 14.904 13.772 36.306"/><polygon class="cls-2" points="54.573 117.019 68.637 140.56 72.612 120.688 54.573 117.019"/><polygon class="cls-2" points="77.031 28.662 115.414 50.064 111.745 31.72 77.031 28.662"/><polygon class="cls-2" points="94.624 58.471 121.758 64.433 119.924 58.471 94.624 58.471"/><polygon class="cls-2" points="103.032 129.759 135.788 107.031 103.103 121.525 103.032 129.759"/><polygon class="cls-2" points="103.032 133.223 141.249 152.63 115.414 131.159 103.032 133.223"/><polygon class="cls-2" points="91.643 9.019 53.58 27.363 84.917 0 91.643 9.019"/><polygon class="cls-2" points="13.911 110.027 23.847 121.033 24.611 110.027 16.204 97.95 13.911 110.027"/><polygon class="cls-2" points="23.083 58.318 36.535 68.102 13.911 42.115 23.083 58.318"/><polygon class="cls-2" points="49.376 107.031 54.573 88.993 43.414 79.821 49.376 107.031"/><polygon class="cls-2" points="41.566 37.376 58.858 55.347 77.355 21.87 41.566 37.376"/><polygon class="cls-2" points="78.879 150.955 98.293 147.287 84.535 135.057 78.879 150.955"/><polygon class="cls-2" points="28.146 8.359 39.764 19.672 47.222 4.691 28.146 8.359"/><polygon class="cls-2" points="48.994 64.433 57.497 76.232 57.497 64.433 48.994 64.433"/><polygon class="cls-2" points="127.949 100.691 131.79 79.821 125.064 64.433 127.949 100.691"/><polygon class="cls-2" points="80.121 109.492 96.223 100.691 83.178 103.442 80.121 109.492"/></pattern></defs><g id="a"><g id="b"><path class="cls-3" d="M278.45,831.07l.01-.01.19,62.59h-.01Z"/><polygon class="cls-3" points="315.38 882.91 316.31 824.59 316.35 824.62 315.42 882.93 315.38 882.91"/><polygon class="cls-3" points="696.97 881.84 698.01 839.25 698.06 839.4 697.03 881.9 696.97 881.84"/><path class="cls-3" d="M738,403.59a168.051,168.051,0,0,1-3.4-32.64,177.916,177.916,0,0,0,3.69,31.75C738.67,402.86,738.53,403.17,738,403.59Z"/><path class="cls-3" d="M864.85,57.23a12.427,12.427,0,0,1-.77-5.79,10.1,10.1,0,0,0,.77,3.39c2.15,4.78,7.91,15.41,7.58,31.43C872.19,71.57,866.89,61.77,864.85,57.23Z"/><path class="cls-3" d="M870.75,164.74s-11.24-25.79-10.34-35.15c.75,10.73,10.34,32.74,10.34,32.74l36.48,57.91-.96.88Z"/><polygon class="cls-3" points="934.72 123.71 934.7 123.69 935.28 41.56 935.3 41.56 934.72 123.71"/><polygon class="cls-3" points="934.03 775.22 934.01 775.08 935.5 576.09 946.8 545.33 947.25 546.5 935.5 578.5 934.03 775.22"/><polygon class="cls-3" points="934.31 510.77 934.3 510.75 935.42 194.41 958.73 160.19 959.56 161.37 935.42 196.82 934.31 510.77"/><path class="cls-3" d="M987.88,899.98c-.89,0-29.76,44.94-29.76,44.94l-23.07,32-21.58-6.99-38.25-40.04L802.54,929s-10.53,19.79-10.53,20.33c-.33-.1-5.66-.98-5.94-.98-.3,0-8.34-19.75-8.34-19.75l-73.62.1-7.04,8.73-1.69-.49-6.05-8.04H678.91l-8.63,30.66-.5,8.43-5.16-.69-.99-3.97L651.82,928.9l-49.86-.12-15.03,46.88s-7.07-3.72-7.37-3.87-18.16-42.64-18.16-42.64l-32.37-.45-8.48,10.94-2.16-1.04-8.63-9.97-21.95.22-7.64,33.59-5.86-33.69-94.78-.01a29.883,29.883,0,0,1-4.61,2.57c-2.31.96-5.73-2.5-5.73-2.5l-37.17.04-15.41,7.96-14.96-7.89-99.7-.12-3.5,2.63-3.47-2.51H139.46v-2.4h55.52l3.47,2.5,3.5-2.63,99.7.13,14.96,7.89,15.41-7.97,37.17-.03s3.42,3.46,5.73,2.49a29.883,29.883,0,0,0,4.61-2.57l94.78.01,5.86,33.69,7.64-33.59,21.95-.22,8.63,9.97,2.16,1.04,8.48-10.93,32.37.44s17.86,42.49,18.16,42.64,7.37,3.87,7.37,3.87l15.03-46.88,49.86.12,11.81,34.43.99,3.97,5.16.7.5-8.44,8.63-30.66h10.42l6.05,8.04,1.69.5,7.04-8.73,73.62-.1s8.04,19.74,8.34,19.74c.28,0,5.61.88,5.94.98,0-.54,10.53-20.33,10.53-20.33l72.68.9,38.25,40.03,21.58,7,23.07-32s23.3-36.27,28.69-43.65C987.58,899.58,987.97,899.98,987.88,899.98Z"/><path class="cls-3" d="M520.76,537.62q.06.645.09,1.29c-.08.73-.13,1.82-.14,3.14C520.69,540.3,520.7,538.77,520.76,537.62Z"/><path class="cls-3" d="M653.16,512.31a28.576,28.576,0,0,1,.89-6.3q.165.6.3,1.2a36.08,36.08,0,0,0-1.06,5.48A1.436,1.436,0,0,1,653.16,512.31Z"/><path class="cls-3" d="M860.41,129.59c-.15-2.07.03-3.72.67-4.71,8.28-15.14,11.14-28.05,11.35-38.62.2,10.99-2.43,24.71-11.35,41.02A5.265,5.265,0,0,0,860.41,129.59Z"/><path class="cls-3" d="M922.03,673.31c.01-2.43.02-5.07.03-7.85C922.06,668.21,922.05,670.85,922.03,673.31Z"/><path class="cls-3" d="M922.06,665.46c.01-1.55.02-3.13.02-4.74C922.07,662.34,922.07,663.92,922.06,665.46Z"/><path class="cls-3" d="M922.08,660.13c.01-1.72.02-3.47.02-5.23C922.09,656.67,922.09,658.42,922.08,660.13Z"/><path class="cls-3" d="M864.08,51.44c-.64-8.88,6.52-23.2,6.52-23.2l8.54-4.37,3.57,15.08,52.59.2-.02,2.41-52.57-.2-3.57-15.08-8.54,4.36S864.63,42.6,864.08,51.44Z"/><polygon class="cls-3" points="934.31 510.77 947.25 544.09 946.8 545.33 934.3 513.16 934.31 510.77"/><polygon class="cls-3" points="958.73 160.19 934.7 126.09 934.72 123.71 959.56 158.96 958.73 160.19"/><path class="cls-3" d="M987.88,897.57a5.519,5.519,0,0,0-1.07,1.3c-6.75-6.25-42.83-36.7-42.83-36.7l-9.97-84.68.02-2.27,9.95,84.55S988.78,897.57,987.88,897.57Z"/><path class="cls-3" d="M76.58,933.588l5.954-8.037,11.311-.4V906.686S76.729,882.24,76.134,882.141s0-132.461,0-132.461,2.282-44.75,45.741-51.794h61.419s5.655,15.875,6.548,16.173,19.944-14.586,19.944-14.586l65.189,11.014,12.5,13.1,19.646-19.348,65.189-6.35,10.418,25.1-4.465,48.519L389.576,785.2s14.288-14.883,17.86-12.8,2.382-44.352,2.382-44.352l11.906-30.163h51.2v22.126s15.776,19.944,16.669,20.837,22.92-18.753,22.92-18.753V696.2l22.623,1.488,19.348,12.205,19.349,65.784,11.609,4.465,13.1-24.111-3.274-18.753,12.2-29.767-2.977-7.144,24.409,9.228,31.255-12.2,6.251,48.817,16.967-5.061,18.455-39.887,21.134,8.037,45.246-11.013,16.371,27.98v68.463l8.93,39L803.63,837l11.013-38.1s10.419-109.541,12.5-112.816-14.883-11.906-14.883-11.906l-.3-10.419-4.465-3.572-9.823-27.98h-9.823L775.947,661.67,742.31,670.6l-44.65-19.051L692.9,609.578l-17.265,2.977L654.5,658.693S603,674.172,575.022,670c-3.87-1.786-14.585-16.967-14.585-16.967l-25.8,1.786L517.374,670l-64.3.1-8.136-76.6-4.763-30.362-23.813-16.669-26.79,16.371s-14.288,87.812-23.218,91.979c0,0-2.53,12.205-23.367,9.674-3.125-.595-14.436-35.124-14.436-35.124l-11.312-12.5-10.864,11.906-9.972,40.483s-25.153,8.186-43.757-7.144c.3-2.828,9.724-59.583,10.517-59.781s-20.241-50.8-20.241-50.8l-6.747,2.381-12.1,26.592.4,11.51-19.448,66.528S191.182,672.981,172.578,670c-3.87-.446-54.473-.6-54.473-.6l-15.777-23.218L91.017,606.3s22.127-29.369.5-79.774c-2.58-2.977,9.129-140.7,9.327-140.1s-12.7-67.074-12.7-67.074L132.591,237l39.094,8.93,13.3,38.9,17.463-38.1,46.039-11.51,16.867,22.424s-6.35,25,2.779,61.518c7.144,9.128-4.763,49.214-4.763,49.214L291.942,389.4l45.84-14.288-39.49-17.264s1.984-76.2,1.191-76.6,28.179-26.988,28.179-26.988L343.14,198.1l-3.969-19.249,22.822-22.424h12.9l27.187,18.852,31.95-40.681,33.537,19.249,27.782-22.226,74.813-11.509,57.351,9.525,97.833-13.891,29.915,18.6,34.232.744s14.436,10.121,13.841,10.418,11.758-12.353,11.758-12.353l10.716-34.827L814.048,61.872s2.084-22.027,2.084-22.92-10.419-22.92-10.419-22.92-5.358,4.167-4.465,3.869-8.037,25.9-8.037,25.9l-735.235.6v133.95l-20.539,38.7v33.041l21.134,33.041.6,321.479L47.558,647.084l10.418,35.422L30.591,696.794l28.278,18.753.595,208.367L69.585,925.5l3.969,8.087Z"/><polygon class="cls-3" points="689.822 306.653 716.265 261.904 739.78 233.477 761.361 243.3 774.607 233.477 790.83 230.5 787.705 215.171 749.454 184.064 703.118 199.097 692.402 194.135 682.281 195.326 665.612 178.458 643.584 202.073 552.499 202.47 552.499 193.342 534.043 180.641 519.16 193.143 511.024 194.334 503.681 200.089 494.751 200.089 480.265 205.447 472.327 200.883 452.681 209.813 441.767 199.89 432.44 214.774 432.44 232.435 474.907 247.715 472.03 255.058 488.401 312.805 509.535 298.517 527.693 317.865 536.028 333.642 550.613 323.819 559.841 297.922 567.878 262.797 584.25 228.566 606.575 242.556 611.635 256.05 641.104 233.626 658.369 233.031 672.359 243.151 672.061 263.69 673.252 274.704 684.563 297.624 686.647 307.447 689.822 306.653"/><g id="c"><path class="cls-4" d="M520.76,537.62q.06.645.09,1.29c-.08.73-.13,1.82-.14,3.14C520.69,540.3,520.7,538.77,520.76,537.62Z"/><path class="cls-4" d="M653.16,512.31a28.576,28.576,0,0,1,.89-6.3q.165.6.3,1.2a36.08,36.08,0,0,0-1.06,5.48A1.436,1.436,0,0,1,653.16,512.31Z"/><path class="cls-4" d="M860.41,129.59c-.15-2.07.03-3.72.67-4.71,8.28-15.14,11.14-28.05,11.35-38.62.2,10.99-2.43,24.71-11.35,41.02A5.265,5.265,0,0,0,860.41,129.59Z"/><path class="cls-4" d="M922.03,673.31c.01-2.43.02-5.07.03-7.85C922.06,668.21,922.05,670.85,922.03,673.31Z"/><path class="cls-4" d="M922.06,665.46c.01-1.55.02-3.13.02-4.74C922.07,662.34,922.07,663.92,922.06,665.46Z"/><path class="cls-4" d="M922.08,660.13c.01-1.72.02-3.47.02-5.23C922.09,656.67,922.09,658.42,922.08,660.13Z"/><path class="cls-4" d="M864.08,51.44c-.64-8.88,6.52-23.2,6.52-23.2l8.54-4.37,3.57,15.08,52.59.2-.02,2.41-52.57-.2-3.57-15.08-8.54,4.36S864.63,42.6,864.08,51.44Z"/><polygon class="cls-4" points="934.31 510.77 947.25 544.09 946.8 545.33 934.3 513.16 934.31 510.77"/><polygon class="cls-4" points="958.73 160.19 934.7 126.09 934.72 123.71 959.56 158.96 958.73 160.19"/><path class="cls-4" d="M987.88,897.57a5.519,5.519,0,0,0-1.07,1.3c-6.75-6.25-42.83-36.7-42.83-36.7l-9.97-84.68.02-2.27,9.95,84.55S988.78,897.57,987.88,897.57Z"/></g></g></g><g id="Layer_3" data-name="Layer 3"><path class="cls-3" d="M986.81,898.87c-5.39,7.38-28.69,43.65-28.69,43.65l-23.07,32-21.58-7-38.25-40.03-72.68-.9s-10.53,19.79-10.53,20.33c-.33-.1-5.66-.98-5.94-.98-.3,0-8.34-19.74-8.34-19.74l-73.62.1-7.04,8.73-1.69-.5-6.05-8.04H678.91l-8.63,30.66-.5,8.44-5.16-.7-.99-3.97-11.81-34.43-49.86-.12-15.03,46.88s-7.07-3.72-7.37-3.87-18.16-42.64-18.16-42.64l-32.37-.44-8.48,10.93-2.16-1.04-8.63-9.97-21.95.22-7.64,33.59-5.86-33.69-94.78-.01a29.883,29.883,0,0,1-4.61,2.57c-2.31.97-5.73-2.49-5.73-2.49l-37.17.03-15.41,7.97-14.96-7.89-99.7-.13-3.5,2.63-3.47-2.5H139.46V910.99l27.98-16.3.52-31.62,15.41-15.41,14.66,13.92.07,29.5,27.36,13.06c10.02,7.74,53.19-8.08,53.19-8.08l-.01-2.41h.01l-.19-62.59,15.96-22.02,21.89,15.55-.93,58.32.04.02-.04,2.39,37.73,16.22,21.58-11.68,25.83,15.4,73.69-10.1,6.65-74.81,5.9-15.38,13.61-9.13,18.99,22.82.49,61.82,17.27,22.23,10.12-.4,16.87-13.2,14.38-42.07,7.05-.4,18.75,53.78,9.63,10.27h31.75l19.74-54.02,3.58-63.7,11.31-.9,17.71,47.18-1.04,42.59.06.06-.06,2.35,24.31,26.44h49.01l18.46-33.78,6.02-.3,14.66,34.08h50.46l43.46-48.07,18.6-172.35s.04-6.25.07-15.25c0-.56,0-1.13.01-1.71.02-2.46.03-5.1.03-7.85.01-1.55.02-3.13.02-4.74v-.59c.01-1.72.02-3.47.02-5.23.01-2.6.01-5.23.02-7.86.02-7.67.03-15.28.02-21.67,0-2.33,0-4.5-.02-6.45-.01-6.22-.07-10.23-.17-10.23-.44,0-21.73-56.56-21.73-56.56l-28.13,11.01L842.33,549.6l-23.82,43.01-13.39.89-20.09-54.02-37.81-57.45-9.23-.45-34.82-19.35-7,48.82-11.46,40.78-11.9-.3s-17.85-34.75-19.52-38.84a36.08,36.08,0,0,1,1.06-5.48q-.135-.6-.3-1.2c.09-.39.19-.79.3-1.21-3.27-14.88-25-33.19-31.85-38.99-46.58-29.47-58.79,34.38-58.79,34.38v65.04L545.55,593.5l-6.25-.74-17.71-27.09s-.78-13.97-.88-22.92c-.01-.23-.01-.47,0-.7.01-1.32.06-2.41.14-3.14q-.03-.645-.09-1.29c.03-.43.05-.81.09-1.12-2.83-51.05-38.1-87.21-38.1-87.21l-27.98,3.27-15.33,43.46-29.32-.6-.45-19.2-11.01-28.57-23.22.59-10.12,23.52-15.48,63.55-23.22,19.5-23.07-12.5-3.87-66.09s-7.24-22.32-11.61-26.39c-10.02-2.88-31.05,26.69-31.05,26.69l-20.25-24.31-12.8-1.39-13.89,22.63L199.57,504.3l-5.26,6.06-11.02,42.81-19.64-38.99v-9.95l10.56-53.28,1.05-65.64,15.03-13.24,31.1,38.54,44.51,11.02H404.01c1.94,0,25.45-35.48,25.45-35.48.9-1.53,1.17-3.83,1.04-6.51.55-9.45-6.25-26.65-6.25-26.65s-11.46-13.25-17.71-13.69c-16.6-1.14-25.05-6.27-28.68-9.32,12.38-.57,71.14-3.18,70.21-.78,2.97,47.03,26.19,78.73,31.25,83.35,28.13,15.63,55.67.59,55.67.59s51.24.1,54.82-.29c20.24-70.25,31.75-59.54,31.75-59.54s47.82,67.18,53.78,64c18.55-10.91,35.72,0,35.72,0s30.28-10.94,27.23-12.2c-.1-.51-.2-1.02-.29-1.52.53-.42.67-.73.29-.89a177.916,177.916,0,0,1-3.69-31.75v-.28c.19-21.33,6.37-28.22,6.37-28.22,15.93.89,20.69-7.15,24.26-10.57,4.61.74,19.35-10.72,19.35-10.72l6.03,17.71h58.55l6.4,3.19,20.21.12,11.07,8.57h20.18V332.41h11.46l1.76-2.68-1.6-1.3,1.6-1.83-4.2-2.68h-9.02l-7.8-5.5H883.1l-7.65-3.67H862.38l-3.9-3.9-1.3-7.56,6.65-5.2,11.09-.92,9.7-8.02,2.14-27.44,9.18-8.95V230.52l10.33-9.4.96-.88-36.48-57.91s-9.59-22.01-10.34-32.74a5.265,5.265,0,0,1,.67-2.31c8.92-16.31,11.55-30.03,11.35-41.02.33-16.02-5.43-26.65-7.58-31.43a10.1,10.1,0,0,1-.77-3.39c.55-8.84,6.52-20.8,6.52-20.8l8.54-4.36,3.57,15.08,52.57.2-.58,82.13.02.02-.02,2.38,24.03,34.1-23.31,34.22L934.3,510.75l.01.02-.01,2.39,12.5,32.17-11.3,30.76-1.49,198.99.02.14-.02,2.27,9.97,84.68S980.06,892.62,986.81,898.87Z"/></g><g id="Layer_4" data-name="Layer 4"><path class="cls-4" d="M76.58,933.588l5.954-8.037,11.311-.4V906.686S76.729,882.24,76.134,882.141s0-132.461,0-132.461,2.282-44.75,45.741-51.794h61.419s5.655,15.875,6.548,16.173,19.944-14.586,19.944-14.586l65.189,11.014,12.5,13.1,19.646-19.348,65.189-6.35,10.418,25.1-4.465,48.519L389.576,785.2s14.288-14.883,17.86-12.8,2.382-44.352,2.382-44.352l11.906-30.163h51.2v22.126s15.776,19.944,16.669,20.837,22.92-18.753,22.92-18.753V696.2l22.623,1.488,19.348,12.205,19.349,65.784,11.609,4.465,13.1-24.111-3.274-18.753,12.2-29.767-2.977-7.144,24.409,9.228,31.255-12.2,6.251,48.817,16.967-5.061,18.455-39.887,21.134,8.037,45.246-11.013,16.371,27.98v68.463l8.93,39L803.63,837l11.013-38.1s10.419-109.541,12.5-112.816-14.883-11.906-14.883-11.906l-.3-10.419-4.465-3.572-9.823-27.98h-9.823L775.947,661.67,742.31,670.6l-44.65-19.051L692.9,609.578l-17.265,2.977L654.5,658.693S603,674.172,575.022,670c-3.87-1.786-14.585-16.967-14.585-16.967l-25.8,1.786L517.374,670l-64.3.1-8.136-76.6-4.763-30.362-23.813-16.669-26.79,16.371s-14.288,87.812-23.218,91.979c0,0-2.53,12.205-23.367,9.674-3.125-.595-14.436-35.124-14.436-35.124l-11.312-12.5-10.864,11.906-9.972,40.483s-25.153,8.186-43.757-7.144c.3-2.828,9.724-59.583,10.517-59.781s-20.241-50.8-20.241-50.8l-6.747,2.381-12.1,26.592.4,11.51-19.448,66.528S191.182,672.981,172.578,670c-3.87-.446-54.473-.6-54.473-.6l-15.777-23.218L91.017,606.3s22.127-29.369.5-79.774c-2.58-2.977,9.129-140.7,9.327-140.1s-12.7-67.074-12.7-67.074L132.591,237l39.094,8.93,13.3,38.9,17.463-38.1,46.039-11.51,16.867,22.424s-6.35,25,2.779,61.518c7.144,9.128-4.763,49.214-4.763,49.214L291.942,389.4l45.84-14.288-39.49-17.264s1.984-76.2,1.191-76.6,28.179-26.988,28.179-26.988L343.14,198.1l-3.969-19.249,22.822-22.424h12.9l27.187,18.852,31.95-40.681,33.537,19.249,27.782-22.226,74.813-11.509,57.351,9.525,97.833-13.891,29.915,18.6,34.232.744s14.436,10.121,13.841,10.418,11.758-12.353,11.758-12.353l10.716-34.827L814.048,61.872s2.084-22.027,2.084-22.92-10.419-22.92-10.419-22.92-5.358,4.167-4.465,3.869-8.037,25.9-8.037,25.9l-735.235.6v133.95l-20.539,38.7v33.041l21.134,33.041.6,321.479L47.558,647.084l10.418,35.422L30.591,696.794l28.278,18.753.595,208.367L69.585,925.5l3.969,8.087Z"/><polygon class="cls-4" points="689.822 306.653 716.265 261.904 739.78 233.477 761.361 243.3 774.607 233.477 790.83 230.5 787.705 215.171 749.454 184.064 703.118 199.097 692.402 194.135 682.281 195.326 665.612 178.458 643.584 202.073 552.499 202.47 552.499 193.342 534.043 180.641 519.16 193.143 511.024 194.334 503.681 200.089 494.751 200.089 480.265 205.447 472.327 200.883 452.681 209.813 441.767 199.89 432.44 214.774 432.44 232.435 474.907 247.715 472.03 255.058 488.401 312.805 509.535 298.517 527.693 317.865 536.028 333.642 550.613 323.819 559.841 297.922 567.878 262.797 584.25 228.566 606.575 242.556 611.635 256.05 641.104 233.626 658.369 233.031 672.359 243.151 672.061 263.69 673.252 274.704 684.563 297.624 686.647 307.447 689.822 306.653"/><path class="cls-5" d="M986.81,898.87c-5.39,7.38-28.69,43.65-28.69,43.65l-23.07,32-21.58-7-38.25-40.03-72.68-.9s-10.53,19.79-10.53,20.33c-.33-.1-5.66-.98-5.94-.98-.3,0-8.34-19.74-8.34-19.74l-73.62.1-7.04,8.73-1.69-.5-6.05-8.04H678.91l-8.63,30.66-.5,8.44-5.16-.7-.99-3.97-11.81-34.43-49.86-.12-15.03,46.88s-7.07-3.72-7.37-3.87-18.16-42.64-18.16-42.64l-32.37-.44-8.48,10.93-2.16-1.04-8.63-9.97-21.95.22-7.64,33.59-5.86-33.69-94.78-.01a29.883,29.883,0,0,1-4.61,2.57c-2.31.97-5.73-2.49-5.73-2.49l-37.17.03-15.41,7.97-14.96-7.89-99.7-.13-3.5,2.63-3.47-2.5H139.46V910.99l27.98-16.3.52-31.62,15.41-15.41,14.66,13.92.07,29.5,27.36,13.06c10.02,7.74,53.19-8.08,53.19-8.08l-.01-2.41h.01l-.19-62.59,15.96-22.02,21.89,15.55-.93,58.32.04.02-.04,2.39,37.73,16.22,21.58-11.68,25.83,15.4,73.69-10.1,6.65-74.81,5.9-15.38,13.61-9.13,18.99,22.82.49,61.82,17.27,22.23,10.12-.4,16.87-13.2,14.38-42.07,7.05-.4,18.75,53.78,9.63,10.27h31.75l19.74-54.02,3.58-63.7,11.31-.9,17.71,47.18-1.04,42.59.06.06-.06,2.35,24.31,26.44h49.01l18.46-33.78,6.02-.3,14.66,34.08h50.46l43.46-48.07,18.6-172.35s.04-6.25.07-15.25c0-.56,0-1.13.01-1.71.02-2.46.03-5.1.03-7.85.01-1.55.02-3.13.02-4.74v-.59c.01-1.72.02-3.47.02-5.23.01-2.6.01-5.23.02-7.86.02-7.67.03-15.28.02-21.67,0-2.33,0-4.5-.02-6.45-.01-6.22-.07-10.23-.17-10.23-.44,0-21.73-56.56-21.73-56.56l-28.13,11.01L842.33,549.6l-23.82,43.01-13.39.89-20.09-54.02-37.81-57.45-9.23-.45-34.82-19.35-7,48.82-11.46,40.78-11.9-.3s-17.85-34.75-19.52-38.84a36.08,36.08,0,0,1,1.06-5.48q-.135-.6-.3-1.2c.09-.39.19-.79.3-1.21-3.27-14.88-25-33.19-31.85-38.99-46.58-29.47-58.79,34.38-58.79,34.38v65.04L545.55,593.5l-6.25-.74-17.71-27.09s-.78-13.97-.88-22.92c-.01-.23-.01-.47,0-.7.01-1.32.06-2.41.14-3.14q-.03-.645-.09-1.29c.03-.43.05-.81.09-1.12-2.83-51.05-38.1-87.21-38.1-87.21l-27.98,3.27-15.33,43.46-29.32-.6-.45-19.2-11.01-28.57-23.22.59-10.12,23.52-15.48,63.55-23.22,19.5-23.07-12.5-3.87-66.09s-7.24-22.32-11.61-26.39c-10.02-2.88-31.05,26.69-31.05,26.69l-20.25-24.31-12.8-1.39-13.89,22.63L199.57,504.3l-5.26,6.06-11.02,42.81-19.64-38.99v-9.95l10.56-53.28,1.05-65.64,15.03-13.24,31.1,38.54,44.51,11.02H404.01c1.94,0,25.45-35.48,25.45-35.48.9-1.53,1.17-3.83,1.04-6.51.55-9.45-6.25-26.65-6.25-26.65s-11.46-13.25-17.71-13.69c-16.6-1.14-25.05-6.27-28.68-9.32,12.38-.57,71.14-3.18,70.21-.78,2.97,47.03,26.19,78.73,31.25,83.35,28.13,15.63,55.67.59,55.67.59s51.24.1,54.82-.29c20.24-70.25,31.75-59.54,31.75-59.54s47.82,67.18,53.78,64c18.55-10.91,35.72,0,35.72,0s30.28-10.94,27.23-12.2c-.1-.51-.2-1.02-.29-1.52.53-.42.67-.73.29-.89a177.916,177.916,0,0,1-3.69-31.75v-.28c.19-21.33,6.37-28.22,6.37-28.22,15.93.89,20.69-7.15,24.26-10.57,4.61.74,19.35-10.72,19.35-10.72l5.94,17.71h58.64l6.27,3.13h20.34l11.07,8.75h20.18V332.41h11.46l1.76-2.68-1.6-1.3,1.6-1.83-4.2-2.68h-9.02l-7.8-5.5H883.1l-7.65-3.67H862.38l-3.9-3.9-1.3-7.56,6.65-5.2,11.09-.92,9.7-8.02,2.14-27.44,9.18-8.95V230.52l10.33-9.4.96-.88-36.48-57.91s-9.59-22.01-10.34-32.74a5.265,5.265,0,0,1,.67-2.31c8.92-16.31,11.55-30.03,11.35-41.02.33-16.02-5.43-26.65-7.58-31.43a10.1,10.1,0,0,1-.77-3.39c.55-8.84,6.52-20.8,6.52-20.8l8.54-4.36,3.57,15.08,52.57.2-.58,82.13.02.02-.02,2.38,24.03,34.1-23.31,34.22L934.3,510.75l.01.02-.01,2.39,12.5,32.17-11.3,30.76-1.49,198.99.02.14-.02,2.27,9.97,84.68S980.06,892.62,986.81,898.87Z"/></g></svg>