<?xml version="1.0" encoding="utf-8"?>
<!-- Generator: Adobe Illustrator 26.2.1, SVG Export Plug-In . SVG Version: 6.00 Build 0)  -->
<svg version="1.1" xmlns="http://www.w3.org/2000/svg" xmlns:xlink="http://www.w3.org/1999/xlink" x="0px" y="0px"
	 viewBox="0 0 1044.8 1000" style="enable-background:new 0 0 1044.8 1000;" xml:space="preserve">
<style type="text/css">
	.st0{fill:none;}
	.st1{fill:#1D2B3F;}
	.st2{display:none;}
	.st3{fill:#152134;}
	.st4{fill:url(#SVGID_00000096018715051584236170000003414724132003496873_);}
	.st5{fill:url(#SVGID_00000093857933607016586390000018416810350749439894_);}
	.st6{fill:url(#SVGID_00000181078304225194257210000010062804008958166183_);}
	.st7{fill:url(#SVGID_00000105428048800052299340000017664350242012376220_);}
	.st8{fill:url(#SVGID_00000132767156214076294960000011003380319041647292_);}
	.st9{fill:url(#SVGID_00000018946095509411436810000008311092759461626807_);}
	.st10{fill:url(#SVGID_00000003799822955108334700000016307512512947155604_);}
	.st11{fill:url(#SVGID_00000165197947962117321870000014697301718062984325_);}
	.st12{fill:url(#SVGID_00000083773317849924161480000018071083383735724708_);}
	.st13{fill:url(#SVGID_00000016062219781897370620000003780458534092052906_);}
	.st14{fill:url(#SVGID_00000074423046582594521840000006092765276923549584_);}
	.st15{fill:url(#SVGID_00000112605126932219861670000010546536325193397378_);}
	.st16{fill:url(#SVGID_00000018204264658134628980000009978735100033113729_);}
	.st17{fill:url(#SVGID_00000039133501265839708810000011549855324739776942_);}
</style>
<pattern  y="1000" width="141.2" height="152.6" patternUnits="userSpaceOnUse" id="SVGID_0000003116668277697267222" viewBox="0 -152.6 141.2 152.6" style="overflow:visible;">
	<g>
		<rect y="-152.6" class="st0" width="141.2" height="152.6"/>
		<g>
			<rect y="-152.6" class="st0" width="141.2" height="152.6"/>
			<g>
				<rect y="-152.6" class="st0" width="141.2" height="152.6"/>
				<polygon class="st1" points="4.4,-76.6 46.2,-118.4 35.8,-82.6 0,-44.4 				"/>
				<polygon class="st1" points="63.1,-105.1 94.6,-84 71.7,-42.1 				"/>
				<polygon class="st1" points="138.6,-109.5 132.5,-134.5 117.2,-130.3 				"/>
				<polygon class="st1" points="138.6,-64.4 103,-7.4 138.6,-23.1 				"/>
				<polygon class="st1" points="87.6,-130.1 118.5,-105.1 118.5,-68.1 				"/>
				<polygon class="st1" points="34.6,-145.7 5,-116.5 64.1,-142.7 				"/>
				<polygon class="st1" points="13.8,-36.3 47.2,-51.6 33.6,-27.1 3.2,-14.9 				"/>
				<polygon class="st1" points="54.6,-117 68.6,-140.5 72.6,-120.7 				"/>
				<polygon class="st1" points="77,-28.6 115.4,-50 111.7,-31.7 				"/>
				<polygon class="st1" points="94.6,-58.4 121.8,-64.4 119.9,-58.4 				"/>
				<polygon class="st1" points="103,-129.7 135.8,-107 103.1,-121.5 				"/>
				<polygon class="st1" points="103,-133.2 141.2,-152.6 115.4,-131.1 				"/>
				<polygon class="st1" points="91.6,-9 53.6,-27.3 84.9,0 				"/>
				<polygon class="st1" points="13.9,-110 23.8,-121 24.6,-110 16.2,-97.9 				"/>
				<polygon class="st1" points="23.1,-58.3 36.5,-68.1 13.9,-42.1 				"/>
				<polygon class="st1" points="49.4,-107 54.6,-89 43.4,-79.8 				"/>
				<polygon class="st1" points="41.6,-37.3 58.9,-55.3 77.4,-21.8 				"/>
				<polygon class="st1" points="78.9,-150.9 98.3,-147.3 84.5,-135 				"/>
				<polygon class="st1" points="28.1,-8.3 39.8,-19.6 47.2,-4.7 				"/>
				<polygon class="st1" points="49,-64.4 57.5,-76.2 57.5,-64.4 				"/>
				<polygon class="st1" points="127.9,-100.7 131.8,-79.8 125.1,-64.4 				"/>
				<polygon class="st1" points="80.1,-109.5 96.2,-100.7 83.2,-103.4 				"/>
			</g>
		</g>
	</g>
</pattern>
<pattern  y="1000" width="141.2" height="152.6" patternUnits="userSpaceOnUse" id="SVGID_0000004199596005269134193" viewBox="0 -152.6 141.2 152.6" style="overflow:visible;">
	<g>
		<rect y="-152.6" class="st0" width="141.2" height="152.6"/>
		<g>
			<rect y="-152.6" class="st0" width="141.2" height="152.6"/>
			<g>
				<rect y="-152.6" class="st0" width="141.2" height="152.6"/>
				<polygon class="st1" points="4.4,-76.6 46.2,-118.4 35.8,-82.6 0,-44.4 				"/>
				<polygon class="st1" points="63.1,-105.1 94.6,-84 71.7,-42.1 				"/>
				<polygon class="st1" points="138.6,-109.5 132.5,-134.5 117.2,-130.3 				"/>
				<polygon class="st1" points="138.6,-64.4 103,-7.4 138.6,-23.1 				"/>
				<polygon class="st1" points="87.6,-130.1 118.5,-105.1 118.5,-68.1 				"/>
				<polygon class="st1" points="34.6,-145.7 5,-116.5 64.1,-142.7 				"/>
				<polygon class="st1" points="13.8,-36.3 47.2,-51.6 33.6,-27.1 3.2,-14.9 				"/>
				<polygon class="st1" points="54.6,-117 68.6,-140.5 72.6,-120.7 				"/>
				<polygon class="st1" points="77,-28.6 115.4,-50 111.7,-31.7 				"/>
				<polygon class="st1" points="94.6,-58.4 121.8,-64.4 119.9,-58.4 				"/>
				<polygon class="st1" points="103,-129.7 135.8,-107 103.1,-121.5 				"/>
				<polygon class="st1" points="103,-133.2 141.2,-152.6 115.4,-131.1 				"/>
				<polygon class="st1" points="91.6,-9 53.6,-27.3 84.9,0 				"/>
				<polygon class="st1" points="13.9,-110 23.8,-121 24.6,-110 16.2,-97.9 				"/>
				<polygon class="st1" points="23.1,-58.3 36.5,-68.1 13.9,-42.1 				"/>
				<polygon class="st1" points="49.4,-107 54.6,-89 43.4,-79.8 				"/>
				<polygon class="st1" points="41.6,-37.3 58.9,-55.3 77.4,-21.8 				"/>
				<polygon class="st1" points="78.9,-150.9 98.3,-147.3 84.5,-135 				"/>
				<polygon class="st1" points="28.1,-8.3 39.8,-19.6 47.2,-4.7 				"/>
				<polygon class="st1" points="49,-64.4 57.5,-76.2 57.5,-64.4 				"/>
				<polygon class="st1" points="127.9,-100.7 131.8,-79.8 125.1,-64.4 				"/>
				<polygon class="st1" points="80.1,-109.5 96.2,-100.7 83.2,-103.4 				"/>
			</g>
		</g>
	</g>
</pattern>
<pattern  y="1000" width="141.2" height="152.6" patternUnits="userSpaceOnUse" id="SVGID_0000005930711217431478199" viewBox="0 -152.6 141.2 152.6" style="overflow:visible;">
	<g>
		<rect y="-152.6" class="st0" width="141.2" height="152.6"/>
		<g>
			<rect y="-152.6" class="st0" width="141.2" height="152.6"/>
			<g>
				<rect y="-152.6" class="st0" width="141.2" height="152.6"/>
				<polygon class="st1" points="4.4,-76.6 46.2,-118.4 35.8,-82.6 0,-44.4 				"/>
				<polygon class="st1" points="63.1,-105.1 94.6,-84 71.7,-42.1 				"/>
				<polygon class="st1" points="138.6,-109.5 132.5,-134.5 117.2,-130.3 				"/>
				<polygon class="st1" points="138.6,-64.4 103,-7.4 138.6,-23.1 				"/>
				<polygon class="st1" points="87.6,-130.1 118.5,-105.1 118.5,-68.1 				"/>
				<polygon class="st1" points="34.6,-145.7 5,-116.5 64.1,-142.7 				"/>
				<polygon class="st1" points="13.8,-36.3 47.2,-51.6 33.6,-27.1 3.2,-14.9 				"/>
				<polygon class="st1" points="54.6,-117 68.6,-140.5 72.6,-120.7 				"/>
				<polygon class="st1" points="77,-28.6 115.4,-50 111.7,-31.7 				"/>
				<polygon class="st1" points="94.6,-58.4 121.8,-64.4 119.9,-58.4 				"/>
				<polygon class="st1" points="103,-129.7 135.8,-107 103.1,-121.5 				"/>
				<polygon class="st1" points="103,-133.2 141.2,-152.6 115.4,-131.1 				"/>
				<polygon class="st1" points="91.6,-9 53.6,-27.3 84.9,0 				"/>
				<polygon class="st1" points="13.9,-110 23.8,-121 24.6,-110 16.2,-97.9 				"/>
				<polygon class="st1" points="23.1,-58.3 36.5,-68.1 13.9,-42.1 				"/>
				<polygon class="st1" points="49.4,-107 54.6,-89 43.4,-79.8 				"/>
				<polygon class="st1" points="41.6,-37.3 58.9,-55.3 77.4,-21.8 				"/>
				<polygon class="st1" points="78.9,-150.9 98.3,-147.3 84.5,-135 				"/>
				<polygon class="st1" points="28.1,-8.3 39.8,-19.6 47.2,-4.7 				"/>
				<polygon class="st1" points="49,-64.4 57.5,-76.2 57.5,-64.4 				"/>
				<polygon class="st1" points="127.9,-100.7 131.8,-79.8 125.1,-64.4 				"/>
				<polygon class="st1" points="80.1,-109.5 96.2,-100.7 83.2,-103.4 				"/>
			</g>
		</g>
	</g>
</pattern>
<pattern  y="1000" width="141.2" height="152.6" patternUnits="userSpaceOnUse" id="SVGID_0000007156023135877645245" viewBox="0 -152.6 141.2 152.6" style="overflow:visible;">
	<g>
		<rect y="-152.6" class="st0" width="141.2" height="152.6"/>
		<g>
			<rect y="-152.6" class="st0" width="141.2" height="152.6"/>
			<g>
				<rect y="-152.6" class="st0" width="141.2" height="152.6"/>
				<polygon class="st1" points="4.4,-76.6 46.2,-118.4 35.8,-82.6 0,-44.4 				"/>
				<polygon class="st1" points="63.1,-105.1 94.6,-84 71.7,-42.1 				"/>
				<polygon class="st1" points="138.6,-109.5 132.5,-134.5 117.2,-130.3 				"/>
				<polygon class="st1" points="138.6,-64.4 103,-7.4 138.6,-23.1 				"/>
				<polygon class="st1" points="87.6,-130.1 118.5,-105.1 118.5,-68.1 				"/>
				<polygon class="st1" points="34.6,-145.7 5,-116.5 64.1,-142.7 				"/>
				<polygon class="st1" points="13.8,-36.3 47.2,-51.6 33.6,-27.1 3.2,-14.9 				"/>
				<polygon class="st1" points="54.6,-117 68.6,-140.5 72.6,-120.7 				"/>
				<polygon class="st1" points="77,-28.6 115.4,-50 111.7,-31.7 				"/>
				<polygon class="st1" points="94.6,-58.4 121.8,-64.4 119.9,-58.4 				"/>
				<polygon class="st1" points="103,-129.7 135.8,-107 103.1,-121.5 				"/>
				<polygon class="st1" points="103,-133.2 141.2,-152.6 115.4,-131.1 				"/>
				<polygon class="st1" points="91.6,-9 53.6,-27.3 84.9,0 				"/>
				<polygon class="st1" points="13.9,-110 23.8,-121 24.6,-110 16.2,-97.9 				"/>
				<polygon class="st1" points="23.1,-58.3 36.5,-68.1 13.9,-42.1 				"/>
				<polygon class="st1" points="49.4,-107 54.6,-89 43.4,-79.8 				"/>
				<polygon class="st1" points="41.6,-37.3 58.9,-55.3 77.4,-21.8 				"/>
				<polygon class="st1" points="78.9,-150.9 98.3,-147.3 84.5,-135 				"/>
				<polygon class="st1" points="28.1,-8.3 39.8,-19.6 47.2,-4.7 				"/>
				<polygon class="st1" points="49,-64.4 57.5,-76.2 57.5,-64.4 				"/>
				<polygon class="st1" points="127.9,-100.7 131.8,-79.8 125.1,-64.4 				"/>
				<polygon class="st1" points="80.1,-109.5 96.2,-100.7 83.2,-103.4 				"/>
			</g>
		</g>
	</g>
</pattern>
<pattern  y="1000" width="141.2" height="152.6" patternUnits="userSpaceOnUse" id="SVGID_0000008884611333030316368" viewBox="0 -152.6 141.2 152.6" style="overflow:visible;">
	<g>
		<rect y="-152.6" class="st0" width="141.2" height="152.6"/>
		<g>
			<rect y="-152.6" class="st0" width="141.2" height="152.6"/>
			<g>
				<rect y="-152.6" class="st0" width="141.2" height="152.6"/>
				<polygon class="st1" points="4.4,-76.6 46.2,-118.4 35.8,-82.6 0,-44.4 				"/>
				<polygon class="st1" points="63.1,-105.1 94.6,-84 71.7,-42.1 				"/>
				<polygon class="st1" points="138.6,-109.5 132.5,-134.5 117.2,-130.3 				"/>
				<polygon class="st1" points="138.6,-64.4 103,-7.4 138.6,-23.1 				"/>
				<polygon class="st1" points="87.6,-130.1 118.5,-105.1 118.5,-68.1 				"/>
				<polygon class="st1" points="34.6,-145.7 5,-116.5 64.1,-142.7 				"/>
				<polygon class="st1" points="13.8,-36.3 47.2,-51.6 33.6,-27.1 3.2,-14.9 				"/>
				<polygon class="st1" points="54.6,-117 68.6,-140.5 72.6,-120.7 				"/>
				<polygon class="st1" points="77,-28.6 115.4,-50 111.7,-31.7 				"/>
				<polygon class="st1" points="94.6,-58.4 121.8,-64.4 119.9,-58.4 				"/>
				<polygon class="st1" points="103,-129.7 135.8,-107 103.1,-121.5 				"/>
				<polygon class="st1" points="103,-133.2 141.2,-152.6 115.4,-131.1 				"/>
				<polygon class="st1" points="91.6,-9 53.6,-27.3 84.9,0 				"/>
				<polygon class="st1" points="13.9,-110 23.8,-121 24.6,-110 16.2,-97.9 				"/>
				<polygon class="st1" points="23.1,-58.3 36.5,-68.1 13.9,-42.1 				"/>
				<polygon class="st1" points="49.4,-107 54.6,-89 43.4,-79.8 				"/>
				<polygon class="st1" points="41.6,-37.3 58.9,-55.3 77.4,-21.8 				"/>
				<polygon class="st1" points="78.9,-150.9 98.3,-147.3 84.5,-135 				"/>
				<polygon class="st1" points="28.1,-8.3 39.8,-19.6 47.2,-4.7 				"/>
				<polygon class="st1" points="49,-64.4 57.5,-76.2 57.5,-64.4 				"/>
				<polygon class="st1" points="127.9,-100.7 131.8,-79.8 125.1,-64.4 				"/>
				<polygon class="st1" points="80.1,-109.5 96.2,-100.7 83.2,-103.4 				"/>
			</g>
		</g>
	</g>
</pattern>
<pattern  y="1000" width="141.2" height="152.6" patternUnits="userSpaceOnUse" id="SVGID_0000009459542717841438356" viewBox="0 -152.6 141.2 152.6" style="overflow:visible;">
	<g>
		<rect y="-152.6" class="st0" width="141.2" height="152.6"/>
		<g>
			<rect y="-152.6" class="st0" width="141.2" height="152.6"/>
			<g>
				<rect y="-152.6" class="st0" width="141.2" height="152.6"/>
				<polygon class="st1" points="4.4,-76.6 46.2,-118.4 35.8,-82.6 0,-44.4 				"/>
				<polygon class="st1" points="63.1,-105.1 94.6,-84 71.7,-42.1 				"/>
				<polygon class="st1" points="138.6,-109.5 132.5,-134.5 117.2,-130.3 				"/>
				<polygon class="st1" points="138.6,-64.4 103,-7.4 138.6,-23.1 				"/>
				<polygon class="st1" points="87.6,-130.1 118.5,-105.1 118.5,-68.1 				"/>
				<polygon class="st1" points="34.6,-145.7 5,-116.5 64.1,-142.7 				"/>
				<polygon class="st1" points="13.8,-36.3 47.2,-51.6 33.6,-27.1 3.2,-14.9 				"/>
				<polygon class="st1" points="54.6,-117 68.6,-140.5 72.6,-120.7 				"/>
				<polygon class="st1" points="77,-28.6 115.4,-50 111.7,-31.7 				"/>
				<polygon class="st1" points="94.6,-58.4 121.8,-64.4 119.9,-58.4 				"/>
				<polygon class="st1" points="103,-129.7 135.8,-107 103.1,-121.5 				"/>
				<polygon class="st1" points="103,-133.2 141.2,-152.6 115.4,-131.1 				"/>
				<polygon class="st1" points="91.6,-9 53.6,-27.3 84.9,0 				"/>
				<polygon class="st1" points="13.9,-110 23.8,-121 24.6,-110 16.2,-97.9 				"/>
				<polygon class="st1" points="23.1,-58.3 36.5,-68.1 13.9,-42.1 				"/>
				<polygon class="st1" points="49.4,-107 54.6,-89 43.4,-79.8 				"/>
				<polygon class="st1" points="41.6,-37.3 58.9,-55.3 77.4,-21.8 				"/>
				<polygon class="st1" points="78.9,-150.9 98.3,-147.3 84.5,-135 				"/>
				<polygon class="st1" points="28.1,-8.3 39.8,-19.6 47.2,-4.7 				"/>
				<polygon class="st1" points="49,-64.4 57.5,-76.2 57.5,-64.4 				"/>
				<polygon class="st1" points="127.9,-100.7 131.8,-79.8 125.1,-64.4 				"/>
				<polygon class="st1" points="80.1,-109.5 96.2,-100.7 83.2,-103.4 				"/>
			</g>
		</g>
	</g>
</pattern>
<pattern  y="1000" width="141.2" height="152.6" patternUnits="userSpaceOnUse" id="SVGID_0000009530390201640683627" viewBox="0 -152.6 141.2 152.6" style="overflow:visible;">
	<g>
		<rect y="-152.6" class="st0" width="141.2" height="152.6"/>
		<g>
			<rect y="-152.6" class="st0" width="141.2" height="152.6"/>
			<g>
				<rect y="-152.6" class="st0" width="141.2" height="152.6"/>
				<polygon class="st1" points="4.4,-76.6 46.2,-118.4 35.8,-82.6 0,-44.4 				"/>
				<polygon class="st1" points="63.1,-105.1 94.6,-84 71.7,-42.1 				"/>
				<polygon class="st1" points="138.6,-109.5 132.5,-134.5 117.2,-130.3 				"/>
				<polygon class="st1" points="138.6,-64.4 103,-7.4 138.6,-23.1 				"/>
				<polygon class="st1" points="87.6,-130.1 118.5,-105.1 118.5,-68.1 				"/>
				<polygon class="st1" points="34.6,-145.7 5,-116.5 64.1,-142.7 				"/>
				<polygon class="st1" points="13.8,-36.3 47.2,-51.6 33.6,-27.1 3.2,-14.9 				"/>
				<polygon class="st1" points="54.6,-117 68.6,-140.5 72.6,-120.7 				"/>
				<polygon class="st1" points="77,-28.6 115.4,-50 111.7,-31.7 				"/>
				<polygon class="st1" points="94.6,-58.4 121.8,-64.4 119.9,-58.4 				"/>
				<polygon class="st1" points="103,-129.7 135.8,-107 103.1,-121.5 				"/>
				<polygon class="st1" points="103,-133.2 141.2,-152.6 115.4,-131.1 				"/>
				<polygon class="st1" points="91.6,-9 53.6,-27.3 84.9,0 				"/>
				<polygon class="st1" points="13.9,-110 23.8,-121 24.6,-110 16.2,-97.9 				"/>
				<polygon class="st1" points="23.1,-58.3 36.5,-68.1 13.9,-42.1 				"/>
				<polygon class="st1" points="49.4,-107 54.6,-89 43.4,-79.8 				"/>
				<polygon class="st1" points="41.6,-37.3 58.9,-55.3 77.4,-21.8 				"/>
				<polygon class="st1" points="78.9,-150.9 98.3,-147.3 84.5,-135 				"/>
				<polygon class="st1" points="28.1,-8.3 39.8,-19.6 47.2,-4.7 				"/>
				<polygon class="st1" points="49,-64.4 57.5,-76.2 57.5,-64.4 				"/>
				<polygon class="st1" points="127.9,-100.7 131.8,-79.8 125.1,-64.4 				"/>
				<polygon class="st1" points="80.1,-109.5 96.2,-100.7 83.2,-103.4 				"/>
			</g>
		</g>
	</g>
</pattern>
<pattern  y="1000" width="141.2" height="152.6" patternUnits="userSpaceOnUse" id="SVGID_0000009892162898998504830" viewBox="0 -152.6 141.2 152.6" style="overflow:visible;">
	<g>
		<rect y="-152.6" class="st0" width="141.2" height="152.6"/>
		<g>
			<rect y="-152.6" class="st0" width="141.2" height="152.6"/>
			<g>
				<rect y="-152.6" class="st0" width="141.2" height="152.6"/>
				<polygon class="st1" points="4.4,-76.6 46.2,-118.4 35.8,-82.6 0,-44.4 				"/>
				<polygon class="st1" points="63.1,-105.1 94.6,-84 71.7,-42.1 				"/>
				<polygon class="st1" points="138.6,-109.5 132.5,-134.5 117.2,-130.3 				"/>
				<polygon class="st1" points="138.6,-64.4 103,-7.4 138.6,-23.1 				"/>
				<polygon class="st1" points="87.6,-130.1 118.5,-105.1 118.5,-68.1 				"/>
				<polygon class="st1" points="34.6,-145.7 5,-116.5 64.1,-142.7 				"/>
				<polygon class="st1" points="13.8,-36.3 47.2,-51.6 33.6,-27.1 3.2,-14.9 				"/>
				<polygon class="st1" points="54.6,-117 68.6,-140.5 72.6,-120.7 				"/>
				<polygon class="st1" points="77,-28.6 115.4,-50 111.7,-31.7 				"/>
				<polygon class="st1" points="94.6,-58.4 121.8,-64.4 119.9,-58.4 				"/>
				<polygon class="st1" points="103,-129.7 135.8,-107 103.1,-121.5 				"/>
				<polygon class="st1" points="103,-133.2 141.2,-152.6 115.4,-131.1 				"/>
				<polygon class="st1" points="91.6,-9 53.6,-27.3 84.9,0 				"/>
				<polygon class="st1" points="13.9,-110 23.8,-121 24.6,-110 16.2,-97.9 				"/>
				<polygon class="st1" points="23.1,-58.3 36.5,-68.1 13.9,-42.1 				"/>
				<polygon class="st1" points="49.4,-107 54.6,-89 43.4,-79.8 				"/>
				<polygon class="st1" points="41.6,-37.3 58.9,-55.3 77.4,-21.8 				"/>
				<polygon class="st1" points="78.9,-150.9 98.3,-147.3 84.5,-135 				"/>
				<polygon class="st1" points="28.1,-8.3 39.8,-19.6 47.2,-4.7 				"/>
				<polygon class="st1" points="49,-64.4 57.5,-76.2 57.5,-64.4 				"/>
				<polygon class="st1" points="127.9,-100.7 131.8,-79.8 125.1,-64.4 				"/>
				<polygon class="st1" points="80.1,-109.5 96.2,-100.7 83.2,-103.4 				"/>
			</g>
		</g>
	</g>
</pattern>
<pattern  y="1000" width="141.2" height="152.6" patternUnits="userSpaceOnUse" id="SVGID_0000013496843445835448724" viewBox="0 -152.6 141.2 152.6" style="overflow:visible;">
	<g>
		<rect y="-152.6" class="st0" width="141.2" height="152.6"/>
		<g>
			<rect y="-152.6" class="st0" width="141.2" height="152.6"/>
			<g>
				<rect y="-152.6" class="st0" width="141.2" height="152.6"/>
				<polygon class="st1" points="4.4,-76.6 46.2,-118.4 35.8,-82.6 0,-44.4 				"/>
				<polygon class="st1" points="63.1,-105.1 94.6,-84 71.7,-42.1 				"/>
				<polygon class="st1" points="138.6,-109.5 132.5,-134.5 117.2,-130.3 				"/>
				<polygon class="st1" points="138.6,-64.4 103,-7.4 138.6,-23.1 				"/>
				<polygon class="st1" points="87.6,-130.1 118.5,-105.1 118.5,-68.1 				"/>
				<polygon class="st1" points="34.6,-145.7 5,-116.5 64.1,-142.7 				"/>
				<polygon class="st1" points="13.8,-36.3 47.2,-51.6 33.6,-27.1 3.2,-14.9 				"/>
				<polygon class="st1" points="54.6,-117 68.6,-140.5 72.6,-120.7 				"/>
				<polygon class="st1" points="77,-28.6 115.4,-50 111.7,-31.7 				"/>
				<polygon class="st1" points="94.6,-58.4 121.8,-64.4 119.9,-58.4 				"/>
				<polygon class="st1" points="103,-129.7 135.8,-107 103.1,-121.5 				"/>
				<polygon class="st1" points="103,-133.2 141.2,-152.6 115.4,-131.1 				"/>
				<polygon class="st1" points="91.6,-9 53.6,-27.3 84.9,0 				"/>
				<polygon class="st1" points="13.9,-110 23.8,-121 24.6,-110 16.2,-97.9 				"/>
				<polygon class="st1" points="23.1,-58.3 36.5,-68.1 13.9,-42.1 				"/>
				<polygon class="st1" points="49.4,-107 54.6,-89 43.4,-79.8 				"/>
				<polygon class="st1" points="41.6,-37.3 58.9,-55.3 77.4,-21.8 				"/>
				<polygon class="st1" points="78.9,-150.9 98.3,-147.3 84.5,-135 				"/>
				<polygon class="st1" points="28.1,-8.3 39.8,-19.6 47.2,-4.7 				"/>
				<polygon class="st1" points="49,-64.4 57.5,-76.2 57.5,-64.4 				"/>
				<polygon class="st1" points="127.9,-100.7 131.8,-79.8 125.1,-64.4 				"/>
				<polygon class="st1" points="80.1,-109.5 96.2,-100.7 83.2,-103.4 				"/>
			</g>
		</g>
	</g>
</pattern>
<pattern  y="1000" width="141.2" height="152.6" patternUnits="userSpaceOnUse" id="SVGID_0000014432836072329995146" viewBox="0 -152.6 141.2 152.6" style="overflow:visible;">
	<g>
		<rect y="-152.6" class="st0" width="141.2" height="152.6"/>
		<g>
			<rect y="-152.6" class="st0" width="141.2" height="152.6"/>
			<g>
				<rect y="-152.6" class="st0" width="141.2" height="152.6"/>
				<polygon class="st1" points="4.4,-76.6 46.2,-118.4 35.8,-82.6 0,-44.4 				"/>
				<polygon class="st1" points="63.1,-105.1 94.6,-84 71.7,-42.1 				"/>
				<polygon class="st1" points="138.6,-109.5 132.5,-134.5 117.2,-130.3 				"/>
				<polygon class="st1" points="138.6,-64.4 103,-7.4 138.6,-23.1 				"/>
				<polygon class="st1" points="87.6,-130.1 118.5,-105.1 118.5,-68.1 				"/>
				<polygon class="st1" points="34.6,-145.7 5,-116.5 64.1,-142.7 				"/>
				<polygon class="st1" points="13.8,-36.3 47.2,-51.6 33.6,-27.1 3.2,-14.9 				"/>
				<polygon class="st1" points="54.6,-117 68.6,-140.5 72.6,-120.7 				"/>
				<polygon class="st1" points="77,-28.6 115.4,-50 111.7,-31.7 				"/>
				<polygon class="st1" points="94.6,-58.4 121.8,-64.4 119.9,-58.4 				"/>
				<polygon class="st1" points="103,-129.7 135.8,-107 103.1,-121.5 				"/>
				<polygon class="st1" points="103,-133.2 141.2,-152.6 115.4,-131.1 				"/>
				<polygon class="st1" points="91.6,-9 53.6,-27.3 84.9,0 				"/>
				<polygon class="st1" points="13.9,-110 23.8,-121 24.6,-110 16.2,-97.9 				"/>
				<polygon class="st1" points="23.1,-58.3 36.5,-68.1 13.9,-42.1 				"/>
				<polygon class="st1" points="49.4,-107 54.6,-89 43.4,-79.8 				"/>
				<polygon class="st1" points="41.6,-37.3 58.9,-55.3 77.4,-21.8 				"/>
				<polygon class="st1" points="78.9,-150.9 98.3,-147.3 84.5,-135 				"/>
				<polygon class="st1" points="28.1,-8.3 39.8,-19.6 47.2,-4.7 				"/>
				<polygon class="st1" points="49,-64.4 57.5,-76.2 57.5,-64.4 				"/>
				<polygon class="st1" points="127.9,-100.7 131.8,-79.8 125.1,-64.4 				"/>
				<polygon class="st1" points="80.1,-109.5 96.2,-100.7 83.2,-103.4 				"/>
			</g>
		</g>
	</g>
</pattern>
<pattern  y="1000" width="141.2" height="152.6" patternUnits="userSpaceOnUse" id="SVGID_0000017241803870568647531" viewBox="0 -152.6 141.2 152.6" style="overflow:visible;">
	<g>
		<rect y="-152.6" class="st0" width="141.2" height="152.6"/>
		<g>
			<rect y="-152.6" class="st0" width="141.2" height="152.6"/>
			<g>
				<rect y="-152.6" class="st0" width="141.2" height="152.6"/>
				<polygon class="st1" points="4.4,-76.6 46.2,-118.4 35.8,-82.6 0,-44.4 				"/>
				<polygon class="st1" points="63.1,-105.1 94.6,-84 71.7,-42.1 				"/>
				<polygon class="st1" points="138.6,-109.5 132.5,-134.5 117.2,-130.3 				"/>
				<polygon class="st1" points="138.6,-64.4 103,-7.4 138.6,-23.1 				"/>
				<polygon class="st1" points="87.6,-130.1 118.5,-105.1 118.5,-68.1 				"/>
				<polygon class="st1" points="34.6,-145.7 5,-116.5 64.1,-142.7 				"/>
				<polygon class="st1" points="13.8,-36.3 47.2,-51.6 33.6,-27.1 3.2,-14.9 				"/>
				<polygon class="st1" points="54.6,-117 68.6,-140.5 72.6,-120.7 				"/>
				<polygon class="st1" points="77,-28.6 115.4,-50 111.7,-31.7 				"/>
				<polygon class="st1" points="94.6,-58.4 121.8,-64.4 119.9,-58.4 				"/>
				<polygon class="st1" points="103,-129.7 135.8,-107 103.1,-121.5 				"/>
				<polygon class="st1" points="103,-133.2 141.2,-152.6 115.4,-131.1 				"/>
				<polygon class="st1" points="91.6,-9 53.6,-27.3 84.9,0 				"/>
				<polygon class="st1" points="13.9,-110 23.8,-121 24.6,-110 16.2,-97.9 				"/>
				<polygon class="st1" points="23.1,-58.3 36.5,-68.1 13.9,-42.1 				"/>
				<polygon class="st1" points="49.4,-107 54.6,-89 43.4,-79.8 				"/>
				<polygon class="st1" points="41.6,-37.3 58.9,-55.3 77.4,-21.8 				"/>
				<polygon class="st1" points="78.9,-150.9 98.3,-147.3 84.5,-135 				"/>
				<polygon class="st1" points="28.1,-8.3 39.8,-19.6 47.2,-4.7 				"/>
				<polygon class="st1" points="49,-64.4 57.5,-76.2 57.5,-64.4 				"/>
				<polygon class="st1" points="127.9,-100.7 131.8,-79.8 125.1,-64.4 				"/>
				<polygon class="st1" points="80.1,-109.5 96.2,-100.7 83.2,-103.4 				"/>
			</g>
		</g>
	</g>
</pattern>
<pattern  y="1000" width="141.2" height="152.6" patternUnits="userSpaceOnUse" id="SVGID_1_" viewBox="0 -152.6 141.2 152.6" style="overflow:visible;">
	<g>
		<rect y="-152.6" class="st0" width="141.2" height="152.6"/>
		<g>
			<rect y="-152.6" class="st0" width="141.2" height="152.6"/>
			<g>
				<rect y="-152.6" class="st0" width="141.2" height="152.6"/>
				<polygon class="st1" points="4.4,-76.6 46.2,-118.4 35.8,-82.6 0,-44.4 				"/>
				<polygon class="st1" points="63.1,-105.1 94.6,-84 71.7,-42.1 				"/>
				<polygon class="st1" points="138.6,-109.5 132.5,-134.5 117.2,-130.3 				"/>
				<polygon class="st1" points="138.6,-64.4 103,-7.4 138.6,-23.1 				"/>
				<polygon class="st1" points="87.6,-130.1 118.5,-105.1 118.5,-68.1 				"/>
				<polygon class="st1" points="34.6,-145.7 5,-116.5 64.1,-142.7 				"/>
				<polygon class="st1" points="13.8,-36.3 47.2,-51.6 33.6,-27.1 3.2,-14.9 				"/>
				<polygon class="st1" points="54.6,-117 68.6,-140.5 72.6,-120.7 				"/>
				<polygon class="st1" points="77,-28.6 115.4,-50 111.7,-31.7 				"/>
				<polygon class="st1" points="94.6,-58.4 121.8,-64.4 119.9,-58.4 				"/>
				<polygon class="st1" points="103,-129.7 135.8,-107 103.1,-121.5 				"/>
				<polygon class="st1" points="103,-133.2 141.2,-152.6 115.4,-131.1 				"/>
				<polygon class="st1" points="91.6,-9 53.6,-27.3 84.9,0 				"/>
				<polygon class="st1" points="13.9,-110 23.8,-121 24.6,-110 16.2,-97.9 				"/>
				<polygon class="st1" points="23.1,-58.3 36.5,-68.1 13.9,-42.1 				"/>
				<polygon class="st1" points="49.4,-107 54.6,-89 43.4,-79.8 				"/>
				<polygon class="st1" points="41.6,-37.3 58.9,-55.3 77.4,-21.8 				"/>
				<polygon class="st1" points="78.9,-150.9 98.3,-147.3 84.5,-135 				"/>
				<polygon class="st1" points="28.1,-8.3 39.8,-19.6 47.2,-4.7 				"/>
				<polygon class="st1" points="49,-64.4 57.5,-76.2 57.5,-64.4 				"/>
				<polygon class="st1" points="127.9,-100.7 131.8,-79.8 125.1,-64.4 				"/>
				<polygon class="st1" points="80.1,-109.5 96.2,-100.7 83.2,-103.4 				"/>
			</g>
		</g>
	</g>
</pattern>
<pattern  y="1000" width="141.2" height="152.6" patternUnits="userSpaceOnUse" id="d" viewBox="0 -152.6 141.2 152.6" style="overflow:visible;">
	<g>
		<rect y="-152.6" class="st0" width="141.2" height="152.6"/>
		<g>
			<rect y="-152.6" class="st0" width="141.2" height="152.6"/>
			<g>
				<rect y="-152.6" class="st0" width="141.2" height="152.6"/>
				<polygon class="st1" points="4.4,-76.6 46.2,-118.4 35.8,-82.6 0,-44.4 				"/>
				<polygon class="st1" points="63.1,-105.1 94.6,-84 71.7,-42.1 				"/>
				<polygon class="st1" points="138.6,-109.5 132.5,-134.5 117.2,-130.3 				"/>
				<polygon class="st1" points="138.6,-64.4 103,-7.4 138.6,-23.1 				"/>
				<polygon class="st1" points="87.6,-130.1 118.5,-105.1 118.5,-68.1 				"/>
				<polygon class="st1" points="34.6,-145.7 5,-116.5 64.1,-142.7 				"/>
				<polygon class="st1" points="13.8,-36.3 47.2,-51.6 33.6,-27.1 3.2,-14.9 				"/>
				<polygon class="st1" points="54.6,-117 68.6,-140.5 72.6,-120.7 				"/>
				<polygon class="st1" points="77,-28.6 115.4,-50 111.7,-31.7 				"/>
				<polygon class="st1" points="94.6,-58.4 121.8,-64.4 119.9,-58.4 				"/>
				<polygon class="st1" points="103,-129.7 135.8,-107 103.1,-121.5 				"/>
				<polygon class="st1" points="103,-133.2 141.2,-152.6 115.4,-131.1 				"/>
				<polygon class="st1" points="91.6,-9 53.6,-27.3 84.9,0 				"/>
				<polygon class="st1" points="13.9,-110 23.8,-121 24.6,-110 16.2,-97.9 				"/>
				<polygon class="st1" points="23.1,-58.3 36.5,-68.1 13.9,-42.1 				"/>
				<polygon class="st1" points="49.4,-107 54.6,-89 43.4,-79.8 				"/>
				<polygon class="st1" points="41.6,-37.3 58.9,-55.3 77.4,-21.8 				"/>
				<polygon class="st1" points="78.9,-150.9 98.3,-147.3 84.5,-135 				"/>
				<polygon class="st1" points="28.1,-8.3 39.8,-19.6 47.2,-4.7 				"/>
				<polygon class="st1" points="49,-64.4 57.5,-76.2 57.5,-64.4 				"/>
				<polygon class="st1" points="127.9,-100.7 131.8,-79.8 125.1,-64.4 				"/>
				<polygon class="st1" points="80.1,-109.5 96.2,-100.7 83.2,-103.4 				"/>
			</g>
		</g>
	</g>
</pattern>
<g id="Layer_1">
	<g id="Layer_2_00000065785446052404265250000010461904818774371518_" class="st2">
		
			<image style="display:inline;overflow:visible;enable-background:new    ;" width="1692" height="824" xlink:href="CD54E09A.jpg"  transform="matrix(0.1318 0 0 0.1318 735.5043 269.2906)">
		</image>
	</g>
	<g id="a">
		<g id="b">
			<path class="st3" d="M278.5,831.1L278.5,831.1l0.2,62.6l0,0L278.5,831.1z"/>
			<polygon class="st3" points="315.4,882.9 316.3,824.6 316.3,824.6 			"/>
			<polygon class="st3" points="697,881.8 698,839.2 698.1,839.4 697,881.9 			"/>
			<path class="st3" d="M738,403.6c-2.6-13.4-3.5-24.2-3.4-32.6c0.1,8.4,1.1,18.8,3.7,31.8C738.7,402.9,738.5,403.2,738,403.6z"/>
			<path class="st3" d="M864.8,57.2c-0.7-1.6-0.9-3.6-0.8-5.8c0.1,1.3,0.3,2.4,0.8,3.4c2.2,4.8,7.9,15.4,7.6,31.4
				C872.2,71.6,866.9,61.8,864.8,57.2z"/>
			<path class="st3" d="M870.8,164.7c0,0-11.2-25.8-10.3-35.1c0.8,10.7,10.3,32.7,10.3,32.7l36.5,57.9l-1,0.9L870.8,164.7z"/>
			<polygon class="st3" points="934.7,123.7 934.7,123.7 935.3,41.6 935.3,41.6 			"/>
			<polygon class="st3" points="934,775.2 934,775.1 935.5,576.1 946.8,545.3 947.2,546.5 935.5,578.5 			"/>
			<polygon class="st3" points="934.3,510.8 934.3,510.8 935.4,194.4 958.7,160.2 959.6,161.4 935.4,196.8 			"/>
			<path class="st3" d="M987.9,900c-0.9,0-29.8,44.9-29.8,44.9l-23.1,32l-21.6-7l-38.2-40l-72.7-0.9c0,0-10.5,19.8-10.5,20.3
				c-0.3-0.1-5.7-1-5.9-1c-0.3,0-8.3-19.8-8.3-19.8l-73.6,0.1l-7,8.7l-1.7-0.5l-6-8h-10.4l-8.6,30.7l-0.5,8.4l-5.2-0.7l-1-4
				L652,928.8l-49.9-0.1l-15,46.9c0,0-7.1-3.7-7.4-3.9c-0.3-0.1-18.2-42.6-18.2-42.6l-32.4-0.5l-8.5,10.9l-2.2-1l-8.6-10l-22,0.2
				l-7.6,33.6l-5.9-33.7h-94.8c0,0-2.3,1.6-4.6,2.6c-2.3,1-5.7-2.5-5.7-2.5H332l-15.4,8l-15-7.9l-99.7-0.1l-3.5,2.6l-3.5-2.5h-55.5
				v-2.4H195l3.5,2.5l3.5-2.6l99.7,0.1l15,7.9l15.4-8h37.2c0,0,3.4,3.5,5.7,2.5c2.3-1,4.6-2.6,4.6-2.6h94.8l5.9,33.7l7.6-33.6
				l22-0.2l8.6,10l2.2,1l8.5-10.9l32.4,0.4c0,0,17.9,42.5,18.2,42.6s7.4,3.9,7.4,3.9l15-46.9l49.9,0.1l11.8,34.4l1,4l5.2,0.7
				l0.5-8.4l8.6-30.7h10.4l6,8l1.7,0.5l7-8.7l73.6-0.1c0,0,8,19.7,8.3,19.7s5.6,0.9,5.9,1c0-0.5,10.5-20.3,10.5-20.3l72.7,0.9
				l38.2,40l21.6,7l23.1-32c0,0,23.3-36.3,28.7-43.7C987.6,899.6,988,900,987.9,900z"/>
			<g>
				<path class="st3" d="M520.8,537.6c0,0.4,0.1,0.9,0.1,1.3c-0.1,0.7-0.1,1.8-0.1,3.1C520.7,540.3,520.7,538.8,520.8,537.6z"/>
				<path class="st3" d="M653.2,512.3c0-0.9,0.1-3.1,0.9-6.3c0.1,0.4,0.2,0.8,0.3,1.2c-0.6,2.3-0.9,4.1-1.1,5.5
					C653.2,512.5,653.2,512.4,653.2,512.3z"/>
				<path class="st3" d="M860.4,129.6c-0.1-2.1,0-3.7,0.7-4.7c8.3-15.1,11.1-28,11.3-38.6c0.2,11-2.4,24.7-11.3,41
					C860.7,127.8,860.5,128.6,860.4,129.6z"/>
				<path class="st3" d="M922,673.3c0-2.4,0-5.1,0-7.8C922.1,668.2,922,670.8,922,673.3z"/>
				<path class="st3" d="M922.1,665.5c0-1.6,0-3.1,0-4.7C922.1,662.3,922.1,663.9,922.1,665.5z"/>
				<path class="st3" d="M922.1,660.1c0-1.7,0-3.5,0-5.2C922.1,656.7,922.1,658.4,922.1,660.1z"/>
				<path class="st3" d="M864.1,51.4c-0.6-8.9,6.5-23.2,6.5-23.2l8.5-4.4l3.6,15.1l52.6,0.2v2.4l-52.6-0.2l-3.6-15.1l-8.5,4.4
					C870.6,30.6,864.6,42.6,864.1,51.4z"/>
				<polygon class="st3" points="934.3,510.8 947.2,544.1 946.8,545.3 934.3,513.2 				"/>
				<polygon class="st3" points="958.7,160.2 934.7,126.1 934.7,123.7 959.6,159 				"/>
				<path class="st3" d="M987.9,897.6c-0.1,0-0.5,0.5-1.1,1.3c-6.8-6.2-42.8-36.7-42.8-36.7l-10-84.7v-2.3l9.9,84.6
					C944,859.8,988.8,897.6,987.9,897.6z"/>
				<path class="st3" d="M76.6,933.6l6-8l11.3-0.4v-18.5c0,0-17.1-24.4-17.7-24.5s0-132.5,0-132.5s2.3-44.7,45.7-51.8h61.4
					c0,0,5.7,15.9,6.5,16.2s19.9-14.6,19.9-14.6l65.2,11l12.5,13.1l19.6-19.3l65.2-6.4l10.4,25.1l-4.5,48.5l11.3,13.7
					c0,0,14.3-14.9,17.9-12.8s2.4-44.4,2.4-44.4l11.9-30.2h51.2V720c0,0,15.8,19.9,16.7,20.8s22.9-18.8,22.9-18.8v-25.9l22.6,1.5
					l19.3,12.2l19.3,65.8l11.6,4.5l13.1-24.1l-3.3-18.8l12.2-29.8l-3-7.1l24.4,9.2l31.3-12.2l6.3,48.8l17-5.1l18.5-39.9l21.1,8
					l45.2-11l16.4,28v68.5l8.9,39l10.1,3.3l11-38.1c0,0,10.4-109.5,12.5-112.8S812,674.1,812,674.1l-0.3-10.4l-4.5-3.6l-9.8-28h-9.8
					l-11.9,29.5l-33.6,8.9l-44.6-19.1l-4.8-42l-17.3,3l-21.1,46.1c0,0-51.5,15.5-79.5,11.3c-3.9-1.8-14.6-17-14.6-17l-25.8,1.8
					l-17,15.4l-64.3,0.1l-8.1-76.6l-4.8-30.4l-23.8-16.7l-26.8,16.4c0,0-14.3,87.8-23.2,92c0,0-2.5,12.2-23.4,9.7
					c-3.1-0.6-14.4-35.1-14.4-35.1l-11.3-12.5l-10.9,11.9l-10,40.5c0,0-25.2,8.2-43.8-7.1c0.3-2.8,9.7-59.6,10.5-59.8
					s-20.2-50.8-20.2-50.8l-6.7,2.4l-12.1,26.6l0.4,11.5L205,658.5c0,0-13.8,14.4-32.4,11.5c-3.9-0.4-54.5-0.6-54.5-0.6l-15.8-23.2
					L91,606.3c0,0,22.1-29.4,0.5-79.8c-2.6-3,9.1-140.7,9.3-140.1s-12.7-67.1-12.7-67.1l44.5-82.4l39.1,8.9l13.3,38.9l17.5-38.1
					l46-11.5l16.9,22.4c0,0-6.4,25,2.8,61.5c7.1,9.1-4.8,49.2-4.8,49.2l28.6,21l45.8-14.3l-39.5-17.3c0,0,2-76.2,1.2-76.6
					s28.2-27,28.2-27l15.5-56.2l-4-19.2l22.8-22.4h12.9l27.2,18.9l31.9-40.7l33.5,19.2l27.8-22.2l74.8-11.5l57.4,9.5l97.8-13.9
					l29.9,18.6l34.2,0.7c0,0,14.4,10.1,13.8,10.4s11.8-12.4,11.8-12.4L825.7,98L814,61.9c0,0,2.1-22,2.1-22.9s-10.4-23-10.4-23
					s-5.4,4.2-4.5,3.9s-8,25.9-8,25.9L58,46.4v134L37.4,219v33l21.1,33l0.6,321.5L47.5,647L58,682.5l-27.4,14.3l28.3,18.8L59.5,924
					l10.1,1.6l4,8.1L76.6,933.6L76.6,933.6z"/>
				<polygon class="st3" points="689.8,306.7 716.3,261.9 739.8,233.5 761.4,243.3 774.6,233.5 790.8,230.5 787.7,215.2 
					749.5,184.1 703.1,199.1 692.4,194.1 682.3,195.3 665.6,178.5 643.6,202.1 552.5,202.5 552.5,193.3 534,180.6 519.2,193.1 
					511,194.3 503.7,200.1 494.8,200.1 480.3,205.4 472.3,200.9 452.7,209.8 441.8,199.9 432.4,214.8 432.4,232.4 474.9,247.7 
					472,255.1 488.4,312.8 509.5,298.5 527.7,317.9 536,333.6 550.6,323.8 559.8,297.9 567.9,262.8 584.2,228.6 606.6,242.6 
					611.6,256 641.1,233.6 658.4,233 672.4,243.2 672.1,263.7 673.3,274.7 684.6,297.6 686.6,307.4 				"/>
			</g>
			<g id="c">
				
					<pattern  id="SVGID_00000161611847298936779350000015498999125393188994_" xlink:href="#SVGID_1_" patternTransform="matrix(1 0 0 1 -221.5024 17806.6309)">
				</pattern>
				<path style="fill:url(#SVGID_00000161611847298936779350000015498999125393188994_);" d="M520.8,537.6c0,0.4,0.1,0.9,0.1,1.3
					c-0.1,0.7-0.1,1.8-0.1,3.1C520.7,540.3,520.7,538.8,520.8,537.6z"/>
				
					<pattern  id="SVGID_00000093879364662973359830000007263014570815047824_" xlink:href="#SVGID_0000017241803870568647531" patternTransform="matrix(1 0 0 1 -221.5024 17806.6309)">
				</pattern>
				<path style="fill:url(#SVGID_00000093879364662973359830000007263014570815047824_);" d="M653.2,512.3c0-0.9,0.1-3.1,0.9-6.3
					c0.1,0.4,0.2,0.8,0.3,1.2c-0.6,2.3-0.9,4.1-1.1,5.5C653.2,512.5,653.2,512.4,653.2,512.3z"/>
				
					<pattern  id="SVGID_00000059308869746349324500000008197675823711540633_" xlink:href="#SVGID_0000014432836072329995146" patternTransform="matrix(1 0 0 1 -221.5024 17806.6309)">
				</pattern>
				<path style="fill:url(#SVGID_00000059308869746349324500000008197675823711540633_);" d="M860.4,129.6c-0.1-2.1,0-3.7,0.7-4.7
					c8.3-15.1,11.1-28,11.3-38.6c0.2,11-2.4,24.7-11.3,41C860.7,127.8,860.5,128.6,860.4,129.6z"/>
				
					<pattern  id="SVGID_00000050643122184258592920000006700734431472126852_" xlink:href="#SVGID_0000008884611333030316368" patternTransform="matrix(1 0 0 1 -221.5024 17806.6309)">
				</pattern>
				<path style="fill:url(#SVGID_00000050643122184258592920000006700734431472126852_);" d="M922,673.3c0-2.4,0-5.1,0-7.8
					C922.1,668.2,922,670.8,922,673.3z"/>
				
					<pattern  id="SVGID_00000126285685496691136530000009916792196992429217_" xlink:href="#SVGID_0000013496843445835448724" patternTransform="matrix(1 0 0 1 -221.5024 17806.6309)">
				</pattern>
				<path style="fill:url(#SVGID_00000126285685496691136530000009916792196992429217_);" d="M922.1,665.5c0-1.6,0-3.1,0-4.7
					C922.1,662.3,922.1,663.9,922.1,665.5z"/>
				
					<pattern  id="SVGID_00000109714391184473024910000009563484421769970061_" xlink:href="#SVGID_0000009459542717841438356" patternTransform="matrix(1 0 0 1 -221.5024 17806.6309)">
				</pattern>
				<path style="fill:url(#SVGID_00000109714391184473024910000009563484421769970061_);" d="M922.1,660.1c0-1.7,0-3.5,0-5.2
					C922.1,656.7,922.1,658.4,922.1,660.1z"/>
				
					<pattern  id="SVGID_00000172426985215886115360000011482024144378824600_" xlink:href="#SVGID_0000007156023135877645245" patternTransform="matrix(1 0 0 1 -221.5024 17806.6309)">
				</pattern>
				<path style="fill:url(#SVGID_00000172426985215886115360000011482024144378824600_);" d="M864.1,51.4
					c-0.6-8.9,6.5-23.2,6.5-23.2l8.5-4.4l3.6,15.1l52.6,0.2v2.4l-52.6-0.2l-3.6-15.1l-8.5,4.4C870.6,30.6,864.6,42.6,864.1,51.4z"/>
				
					<pattern  id="SVGID_00000086677464894884071570000014108684704042377637_" xlink:href="#SVGID_0000009530390201640683627" patternTransform="matrix(1 0 0 1 -221.5024 17806.6309)">
				</pattern>
				<polygon style="fill:url(#SVGID_00000086677464894884071570000014108684704042377637_);" points="934.3,510.8 947.2,544.1 
					946.8,545.3 934.3,513.2 				"/>
				
					<pattern  id="SVGID_00000021106723902572555520000017694594576065592986_" xlink:href="#SVGID_0000004199596005269134193" patternTransform="matrix(1 0 0 1 -221.5024 17806.6309)">
				</pattern>
				<polygon style="fill:url(#SVGID_00000021106723902572555520000017694594576065592986_);" points="958.7,160.2 934.7,126.1 
					934.7,123.7 959.6,159 				"/>
				
					<pattern  id="SVGID_00000177478414607848646040000016282397526668547976_" xlink:href="#SVGID_0000009892162898998504830" patternTransform="matrix(1 0 0 1 -221.5024 17806.6309)">
				</pattern>
				<path style="fill:url(#SVGID_00000177478414607848646040000016282397526668547976_);" d="M987.9,897.6c-0.1,0-0.5,0.5-1.1,1.3
					c-6.8-6.2-42.8-36.7-42.8-36.7l-10-84.7v-2.3l9.9,84.6C944,859.8,988.8,897.6,987.9,897.6z"/>
			</g>
		</g>
	</g>
	<g id="Layer_3">
		<path class="st3" d="M986.8,898.9c-5.4,7.4-28.7,43.7-28.7,43.7l-23.1,32l-21.6-7l-38.2-40l-72.7-0.9c0,0-10.5,19.8-10.5,20.3
			c-0.3-0.1-5.7-1-5.9-1c-0.3,0-8.3-19.7-8.3-19.7l-73.6,0.1l-7,8.7l-1.7-0.5l-6-8h-10.4l-8.6,30.7l-0.5,8.4l-5.2-0.7l-1-4
			L652,926.6l-49.9-0.1l-15,46.9c0,0-7.1-3.7-7.4-3.9s-18.2-42.6-18.2-42.6l-32.4-0.4l-8.5,10.9l-2.2-1l-8.6-10l-22,0.2l-7.6,33.6
			l-5.9-33.7h-94.8c0,0-2.3,1.6-4.6,2.6c-2.3,1-5.7-2.5-5.7-2.5H332l-15.4,8l-15-7.9l-99.7-0.1l-3.5,2.6l-3.5-2.5h-55.5V911l28-16.3
			l0.5-31.6l15.4-15.4l14.7,13.9l0.1,29.5l27.4,13.1c10,7.7,53.2-8.1,53.2-8.1v-2.4l0,0l-0.2-62.6l16-22l21.9,15.6l-0.9,58.3l0,0
			v2.4l37.7,16.2l21.6-11.7l25.8,15.4l73.7-10.1l6.6-74.8l5.9-15.4l13.6-9.1l19,22.8l0.5,61.8l17.3,22.2l10.1-0.4l16.9-13.2
			l14.4-42.1l7-0.4l18.8,53.8l9.6,10.3h31.8l19.7-54L669,793l11.3-0.9l17.7,47.2l-1,42.6l0.1,0.1l-0.1,2.3l24.3,26.4h49l18.5-33.8
			l6-0.3l14.7,34.1H860l43.5-48.1L922,690.3c0,0,0-6.2,0.1-15.2c0-0.6,0-1.1,0-1.7c0-2.5,0-5.1,0-7.8c0-1.6,0-3.1,0-4.7v-0.6
			c0-1.7,0-3.5,0-5.2c0-2.6,0-5.2,0-7.9c0-7.7,0-15.3,0-21.7c0-2.3,0-4.5,0-6.5c0-6.2-0.1-10.2-0.2-10.2c-0.4,0-21.7-56.6-21.7-56.6
			l-28.1,11l-29.8-13.5l-23.8,43l-13.4,0.9l-20.1-54L747.2,482l-9.2-0.5l-34.8-19.4l-7,48.8l-11.5,40.8l-11.9-0.3
			c0,0-17.8-34.8-19.5-38.8c0.1-1.3,0.5-3.2,1.1-5.5c-0.1-0.4-0.2-0.8-0.3-1.2c0.1-0.4,0.2-0.8,0.3-1.2c-3.3-14.9-25-33.2-31.8-39
			c-46.6-29.5-58.8,34.4-58.8,34.4v65l-18.2,28.3l-6.2-0.7l-17.7-27.1c0,0-0.8-14-0.9-22.9c0-0.2,0-0.5,0-0.7c0-1.3,0.1-2.4,0.1-3.1
			c0-0.4,0-0.9-0.1-1.3c0-0.4,0-0.8,0.1-1.1c-2.8-51-38.1-87.2-38.1-87.2l-28,3.3L439.4,496l-29.3-0.6l-0.5-19.2l-11-28.6l-23.2,0.6
			l-10.1,23.5l-15.5,63.5l-23.2,19.5l-23.1-12.5l-3.9-66.1c0,0-7.2-22.3-11.6-26.4c-10-2.9-31,26.7-31,26.7l-20.2-24.3l-12.8-1.4
			l-13.9,22.6l-10.5,30.8l-5.3,6.1l-11,42.8l-19.6-39v-10l10.6-53.3l1-65.6l15-13.2l31.1,38.5l44.5,11H404
			c1.9,0,25.5-35.5,25.5-35.5c0.9-1.5,1.2-3.8,1-6.5c0.5-9.5-6.2-26.7-6.2-26.7s-11.5-13.2-17.7-13.7c-16.6-1.1-25-6.3-28.7-9.3
			c12.4-0.6,71.1-3.2,70.2-0.8c3,47,26.2,78.7,31.2,83.3c28.1,15.6,55.7,0.6,55.7,0.6s51.2,0.1,54.8-0.3
			c20.2-70.2,31.8-59.5,31.8-59.5s47.8,67.2,53.8,64c18.5-10.9,35.7,0,35.7,0s30.3-10.9,27.2-12.2c-0.1-0.5-0.2-1-0.3-1.5
			c0.5-0.4,0.7-0.7,0.3-0.9c-2.5-12.9-3.6-23.4-3.7-31.8v-0.3c0.2-21.3,6.4-28.2,6.4-28.2c15.9,0.9,20.7-7.2,24.3-10.6
			c4.6,0.7,19.4-10.7,19.4-10.7l6,17.7h58.5l6.4,3.2l20.2,0.1l11.1,8.6H907v-18.3h11.5l1.8-2.7l-1.6-1.3l1.6-1.8l-4.2-2.7h-9
			l-7.8-5.5h-16.1l-7.6-3.7h-13.1l-3.9-3.9l-1.3-7.6l6.7-5.2l11.1-0.9l9.7-8l2.1-27.4l9.2-9v-22.2l10.3-9.4l1-0.9L870.9,162
			c0,0-9.6-22-10.3-32.7c0.1-1,0.3-1.7,0.7-2.3c8.9-16.3,11.5-30,11.3-41c0.3-16-5.4-26.7-7.6-31.4c-0.4-1-0.7-2.1-0.8-3.4
			c0.5-8.8,6.5-20.8,6.5-20.8l8.5-4.4l3.6,15.1l52.6,0.2l-0.6,82.1l0,0v2.4l24,34.1l-23.3,34.2l-1.1,316.3l0,0v2.4l12.5,32.2
			l-11.3,30.8l-1.5,199v0.1v2.3l10,84.7C944,862.2,980.1,892.6,986.8,898.9z"/>
	</g>
	<g id="Layer_4">
		
			<pattern  id="SVGID_00000044860060828335976520000010861656188673147032_" xlink:href="#SVGID_0000003116668277697267222" patternTransform="matrix(1 0 0 1 -221.5024 17806.6309)">
		</pattern>
		<path style="fill:url(#SVGID_00000044860060828335976520000010861656188673147032_);" d="M76.6,933.6l6-8l11.3-0.4v-18.5
			c0,0-17.1-24.4-17.7-24.5s0-132.5,0-132.5s2.3-44.7,45.7-51.8h61.4c0,0,5.7,15.9,6.5,16.2s19.9-14.6,19.9-14.6l65.2,11l12.5,13.1
			l19.6-19.3l65.2-6.4l10.4,25.1l-4.5,48.5l11.3,13.7c0,0,14.3-14.9,17.9-12.8s2.4-44.4,2.4-44.4l11.9-30.2h51.2V720
			c0,0,15.8,19.9,16.7,20.8s22.9-18.8,22.9-18.8v-25.9l22.6,1.5l19.3,12.2l19.3,65.8l11.6,4.5l13.1-24.1l-3.3-18.8l12.2-29.8l-3-7.1
			l24.4,9.2l31.3-12.2l6.3,48.8l17-5.1l18.5-39.9l21.1,8l45.2-11l16.4,28v68.5l8.9,39l10.1,3.3l11-38.1c0,0,10.4-109.5,12.5-112.8
			S812,674.1,812,674.1l-0.3-10.4l-4.5-3.6l-9.8-28h-9.8l-11.9,29.5l-33.6,8.9l-44.6-19.1l-4.8-42l-17.3,3l-21.1,46.1
			c0,0-51.5,15.5-79.5,11.3c-3.9-1.8-14.6-17-14.6-17l-25.8,1.8l-17,15.4l-64.3,0.1l-8.1-76.6l-4.8-30.4l-23.8-16.7l-26.8,16.4
			c0,0-14.3,87.8-23.2,92c0,0-2.5,12.2-23.4,9.7c-3.1-0.6-14.4-35.1-14.4-35.1l-11.3-12.5l-10.9,11.9l-10,40.5
			c0,0-25.2,8.2-43.8-7.1c0.3-2.8,9.7-59.6,10.5-59.8s-20.2-50.8-20.2-50.8l-6.7,2.4l-12.1,26.6l0.4,11.5L205,658.5
			c0,0-13.8,14.4-32.4,11.5c-3.9-0.4-54.5-0.6-54.5-0.6l-15.8-23.2L91,606.3c0,0,22.1-29.4,0.5-79.8c-2.6-3,9.1-140.7,9.3-140.1
			s-12.7-67.1-12.7-67.1l44.5-82.4l39.1,8.9l13.3,38.9l17.5-38.1l46-11.5l16.9,22.4c0,0-6.4,25,2.8,61.5c7.1,9.1-4.8,49.2-4.8,49.2
			l28.6,21l45.8-14.3l-39.5-17.3c0,0,2-76.2,1.2-76.6s28.2-27,28.2-27l15.5-56.2l-4-19.2l22.8-22.4h12.9l27.2,18.9l31.9-40.7
			l33.5,19.2l27.8-22.2l74.8-11.5l57.4,9.5l97.8-13.9l29.9,18.6l34.2,0.7c0,0,14.4,10.1,13.8,10.4s11.8-12.4,11.8-12.4L825.7,98
			L814,61.9c0,0,2.1-22,2.1-22.9s-10.4-23-10.4-23s-5.4,4.2-4.5,3.9s-8,25.9-8,25.9L58,46.4v134L37.4,219v33l21.1,33l0.6,321.5
			L47.5,647L58,682.5l-27.4,14.3l28.3,18.8L59.5,924l10.1,1.6l4,8.1L76.6,933.6L76.6,933.6z"/>
		
			<pattern  id="SVGID_00000141440194104544682940000017930063992761698188_" xlink:href="#SVGID_0000005930711217431478199" patternTransform="matrix(1 0 0 1 -221.5024 17806.6309)">
		</pattern>
		<polygon style="fill:url(#SVGID_00000141440194104544682940000017930063992761698188_);" points="689.8,306.7 716.3,261.9 
			739.8,233.5 761.4,243.3 774.6,233.5 790.8,230.5 787.7,215.2 749.5,184.1 703.1,199.1 692.4,194.1 682.3,195.3 665.6,178.5 
			643.6,202.1 552.5,202.5 552.5,193.3 534,180.6 519.2,193.1 511,194.3 503.7,200.1 494.8,200.1 480.3,205.4 472.3,200.9 
			452.7,209.8 441.8,199.9 432.4,214.8 432.4,232.4 474.9,247.7 472,255.1 488.4,312.8 509.5,298.5 527.7,317.9 536,333.6 
			550.6,323.8 559.8,297.9 567.9,262.8 584.2,228.6 606.6,242.6 611.6,256 641.1,233.6 658.4,233 672.4,243.2 672.1,263.7 
			673.3,274.7 684.6,297.6 686.6,307.4 		"/>
		
			<pattern  id="SVGID_00000109742222150216350640000016712989661455811764_" xlink:href="#d" patternTransform="matrix(1 0 0 -1 -126 -18271.1992)">
		</pattern>
		<path style="fill:url(#SVGID_00000109742222150216350640000016712989661455811764_);" d="M986.8,898.9
			c-5.4,7.4-28.7,43.7-28.7,43.7l-23.1,32l-21.6-7l-38.2-40l-72.7-0.9c0,0-10.5,19.8-10.5,20.3c-0.3-0.1-5.7-1-5.9-1
			c-0.3,0-8.3-19.7-8.3-19.7l-73.6,0.1l-7,8.7l-1.7-0.5l-6-8h-10.4l-8.6,30.7l-0.5,8.4l-5.2-0.7l-1-4L652,926.6l-49.9-0.1l-15,46.9
			c0,0-7.1-3.7-7.4-3.9s-18.2-42.6-18.2-42.6l-32.4-0.4l-8.5,10.9l-2.2-1l-8.6-10l-22,0.2l-7.6,33.6l-5.9-33.7h-94.8
			c0,0-2.3,1.6-4.6,2.6c-2.3,1-5.7-2.5-5.7-2.5H332l-15.4,8l-15-7.9l-99.7-0.1l-3.5,2.6l-3.5-2.5h-55.5V911l28-16.3l0.5-31.6
			l15.4-15.4l14.7,13.9l0.1,29.5l27.4,13.1c10,7.7,53.2-8.1,53.2-8.1v-2.4l0,0l-0.2-62.6l16-22l21.9,15.6l-0.9,58.3l0,0v2.4
			l37.7,16.2l21.6-11.7l25.8,15.4l73.7-10.1l6.6-74.8l5.9-15.4l13.6-9.1l19,22.8l0.5,61.8l17.3,22.2l10.1-0.4l16.9-13.2l14.4-42.1
			l7-0.4l18.8,53.8l9.6,10.3h31.8l19.7-54L669,793l11.3-0.9l17.7,47.2l-1,42.6l0.1,0.1l-0.1,2.3l24.3,26.4h49l18.5-33.8l6-0.3
			l14.7,34.1H860l43.5-48.1L922,690.3c0,0,0-6.2,0.1-15.2c0-0.6,0-1.1,0-1.7c0-2.5,0-5.1,0-7.8c0-1.6,0-3.1,0-4.7v-0.6
			c0-1.7,0-3.5,0-5.2c0-2.6,0-5.2,0-7.9c0-7.7,0-15.3,0-21.7c0-2.3,0-4.5,0-6.5c0-6.2-0.1-10.2-0.2-10.2c-0.4,0-21.7-56.6-21.7-56.6
			l-28.1,11l-29.8-13.5l-23.8,43l-13.4,0.9l-20.1-54L747.2,482l-9.2-0.5l-34.8-19.4l-7,48.8l-11.5,40.8l-11.9-0.3
			c0,0-17.8-34.8-19.5-38.8c0.1-1.3,0.5-3.2,1.1-5.5c-0.1-0.4-0.2-0.8-0.3-1.2c0.1-0.4,0.2-0.8,0.3-1.2c-3.3-14.9-25-33.2-31.8-39
			c-46.6-29.5-58.8,34.4-58.8,34.4v65l-18.2,28.3l-6.2-0.7l-17.7-27.1c0,0-0.8-14-0.9-22.9c0-0.2,0-0.5,0-0.7c0-1.3,0.1-2.4,0.1-3.1
			c0-0.4,0-0.9-0.1-1.3c0-0.4,0-0.8,0.1-1.1c-2.8-51-38.1-87.2-38.1-87.2l-28,3.3L439.4,496l-29.3-0.6l-0.5-19.2l-11-28.6l-23.2,0.6
			l-10.1,23.5l-15.5,63.5l-23.2,19.5l-23.1-12.5l-3.9-66.1c0,0-7.2-22.3-11.6-26.4c-10-2.9-31,26.7-31,26.7l-20.2-24.3l-12.8-1.4
			l-13.9,22.6l-10.5,30.8l-5.3,6.1l-11,42.8l-19.6-39v-10l10.6-53.3l1-65.6l15-13.2l31.1,38.5l44.5,11H404
			c1.9,0,25.5-35.5,25.5-35.5c0.9-1.5,1.2-3.8,1-6.5c0.5-9.5-6.2-26.7-6.2-26.7s-11.5-13.2-17.7-13.7c-16.6-1.1-25-6.3-28.7-9.3
			c12.4-0.6,71.1-3.2,70.2-0.8c3,47,26.2,78.7,31.2,83.3c28.1,15.6,55.7,0.6,55.7,0.6s51.2,0.1,54.8-0.3
			c20.2-70.2,31.8-59.5,31.8-59.5s47.8,67.2,53.8,64c18.5-10.9,35.7,0,35.7,0s30.3-10.9,27.2-12.2c-0.1-0.5-0.2-1-0.3-1.5
			c0.5-0.4,0.7-0.7,0.3-0.9c-2.5-12.9-3.6-23.4-3.7-31.8v-0.3c0.2-21.3,6.4-28.2,6.4-28.2c15.9,0.9,20.7-7.2,24.3-10.6
			c4.6,0.7,19.4-10.7,19.4-10.7l5.9,17.7h58.6l6.3,3.1h20.3l11.1,8.8H907v-18.3h11.5l1.8-2.7l-1.6-1.3l1.6-1.8l-4.2-2.7h-9l-7.8-5.5
			h-16.1l-7.6-3.7h-13.1l-3.9-3.9l-1.3-7.6l6.7-5.2l11.1-0.9l9.7-8l2.1-27.4l9.2-9v-22.2l10.3-9.4l1-0.9L870.9,162
			c0,0-9.6-22-10.3-32.7c0.1-1,0.3-1.7,0.7-2.3c8.9-16.3,11.5-30,11.3-41c0.3-16-5.4-26.7-7.6-31.4c-0.4-1-0.7-2.1-0.8-3.4
			c0.5-8.8,6.5-20.8,6.5-20.8l8.5-4.4l3.6,15.1l52.6,0.2l-0.6,82.1l0,0v2.4l24,34.1l-23.3,34.2l-1.1,316.3l0,0v2.4l12.5,32.2
			l-11.3,30.8l-1.5,199v0.1v2.3l10,84.7C944,862.2,980.1,892.6,986.8,898.9z"/>
	</g>
</g>
<g id="Layer_3_00000096755769700384501820000000981187504453982132_">
	<polygon class="st3" points="848.6,339 862.2,325.3 862.2,313.2 888.9,286.5 908.7,286.5 935.1,313 935.1,343.6 916.6,362.1 
		870.7,362.1 	"/>
	
		<pattern  id="SVGID_00000044166109614866914000000017350078446524271488_" xlink:href="#d" patternTransform="matrix(1 0 0 -1 -125.8194 -18279.416)">
	</pattern>
	<polygon style="fill:url(#SVGID_00000044166109614866914000000017350078446524271488_);" points="848.6,339 862.2,325.3 
		862.2,313.2 888.9,286.5 908.7,286.5 935.3,311.9 935.1,343.6 916.6,362.1 870.7,362.1 	"/>
</g>
</svg>
