<?xml version="1.0" encoding="UTF-8"?><svg id="a" xmlns="http://www.w3.org/2000/svg" viewBox="0 0 1044.7802 1000"><defs><style>.bm{fill:#350e68;}.bn{fill:#11dbad;}.bo{fill:#7a16c1;}.bp{fill:#123987;}.bq{fill:#5b0d99;}.br{fill:#4dfed4;}.bs{fill:#128fc6;}.bt{fill:#0a7f6c;}.bu{fill:#8f37db;}.bv{fill:#80ffe1;}.bw{fill:#0b9985;}.bx{fill:#1bb7e0;}.by{fill:#0a589e;}.c`{fill:#19bdd8;}</style></defs><g id="b"><g><polyline class="by" points="552.3726 122.6274 556.2134 110.6465 562.6338 120.621"/><polyline class="bq" points="562.6338 120.621 559.8248 136.0414 552.3726 122.6274"/><polyline class="bm" points="552.3726 122.6274 556.2134 110.6465 562.6338 120.621"/><polyline class="bm" points="562.6338 120.621 561.1979 128.5036 560.3408 122.7229 557.5032 124.4427 558.3917 117.2962 556.5191 112.2898 554.379 120.4299 554.914 122.914 554.6699 125.9552 552.3726 122.6274"/><polygon class="bo" points="556.0987 127.9586 556.7866 126.7739 556.4427 123.8312 558.2389 125.7038 559.8057 124.7484 560.7229 128.2261 559.8248 136.0414 555.2172 127.7477 556.0987 127.9586"/><polygon class="bu" points="556.5178 129.8467 557.3025 127.6911 557.5463 125.9772 558.3917 130.4214 559.4223 134.7994 557.8748 130.8835 557.3025 129.7566 556.5178 129.8467"/></g><g><polyline class="by" points="604.6473 124.5512 615.5392 109.9598 619.8237 126.6345"/><polyline class="by" points="604.6473 124.5512 608.7682 146.4195 619.8237 126.6345"/><polygon class="bs" points="607.3462 133.6022 607.5478 130.3949 610.1013 125.2548 612.9172 129 613.9823 130.9529 613.6418 136.1448 608.7682 146.4195 606.2203 132.8986 607.3462 133.6022"/><polygon class="c`" points="607.0519 136.3839 609.1415 133.8026 610.2753 131.5714 609.3866 138.0525 608.7858 144.5299 608.4546 138.4416 608.183 136.6298 607.0519 136.3839"/><polygon class="bp" points="606.2203 128.3109 609.2102 123.3439 613.3949 119.0828 612.707 125.9045 615.0573 128.5036 615.0573 133.242 617.4497 130.8832 619.8237 126.6345 615.5392 109.9598 604.819 124.3212 606.2203 128.3109"/></g><g><polyline class="bo" points="582.8273 121.9472 570.1394 98.253 566.8527 124.6224 577.2476 144.8772 580.5343 147.2466"/><polyline class="bq" points="582.8273 121.9472 570.1394 98.253 566.8527 124.6224 571.133 120.8485 578.1163 126.4528 580.5343 142.9472 581.971 127.2315"/><polygon class="bu" points="580.0183 145.0109 577.0041 137.2388 575.7763 127.4122 571.2476 122.3963 568.2336 124.9076 577.4961 144.3517 580.0183 146.3294 580.0183 145.0109"/><polyline class="bm" points="582.8273 121.9472 570.1394 98.253 574.2285 112.6736 574.3746 121.0015 579.0438 119.3581 582.8273 121.9472"/><polygon class="bm" points="569.9005 100.3167 572.3941 114.5714 567.7377 119.4345 569.9005 100.3167"/></g><g id="c"><polygon class="br" points="627.6283 106.7771 624.3417 133.1465 634.7366 153.4013 638.0232 155.7707 640.3162 130.4713 627.6283 106.7771"/><polygon class="bn" points="624.6665 132.8981 628.6219 129.3726 635.6052 134.9769 638.0232 151.4713 639.46 135.7556 640.3162 130.4713 627.6283 106.7771 624.6665 132.8981"/><polygon class="bv" points="637.5073 153.535 634.493 145.7629 633.2652 135.9363 628.7366 130.9204 625.7226 133.4318 634.985 152.8758 637.5073 154.8535 637.5073 153.535"/><polygon class="bw" points="627.6283 106.7771 631.7175 121.1977 631.8635 129.5256 636.5328 127.8822 640.3162 130.4713 627.6283 106.7771"/><polygon class="bw" points="627.3895 108.8408 629.8831 123.0955 624.9883 127.9586 627.3895 108.8408"/></g><g id="d"><polygon class="bs" points="587.0064 123.2484 589.242 136.7771 597.9554 124.9682 596.6943 121.6433 598.5287 110.8662 592.7675 116.5414 587.5796 120.8981 587.0064 123.2484"/><path class="by" d="M587.1308,124.0015l.8926-.4535c.0662-.0336,.1231-.083,.1656-.1439l2.0276-2.4846-.3941,1.6194,1.5119-.5518,1.7866,.2866h0l-1.7197,4.1847,1.2908,.8865-.0295-.0509,.1049,1.9733,1.9345-2.2809,.081,2.2809,2.4462-3.2866-1.9873-6.5255,1.2994-4.672-8.6369,6.5732-.7279,1.1938-.1702,.6979,.1244,.7531Z"/><polygon class="c`" points="588.6247 124.9644 589.6565 124.5058 589.8917 123.3439 590.3121 124.6815 590.0828 127.1274 590.3121 132.8981 589.5096 135.8408 589.2803 131.5605 587.8471 125.6369 588.6247 124.9644"/><polygon class="bp" points="587.0064 123.2484 588.3248 121.4713 590.3121 119.8354 590.8662 120.1338 592.0414 118.8057 593.035 117.9363 593.4076 117.4777 594.2439 117.2434 594.8049 117.5139 594.8049 117.5139 594.535 119.1306 594.1146 119.914 593.1497 121.1083 593.6369 121.051 593.6752 121.9682 592.6416 125.0335 593.6561 126.8025 595.051 125.5032 595.4889 128.3109 597.9554 124.9682 596.6943 121.6433 598.5287 110.8662 587.5796 120.8981 587.0064 123.2484"/></g><g id="e"><polygon class="bn" points="538.0678 113.718 549.1716 124.2226 549.3164 141.1646 536.7306 129.6822 538.0678 113.718"/><polygon class="bw" points="538.0678 113.718 549.1716 124.2226 549.1873 126.0662 548.0387 126.9621 547.0941 124.4338 547.0941 124.4338 545.7791 124.1013 544.3738 122.7787 543.305 122.6602 542.369 121.5588 541.1792 120.8348 541.1792 120.8348 540.124 121.2795 540.1952 122.444 539.7496 124.9288 539.7496 124.9288 539.1384 127.9105 538.9868 129.8761 539.0316 131.7815 536.7306 129.6822 538.0678 113.718"/><polygon class="br" points="540.8378 133.4771 540.6556 130.2116 541.8027 129.4268 542.347 127.5368 542.8493 124.9557 543.7183 126.508 544.6549 126.2701 546.1176 129.9939 548.3918 128.3479 549.2392 132.1396 549.3164 141.1646 540.8378 133.4771"/><polygon class="bv" points="545.5379 137.1307 543.2205 133.6205 541.5379 131.7834 543.0578 132.3666 543.2449 128.8829 543.6292 130.9795 543.9921 132.9592 544.432 134.2831 547.7142 138.1986 548.5121 140.0496 545.5379 137.1307"/></g><g id="f"><polygon class="bn" points="470.0746 214.2692 465.108 203.4967 470.0401 188.6188 475.5487 202.941 470.0746 214.2692"/><polygon class="bw" points="470.0746 214.2692 465.108 203.4967 467.6292 195.8914 467.6717 201.7351 470.7214 200.4279 468.8449 207.3807 470.001 212.5993 473.2555 204.8372 473.0721 202.3028 473.738 199.3254 475.5487 202.941 470.0746 214.2692"/><polygon class="br" points="472.6025 197.1422 471.7561 198.2194 471.6863 201.1813 470.1688 199.0765 468.484 199.8041 468.0608 196.2324 470.0401 188.6188 473.446 197.474 472.6025 197.1422"/><polygon class="bv" points="472.4508 195.2141 471.3732 197.2392 470.8928 198.9024 470.6754 194.3837 470.2655 189.9048 471.2517 193.9983 471.6612 195.1939 472.4508 195.2141"/></g><g><polyline class="by" points="497.1773 203.5604 490.4411 214.1867 486.7417 202.916"/><polyline class="bq" points="486.7417 202.916 493.3462 188.7013 497.1773 203.5604"/><polyline class="bm" points="497.1773 203.5604 490.4411 214.1867 486.7417 202.916"/><polyline class="bm" points="486.7417 202.916 490.1178 195.6498 489.4904 201.4598 492.6698 200.5107 490.0089 207.2026 490.5594 212.5193 494.6819 205.1813 494.7902 202.6426 495.7928 199.7611 497.1773 203.5604"/><polygon class="bo" points="494.915 197.4622 493.9508 198.4354 493.542 201.3697 492.2757 199.1049 490.5186 199.6346 490.5075 196.038 493.3462 188.7013 495.7149 197.8885 494.915 197.4622"/><polygon class="bu" points="494.9853 195.5294 493.6827 197.4177 493.0149 199.0149 493.3167 194.501 493.4227 190.0047 493.9334 194.1842 494.2032 195.4189 494.9853 195.5294"/></g><g><polyline class="by" points="509.8609 199.0021 507.0569 211.2671 499.8085 201.8771"/><polyline class="by" points="499.8085 201.8771 501.2908 186.2732 509.8609 199.0021"/><polyline class="bp" points="509.8609 199.0021 507.0569 211.2671 499.8085 201.8771"/><polyline class="bp" points="499.8085 201.8771 500.5662 193.9007 501.9137 199.5871 504.5941 197.6314 504.3189 204.8277 506.612 209.6559 508.0494 201.3628 507.3043 198.9335 507.2879 195.8826 509.8609 199.0021"/><polygon class="bs" points="505.6933 194.0084 505.1091 195.2475 505.7029 198.1501 503.7535 196.4377 502.2739 197.5233 501.0632 194.1366 501.2908 186.2732 506.5896 194.1433 505.6933 194.0084"/><polygon class="c`" points="505.1145 192.1629 504.5167 194.3777 504.4202 196.1062 503.1985 191.7503 501.7979 187.4763 503.674 191.2458 504.3404 192.3197 505.1145 192.1629"/></g><g id="g"><polygon class="bq" points="522.0817 206.0434 513.7684 196.4818 513.2524 179.3015 523.2872 192.3829 522.0817 206.0434"/><polygon class="bm" points="522.0817 206.0434 513.7684 196.4818 513.5046 187.6996 515.5484 193.7803 517.9362 191.3889 518.5757 199.2732 521.4406 204.3265 521.805 195.1336 520.7652 192.552 520.3633 189.2221 523.2872 192.3829 522.0817 206.0434"/><polygon class="bo" points="518.5586 187.3278 518.1409 188.7366 519.0919 191.8494 516.9588 190.1656 515.6415 191.4923 514.023 187.9098 513.2524 179.3015 519.4568 187.3895 518.5586 187.3278"/><polygon class="bu" points="517.7562 185.3679 517.4486 187.8434 517.5723 189.74 515.8204 185.1002 513.903 180.5669 516.2241 184.5039 517.0151 185.613 517.7562 185.3679"/></g><g id="h"><polygon class="by" points="533.0608 205.1678 525.4346 189.3938 531.7032 169.8853 540.5081 187.2773 533.0608 205.1678"/><polygon class="bp" points="533.0608 205.1678 525.4346 189.3938 526.1167 187.2709 527.6569 186.6255 527.6863 189.845 527.6863 189.845 528.9348 190.6661 529.9025 192.6546 529.9025 192.6546 531.5359 194.7253 532.5053 195.9542 532.5053 195.9542 533.7768 195.7958 534.1436 194.4344 534.4951 190.7066 534.4951 190.7066 537.3199 188.5083 538.2231 186.3012 538.8983 184.0977 540.5081 187.2773 533.0608 205.1678"/><polygon class="bs" points="537.6529 181.5468 536.6058 185.3586 535.1094 185.8769 533.8242 187.866 532.3211 190.6631 532.001 188.5898 530.9318 188.5504 530.8139 183.7846 527.8129 184.9158 528.3639 180.2775 531.7032 169.8853 537.6529 181.5468"/><polygon class="bx" points="534.1242 175.7806 535.2165 180.5864 536.2793 183.2585 534.9114 182.0811 533.3957 186.0201 533.7885 183.4836 534.1594 181.0884 534.2012 179.4207 532.2541 173.8272 532.1214 171.4346 534.1242 175.7806"/></g><g id="i"><polygon class="br" points="516.5553 269.8279 506.6298 302.1663 517.6116 329.9262 521.8783 333.6416 530.1621 302.4211 516.5553 269.8279"/><polygon class="bn" points="507.1465 301.9281 513.537 298.3993 522.4905 307.0085 522.7248 328.2479 527.8885 308.8568 530.1621 302.4211 516.5553 269.8279 507.1465 301.9281"/><polygon class="bv" points="521.5755 330.7203 518.7649 320.2885 518.9316 307.6833 513.3974 300.367 508.5623 302.8363 518.0728 329.3231 521.3159 332.3744 521.5755 330.7203"/><polygon class="bw" points="516.5553 269.8279 519.6047 288.8433 518.1753 299.324 525.2232 298.3177 530.1621 302.4211 516.5553 269.8279"/><polygon class="bt" points="515.8049 272.3629 516.5553 281.0828 516.1911 298.1274 508.5825 295.8041 515.8049 272.3629"/></g><g><polyline class="br" points="509.1783 269.3885 490.2255 285.07 493.2198 275.8706 483.3727 291.8625 482.0662 300.4354 491.5003 338.5998 512.1854 300.3788"/><polyline class="bn" points="512.1854 300.3788 498.2996 326.0363 503.9499 302.3858 503.072 290.5386 495.7186 298.7473 491.9745 306.5129 486.5304 298.1777 483.3727 291.8625 493.2198 275.8706 490.2255 285.07 509.3503 274.4904"/><path class="bw" d="M509.1783,269.3885l-18.7127,15.3563,2.7542-8.8743-7.9068,12.8407,2.3165,8.0263,4.2292,4.9954,4.5507-11.5357,9.4816-10.8678-1.2313,3.9781c-.2809,.9074,.506,1.695,1.2742,1.2753l4.16-2.2726-4.261,13.3144,.406,12.642,5.9776-8.0183,2.2357-10.2803,1.5096-10.8726-6.7834-9.707Z"/><polygon class="bv" points="483.8594 300.9105 491.713 335.9902 494.7721 328.6719 486.2557 301.4607 483.9101 295.646 483.8594 300.9105"/><polyline class="bn" points="531.6166 323.1879 534.9988 341.8185 546.865 326.3981 544.8586 320.5318 546.4064 307.4809 531.6166 323.1879"/><polyline class="br" points="533.8905 324.2389 536.0497 323.5127 539.9669 319.7675 540.7121 321.0669 539.0879 325.5764 536.8976 333.0779 539.6743 331.414 542.814 327.9459 545.9676 327.5642 534.9988 341.8185 531.9673 325.1196"/><polyline class="bw" points="531.6166 323.1879 546.4064 307.4809 546.2414 308.8721 544.8586 320.5318 544.3809 315.258 540.33 318.1242 531.882 324.6497"/><polygon class="bw" points="538.3809 331.414 540.2153 325.5669 542.3172 322.6338 543.5593 318.1242 542.971 317.2467 543.3997 315.9522 544.3809 315.258 544.8586 320.5318 546.865 326.3981 541.8586 327.6401 538.3809 331.414"/><polyline class="bv" points="533.451 327.8885 535.4956 325.0032 536.9765 324.449 534.9414 329.6083 535.572 339.6401 535.2472 340.7675 533.451 327.8885"/></g><g><polyline class="bs" points="428.3335 232.1625 420.9666 259.0944 422.031 264.1159 445.4439 244.2805 453.5707 212.2982 428.3335 232.1625"/><polyline class="by" points="428.3335 232.1625 435.4895 232.7622 437.2718 243.9251 425.6473 260.393 440.2026 248.0826 445.4439 244.2805 453.5707 212.2982 428.3335 232.1625"/><polygon class="c`" points="423.4315 261.7138 427.1648 252.26 434.2881 242.6415 434.2943 234.206 429.3781 233.6572 421.6397 258.8638 422.3226 262.8555 423.4315 261.7138"/><polygon class="bp" points="453.5707 212.2982 445.2452 228.4804 438.3763 235.8237 444.1021 238.6197 445.4439 244.2805 453.5707 212.2982"/><polygon class="bp" points="451.6127 213.8694 441.9424 228.4662 433.5203 228.4697 451.6127 213.8694"/><polyline class="bs" points="447.4496 203.9397 438.9252 193.1992 437.0432 207.7537 439.7603 210.0477 443.3905 220.3594 445.6706 212.6005 448.0899 206.2727"/><path class="by" d="M446.3402,204.3779l-.5658,3.1566-.4419-1.607-1.0537,1.2166-1.701,.6171h0l-.5289-4.4933-1.5589-.148,.0505,.0302-1.05-1.6741-.5834,2.9333-1.1785-1.9545-.5423,4.061,4.9062,4.7392,1.133,4.7151,4.3578-9.9405"/><polyline class="c`" points="445.5546 202.2601 445.2016 203.2256 444.5223 204.1276 444.8809 205.2574 443.8639 204.2923 442.8765 202.0429 439.8736 197.1098 439.146 194.1476 441.4252 197.7779 445.5546 202.2601"/><polyline class="bp" points="447.4496 203.9397 447.16 206.1335 446.2174 208.5287 445.588 208.5369 445.2057 210.2685 444.7593 211.5111 444.6563 212.0929 444.0391 212.7039 443.4174 212.7398 443.4174 212.7398 442.8681 211.1956 442.8551 210.3066 443.1187 208.794 442.7206 209.0807 442.2417 208.2975 441.6566 205.116 439.9107 204.0622 439.3223 205.8755 437.5759 203.6337 437.0432 207.7537 439.7603 210.0477 443.3905 220.3594 448.0899 206.2727"/><polyline class="by" points="580.6935 234.3246 586.0469 218.5799 594.996 231.6879"/><polyline class="bq" points="594.996 231.6879 591.0808 251.9525 580.6935 234.3246"/><polyline class="bm" points="580.6935 234.3246 586.0469 218.5799 594.996 231.6879"/><polyline class="bm" points="583.49 231.4368 584.2358 234.7012 583.8956 238.6978"/><polyline class="bm" points="594.996 231.6879 592.9946 242.0467 591.7999 234.4501 587.8447 236.7101 589.0832 227.3186 586.4731 220.7395 583.49 231.4368"/><polygon class="bo" points="585.8871 241.3306 586.846 239.7737 586.3665 235.9066 588.8701 238.3675 591.0542 237.1119 592.3326 241.6821 591.0808 251.9525 584.6584 241.0534 585.8871 241.3306"/><polygon class="bu" points="586.4713 243.8119 587.565 240.979 587.9048 238.7267 589.0832 244.5671 590.5197 250.3203 588.3628 245.1743 587.565 243.6934 586.4713 243.8119"/><polyline class="bo" points="630.7608 230.9717 610.998 239.5628 613.2465 234.0076 606.0688 243.3852 605.0183 248.6514 611.0813 273.0129 626.2294 250.4287"/><polyline class="bo" points="626.2294 250.4287 623.8516 246.5553 630.7608 230.9717"/><polyline class="bq" points="626.2294 250.4287 623.9645 245.8917 630.7608 230.9717"/><polyline class="bq" points="630.4985 231.0857 610.998 239.5628 613.2465 234.0076 606.0688 243.3852 608.1964 247.5125 611.9034 253.0367 614.6581 248.4206 619.9614 243.7453 620.3994 251.1844 616.0606 265.5893 626.2294 250.4287"/><path class="bm" d="M625.0953,250.4976l-3.1734,4.4911-.0936-7.9061,3.2032-8.0445-2.9641,1.1665c-.5473,.2154-1.0895-.323-.8779-.8718l.9276-2.4061-6.8424,6.2049-3.3802,6.9181-2.9023-3.3689-1.5092-5.1434,5.7634-7.5298-2.0746,5.367,19.5888-8.4029"/><polyline class="bm" points="630.7608 230.9717 624.0605 246.084 625.0953 250.4976"/><polygon class="bu" points="606.2739 249.0555 611.2708 271.3987 613.5364 267.0202 607.953 249.5427 606.3897 245.7764 606.2739 249.0555"/><polyline class="by" points="648.8797 248.8477 637.5723 235.8033 640.8068 219.8957 650.7383 231.7808 648.8797 248.8477"/><polygon class="bp" points="640.8068 219.8957 650.7383 231.7808 650.5361 233.638 649.2741 234.4037 648.6226 231.7476 648.6226 231.7476 647.3387 231.2574 646.0809 229.7601 646.0809 229.7601 644.2077 228.2953 643.0959 227.4259 643.0959 227.4259 641.9815 227.7486 641.9153 228.9289 642.3226 232.0625 642.3226 232.0625 640.205 234.3052 639.8199 236.2654 639.6396 238.1881 637.5723 235.8033 640.8068 219.8957"/><polyline class="bs" points="648.8797 248.8477 641.2566 240.1082 641.4597 236.8004 642.7069 236.1463 643.4783 234.3087 644.2891 231.7706 644.98 233.4356 645.9507 233.3069 646.9822 237.2275 649.4656 235.8401 649.8698 239.7562"/><polygon class="bx" points="645.5545 244.3411 643.6376 240.5344 642.1616 238.4866 643.6222 239.2533 644.2226 235.7696 644.3613 237.9249 644.4923 239.9602 644.7784 241.3446 647.6182 245.6733 648.2022 247.6305 645.5545 244.3411"/><polyline class="by" points="655.6112 232.9087 665.9829 222.1961 669.036 236.3261"/><polyline class="by" points="669.036 236.3261 658.2806 251.2705 655.6112 232.9087"/><polyline class="bp" points="655.6112 232.9087 665.9829 222.1961 669.036 236.3261"/><polyline class="bp" points="669.036 236.3261 663.5381 243.9653 665.2487 237.3281 660.9817 237.627 665.464 230.4772 665.572 224.1166 659.0956 231.6493 658.5631 234.5918 656.8185 237.707 655.6112 232.9087"/><polygon class="bs" points="657.6009 240.6205 659.0009 239.7281 659.984 236.3995 661.2752 239.3724 663.6342 239.2011 663.093 243.4117 658.2806 251.2705 656.6301 239.9176 657.6009 240.6205"/><polygon class="c`" points="657.2113 242.8638 659.1912 240.9871 660.3034 239.289 659.2148 244.4928 658.3828 249.7261 658.3667 244.7061 658.2077 243.1927 657.2113 242.8638"/><polyline class="by" points="671.584 185.0183 661.9168 168.737 656.1734 187.3276 660.0996 192.1258 663.2005 204.8971 671.584 185.0183"/><polyline class="bs" points="670.5817 183.3302 669.9622 183.3995 669.0864 184.8264 667.3159 186.2599 664.9508 191.1361 663.7992 190.1783 663.7487 185.3854 663.1854 177.591 661.1634 180.1188 659.4302 184.4642 656.6077 185.9217 661.9168 168.737 670.5817 183.3302"/><polyline class="bp" points="671.584 185.0183 663.2005 204.8971 662.87 203.5357 660.0996 192.1258 662.3866 196.902 665.1836 192.8029 670.8255 183.7409"/><polygon class="bp" points="662.3835 182.1063 662.6955 185.7875 661.7484 189.2695 662.1571 193.9291 663.0145 194.5464 663.0641 195.9091 662.3866 196.902 660.0996 192.1258 656.1734 187.3276 660.4323 184.4175 662.3835 182.1063"/><polygon class="c`" points="668.2254 181.2526 667.3155 184.6698 666.1208 185.7056 666.2288 180.1606 662.1392 170.9785 662.0505 169.8086 668.2254 181.2526"/></g><g id="j"><polygon class="bs" points="700.9767 268.251 677.5932 258.2648 655.7407 266.698 652.5608 270.2655 675.2545 278.7742 700.9767 268.251"/><polygon class="by" points="677.5932 258.2648 679.7923 264.443 672.5089 271.8958 656.5347 271.2258 670.6281 276.5267 675.2545 278.7742 700.9767 268.251 677.5932 258.2648"/><polygon class="c`" points="654.7826 270.1218 662.8743 268.1004 672.3269 268.7648 678.3271 264.2402 676.9136 259.9224 656.1516 267.125 653.5639 269.8273 654.7826 270.1218"/><polygon class="bp" points="700.9767 268.251 686.416 270.1273 678.6745 268.4494 678.7872 274.6365 675.2545 278.7742 700.9767 268.251"/><polygon class="bp" points="699.1412 267.4924 685.2143 267.4169 682.1219 260.5266 699.1412 267.4924"/></g><g id="k"><polygon class="bn" points="698.0024 246.0058 684.5768 256.2746 663.8822 254.9242 678.5817 243.2473 698.0024 246.0058"/><polygon class="bw" points="698.0024 246.0058 684.5768 256.2746 682.3249 256.1277 681.293 254.8903 684.431 254.1611 684.431 254.1611 684.908 252.8645 686.5988 251.5643 686.8011 250.4969 688.1965 249.6504 689.1447 248.5145 689.1447 248.5145 688.6587 247.4113 687.2329 247.3803 684.223 246.7114 684.223 246.7114 680.6151 245.8317 678.2232 245.5053 675.8943 245.3821 678.5817 243.2473 698.0024 246.0058"/><polygon class="br" points="673.7264 247.0536 677.7235 247.1584 678.6199 248.3844 680.8982 249.1002 684.0228 249.8346 682.0805 250.5738 682.3205 251.5393 677.6947 252.6853 679.5818 255.124 674.9062 255.6436 663.8822 254.9242 673.7264 247.0536"/><polygon class="bv" points="669.0116 251.4704 673.4228 249.4437 675.7567 247.9092 674.9626 249.3904 679.2062 249.8867 676.6255 250.089 674.1886 250.2801 672.5483 250.6067 667.5902 253.5706 665.287 254.2117 669.0116 251.4704"/></g><g><polyline class="by" points="676.2157 278.8578 667.2619 287.7104 682.1044 294.6142 684.4466 290.9133 692.7037 288.5128 676.2157 278.8578"/><polygon class="bs" points="675.5072 280.4077 676.7662 281.3785 678.2761 283.2567 682.4055 285.9379 682.0391 287.0496 678.634 286.8219 673.2288 286.9395 675.5886 289.1364 679.1654 291.1461 680.9819 294.0921 667.2619 287.7104 675.2873 279.7757 675.5072 280.4077"/><polyline class="bp" points="676.2157 278.8578 691.3567 288.3057 691.8235 288.7687 684.4466 290.9133 687.2243 288.8728 683.5304 285.7989 675.5132 279.5524 676.2157 278.8578"/><polygon class="bp" points="676.6705 288.0151 679.2107 287.913 681.9553 289.0756 685.1668 288.9325 685.3711 288.0993 686.3296 288.1282 687.2243 288.8728 684.4466 290.9133 682.1044 294.6142 678.8563 290.1276 676.6705 288.0151"/><polygon class="c`" points="674.4537 282.0433 677.1419 283.1646 678.2096 284.4359 674.2242 284.0038 668.7996 287.6153 667.9895 287.6372 674.4537 282.0433"/></g><g><polyline class="bo" points="695.1621 312.5763 690.427 274.4203 683.1666 315.3977 686.8895 347.9764 688.8155 351.9643"/><polyline class="bq" points="695.1621 312.5763 690.427 274.4203 683.1666 315.3977 686.9481 309.8585 690.9347 319.2234 689.6136 345.2374 693.5649 320.771"/><polygon class="bu" points="688.8591 348.4222 688.132 336.0044 689.0722 320.5247 686.7434 312.29 684.1076 315.962 687.1659 347.1754 688.6144 350.4852 688.8591 348.4222"/><polyline class="bm" points="695.1621 312.5763 690.427 274.4203 690.6938 297.3323 689.2531 310.3747 692.9192 308.2021 695.1621 312.5763"/><polygon class="bm" points="689.872 277.6288 689.0211 300.145 684.7665 307.3562 689.872 277.6288"/></g><g><polyline class="bo" points="708.883 176.3378 708.6389 203.5307 712.7542 205.4599 715.5461 222.2764 727.3356 204.238 728.51 210.1149 729.353 198.3356 727.3365 193.3587 708.883 176.3378"/><polygon class="bq" points="715.5461 222.2764 715.7025 222.037 727.3356 204.238 728.51 210.1149 729.353 198.3356 725.3073 196.0568 719.1743 193.4788 719.4098 198.8493 717.5485 205.6697 713.0943 199.6954 708.8027 185.2763 708.6389 203.5307 713.0245 206.0764 715.5461 222.2764"/><path class="bm" d="M715.5461,222.2764l-2.7075-16.3079-3.29-3.1186,.1831-5.496,4.4231,6.5538,1.7448,8.4811,1.8353-2.6035c.3389-.4808,1.0877-.3289,1.2125,.2459l.5473,2.5199,2.3065-8.9443-.978-7.6374,4.2762,1.2196,4.0875,3.4677-.6769,9.4581-1.2163-5.6239-11.7476,17.7855Z"/><polygon class="bu" points="726.0655 193.7111 709.6118 177.7905 710.1252 182.6937 724.3948 194.2269 727.7708 196.5143 726.0655 193.7111"/></g><g><polyline class="by" points="752.9971 193.0463 743.8067 206.9059 738.4949 191.9497"/><polyline class="bq" points="738.4949 191.9497 747.4469 173.3527 752.9971 193.0463"/><polyline class="bm" points="752.9971 193.0463 743.8067 206.9059 738.4949 191.9497"/><polyline class="bm" points="749.5567 195.1257 749.6678 191.779 751.0157 188.0013"/><polyline class="bm" points="738.4949 191.9497 743.071 182.4433 742.2896 190.0935 746.6903 188.9165 743.0985 197.682 743.9451 204.7091 749.5567 195.1257"/><polygon class="bo" points="749.7611 184.9478 748.437 186.2088 747.9148 190.0703 746.1212 187.0525 743.6893 187.7098 743.6182 182.9647 747.4469 173.3527 750.8785 185.529 749.7611 184.9478"/><polygon class="bu" points="749.8288 182.3995 748.049 184.8599 747.1463 186.9512 747.4957 181.0034 747.5733 175.074 748.3471 180.5999 748.741 182.2353 749.8288 182.3995"/></g><g id="l"><polygon class="by" points="680.9678 208.2312 679.312 192.8315 690.3384 179.6728 692.4942 196.8007 680.9678 208.2312"/><polygon class="bp" points="680.9678 208.2312 679.312 192.8315 680.5119 191.3996 681.9865 191.464 681.0528 194.0345 681.0528 194.0345 681.8481 195.1554 682.0621 197.099 682.0621 197.099 682.806 199.3576 683.2475 200.6981 683.2475 200.6981 684.3534 201.049 685.0641 200.1042 686.4663 197.2724 686.4663 197.2724 689.4729 196.5839 690.882 195.1679 692.1 193.6693 692.4942 196.8007 680.9678 208.2312"/><polygon class="bs" points="691.8221 191.1744 689.8157 193.8122 688.4153 193.6632 686.7531 194.7626 684.6689 196.4227 685.0194 194.6544 684.1407 194.2222 685.461 190.3892 682.6253 190.1632 684.4646 186.6824 690.3384 179.6728 691.8221 191.1744"/><polygon class="bx" points="690.5999 185.2672 690.0791 189.4974 690.1688 192.0201 689.3802 190.5712 686.9457 193.1344 688.0277 191.2652 689.0494 189.5001 689.5806 188.19 689.6239 183.0131 690.2255 181.0612 690.5999 185.2672"/></g><g id="m"><polygon class="bn" points="751.2508 238.4748 764.8741 259.7646 773.345 234.3834 767.7878 228.178 763.5187 211.1917 751.2508 238.4748"/><polygon class="br" points="753.5511 240.5494 754.8241 238.5736 757.378 236.5316 760.8292 229.8194 762.4652 231.0347 762.4735 237.4805 763.176 247.9322 766.1047 244.4018 768.644 238.4442 772.7044 236.3028 764.8741 259.7646 752.6633 240.6822 753.5511 240.5494"/><polygon class="bw" points="763.5187 211.1917 763.9737 213.0024 767.7878 228.178 764.5773 221.8975 760.5181 227.5916 752.3197 240.1452 751.2508 238.4748 763.5187 211.1917"/><polygon class="bw" points="764.3632 245.0861 763.9868 236.8721 765.3891 232.1265 764.8662 225.8829 763.647 225.1071 763.5941 223.2767 764.5773 221.8975 767.7878 228.178 773.345 234.3834 767.2087 238.571 764.3632 245.0861"/><polygon class="bv" points="756.009 243.3273 757.3574 238.6711 759.0816 237.2011 758.853 244.6691 764.5856 256.7628 764.697 258.3312 756.009 243.3273"/></g><g id="n"><polygon class="bn" points="467.0996 138.7858 471.2325 149.9047 465.1834 164.3645 460.7798 149.6648 467.0996 138.7858"/><polygon class="bw" points="467.0996 138.7858 471.2325 149.9047 468.1403 157.2962 468.5423 151.4662 465.402 152.5377 467.8018 145.7478 467.0459 140.4564 463.2106 147.9486 463.2007 150.4896 462.3104 153.4077 460.7798 149.6648 467.0996 138.7858"/><polygon class="br" points="463.2765 155.6709 464.2024 154.6611 464.4972 151.7131 465.8502 153.9273 467.5855 153.3299 467.7359 156.9234 465.1834 164.3645 462.4607 155.2759 463.2765 155.6709"/><polygon class="bv" points="463.2811 157.605 464.5097 155.6676 465.1151 154.0458 464.9882 158.568 465.0564 163.0651 464.3843 158.9085 464.0669 157.6851 463.2811 157.605"/></g><g id="o"><polygon class="by" points="392.1414 167.7888 405.786 186.7992 410.8673 163.2963 405.5199 157.8091 400.3352 142.4173 392.1414 167.7888"/><polygon class="bs" points="394.3114 169.6083 395.237 167.7578 397.2633 165.8034 399.6532 159.5468 401.1735 160.6028 401.7487 166.4983 403.2764 176.0342 405.4954 172.7056 407.1641 167.1702 410.4831 165.0737 405.786 186.7992 393.5562 169.7599 394.3114 169.6083"/><polygon class="bp" points="400.3352 142.4173 400.8879 144.0581 405.5199 157.8091 402.193 152.1736 399.1881 157.5196 393.212 169.2804 392.1414 167.7888 400.3352 142.4173"/><polygon class="bp" points="403.7804 170.3893 403.0024 165.8905 403.7956 161.5021 402.7938 155.8091 401.6721 155.141 401.4652 153.4685 402.193 152.1736 405.5199 157.8091 410.8673 163.2963 405.9354 167.3349 403.7804 170.3893"/><polygon class="c`" points="396.6794 172.0656 397.434 167.761 398.794 166.3579 399.2545 173.1963 405.2723 184.0633 405.5067 185.4942 396.6794 172.0656"/></g><g id="p"><polygon class="by" points="334.8139 157.1083 354.3228 170.0305 358.997 195.5435 336.9958 181.5364 334.8139 157.1083"/><polygon class="bp" points="334.8139 157.1083 354.3228 170.0305 354.8314 172.8068 353.3347 174.46 351.2451 170.8954 351.2451 170.8954 349.1745 170.7397 346.7073 169.1146 346.7073 169.1146 343.3629 167.8022 341.378 167.0232 341.378 167.0232 339.9037 167.9713 340.3173 169.7089 342.2592 174.0702 342.2592 174.0702 340.1611 178.2312 340.4495 181.2355 341.0182 184.0973 336.9958 181.5364 334.8139 157.1083"/><polygon class="bs" points="344.1881 186.1795 343.0545 181.3025 344.5781 179.8173 344.902 176.8237 344.9806 172.7989 346.6995 174.9115 348.0494 174.3063 351.2348 179.5377 354.2318 176.4571 356.507 181.9527 358.997 195.5435 344.1881 186.1795"/><polygon class="bx" points="352.2376 190.4535 347.8194 185.7691 344.7985 183.4411 347.2442 183.9208 346.6101 178.6176 347.7411 181.6785 348.809 184.5688 349.8207 186.4498 355.8005 191.4918 357.4908 194.0735 352.2376 190.4535"/></g><g><polyline class="bq" points="355.8261 161.3325 360.1661 139.8773 374.0004 155.5104"/><polyline class="bq" points="374.0004 155.5104 372.2866 182.6302 355.8261 161.3325"/><polyline class="bm" points="374.0162 155.5104 373.1401 169.3734 370.3175 159.6497 365.5471 163.2593 363.8599 154.6254 361.2229 154.3949 358.9996 157.0956 358.997 163.6815 355.8418 161.3325 360.1818 139.8773 374.0162 155.5104"/><polygon class="bo" points="363.7546 169.6198 364.7427 167.4268 363.4734 162.4555 367.1425 165.2535 369.7754 163.2504 372.2019 169.0073 372.2866 182.6302 362.1093 169.4621 363.7546 169.6198"/><polygon class="bu" points="364.929 172.7636 365.8797 168.8817 365.946 165.8833 368.4543 173.3158 371.284 180.5916 367.618 174.2287 366.3327 172.427 364.929 172.7636"/></g><g><polyline class="bo" points="383.2817 339.4873 411.0133 328.6859 382.6154 321.356 358.9732 330.0879 355.9143 333.4112"/><polyline class="bq" points="383.2817 339.4873 411.0133 328.6859 382.6154 321.356 386.1401 326.6403 379.0171 333.6221 360.6203 334.0106 377.6189 337.7987"/><polygon class="bu" points="358.4345 333.1493 367.3685 330.882 378.2982 330.8871 384.4298 326.552 382.1076 322.8513 359.5132 330.4373 356.9913 332.9655 358.4345 333.1493"/><polyline class="bm" points="383.2817 339.4873 411.0133 328.6859 394.6499 331.2213 385.5137 330.2226 386.6514 335.6423 383.2817 339.4873"/><polygon class="bm" points="408.7883 328.1326 392.8323 328.9174 388.1686 323.063 408.7883 328.1326"/></g><g id="q"><polygon class="bo" points="311.5009 383.5907 340.4087 374.5489 308.8389 362.2188 304.5675 365.0665 283.5975 360.0921 298.823 378.7448 291.3969 377.1854 304.7096 383.1906 311.5009 383.5907"/><polygon class="bq" points="283.5975 360.0921 283.7996 360.3396 298.823 378.7448 291.3969 377.1854 304.7096 383.1906 309.3542 380.5613 315.3737 376.1852 308.9993 374.0055 301.9661 369.2915 311.1181 367.9401 330.0315 370.496 308.8389 362.2188 303.7162 365.0354 283.5975 360.0921"/><path class="bm" d="M283.5975,360.0921l20.3358,4.8239,5.2518-1.5746,6.3149,2.6125-9.8121,1.0654-10.7415-2.2054,2.1318,2.8126c.3937,.5194-.1514,1.1262-.8827,.9827l-3.2057-.6292,9.2895,6.0608,9.3811,2.5204-3.5236,3.3086-6.0506,2.1375-10.6894-4.8219,7.1519,1.409-14.9513-18.5023Z"/><polygon class="bu" points="311.7151 382.2888 338.3575 374.5585 332.391 372.8374 311.9354 380.5544 307.6099 382.5765 311.7151 382.2888"/></g><g id="r"><polygon class="bq" points="268.4243 325.1716 252.8852 336.907 273.5011 344.5901 277.8962 339.7782 290.8526 336.2038 268.4243 325.1716"/><polygon class="bo" points="266.9924 327.1683 268.6492 328.3046 270.4662 330.5648 276.0206 333.6588 275.2061 335.0814 270.1532 335.0243 262.0184 335.5359 265.034 338.1399 269.9197 340.4265 271.942 344.0091 252.8852 336.907 266.8132 326.3884 266.9924 327.1683"/><polygon class="bm" points="290.8526 336.2038 289.4715 336.5848 277.8962 339.7782 282.5486 337.0252 277.7409 333.4082 267.2051 326.0924 268.4243 325.1716 290.8526 336.2038"/><polygon class="bm" points="266.924 336.657 270.7582 336.3577 274.5975 337.635 279.4484 337.2388 279.9534 336.1772 281.3841 336.1491 282.5486 337.0252 277.8962 339.7782 273.5011 344.5901 269.6989 339.1664 266.924 336.657"/><polygon class="bu" points="265.0224 329.2963 268.787 330.5254 270.0854 332.0523 264.211 331.7772 255.2143 336.684 253.994 336.766 265.0224 329.2963"/></g><g><polyline class="by" points="269.0484 349.7632 279.6322 360.9849 264.8484 363.8335"/><polyline class="bq" points="264.8484 363.8335 249.9007 352.0956 269.0484 349.7632"/><polyline class="bm" points="269.0484 349.7632 279.6322 360.9849 264.8484 363.8335"/><polyline class="bm" points="264.8484 363.8335 257.2074 357.8333 263.997 359.8124 263.8975 355.3037 271.0815 360.2197 277.6636 360.501 270.1812 353.4716 267.16 352.8325 264.0197 350.9103 269.0484 349.7632"/><polygon class="bo" points="260.9638 351.659 261.819 353.1592 265.2179 354.2837 262.0755 355.5674 262.1367 358.0601 257.8027 357.3784 249.9007 352.0956 261.7395 350.6535 260.9638 351.659"/><polygon class="bu" points="258.6597 351.1889 260.5058 353.3267 262.2097 354.5445 256.874 353.2593 251.4951 352.244 256.6948 352.3592 258.27 352.2313 258.6597 351.1889"/></g><g id="s"><polygon class="bq" points="288.1483 368.7128 271.9358 375.2163 249.3266 368.1194 270.9018 360.9653 288.1483 368.7128"/><polygon class="bm" points="288.1483 368.7128 271.9358 375.2163 260.3785 371.5885 269.2222 371.6764 267.1874 367.4851 277.7452 370.2176 285.6222 368.7714 273.814 364.1398 269.9815 364.3265 265.4629 363.3442 270.9018 360.9653 288.1483 368.7128"/><polygon class="bo" points="262.1797 364.838 263.8257 366.0191 268.3098 366.1882 265.1522 368.2049 266.2845 370.5205 260.8866 371.0084 249.3266 368.1194 262.6663 363.6961 262.1797 364.838"/><polygon class="bu" points="259.2642 364.9967 262.3492 366.5168 264.8753 367.2134 258.0401 367.3969 251.2689 367.8442 257.4462 366.6015 259.2483 366.0729 259.2642 364.9967"/></g><g id="t"><polygon class="bn" points="260.8141 302.1841 248.1486 316.2596 267.606 316.2087 271.018 311.0321 282.2873 304.2701 260.8141 302.1841"/><polygon class="br" points="259.7514 304.2143 261.3744 304.6257 263.2699 305.8891 268.6291 306.6955 268.0575 308.08 263.4969 309.5549 256.2235 312.4129 259.2387 313.5908 263.903 313.9519 266.1346 316.2125 248.1486 316.2596 259.5009 303.6435 259.7514 304.2143"/><polygon class="bw" points="282.2873 304.2701 281.086 304.9909 271.018 311.0321 274.8969 307.4271 270.151 305.977 259.8204 303.2885 260.8141 302.1841 282.2873 304.2701"/><polygon class="bw" points="258.4472 312.5679 264.1943 310.4407 267.8004 310.3083 272.1271 308.5311 272.4612 307.5289 273.7473 307.0759 274.8969 307.4271 271.018 311.0321 267.606 316.2087 263.5602 313.0091 258.4472 312.5679"/><polygon class="bv" points="258.2188 306.5114 261.752 306.3629 263.0965 307.195 257.7707 308.7426 250.2222 315.38 249.1318 315.813 258.2188 306.5114"/></g><g><polyline class="bn" points="263.9529 280.4058 280.8472 288.9126 264.6605 296.8626 242.4454 289.2498 263.9529 280.4058"/><polyline class="bw" points="263.9529 280.4058 280.8472 288.9126 264.6605 296.8626 253.3046 292.9711 262.0538 292.8396 260.1331 288.0452 270.5197 290.9275 278.3463 289.047 266.7643 284.0009 262.9679 284.318 258.5183 283.3009 263.9529 280.4058"/><polygon class="br" points="255.2364 285.1153 256.839 286.438 261.2725 286.5155 258.1033 288.9314 259.1724 291.58 253.8203 292.2867 242.4454 289.2498 255.7432 283.7817 255.2364 285.1153"/><polygon class="bv" points="252.348 285.3758 255.367 287.0527 257.8512 287.7918 251.0836 288.1844 244.3734 288.8802 250.5134 287.28 252.3084 286.621 252.348 285.3758"/></g><g id="u"><polygon class="br" points="262.6974 256.9869 250.8815 274.1647 273.8673 271.7901 275.9256 266.7263 289.6339 257.3202 276.7176 256.5994 265.8927 255.1405 262.6974 256.9869"/><path class="bn" d="M262.0396,257.9431l1.5457,.5691c.1146,.0422,.235,.0564,.3507,.0414l5.067-.2697-2.2007,1.2732,2.3867,1.1964h0l1.8163,2.422-6.52,2.4602,.9033,1.0135-.2984,1.3766-1.9863,2.2438,4.7386-.161-2.3437,2.5459,6.4225-.6359,4.6193-9.3611,6.5417-3.4811-17.2941-3.159-2.142,.4211-.9488,.5482-.6577,.9562Z"/><polygon class="bv" points="262.7845 260.7451 264.5012 261.4735 266.0235 260.5037 265.0922 262.438 262.2033 264.794 256.3025 271.2641 252.201 273.4755 256.5074 268.6063 261.1412 260.5475 262.7845 260.7451"/><polygon class="bw" points="262.6974 256.9869 266.165 256.6381 270.2763 257.2323 270.6155 258.2085 273.4325 258.1725 275.5432 258.4143 275.5432 258.4143 279.0477 259.5186 279.2218 259.4203 279.0477 259.5186 276.048 261.4721 274.7104 261.8162 272.2862 261.9573 271.9908 263.5027 271.9908 263.5027 267.4836 265.5725 266.7965 268.6732 269.8439 268.928 267.3607 272.4623 273.8673 271.7901 275.9256 266.7263 289.6339 257.3202 265.8927 255.1405 262.6974 256.9869"/></g><g id="v"><polygon class="br" points="173.976 270.2539 185.7988 310.0889 194.9903 263.0022 191.7387 257.3601 194.643 226.6021 177.562 251.3616 178.3893 240.5019 173.7112 260.488 173.976 270.2539"/><polygon class="bn" points="194.643 226.6021 194.4164 226.9307 177.562 251.3616 178.3893 240.5019 173.7112 260.488 176.782 266.6985 181.7258 274.5909 183.2732 265.1335 187.2789 254.3259 189.5177 267.1812 188.8201 294.6112 194.9903 263.0022 191.6865 256.139 194.643 226.6021"/><path class="bw" d="M194.643,226.6021l-2.8165,29.8278,2.0801,7.248-1.9841,9.4423-2.0185-13.8444,1.1466-15.6999-2.5916,3.4991c-.4786,.6461-1.1358-.0345-1.0644-1.1023l.3134-4.6808-5.1262,14.2479-1.593,13.8075-3.6375-4.4994-2.7184-8.2983,3.7562-16.0478-.7043,10.4438,16.9581-24.3436Z"/><polygon class="bv" points="175.2928 270.3498 185.589 307.1604 186.7197 298.3596 177.0409 270.3845 174.6056 264.532 175.2928 270.3498"/></g><g id="w"><polygon class="bn" points="184.9112 408.1044 176.9956 381.0552 192.5147 353.9433 201.8812 383.9271 184.9112 408.1044"/><polygon class="bw" points="184.9112 408.1044 176.9956 381.0552 178.6844 378.1049 181.3463 377.7462 180.5001 382.6502 180.5001 382.6502 182.2848 384.4022 183.2929 387.8146 184.8848 388.9968 185.3512 391.6207 186.5729 393.8796 186.5729 393.8796 188.6663 394.1525 189.6355 392.232 192.655 388.6897 192.655 388.6897 196.4003 384.51 198.4689 381.5209 200.1688 378.4453 201.8812 383.9271 184.9112 408.1044"/><polygon class="br" points="198.8691 374.0663 196.1234 379.4354 193.5674 379.6187 190.9436 382.1221 187.7444 385.7653 187.8037 382.4856 186.0911 381.9938 187.2237 374.7045 182.0722 375.2112 184.2477 368.3858 192.5147 353.9433 198.8691 374.0663"/><polygon class="bv" points="194.7813 363.8791 195.2082 371.6229 196.1798 376.1124 194.3016 373.7708 190.7652 379.1441 192.1023 375.4484 193.3649 371.9587 193.8952 369.4416 192.3088 360.1555 192.7589 356.4664 194.7813 363.8791"/></g><g id="x"><g id="y"><polygon class="by" points="246.756 447.6821 252.1331 459.555 245.2822 474.5278 239.4584 458.8748 246.756 447.6821"/><polygon class="bp" points="246.756 447.6821 252.1331 459.555 248.6311 467.2088 248.9248 461.0885 245.1549 462.0879 247.8379 455.0391 246.7464 449.4384 242.3472 457.1677 242.4194 459.842 241.4373 462.8772 239.4584 458.8748 246.756 447.6821"/><polygon class="bs" points="242.6831 465.2989 243.7716 464.2739 244.0311 461.1829 245.7442 463.5689 247.8272 463.0111 248.1286 466.7998 245.2822 474.5278 241.6814 464.8497 242.6831 465.2989"/><polygon class="c`" points="242.7529 467.3349 244.1774 465.3459 244.8573 463.6636 244.8535 468.4184 245.0853 473.1548 244.133 468.7521 243.7077 467.4514 242.7529 467.3349"/></g><g id="a`"><polygon class="bs" points="208.4257 419.0535 213.7782 458.4743 236.7948 483.717 242.5173 485.8626 236.1231 448.3769 208.4257 419.0535"/><polygon class="by" points="213.7782 458.4743 218.5873 451.3472 230.9657 456.7302 240.8604 479.6442 236.9065 456.3536 236.1231 448.3769 208.4257 419.0535 213.7782 458.4743"/><polygon class="c`" points="240.9008 482.8302 233.4948 472.7642 227.9113 459.0302 219.3515 453.5411 215.9088 458.3485 236.9558 482.8601 241.4088 484.7372 240.9008 482.8302"/><polygon class="bp" points="208.4257 419.0535 219.9667 438.3165 223.3897 450.3046 229.589 446.1071 236.1231 448.3769 208.4257 419.0535"/><polygon class="bp" points="208.8715 422.1315 218.0138 441.7766 213.0739 450.6258 208.8715 422.1315"/></g><g id="aa"><polygon class="bs" points="299.1694 528.3064 284.6066 548.7557 311.614 545.575 313.0098 541.2497 329.3412 536.3633 309.9623 526.938 315.6446 525.0333 303.8529 525.6796 299.1694 528.3064"/><polygon class="by" points="329.3412 536.3633 329.084 536.2382 309.9623 526.938 315.6446 525.0333 303.8529 525.6796 302.1014 529.9799 300.3159 536.3886 305.614 535.4791 312.6144 536.4671 307.2484 541.6378 293.4841 547.7102 311.614 545.575 313.5874 540.9039 329.3412 536.3633"/><path class="bp" d="M329.3412,536.3633l-15.8374,4.7386-2.6797,3.6564-5.4754,.5102,5.9449-5.2128,8.1941-2.7985-2.8138-1.493c-.5196-.2757-.4632-1.0376,.0913-1.2338l2.431-.8601-9.1634-1.1623-7.4535,1.9315,.6717-4.3957,2.9256-4.4915,9.4681-.5189-5.4261,1.9145,19.1227,9.4155Z"/><polygon class="c`" points="299.679 529.5231 285.956 547.8498 290.7556 546.7232 300.4009 531.1155 302.2452 527.4784 299.679 529.5231"/></g><g id="ab"><polygon class="bs" points="207.2962 479.0101 225.7667 479.79 214.4064 460.9599 209.5493 461.9794 196.4499 455.2055 201.2068 466.933 204.5168 477.2381 207.2962 479.0101"/><path class="by" d="M208.3244,479.0535l-.1871-1.6727c-.0139-.124-.0523-.2375-.1119-.3305l-2.3034-4.2925,1.9155,1.2195-.0374-2.76,1.168-2.9433h0l4.6366,4.3448,1.7213-1.8963-.0788,.0329,2.5954,.4902-2.0819-4.0651,2.9819,.6351-3.1523-5.2767-9.315,1.1706-5.4536-3.7945,4.6326,16.9258,1.2168,1.6433,.8253,.5262,1.0282,.0434Z"/><polygon class="c`" points="210.2351 476.8376 210.1036 474.9262 208.7081 474.1322 210.6232 473.8701 213.6797 475.0891 221.2349 476.6545 224.6769 479.0175 219.0466 477.9572 210.7564 478.3887 210.2351 476.8376"/><polygon class="bp" points="207.2962 479.0101 205.5899 476.1641 204.3644 472.2278 204.9973 471.3859 203.8069 468.936 203.1277 466.9504 202.7018 466.1609 202.7727 464.6583 202.4068 463.1639 203.3725 463.7954 205.3399 464.8024 206.164 465.7833 207.2755 467.8302 207.4191 466.9816 208.6207 467.2273 212.118 470.025 214.8557 468.8981 213.8005 466.084 217.6222 466.2902 214.4064 460.9599 209.5493 461.9794 196.4499 455.2055 204.5168 477.2381 207.2962 479.0101"/></g><g id="ac"><polygon class="by" points="184.0174 476.2237 211.7504 479.6985 223.9547 501.5997 192.8191 498.213 184.0174 476.2237"/><polygon class="bp" points="184.0174 476.2237 211.7504 479.6985 213.0785 482.0817 211.6067 484.3007 208.0954 481.8792 208.0954 481.8792 205.4535 482.6531 201.9485 482.2222 201.9485 482.2222 197.4181 482.475 194.7293 482.6251 194.7293 482.6251 193.1108 484.1714 194.0618 485.6206 197.585 488.8566 197.585 488.8566 195.979 493.6998 197.0867 496.3952 198.5115 498.8322 192.8191 498.213 184.0174 476.2237"/><polygon class="bs" points="203.0134 499.3804 200.3786 495.3005 201.9258 493.2275 201.5906 490.27 200.6912 486.4523 203.3763 487.6739 204.9234 486.5051 210.2258 490.0062 213.2299 485.779 217.4535 489.9329 223.9547 501.5997 203.0134 499.3804"/><polygon class="bx" points="214.1939 499.8199 207.4771 497.3808 203.1017 496.5353 206.2956 495.8993 204.1831 491.1969 206.3642 493.571 208.4238 495.8129 210.1622 497.1311 218.931 499.2123 221.6964 500.8875 214.1939 499.8199"/></g><g id="ad"><polygon class="by" points="194.7317 521.0864 213.3415 515.6213 196.7954 501.4504 191.009 504.3713 177.6674 503.2066 194.7317 521.0864"/><polygon class="bs" points="196.7672 519.7396 195.6191 518.1228 194.7153 515.4154 190.616 510.6541 191.8742 509.6237 196.5691 511.4148 204.339 513.7422 202.437 510.3058 198.679 506.5183 198.0467 502.5221 213.3415 515.6213 196.6612 520.5198 196.7672 519.7396"/><polygon class="bp" points="177.6674 503.2066 179.0896 503.3308 191.009 504.3713 185.7037 505.3068 188.923 510.2931 196.1918 520.6576 194.7317 521.0864 177.6674 503.2066"/><polygon class="bp" points="200.1541 511.0217 196.4716 509.9783 193.3364 507.4806 188.6713 506.1767 187.8282 506.9809 186.4834 506.5146 185.7037 505.3068 191.009 504.3713 196.7954 501.4504 198.4438 507.7551 200.1541 511.0217"/><polygon class="c`" points="199.3506 518.457 196.2683 516.0295 195.5916 514.1761 200.9766 516.4506 211.0901 515.0255 212.2574 515.3698 199.3506 518.457"/></g><g id="ae"><polygon class="bo" points="417.8846 400.9774 393.9849 408.6617 417.5348 422.2601 421.2399 419.6276 437.2521 425.4754 427.354 406.3337 433.0477 408.2044 423.2094 401.6722 417.8846 400.9774"/><polygon class="bq" points="437.2521 425.4754 437.1207 425.2214 427.354 406.3337 433.0477 408.2044 423.2094 401.6722 419.2343 404.072 413.9713 408.1413 418.7619 410.5801 423.7825 415.5576 416.3896 416.4939 401.7259 413.1316 417.5348 422.2601 421.9096 419.6958 437.2521 425.4754"/><path class="bm" d="M437.2521,425.4754l-15.5279-5.671-4.3341,1.3286-4.6939-2.8648,7.882-.6239,8.2413,2.6561-1.3628-2.8791c-.2517-.5317,.2491-1.1087,.8109-.9344l2.4629,.764-6.6501-6.4105-7.1293-2.9083,3.1666-3.1218,5.0305-1.851,7.8996,5.2451-5.4941-1.7097,9.6985,18.9807Z"/><polygon class="bu" points="417.5657 402.2573 395.6082 408.7424 400.1289 410.7091 417.1923 403.9654 420.8452 402.1528 417.5657 402.2573"/></g></g><g id="af"><polygon class="by" points="268.0936 457.3633 274.3988 482.4071 292.9536 460.9032 289.4421 453.0674 291.3749 435.3168 268.0936 457.3633"/><polygon class="bs" points="269.7343 460.1326 271.8261 458.6659 275.2942 457.5687 281.4788 452.2912 282.7442 454.011 280.3104 460.202 277.091 470.4735 281.5186 468.0741 286.4552 463.2128 291.5504 462.5294 274.3988 482.4071 268.7474 459.96 269.7343 460.1326"/><polygon class="bp" points="291.3749 435.3168 291.1689 437.209 289.4421 453.0674 288.4349 445.9527 281.9947 450.0473 268.5883 459.3283 268.0936 457.3633 291.3749 435.3168"/><polygon class="bp" points="280.6874 465 282.1375 460.1294 285.4153 456.0474 287.2295 449.8766 286.2371 448.7197 286.875 446.9445 288.4349 445.9527 289.4421 453.0674 292.9536 460.9032 284.8929 462.8494 280.6874 465"/><polygon class="c`" points="271.2748 463.6302 274.4617 459.6158 276.8378 458.7873 273.7668 465.8796 275.2319 479.4277 274.7551 480.9711 271.2748 463.6302"/></g><g id="ag"><polygon class="bq" points="293.1245 460.9922 282.6297 477.3947 304.6306 477.4379 307.0805 471.3989 317.9884 463.5464 293.1245 460.9922"/><polygon class="bo" points="292.4754 463.362 294.4237 463.852 296.9127 465.3403 303.196 466.3121 302.9264 467.9291 298.1684 469.6308 290.7178 472.9364 294.4502 474.3306 299.8259 474.7777 302.9668 477.4346 282.6297 477.3947 292.0364 462.6929 292.4754 463.362"/><polygon class="bm" points="317.9884 463.5464 316.8256 464.3834 307.0805 471.3989 310.4869 467.2013 304.7221 465.4795 292.3011 462.2792 293.1245 460.9922 317.9884 463.5464"/><polygon class="bm" points="295.7074 472.2835 299.1988 470.6709 303.2428 470.535 307.6539 468.4785 307.7588 467.3075 309.0905 466.7842 310.4869 467.2013 307.0805 471.3989 304.6306 477.4379 299.1812 473.6728 295.7074 472.2835"/><polygon class="bu" points="291.3673 466.0417 295.3244 465.8866 297.0723 466.8674 291.4682 468.65 284.7362 476.3765 283.6204 476.8773 291.3673 466.0417"/></g><g><polyline class="by" points="299.0801 476.477 320.6615 479.2295 306.3462 494.3809"/><polyline class="bq" points="306.3462 494.3809 279.3796 494.7092 299.0801 476.477"/><polyline class="bm" points="299.0801 476.477 320.6615 479.2295 306.3462 494.3809"/><polyline class="bm" points="306.3462 494.3809 292.5614 494.5488 301.9451 490.9615 297.9792 486.4201 310.3199 485.5184 318.0175 480.3618 303.5328 479.343 299.5637 481.1868 294.363 481.8135 299.0801 476.477"/><polygon class="bo" points="291.5406 485.1093 293.7917 485.9403 298.6036 484.2817 296.1403 488.1977 298.34 490.7034 292.8471 493.5898 279.3796 494.7092 291.5602 483.4365 291.5406 485.1093"/><polygon class="bu" points="288.5284 486.5334 292.447 487.1984 295.4182 487.0378 288.2747 490.1339 281.3129 493.5425 287.3024 489.359 288.9778 487.9248 288.5284 486.5334"/></g><g id="ah"><polygon class="bq" points="323.6445 496.4171 309.9342 517.5505 278.848 520.7489 298.2041 495.064 323.6445 496.4171"/><polygon class="bm" points="323.6445 496.4171 309.9342 517.5505 294.0436 519.1855 304.2134 513.5657 298.7861 508.0801 312.8718 505.6414 320.8016 498.1583 303.8813 498.3253 299.6406 501.1261 293.7505 502.474 298.2041 495.064 323.6445 496.4171"/><polygon class="bo" points="291.1049 507.0411 293.8598 507.888 299.1086 505.241 296.9935 510.576 300.0012 513.6014 294.1948 517.9117 278.848 520.7489 290.8156 504.8682 291.1049 507.0411"/><polygon class="bu" points="287.8912 509.1987 292.5412 509.6589 295.9432 509.1449 288.2693 513.8971 280.8635 519.0361 287.0018 512.9915 288.6696 510.9581 287.8912 509.1987"/></g><g id="ai"><polygon class="br" points="456.1035 432.5048 452.8169 458.8743 463.2118 479.129 466.4984 481.4985 468.7914 456.1991 456.1035 432.5048"/><polygon class="bn" points="453.1418 458.6258 457.0972 455.1004 464.0805 460.7046 466.4984 477.1991 467.9352 461.4834 468.7914 456.1991 456.1035 432.5048 453.1418 458.6258"/><polygon class="bv" points="465.9825 479.2628 462.9682 471.4906 461.7405 461.6641 457.2118 456.6481 454.1978 459.1595 463.4602 478.6036 465.9825 480.5813 465.9825 479.2628"/><polygon class="bw" points="456.1035 432.5048 460.1927 446.9254 460.3388 455.2533 465.008 453.6099 468.7914 456.1991 456.1035 432.5048"/><polygon class="bw" points="455.8647 434.5685 458.3583 448.8233 453.7018 453.6864 455.8647 434.5685"/></g><g><polyline class="br" points="824.2189 527.6803 826.1619 564.5613 845.9343 589.5451 851.1771 591.9316 848.0957 556.7699 824.2189 527.6803"/><polyline class="bn" points="824.2189 527.6803 826.5594 564.1378 831.2745 558.2966 842.5566 564.1459 850.1021 586.0571 848.2055 564.2119 848.0957 556.7699 824.2189 527.6803"/><polygon class="bv" points="849.8881 589.0105 843.6798 579.1714 839.4856 566.0627 831.8237 560.3817 828.187 564.5936 846.1544 588.7628 850.2178 590.812 849.8881 589.0105"/><polyline class="bw" points="824.2189 527.6803 833.6104 546.3252 835.8994 557.6663 842.0951 554.2118 848.0957 556.7699 824.2189 527.6803"/><polygon class="bw" points="824.3969 530.5619 831.4894 549.3933 826.1168 557.2437 824.3969 530.5619"/><polyline class="br" points="906.9861 523.3131 886.217 560.4219 887.3889 596.1428 890.2707 601.4781 909.0566 565.3946 906.9861 523.3131"/><polyline class="bn" points="906.9861 523.3131 886.8022 560.2365 894.2395 557.2393 900.0078 569.4172 892.9466 595.1284 904.6327 572.7206 909.0566 565.3946 906.9861 523.3131"/><polygon class="bv" points="890.9783 597.8881 891.8202 584.7256 896.309 569.527 893.4281 559.5892 887.8699 561.6146 888.0453 595.5055 890.1577 599.8353 890.9783 597.8881"/><polyline class="bw" points="906.9861 523.3131 903.4308 546.895 898.4411 559.276 905.6531 559.4572 909.0566 565.3946 906.9861 523.3131"/><polygon class="bw" points="905.385 526.2275 899.8181 548.6732 890.619 553.2543 905.385 526.2275"/><polyline class="br" points="877.2324 512.1201 858.6543 561.2365 863.2142 604.1122 866.7655 609.9531 883.3359 562.487 877.2324 512.1201"/><polyline class="bn" points="877.2324 512.1201 859.2577 560.8909 866.866 555.7255 874.1138 569.2255 869.0135 601.7314 879.3249 572.2509 883.3359 562.487 877.2324 512.1201"/><polygon class="bv" points="867.1825 605.4722 866.8531 589.4083 870.2017 570.1277 866.2239 558.731 860.5178 562.3323 863.851 603.2064 866.4931 607.9935 867.1825 605.4722"/><polyline class="bw" points="877.2324 512.1201 875.6522 541.3262 871.5107 557.3098 879.1754 556.0279 883.3359 562.487 877.2324 512.1201"/><polygon class="bw" points="875.8053 515.9713 871.9863 544.2245 862.6567 551.6684 875.8053 515.9713"/></g><g id="aj"><polygon class="bs" points="704.4233 419.7976 695.4102 396.3668 683.1546 420.6425 685.9908 424.194 681.0506 440.5091 699.6068 429.5527 698.0585 435.3423 704.0285 425.153 704.4233 419.7976"/><polygon class="by" points="681.0506 440.5091 681.2968 440.3638 699.6068 429.5527 698.0585 435.3423 704.0285 425.153 701.4094 421.3188 697.0511 416.2924 694.885 421.2123 690.197 426.5043 688.8474 419.1756 691.3817 404.3463 683.1546 420.6425 685.9603 424.8665 681.0506 440.5091"/><path class="bp" d="M681.0506,440.5091l4.7908-15.8217-1.5697-4.2528,2.5969-4.8472,1.0652,7.8346-2.1895,8.3773,2.7981-1.5222c.5167-.2811,1.1209,.1865,.9784,.7572l-.6246,2.5019,6.0273-6.9994,2.5037-7.2813,3.2946,2.9864,2.1303,4.9188-4.7936,8.1814,1.3987-5.5814-18.4067,10.7482Z"/><polygon class="c`" points="703.1275 419.551 695.4207 397.992 693.7108 402.6159 701.4012 419.274 703.4159 422.8195 703.1275 419.551"/></g><g id="ak"><polygon class="by" points="720.7075 427.3347 708.926 416.7286 710.4658 397.3581 724.4763 411.8975 720.7075 427.3347"/><polygon class="bp" points="720.7075 427.3347 708.926 416.7286 709.7131 406.8268 712.0988 413.6422 716.1862 410.8925 716.1136 419.7732 719.933 425.4118 721.7655 415.0329 720.4817 412.1431 720.3048 408.3952 724.4763 411.8975 720.7075 427.3347"/><polygon class="bs" points="717.7224 406.2975 716.8718 407.8959 717.9429 411.3869 714.8146 409.5337 712.5587 411.0591 710.5005 407.0527 710.4658 397.3581 719.1283 406.3476 717.7224 406.2975"/><polygon class="c`" points="716.7273 404.1038 715.904 406.9032 715.839 409.0402 713.7156 403.8439 711.3171 398.7714 714.4329 403.1625 715.5266 404.3965 716.7273 404.1038"/></g><g id="al"><polygon class="br" points="736.3314 390.7814 724.106 400.3524 741.2697 404.8089 743.841 401.6018 755.7807 398.3203 746.5742 394.2883 739.0407 390.2738 736.3314 390.7814"/><path class="bn" d="M735.6509,391.3142l.9988,.8414c.0741,.0624,.1583,.1055,.2453,.1257l3.7295,1.171-1.8663,.3508,1.4745,1.5354h0l.7998,2.292-5.2495,.064,.4385,.9979-.5098,.9426-1.9179,1.1303,3.4683,1.163-2.2413,1.2581,4.7898,1.2657,5.3435-5.7083,5.4829-.817-11.8591-7.0294-1.642-.2667-.8045,.1507-.6805,.5328Z"/><polygon class="bv" points="735.5932 393.5987 736.682 394.6048 737.992 394.296 736.9046 395.4817 734.3087 396.4511 728.653 399.6635 725.2092 400.1972 729.3681 397.7433 734.4445 393.007 735.5932 393.5987"/><polygon class="bw" points="736.3314 390.7814 738.9187 391.4608 741.7714 393.0153 741.8091 393.8328 743.8582 394.5685 745.3362 395.3196 745.3362 395.3196 747.6404 397.089 747.7875 397.0631 747.6404 397.089 745.05 397.7292 744.0073 397.623 742.2205 397.0717 741.6768 398.1405 741.6768 398.1405 737.9692 398.4591 736.8102 400.578 738.9643 401.5923 736.4111 403.5473 741.2697 404.8089 743.841 401.6018 755.7807 398.3203 739.0407 390.2738 736.3314 390.7814"/></g><g id="am"><polygon class="bn" points="737.2415 370.6552 720.5345 379.5664 738.8424 386.1554 743.8155 382.4531 756.7154 379.9404 737.2415 370.6552"/><polygon class="br" points="735.5501 372.2011 736.9354 373.1414 738.2863 374.9756 743.0491 377.5617 742.0394 378.6682 737.2493 378.499 729.4373 378.7047 731.8698 380.8404 736.1313 382.7708 737.4579 385.6571 720.5345 379.5664 735.5093 371.5791 735.5501 372.2011"/><polygon class="bw" points="756.7154 379.9404 755.3403 380.2083 743.8155 382.4531 748.6914 380.3873 744.7247 377.4054 735.9307 371.3544 737.2415 370.6552 756.7154 379.9404"/><polygon class="bw" points="731.4748 379.6089 737.6028 379.5696 741.0377 380.6751 745.7111 380.4804 746.367 379.6522 747.7306 379.665 748.6914 380.3873 743.8155 382.4531 738.8424 386.1554 736.1305 381.7677 731.4748 379.6089"/><polygon class="bv" points="733.3259 373.8377 736.6979 374.9032 737.6779 376.1441 732.1436 375.7822 722.7838 379.4469 721.6111 379.4819 733.3259 373.8377"/></g><g id="an"><polygon class="bq" points="593.6225 412.0721 580.9869 397.2557 574.5389 418.2906 579.6027 422.3928 583.9386 435.1147 593.6225 412.0721"/><polygon class="bo" points="591.5444 410.761 590.5084 412.4822 588.3597 414.4299 585.6003 420.1579 584.1319 419.4292 583.8895 414.3818 582.8968 406.2915 580.4761 409.4562 578.483 414.4688 575.0265 416.6998 580.9869 397.2557 592.3124 410.5359 591.5444 410.761"/><polygon class="bm" points="583.9386 435.1147 583.4764 433.7586 579.6027 422.3928 582.6266 426.8739 585.9524 421.8604 592.6311 410.9096 593.6225 412.0721 583.9386 435.1147"/><polygon class="bm" points="582.0684 411.255 582.5944 415.0647 581.5468 418.973 582.2297 423.7918 583.3194 424.2331 583.4321 425.6596 582.6266 426.8739 579.6027 422.3928 574.5389 418.2906 579.7278 414.1737 582.0684 411.255"/><polygon class="bu" points="589.3035 408.9206 588.2996 412.7514 586.8523 414.1379 586.7789 408.2576 581.3476 399.5674 581.1934 398.3542 589.3035 408.9206"/></g><g><polyline class="by" points="569.1111 414.1522 558.5362 425.3824 554.8167 410.7933"/><polyline class="bq" points="554.8167 410.7933 565.6482 395.1763 569.1111 414.1522"/><polyline class="bm" points="569.1111 414.1522 558.5362 425.3824 554.8167 410.7933"/><polyline class="bm" points="554.8167 410.7933 560.3535 402.8102 558.7803 409.7051 563.2751 409.3387 558.7934 416.8014 558.9026 423.3885 565.4763 415.5027 565.9353 412.449 567.668 409.2003 569.1111 414.1522"/><polygon class="bo" points="566.7396 406.1941 565.2927 407.1368 564.3716 410.5963 562.9039 407.5355 560.4192 407.7443 560.8429 403.3775 565.6482 395.1763 567.7893 406.9089 566.7396 406.1941"/><polygon class="bu" points="567.0723 403.8662 565.0477 405.8358 563.933 407.6089 564.8997 402.2064 565.5945 396.7768 565.7877 401.9742 566.0086 403.539 567.0723 403.8662"/></g><g id="ao"><polygon class="bq" points="551.3265 434.3414 543.8738 418.5427 549.6186 395.5527 558.0384 416.6661 551.3265 434.3414"/><polygon class="bm" points="551.3265 434.3414 543.8738 418.5427 546.8104 406.7907 547.2467 415.6241 551.31 413.3446 549.2079 424.0457 551.1183 431.8232 555.0421 419.7613 554.6286 415.9466 555.3415 411.3777 558.0384 416.6661 551.3265 434.3414"/><polygon class="bo" points="553.6558 408.1888 552.5743 409.9019 552.6711 414.3882 550.4709 411.3556 548.2265 412.6231 547.4195 407.2636 549.6186 395.5527 554.8245 408.6069 553.6558 408.1888"/><polygon class="bu" points="553.3246 405.2878 551.99 408.4575 551.4443 411.0205 550.8561 404.2082 550.0084 397.4753 551.6149 403.5681 552.2493 405.3357 553.3246 405.2878"/></g><g id="ap"><polygon class="bn" points="495.5077 417.8364 493.0051 399.0674 480.4271 413.9129 482.1555 419.867 479.9959 432.8308 495.5077 417.8364"/><polygon class="br" points="494.6513 415.7109 493.2858 416.6797 491.0948 417.3035 487.0059 420.8604 486.3225 419.5275 488.1569 415.0992 490.6975 407.709 487.8457 409.2406 484.5463 412.5573 481.3783 412.7902 493.0051 399.0674 495.2483 415.8903 494.6513 415.7109"/><polygon class="bw" points="479.9959 432.8308 480.2261 431.4488 482.1555 419.867 482.3847 425.1575 486.566 422.4848 495.3114 416.3637 495.5077 417.8364 479.9959 432.8308"/><polygon class="bw" points="489.1376 409.3014 487.0303 415.0558 484.7929 417.8869 483.3402 422.333 483.8866 423.2372 483.3975 424.5101 482.3847 425.1575 482.1555 419.867 480.4271 413.9129 485.4863 412.9076 489.1376 409.3014"/><polygon class="bv" points="493.8963 413.0547 491.7184 415.8407 490.2131 416.3246 492.4884 411.2668 492.3301 401.2164 492.7076 400.1055 493.8963 413.0547"/></g><g id="aq"><polygon class="br" points="546.9006 415.4195 529.2639 384.5807 515.8313 420.2254 520.663 424.6483 516.4754 448.0402 541.6618 429.7246 540.4765 437.9904 547.3272 422.8881 546.9006 415.4195"/><polygon class="bn" points="516.4754 448.0402 516.8096 447.7972 541.6618 429.7246 540.4765 437.9904 547.3272 422.8881 542.7612 418.0373 535.4176 411.8365 533.1617 419.0062 527.273 427.1214 523.9142 417.2243 524.8485 396.2973 515.8313 420.2254 520.7446 425.5828 516.4754 448.0402"/><path class="bw" d="M516.4754,448.0402l4.061-22.6845-3.1039-5.6086,2.9021-7.1429,3.0363,10.6449-1.6405,11.9517,3.8223-2.5822c.7058-.4768,1.6808,.066,1.5789,.8791l-.447,3.5643,7.5344-10.7039,2.3078-10.4908,5.3985,3.5636,4.0522,6.4331-5.5008,12.1265,1.0049-7.9525-25.006,18.0023Z"/><polygon class="bv" points="544.9517 415.3004 529.5847 386.8248 527.943 393.5075 542.365 415.2129 545.9893 419.768 544.9517 415.3004"/></g><g id="ar"><polygon class="by" points="460.9266 423.5252 461.7174 405.1561 480.2571 392.7779 477.5862 415.9943 460.9266 423.5252"/><polygon class="bp" points="460.9266 423.5252 461.7174 405.1561 471.1944 398.8286 474.145 398.6561 474.5541 408.1516 465.0955 416.3637 462.0795 421.445 472.7602 415.7377 474.4039 412.5014 477.6389 409.6704 477.5862 415.9943 460.9266 423.5252"/><polygon class="bs" points="477.6083 405.8057 475.542 406.1628 475.0127 408.2293 475.3567 404.3313 474.88 398.3121 474.5541 397.6815 480.2571 392.7779 478.6057 407.1323 477.6083 405.8057"/><polygon class="c`" points="478.8408 403.3302 476.6178 404.5032 475.586 405.3057 476.8412 400.3799 479.6188 394.5659 477.9851 400.5533 477.6877 402.4361 478.8408 403.3302"/></g><g id="as"><polygon class="bs" points="474.145 401.7012 465.1318 378.2703 452.8762 402.5461 455.7124 406.0976 450.7722 422.4127 469.3284 411.4563 465.1529 413.5605 473.7501 407.0566 474.145 401.7012"/><polygon class="by" points="450.7722 422.4127 451.0185 422.2673 469.3284 411.4563 463.7197 414.4204 473.7501 407.0566 471.131 403.2224 466.7728 398.196 464.6067 403.1159 459.9187 408.4078 458.5691 401.0792 461.1033 386.2499 452.8762 402.5461 455.682 406.7701 450.7722 422.4127"/><path class="bp" d="M450.7722,422.4127l4.7908-15.8217-1.5697-4.2528,2.5969-4.8472,1.0652,7.8346-2.1895,8.3773,2.7981-1.5222c.5167-.2811,1.1209,.1865,.9784,.7572l-.6246,2.5019,6.0273-6.9994,2.5037-7.2813,3.2946,2.9864,2.1303,4.9188-5.7011,4.6681,2.3063-2.068-18.4067,10.7482Z"/><polygon class="c`" points="472.8492 401.4546 465.1423 379.8955 463.4324 384.5195 471.1229 401.1776 473.1375 404.7231 472.8492 401.4546"/></g><g id="at"><polygon class="bn" points="506.238 433.7483 499.0296 417.357 506.8816 400.3933 515.2526 418.5495 506.238 433.7483"/><polygon class="bw" points="506.238 433.7483 499.0296 417.357 499.8841 415.511 501.5672 415.2306 501.4075 418.2543 501.4075 418.2543 502.6921 419.287 503.6076 421.3546 504.7236 422.0426 505.2291 423.6396 506.1914 424.9957 506.1914 424.9957 507.5586 425.1151 508.0312 423.9165 509.6947 421.6775 509.6947 421.6775 511.7748 419.0314 512.8704 417.1531 513.7222 415.2301 515.2526 418.5495 506.238 433.7483"/><polygon class="br" points="512.5435 412.5769 511.1992 415.9288 509.5703 416.0993 508.0798 417.6929 506.3087 419.9977 506.0898 417.9871 504.9503 417.7248 505.1072 413.2332 501.8352 413.661 502.6988 409.4299 506.8816 400.3933 512.5435 412.5769"/><polygon class="bv" points="509.1173 406.4289 509.9986 411.1634 510.975 413.8917 509.5841 412.4999 507.7317 415.8724 508.3017 413.5778 508.8399 411.4111 508.9835 409.8569 507.236 404.2039 507.2362 401.9335 509.1173 406.4289"/></g><g id="au"><polygon class="bn" points="577.4602 453.4317 594.5429 458.7998 602.1397 475.8792 582.9631 470.2241 577.4602 453.4317"/><polygon class="bw" points="577.4602 453.4317 594.5429 458.7998 595.3696 460.6583 594.4723 462.1097 592.3018 459.9985 592.3018 459.9985 590.6787 460.2853 588.5198 459.6129 587.2671 459.9998 585.7324 459.3287 584.0781 459.16 584.0781 459.16 583.0879 460.1103 583.6789 461.2552 584.2686 463.9815 584.2686 463.9815 584.8904 467.2894 585.5826 469.3507 586.469 471.258 582.9631 470.2241 577.4602 453.4317"/><polygon class="br" points="589.242 472.118 587.6045 468.8991 588.5487 467.5609 588.3309 465.3899 587.7624 462.5392 589.4198 463.6984 590.3675 463.0135 593.6447 466.0892 595.4771 463.3449 598.0929 466.781 602.1397 475.8792 589.242 472.118"/><polygon class="bv" points="596.1251 473.5876 591.9816 471.1334 589.2853 470.0718 591.2486 469.9414 589.9301 466.3266 591.2818 468.2665 592.5581 470.0983 593.6332 471.2298 599.0384 473.6368 600.747 475.132 596.1251 473.5876"/></g><g id="av"><polygon class="bn" points="497.9986 435.7104 498.0485 456.6862 481.2003 474.0051 480.7185 450.6599 497.9986 435.7104"/><polygon class="bw" points="497.9986 435.7104 498.0485 456.6862 496.2151 458.5709 494.2222 458.4118 495.8569 454.9694 495.8569 454.9694 494.9371 453.4098 494.924 450.7621 494.0241 449.6485 494.2364 447.6613 493.8284 445.821 493.8284 445.821 492.377 445.2912 491.2773 446.5386 488.3614 448.6446 488.3614 448.6446 484.7893 451.1009 482.6742 452.9537 480.8066 454.928 480.7185 450.6599 497.9986 435.7104"/><polygon class="br" points="480.8278 458.3267 483.9282 454.8452 485.8082 455.1154 488.2219 453.7044 491.2883 451.5532 490.5601 453.9355 491.6913 454.5647 489.3517 459.7013 493.1693 460.1457 490.1753 464.7793 481.2003 474.0051 480.8278 458.3267"/><polygon class="bv" points="481.6439 466.4014 482.9548 460.6869 483.193 457.2595 484.0569 459.2638 487.728 455.9042 485.9922 458.388 484.3531 460.7333 483.4449 462.4851 482.6471 469.5074 481.5518 472.1266 481.6439 466.4014"/></g><g><polyline class="br" points="618.474 434.3414 604.4404 458.4238 609.7057 483.1434 612.8931 487.0323 625.289 463.5129 618.474 434.3414"/><polyline class="bn" points="618.474 434.3414 604.9375 458.3384 611.1804 456.8119 617.7379 465.6294 614.5157 482.8478 622.2313 468.2437 625.289 463.5129 618.474 434.3414"/><polygon class="bv" points="613.0962 484.6079 612.2859 475.5918 614.4698 465.4364 610.7386 458.3736 606.0476 459.3664 610.2125 482.7516 612.5986 485.8912 613.0962 484.6079"/><polyline class="bw" points="618.474 434.3414 618.11 450.3461 615.1484 458.5219 621.5674 459.1709 625.289 463.5129 618.474 434.3414"/><polygon class="bw" points="617.3986 436.2349 615.1156 451.3098 607.4973 453.8006 617.3986 436.2349"/><polyline class="br" points="610.4724 385.3249 631.304 358.7043 631.212 328.9635 628.622 323.9949 609.7073 350.1541 610.4724 385.3249"/><polyline class="bn" points="610.4724 385.3249 630.7417 358.7437 623.5769 359.7737 618.4354 348.5904 625.8931 328.7207 614.1281 344.9616 609.7073 350.1541 610.4724 385.3249"/><polygon class="bv" points="627.8456 326.8234 626.6671 337.5346 621.9592 349.219 624.4165 357.9899 629.765 357.3975 630.5691 329.3624 628.6825 325.3742 627.8456 326.8234"/><polyline class="bw" points="610.4724 385.3249 614.532 366.5327 619.6361 357.2738 612.7767 355.7215 609.7073 350.1541 610.4724 385.3249"/><polygon class="bw" points="612.0798 383.2284 618.0217 365.7661 626.9088 363.7702 612.0798 383.2284"/></g><g id="aw"><polygon class="by" points="654.2517 461.7625 653.9432 492.6141 631.1555 509.3949 630.9299 474.839 654.2517 461.7625"/><polygon class="bp" points="654.2517 461.7625 653.9432 492.6141 651.4635 494.4401 648.8075 493.1808 651.05 488.9631 651.05 488.9631 649.8507 486.1978 649.8805 482.3 649.8805 482.3 649.0187 477.3892 648.5071 474.4747 648.5071 474.4747 646.5803 472.9492 645.0908 474.2164 641.9443 478.5753 641.9443 478.5753 636.3532 477.5821 633.4982 479.2165 630.9711 481.1566 630.9299 474.839 654.2517 461.7625"/><polygon class="bs" points="630.9387 486.1623 635.1374 482.6415 637.6408 484.0061 640.8862 483.1747 645.0159 481.5914 644.0018 484.7177 645.4996 486.2245 642.2865 492.5693 647.3718 495.1871 643.2945 500.4557 631.1555 509.3949 630.9387 486.1623"/><polygon class="bx" points="631.8832 498.4488 633.7343 490.7255 634.1134 485.8113 635.2301 489.2014 640.188 486.1534 637.8277 488.9102 635.599 491.5133 634.3561 493.6204 633.1661 503.5298 631.6579 506.8151 631.8832 498.4488"/></g><g id="ax"><polygon class="br" points="566.6989 443.0281 565.7053 480.4913 585.1365 506.9989 590.6462 509.7362 590.2548 473.9442 566.6989 443.0281"/><polygon class="bn" points="566.174 480.0868 571.8027 474.4607 583.599 481.0739 589.9706 503.7221 589.7468 481.4863 590.2548 473.9442 566.6989 443.0281 566.174 480.0868"/><polygon class="bv" points="589.4884 506.6994 583.5554 496.3569 580.0922 482.8268 572.2252 476.6057 567.9085 480.6479 585.4422 506.2202 589.6956 508.5438 589.4884 506.6994"/><polygon class="bw" points="566.6989 443.0281 575.3568 462.4819 576.8937 474.1055 583.934 470.9868 590.2548 473.9442 566.6989 443.0281"/><polygon class="bw" points="566.6498 445.9567 572.7876 465.4588 566.2732 473.079 566.6498 445.9567"/></g><g id="ay"><polygon class="by" points="668.4303 429.2871 663.6555 415.5376 672.604 399.3194 677.5094 417.3424 668.4303 429.2871"/><polygon class="bp" points="668.4303 429.2871 663.6555 415.5376 668.2298 407.2472 667.3247 414.0827 671.5597 413.2726 667.9425 420.9523 668.608 427.3194 674.1746 419.0181 674.3498 416.0149 675.7173 412.6937 677.5094 417.3424 668.4303 429.2871"/><polygon class="bs" points="674.5796 409.877 673.2868 410.9363 672.7076 414.3793 671.0535 411.5643 668.713 412.0181 668.7426 407.747 672.604 399.3194 675.6369 410.4628 674.5796 409.877"/><polygon class="c`" points="674.6968 407.5893 672.9432 409.7014 672.0365 411.5311 672.4932 406.2021 672.6895 400.8745 673.3162 405.8874 673.6594 407.3802 674.6968 407.5893"/></g><g id="b`"><polygon class="bn" points="754.4154 359.9079 741.2708 364.3272 725.8816 355.6647 743.101 351.1598 754.4154 359.9079"/><polygon class="bw" points="754.4154 359.9079 741.2708 364.3272 733.4042 359.8992 739.9129 360.8224 739.1743 356.7849 746.4664 360.2966 752.541 359.7209 744.672 354.3484 741.8105 354.1545 738.6555 352.8231 743.101 351.1598 754.4154 359.9079"/><polygon class="br" points="735.9614 353.8802 736.9609 355.1201 740.2384 355.7025 737.5418 357.251 737.9559 359.4825 733.8846 359.4156 725.8816 355.6647 736.5282 352.8794 735.9614 353.8802"/><polygon class="bv" points="733.7816 353.748 735.781 355.4359 737.518 356.3154 732.4417 355.8324 727.3647 355.5974 732.1482 355.0464 733.574 354.7333 733.7816 353.748"/></g><g><polyline class="bo" points="765.3281 335.8718 780.4453 361.5074 783.1167 332.3006 770.6993 310.3688 766.9276 307.8837"/><polyline class="bq" points="765.3281 335.8718 780.4453 361.5074 783.1167 332.3006 778.4675 336.6287 770.4318 330.7201 767.0922 312.6248 766.0848 330.0112"/><polygon class="bu" points="767.591 310.329 771.2645 318.7826 773.0158 329.5711 778.2798 334.9264 781.5593 332.0397 770.4412 310.9579 767.5406 308.8751 767.591 310.329"/><polyline class="bm" points="765.3281 335.8718 780.4453 361.5074 775.3135 345.764 774.8311 336.5861 769.6646 338.5799 765.3281 335.8718"/><polygon class="bm" points="780.6338 359.2223 777.2953 343.5998 782.3243 338.056 780.6338 359.2223"/></g><g id="ba"><polygon class="bn" points="749.7808 671.4485 738.6884 646.3295 725.0547 672.1812 730.0119 679.7656 731.6887 698.7135 749.7808 671.4485"/><polygon class="br" points="747.6426 668.8396 745.9145 670.7504 742.7827 672.52 737.861 679.156 736.295 677.5798 737.4103 670.6567 738.47 659.317 734.6712 662.6228 730.8722 668.5995 726.0857 670.2262 738.6884 646.3295 748.6307 668.8441 747.6426 668.8396"/><polygon class="bw" points="731.6887 698.7135 731.5099 696.6937 730.0119 679.7656 732.4056 687.0418 737.8105 681.5998 748.9105 669.4777 749.7808 671.4485 731.6887 698.7135"/><polygon class="bw" points="736.6832 662.1764 735.6595 671.0593 733.3076 675.923 732.7868 682.7142 733.9766 683.7493 733.7148 685.7236 732.4056 687.0418 730.0119 679.7656 725.0547 672.1812 732.4542 668.7012 736.6832 662.1764"/><polygon class="bv" points="745.4559 665.4493 743.1782 670.2259 741.0479 671.5188 742.599 663.5373 738.4784 649.6008 738.6309 647.898 745.4559 665.4493"/></g><g id="bb"><polygon class="bn" points="765.5228 682.0585 754.4091 669.3146 758.3227 648.8445 771.3106 666.0542 765.5228 682.0585"/><polygon class="bw" points="765.5228 682.0585 754.4091 669.3146 756.4096 658.8507 758.1067 666.4091 762.7247 663.9739 761.5955 673.4357 764.9375 679.9136 768.0924 669.0681 767.087 665.8302 767.3455 661.8118 771.3106 666.0542 765.5228 682.0585"/><polygon class="br" points="764.8826 659.2605 763.7999 660.8617 764.5107 664.7149 761.4456 662.358 758.8958 663.7103 757.2097 659.1873 758.3227 648.8445 766.3529 659.485 764.8826 659.2605"/><polygon class="bv" points="764.0978 656.8001 762.9013 659.6853 762.5798 661.9564 760.9662 656.1566 759.049 650.4553 761.8002 655.5171 762.8023 656.9661 764.0978 656.8001"/></g><g id="bc"><polygon class="bq" points="420.4862 587.6582 436.3481 577.3942 458.7192 584.6152 437.5874 596.2754 420.4862 587.6582"/><polygon class="bm" points="420.4862 587.6582 436.3481 577.3942 447.7837 581.0854 439.0748 581.8417 441.1434 587.2238 430.7058 584.6264 422.9725 587.3307 434.6707 592.3344 438.4413 591.7072 442.9056 592.5695 437.5874 596.2754 420.4862 587.6582"/><polygon class="bo" points="446.115 590.2554 444.4761 588.8447 440.0583 589.0622 443.136 586.064 441.9852 583.0913 447.2924 581.9083 458.7192 584.6152 445.6537 591.8245 446.115 590.2554"/><polygon class="bu" points="448.9832 589.7561 445.9221 588.0359 443.424 587.3575 450.1511 586.438 456.8111 585.1736 450.7483 587.4389 448.9821 588.321 448.9832 589.7561"/></g><g id="bd"><polygon class="br" points="426.6061 618.373 446.9191 623.3034 463.4541 613.0872 465.5377 609.6477 445.987 605.8498 426.6061 618.373"/><polygon class="bn" points="446.749 622.9384 444.2869 618.4683 449.1583 611.1898 462.1872 609.4247 450.0433 607.0521 445.987 605.8498 426.6061 618.373 446.749 622.9384"/><polygon class="bv" points="463.7582 610.091 457.4838 612.9549 449.7372 613.7759 445.5014 618.4243 447.2411 621.8215 463.0625 612.7907 464.7857 610.1594 463.7582 610.091"/><polygon class="bw" points="426.6061 618.373 438.1394 614.6889 444.64 614.9626 443.6962 609.8164 445.987 605.8498 426.6061 618.373"/><polygon class="bw" points="428.1972 618.739 439.4861 616.7756 442.94 622.0751 428.1972 618.739"/></g><g id="be"><polygon class="bn" points="435.4752 640.357 449.0219 632.2525 466.5855 639.76 448.6811 648.7993 435.4752 640.357"/><polygon class="bw" points="435.4752 640.357 449.0219 632.2525 458 636.0902 450.9091 636.2812 452.198 641.0903 443.9486 638.2612 437.5075 640.205 446.6045 645.2024 449.6959 644.858 453.2419 645.8511 448.6811 648.7993 435.4752 640.357"/><polygon class="br" points="455.9998 644.0041 454.7757 642.6846 451.1905 642.6365 453.8906 640.1853 453.172 637.5287 457.5445 636.7819 466.5855 639.76 455.5154 645.3489 455.9998 644.0041"/><polygon class="bv" points="458.3528 643.7228 456.0016 642.0565 454.0313 641.3298 459.5325 640.8896 465.0039 640.1447 459.9439 641.7953 458.454 642.4701 458.3528 643.7228"/></g><g id="bf"><polygon class="by" points="703.4941 676.5554 702.2458 659.2576 718.1387 645.113 718.163 667.2063 703.4941 676.5554"/><polygon class="bp" points="703.4941 676.5554 702.2458 659.2576 710.3699 652.0272 707.0854 659.2191 712.3908 660.1388 705.6036 667.1028 704.3409 674.4495 713.6505 667.6331 714.8286 664.3777 717.5293 661.2816 718.163 667.2063 703.4941 676.5554"/><polygon class="bs" points="717.0837 657.6695 715.2019 658.2892 713.4007 661.8589 712.3394 658.027 709.4054 657.5255 710.8195 652.8016 718.1387 645.113 718.1538 658.773 717.0837 657.6695"/><polygon class="c`" points="717.9617 655.1828 715.1914 656.7723 713.5208 658.4121 715.785 652.6984 717.7386 646.8743 716.8668 652.7026 716.7936 654.5055 717.9617 655.1828"/></g><g id="bg"><polygon class="by" points="640.1756 691.4637 624.0829 664.4896 634.0499 633.1527 652.5474 662.9448 640.1756 691.4637"/><polygon class="bp" points="640.1756 691.4637 624.0829 664.4896 625.1675 661.0795 628.0329 660.2145 628.412 665.5232 628.412 665.5232 630.8697 667.037 632.9105 670.4382 632.9105 670.4382 636.2259 674.0606 638.1937 676.2105 638.1937 676.2105 640.5966 676.1134 641.1578 673.9175 641.4521 667.8204 641.4521 667.8204 646.6055 664.5622 648.1023 661.0419 649.1656 657.4981 652.5474 662.9448 640.1756 691.4637"/><polygon class="bs" points="646.54 653.1345 644.9308 659.2803 642.136 659.9415 639.8906 663.0534 637.3119 667.4685 636.4946 664.011 634.4565 663.8083 633.7537 655.9403 628.1579 657.4174 628.7405 649.8458 634.0499 633.1527 646.54 653.1345"/><polygon class="bx" points="639.2478 643.1785 641.8084 651.2381 644.0986 655.7778 641.3781 653.6615 638.8901 659.9565 639.3826 655.8277 639.8477 651.9289 639.7599 649.1865 635.4938 639.7188 635.001 635.7594 639.2478 643.1785"/></g><g id="bh"><polygon class="bq" points="606.0657 690.5261 593.4824 676.4332 597.1738 653.2172 611.9478 672.3023 606.0657 690.5261"/><polygon class="bm" points="606.0657 690.5261 593.4824 676.4332 595.3693 664.5657 597.4571 673.0544 602.4567 670.1821 601.497 680.895 605.3593 688.1199 608.5027 675.7909 607.3026 672.1618 607.4674 667.6179 611.9478 672.3023 606.0657 690.5261"/><polygon class="bo" points="604.6869 664.803 603.5453 666.6396 604.4402 670.9712 601.004 668.3917 598.2438 669.9863 596.258 664.9245 597.1738 653.2172 606.3084 665.0173 604.6869 664.803"/><polygon class="bu" points="603.7521 662.0459 602.5236 665.3353 602.2377 667.908 600.2937 661.4026 598.0193 655.0166 601.1907 660.6585 602.3342 662.2678 603.7521 662.0459"/></g><g id="bi"><polygon class="bq" points="339.1597 680.7716 334.6677 662.4204 348.8284 643.6565 352.9104 667.444 339.1597 680.7716"/><polygon class="bm" points="339.1597 680.7716 334.6677 662.4204 341.9063 652.8287 339.7635 661.3036 345.5264 661.1153 339.6486 670.1231 339.666 678.3156 348.2307 668.9063 348.8752 665.1387 351.1544 661.2044 352.9104 667.444 339.1597 680.7716"/><polygon class="bo" points="350.0213 657.4134 348.151 658.4988 346.9071 662.7434 345.0846 658.8524 341.8988 658.9643 342.5225 653.5627 348.8284 643.6565 351.3523 658.364 350.0213 657.4134"/><polygon class="bu" points="350.4906 654.5402 347.8614 656.8675 346.4009 659.0047 347.7393 652.3484 348.7299 645.6421 348.8807 652.1126 349.1346 654.0704 350.4906 654.5402"/></g><g><polyline class="bo" points="258.9945 664.6711 258.6342 694.4299 276.0579 670.8378 276.8071 645.6458 274.8699 641.5656"/><polyline class="bq" points="258.9945 664.6711 258.6342 694.4299 276.0579 670.8378 269.8385 672.1291 266.0294 662.911 272.5531 645.7054 262.6794 660.0515"/><polygon class="bu" points="274.1697 644.0007 272.9293 653.134 268.8347 663.2678 270.5605 670.576 274.8613 669.8074 276.281 646.0158 274.8802 642.7311 274.1697 644.0007"/><polyline class="bm" points="258.9945 664.6711 258.6342 694.4299 262.4061 678.3065 266.751 670.2078 261.2992 669.2348 258.9945 664.6711"/><polygon class="bm" points="259.9799 692.5735 265.2227 677.483 272.397 675.3489 259.9799 692.5735"/></g><g id="bj"><polygon class="bo" points="305.2338 667.4583 288.0612 649.1459 285.8487 676.2497 289.8135 678.4718 291.3803 695.4463 304.4451 678.309 305.1908 684.2554 306.8846 672.5682 305.2338 667.4583"/><polygon class="bq" points="291.3803 695.4463 291.5537 695.2189 304.4451 678.309 305.1908 684.2554 306.924 672.2961 303.0145 670.0024 297.0844 666.987 296.9303 672.3605 294.58 679.0282 290.5701 672.7471 287.3339 658.055 285.8487 676.2497 290.0384 679.1063 291.3803 695.4463"/><path class="bm" d="M291.3803,695.4463l-1.5195-16.4611-3.0555-3.3487,.5806-5.4683,3.9369,6.8568,1.1261,8.5852,2.019-2.4638c.3728-.455,1.1086-.2493,1.1915,.333l.3634,2.5529,2.9481-8.7538-.4224-7.6881,4.1766,1.5261,3.8257,3.7546-1.36,9.3843-.8059-5.6973-13.0046,16.8881Z"/><polygon class="bu" points="298.6242 661.3758 288.6829 650.6475 288.84 655.575 296.6781 660.7124 296.3666 665.3312 298.6242 661.3758"/></g><g id="bk"><polygon class="bs" points="376.8838 654.5091 358.1191 637.8319 358.3771 665.0246 362.5273 666.8776 365.6292 683.6396 377.0836 665.3866 378.3663 671.2408 378.9918 659.448 376.8838 654.5091"/><polygon class="by" points="365.6292 683.6396 365.7812 683.3974 377.0836 665.3866 378.3663 671.2408 378.9918 659.448 374.9047 657.2443 368.7252 654.7799 369.0597 660.1451 367.3247 666.9987 362.761 661.1078 358.2039 646.7703 358.3771 665.0246 362.809 667.4889 365.6292 683.6396"/><path class="bp" d="M365.6292,683.6396l-3.0081-16.2551-3.347-3.0573,.0816-5.4985,4.5433,6.471,1.9011,8.4475,1.7869-2.6369c.33-.4869,1.0814-.3489,1.2169,.2235l.5937,2.5094,2.1409-8.9853-1.1188-7.618,4.298,1.1405,4.1508,3.3916-.5022,9.469-1.3199-5.6005-11.4172,17.9993Z"/><polygon class="c`" points="375.6194 654.885 358.8746 639.2709 359.4785 644.1637 373.9586 655.4315 377.3762 657.6562 375.6194 654.885"/></g><g id="bl"><polygon class="br" points="825.6461 673.9502 814.584 656.2777 807.6218 678.312 811.4494 682.2143 814.6281 698.5326 820.4261 686.9682 826.0695 677.6164 825.6461 673.9502"/><path class="bn" d="M825.0303,672.9665l-1.1368,1.1919c-.0843,.0884-.1452,.1932-.1774,.3053l-1.7676,4.7564-.2931-2.5255-2.0469,1.7141h0l-2.9445,.7033,.3356-6.9606-1.2891,.4257-1.1444-.8212-1.2688-2.7148-1.7368,4.4117-1.4039-3.1629-1.9707,6.1456,6.752,7.9611,.5924,7.3866,9.7761-14.6115,.4654-2.1328-.1257-1.0886-.6158-.9837Z"/><polygon class="bv" points="822.1632 672.5356 820.8122 673.821 821.0966 675.6035 819.6923 673.9797 818.6794 670.3922 815.0895 662.405 814.6917 657.7624 817.4467 663.6499 822.998 671.1065 822.1632 672.5356"/><polygon class="bw" points="825.6461 673.9502 824.5871 677.2706 822.407 680.8066 821.3763 680.7296 820.2891 683.3285 819.2279 685.169 819.2279 685.169 816.821 687.9453 816.8419 688.1441 816.821 687.9453 816.2215 684.416 816.4377 683.0519 817.2723 680.7716 815.9719 679.8859 815.9719 679.8859 815.8652 674.9274 813.2935 673.0639 811.8478 675.7586 809.5926 672.0746 807.6218 678.312 811.4494 682.2143 814.6281 698.5326 826.0695 677.6164 825.6461 673.9502"/></g></g></svg>