<?xml version="1.0" encoding="UTF-8"?><svg id="a" xmlns="http://www.w3.org/2000/svg" xmlns:xlink="http://www.w3.org/1999/xlink" viewBox="0 0 1044.7802 1000"><defs><style>.e{fill:#152134;}.f{fill:#1d2b3f;}.g{fill:url(#d);}.h{fill:none;}</style><pattern id="d" x="0" y="0" width="141.2488" height="152.6299" patternTransform="translate(0 1000)" patternUnits="userSpaceOnUse" viewBox="0 0 141.2488 152.6299"><g><rect class="h" x="0" y="0" width="141.2488" height="152.6299"/><polygon class="f" points="4.4331 75.9675 46.1656 34.235 35.7707 70.0057 0 108.2222 4.4331 75.9675"/><polygon class="f" points="63.1338 47.5343 94.6242 68.6299 71.6943 110.5152 63.1338 47.5343"/><polygon class="f" points="138.6497 43.1383 132.5351 18.0682 117.2484 22.3484 138.6497 43.1383"/><polygon class="f" points="138.6497 88.1968 103.0319 145.1876 138.6497 129.4707 138.6497 88.1968"/><polygon class="f" points="87.5924 22.4643 118.4714 47.5343 118.4714 84.528 87.5924 22.4643"/><polygon class="f" points="34.6242 6.8534 5.0446 36.0879 64.051 9.9107 34.6242 6.8534"/><polygon class="f" points="13.7721 116.3242 47.2215 101.0375 33.6447 125.4961 3.2243 137.7254 13.7721 116.3242"/><polygon class="f" points="54.5733 35.6108 68.637 12.0694 72.6115 31.942 54.5733 35.6108"/><polygon class="f" points="77.031 123.9675 115.414 102.5662 111.7452 120.9101 77.031 123.9675"/><polygon class="f" points="94.6242 94.1585 121.758 88.1968 119.9236 94.1585 94.6242 94.1585"/><polygon class="f" points="103.0319 22.8711 135.7881 45.5989 103.1034 31.1049 103.0319 22.8711"/><polygon class="f" points="103.0319 19.407 141.2489 0 115.414 21.4707 103.0319 19.407"/><polygon class="f" points="91.6433 143.6108 53.5796 125.2668 84.9172 152.6299 91.6433 143.6108"/><polygon class="f" points="13.9108 42.6032 23.8472 31.5969 24.6115 42.6032 16.2038 54.6797 13.9108 42.6032"/><polygon class="f" points="23.0828 94.3114 36.5351 84.528 13.9108 110.5152 23.0828 94.3114"/><polygon class="f" points="49.3758 45.5989 54.5733 63.6371 43.414 72.8091 49.3758 45.5989"/><polygon class="f" points="41.5661 115.2541 58.8578 97.2825 77.3546 130.7602 41.5661 115.2541"/><polygon class="f" points="78.879 1.6745 98.293 5.3433 84.5351 17.5726 78.879 1.6745"/><polygon class="f" points="28.1465 144.2704 39.7643 132.9583 47.2215 147.9392 28.1465 144.2704"/><polygon class="f" points="48.9936 88.1968 57.4968 76.3978 57.4968 88.1968 48.9936 88.1968"/><polygon class="f" points="127.9491 51.9392 131.7898 72.8091 125.0637 88.1968 127.9491 51.9392"/><polygon class="f" points="80.121 43.1383 96.2225 51.9392 83.1784 49.1876 80.121 43.1383"/></g></pattern></defs><g id="b"><path class="e" d="M870.6045,30.6424s-9.3269,18.6537-5.7549,26.5915c3.572,7.9378,17.0662,31.9495-3.7704,70.0508-3.9689,6.1518,9.6741,37.4563,9.6741,37.4563l40.0361,63.5517,1.3395,59.5332,9.823,21.2831v33.3386l-130.3777-.7442-6.9952-20.539s-14.7345,11.4601-19.3483,10.716c-3.572,3.4232-8.3347,11.4601-24.2598,10.5671,0,0-12.3531,13.7671-2.679,62.6587,3.0511,1.2651-27.2364,12.2043-27.2364,12.2043,0,0-17.1654-10.9144-35.7199,0-5.9533,3.1751-53.7783-63.9982-53.7783-63.9982,0,0-11.5098-10.716-31.751,59.5332-3.572,.3969-54.8202,.2977-54.8202,.2977,0,0-27.5341,15.0321-55.6636-.5953-5.0603-4.6138-28.2783-36.3153-31.2549-83.3465,1.0418-2.679-72.4817,.893-72.4817,.893,0,0,6.9952,9.9718,30.9573,11.609,6.251,.4465,17.7111,13.6926,17.7111,13.6926,0,0,9.3765,23.7141,5.2092,30.7588,0,0-23.5156,35.4719-25.4504,35.4719h-138.1171l-44.5011-11.0136-31.1061-38.5478-15.0321,13.2461-1.0418,65.6354-10.5671,53.2822v12.3531l19.646,38.9943,11.0136-42.8143,5.2588-6.0525,10.5175-30.8581,13.8911-22.6226,12.7996,1.3891,20.2413,24.3094s21.0351-29.5682,31.0565-26.6907c4.3658,4.0681,11.609,26.3931,11.609,26.3931l3.8697,66.0819,23.0691,12.502,23.218-19.4971,15.4786-63.5517,10.1206-23.5156,23.218-.5953,11.0136,28.5759,.4465,19.1995,29.3201,.5953,15.3298-43.4592,27.9806-3.2743s35.2734,36.1664,38.1013,87.2162c-.5953,5.358,.7442,29.1713,.7442,29.1713l17.7111,27.0876,6.251,.7442,18.1576-28.2783v-65.04s12.2043-63.8494,58.7891-34.3804c6.8463,5.8045,28.5759,24.111,31.8503,38.9943-1.0418,3.8697-1.1907,6.5321-1.1907,7.5078s19.646,39.2258,19.646,39.2258l11.9066,.2977,11.4601-40.7803,6.9952-48.8172,34.8269,19.3483,9.2276,.4465,37.8036,57.4496,20.0925,54.0264,13.395-.893,23.8133-43.0127,29.7666,13.5438,28.1294-11.0136s21.2831,56.5566,21.7296,56.5566,0,79.1792,0,79.1792l-18.6041,172.3487-43.4592,48.0731h-50.4544l-14.6601-34.0828-6.0277,.2977-18.4553,33.7851h-49.0157l-24.3094-26.4427,1.0914-44.8484-17.7607-47.3289-11.3113,.893-3.572,63.7005-19.7452,54.0264h-31.751l-9.6245-10.2695-18.753-53.7783-7.0448,.3969-14.3872,42.0701-16.8677,13.1965-10.1206,.3969-17.2646-22.2257-.4961-61.8153-18.9845-22.8211-13.61,9.1284-5.9037,15.3794-6.6479,74.8134-73.6972,10.0958-25.8225-15.4042-21.5808,11.6834-37.7292-16.2228,.9674-60.6991-21.9281-15.5779-15.9747,22.0273,.1984,64.9904s-43.1616,15.8259-53.183,8.0866l-27.3605-13.0601-.0744-29.5062-14.6601-13.9159-15.4042,15.4042-.5209,31.627-27.9806,16.2972v17.9344h55.5147l3.4728,2.5054,3.4976-2.6294,99.7057,.124,14.9577,7.8882,15.4042-7.9626,37.1711-.0372s3.4232,3.4604,5.7301,2.493,4.6138-2.5674,4.6138-2.5674l94.7818,.0124,5.8541,33.6859,7.6401-33.5867,21.9529-.2232,8.6323,9.9718,2.1581,1.0418,8.4835-10.9392,32.3712,.4465s17.86,42.4918,18.1576,42.6407,7.3672,3.8697,7.3672,3.8697l15.0321-46.8824,49.8591,.124,11.8074,34.43,.9922,3.9689,5.1595,.6946,.4961-8.4339,8.6323-30.6596h10.4183l6.0525,8.037,1.6868,.4961,7.0448-8.7315,73.6227-.0992s8.037,19.7452,8.3347,19.7452,6.251,.9922,5.9533,.9922,10.5175-20.3405,10.5175-20.3405l72.6801,.893,38.2501,40.0361,21.5808,6.9952,23.0691-31.9991s28.8736-44.9476,29.7666-44.9476-43.9057-37.8036-43.9057-37.8036l-9.9718-84.686,1.4883-198.9898,11.7578-31.9991-12.9485-33.3386,1.1162-316.3446,24.1358-35.4471-24.8551-35.2734,.5953-84.5372-52.5877-.1984-3.572-15.0817-8.5331,4.3658Z"/><g><path class="e" d="M870.6045,28.2362s-9.3269,18.6537-5.7549,26.5915c3.572,7.9378,17.0662,31.9495-3.7704,70.0508-3.9689,6.1518,9.6741,37.4563,9.6741,37.4563l40.0361,63.5517,1.3395,59.5332,9.823,21.2831v33.3386l-130.3777-.7442-6.9952-20.539s-14.7345,11.4601-19.3483,10.716c-3.572,3.4232-8.3347,11.4601-24.2598,10.5671,0,0-12.3531,13.7671-2.679,62.6587,3.0511,1.2651-27.2364,12.2043-27.2364,12.2043,0,0-17.1654-10.9144-35.7199,0-5.9533,3.1751-53.7783-63.9982-53.7783-63.9982,0,0-11.5098-10.716-31.751,59.5332-3.572,.3969-54.8202,.2977-54.8202,.2977,0,0-27.5341,15.0321-55.6636-.5953-5.0603-4.6138-28.2783-36.3153-31.2549-83.3465,1.0418-2.679-72.4817,.893-72.4817,.893,0,0,6.9952,9.9718,30.9573,11.609,6.251,.4465,17.7111,13.6926,17.7111,13.6926,0,0,9.3765,23.7141,5.2092,30.7588,0,0-23.5156,35.4719-25.4504,35.4719h-138.1171l-44.5011-11.0136-31.1061-38.5478-15.0321,13.2461-1.0418,65.6354-10.5671,53.2822v12.3531l19.646,38.9943,11.0136-42.8143,5.2588-6.0525,10.5175-30.8581,13.8911-22.6226,12.7996,1.3891,20.2413,24.3094s21.0351-29.5682,31.0565-26.6907c4.3658,4.0681,11.609,26.3931,11.609,26.3931l3.8697,66.0819,23.0691,12.502,23.218-19.4971,15.4786-63.5517,10.1206-23.5156,23.218-.5953,11.0136,28.5759,.4465,19.1995,29.3201,.5953,15.3298-43.4592,27.9806-3.2743s35.2734,36.1664,38.1013,87.2162c-.5953,5.358,.7442,29.1713,.7442,29.1713l17.7111,27.0876,6.251,.7442,18.1576-28.2783v-65.04s12.2043-63.8494,58.7891-34.3804c6.8463,5.8045,28.5759,24.111,31.8503,38.9943-1.0418,3.8697-1.1907,6.5321-1.1907,7.5078s19.646,39.2258,19.646,39.2258l11.9066,.2977,11.4601-40.7803,6.9952-48.8172,34.8269,19.3483,9.2276,.4465,37.8036,57.4496,20.0925,54.0264,13.395-.893,23.8133-43.0127,29.7666,13.5438,28.1294-11.0136s21.2831,56.5566,21.7296,56.5566,0,79.1792,0,79.1792l-18.6041,172.3487-43.4592,48.0731h-50.4544l-14.6601-34.0828-6.0277,.2977-18.4553,33.7851h-49.0157l-24.3094-26.4427,1.0914-44.8484-17.7607-47.3289-11.3113,.893-3.572,63.7005-19.7452,54.0264h-31.751l-9.6245-10.2695-18.753-53.7783-7.0448,.3969-14.3872,42.0701-16.8677,13.1965-10.1206,.3969-17.2646-22.2257-.4961-61.8153-18.9845-22.8211-13.61,9.1284-5.9037,15.3794-6.6479,74.8134-73.6972,10.0958-25.8225-15.4042-21.5808,11.6834-37.7292-16.2228,.9674-60.6991-21.9281-15.5779-15.9747,22.0273,.1984,64.9904s-43.1616,15.8259-53.183,8.0866l-27.3605-13.0601-.0744-29.5062-14.6601-13.9159-15.4042,15.4042-.5209,31.627-27.9806,16.2972v17.9344h55.5147l3.4728,2.5054,3.4976-2.6294,99.7057,.124,14.9577,7.8882,15.4042-7.9626,37.1711-.0372s3.4232,3.4604,5.7301,2.493,4.6138-2.5674,4.6138-2.5674l94.7818,.0124,5.8541,33.6859,7.6401-33.5867,21.9529-.2232,8.6323,9.9718,2.1581,1.0418,8.4835-10.9392,32.3712,.4465s17.86,42.4918,18.1576,42.6407,7.3672,3.8697,7.3672,3.8697l15.0321-46.8824,49.8591,.124,11.8074,34.43,.9922,3.9689,5.1595,.6946,.4961-8.4339,8.6323-30.6596h10.4183l6.0525,8.037,1.6868,.4961,7.0448-8.7315,73.6227-.0992s8.037,19.7452,8.3347,19.7452,6.251,.9922,5.9533,.9922,10.5175-20.3405,10.5175-20.3405l72.6801,.893,38.2501,40.0361,21.5808,6.9952,23.0691-31.9991s28.8736-44.9476,29.7666-44.9476-43.9057-37.8036-43.9057-37.8036l-9.9718-84.686,1.4883-198.9898,11.7578-31.9991-12.9485-33.3386,1.1162-316.3446,24.1358-35.4471-24.8551-35.2734,.5953-84.5372-52.5877-.1984-3.572-15.0817-8.5331,4.3658Z"/><path class="e" d="M76.5802,933.5876l5.9533-8.037,11.3113-.3969v-18.4677s-17.1158-24.4458-17.7111-24.545,0-132.4614,0-132.4614c0,0,2.2821-44.7491,45.7414-51.7939h61.4184s5.6557,15.8755,6.5487,16.1732,19.9436-14.5856,19.9436-14.5856l65.1889,11.0136,12.502,13.0973,19.646-19.3483,65.1889-6.3502,10.4183,25.1032-4.465,48.5196,11.3113,13.6926s14.288-14.8833,17.86-12.7996,2.3813-44.3522,2.3813-44.3522l11.9066-30.1635h51.1986v22.1265s15.7763,19.9436,16.6693,20.8366,22.9203-18.753,22.9203-18.753v-25.8969l22.6226,1.4883,19.3483,12.2043,19.3483,65.7842,11.609,4.465,13.0973-24.111-3.2743-18.753,12.2043-29.7666-2.9767-7.144,24.4086,9.2276,31.2549-12.2043,6.251,48.8172,16.967-5.0603,18.4553-39.8873,21.1343,8.037,45.2452-11.0136,16.3716,27.9806v68.4632l8.93,38.9943,10.1206,3.2743,11.0136-38.1013s10.4183-109.5411,12.502-112.8154-14.8833-11.9066-14.8833-11.9066l-.2977-10.4183-4.465-3.572-9.823-27.9806h-9.823l-11.9066,29.4689-33.6363,8.93-44.6499-19.0506-4.7627-41.9709-17.2646,2.9767-21.1343,46.1382s-51.4962,15.4786-79.4768,11.3113c-3.8697-1.786-14.5856-16.967-14.5856-16.967l-25.7977,1.786-17.2646,15.181-64.2959,.0992-8.1362-76.5994-4.7627-30.3619-23.8133-16.6693-26.7899,16.3716s-14.288,87.8115-23.218,91.9788c0,0-2.5302,12.2043-23.3668,9.6741-3.1255-.5953-14.4368-35.1246-14.4368-35.1246l-11.3113-12.502-10.8648,11.9066-9.9718,40.4826s-25.1528,8.1858-43.7569-7.144c.2977-2.8278,9.7238-59.5828,10.5175-59.7813s-20.2413-50.8017-20.2413-50.8017l-6.7471,2.3813-12.1051,26.5915,.3969,11.5098-19.4475,66.5284s-13.8415,14.4368-32.4456,11.4601c-3.8697-.4465-54.4729-.5953-54.4729-.5953l-15.7763-23.218-11.3113-39.8873s22.1265-29.3697,.4961-79.7745c-2.5798-2.9767,9.1284-140.6968,9.3269-140.1015s-12.7004-67.0741-12.7004-67.0741l44.4515-82.3543,39.0935,8.93,13.2958,38.895,17.4631-38.1013,46.039-11.5098,16.8677,22.4242s-6.3502,25.004,2.7782,61.5177c7.144,9.1284-4.7627,49.2141-4.7627,49.2141l28.5759,21.0351,45.8406-14.288-39.4904-17.2646s1.9844-76.2025,1.1907-76.5994,28.1791-26.9884,28.1791-26.9884l15.4786-56.1597-3.9689-19.2491,22.8211-22.4242h12.8989l27.1868,18.8522,31.9495-40.681,33.537,19.2491,27.7822-22.2257,74.8134-11.5098,57.3503,9.5253,97.8329-13.8911,29.9154,18.6041,34.2316,.7442s14.4368,10.1206,13.8415,10.4183,11.7578-12.3531,11.7578-12.3531l10.716-34.8269-11.7578-36.4641s2.0837-22.0273,2.0837-22.9203-10.4183-22.9203-10.4183-22.9203c0,0-5.358,4.1673-4.465,3.8697s-8.037,25.8969-8.037,25.8969l-735.2352,.5953V180.3436l-20.539,38.6966v33.0409l21.1343,33.0409,.5953,321.4794-11.609,40.4826,10.4183,35.4223-27.3853,14.288,28.2783,18.753,.5953,208.3663,10.1206,1.5876,3.9689,8.0866h3.0263Z"/><polygon class="e" points="689.8219 306.6532 716.2646 261.9041 739.7802 233.477 761.361 243.3 774.6072 233.477 790.83 230.5003 787.7045 215.1705 749.4544 184.0644 703.1177 199.0966 692.4017 194.1355 682.2811 195.3261 665.6118 178.4584 643.5845 202.0732 552.4987 202.4701 552.4987 193.3417 534.0434 180.6413 519.1601 193.1432 511.0239 194.3339 503.6814 200.0888 494.7514 200.0888 480.265 205.4468 472.3273 200.8826 452.6813 209.8125 441.7669 199.8903 432.44 214.7736 432.44 232.4352 474.907 247.7153 472.0296 255.0578 488.4012 312.805 509.5355 298.517 527.6932 317.8653 536.0278 333.6416 550.6134 323.8186 559.8411 297.9217 567.8781 262.7971 584.2497 228.5655 606.5747 242.5558 611.635 256.05 641.1039 233.6258 658.3686 233.0305 672.3589 243.1511 672.0612 263.6901 673.2519 274.7037 684.5632 297.624 686.6468 307.447 689.8219 306.6532"/></g><g id="c"><path class="g" d="M870.6045,28.2362s-9.3269,18.6537-5.7549,26.5915c3.572,7.9378,17.0662,31.9495-3.7704,70.0508-3.9689,6.1518,9.6741,37.4563,9.6741,37.4563l40.0361,63.5517,1.3395,59.5332,9.823,21.2831v33.3386l-130.3777-.7442-6.9952-20.539s-14.7345,11.4601-19.3483,10.716c-3.572,3.4232-8.3347,11.4601-24.2598,10.5671,0,0-12.3531,13.7671-2.679,62.6587,3.0511,1.2651-27.2364,12.2043-27.2364,12.2043,0,0-17.1654-10.9144-35.7199,0-5.9533,3.1751-53.7783-63.9982-53.7783-63.9982,0,0-11.5098-10.716-31.751,59.5332-3.572,.3969-54.8202,.2977-54.8202,.2977,0,0-27.5341,15.0321-55.6636-.5953-5.0603-4.6138-28.2783-36.3153-31.2549-83.3465,1.0418-2.679-72.4817,.893-72.4817,.893,0,0,6.9952,9.9718,30.9573,11.609,6.251,.4465,17.7111,13.6926,17.7111,13.6926,0,0,9.3765,23.7141,5.2092,30.7588,0,0-23.5156,35.4719-25.4504,35.4719h-138.1171l-44.5011-11.0136-31.1061-38.5478-15.0321,13.2461-1.0418,65.6354-10.5671,53.2822v12.3531l19.646,38.9943,11.0136-42.8143,5.2588-6.0525,10.5175-30.8581,13.8911-22.6226,12.7996,1.3891,20.2413,24.3094s21.0351-29.5682,31.0565-26.6907c4.3658,4.0681,11.609,26.3931,11.609,26.3931l3.8697,66.0819,23.0691,12.502,23.218-19.4971,15.4786-63.5517,10.1206-23.5156,23.218-.5953,11.0136,28.5759,.4465,19.1995,29.3201,.5953,15.3298-43.4592,27.9806-3.2743s35.2734,36.1664,38.1013,87.2162c-.5953,5.358,.7442,29.1713,.7442,29.1713l17.7111,27.0876,6.251,.7442,18.1576-28.2783v-65.04s12.2043-63.8494,58.7891-34.3804c6.8463,5.8045,28.5759,24.111,31.8503,38.9943-1.0418,3.8697-1.1907,6.5321-1.1907,7.5078s19.646,39.2258,19.646,39.2258l11.9066,.2977,11.4601-40.7803,6.9952-48.8172,34.8269,19.3483,9.2276,.4465,37.8036,57.4496,20.0925,54.0264,13.395-.893,23.8133-43.0127,29.7666,13.5438,28.1294-11.0136s21.2831,56.5566,21.7296,56.5566,0,79.1792,0,79.1792l-18.6041,172.3487-43.4592,48.0731h-50.4544l-14.6601-34.0828-6.0277,.2977-18.4553,33.7851h-49.0157l-24.3094-26.4427,1.0914-44.8484-17.7607-47.3289-11.3113,.893-3.572,63.7005-19.7452,54.0264h-31.751l-9.6245-10.2695-18.753-53.7783-7.0448,.3969-14.3872,42.0701-16.8677,13.1965-10.1206,.3969-17.2646-22.2257-.4961-61.8153-18.9845-22.8211-13.61,9.1284-5.9037,15.3794-6.6479,74.8134-73.6972,10.0958-25.8225-15.4042-21.5808,11.6834-37.7292-16.2228,.9674-60.6991-21.9281-15.5779-15.9747,22.0273,.1984,64.9904s-43.1616,15.8259-53.183,8.0866l-27.3605-13.0601-.0744-29.5062-14.6601-13.9159-15.4042,15.4042-.5209,31.627-27.9806,16.2972v17.9344h55.5147l3.4728,2.5054,3.4976-2.6294,99.7057,.124,14.9577,7.8882,15.4042-7.9626,37.1711-.0372s3.4232,3.4604,5.7301,2.493,4.6138-2.5674,4.6138-2.5674l94.7818,.0124,5.8541,33.6859,7.6401-33.5867,21.9529-.2232,8.6323,9.9718,2.1581,1.0418,8.4835-10.9392,32.3712,.4465s17.86,42.4918,18.1576,42.6407,7.3672,3.8697,7.3672,3.8697l15.0321-46.8824,49.8591,.124,11.8074,34.43,.9922,3.9689,5.1595,.6946,.4961-8.4339,8.6323-30.6596h10.4183l6.0525,8.037,1.6868,.4961,7.0448-8.7315,73.6227-.0992s8.037,19.7452,8.3347,19.7452,6.251,.9922,5.9533,.9922,10.5175-20.3405,10.5175-20.3405l72.6801,.893,38.2501,40.0361,21.5808,6.9952,23.0691-31.9991s28.8736-44.9476,29.7666-44.9476-43.9057-37.8036-43.9057-37.8036l-9.9718-84.686,1.4883-198.9898,11.7578-31.9991-12.9485-33.3386,1.1162-316.3446,24.1358-35.4471-24.8551-35.2734,.5953-84.5372-52.5877-.1984-3.572-15.0817-8.5331,4.3658Z"/><path class="g" d="M76.5802,933.5876l5.9533-8.037,11.3113-.3969v-18.4677s-17.1158-24.4458-17.7111-24.545,0-132.4614,0-132.4614c0,0,2.2821-44.7491,45.7414-51.7939h61.4184s5.6557,15.8755,6.5487,16.1732,19.9436-14.5856,19.9436-14.5856l65.1889,11.0136,12.502,13.0973,19.646-19.3483,65.1889-6.3502,10.4183,25.1032-4.465,48.5196,11.3113,13.6926s14.288-14.8833,17.86-12.7996,2.3813-44.3522,2.3813-44.3522l11.9066-30.1635h51.1986v22.1265s15.7763,19.9436,16.6693,20.8366,22.9203-18.753,22.9203-18.753v-25.8969l22.6226,1.4883,19.3483,12.2043,19.3483,65.7842,11.609,4.465,13.0973-24.111-3.2743-18.753,12.2043-29.7666-2.9767-7.144,24.4086,9.2276,31.2549-12.2043,6.251,48.8172,16.967-5.0603,18.4553-39.8873,21.1343,8.037,45.2452-11.0136,16.3716,27.9806v68.4632l8.93,38.9943,10.1206,3.2743,11.0136-38.1013s10.4183-109.5411,12.502-112.8154-14.8833-11.9066-14.8833-11.9066l-.2977-10.4183-4.465-3.572-9.823-27.9806h-9.823l-11.9066,29.4689-33.6363,8.93-44.6499-19.0506-4.7627-41.9709-17.2646,2.9767-21.1343,46.1382s-51.4962,15.4786-79.4768,11.3113c-3.8697-1.786-14.5856-16.967-14.5856-16.967l-25.7977,1.786-17.2646,15.181-64.2959,.0992-8.1362-76.5994-4.7627-30.3619-23.8133-16.6693-26.7899,16.3716s-14.288,87.8115-23.218,91.9788c0,0-2.5302,12.2043-23.3668,9.6741-3.1255-.5953-14.4368-35.1246-14.4368-35.1246l-11.3113-12.502-10.8648,11.9066-9.9718,40.4826s-25.1528,8.1858-43.7569-7.144c.2977-2.8278,9.7238-59.5828,10.5175-59.7813s-20.2413-50.8017-20.2413-50.8017l-6.7471,2.3813-12.1051,26.5915,.3969,11.5098-19.4475,66.5284s-13.8415,14.4368-32.4456,11.4601c-3.8697-.4465-54.4729-.5953-54.4729-.5953l-15.7763-23.218-11.3113-39.8873s22.1265-29.3697,.4961-79.7745c-2.5798-2.9767,9.1284-140.6968,9.3269-140.1015s-12.7004-67.0741-12.7004-67.0741l44.4515-82.3543,39.0935,8.93,13.2958,38.895,17.4631-38.1013,46.039-11.5098,16.8677,22.4242s-6.3502,25.004,2.7782,61.5177c7.144,9.1284-4.7627,49.2141-4.7627,49.2141l28.5759,21.0351,45.8406-14.288-39.4904-17.2646s1.9844-76.2025,1.1907-76.5994,28.1791-26.9884,28.1791-26.9884l15.4786-56.1597-3.9689-19.2491,22.8211-22.4242h12.8989l27.1868,18.8522,31.9495-40.681,33.537,19.2491,27.7822-22.2257,74.8134-11.5098,57.3503,9.5253,97.8329-13.8911,29.9154,18.6041,34.2316,.7442s14.4368,10.1206,13.8415,10.4183,11.7578-12.3531,11.7578-12.3531l10.716-34.8269-11.7578-36.4641s2.0837-22.0273,2.0837-22.9203-10.4183-22.9203-10.4183-22.9203c0,0-5.358,4.1673-4.465,3.8697s-8.037,25.8969-8.037,25.8969l-735.2352,.5953V180.3436l-20.539,38.6966v33.0409l21.1343,33.0409,.5953,321.4794-11.609,40.4826,10.4183,35.4223-27.3853,14.288,28.2783,18.753,.5953,208.3663,10.1206,1.5876,3.9689,8.0866h3.0263Z"/><polygon class="g" points="689.8219 306.6532 716.2646 261.9041 739.7802 233.477 761.361 243.3 774.6072 233.477 790.83 230.5003 787.7045 215.1705 749.4544 184.0644 703.1177 199.0966 692.4017 194.1355 682.2811 195.3261 665.6118 178.4584 643.5845 202.0732 552.4987 202.4701 552.4987 193.3417 534.0434 180.6413 519.1601 193.1432 511.0239 194.3339 503.6814 200.0888 494.7514 200.0888 480.265 205.4468 472.3273 200.8826 452.6813 209.8125 441.7669 199.8903 432.44 214.7736 432.44 232.4352 474.907 247.7153 472.0296 255.0578 488.4012 312.805 509.5355 298.517 527.6932 317.8653 536.0278 333.6416 550.6134 323.8186 559.8411 297.9217 567.8781 262.7971 584.2497 228.5655 606.5747 242.5558 611.635 256.05 641.1039 233.6258 658.3686 233.0305 672.3589 243.1511 672.0612 263.6901 673.2519 274.7037 684.5632 297.624 686.6468 307.447 689.8219 306.6532"/></g></g></svg>