<?xml version="1.0" encoding="UTF-8"?><svg xmlns="http://www.w3.org/2000/svg" viewBox="0 0 1044.8 1000"><defs><style>.d{fill:#454556;}.e{fill:#1c1c28;}.f{fill:#2a2a30;}.g{fill:#32323f;}.h{fill:#2f2f3d;}.i{fill:#333349;}.j{fill:#393951;}.k{fill:#282835;}.l{fill:#242433;}.m{fill:#4a4a60;}.n{fill:#2c2c42;}.o{fill:#2d2d3d;}.p{fill:#151521;}</style></defs><g id="a"><path class="f" d="M913.893,332.383l-.511-.494-.169-1.449,.35-2.673s-.021-1.03-.01-1.183,.361-1.49,.361-1.49l.35-1.336,.7-.445,1.401,.445,1.401,.891,2.101,1.336,.35,3.564v1.291c0,.936-.7,1.827-.7,1.827l-2.101-.445-3.523,.161Z"/><path class="o" d="M914.264,323.759l-.711,2.826,.01,1.183-.35,2.673,.169,1.449,.511,.494,3.293-.079-.471-1.419v-1.543c0-.207,.35-1.575,.35-1.575,0,0,.35-2.227,.442-2.034s-.642-1.095-.642-1.095l-.892-1.004-1.008-.321"/><path class="i" d="M914.195,324.035l.77,.169,1.051,.445s0,1.58,0,1.458-.91,1.532-.91,1.532l.56,1.909,.35,1.336h-.248l.248,1.4-2.122,.097-.33-1.052v-1.24l-.221-.639,.221-1.685v-1.336l.17-.63,.461-1.767Z"/><polygon class="i" points="915.665 325.541 916.366 328.659 915.665 329.955 914.679 330.194 914.615 326.432 915.665 325.541"/><path class="i" d="M920.218,328.832s-.35,.272-.7,.272-1.751,1.782-1.751,1.782l.35,.891,.435,.445,.268,.445,1.048,.445,.268-1.692,.37-1.228-.288-1.362Z"/><polygon class="n" points="918.117 326.877 917.993 327.083 916.946 328.832 917.066 330.441 917.416 331.777 917.416 332.222 918.117 332.668 918.951 332.724 918.117 330.886 918.117 329.104 919.518 328.659 919.868 327.322 919.518 325.986 918.407 326.38 918.117 326.877"/><polygon class="n" points="916.716 332.262 916.366 331.317 916.366 330.973 916.015 329.921 915.665 329.955 915.49 330.773 915.365 331.454 915.49 332.262 915.821 332.668 916.716 332.262"/><path class="j" d="M919.4,332.915l-.264-1.087-.729-1.158s1.321-.823,1.216-.749,.716,.827,.716,.827v1.08l-.471,1.494-.468-.407Z"/><path class="j" d="M918.117,324.204v1.495s.23,.184,.29,.681,.41,1.387,.41,1.387c0,0,1.094,0,1.248,.223,.153,.223,.854-.223,.854-.223l-.413-1.456-.638-.987-1.751-1.29"/><path class="j" d="M916.366,323.078s.649,1.549,.5,1.56,.601,.902,.576,.902,.887,.503,.887,.503l-.562-1.84s-.941-.471-.821-1.126-.58,0-.58,0Z"/><path class="m" d="M916.946,325.541l1.071-.518,.509,.964v.871l-.758,.991-.7,1.701s.154,1.033,.077,1.185,.499,.885,.499,.885v.603h-.696l-.23-1.782-.145-1.086,.375-1.488,.12-.99-.12-1.336Z"/><polygon class="m" points="915.795 323.313 916.571 325.022 917.053 324.882 916.571 323.589 915.795 323.313"/><polygon class="m" points="919.868 327.572 919.373 328.209 918.117 328.622 917.767 330.441 919.136 329.513 920.339 329.006 920.218 327.848 919.868 327.572"/><g><rect class="p" x="914.102" y="324.204" width=".7" height="8.148"/><rect class="e" x="914.102" y="324.204" width=".525" height="8.148"/><rect class="k" x="914.102" y="324.204" width=".35" height="8.148"/><rect class="g" x="914.102" y="324.204" width=".175" height="8.148"/></g><polygon class="o" points="914.965 324.204 914.679 324.415 914.364 324.806 914.264 325.095 914.102 325.712 914.051 326.044 913.914 326.432 913.564 326.432 913.654 326.097 913.933 325.022 914.051 324.168 914.195 324.035 914.885 324.168 914.965 324.204"/><polygon class="l" points="859.154 318.533 862.694 312.402 863.834 313.335 875.938 314.291 879.31 318.348 859.154 318.533"/><polygon class="h" points="860.179 316.757 863.134 316.137 861.47 318.533 859.154 318.533 860.179 316.757"/><polygon class="h" points="867.081 313.591 868.037 315.787 868.764 313.721 867.081 313.591"/><polygon class="h" points="871.889 316.487 875.041 315.086 874.251 316.487 871.889 316.487"/><polygon class="h" points="876.848 318.37 875.938 317.289 877.661 317.187 879.31 318.348 876.848 318.37"/><polygon class="h" points="868.523 317.103 870.663 314.979 870.12 317.165 868.613 318.446 868.523 317.103"/><polygon class="h" points="863.785 318.533 865.846 317.538 867.081 318.533 863.785 318.533"/><polygon class="h" points="863.484 313.685 865.433 316.487 866.177 314.47 865.552 313.453 863.834 313.335 863.484 313.048 863.484 313.685"/><polygon class="h" points="860.924 315.468 862.982 314.768 862.566 312.622 860.924 315.468"/><polygon class="h" points="871.684 313.955 871.333 315.787 874.173 314.151 871.684 313.955"/><polygon class="h" points="870.663 318.384 873.636 317.335 875.563 318.382 870.663 318.384"/><polygon class="h" points="877.836 316.487 875.563 316.713 876.072 314.451 877.836 316.487"/></g><g id="b"><polygon class="l" points="860.105 332.405 860.105 329.178 877.966 329.254 882.005 332.568 860.105 332.405"/><polygon class="l" points="851 339.76 860.105 332.055 907.384 332.405 917.765 332.055 917.765 333.217 870.612 333.456 860.806 333.456 852.494 340.294 851 339.76"/><polygon class="l" points="851.267 339.534 855.659 341.7 875.802 341.782 886.9 350.4 885.615 350.4 876.565 342.562 855.903 342.562 850.85 339.812 851.267 339.534"/><polygon class="l" points="883.128 333.043 884.382 333.724 907.444 333.724 907.444 332.919 883.128 333.043"/><polyline class="l" points="875.411 342.564 907.379 343.068 907.379 342.289 875.773 341.912"/><polyline class="l" points="879.193 340.294 907.379 340.552 907.379 339.76 879.032 339.76 878.53 339.76 875.703 341.953 876.092 342.096"/><rect class="d" x="881.468" y="332.055" width="36.422" height=".35"/><polygon class="d" points="881.468 332.055 877.966 328.903 860.105 328.903 860.105 329.178 877.784 329.376 881.468 332.405 881.468 332.055"/><polygon class="d" points="875.897 341.885 878.67 339.916 907.379 339.976 907.379 339.76 878.53 339.76 875.643 341.885 875.897 341.885"/><polygon class="d" points="876.565 342.562 875.46 341.782 875.802 341.782 886.9 350.4 907 350.4 907 350.634 886.841 350.551 876.565 342.562"/><polyline class="d" points="875.802 341.782 855.6 341.7 851.267 339.534 851 339.812 855.879 342.45 876.374 342.247"/><polygon class="d" points="851 339.76 860.105 332.055 881.602 332.055 881.602 332.405 860.322 332.428 851.227 339.856 851 339.76"/><polygon class="l" points="860.105 332.405 860.105 329.178 877.966 329.254 882.005 332.568 860.105 332.405"/><polygon class="l" points="851 339.76 860.105 332.055 907.384 332.405 917.765 332.055 917.765 333.217 870.612 333.456 860.806 333.456 852.494 340.294 851 339.76"/><polygon class="l" points="851.267 339.534 855.659 341.7 875.739 341.781 886.9 350.4 886.096 350.429 875.529 342.688 855.995 342.492 851 339.76 851.267 339.534"/><polygon class="l" points="882.737 333.043 884.012 333.724 907.444 333.724 907.444 332.919 882.737 333.043"/><polygon class="l" points="875.438 342.596 907.379 343.068 907.379 342.289 875.8 341.944 875.438 342.596"/><polygon class="l" points="878.316 340.811 879.193 340.294 907.379 340.552 907.379 339.76 879.032 339.76 878.53 339.76 875.773 341.912 876.092 342.096 878.316 340.811"/><rect class="d" x="881.468" y="332.055" width="36.422" height=".35"/><polygon class="d" points="881.468 332.055 877.966 328.903 860.105 328.903 860.105 329.178 877.784 329.376 881.468 332.405 881.468 332.055"/><polygon class="d" points="875.792 341.782 878.67 339.916 907.379 339.976 907.379 339.76 878.53 339.76 875.538 341.782 875.792 341.782"/><polygon class="d" points="876.565 342.562 875.46 341.782 875.802 341.782 886.9 350.4 907 350.4 907 350.65 886.803 350.618 876.565 342.562"/><polygon class="d" points="851 339.76 860.105 332.055 881.602 332.055 881.602 332.405 860.322 332.428 851.227 339.856 851 339.76"/><polyline class="d" points="851.267 339.534 850.894 339.897 855.905 342.688 876.915 342.688 875.802 341.782 855.682 341.7 851.267 339.534"/></g><g id="c"><g><rect class="p" x="908.8" y="323.6" width=".7" height="8.6"/><rect class="e" x="908.8" y="323.6" width=".525" height="8.6"/><rect class="k" x="908.8" y="323.6" width=".35" height="8.6"/><rect class="g" x="908.8" y="323.6" width=".175" height="8.6"/></g><g><polygon class="p" points="884.198 321.844 884.693 321.331 878.214 314.624 877.719 315.137 884.198 321.844"/><polygon class="e" points="884.198 321.844 884.569 321.459 878.09 314.752 877.719 315.137 884.198 321.844"/><polygon class="k" points="884.198 321.844 884.445 321.587 877.966 314.88 877.719 315.137 884.198 321.844"/><polygon class="g" points="884.198 321.844 884.321 321.715 877.842 315.009 877.719 315.137 884.198 321.844"/></g><g><polygon class="p" points="884.098 321.409 884.593 321.922 888.536 317.84 888.041 317.327 884.098 321.409"/><polygon class="e" points="884.098 321.409 884.469 321.793 888.412 317.711 888.041 317.327 884.098 321.409"/><polygon class="k" points="884.098 321.409 884.345 321.665 888.289 317.583 888.041 317.327 884.098 321.409"/><polygon class="g" points="884.098 321.409 884.222 321.537 888.165 317.455 888.041 317.327 884.098 321.409"/></g><g><polygon class="p" points="897.893 321.52 898.389 321.007 895.024 317.524 894.529 318.037 897.893 321.52"/><polygon class="e" points="897.893 321.52 898.265 321.136 894.9 317.652 894.529 318.037 897.893 321.52"/><polygon class="k" points="897.893 321.52 898.141 321.264 894.776 317.781 894.529 318.037 897.893 321.52"/><polygon class="g" points="897.893 321.52 898.017 321.392 894.653 317.909 894.529 318.037 897.893 321.52"/></g><g><polygon class="p" points="897.794 321.085 898.289 321.598 901.882 317.879 901.387 317.366 897.794 321.085"/><polygon class="e" points="897.794 321.085 898.165 321.47 901.758 317.75 901.387 317.366 897.794 321.085"/><polygon class="k" points="897.794 321.085 898.041 321.342 901.634 317.622 901.387 317.366 897.794 321.085"/><polygon class="g" points="897.794 321.085 897.917 321.213 901.51 317.494 901.387 317.366 897.794 321.085"/></g><g><rect class="p" x="884.096" y="333.693" width=".7" height="6.067"/><rect class="e" x="884.096" y="333.693" width=".525" height="6.067"/><rect class="k" x="884.096" y="333.693" width=".35" height="6.067"/><rect class="g" x="884.096" y="333.693" width=".175" height="6.067"/></g><g><rect class="p" x="869.372" y="333.456" width=".7" height="8.497"/><rect class="e" x="869.372" y="333.456" width=".525" height="8.497"/><rect class="k" x="869.372" y="333.456" width=".35" height="8.497"/><rect class="g" x="869.372" y="333.456" width=".175" height="8.497"/></g><g><rect class="p" x="877.087" y="333.422" width=".7" height="8.531"/><rect class="e" x="877.087" y="333.422" width=".525" height="8.531"/><rect class="k" x="877.087" y="333.422" width=".35" height="8.531"/><rect class="g" x="877.087" y="333.422" width=".175" height="8.531"/></g><g><rect class="p" x="861.335" y="333.456" width=".7" height="8.431"/><rect class="e" x="861.335" y="333.456" width=".525" height="8.431"/><rect class="k" x="861.335" y="333.456" width=".35" height="8.431"/><rect class="g" x="861.335" y="333.456" width=".175" height="8.431"/></g><g><rect class="p" x="884.083" y="317.652" width=".7" height="14.512"/><rect class="e" x="884.083" y="317.652" width=".525" height="14.512"/><rect class="k" x="884.083" y="317.652" width=".35" height="14.512"/><rect class="g" x="884.083" y="317.652" width=".175" height="14.512"/></g><g><rect class="p" x="897.741" y="317.909" width=".7" height="14.255"/><rect class="e" x="897.741" y="317.909" width=".525" height="14.255"/><rect class="k" x="897.741" y="317.909" width=".35" height="14.255"/><rect class="g" x="897.741" y="317.909" width=".175" height="14.255"/></g></g></svg>