<?xml version="1.0" encoding="UTF-8"?><svg xmlns="http://www.w3.org/2000/svg" viewBox="0 0 2097.6274 1901.5096"><defs><style>.c{fill:#005768;}</style></defs><g id="a"><g><path class="c" d="M1254.4963,1031.863c17.5944,15.3791,44.0052,196.6721,14.3443,302.0213,13.2408,6.5443,98.9552,13.3087,121.141-7.2114-12.6931-12.0632-80.861-284.2006-32.9687-295.053,47.8923-10.8524-39.1223-23.0887-39.1223-23.0887,0,0-80.9887,7.9527-63.3943,23.3318Z"/><path class="c" d="M1603.6581,1329.0431c-10.2868-10.6346-31.6272-95.6772-26.5562-176.9107,2.9381-47.0664,23.44-87.6505,37.5141-125.2524-12.6473-7.6284-97.4959-21.5357-121.3198-2.9425,5.4217,6.0934,35.8857,66.2499,42.9903,132.8587,8.1486,76.3958-8.8264,160.2796-34.8065,163.9177-48.632,6.8101,37.0549,26.2789,37.0549,26.2789,0,0,81.37-1.1534,65.1231-17.9497Z"/><path class="c" d="M1567.0127,1306.9873l49.5145-20.6369,27.1585,24.4679,20.7964,12.22s-50.2337,.4586-51.6095,0-76.586,10.0892-76.586,10.0892l38.5223-19.2611-7.7962-6.879Z"/><path class="c" d="M1708.7197,1329c2.2872-2.1044,38.0637-25.2229,38.0637-25.2229l31.9378,22.4635-70.0014,2.7595Z"/><path class="c" d="M1437.9936,1330.3758l-30.2675-20.6369-16.5096,13.3975s-18.6497,9.0739-11.0064,9.9911,57.7834-2.7516,57.7834-2.7516Z"/><path class="c" d="M1230.4013,1370.7325l18.3439,23.698,21.0955,30.8149,13.2994,46.3185s-4.1274,25.6815-10.0892,36.2293,.4586,48.2133,.4586,48.2133l29.3503,30.6657,47.6943-7.3376-21.5541-63.8981c12.3822-27.5159-9.6306-82.3949-9.6306-84.2293s-5.0446-76.586-5.0446-76.586l-28.8917-23.6999-36.2293-.1472-18.8025,39.9585Z"/><path class="c" d="M1155.4204,1165.051l28.6624,9.4289,27.0573,20.1507,40.8548-47.465,29.7684,41.8966,24.9947-67.3488s-83.2357-27.5159-85.9873-26.828-65.3503,70.1656-65.3503,70.1656Z"/><path class="c" d="M1621.8153,1365.9172s61.2229,145.8344,30.9554,178.8535-44.0255,34.3949-44.0255,34.3949h52.4294l78.2577-11.6943s-69.4784-66.0683-53.6425-118.3185,29.5796-77.7325,29.5796-77.7325l-57.7834-24.4276-35.7707,18.9245Z"/><path class="c" d="M1405.1274,1367.9809l20.6369,6.879,9.6306-4.1274,6.5732,17.8854,8.5605-20.6369,21.3248-6.1911,32.3312,4.4016,4.8153,19.6749h15.8217l4.8153-24.0764,6.6497,13.414,11.465-27.2484s-32.5605-2.0018-34.6242-.9627-52.9682-6.5643-52.9682-6.5643h-25.4522l-29.5796,27.5525Z"/><path class="c" d="M1752.5024,1010.3694s61.2229,212.7778,30.9554,260.9538c-30.2675,48.1761-44.0255,50.1834-44.0255,50.1834h52.4294l78.2577-17.0624s-69.4784-96.3961-53.6425-172.631c15.8358-76.2349,29.5796-113.4146,29.5796-113.4146l-57.7834-35.6408-35.7707,27.6115Z"/><path class="c" d="M1571.7725,1777.7174l-37.6773-16.9229-22.0209-30.1606-14.6987-45.8936s3.3462-25.7949,8.9852-36.5188,26.8754-51.7438,26.8754-51.7438l-59.0641-26.1944-47.4497,8.7814s43.3413,36.998,33.7424,65.604c-2.0495,6.1079,1.867,79.6753,1.9226,81.5089s-7.1201,82.9752-7.1201,82.9752l44.0838,16.2348,36.2171-.9522,36.2042-46.7181Z"/><path class="c" d="M1320.2664,1812.5852c-9.1654-7.779-28.7651-69.4188-25.0512-128.0612,2.1518-33.9771,19.8442-63.1076,31.899-90.1433-11.2179-5.629-86.1305-16.4658-106.9552-3.2542,4.8352,4.4528,32.2448,48.1979,39.1261,96.3874,7.8924,55.2701-6.2887,115.7165-29.153,118.1033-42.7995,4.4679,32.9035,19.3305,32.9035,19.3305,0,0,71.7066-.0766,57.2308-12.3626Z"/><polygon class="c" points="1445.0255 1039.1656 1522.758 1070.121 1583.9809 1026.0955 1606.6815 986.8854 1623.879 1035.0382 1667.9045 1048.7962 1772.465 1025.4076 1743.5732 968.3121 1505.5605 980.6943 1445.0255 1039.1656"/><path class="c" d="M1951.3185,1788.0573s-37.4096-53.3099-44.9427-90.2218c-3.3631-16.4788-13.2994-27.7909-13.2994-30.5425s-6.879-51.0573-6.879-51.0573l-35.7707-63.8981s-5.2058,7.4748-6.7496,34.3345-3.1064,125.7016-3.1064,125.7016l17.1936,72.0149-22.9299,35.7707s62.3694,5.9083,66.9554,4.7885,49.5287-36.8904,49.5287-36.8904Z"/><polygon class="c" points="1317.535 1608.8981 1444.7197 1590.5541 1512.2866 1599.2675 1596.9745 1592.6943 1629.876 1621.2103 1677.9936 1628.1592 1737.6115 1597.586 1779.4968 1604.3121 1834.8344 1590.5541 1847.0637 1618.9873 1893.0764 1624.7962 1977 1602.7834 2047.6242 1593.6115 2087.0637 1570.2833 2025.6115 1563.3439 1923.8025 1559.2166 1894.9108 1581.7491 1830.707 1575.2675 1816.0815 1566.5541 1777.9682 1550.0446 1657.8153 1566.0955 1631.2166 1573.4331 1602.7834 1565.1288 1574.8089 1577.1019 1509.6879 1577.1019 1487.2166 1559.6752 1444.1083 1550.0446 1411.0892 1575.2675 1370.679 1581.7491 1331.5223 1569.0764 1308.8217 1533.3057 1270.7838 1532.1161 1258.6051 1567.4713 1217.023 1581.4586 1162.5287 1557.3822 1136.6178 1553.9427 1062.3248 1563.3439 1044.8981 1595.9045 1043.7516 1618.3145 1081.1274 1624.7962 1159.5478 1601.8662 1222.8344 1594.9873 1278.3248 1596.5924 1317.535 1608.8981"/><polygon class="c" points="1285.4331 1298.7325 1222.6051 1326.4013 1204.2611 1326.4013 1178.121 1301.2548 1164.8217 1282.6815 1153.1496 1293.3761 1155.4204 1321.5067 1111.6975 1337.2538 1043.7516 1356.5159 1018.9873 1388.6178 1186.1805 1371.1911 1257 1369.8153 1283.5987 1345.9362 1325.3312 1345.9362 1355.1401 1349.1783 1387.242 1364.5231 1422.5541 1367.9809 1490.8854 1357.4331 1556.087 1357.2387 1614.616 1373.0255 1662.4013 1357.8917 1687.1656 1368.8981 1722.0191 1382.1975 1768.7962 1356.5159 1786.2229 1369.8153 1808.6943 1371.6497 1826.5796 1403.1093 1854.5541 1435.3949 1870.1195 1446.4013 1882.9873 1410.6306 1889.8662 1379.9045 1916.465 1396.7839 1954.5287 1376.3193 2005.4331 1364.5414 1963.7006 1333.1274 1920.5924 1333.1274 1920.5924 1333.1274 1898.3503 1321.5067 1889.7134 1294.2994 1889.7134 1294.2994 1851.8025 1297.9682 1820.6178 1312.949 1787.5987 1305.6115 1722.0191 1323.0382 1681.6624 1305.6115 1611.9554 1311.5732 1536.2866 1303.7771 1456.949 1326.4013 1370.7325 1303.7771 1285.4331 1298.7325"/><polygon class="c" points="1124.9236 1162.5287 1043.7516 1189.1274 1062.5541 1083.6497 1298.2739 982.758 1668.8217 927.7861 1850.4268 968.3121 1858.6815 1027.7006 1753.7167 1014.6818 1679.828 982.758 1630.2994 991.9299 1583.9809 1026.0955 1512.2102 1025.8662 1461.535 1051.5478 1405.1274 1032.2866 1373.4841 1070.121 1378.3709 1111.1656 1343.6736 1131.8756 1259.7516 1109.3312 1208.3885 1101.0764 1138.6815 1139.5987 1124.9236 1162.5287"/><polygon class="c" points="1940.0064 1779.8025 1943.8111 1780.9065 1999.0127 1796.9236 1989.8408 1827.8025 1841.5605 1827.8025 1195.3185 1825.3877 1229.0255 1799.9809 1299.1911 1810.9873 1341.1529 1800.6688 1420.949 1815.8025 1489.7389 1790.3503 1576.414 1803.8025 1656.8981 1806.9194 1690.6051 1796.5414 1758.707 1810.9873 1776.5924 1821.9936 1834.8344 1810.2994 1854.3248 1799.9809 1899.7261 1784.8471 1940.0064 1779.8025"/></g></g><g id="b"/></svg>