<?xml version="1.0" encoding="UTF-8"?><svg id="a" xmlns="http://www.w3.org/2000/svg" viewBox="0 0 1000 1000"><defs><style>.b{fill:#005768;}</style></defs><path class="b" d="M201.6491,130.3535c17.5944,15.3791,44.0052,196.6721,14.3443,302.0213,13.2408,6.5443,98.9552,13.3087,121.141-7.2114-12.6931-12.0632-80.861-284.2006-32.9687-295.053,47.8923-10.8524-39.1223-23.0887-39.1223-23.0887,0,0-80.9887,7.9527-63.3943,23.3318Z"/><path class="b" d="M550.8109,427.5335c-10.2868-10.6346-31.6272-95.6772-26.5562-176.9107,2.9381-47.0664,23.44-87.6505,37.5141-125.2524-12.6473-7.6284-97.4959-21.5357-121.3198-2.9425,5.4217,6.0934,35.8857,66.2499,42.9903,132.8587,8.1486,76.3958-8.8264,160.2796-34.8065,163.9177-48.632,6.8101,37.0549,26.2789,37.0549,26.2789,0,0,81.37-1.1534,65.1231-17.9497Z"/><path class="b" d="M514.1656,405.4777l49.5145-20.6369,27.1585,24.4679,20.7964,12.22s-50.2337,.4586-51.6095,0-76.586,10.0892-76.586,10.0892l38.5223-19.2611-7.7962-6.879Z"/><path class="b" d="M655.8726,427.4904c2.2872-2.1044,38.0637-25.2229,38.0637-25.2229l31.9378,22.4635-70.0014,2.7595Z"/><path class="b" d="M385.1465,428.8662l-30.2675-20.6369-16.5096,13.3975s-18.6497,9.0739-11.0064,9.9911,57.7834-2.7516,57.7834-2.7516Z"/><path class="b" d="M177.5541,469.2229l18.3439,23.698,21.0955,30.8149,13.2994,46.3185s-4.1274,25.6815-10.0892,36.2293,.4586,48.2133,.4586,48.2133l29.3503,30.6657,47.6943-7.3376-21.5541-63.8981c12.3822-27.5159-9.6306-82.3949-9.6306-84.2293s-5.0446-76.586-5.0446-76.586l-28.8917-23.6999-36.2293-.1472-18.8025,39.9585Z"/><path class="b" d="M102.5732,263.5414l28.6624,9.4289,27.0573,20.1507,40.8548-47.465,29.7684,41.8966,24.9947-67.3488s-83.2357-27.5159-85.9873-26.828-65.3503,70.1656-65.3503,70.1656Z"/><path class="b" d="M568.9682,464.4076s61.2229,145.8344,30.9554,178.8535-44.0255,34.3949-44.0255,34.3949h52.4294l78.2577-11.6943s-69.4784-66.0683-53.6425-118.3185,29.5796-77.7325,29.5796-77.7325l-57.7834-24.4276-35.7707,18.9245Z"/><path class="b" d="M352.2803,466.4713l20.6369,6.879,9.6306-4.1274,6.5732,17.8854,8.5605-20.6369,21.3248-6.1911,32.3312,4.4016,4.8153,19.6749h15.8217l4.8153-24.0764,6.6497,13.414,11.465-27.2484s-32.5605-2.0018-34.6242-.9627-52.9682-6.5643-52.9682-6.5643h-25.4522l-29.5796,27.5525Z"/><path class="b" d="M699.6553,108.8599s61.2229,212.7778,30.9554,260.9538c-30.2675,48.1761-44.0255,50.1834-44.0255,50.1834h52.4294l78.2577-17.0624s-69.4784-96.3961-53.6425-172.631c15.8358-76.2349,29.5796-113.4146,29.5796-113.4146l-57.7834-35.6408-35.7707,27.6115Z"/><path class="b" d="M518.9254,876.2078l-37.6773-16.9229-22.0209-30.1606-14.6987-45.8936s3.3462-25.7949,8.9852-36.5188,26.8754-51.7438,26.8754-51.7438l-59.0641-26.1944-47.4497,8.7814s43.3413,36.998,33.7424,65.604c-2.0495,6.1079,1.867,79.6753,1.9226,81.5089s-7.1201,82.9752-7.1201,82.9752l44.0838,16.2348,36.2171-.9522,36.2042-46.7181Z"/><path class="b" d="M267.4193,911.0756c-9.1654-7.779-28.7651-69.4188-25.0512-128.0612,2.1518-33.9771,19.8442-63.1076,31.899-90.1433-11.2179-5.629-86.1305-16.4658-106.9552-3.2542,4.8352,4.4528,32.2448,48.1979,39.1261,96.3874,7.8924,55.2701-6.2887,115.7165-29.153,118.1033-42.7995,4.4679,32.9035,19.3305,32.9035,19.3305,0,0,71.7066-.0766,57.2308-12.3626Z"/><polygon class="b" points="392.1783 137.6561 469.9108 168.6115 531.1338 124.586 553.8344 85.3758 571.0318 133.5287 615.0573 147.2866 719.6178 123.8981 690.7261 66.8025 452.7134 79.1847 392.1783 137.6561"/><path class="b" d="M898.4713,886.5478s-37.4096-53.3099-44.9427-90.2218c-3.3631-16.4788-13.2994-27.7909-13.2994-30.5425s-6.879-51.0573-6.879-51.0573l-35.7707-63.8981s-5.2058,7.4748-6.7496,34.3345-3.1064,125.7016-3.1064,125.7016l17.1936,72.0149-22.9299,35.7707s62.3694,5.9083,66.9554,4.7885,49.5287-36.8904,49.5287-36.8904Z"/></svg>