<?xml version="1.0" encoding="UTF-8"?><svg xmlns="http://www.w3.org/2000/svg" viewBox="0 0 2097.6274 1901.5096"><defs><style>.c{fill:#04a0a9;}</style></defs><g id="a"><g><path class="c" d="M1362.027,1337.6526l55.4825-58.4106-3.2659-140.5605-87.1294-96.3057,216.3375-46.7771s-92.4032,101.0318-82.8339,122.9045c-25.3348,39.0564,2.7429,167.8471,2.7429,167.8471,0,0,12.2868,46.3185,21.9264,46.7771s20.9613,7.301,20.9613,7.301l-144.2214-2.7758Z"/><path class="c" d="M1820.1592,1059.8025s106.3949-7.6827,115.5669-9.3445,10.0892,7.5101,15.5924-10.8338-11.9236-63.2866-11.9236-63.2866c0,0,1.8344-12.8408-4.586-17.4268s-35.7707-11.0064-49.0701-9.172-59.1615-.0089-59.1615-.0089l-21.8015,64.9518,15.3833,45.1208Z"/><path class="c" d="M1577.1019,1575.2675s-52.1191-142.3431-21.015-178.4837c31.1041-36.1405-21.9865-50.8477-21.9865-50.8477l-43.2151,1.0566s75.2102,207.3001,22.9299,223.2906c-52.2803,15.9905,36.7643,28.8313,36.7643,28.8313l26.5223-23.8471Z"/><path class="c" d="M1146.9363,1544.0828c6.2137-1.1187,30.2675,0,30.2675,0l25.6815,17.4268,22.5393,12.4104-39.2442,5.2456-16.3142,7.5065-22.9299-42.5893Z"/><path class="c" d="M1251.9949,1147.1656l-26.5703,23.6178-33.1153,10.0538s-24.2775,22.0481-27.0291,26.6341-21.5997,10.8072-21.5997,10.8072c0,0-15.0882-47.4951-10.5022-52.9983,4.586-5.5032,48.0414-43.0504,53.0021-41.2739,4.9607,1.7765,65.8144,23.1592,65.8144,23.1592Z"/><path class="c" d="M1130.7325,1614.707s19.1847,19.4904,20.5605,23.6178,22.7006-24.0764,22.7006-24.0764l28.8917,24.489s33.707-36.8711,36.4586-39.6227-74.9809,0-74.9809,0l-33.6306,15.5924Z"/><path class="c" d="M1327.1143,1806.8599s26.2339-105.5157,23.4399-123.1338c-2.7516-17.3503-18.3439-74.9809-18.3439-74.9809l74.7516-7.3376s-18.368,103.6433-16.9802,109.1465,7.5789,99.0573,22.7127,96.3057-85.58,0-85.58,0Z"/><path class="c" d="M1621.8153,1600.6735s61.2229,145.8344,30.9554,178.8535-44.0255,34.3949-44.0255,34.3949l77.8089,8.0717,52.8782-19.766s-69.4784-66.0683-53.6425-118.3185,29.5796-77.7325,29.5796-77.7325l-57.7834-24.4276-35.7707,18.9245Z"/><polygon class="c" points="1722.0191 1378.7255 1778.7212 1432.1847 1851.8755 1481.0457 1935.7261 1503.7261 2005.4331 1503.7261 1987.2943 1374.3955 1863.7261 1352.3885 1749.535 1345.9362 1722.0191 1378.7255"/><path class="c" d="M1865.5937,1599.8911c.1404-3.4542,2.6209-6.3572,6.0117-7.0312,10.8895-2.1644,33.6031-6.5811,35.6876-6.1879,2.7516,.519,4.586,46.7454,3.6688,52.0653-.4202,2.4373,3.5875,1.8328,8.054,.4621,5.1848-1.5911,10.2907,2.6788,9.625,8.0613-2.6802,21.6696-7.5683,64.7123-4.8382,70.1724,1.1775,2.355,4.4336,1.1796,8.3127-1.5027,5.6794-3.9271,13.1993,1.4127,11.4334,8.0879-3.5149,13.2868-6.4277,27.3815-4.1538,31.0199,.0459,.0734,.0928,.1496,.1409,.2286,4.6758,7.6898-5.7088,15.5791-11.8572,9.007-24.886-26.6005-55.8701-60.1657-59.7113-66.4383-5.5376-9.0427-3.2117-77.327-2.3735-97.9444Z"/><path class="c" d="M1739.4323,1813.9219s56.8798-82.7309,49.5422-133.1767-14.6752-75.2102-16.5096-79.3376,48.5895,.7906,48.5895,.7906v127.1584s-27.9931,72.2804-16.2786,77.5627,30.0585,7.0026,30.0585,7.0026h-95.402Z"/><path class="c" d="M1138.9108,1321.5067h42.6497l43.8641-20.2519s33.8683,19.7197,40.0594,27.7452,0,25.9108,0,25.9108c0,0-52.9682,25.4522-55.7197,27.5159s-35.7707,6.1911-35.7707,6.1911l-45.4013,4.1274s20.1783-44.0985,18.3439-52.3168"/><path class="c" d="M1158.8599,1326.4013s29.6561-117.0955,17.121-131.7707c-12.535-14.6752-12.535-49.879-12.535-49.879l33.6306,2.7962s20.1783,51.6688,17.121,74.293c-3.0573,22.6242-5.1975,59.0064-4.2803,62.3694s11.6178,31.1847,15.2866,33.6306-66.3439,8.5605-66.3439,8.5605Z"/><polygon class="c" points="1198.414 1330.8344 1257.9172 1310.6561 1311.5732 1307.9045 1437.6879 1307.9045 1603.7006 1324.414 1824.2866 1315.7006 2029.2803 1352.8471 2029.2803 1457.4076 1739.9045 1376.3193 1603.7006 1376.3193 1424.3885 1347 1276.8217 1352.3324 1152.8981 1366.1465 1198.414 1330.8344"/><path class="c" d="M1137.7643,1567.9299l48.4161-6.4204,209.3163,10.0892,157.3503-21.0955,157.2484,21.0955,144.4586,5.9618,38.9809,49.9873s52.2803,161.8854,73.3758,162.8025-65.121,34.8535-65.121,34.8535l-21.6201-15.4083s.5246-176.7446-34.7875-190.5026-96.3057-16.051-96.3057-16.051l-14.2166,13.2994-95.8471,5.0446-68.7898-37.6051-22.0127,23.3885-21.0955-16.051-56.4076-9.5694-16.051,25.1618-17.4268-1.8344-69.4777,6.4204-35.061-.9675-26.162-21.5038-95.6943,21.4013-91.9956,10.057-30.2974-31.764,22.3185-17.121,26.9045-3.6688Z"/><polygon class="c" points="1186.1805 1168.0136 1327.1143 1094.6561 1426.6815 1039.6242 1591.0892 1013.0255 1722.0191 1013.0255 1943.811 1021.2803 1934.8089 958.9108 1737.6115 968.0828 1354.2229 988.2611 1211.1401 1024.0318 1108.414 1134.0955 1117.586 1201.9682 1186.1805 1168.0136"/></g></g><g id="b"/></svg>