<?xml version="1.0" encoding="UTF-8"?><svg id="a" xmlns="http://www.w3.org/2000/svg" xmlns:xlink="http://www.w3.org/1999/xlink" viewBox="0 0 1044.8 1000"><defs><style>.c{fill:#152134;}.d{fill:url(#b);}.e{fill:#1d2b3f;}.f{fill:none;}</style><pattern id="b" x="0" y="0" width="141.2" height="152.6" patternTransform="translate(-125.819 -16974.217) scale(1 -1)" patternUnits="userSpaceOnUse" viewBox="0 0 141.2 152.6"><g><rect class="f" width="141.2" height="152.6"/><g><rect class="f" width="141.2" height="152.6"/><g><rect class="f" width="141.2" height="152.6"/><polygon class="e" points="4.4 76 46.2 34.2 35.8 70 0 108.2 4.4 76"/><polygon class="e" points="63.1 47.5 94.6 68.6 71.7 110.5 63.1 47.5"/><polygon class="e" points="138.6 43.1 132.5 18.1 117.2 22.3 138.6 43.1"/><polygon class="e" points="138.6 88.2 103 145.2 138.6 129.5 138.6 88.2"/><polygon class="e" points="87.6 22.5 118.5 47.5 118.5 84.5 87.6 22.5"/><polygon class="e" points="34.6 6.9 5 36.1 64.1 9.9 34.6 6.9"/><polygon class="e" points="13.8 116.3 47.2 101 33.6 125.5 3.2 137.7 13.8 116.3"/><polygon class="e" points="54.6 35.6 68.6 12.1 72.6 31.9 54.6 35.6"/><polygon class="e" points="77 124 115.4 102.6 111.7 120.9 77 124"/><polygon class="e" points="94.6 94.2 121.8 88.2 119.9 94.2 94.6 94.2"/><polygon class="e" points="103 22.9 135.8 45.6 103.1 31.1 103 22.9"/><polygon class="e" points="103 19.4 141.2 0 115.4 21.5 103 19.4"/><polygon class="e" points="91.6 143.6 53.6 125.3 84.9 152.6 91.6 143.6"/><polygon class="e" points="13.9 42.6 23.8 31.6 24.6 42.6 16.2 54.7 13.9 42.6"/><polygon class="e" points="23.1 94.3 36.5 84.5 13.9 110.5 23.1 94.3"/><polygon class="e" points="49.4 45.6 54.6 63.6 43.4 72.8 49.4 45.6"/><polygon class="e" points="41.6 115.3 58.9 97.3 77.4 130.8 41.6 115.3"/><polygon class="e" points="78.9 1.7 98.3 5.3 84.5 17.6 78.9 1.7"/><polygon class="e" points="28.1 144.3 39.8 133 47.2 147.9 28.1 144.3"/><polygon class="e" points="49 88.2 57.5 76.4 57.5 88.2 49 88.2"/><polygon class="e" points="127.9 51.9 131.8 72.8 125.1 88.2 127.9 51.9"/><polygon class="e" points="80.1 43.1 96.2 51.9 83.2 49.2 80.1 43.1"/></g></g></g></pattern></defs><polygon class="c" points="848.586 338.981 862.229 325.338 862.229 313.185 888.885 286.529 908.662 286.529 935.118 312.984 935.118 343.567 916.559 362.126 870.713 362.126 848.586 338.981"/><polygon class="d" points="848.586 338.981 862.229 325.338 862.229 313.185 888.885 286.529 908.662 286.529 935.265 311.925 935.118 343.567 916.559 362.126 870.713 362.126 848.586 338.981"/></svg>