<?xml version="1.0" encoding="UTF-8"?><svg id="a" xmlns="http://www.w3.org/2000/svg" viewBox="0 0 1000 1000"><defs><style>.b{fill:#04a0a9;}</style></defs><path class="b" d="M309.1799,436.1431l55.4825-58.4106v-98.4048l-18.9554-77.0092,56.7898,26.1401s11.0064,39.2102,13.0701,47.465-5.0532,108.9172-5.0532,108.9172c0,0,12.2868,46.3185,21.9264,46.7771s20.9613,7.301,20.9613,7.301l-144.2214-2.7758Z"/><path class="b" d="M312.3822,258.4561s42.4073-45.4618,48.6115-44.8256,52.4611,34.0892,67.963,24.4586,48.521-26.828,51.2726-28.2038-.6879-88.051-2.7516-92.1783-119.7756-30.2675-122.1426-28.2038-42.953,168.9529-42.953,168.9529Z"/><path class="b" d="M767.3121,158.293s106.3949-7.6827,115.5669-9.3445,10.0892,7.5101,15.5924-10.8338-11.9236-63.2866-11.9236-63.2866c0,0,1.8344-12.8408-4.586-17.4268s-35.7707-11.0064-49.0701-9.172-59.1615-.0089-59.1615-.0089l-21.8015,64.9518,15.3833,45.1208Z"/><path class="b" d="M524.2548,673.758s-52.1191-142.3431-21.015-178.4837c31.1041-36.1405-21.9865-50.8477-21.9865-50.8477l-43.2151,1.0566s75.2102,207.3001,22.9299,223.2906c-52.2803,15.9905,36.7643,28.8313,36.7643,28.8313l26.5223-23.8471Z"/><path class="b" d="M94.0892,642.5732c6.2137-1.1187,30.2675,0,30.2675,0l25.6815,17.4268,22.5393,12.4104-39.2442,5.2456-16.3142,7.5065-22.9299-42.5893Z"/><path class="b" d="M199.1478,245.6561l-26.5702,23.6178-33.1154,10.0538s-24.2775,22.0481-27.029,26.6341-21.5997,10.8072-21.5997,10.8072c0,0-15.0882-47.4951-10.5022-52.9983s48.0414-43.0504,53.0021-41.2739,65.8144,23.1592,65.8144,23.1592Z"/><path class="b" d="M81.9363,718.242s15.1338,14.4459,16.5096,18.5732,22.7006-24.0764,22.7006-24.0764l28.8917,24.489s33.707-36.8711,36.4586-39.6227-74.9809,0-74.9809,0l-29.5796,20.6369Z"/><path class="b" d="M274.2671,905.3503s26.2339-105.5157,23.4399-123.1338c-2.7516-17.3503-18.3439-74.9809-18.3439-74.9809l74.7516-7.3376s-18.368,103.6433-16.9802,109.1465,7.5789,99.0573,22.7127,96.3057-85.58,0-85.58,0Z"/><path class="b" d="M568.9682,699.164s61.2229,145.8344,30.9554,178.8535-44.0255,34.3949-44.0255,34.3949l77.8089,8.0717,52.8782-19.766s-69.4784-66.0683-53.6425-118.3185,29.5796-77.7325,29.5796-77.7325l-57.7834-24.4276-35.7707,18.9245Z"/><polygon class="b" points="669.172 477.2159 725.8741 530.6752 799.0284 579.5362 882.879 602.2166 952.586 602.2166 934.4471 472.886 810.879 450.879 696.6879 444.4266 669.172 477.2159"/><path class="b" d="M812.7466,698.3816c.1404-3.4542,2.6209-6.3572,6.0117-7.0312,10.8895-2.1644,33.6031-6.5811,35.6876-6.1879,2.7516,.519,4.586,46.7454,3.6688,52.0653-.4202,2.4373,3.5875,1.8328,8.054,.4621,5.1848-1.5911,10.2907,2.6788,9.625,8.0613-2.6802,21.6696-7.5683,64.7123-4.8382,70.1724,1.1775,2.355,4.4336,1.1796,8.3127-1.5027,5.6794-3.9271,13.1993,1.4127,11.4334,8.0879-3.5149,13.2868-6.4277,27.3815-4.1538,31.0199,.0459,.0734,.0928,.1496,.1409,.2286,4.6758,7.6898-5.7088,15.5791-11.8572,9.007-24.886-26.6005-55.8701-60.1657-59.7113-66.4383-5.5376-9.0427-3.2117-77.327-2.3735-97.9444Z"/><path class="b" d="M686.5852,912.4124s56.8798-82.7309,49.5422-133.1767-14.6752-75.2102-16.5096-79.3376,48.5895,.7906,48.5895,.7906v127.1584s-27.9931,72.2804-16.2786,77.5627,30.0585,7.0026,30.0585,7.0026h-95.402Z"/><path class="b" d="M86.0637,419.9972h42.6497l43.8641-20.2519s33.8683,19.7197,40.0594,27.7452,0,25.9108,0,25.9108c0,0-52.9682,25.4522-55.7197,27.5159s-35.7707,6.1911-35.7707,6.1911l-45.4013,4.1274s20.1783-44.0985,18.3439-52.3168"/><path class="b" d="M106.0127,424.8917s29.6561-117.0955,17.121-131.7707c-12.535-14.6752-12.535-49.879-12.535-49.879l33.6306,2.7962s20.1783,51.6688,17.121,74.293c-3.0573,22.6242-5.1975,59.0064-4.2803,62.3694s11.6178,31.1847,15.2866,33.6306-66.3439,8.5605-66.3439,8.5605Z"/></svg>