<?xml version="1.0" encoding="UTF-8"?><svg xmlns="http://www.w3.org/2000/svg" viewBox="0 0 659.694 560.485"><defs><style>.d{fill:#fff;}</style></defs><g id="a"/><g id="b"><g id="c"><polygon class="d" points="379.045 31.214 430.637 49.787 491.172 60.793 573.72 82.806 612.93 111.01 626 139.214 645.949 174.985 659.694 184.615 569.592 184.615 569.592 370.348 577.159 373.787 579.223 388.233 597.796 415.749 575.783 415.749 575.783 560.485 83.911 560.485 83.911 415.749 61.898 415.749 80.471 388.233 82.535 373.787 90.102 370.348 90.102 184.615 0 184.615 13.745 174.985 33.694 139.214 46.764 111.01 85.975 82.806 168.522 60.793 229.057 49.787 280.65 31.214 329.847 0 379.045 31.214"/></g></g></svg>