<svg id="Layer_1" data-name="Layer 1" xmlns="http://www.w3.org/2000/svg" viewBox="0 0 1293 846.28"><defs><style>.cls-1{fill:#a02a2a;}.cls-2{fill:none;}.cls-3{fill:#cf4a4a;}.cls-4{fill:#c13838;}.cls-5{fill:#8e2525;}.cls-6{fill:#ba3f3f;}.cls-7{fill:#aaa;}.cls-8{fill:#c1c1c1;}.cls-9{fill:#e2e2e2;}</style></defs><path class="cls-1" d="M1140.977,579.976V461.95s14.631,33.831,58.487,46.212,50.014,49.667,50.014,49.667,6.652,37.5,15.522,46.415h-34l-90.023-1.969Z" transform="translate(-3 -139)"/><path class="cls-1" d="M347.433,573.485V423.9s-38.514,42.878-153.957,58.571S61.82,545.415,61.82,545.415s-17.511,47.53-40.858,58.829h89.5l236.971-2.5Z" transform="translate(-3 -139)"/><path class="cls-2" d="M1106.312,498.331c-.049-.037-.1-.072-.146-.11l.144.111Z" transform="translate(-3 -139)"/><path class="cls-2" d="M1175.325,498.619c-2.852,1.984-16.448,10.787-33.887,11.431v.036C1151.665,510.131,1163.328,507.274,1175.325,498.619Z" transform="translate(-3 -139)"/><path class="cls-3" d="M1100.812,604.244v30.712h90.579a6.994,6.994,0,0,1,6.981,6.98V949.242a7,7,0,0,1-6.981,6.981H116.672a6.541,6.541,0,0,1-4.468-1.592,6.345,6.345,0,0,1-4.219-6.242V646.525c-1.284-3.623.216-8.345,4.485-9.387a6.418,6.418,0,0,1,5.056-2.182H612.2V604.244H73.327V985h1154.99V604.244Z" transform="translate(-3 -139)"/><path class="cls-1" d="M612.2,522.068c-17.862-14.272-51.138-31.326-112.02-39.6C384.736,466.773,346.222,423.9,346.222,423.9V580.117l265.976.469Z" transform="translate(-3 -139)"/><path class="cls-4" d="M416.158,602.485l-69.936-.736V587.114H38.7s-8.327,11.48-18.7,17.13H73.327v-1.759Z" transform="translate(-3 -139)"/><polygon class="cls-4" points="413.158 463.485 70.327 463.485 70.327 465.244 580.193 465.244 413.158 463.485"/><polygon class="cls-4" points="609.198 448.114 343.222 448.114 343.222 462.749 413.158 463.485 609.198 463.485 609.198 448.114"/><polygon class="cls-4" points="413.158 463.485 580.193 465.244 609.198 465.244 609.198 463.485 413.158 463.485"/><polygon class="cls-5" points="343.222 441.117 40.879 440.583 35.704 448.114 343.222 448.114 343.222 441.117"/><polygon class="cls-5" points="609.198 448.114 609.198 441.586 343.222 441.117 343.222 448.114 609.198 448.114"/><path class="cls-1" d="M1141.438,510.05c-.294.011-.588.021-.884.028.292.006.588.006.884.008Z" transform="translate(-3 -139)"/><path class="cls-1" d="M1100.812,585.06l40.626.149V517.853c-11.815-.13-25.6-3.822-40.626-14.353Z" transform="translate(-3 -139)"/><path class="cls-1" d="M1108.705,496.9a64.5,64.5,0,0,0,8.673-6.058A94.953,94.953,0,0,1,1108.705,496.9Z" transform="translate(-3 -139)"/><path class="cls-1" d="M1141.438,461.951s-.076.17-.217.468q.091.169.217.4Z" transform="translate(-3 -139)"/><path class="cls-1" d="M1106.312,498.331h0c.087.067.215.164.382.287C1106.565,498.522,1106.439,498.43,1106.312,498.331Z" transform="translate(-3 -139)"/><path class="cls-4" d="M1141.438,602.275l-9.6.21h96.477v1.759H1265s-5.246-7.715-7.105-13.516H1141.438Z" transform="translate(-3 -139)"/><polygon class="cls-4" points="1128.84 463.485 1097.812 464.164 1097.812 465.244 1225.317 465.244 1225.317 463.485 1128.84 463.485"/><polygon class="cls-4" points="1128.84 463.485 1138.438 463.275 1138.438 451.728 1097.812 451.728 1097.812 463.485 1128.84 463.485"/><polygon class="cls-4" points="1097.812 464.164 1128.84 463.485 1097.812 463.485 1097.812 464.164"/><path class="cls-4" d="M1108.705,496.9a28.412,28.412,0,0,1-2.539,1.321c.049.038.1.073.146.11Q1107.532,497.625,1108.705,496.9Z" transform="translate(-3 -139)"/><path class="cls-4" d="M1141.221,462.419c-.157-.3-.244-.468-.244-.468-8,14.237-16.829,23.354-23.6,28.891C1133.082,478.506,1139.98,465.039,1141.221,462.419Z" transform="translate(-3 -139)"/><path class="cls-4" d="M1175.325,498.619c.186-.134.372-.261.558-.4-20.6-11.445-32.1-31.082-34.445-35.4v47.23C1158.877,509.406,1172.473,500.6,1175.325,498.619Z" transform="translate(-3 -139)"/><path class="cls-4" d="M1106.692,498.619c2.74,2.017,16.027,11.088,33.862,11.459.3-.007.59-.017.884-.028V462.82q-.126-.231-.217-.4c-1.241,2.62-8.139,16.087-23.843,28.423a64.5,64.5,0,0,1-8.673,6.058q-1.171.725-2.393,1.431C1106.439,498.43,1106.565,498.522,1106.692,498.619Z" transform="translate(-3 -139)"/><path class="cls-5" d="M1141.438,510.086v7.767a62.447,62.447,0,0,0,41.643-15.83l-7.2-3.8s-.194.145-.558.4C1163.328,507.274,1151.665,510.131,1141.438,510.086Z" transform="translate(-3 -139)"/><path class="cls-5" d="M1106.31,498.332l-.144-.111-5.354,2.823v.249C1102.725,500.342,1104.552,499.351,1106.31,498.332Z" transform="translate(-3 -139)"/><path class="cls-5" d="M1140.554,510.078c-10.454.216-22.226-2.555-33.862-11.459-.167-.123-.3-.22-.382-.287-1.758,1.019-3.585,2.01-5.5,2.961V503.5c15.026,10.531,28.811,14.223,40.626,14.353v-7.767C1141.142,510.084,1140.846,510.084,1140.554,510.078Z" transform="translate(-3 -139)"/><path class="cls-5" d="M1175.883,498.221c-.186.137-.372.264-.558.4C1175.689,498.366,1175.883,498.221,1175.883,498.221Z" transform="translate(-3 -139)"/><path class="cls-5" d="M1140.554,510.078c-17.835-.371-31.122-9.442-33.862-11.459C1118.328,507.523,1130.1,510.294,1140.554,510.078Z" transform="translate(-3 -139)"/><polygon class="cls-5" points="1254.895 451.728 1253.188 446.63 1138.438 446.209 1138.438 451.728 1254.895 451.728"/><polygon class="cls-5" points="1097.812 451.728 1138.438 451.728 1138.438 446.209 1097.812 446.06 1097.812 451.728"/><line class="cls-3" x1="1097.812" y1="509" x2="1097.812" y2="495.956"/><line class="cls-3" x1="609.198" y1="465.244" x2="609.198" y2="495.956"/><line class="cls-3" x1="609.198" y1="448.114" x2="609.198" y2="463.485"/><line class="cls-3" x1="609.198" y1="463.485" x2="609.198" y2="465.244"/><line class="cls-3" x1="609.198" y1="441.586" x2="609.198" y2="448.114"/><line class="cls-3" x1="1097.812" y1="463.485" x2="1097.812" y2="451.728"/><path class="cls-3" d="M1098.97,502.181c.621-.292,1.237-.587,1.842-.888v-.249l-1.975,1.042C1098.881,502.119,1098.925,502.148,1098.97,502.181Z" transform="translate(-3 -139)"/><path class="cls-3" d="M1100.812,501.293c-.6.3-1.221.6-1.842.888q.924.678,1.842,1.319Z" transform="translate(-3 -139)"/><line class="cls-3" x1="1097.812" y1="451.728" x2="1097.812" y2="446.06"/><path class="cls-3" d="M772.073,829.96c.023.823.123,1.662.2,2.5q.049.237.1.474a11.647,11.647,0,0,0-.3-3.544C772.073,829.578,772.067,829.769,772.073,829.96Z" transform="translate(-3 -139)"/><path class="cls-1" d="M858.191,288.59V139s-37.277,42.878-149.011,58.571S581.753,260.52,581.753,260.52s-16.948,47.53-39.546,58.829h86.625l229.359-2.5Z" transform="translate(-3 -139)"/><path class="cls-1" d="M857.019,288.59V139s37.277,42.878,149.011,58.571,127.427,62.949,127.427,62.949,16.948,47.53,39.546,58.829h-86.625l-229.359-2.5Z" transform="translate(-3 -139)"/><path class="cls-4" d="M559.379,302.219s-8.059,11.48-18.1,17.13H1173s-13.366-9.779-18.1-17.13Z" transform="translate(-3 -139)"/><path class="cls-4" d="M768.327,184.971S816.845,174.587,857.019,139c0,0,29.724,29.6,88.933,45.971C945.952,184.971,855.4,218.822,768.327,184.971Z" transform="translate(-3 -139)"/><path class="cls-5" d="M768.327,184.971s85.147,33.851,177.625,0l18.338,4.819s-91.63,45.106-214.637.079" transform="translate(-3 -139)"/><polygon class="cls-5" points="556.379 163.219 561.388 155.688 1147.552 156.757 1151.9 163.219 556.379 163.219"/><path class="cls-5" d="M840.315,152.15s17.673,10.445,32.567,0L857.019,139Z" transform="translate(-3 -139)"/><line class="cls-1" x1="1097.945" y1="443.01" x2="1097.945" y2="463.485"/><line class="cls-1" x1="608.267" y1="463.485" x2="608.267" y2="443.01"/><line class="cls-5" x1="1097.945" y1="457.436" x2="1097.945" y2="463.485"/><line class="cls-5" x1="608.267" y1="463.485" x2="608.267" y2="457.436"/><path class="cls-4" d="M254.587,469.866s50.127-10.384,91.635-45.971c0,0,30.711,29.6,91.884,45.971C438.106,469.866,344.546,503.717,254.587,469.866Z" transform="translate(-3 -139)"/><path class="cls-5" d="M254.587,469.866s87.972,33.851,183.519,0l18.947,4.819s-94.671,45.106-221.76.079" transform="translate(-3 -139)"/><path class="cls-5" d="M328.963,437.045s18.26,10.445,33.649,0l-16.39-13.15Z" transform="translate(-3 -139)"/><path class="cls-5" d="M1134.421,472.325s6.937,8.242,12.783,0l-6.227-10.375Z" transform="translate(-3 -139)"/><path class="cls-3" d="M184,634.733S200.411,800.767,184,961h47.956s-17.378-165.853-2.875-326.267" transform="translate(-3 -139)"/><path class="cls-3" d="M1071.208,630s16.411,166.407,0,327h47.956s-17.378-166.226-2.875-327" transform="translate(-3 -139)"/><path class="cls-3" d="M494.208,630s16.411,166.407,0,327h47.956s-17.378-166.226-2.875-327" transform="translate(-3 -139)"/><polyline class="cls-6" points="167 495.204 240 495 229.409 520 179.545 520 167 498.643"/><polyline class="cls-6" points="476.022 495.373 549.022 495.169 538.432 520.169 488.567 520.169 476.022 498.812"/><polyline class="cls-6" points="1053.799 495.373 1126.799 495.169 1116.209 520.169 1066.344 520.169 1053.799 498.812"/><polyline class="cls-6" points="241.022 817.57 168.022 817.774 178.613 792.774 228.478 792.774 241.022 814.131"/><polyline class="cls-6" points="554.608 817.57 481.608 817.774 492.199 792.774 542.064 792.774 554.608 814.131"/><polyline class="cls-6" points="1128.818 817.57 1055.818 817.774 1066.409 792.774 1116.274 792.774 1128.818 814.131"/><rect class="cls-7" x="44.937" y="818" width="26.063" height="28"/><rect class="cls-8" x="20.671" y="829.083" width="24.266" height="16.917"/><rect class="cls-9" y="838.417" width="20.671" height="7.583"/><rect class="cls-7" x="1227.64" y="957.28" width="25.094" height="28" transform="translate(2477.374 1803.56) rotate(-180)"/><rect class="cls-8" x="1252.734" y="968.364" width="23.364" height="16.917" transform="translate(2525.832 1814.644) rotate(-180)"/><rect class="cls-9" x="1276.098" y="977.697" width="19.902" height="7.583" transform="translate(2569.098 1823.977) rotate(-180)"/></svg>