<?xml version="1.0" encoding="UTF-8"?><svg xmlns="http://www.w3.org/2000/svg" viewBox="0 0 24.6724 38.8048"><defs><style>.d{fill:#fff;}.e{fill:#aaa;}.f{fill:#cecece;}</style></defs><g id="a"/><g id="b"><g id="c"><g><path class="d" d="M.3423,35.1736l14.9809,1.7197s.1338-.6306-.4204-.7452-13.6051-1.3949-13.6051-1.3949c0,0-.5541-.1529-.9554,.4204Z"/><path class="f" d="M21.6968,22.2094l2.6486-6.9585c.8699-2.6669-.0339-5.5927-2.2563-7.3045L11.7723,0l-.4715,.9885,10.262,7.9967c1.7812,1.388,2.5086,3.7392,1.8224,5.8906l-2.6613,6.9892,.9729,.3444Z"/><rect class="f" x="6.2585" y="36.4545" width="4.8726" height="2.3503"/><rect class="f" x=".0108" y="35.7938" width="16.0965" height="1.0556" transform="translate(3.8691 -.6466) rotate(6.0439)"/><polygon class="f" points="14.947 37.3471 15.9429 37.6298 22.5717 19.8958 21.6051 19.5346 14.947 37.3471"/><path class="f" d="M19.0801,27.5978l-13.4916,2.6602c-1.3571,.2796-2.1789,1.6667-1.7721,2.9913l.6745,2.6319-1.2898-.1433-.3682-2.9521c-.1653-1.3998,.7562-2.6974,2.1323-3.0026l14.6595-3.3032-.5446,1.1178Z"/><polygon class="d" points="4.4888 29.9952 18.304 26.8328 16.86 27.0836 4.8758 29.8047 4.4888 29.9952"/><polygon class="e" points="6.2585 37.1131 11.1311 37.6296 11.1311 37.1776 6.2585 36.6617 6.2585 37.1131"/><polygon class="d" points="3.1294 35.1742 4.315 35.1948 4.3676 35.4 3.1377 35.2697 3.1294 35.1742"/><polygon class="e" points="15.2444 36.5516 16.007 37.6938 16.007 37.6808 15.2601 36.5097 15.2444 36.5516"/><polygon class="d" points="11.9744 .258 21.3327 7.5239 21.2304 7.285 12.2343 .3558 11.9744 .258"/></g></g></g></svg>