<?xml version="1.0" encoding="utf-8"?>
<!-- Generator: Adobe Illustrator 26.2.1, SVG Export Plug-In . SVG Version: 6.00 Build 0)  -->
<svg version="1.1" id="Layer_1" xmlns="http://www.w3.org/2000/svg" xmlns:xlink="http://www.w3.org/1999/xlink" x="0px" y="0px"
	 viewBox="0 0 24.7 38.8" style="enable-background:new 0 0 24.7 38.8;" xml:space="preserve">
<style type="text/css">
	.st0{fill:#E3FEFF;}
	.st1{fill:#B8D6DD;}
	.st2{fill:#97C3CE;}
</style>
<g id="a">
</g>
<g id="b">
	<g id="c">
		<g>
			<path class="st0" d="M0.3,35.2l15,1.7c0,0,0.1-0.6-0.4-0.7S1.3,34.8,1.3,34.8S0.7,34.6,0.3,35.2z"/>
			<path class="st1" d="M21.7,22.2l2.6-7c0.9-2.7,0-5.6-2.3-7.3L11.8,0l-0.5,1l10.3,8c1.8,1.4,2.5,3.7,1.8,5.9l-2.7,7
				C20.7,21.9,21.7,22.2,21.7,22.2z"/>
			<rect x="6.3" y="36.5" class="st1" width="4.9" height="2.4"/>
			
				<rect x="7.5" y="28.3" transform="matrix(0.1053 -0.9944 0.9944 0.1053 -28.9093 40.5116)" class="st1" width="1.1" height="16.1"/>
			<polygon class="st1" points="14.9,37.3 15.9,37.6 22.6,19.9 21.6,19.5 			"/>
			<path class="st1" d="M19.1,27.6L5.6,30.3c-1.4,0.3-2.2,1.7-1.8,3l0.7,2.6l-1.3-0.1l-0.4-3c-0.2-1.4,0.8-2.7,2.1-3l14.7-3.3
				C19.6,26.5,19.1,27.6,19.1,27.6z"/>
			<polygon class="st0" points="4.5,30 18.3,26.8 16.9,27.1 4.9,29.8 			"/>
			<polygon class="st2" points="6.3,37.1 11.1,37.6 11.1,37.2 6.3,36.7 			"/>
			<polygon class="st2" points="3.1,35.2 4.3,35.2 4.4,35.4 3.1,35.3 			"/>
			<polygon class="st2" points="15.2,36.6 16,37.7 16,37.7 15.3,36.5 			"/>
			<polygon class="st0" points="12,0.3 21.3,7.5 21.2,7.3 12.2,0.4 			"/>
		</g>
	</g>
</g>
</svg>
