<?xml version="1.0" encoding="UTF-8"?><svg xmlns="http://www.w3.org/2000/svg" xmlns:xlink="http://www.w3.org/1999/xlink" viewBox="0 0 64.4532 257.8126"><defs><style>.e{fill:#fff;}.f{fill:url(#d);}.g{fill:none;}.h{fill:#cecece;}</style><pattern id="d" x="0" y="0" width="20" height="20" patternTransform="translate(-1100.8455 972.44)" patternUnits="userSpaceOnUse" viewBox="0 0 20 20"><g><rect class="g" width="20" height="20"/><polygon class="h" points="11.6037 13.2081 8.0412 26.418 8.3829 26.792 11.9589 13.5075 11.6037 13.2081"/><polygon class="h" points="11.6037 3.2081 8.0412 16.418 8.3829 16.792 11.9589 3.5075 11.6037 3.2081"/><polygon class="h" points="11.6037 -6.7919 8.0412 6.418 8.3829 6.792 11.9589 -6.4925 11.6037 -6.7919"/></g></pattern></defs><g id="a"/><g id="b"><g id="c"><g><path class="e" d="M0,0L28.4095,30.6332v227.1795h7.6341V30.6332L64.4532,0H0ZM12.8906,4.9289h15.5189V21.6634L12.8906,4.9289Zm23.153,0h15.5189l-15.5189,16.7345V4.9289Z"/><path class="f" d="M0,0L28.4095,30.6332v227.1795h7.6341V30.6332L64.4532,0H0ZM12.8906,4.9289h15.5189V21.6634L12.8906,4.9289Zm23.153,0h15.5189l-15.5189,16.7345V4.9289Z"/><polygon class="h" points="28.4095 21.6634 28.4095 30.6332 27.2624 29.3963 27.0609 20.2092 28.4095 21.6634"/><polygon class="h" points="36.0436 21.6634 36.0436 30.6332 37.1907 29.3963 37.3922 20.2092 36.0436 21.6634"/></g></g></g></svg>